<?xml version="1.0" encoding="UTF-8" standalone="no"?>
<!DOCTYPE svg PUBLIC "-//W3C//DTD SVG 1.1//EN"
 "http://www.w3.org/Graphics/SVG/1.1/DTD/svg11.dtd">
<!-- Generated by graphviz version 2.40.1 (20161225.0304)
 -->
<!-- Title: G Pages: 1 -->
<svg width="1679pt" height="2084pt"
 viewBox="0.00 0.00 1679.00 2084.00" xmlns="http://www.w3.org/2000/svg" xmlns:xlink="http://www.w3.org/1999/xlink">
<g id="graph0" class="graph" transform="scale(1 1) rotate(0) translate(4 2080)">
<title>G</title>
<polygon fill="#ffffff" stroke="transparent" points="-4,4 -4,-2080 1675,-2080 1675,4 -4,4"/>
<g id="clust1" class="cluster">
<title>cluster_data</title>
<polygon fill="none" stroke="#000000" stroke-dasharray="5,2" points="853,-1904 853,-2068 1663,-2068 1663,-1904 853,-1904"/>
<text text-anchor="middle" x="871.558" y="-2055" font-family="Helvetica,sans-Serif" font-size="10.00" fill="#000000">Data</text>
</g>
<g id="clust2" class="cluster">
<title>cluster_organism</title>
<polygon fill="none" stroke="#000000" stroke-dasharray="5,2" points="1269,-1940 1269,-2012 1457,-2012 1457,-1940 1269,-1940"/>
<text text-anchor="middle" x="1309.784" y="-1999" font-family="Helvetica,sans-Serif" font-size="10.00" fill="#000000">Organism data</text>
</g>
<g id="clust3" class="cluster">
<title>cluster_contaminants</title>
<polygon fill="none" stroke="#000000" stroke-dasharray="5,2" points="1175,-1940 1175,-2012 1261,-2012 1261,-1940 1175,-1940"/>
<text text-anchor="middle" x="1213.8395" y="-1999" font-family="Helvetica,sans-Serif" font-size="10.00" fill="#000000">Contaminants</text>
</g>
<g id="clust4" class="cluster">
<title>cluster_additional_organism</title>
<polygon fill="none" stroke="#000000" stroke-dasharray="5,2" points="1465,-1912 1465,-2040 1655,-2040 1655,-1912 1465,-1912"/>
<text text-anchor="middle" x="1546.3455" y="-2027" font-family="Helvetica,sans-Serif" font-size="10.00" fill="#000000">Additional organism&#45;specific data</text>
</g>
<g id="clust5" class="cluster">
<title>cluster_ribosome</title>
<polygon fill="none" stroke="#000000" stroke-dasharray="5,2" points="861,-1940 861,-2012 1167,-2012 1167,-1940 861,-1940"/>
<text text-anchor="middle" x="921.509" y="-1999" font-family="Helvetica,sans-Serif" font-size="10.00" fill="#000000">Ribosome profiling data</text>
</g>
<g id="clust6" class="cluster">
<title>cluster_indexing</title>
<polygon fill="none" stroke="#000000" points="1121,-1752 1121,-1896 1375,-1896 1375,-1752 1121,-1752"/>
<text text-anchor="middle" x="1147.8965" y="-1883" font-family="Helvetica,sans-Serif" font-size="10.00" fill="#000000">Indexing</text>
</g>
<g id="clust7" class="cluster">
<title>cluster_per_sample_processing</title>
<polygon fill="none" stroke="#000000" points="8,-160 8,-1896 1113,-1896 1113,-160 8,-160"/>
<text text-anchor="middle" x="69.347" y="-1883" font-family="Helvetica,sans-Serif" font-size="10.00" fill="#000000">Process &lt;SAMPLE_ID&gt;</text>
</g>
<g id="clust8" class="cluster">
<title>cluster_tpms_collation</title>
<polygon fill="none" stroke="#000000" points="919,-8 919,-152 1063,-152 1063,-8 919,-8"/>
<text text-anchor="middle" x="959.779" y="-139" font-family="Helvetica,sans-Serif" font-size="10.00" fill="#000000">TPMs collation</text>
</g>
<!-- input/CDS.fa -->
<g id="node1" class="node">
<title>input/CDS.fa</title>
<text text-anchor="middle" x="1313" y="-1963" font-family="Helvetica,sans-Serif" font-size="10.00" fill="#000000">input/CDS.fa</text>
</g>
<!-- h2build2 -->
<g id="node9" class="node">
<title>h2build2</title>
<polygon fill="none" stroke="#000000" points="1346.6191,-1868 1279.3809,-1868 1279.3809,-1832 1346.6191,-1832 1346.6191,-1868"/>
<text text-anchor="middle" x="1313" y="-1847" font-family="Helvetica,sans-Serif" font-size="10.00" fill="#000000">hisat2&#45;build</text>
</g>
<!-- input/CDS.fa&#45;&gt;h2build2 -->
<g id="edge3" class="edge">
<title>input/CDS.fa&#45;&gt;h2build2</title>
<path fill="none" stroke="#000000" d="M1313,-1947.875C1313,-1929.3412 1313,-1900.2787 1313,-1878.6311"/>
<polygon fill="#000000" stroke="#000000" points="1316.5001,-1878.3805 1313,-1868.3805 1309.5001,-1878.3806 1316.5001,-1878.3805"/>
</g>
<!-- statsfigs -->
<g id="node26" class="node">
<title>statsfigs</title>
<polygon fill="none" stroke="#000000" points="1054.7523,-428 941.2477,-428 941.2477,-392 1054.7523,-392 1054.7523,-428"/>
<text text-anchor="middle" x="998" y="-407" font-family="Helvetica,sans-Serif" font-size="10.00" fill="#000000">generate_stats_figs.R</text>
</g>
<!-- input/CDS.fa&#45;&gt;statsfigs -->
<g id="edge39" class="edge">
<title>input/CDS.fa&#45;&gt;statsfigs</title>
<path fill="none" stroke="#000000" d="M1322.4077,-1947.7522C1330.2848,-1934.0579 1342.6878,-1915.7244 1358,-1904 1365.93,-1897.9281 1372.7916,-1903.8236 1379,-1896 1411.8982,-1854.5429 1395,-1830.9244 1395,-1778 1395,-1778 1395,-1778 1395,-554 1395,-484.6097 1177.9536,-439.107 1064.8302,-420.1036"/>
<polygon fill="#000000" stroke="#000000" points="1065.318,-416.6368 1054.8804,-418.4554 1064.174,-423.5427 1065.318,-416.6368"/>
</g>
<!-- input/CDS.gff3 -->
<g id="node2" class="node">
<title>input/CDS.gff3</title>
<text text-anchor="middle" x="1408" y="-1963" font-family="Helvetica,sans-Serif" font-size="10.00" fill="#000000">input/CDS.gff3</text>
</g>
<!-- bam2h5 -->
<g id="node25" class="node">
<title>bam2h5</title>
<polygon fill="none" stroke="#000000" points="1036.019,-572 959.981,-572 959.981,-536 1036.019,-536 1036.019,-572"/>
<text text-anchor="middle" x="998" y="-551" font-family="Helvetica,sans-Serif" font-size="10.00" fill="#000000">bam_to_h5.R</text>
</g>
<!-- input/CDS.gff3&#45;&gt;bam2h5 -->
<g id="edge36" class="edge">
<title>input/CDS.gff3&#45;&gt;bam2h5</title>
<path fill="none" stroke="#000000" d="M1412.0167,-1947.9576C1419.0836,-1914.5872 1433,-1840.8891 1433,-1778 1433,-1778 1433,-1778 1433,-914 1433,-714.8843 1159.1498,-605.1051 1046.0146,-568.2482"/>
<polygon fill="#000000" stroke="#000000" points="1046.8132,-564.8289 1036.2221,-565.1099 1044.6768,-571.4949 1046.8132,-564.8289"/>
</g>
<!-- input/CDS.gff3&#45;&gt;statsfigs -->
<g id="edge40" class="edge">
<title>input/CDS.gff3&#45;&gt;statsfigs</title>
<path fill="none" stroke="#000000" d="M1418.4032,-1947.9971C1436.2969,-1915.2819 1471,-1843.4032 1471,-1778 1471,-1778 1471,-1778 1471,-554 1471,-470.2152 1195.9571,-430.477 1065.3405,-416.3294"/>
<polygon fill="#000000" stroke="#000000" points="1065.3688,-412.8128 1055.0549,-415.2359 1064.6288,-419.7736 1065.3688,-412.8128"/>
</g>
<!-- input/rRNA.fa -->
<g id="node3" class="node">
<title>input/rRNA.fa</title>
<text text-anchor="middle" x="1218" y="-1963.3" font-family="Helvetica,sans-Serif" font-size="9.00" fill="#000000">input/rRNA.fa</text>
</g>
<!-- h2build1 -->
<g id="node8" class="node">
<title>h2build1</title>
<polygon fill="none" stroke="#000000" points="1235.6191,-1868 1168.3809,-1868 1168.3809,-1832 1235.6191,-1832 1235.6191,-1868"/>
<text text-anchor="middle" x="1202" y="-1847" font-family="Helvetica,sans-Serif" font-size="10.00" fill="#000000">hisat2&#45;build</text>
</g>
<!-- input/rRNA.fa&#45;&gt;h2build1 -->
<g id="edge1" class="edge">
<title>input/rRNA.fa&#45;&gt;h2build1</title>
<path fill="none" stroke="#000000" d="M1215.5,-1947.875C1212.9319,-1929.2566 1208.8984,-1900.0131 1205.9083,-1878.335"/>
<polygon fill="#000000" stroke="#000000" points="1209.3689,-1877.8085 1204.5352,-1868.3805 1202.4345,-1878.765 1209.3689,-1877.8085"/>
</g>
<!-- data -->
<g id="node4" class="node">
<title>data</title>
<polygon fill="none" stroke="#000000" stroke-dasharray="5,2" points="1646.8391,-2012 1473.1609,-2012 1473.1609,-1920 1646.8391,-1920 1646.8391,-2012"/>
<text text-anchor="middle" x="1560" y="-1999" font-family="Helvetica,sans-Serif" font-size="10.00" fill="#000000">data/codon_pos_i200.RData</text>
<text text-anchor="middle" x="1560" y="-1975" font-family="Helvetica,sans-Serif" font-size="10.00" fill="#000000">data/features.tsv</text>
<text text-anchor="middle" x="1560" y="-1951" font-family="Helvetica,sans-Serif" font-size="10.00" fill="#000000">data/tRNAs.tsv</text>
<text text-anchor="middle" x="1560" y="-1927" font-family="Helvetica,sans-Serif" font-size="10.00" fill="#000000">data/standard_asite_disp_length.txt</text>
</g>
<!-- data&#45;&gt;statsfigs -->
<g id="edge41" class="edge">
<title>data&#45;&gt;statsfigs</title>
<path fill="none" stroke="#000000" d="M1550.4058,-1919.8711C1543.3557,-1881.9516 1535,-1826.7308 1535,-1778 1535,-1778 1535,-1778 1535,-554 1535,-457.6774 1208.6001,-424.0203 1064.7418,-413.864"/>
<polygon fill="#000000" stroke="#000000" points="1064.9234,-410.3683 1054.7065,-413.1728 1064.4423,-417.3517 1064.9234,-410.3683"/>
</g>
<!-- ribosome_data0toI -->
<g id="node5" class="node">
<title>ribosome_data0toI</title>
<text text-anchor="middle" x="1132" y="-1963" font-family="Helvetica,sans-Serif" font-size="10.00" fill="#000000">...</text>
</g>
<!-- input/&lt;SAMPLE_ID&gt;.fastq.gz -->
<g id="node6" class="node">
<title>input/&lt;SAMPLE_ID&gt;.fastq.gz</title>
<text text-anchor="middle" x="1014" y="-1963" font-family="Helvetica,sans-Serif" font-size="10.00" fill="#000000">input/&lt;SAMPLE_ID&gt;.fastq.gz</text>
</g>
<!-- cut -->
<g id="node12" class="node">
<title>cut</title>
<polygon fill="none" stroke="#000000" points="1031.3542,-1868 976.6458,-1868 976.6458,-1832 1031.3542,-1832 1031.3542,-1868"/>
<text text-anchor="middle" x="1004" y="-1847" font-family="Helvetica,sans-Serif" font-size="10.00" fill="#000000">cutadapt</text>
</g>
<!-- input/&lt;SAMPLE_ID&gt;.fastq.gz&#45;&gt;cut -->
<g id="edge5" class="edge">
<title>input/&lt;SAMPLE_ID&gt;.fastq.gz&#45;&gt;cut</title>
<path fill="none" stroke="#000000" d="M1012.4375,-1947.875C1010.8398,-1929.3412 1008.3344,-1900.2787 1006.4682,-1878.6311"/>
<polygon fill="#000000" stroke="#000000" points="1009.9306,-1878.043 1005.5845,-1868.3805 1002.9564,-1878.6442 1009.9306,-1878.043"/>
</g>
<!-- ribosome_dataItoN -->
<g id="node7" class="node">
<title>ribosome_dataItoN</title>
<text text-anchor="middle" x="896" y="-1963" font-family="Helvetica,sans-Serif" font-size="10.00" fill="#000000">...</text>
</g>
<!-- index/rRNA.1|...|8.ht2 -->
<g id="node10" class="node">
<title>index/rRNA.1|...|8.ht2</title>
<text text-anchor="middle" x="1185" y="-1775" font-family="Helvetica,sans-Serif" font-size="10.00" fill="#000000">index/rRNA.1|...|8.ht2</text>
</g>
<!-- h2build1&#45;&gt;index/rRNA.1|...|8.ht2 -->
<g id="edge2" class="edge">
<title>h2build1&#45;&gt;index/rRNA.1|...|8.ht2</title>
<path fill="none" stroke="#000000" d="M1197.7102,-1831.8314C1195.892,-1824.131 1193.7301,-1814.9743 1191.7095,-1806.4166"/>
<polygon fill="#000000" stroke="#000000" points="1195.0519,-1805.3414 1189.3476,-1796.4133 1188.2392,-1806.95 1195.0519,-1805.3414"/>
</g>
<!-- index/CDS.1|...|8.ht2 -->
<g id="node11" class="node">
<title>index/CDS.1|...|8.ht2</title>
<text text-anchor="middle" x="1313" y="-1775" font-family="Helvetica,sans-Serif" font-size="10.00" fill="#000000">index/CDS.1|...|8.ht2</text>
</g>
<!-- h2build2&#45;&gt;index/CDS.1|...|8.ht2 -->
<g id="edge4" class="edge">
<title>h2build2&#45;&gt;index/CDS.1|...|8.ht2</title>
<path fill="none" stroke="#000000" d="M1313,-1831.8314C1313,-1824.131 1313,-1814.9743 1313,-1806.4166"/>
<polygon fill="#000000" stroke="#000000" points="1316.5001,-1806.4132 1313,-1796.4133 1309.5001,-1806.4133 1316.5001,-1806.4132"/>
</g>
<!-- h21 -->
<g id="node14" class="node">
<title>h21</title>
<polygon fill="none" stroke="#000000" points="1012,-1580 958,-1580 958,-1544 1012,-1544 1012,-1580"/>
<text text-anchor="middle" x="985" y="-1559" font-family="Helvetica,sans-Serif" font-size="10.00" fill="#000000">hisat2</text>
</g>
<!-- index/rRNA.1|...|8.ht2&#45;&gt;h21 -->
<g id="edge10" class="edge">
<title>index/rRNA.1|...|8.ht2&#45;&gt;h21</title>
<path fill="none" stroke="#000000" d="M1181.68,-1759.926C1174.7573,-1727.063 1155.816,-1657.1269 1114,-1616 1088.7169,-1591.1335 1050.2907,-1577.0636 1021.9496,-1569.5651"/>
<polygon fill="#000000" stroke="#000000" points="1022.5567,-1566.1095 1012.0075,-1567.092 1020.8669,-1572.9025 1022.5567,-1566.1095"/>
</g>
<!-- h22 -->
<g id="node15" class="node">
<title>h22</title>
<polygon fill="none" stroke="#000000" points="1012,-1436 958,-1436 958,-1400 1012,-1400 1012,-1436"/>
<text text-anchor="middle" x="985" y="-1415" font-family="Helvetica,sans-Serif" font-size="10.00" fill="#000000">hisat2</text>
</g>
<!-- index/CDS.1|...|8.ht2&#45;&gt;h22 -->
<g id="edge13" class="edge">
<title>index/CDS.1|...|8.ht2&#45;&gt;h22</title>
<path fill="none" stroke="#000000" d="M1300.4149,-1759.8478C1283.3566,-1733.4241 1255,-1682.2435 1255,-1634 1255,-1634 1255,-1634 1255,-1562 1255,-1457.819 1096.5606,-1428.75 1022.4227,-1420.8505"/>
<polygon fill="#000000" stroke="#000000" points="1022.4208,-1417.3334 1012.1248,-1419.8323 1021.7319,-1424.2994 1022.4208,-1417.3334"/>
</g>
<!-- tmp/&lt;SAMPLE_ID&gt;/&lt;SAMPLE_ID&gt;_trim.fq -->
<g id="node27" class="node">
<title>tmp/&lt;SAMPLE_ID&gt;/&lt;SAMPLE_ID&gt;_trim.fq</title>
<text text-anchor="middle" x="993" y="-1775" font-family="Helvetica,sans-Serif" font-size="10.00" fill="#000000">tmp/&lt;SAMPLE_ID&gt;/&lt;SAMPLE_ID&gt;_trim.fq</text>
</g>
<!-- cut&#45;&gt;tmp/&lt;SAMPLE_ID&gt;/&lt;SAMPLE_ID&gt;_trim.fq -->
<g id="edge6" class="edge">
<title>cut&#45;&gt;tmp/&lt;SAMPLE_ID&gt;/&lt;SAMPLE_ID&gt;_trim.fq</title>
<path fill="none" stroke="#000000" d="M1001.2242,-1831.8314C1000.0478,-1824.131 998.6489,-1814.9743 997.3414,-1806.4166"/>
<polygon fill="#000000" stroke="#000000" points="1000.7833,-1805.7699 995.8131,-1796.4133 993.8636,-1806.8272 1000.7833,-1805.7699"/>
</g>
<!-- umi_extract -->
<g id="node13" class="node">
<title>umi_extract</title>
<polygon fill="none" stroke="#000000" points="1033.567,-1724 942.433,-1724 942.433,-1688 1033.567,-1688 1033.567,-1724"/>
<text text-anchor="middle" x="988" y="-1703" font-family="Helvetica,sans-Serif" font-size="10.00" fill="#000000">umi_tools extract</text>
</g>
<!-- tmp/&lt;SAMPLE_ID&gt;/&lt;SAMPLE_ID&gt;_extract_trim.fq -->
<g id="node28" class="node">
<title>tmp/&lt;SAMPLE_ID&gt;/&lt;SAMPLE_ID&gt;_extract_trim.fq</title>
<text text-anchor="middle" x="984" y="-1631" font-family="Helvetica,sans-Serif" font-size="10.00" fill="#000000">tmp/&lt;SAMPLE_ID&gt;/&lt;SAMPLE_ID&gt;_extract_trim.fq</text>
</g>
<!-- umi_extract&#45;&gt;tmp/&lt;SAMPLE_ID&gt;/&lt;SAMPLE_ID&gt;_extract_trim.fq -->
<g id="edge8" class="edge">
<title>umi_extract&#45;&gt;tmp/&lt;SAMPLE_ID&gt;/&lt;SAMPLE_ID&gt;_extract_trim.fq</title>
<path fill="none" stroke="#000000" d="M986.9906,-1687.8314C986.5628,-1680.131 986.0541,-1670.9743 985.5787,-1662.4166"/>
<polygon fill="#000000" stroke="#000000" points="989.0724,-1662.2037 985.023,-1652.4133 982.0831,-1662.592 989.0724,-1662.2037"/>
</g>
<!-- tmp/&lt;SAMPLE_ID&gt;/&lt;SAMPLE_ID&gt;_rRNA_map.sam -->
<g id="node29" class="node">
<title>tmp/&lt;SAMPLE_ID&gt;/&lt;SAMPLE_ID&gt;_rRNA_map.sam</title>
<text text-anchor="middle" x="726" y="-1487" font-family="Helvetica,sans-Serif" font-size="10.00" fill="#000000">tmp/&lt;SAMPLE_ID&gt;/&lt;SAMPLE_ID&gt;_rRNA_map.sam</text>
</g>
<!-- h21&#45;&gt;tmp/&lt;SAMPLE_ID&gt;/&lt;SAMPLE_ID&gt;_rRNA_map.sam -->
<g id="edge11" class="edge">
<title>h21&#45;&gt;tmp/&lt;SAMPLE_ID&gt;/&lt;SAMPLE_ID&gt;_rRNA_map.sam</title>
<path fill="none" stroke="#000000" d="M957.772,-1554.4308C920.7861,-1544.149 853.2423,-1525.3724 800.5754,-1510.7314"/>
<polygon fill="#000000" stroke="#000000" points="801.4972,-1507.355 790.9251,-1508.0487 799.6223,-1514.0992 801.4972,-1507.355"/>
</g>
<!-- tmp/&lt;SAMPLE_ID&gt;/&lt;SAMPLE_ID&gt;_nonrRNA.fq -->
<g id="node30" class="node">
<title>tmp/&lt;SAMPLE_ID&gt;/&lt;SAMPLE_ID&gt;_nonrRNA.fq</title>
<text text-anchor="middle" x="985" y="-1487" font-family="Helvetica,sans-Serif" font-size="10.00" fill="#000000">tmp/&lt;SAMPLE_ID&gt;/&lt;SAMPLE_ID&gt;_nonrRNA.fq</text>
</g>
<!-- h21&#45;&gt;tmp/&lt;SAMPLE_ID&gt;/&lt;SAMPLE_ID&gt;_nonrRNA.fq -->
<g id="edge12" class="edge">
<title>h21&#45;&gt;tmp/&lt;SAMPLE_ID&gt;/&lt;SAMPLE_ID&gt;_nonrRNA.fq</title>
<path fill="none" stroke="#000000" d="M985,-1543.8314C985,-1536.131 985,-1526.9743 985,-1518.4166"/>
<polygon fill="#000000" stroke="#000000" points="988.5001,-1518.4132 985,-1508.4133 981.5001,-1518.4133 988.5001,-1518.4132"/>
</g>
<!-- tmp/&lt;SAMPLE_ID&gt;/&lt;SAMPLE_ID&gt;_unaligned.fq -->
<g id="node31" class="node">
<title>tmp/&lt;SAMPLE_ID&gt;/&lt;SAMPLE_ID&gt;_unaligned.fq</title>
<text text-anchor="middle" x="731" y="-1343" font-family="Helvetica,sans-Serif" font-size="10.00" fill="#000000">tmp/&lt;SAMPLE_ID&gt;/&lt;SAMPLE_ID&gt;_unaligned.fq</text>
</g>
<!-- h22&#45;&gt;tmp/&lt;SAMPLE_ID&gt;/&lt;SAMPLE_ID&gt;_unaligned.fq -->
<g id="edge15" class="edge">
<title>h22&#45;&gt;tmp/&lt;SAMPLE_ID&gt;/&lt;SAMPLE_ID&gt;_unaligned.fq</title>
<path fill="none" stroke="#000000" d="M957.8176,-1410.2947C921.5081,-1400.0023 855.7923,-1381.3742 804.4092,-1366.8089"/>
<polygon fill="#000000" stroke="#000000" points="805.2402,-1363.4066 794.6647,-1364.0467 803.3311,-1370.1413 805.2402,-1363.4066"/>
</g>
<!-- tmp/&lt;SAMPLE_ID&gt;/&lt;SAMPLE_ID&gt;_orf_map.sam -->
<g id="node32" class="node">
<title>tmp/&lt;SAMPLE_ID&gt;/&lt;SAMPLE_ID&gt;_orf_map.sam</title>
<text text-anchor="middle" x="985" y="-1343" font-family="Helvetica,sans-Serif" font-size="10.00" fill="#000000">tmp/&lt;SAMPLE_ID&gt;/&lt;SAMPLE_ID&gt;_orf_map.sam</text>
</g>
<!-- h22&#45;&gt;tmp/&lt;SAMPLE_ID&gt;/&lt;SAMPLE_ID&gt;_orf_map.sam -->
<g id="edge16" class="edge">
<title>h22&#45;&gt;tmp/&lt;SAMPLE_ID&gt;/&lt;SAMPLE_ID&gt;_orf_map.sam</title>
<path fill="none" stroke="#000000" d="M985,-1399.8314C985,-1392.131 985,-1382.9743 985,-1374.4166"/>
<polygon fill="#000000" stroke="#000000" points="988.5001,-1374.4132 985,-1364.4133 981.5001,-1374.4133 988.5001,-1374.4132"/>
</g>
<!-- samindex -->
<g id="node16" class="node">
<title>samindex</title>
<polygon fill="none" stroke="#000000" points="757.1796,-1004 674.8204,-1004 674.8204,-968 757.1796,-968 757.1796,-1004"/>
<text text-anchor="middle" x="716" y="-983" font-family="Helvetica,sans-Serif" font-size="10.00" fill="#000000">samtools index</text>
</g>
<!-- output/&lt;SAMPLE_ID&gt;/&lt;SAMPLE_ID&gt;.bam+.bai -->
<g id="node37" class="node">
<title>output/&lt;SAMPLE_ID&gt;/&lt;SAMPLE_ID&gt;.bam+.bai</title>
<text text-anchor="middle" x="698" y="-911" font-family="Helvetica,sans-Serif" font-size="10.00" fill="#000000">output/&lt;SAMPLE_ID&gt;/&lt;SAMPLE_ID&gt;.bam+.bai</text>
</g>
<!-- samindex&#45;&gt;output/&lt;SAMPLE_ID&gt;/&lt;SAMPLE_ID&gt;.bam+.bai -->
<g id="edge22" class="edge">
<title>samindex&#45;&gt;output/&lt;SAMPLE_ID&gt;/&lt;SAMPLE_ID&gt;.bam+.bai</title>
<path fill="none" stroke="#000000" d="M711.4578,-967.8314C709.5116,-960.0463 707.1932,-950.7729 705.0337,-942.1347"/>
<polygon fill="#000000" stroke="#000000" points="708.4242,-941.2658 702.6033,-932.4133 701.6332,-942.9636 708.4242,-941.2658"/>
</g>
<!-- samview -->
<g id="node17" class="node">
<title>samview</title>
<polygon fill="none" stroke="#000000" points="959.3875,-1148 812.6125,-1148 812.6125,-1112 959.3875,-1112 959.3875,-1148"/>
<text text-anchor="middle" x="886" y="-1127" font-family="Helvetica,sans-Serif" font-size="10.00" fill="#000000">samtools view | samtools sort</text>
</g>
<!-- output/&lt;SAMPLE_ID&gt;/&lt;SAMPLE_ID&gt;.bam -->
<g id="node36" class="node">
<title>output/&lt;SAMPLE_ID&gt;/&lt;SAMPLE_ID&gt;.bam</title>
<text text-anchor="middle" x="852" y="-1055" font-family="Helvetica,sans-Serif" font-size="10.00" fill="#000000">output/&lt;SAMPLE_ID&gt;/&lt;SAMPLE_ID&gt;.bam</text>
</g>
<!-- samview&#45;&gt;output/&lt;SAMPLE_ID&gt;/&lt;SAMPLE_ID&gt;.bam -->
<g id="edge20" class="edge">
<title>samview&#45;&gt;output/&lt;SAMPLE_ID&gt;/&lt;SAMPLE_ID&gt;.bam</title>
<path fill="none" stroke="#000000" d="M877.4204,-1111.8314C873.6642,-1103.8771 869.1743,-1094.369 865.0202,-1085.5723"/>
<polygon fill="#000000" stroke="#000000" points="868.1301,-1083.9612 860.6952,-1076.4133 861.8004,-1086.9503 868.1301,-1083.9612"/>
</g>
<!-- umi_pre_group -->
<g id="node18" class="node">
<title>umi_pre_group</title>
<polygon fill="none" stroke="#000000" points="285.6261,-860 198.3739,-860 198.3739,-824 285.6261,-824 285.6261,-860"/>
<text text-anchor="middle" x="242" y="-839" font-family="Helvetica,sans-Serif" font-size="10.00" fill="#000000">umi_tools group</text>
</g>
<!-- tmp/&lt;SAMPLE_ID&gt;/&lt;SAMPLE_ID&gt;_pre_dedup_groups.tsv -->
<g id="node34" class="node">
<title>tmp/&lt;SAMPLE_ID&gt;/&lt;SAMPLE_ID&gt;_pre_dedup_groups.tsv</title>
<text text-anchor="middle" x="155" y="-767" font-family="Helvetica,sans-Serif" font-size="10.00" fill="#000000">tmp/&lt;SAMPLE_ID&gt;/&lt;SAMPLE_ID&gt;_pre_dedup_groups.tsv</text>
</g>
<!-- umi_pre_group&#45;&gt;tmp/&lt;SAMPLE_ID&gt;/&lt;SAMPLE_ID&gt;_pre_dedup_groups.tsv -->
<g id="edge28" class="edge">
<title>umi_pre_group&#45;&gt;tmp/&lt;SAMPLE_ID&gt;/&lt;SAMPLE_ID&gt;_pre_dedup_groups.tsv</title>
<path fill="none" stroke="#000000" d="M220.0462,-823.8314C209.3305,-814.9632 196.2811,-804.1637 184.691,-794.5718"/>
<polygon fill="#000000" stroke="#000000" points="186.8822,-791.8422 176.9467,-788.1628 182.4192,-797.2349 186.8822,-791.8422"/>
</g>
<!-- umi_dedup -->
<g id="node19" class="node">
<title>umi_dedup</title>
<polygon fill="none" stroke="#000000" points="548.8567,-860 459.1433,-860 459.1433,-824 548.8567,-824 548.8567,-860"/>
<text text-anchor="middle" x="504" y="-839" font-family="Helvetica,sans-Serif" font-size="10.00" fill="#000000">umi_tools dedup</text>
</g>
<!-- output/&lt;SAMPLE_ID&gt;/&lt;SAMPLE_ID&gt;_dedup.bam -->
<g id="node40" class="node">
<title>output/&lt;SAMPLE_ID&gt;/&lt;SAMPLE_ID&gt;_dedup.bam</title>
<text text-anchor="middle" x="433" y="-767" font-family="Helvetica,sans-Serif" font-size="10.00" fill="#000000">output/&lt;SAMPLE_ID&gt;/&lt;SAMPLE_ID&gt;_dedup.bam</text>
</g>
<!-- umi_dedup&#45;&gt;output/&lt;SAMPLE_ID&gt;/&lt;SAMPLE_ID&gt;_dedup.bam -->
<g id="edge30" class="edge">
<title>umi_dedup&#45;&gt;output/&lt;SAMPLE_ID&gt;/&lt;SAMPLE_ID&gt;_dedup.bam</title>
<path fill="none" stroke="#000000" d="M486.0837,-823.8314C477.6558,-815.2848 467.459,-804.9443 458.264,-795.6198"/>
<polygon fill="#000000" stroke="#000000" points="460.6711,-793.0761 451.1575,-788.4133 455.6869,-797.9912 460.6711,-793.0761"/>
</g>
<!-- umi_post_group -->
<g id="node20" class="node">
<title>umi_post_group</title>
<polygon fill="none" stroke="#000000" points="476.6261,-716 389.3739,-716 389.3739,-680 476.6261,-680 476.6261,-716"/>
<text text-anchor="middle" x="433" y="-695" font-family="Helvetica,sans-Serif" font-size="10.00" fill="#000000">umi_tools group</text>
</g>
<!-- tmp/&lt;SAMPLE_ID&gt;/&lt;SAMPLE_ID&gt;_post_dedup_groups.tsv -->
<g id="node35" class="node">
<title>tmp/&lt;SAMPLE_ID&gt;/&lt;SAMPLE_ID&gt;_post_dedup_groups.tsv</title>
<text text-anchor="middle" x="433" y="-623" font-family="Helvetica,sans-Serif" font-size="10.00" fill="#000000">tmp/&lt;SAMPLE_ID&gt;/&lt;SAMPLE_ID&gt;_post_dedup_groups.tsv</text>
</g>
<!-- umi_post_group&#45;&gt;tmp/&lt;SAMPLE_ID&gt;/&lt;SAMPLE_ID&gt;_post_dedup_groups.tsv -->
<g id="edge32" class="edge">
<title>umi_post_group&#45;&gt;tmp/&lt;SAMPLE_ID&gt;/&lt;SAMPLE_ID&gt;_post_dedup_groups.tsv</title>
<path fill="none" stroke="#000000" d="M433,-679.8314C433,-672.131 433,-662.9743 433,-654.4166"/>
<polygon fill="#000000" stroke="#000000" points="436.5001,-654.4132 433,-644.4133 429.5001,-654.4133 436.5001,-654.4132"/>
</g>
<!-- samindex_dedup -->
<g id="node21" class="node">
<title>samindex_dedup</title>
<polygon fill="none" stroke="#000000" points="734.1796,-716 651.8204,-716 651.8204,-680 734.1796,-680 734.1796,-716"/>
<text text-anchor="middle" x="693" y="-695" font-family="Helvetica,sans-Serif" font-size="10.00" fill="#000000">samtools index</text>
</g>
<!-- output/&lt;SAMPLE_ID&gt;/&lt;SAMPLE_ID&gt;_dedup.bam+.bai -->
<g id="node41" class="node">
<title>output/&lt;SAMPLE_ID&gt;/&lt;SAMPLE_ID&gt;_dedup.bam+.bai</title>
<text text-anchor="middle" x="849" y="-623" font-family="Helvetica,sans-Serif" font-size="10.00" fill="#000000">output/&lt;SAMPLE_ID&gt;/&lt;SAMPLE_ID&gt;_dedup.bam+.bai</text>
</g>
<!-- samindex_dedup&#45;&gt;output/&lt;SAMPLE_ID&gt;/&lt;SAMPLE_ID&gt;_dedup.bam+.bai -->
<g id="edge34" class="edge">
<title>samindex_dedup&#45;&gt;output/&lt;SAMPLE_ID&gt;/&lt;SAMPLE_ID&gt;_dedup.bam+.bai</title>
<path fill="none" stroke="#000000" d="M732.3654,-679.8314C753.1367,-670.2446 778.7983,-658.4008 800.7581,-648.2655"/>
<polygon fill="#000000" stroke="#000000" points="802.3048,-651.4065 809.9177,-644.038 799.3714,-645.0508 802.3048,-651.4065"/>
</g>
<!-- trim -->
<g id="node22" class="node">
<title>trim</title>
<polygon fill="none" stroke="#000000" points="1016.504,-1292 905.496,-1292 905.496,-1256 1016.504,-1256 1016.504,-1292"/>
<text text-anchor="middle" x="961" y="-1271" font-family="Helvetica,sans-Serif" font-size="10.00" fill="#000000">trim_5p_mismatch.py</text>
</g>
<!-- tmp/&lt;SAMPLE_ID&gt;/&lt;SAMPLE_ID&gt;_orf_map_clean.sam -->
<g id="node33" class="node">
<title>tmp/&lt;SAMPLE_ID&gt;/&lt;SAMPLE_ID&gt;_orf_map_clean.sam</title>
<text text-anchor="middle" x="954" y="-1199" font-family="Helvetica,sans-Serif" font-size="10.00" fill="#000000">tmp/&lt;SAMPLE_ID&gt;/&lt;SAMPLE_ID&gt;_orf_map_clean.sam</text>
</g>
<!-- trim&#45;&gt;tmp/&lt;SAMPLE_ID&gt;/&lt;SAMPLE_ID&gt;_orf_map_clean.sam -->
<g id="edge18" class="edge">
<title>trim&#45;&gt;tmp/&lt;SAMPLE_ID&gt;/&lt;SAMPLE_ID&gt;_orf_map_clean.sam</title>
<path fill="none" stroke="#000000" d="M959.2336,-1255.8314C958.485,-1248.131 957.5947,-1238.9743 956.7627,-1230.4166"/>
<polygon fill="#000000" stroke="#000000" points="960.2415,-1230.0276 955.7902,-1220.4133 953.2744,-1230.7051 960.2415,-1230.0276"/>
</g>
<!-- bedplus -->
<g id="node23" class="node">
<title>bedplus</title>
<polygon fill="none" stroke="#000000" points="759.5319,-860 636.4681,-860 636.4681,-824 759.5319,-824 759.5319,-860"/>
<text text-anchor="middle" x="698" y="-839" font-family="Helvetica,sans-Serif" font-size="10.00" fill="#000000">bedtools genomecov (+)</text>
</g>
<!-- output/&lt;SAMPLE_ID&gt;/&lt;SAMPLE_ID&gt;_plus.bedgraph -->
<g id="node38" class="node">
<title>output/&lt;SAMPLE_ID&gt;/&lt;SAMPLE_ID&gt;_plus.bedgraph</title>
<text text-anchor="middle" x="698" y="-767" font-family="Helvetica,sans-Serif" font-size="10.00" fill="#000000">output/&lt;SAMPLE_ID&gt;/&lt;SAMPLE_ID&gt;_plus.bedgraph</text>
</g>
<!-- bedplus&#45;&gt;output/&lt;SAMPLE_ID&gt;/&lt;SAMPLE_ID&gt;_plus.bedgraph -->
<g id="edge24" class="edge">
<title>bedplus&#45;&gt;output/&lt;SAMPLE_ID&gt;/&lt;SAMPLE_ID&gt;_plus.bedgraph</title>
<path fill="none" stroke="#000000" d="M698,-823.8314C698,-816.131 698,-806.9743 698,-798.4166"/>
<polygon fill="#000000" stroke="#000000" points="701.5001,-798.4132 698,-788.4133 694.5001,-798.4133 701.5001,-798.4132"/>
</g>
<!-- bedminus -->
<g id="node24" class="node">
<title>bedminus</title>
<polygon fill="none" stroke="#000000" points="966.521,-860 845.479,-860 845.479,-824 966.521,-824 966.521,-860"/>
<text text-anchor="middle" x="906" y="-839" font-family="Helvetica,sans-Serif" font-size="10.00" fill="#000000">bedtools genomecov (&#45;)</text>
</g>
<!-- output/&lt;SAMPLE_ID&gt;/&lt;SAMPLE_ID&gt;_minus.bedgraph -->
<g id="node39" class="node">
<title>output/&lt;SAMPLE_ID&gt;/&lt;SAMPLE_ID&gt;_minus.bedgraph</title>
<text text-anchor="middle" x="974" y="-767" font-family="Helvetica,sans-Serif" font-size="10.00" fill="#000000">output/&lt;SAMPLE_ID&gt;/&lt;SAMPLE_ID&gt;_minus.bedgraph</text>
</g>
<!-- bedminus&#45;&gt;output/&lt;SAMPLE_ID&gt;/&lt;SAMPLE_ID&gt;_minus.bedgraph -->
<g id="edge26" class="edge">
<title>bedminus&#45;&gt;output/&lt;SAMPLE_ID&gt;/&lt;SAMPLE_ID&gt;_minus.bedgraph</title>
<path fill="none" stroke="#000000" d="M923.1593,-823.8314C931.1511,-815.3694 940.8038,-805.1489 949.5416,-795.8971"/>
<polygon fill="#000000" stroke="#000000" points="952.288,-798.0866 956.6097,-788.4133 947.1989,-793.2802 952.288,-798.0866"/>
</g>
<!-- output/&lt;SAMPLE_ID&gt;/&lt;SAMPLE_ID&gt;.h5 -->
<g id="node42" class="node">
<title>output/&lt;SAMPLE_ID&gt;/&lt;SAMPLE_ID&gt;.h5</title>
<text text-anchor="middle" x="998" y="-479" font-family="Helvetica,sans-Serif" font-size="10.00" fill="#000000">output/&lt;SAMPLE_ID&gt;/&lt;SAMPLE_ID&gt;.h5</text>
</g>
<!-- bam2h5&#45;&gt;output/&lt;SAMPLE_ID&gt;/&lt;SAMPLE_ID&gt;.h5 -->
<g id="edge37" class="edge">
<title>bam2h5&#45;&gt;output/&lt;SAMPLE_ID&gt;/&lt;SAMPLE_ID&gt;.h5</title>
<path fill="none" stroke="#000000" d="M998,-535.8314C998,-528.131 998,-518.9743 998,-510.4166"/>
<polygon fill="#000000" stroke="#000000" points="1001.5001,-510.4132 998,-500.4133 994.5001,-510.4133 1001.5001,-510.4132"/>
</g>
<!-- pdfs -->
<g id="node43" class="node">
<title>pdfs</title>
<polygon fill="none" stroke="#000000" stroke-dasharray="5,2" points="526.5473,-356 211.4527,-356 211.4527,-168 526.5473,-168 526.5473,-356"/>
<text text-anchor="middle" x="369" y="-343" font-family="Helvetica,sans-Serif" font-size="10.00" fill="#000000">output/&lt;SAMPLE_ID&gt;/&lt;SAMPLE_ID&gt;_3nt_periodicity.pdf</text>
<text text-anchor="middle" x="369" y="-319" font-family="Helvetica,sans-Serif" font-size="10.00" fill="#000000">output/&lt;SAMPLE_ID&gt;/&lt;SAMPLE_ID&gt;_codon_ribodens.pdf</text>
<text text-anchor="middle" x="369" y="-295" font-family="Helvetica,sans-Serif" font-size="10.00" fill="#000000">output/&lt;SAMPLE_ID&gt;/&lt;SAMPLE_ID&gt;_read_lengths.pdf</text>
<text text-anchor="middle" x="369" y="-271" font-family="Helvetica,sans-Serif" font-size="10.00" fill="#000000">output/&lt;SAMPLE_ID&gt;/&lt;SAMPLE_ID&gt;_pos_sp_rpf_norm_reads.pdf</text>
<text text-anchor="middle" x="369" y="-247" font-family="Helvetica,sans-Serif" font-size="10.00" fill="#000000">output/&lt;SAMPLE_ID&gt;/&lt;SAMPLE_ID&gt;_features.pdf</text>
<text text-anchor="middle" x="369" y="-223" font-family="Helvetica,sans-Serif" font-size="10.00" fill="#000000">output/&lt;SAMPLE_ID&gt;/&lt;SAMPLE_ID&gt;_startcodon_ribogridbar.pdf</text>
<text text-anchor="middle" x="369" y="-199" font-family="Helvetica,sans-Serif" font-size="10.00" fill="#000000">output/&lt;SAMPLE_ID&gt;/&lt;SAMPLE_ID&gt;_startcodon_ribogrid.pdf</text>
<text text-anchor="middle" x="369" y="-175" font-family="Helvetica,sans-Serif" font-size="10.00" fill="#000000">output/&lt;SAMPLE_ID&gt;/&lt;SAMPLE_ID&gt;_3ntframe_propbygene.pdf</text>
</g>
<!-- statsfigs&#45;&gt;pdfs -->
<g id="edge42" class="edge">
<title>statsfigs&#45;&gt;pdfs</title>
<path fill="none" stroke="#000000" d="M941.2961,-406.1785C839.0051,-398.8404 626.6379,-381.4618 536.7952,-355.8941"/>
<polygon fill="#000000" stroke="#000000" points="537.5529,-352.4662 526.967,-352.9016 535.5139,-359.1627 537.5529,-352.4662"/>
</g>
<!-- tsvs -->
<g id="node44" class="node">
<title>tsvs</title>
<polygon fill="none" stroke="#000000" stroke-dasharray="5,2" points="859.4293,-332 544.5707,-332 544.5707,-192 859.4293,-192 859.4293,-332"/>
<text text-anchor="middle" x="702" y="-319" font-family="Helvetica,sans-Serif" font-size="10.00" fill="#000000">output/&lt;SAMPLE_ID&gt;/&lt;SAMPLE_ID&gt;_3nt_periodicity.tsv</text>
<text text-anchor="middle" x="702" y="-295" font-family="Helvetica,sans-Serif" font-size="10.00" fill="#000000">output/&lt;SAMPLE_ID&gt;/&lt;SAMPLE_ID&gt;_codon_ribodens.tsv</text>
<text text-anchor="middle" x="702" y="-271" font-family="Helvetica,sans-Serif" font-size="10.00" fill="#000000">output/&lt;SAMPLE_ID&gt;/&lt;SAMPLE_ID&gt;_read_lengths.tsv</text>
<text text-anchor="middle" x="702" y="-247" font-family="Helvetica,sans-Serif" font-size="10.00" fill="#000000">output/&lt;SAMPLE_ID&gt;/&lt;SAMPLE_ID&gt;_pos_sp_rpf_norm_reads.tsv</text>
<text text-anchor="middle" x="702" y="-223" font-family="Helvetica,sans-Serif" font-size="10.00" fill="#000000">output/&lt;SAMPLE_ID&gt;/&lt;SAMPLE_ID&gt;_pos_sp_nt_freq.tsv</text>
<text text-anchor="middle" x="702" y="-199" font-family="Helvetica,sans-Serif" font-size="10.00" fill="#000000">output/&lt;SAMPLE_ID&gt;/&lt;SAMPLE_ID&gt;_3ntframe_bygene.tsv</text>
</g>
<!-- statsfigs&#45;&gt;tsvs -->
<g id="edge43" class="edge">
<title>statsfigs&#45;&gt;tsvs</title>
<path fill="none" stroke="#000000" d="M950.7584,-391.9829C925.8219,-382.0719 894.899,-369.1424 868,-356 855.7878,-350.0334 843.2251,-343.564 830.738,-336.9065"/>
<polygon fill="#000000" stroke="#000000" points="832.1303,-333.6814 821.6649,-332.03 828.8163,-339.8472 832.1303,-333.6814"/>
</g>
<!-- output/&lt;SAMPLE_ID&gt;/&lt;SAMPLE_ID&gt;_tpms.tsv -->
<g id="node45" class="node">
<title>output/&lt;SAMPLE_ID&gt;/&lt;SAMPLE_ID&gt;_tpms.tsv</title>
<text text-anchor="middle" x="991" y="-259" font-family="Helvetica,sans-Serif" font-size="10.00" fill="#000000">output/&lt;SAMPLE_ID&gt;/&lt;SAMPLE_ID&gt;_tpms.tsv</text>
</g>
<!-- statsfigs&#45;&gt;output/&lt;SAMPLE_ID&gt;/&lt;SAMPLE_ID&gt;_tpms.tsv -->
<g id="edge44" class="edge">
<title>statsfigs&#45;&gt;output/&lt;SAMPLE_ID&gt;/&lt;SAMPLE_ID&gt;_tpms.tsv</title>
<path fill="none" stroke="#000000" d="M997.1417,-391.8523C995.9451,-366.5539 993.7638,-320.4342 992.3488,-290.5167"/>
<polygon fill="#000000" stroke="#000000" points="995.834,-290.1196 991.8654,-280.2961 988.8418,-290.4504 995.834,-290.1196"/>
</g>
<!-- tmp/&lt;SAMPLE_ID&gt;/&lt;SAMPLE_ID&gt;_trim.fq&#45;&gt;umi_extract -->
<g id="edge7" class="edge">
<title>tmp/&lt;SAMPLE_ID&gt;/&lt;SAMPLE_ID&gt;_trim.fq&#45;&gt;umi_extract</title>
<path fill="none" stroke="#000000" d="M991.7383,-1759.8314C991.2035,-1752.131 990.5677,-1742.9743 989.9734,-1734.4166"/>
<polygon fill="#000000" stroke="#000000" points="993.4632,-1734.1467 989.2787,-1724.4133 986.48,-1734.6317 993.4632,-1734.1467"/>
</g>
<!-- tmp/&lt;SAMPLE_ID&gt;/&lt;SAMPLE_ID&gt;_extract_trim.fq&#45;&gt;h21 -->
<g id="edge9" class="edge">
<title>tmp/&lt;SAMPLE_ID&gt;/&lt;SAMPLE_ID&gt;_extract_trim.fq&#45;&gt;h21</title>
<path fill="none" stroke="#000000" d="M984.2523,-1615.8314C984.3593,-1608.131 984.4865,-1598.9743 984.6053,-1590.4166"/>
<polygon fill="#000000" stroke="#000000" points="988.1049,-1590.4609 984.7443,-1580.4133 981.1056,-1590.3637 988.1049,-1590.4609"/>
</g>
<!-- tmp/&lt;SAMPLE_ID&gt;/&lt;SAMPLE_ID&gt;_nonrRNA.fq&#45;&gt;h22 -->
<g id="edge14" class="edge">
<title>tmp/&lt;SAMPLE_ID&gt;/&lt;SAMPLE_ID&gt;_nonrRNA.fq&#45;&gt;h22</title>
<path fill="none" stroke="#000000" d="M985,-1471.8314C985,-1464.131 985,-1454.9743 985,-1446.4166"/>
<polygon fill="#000000" stroke="#000000" points="988.5001,-1446.4132 985,-1436.4133 981.5001,-1446.4133 988.5001,-1446.4132"/>
</g>
<!-- tmp/&lt;SAMPLE_ID&gt;/&lt;SAMPLE_ID&gt;_orf_map.sam&#45;&gt;trim -->
<g id="edge17" class="edge">
<title>tmp/&lt;SAMPLE_ID&gt;/&lt;SAMPLE_ID&gt;_orf_map.sam&#45;&gt;trim</title>
<path fill="none" stroke="#000000" d="M978.9438,-1327.8314C976.3488,-1320.0463 973.2576,-1310.7729 970.3782,-1302.1347"/>
<polygon fill="#000000" stroke="#000000" points="973.6205,-1300.7933 967.1378,-1292.4133 966.9797,-1303.0069 973.6205,-1300.7933"/>
</g>
<!-- tmp/&lt;SAMPLE_ID&gt;/&lt;SAMPLE_ID&gt;_orf_map_clean.sam&#45;&gt;samview -->
<g id="edge19" class="edge">
<title>tmp/&lt;SAMPLE_ID&gt;/&lt;SAMPLE_ID&gt;_orf_map_clean.sam&#45;&gt;samview</title>
<path fill="none" stroke="#000000" d="M936.8407,-1183.8314C928.8489,-1175.3694 919.1962,-1165.1489 910.4584,-1155.8971"/>
<polygon fill="#000000" stroke="#000000" points="912.8011,-1153.2802 903.3903,-1148.4133 907.712,-1158.0866 912.8011,-1153.2802"/>
</g>
<!-- output/&lt;SAMPLE_ID&gt;/&lt;SAMPLE_ID&gt;.bam&#45;&gt;samindex -->
<g id="edge21" class="edge">
<title>output/&lt;SAMPLE_ID&gt;/&lt;SAMPLE_ID&gt;.bam&#45;&gt;samindex</title>
<path fill="none" stroke="#000000" d="M817.6815,-1039.8314C799.9641,-1030.4516 778.1655,-1018.9112 759.3016,-1008.9244"/>
<polygon fill="#000000" stroke="#000000" points="760.7831,-1005.7485 750.3076,-1004.1628 757.5078,-1011.935 760.7831,-1005.7485"/>
</g>
<!-- output/&lt;SAMPLE_ID&gt;/&lt;SAMPLE_ID&gt;.bam+.bai&#45;&gt;umi_pre_group -->
<g id="edge27" class="edge">
<title>output/&lt;SAMPLE_ID&gt;/&lt;SAMPLE_ID&gt;.bam+.bai&#45;&gt;umi_pre_group</title>
<path fill="none" stroke="#000000" d="M583.8145,-895.9707C491.6606,-881.4201 366.1434,-861.6016 295.6847,-850.4765"/>
<polygon fill="#000000" stroke="#000000" points="296.1227,-847.0024 285.6992,-848.8999 295.0309,-853.9167 296.1227,-847.0024"/>
</g>
<!-- output/&lt;SAMPLE_ID&gt;/&lt;SAMPLE_ID&gt;.bam+.bai&#45;&gt;umi_dedup -->
<g id="edge29" class="edge">
<title>output/&lt;SAMPLE_ID&gt;/&lt;SAMPLE_ID&gt;.bam+.bai&#45;&gt;umi_dedup</title>
<path fill="none" stroke="#000000" d="M649.0456,-895.8314C621.4133,-885.5761 586.8219,-872.738 558.3511,-862.1715"/>
<polygon fill="#000000" stroke="#000000" points="559.5423,-858.8804 548.9493,-858.6822 557.1067,-865.443 559.5423,-858.8804"/>
</g>
<!-- output/&lt;SAMPLE_ID&gt;/&lt;SAMPLE_ID&gt;.bam+.bai&#45;&gt;bedplus -->
<g id="edge23" class="edge">
<title>output/&lt;SAMPLE_ID&gt;/&lt;SAMPLE_ID&gt;.bam+.bai&#45;&gt;bedplus</title>
<path fill="none" stroke="#000000" d="M698,-895.8314C698,-888.131 698,-878.9743 698,-870.4166"/>
<polygon fill="#000000" stroke="#000000" points="701.5001,-870.4132 698,-860.4133 694.5001,-870.4133 701.5001,-870.4132"/>
</g>
<!-- output/&lt;SAMPLE_ID&gt;/&lt;SAMPLE_ID&gt;.bam+.bai&#45;&gt;bedminus -->
<g id="edge25" class="edge">
<title>output/&lt;SAMPLE_ID&gt;/&lt;SAMPLE_ID&gt;.bam+.bai&#45;&gt;bedminus</title>
<path fill="none" stroke="#000000" d="M750.2187,-895.9243C778.7771,-886.0387 814.3295,-873.7321 844.2568,-863.3726"/>
<polygon fill="#000000" stroke="#000000" points="845.4549,-866.6618 853.7598,-860.0831 843.165,-860.0469 845.4549,-866.6618"/>
</g>
<!-- output/&lt;SAMPLE_ID&gt;/&lt;SAMPLE_ID&gt;_dedup.bam&#45;&gt;umi_post_group -->
<g id="edge31" class="edge">
<title>output/&lt;SAMPLE_ID&gt;/&lt;SAMPLE_ID&gt;_dedup.bam&#45;&gt;umi_post_group</title>
<path fill="none" stroke="#000000" d="M433,-751.8314C433,-744.131 433,-734.9743 433,-726.4166"/>
<polygon fill="#000000" stroke="#000000" points="436.5001,-726.4132 433,-716.4133 429.5001,-726.4133 436.5001,-726.4132"/>
</g>
<!-- output/&lt;SAMPLE_ID&gt;/&lt;SAMPLE_ID&gt;_dedup.bam&#45;&gt;samindex_dedup -->
<g id="edge33" class="edge">
<title>output/&lt;SAMPLE_ID&gt;/&lt;SAMPLE_ID&gt;_dedup.bam&#45;&gt;samindex_dedup</title>
<path fill="none" stroke="#000000" d="M498.2734,-751.9243C542.7424,-739.6098 600.7777,-723.5385 641.8879,-712.1541"/>
<polygon fill="#000000" stroke="#000000" points="642.9913,-715.4804 651.6945,-709.4384 641.1231,-708.7343 642.9913,-715.4804"/>
</g>
<!-- output/&lt;SAMPLE_ID&gt;/&lt;SAMPLE_ID&gt;_dedup.bam+.bai&#45;&gt;bam2h5 -->
<g id="edge35" class="edge">
<title>output/&lt;SAMPLE_ID&gt;/&lt;SAMPLE_ID&gt;_dedup.bam+.bai&#45;&gt;bam2h5</title>
<path fill="none" stroke="#000000" d="M886.599,-607.8314C906.3497,-598.2874 930.7297,-586.5065 951.6417,-576.4013"/>
<polygon fill="#000000" stroke="#000000" points="953.1903,-579.5403 960.6714,-572.038 950.1447,-573.2376 953.1903,-579.5403"/>
</g>
<!-- output/&lt;SAMPLE_ID&gt;/&lt;SAMPLE_ID&gt;.h5&#45;&gt;statsfigs -->
<g id="edge38" class="edge">
<title>output/&lt;SAMPLE_ID&gt;/&lt;SAMPLE_ID&gt;.h5&#45;&gt;statsfigs</title>
<path fill="none" stroke="#000000" d="M998,-463.8314C998,-456.131 998,-446.9743 998,-438.4166"/>
<polygon fill="#000000" stroke="#000000" points="1001.5001,-438.4132 998,-428.4133 994.5001,-438.4133 1001.5001,-438.4132"/>
</g>
<!-- collate -->
<g id="node46" class="node">
<title>collate</title>
<polygon fill="none" stroke="#000000" points="1032.1181,-124 949.8819,-124 949.8819,-88 1032.1181,-88 1032.1181,-124"/>
<text text-anchor="middle" x="991" y="-103" font-family="Helvetica,sans-Serif" font-size="10.00" fill="#000000">collate_tpms.R</text>
</g>
<!-- output/&lt;SAMPLE_ID&gt;/&lt;SAMPLE_ID&gt;_tpms.tsv&#45;&gt;collate -->
<g id="edge45" class="edge">
<title>output/&lt;SAMPLE_ID&gt;/&lt;SAMPLE_ID&gt;_tpms.tsv&#45;&gt;collate</title>
<path fill="none" stroke="#000000" d="M991,-243.7995C991,-216.9103 991,-166.3255 991,-134.4926"/>
<polygon fill="#000000" stroke="#000000" points="994.5001,-134.0845 991,-124.0846 987.5001,-134.0846 994.5001,-134.0845"/>
</g>
<!-- output/TPMs_collated.tsv -->
<g id="node47" class="node">
<title>output/TPMs_collated.tsv</title>
<text text-anchor="middle" x="991" y="-31" font-family="Helvetica,sans-Serif" font-size="10.00" fill="#000000">output/TPMs_collated.tsv</text>
</g>
<!-- collate&#45;&gt;output/TPMs_collated.tsv -->
<g id="edge46" class="edge">
<title>collate&#45;&gt;output/TPMs_collated.tsv</title>
<path fill="none" stroke="#000000" d="M991,-87.8314C991,-80.131 991,-70.9743 991,-62.4166"/>
<polygon fill="#000000" stroke="#000000" points="994.5001,-62.4132 991,-52.4133 987.5001,-62.4133 994.5001,-62.4132"/>
</g>
</g>
</svg>
