<?xml version="1.0" encoding="UTF-8" standalone="no"?>
<!DOCTYPE svg PUBLIC "-//W3C//DTD SVG 1.1//EN"
 "http://www.w3.org/Graphics/SVG/1.1/DTD/svg11.dtd">
<!-- Generated by graphviz version 2.40.1 (20161225.0304)
 -->
<!-- Title: G Pages: 1 -->
<svg width="1270pt" height="2084pt"
 viewBox="0.00 0.00 1270.00 2084.00" xmlns="http://www.w3.org/2000/svg" xmlns:xlink="http://www.w3.org/1999/xlink">
<g id="graph0" class="graph" transform="scale(1 1) rotate(0) translate(4 2080)">
<title>G</title>
<polygon fill="#ffffff" stroke="transparent" points="-4,4 -4,-2080 1266,-2080 1266,4 -4,4"/>
<g id="clust1" class="cluster">
<title>cluster_data</title>
<polygon fill="none" stroke="#000000" stroke-dasharray="5,2" points="444,-1904 444,-2068 1254,-2068 1254,-1904 444,-1904"/>
<text text-anchor="middle" x="462.558" y="-2055" font-family="Helvetica,sans-Serif" font-size="10.00" fill="#000000">Data</text>
</g>
<g id="clust2" class="cluster">
<title>cluster_organism</title>
<polygon fill="none" stroke="#000000" stroke-dasharray="5,2" points="860,-1940 860,-2012 1048,-2012 1048,-1940 860,-1940"/>
<text text-anchor="middle" x="900.784" y="-1999" font-family="Helvetica,sans-Serif" font-size="10.00" fill="#000000">Organism data</text>
</g>
<g id="clust3" class="cluster">
<title>cluster_contaminants</title>
<polygon fill="none" stroke="#000000" stroke-dasharray="5,2" points="766,-1940 766,-2012 852,-2012 852,-1940 766,-1940"/>
<text text-anchor="middle" x="804.8395" y="-1999" font-family="Helvetica,sans-Serif" font-size="10.00" fill="#000000">Contaminants</text>
</g>
<g id="clust4" class="cluster">
<title>cluster_additional_organism</title>
<polygon fill="none" stroke="#000000" stroke-dasharray="5,2" points="1056,-1912 1056,-2040 1246,-2040 1246,-1912 1056,-1912"/>
<text text-anchor="middle" x="1137.3455" y="-2027" font-family="Helvetica,sans-Serif" font-size="10.00" fill="#000000">Additional organism&#45;specific data</text>
</g>
<g id="clust5" class="cluster">
<title>cluster_ribosome</title>
<polygon fill="none" stroke="#000000" stroke-dasharray="5,2" points="452,-1940 452,-2012 758,-2012 758,-1940 452,-1940"/>
<text text-anchor="middle" x="512.509" y="-1999" font-family="Helvetica,sans-Serif" font-size="10.00" fill="#000000">Ribosome profiling data</text>
</g>
<g id="clust6" class="cluster">
<title>cluster_indexing</title>
<polygon fill="none" stroke="#000000" points="706,-1752 706,-1896 960,-1896 960,-1752 706,-1752"/>
<text text-anchor="middle" x="732.8965" y="-1883" font-family="Helvetica,sans-Serif" font-size="10.00" fill="#000000">Indexing</text>
</g>
<g id="clust7" class="cluster">
<title>cluster_per_sample_processing</title>
<polygon fill="none" stroke="#000000" points="8,-160 8,-1896 698,-1896 698,-160 8,-160"/>
<text text-anchor="middle" x="69.347" y="-1883" font-family="Helvetica,sans-Serif" font-size="10.00" fill="#000000">Process &lt;SAMPLE_ID&gt;</text>
</g>
<g id="clust8" class="cluster">
<title>cluster_tpms_collation</title>
<polygon fill="none" stroke="#000000" points="541,-8 541,-152 685,-152 685,-8 541,-8"/>
<text text-anchor="middle" x="581.779" y="-139" font-family="Helvetica,sans-Serif" font-size="10.00" fill="#000000">TPMs collation</text>
</g>
<!-- input/CDS.fa -->
<g id="node1" class="node">
<title>input/CDS.fa</title>
<text text-anchor="middle" x="904" y="-1963" font-family="Helvetica,sans-Serif" font-size="10.00" fill="#000000">input/CDS.fa</text>
</g>
<!-- h2build2 -->
<g id="node9" class="node">
<title>h2build2</title>
<polygon fill="none" stroke="#000000" points="934.6191,-1868 867.3809,-1868 867.3809,-1832 934.6191,-1832 934.6191,-1868"/>
<text text-anchor="middle" x="901" y="-1847" font-family="Helvetica,sans-Serif" font-size="10.00" fill="#000000">hisat2&#45;build</text>
</g>
<!-- input/CDS.fa&#45;&gt;h2build2 -->
<g id="edge3" class="edge">
<title>input/CDS.fa&#45;&gt;h2build2</title>
<path fill="none" stroke="#000000" d="M903.5313,-1947.875C903.0519,-1929.3412 902.3003,-1900.2787 901.7405,-1878.6311"/>
<polygon fill="#000000" stroke="#000000" points="905.2328,-1878.2867 901.4754,-1868.3805 898.2352,-1878.4677 905.2328,-1878.2867"/>
</g>
<!-- statsfigs -->
<g id="node26" class="node">
<title>statsfigs</title>
<polygon fill="none" stroke="#000000" points="669.7523,-428 556.2477,-428 556.2477,-392 669.7523,-392 669.7523,-428"/>
<text text-anchor="middle" x="613" y="-407" font-family="Helvetica,sans-Serif" font-size="10.00" fill="#000000">generate_stats_figs.R</text>
</g>
<!-- input/CDS.fa&#45;&gt;statsfigs -->
<g id="edge39" class="edge">
<title>input/CDS.fa&#45;&gt;statsfigs</title>
<path fill="none" stroke="#000000" d="M914.1792,-1947.7251C922.2964,-1934.3723 934.6568,-1916.4903 949,-1904 954.6979,-1899.0381 959.6853,-1902.2024 964,-1896 994.2234,-1852.5542 980,-1830.9244 980,-1778 980,-1778 980,-1778 980,-554 980,-490.2638 785.7584,-443.0502 679.9,-422.0521"/>
<polygon fill="#000000" stroke="#000000" points="680.4273,-418.5889 669.9411,-420.1022 679.0822,-425.4585 680.4273,-418.5889"/>
</g>
<!-- input/CDS.gff3 -->
<g id="node2" class="node">
<title>input/CDS.gff3</title>
<text text-anchor="middle" x="999" y="-1963" font-family="Helvetica,sans-Serif" font-size="10.00" fill="#000000">input/CDS.gff3</text>
</g>
<!-- bam2h5 -->
<g id="node25" class="node">
<title>bam2h5</title>
<polygon fill="none" stroke="#000000" points="629.019,-572 552.981,-572 552.981,-536 629.019,-536 629.019,-572"/>
<text text-anchor="middle" x="591" y="-551" font-family="Helvetica,sans-Serif" font-size="10.00" fill="#000000">bam_to_h5.R</text>
</g>
<!-- input/CDS.gff3&#45;&gt;bam2h5 -->
<g id="edge36" class="edge">
<title>input/CDS.gff3&#45;&gt;bam2h5</title>
<path fill="none" stroke="#000000" d="M1002.0527,-1947.9129C1007.4235,-1914.4697 1018,-1840.6578 1018,-1778 1018,-1778 1018,-1778 1018,-698 1018,-618.8154 751.0072,-574.8205 639.2675,-559.8755"/>
<polygon fill="#000000" stroke="#000000" points="639.6402,-556.3945 629.2692,-558.5606 638.7274,-563.3347 639.6402,-556.3945"/>
</g>
<!-- input/CDS.gff3&#45;&gt;statsfigs -->
<g id="edge40" class="edge">
<title>input/CDS.gff3&#45;&gt;statsfigs</title>
<path fill="none" stroke="#000000" d="M1008.4124,-1947.8772C1024.602,-1914.9716 1056,-1842.8015 1056,-1778 1056,-1778 1056,-1778 1056,-554 1056,-475.9303 804.0214,-433.7119 680.143,-417.6736"/>
<polygon fill="#000000" stroke="#000000" points="680.3697,-414.1743 670.0076,-416.3828 679.4853,-421.1182 680.3697,-414.1743"/>
</g>
<!-- input/rRNA.fa -->
<g id="node3" class="node">
<title>input/rRNA.fa</title>
<text text-anchor="middle" x="809" y="-1963.3" font-family="Helvetica,sans-Serif" font-size="9.00" fill="#000000">input/rRNA.fa</text>
</g>
<!-- h2build1 -->
<g id="node8" class="node">
<title>h2build1</title>
<polygon fill="none" stroke="#000000" points="823.6191,-1868 756.3809,-1868 756.3809,-1832 823.6191,-1832 823.6191,-1868"/>
<text text-anchor="middle" x="790" y="-1847" font-family="Helvetica,sans-Serif" font-size="10.00" fill="#000000">hisat2&#45;build</text>
</g>
<!-- input/rRNA.fa&#45;&gt;h2build1 -->
<g id="edge1" class="edge">
<title>input/rRNA.fa&#45;&gt;h2build1</title>
<path fill="none" stroke="#000000" d="M806.0313,-1947.875C802.9817,-1929.2566 798.1918,-1900.0131 794.6411,-1878.335"/>
<polygon fill="#000000" stroke="#000000" points="798.0811,-1877.6833 793.0106,-1868.3805 791.1731,-1878.8148 798.0811,-1877.6833"/>
</g>
<!-- data -->
<g id="node4" class="node">
<title>data</title>
<polygon fill="none" stroke="#000000" stroke-dasharray="5,2" points="1237.8391,-2012 1064.1609,-2012 1064.1609,-1920 1237.8391,-1920 1237.8391,-2012"/>
<text text-anchor="middle" x="1151" y="-1999" font-family="Helvetica,sans-Serif" font-size="10.00" fill="#000000">data/codon_pos_i200.RData</text>
<text text-anchor="middle" x="1151" y="-1987" font-family="Helvetica,sans-Serif" font-size="10.00" fill="#000000">&#13;</text>
<text text-anchor="middle" x="1151" y="-1975" font-family="Helvetica,sans-Serif" font-size="10.00" fill="#000000">data/features.tsv</text>
<text text-anchor="middle" x="1151" y="-1963" font-family="Helvetica,sans-Serif" font-size="10.00" fill="#000000">&#13;</text>
<text text-anchor="middle" x="1151" y="-1951" font-family="Helvetica,sans-Serif" font-size="10.00" fill="#000000">data/tRNAs.tsv</text>
<text text-anchor="middle" x="1151" y="-1939" font-family="Helvetica,sans-Serif" font-size="10.00" fill="#000000">&#13;</text>
<text text-anchor="middle" x="1151" y="-1927" font-family="Helvetica,sans-Serif" font-size="10.00" fill="#000000">data/standard_asite_disp_length.txt</text>
</g>
<!-- data&#45;&gt;statsfigs -->
<g id="edge41" class="edge">
<title>data&#45;&gt;statsfigs</title>
<path fill="none" stroke="#000000" d="M1140.2545,-1919.9285C1132.3584,-1882.0423 1123,-1826.8384 1123,-1778 1123,-1778 1123,-1778 1123,-554 1123,-463.0086 818.531,-426.6597 680.0929,-414.8352"/>
<polygon fill="#000000" stroke="#000000" points="680.2758,-411.3384 670.019,-413.9931 679.6926,-418.314 680.2758,-411.3384"/>
</g>
<!-- ribosome_data0toI -->
<g id="node5" class="node">
<title>ribosome_data0toI</title>
<text text-anchor="middle" x="723" y="-1963" font-family="Helvetica,sans-Serif" font-size="10.00" fill="#000000">...</text>
</g>
<!-- input/&lt;SAMPLE_ID&gt;.fastq.gz -->
<g id="node6" class="node">
<title>input/&lt;SAMPLE_ID&gt;.fastq.gz</title>
<text text-anchor="middle" x="605" y="-1963" font-family="Helvetica,sans-Serif" font-size="10.00" fill="#000000">input/&lt;SAMPLE_ID&gt;.fastq.gz</text>
</g>
<!-- cut -->
<g id="node12" class="node">
<title>cut</title>
<polygon fill="none" stroke="#000000" points="632.3542,-1868 577.6458,-1868 577.6458,-1832 632.3542,-1832 632.3542,-1868"/>
<text text-anchor="middle" x="605" y="-1847" font-family="Helvetica,sans-Serif" font-size="10.00" fill="#000000">cutadapt</text>
</g>
<!-- input/&lt;SAMPLE_ID&gt;.fastq.gz&#45;&gt;cut -->
<g id="edge5" class="edge">
<title>input/&lt;SAMPLE_ID&gt;.fastq.gz&#45;&gt;cut</title>
<path fill="none" stroke="#000000" d="M605,-1947.875C605,-1929.3412 605,-1900.2787 605,-1878.6311"/>
<polygon fill="#000000" stroke="#000000" points="608.5001,-1878.3805 605,-1868.3805 601.5001,-1878.3806 608.5001,-1878.3805"/>
</g>
<!-- ribosome_dataItoN -->
<g id="node7" class="node">
<title>ribosome_dataItoN</title>
<text text-anchor="middle" x="487" y="-1963" font-family="Helvetica,sans-Serif" font-size="10.00" fill="#000000">...</text>
</g>
<!-- index/rRNA.1|...|8.ht2 -->
<g id="node10" class="node">
<title>index/rRNA.1|...|8.ht2</title>
<text text-anchor="middle" x="770" y="-1775" font-family="Helvetica,sans-Serif" font-size="10.00" fill="#000000">index/rRNA.1|...|8.ht2</text>
</g>
<!-- h2build1&#45;&gt;index/rRNA.1|...|8.ht2 -->
<g id="edge2" class="edge">
<title>h2build1&#45;&gt;index/rRNA.1|...|8.ht2</title>
<path fill="none" stroke="#000000" d="M784.9532,-1831.8314C782.7906,-1824.0463 780.2147,-1814.7729 777.8152,-1806.1347"/>
<polygon fill="#000000" stroke="#000000" points="781.1636,-1805.1117 775.1148,-1796.4133 774.419,-1806.9852 781.1636,-1805.1117"/>
</g>
<!-- index/CDS.1|...|8.ht2 -->
<g id="node11" class="node">
<title>index/CDS.1|...|8.ht2</title>
<text text-anchor="middle" x="898" y="-1775" font-family="Helvetica,sans-Serif" font-size="10.00" fill="#000000">index/CDS.1|...|8.ht2</text>
</g>
<!-- h2build2&#45;&gt;index/CDS.1|...|8.ht2 -->
<g id="edge4" class="edge">
<title>h2build2&#45;&gt;index/CDS.1|...|8.ht2</title>
<path fill="none" stroke="#000000" d="M900.243,-1831.8314C899.9221,-1824.131 899.5406,-1814.9743 899.184,-1806.4166"/>
<polygon fill="#000000" stroke="#000000" points="902.6806,-1806.2589 898.7672,-1796.4133 895.6867,-1806.5503 902.6806,-1806.2589"/>
</g>
<!-- h21 -->
<g id="node14" class="node">
<title>h21</title>
<polygon fill="none" stroke="#000000" points="633,-1580 579,-1580 579,-1544 633,-1544 633,-1580"/>
<text text-anchor="middle" x="606" y="-1559" font-family="Helvetica,sans-Serif" font-size="10.00" fill="#000000">hisat2</text>
</g>
<!-- index/rRNA.1|...|8.ht2&#45;&gt;h21 -->
<g id="edge10" class="edge">
<title>index/rRNA.1|...|8.ht2&#45;&gt;h21</title>
<path fill="none" stroke="#000000" d="M766.0245,-1759.9269C758.147,-1727.6763 737.86,-1659.5198 699,-1616 683.575,-1598.7253 661.2634,-1585.5131 642.3605,-1576.4822"/>
<polygon fill="#000000" stroke="#000000" points="643.6714,-1573.2332 633.1211,-1572.2635 640.764,-1579.6009 643.6714,-1573.2332"/>
</g>
<!-- h22 -->
<g id="node15" class="node">
<title>h22</title>
<polygon fill="none" stroke="#000000" points="634,-1436 580,-1436 580,-1400 634,-1400 634,-1436"/>
<text text-anchor="middle" x="607" y="-1415" font-family="Helvetica,sans-Serif" font-size="10.00" fill="#000000">hisat2</text>
</g>
<!-- index/CDS.1|...|8.ht2&#45;&gt;h22 -->
<g id="edge13" class="edge">
<title>index/CDS.1|...|8.ht2&#45;&gt;h22</title>
<path fill="none" stroke="#000000" d="M885.4149,-1759.8478C868.3566,-1733.4241 840,-1682.2435 840,-1634 840,-1634 840,-1634 840,-1562 840,-1471.046 709.9355,-1435.6194 644.159,-1423.5188"/>
<polygon fill="#000000" stroke="#000000" points="644.6379,-1420.0495 634.1841,-1421.7721 643.4305,-1426.9446 644.6379,-1420.0495"/>
</g>
<!-- tmp/&lt;SAMPLE_ID&gt;/trim.fq -->
<g id="node27" class="node">
<title>tmp/&lt;SAMPLE_ID&gt;/trim.fq</title>
<text text-anchor="middle" x="605" y="-1775" font-family="Helvetica,sans-Serif" font-size="10.00" fill="#000000">tmp/&lt;SAMPLE_ID&gt;/trim.fq</text>
</g>
<!-- cut&#45;&gt;tmp/&lt;SAMPLE_ID&gt;/trim.fq -->
<g id="edge6" class="edge">
<title>cut&#45;&gt;tmp/&lt;SAMPLE_ID&gt;/trim.fq</title>
<path fill="none" stroke="#000000" d="M605,-1831.8314C605,-1824.131 605,-1814.9743 605,-1806.4166"/>
<polygon fill="#000000" stroke="#000000" points="608.5001,-1806.4132 605,-1796.4133 601.5001,-1806.4133 608.5001,-1806.4132"/>
</g>
<!-- umi_extract -->
<g id="node13" class="node">
<title>umi_extract</title>
<polygon fill="none" stroke="#000000" points="650.567,-1724 559.433,-1724 559.433,-1688 650.567,-1688 650.567,-1724"/>
<text text-anchor="middle" x="605" y="-1703" font-family="Helvetica,sans-Serif" font-size="10.00" fill="#000000">umi_tools extract</text>
</g>
<!-- tmp/&lt;SAMPLE_ID&gt;/extract_trim.fq -->
<g id="node28" class="node">
<title>tmp/&lt;SAMPLE_ID&gt;/extract_trim.fq</title>
<text text-anchor="middle" x="605" y="-1631" font-family="Helvetica,sans-Serif" font-size="10.00" fill="#000000">tmp/&lt;SAMPLE_ID&gt;/extract_trim.fq</text>
</g>
<!-- umi_extract&#45;&gt;tmp/&lt;SAMPLE_ID&gt;/extract_trim.fq -->
<g id="edge8" class="edge">
<title>umi_extract&#45;&gt;tmp/&lt;SAMPLE_ID&gt;/extract_trim.fq</title>
<path fill="none" stroke="#000000" d="M605,-1687.8314C605,-1680.131 605,-1670.9743 605,-1662.4166"/>
<polygon fill="#000000" stroke="#000000" points="608.5001,-1662.4132 605,-1652.4133 601.5001,-1662.4133 608.5001,-1662.4132"/>
</g>
<!-- tmp/&lt;SAMPLE_ID&gt;/rRNA_map.sam -->
<g id="node29" class="node">
<title>tmp/&lt;SAMPLE_ID&gt;/rRNA_map.sam</title>
<text text-anchor="middle" x="421" y="-1487" font-family="Helvetica,sans-Serif" font-size="10.00" fill="#000000">tmp/&lt;SAMPLE_ID&gt;/rRNA_map.sam</text>
</g>
<!-- h21&#45;&gt;tmp/&lt;SAMPLE_ID&gt;/rRNA_map.sam -->
<g id="edge11" class="edge">
<title>h21&#45;&gt;tmp/&lt;SAMPLE_ID&gt;/rRNA_map.sam</title>
<path fill="none" stroke="#000000" d="M578.7026,-1551.3762C552.0821,-1541.0157 510.8025,-1524.9502 477.1536,-1511.8544"/>
<polygon fill="#000000" stroke="#000000" points="478.0219,-1508.4366 467.4333,-1508.0714 475.483,-1514.96 478.0219,-1508.4366"/>
</g>
<!-- tmp/&lt;SAMPLE_ID&gt;/nonrRNA.fq -->
<g id="node30" class="node">
<title>tmp/&lt;SAMPLE_ID&gt;/nonrRNA.fq</title>
<text text-anchor="middle" x="607" y="-1487" font-family="Helvetica,sans-Serif" font-size="10.00" fill="#000000">tmp/&lt;SAMPLE_ID&gt;/nonrRNA.fq</text>
</g>
<!-- h21&#45;&gt;tmp/&lt;SAMPLE_ID&gt;/nonrRNA.fq -->
<g id="edge12" class="edge">
<title>h21&#45;&gt;tmp/&lt;SAMPLE_ID&gt;/nonrRNA.fq</title>
<path fill="none" stroke="#000000" d="M606.2523,-1543.8314C606.3593,-1536.131 606.4865,-1526.9743 606.6053,-1518.4166"/>
<polygon fill="#000000" stroke="#000000" points="610.1049,-1518.4609 606.7443,-1508.4133 603.1056,-1518.3637 610.1049,-1518.4609"/>
</g>
<!-- tmp/&lt;SAMPLE_ID&gt;/unaligned.fq -->
<g id="node31" class="node">
<title>tmp/&lt;SAMPLE_ID&gt;/unaligned.fq</title>
<text text-anchor="middle" x="427" y="-1343" font-family="Helvetica,sans-Serif" font-size="10.00" fill="#000000">tmp/&lt;SAMPLE_ID&gt;/unaligned.fq</text>
</g>
<!-- h22&#45;&gt;tmp/&lt;SAMPLE_ID&gt;/unaligned.fq -->
<g id="edge15" class="edge">
<title>h22&#45;&gt;tmp/&lt;SAMPLE_ID&gt;/unaligned.fq</title>
<path fill="none" stroke="#000000" d="M579.6619,-1407.0647C553.7032,-1396.6813 513.9376,-1380.7751 481.4993,-1367.7997"/>
<polygon fill="#000000" stroke="#000000" points="482.7123,-1364.5153 472.1276,-1364.051 480.1125,-1371.0147 482.7123,-1364.5153"/>
</g>
<!-- tmp/&lt;SAMPLE_ID&gt;/orf_map.sam -->
<g id="node32" class="node">
<title>tmp/&lt;SAMPLE_ID&gt;/orf_map.sam</title>
<text text-anchor="middle" x="607" y="-1343" font-family="Helvetica,sans-Serif" font-size="10.00" fill="#000000">tmp/&lt;SAMPLE_ID&gt;/orf_map.sam</text>
</g>
<!-- h22&#45;&gt;tmp/&lt;SAMPLE_ID&gt;/orf_map.sam -->
<g id="edge16" class="edge">
<title>h22&#45;&gt;tmp/&lt;SAMPLE_ID&gt;/orf_map.sam</title>
<path fill="none" stroke="#000000" d="M607,-1399.8314C607,-1392.131 607,-1382.9743 607,-1374.4166"/>
<polygon fill="#000000" stroke="#000000" points="610.5001,-1374.4132 607,-1364.4133 603.5001,-1374.4133 610.5001,-1374.4132"/>
</g>
<!-- samindex -->
<g id="node16" class="node">
<title>samindex</title>
<polygon fill="none" stroke="#000000" points="548.1796,-1004 465.8204,-1004 465.8204,-968 548.1796,-968 548.1796,-1004"/>
<text text-anchor="middle" x="507" y="-983" font-family="Helvetica,sans-Serif" font-size="10.00" fill="#000000">samtools index</text>
</g>
<!-- tmp/&lt;SAMPLE_ID&gt;/pre_dedup.bam+.bai -->
<g id="node37" class="node">
<title>tmp/&lt;SAMPLE_ID&gt;/pre_dedup.bam+.bai</title>
<text text-anchor="middle" x="505" y="-911" font-family="Helvetica,sans-Serif" font-size="10.00" fill="#000000">tmp/&lt;SAMPLE_ID&gt;/pre_dedup.bam+.bai</text>
</g>
<!-- samindex&#45;&gt;tmp/&lt;SAMPLE_ID&gt;/pre_dedup.bam+.bai -->
<g id="edge22" class="edge">
<title>samindex&#45;&gt;tmp/&lt;SAMPLE_ID&gt;/pre_dedup.bam+.bai</title>
<path fill="none" stroke="#000000" d="M506.4953,-967.8314C506.2814,-960.131 506.0271,-950.9743 505.7894,-942.4166"/>
<polygon fill="#000000" stroke="#000000" points="509.2879,-942.3122 505.5115,-932.4133 502.2906,-942.5066 509.2879,-942.3122"/>
</g>
<!-- samview -->
<g id="node17" class="node">
<title>samview</title>
<polygon fill="none" stroke="#000000" points="585.3875,-1148 438.6125,-1148 438.6125,-1112 585.3875,-1112 585.3875,-1148"/>
<text text-anchor="middle" x="512" y="-1127" font-family="Helvetica,sans-Serif" font-size="10.00" fill="#000000">samtools view | samtools sort</text>
</g>
<!-- tmp/&lt;SAMPLE_ID&gt;/pre_dedup.bam -->
<g id="node36" class="node">
<title>tmp/&lt;SAMPLE_ID&gt;/pre_dedup.bam</title>
<text text-anchor="middle" x="511" y="-1055" font-family="Helvetica,sans-Serif" font-size="10.00" fill="#000000">tmp/&lt;SAMPLE_ID&gt;/pre_dedup.bam</text>
</g>
<!-- samview&#45;&gt;tmp/&lt;SAMPLE_ID&gt;/pre_dedup.bam -->
<g id="edge20" class="edge">
<title>samview&#45;&gt;tmp/&lt;SAMPLE_ID&gt;/pre_dedup.bam</title>
<path fill="none" stroke="#000000" d="M511.7477,-1111.8314C511.6407,-1104.131 511.5135,-1094.9743 511.3947,-1086.4166"/>
<polygon fill="#000000" stroke="#000000" points="514.8944,-1086.3637 511.2557,-1076.4133 507.8951,-1086.4609 514.8944,-1086.3637"/>
</g>
<!-- umi_pre_group -->
<g id="node18" class="node">
<title>umi_pre_group</title>
<polygon fill="none" stroke="#000000" points="383.6261,-860 296.3739,-860 296.3739,-824 383.6261,-824 383.6261,-860"/>
<text text-anchor="middle" x="340" y="-839" font-family="Helvetica,sans-Serif" font-size="10.00" fill="#000000">umi_tools group</text>
</g>
<!-- tmp/&lt;SAMPLE_ID&gt;/pre_dedup_groups.tsv -->
<g id="node34" class="node">
<title>tmp/&lt;SAMPLE_ID&gt;/pre_dedup_groups.tsv</title>
<text text-anchor="middle" x="281" y="-767" font-family="Helvetica,sans-Serif" font-size="10.00" fill="#000000">tmp/&lt;SAMPLE_ID&gt;/pre_dedup_groups.tsv</text>
</g>
<!-- umi_pre_group&#45;&gt;tmp/&lt;SAMPLE_ID&gt;/pre_dedup_groups.tsv -->
<g id="edge24" class="edge">
<title>umi_pre_group&#45;&gt;tmp/&lt;SAMPLE_ID&gt;/pre_dedup_groups.tsv</title>
<path fill="none" stroke="#000000" d="M325.1118,-823.8314C318.247,-815.454 309.9699,-805.3531 302.4489,-796.1749"/>
<polygon fill="#000000" stroke="#000000" points="305.1341,-793.9297 296.0886,-788.4133 299.7197,-798.3665 305.1341,-793.9297"/>
</g>
<!-- umi_dedup -->
<g id="node19" class="node">
<title>umi_dedup</title>
<polygon fill="none" stroke="#000000" points="549.8567,-860 460.1433,-860 460.1433,-824 549.8567,-824 549.8567,-860"/>
<text text-anchor="middle" x="505" y="-839" font-family="Helvetica,sans-Serif" font-size="10.00" fill="#000000">umi_tools dedup</text>
</g>
<!-- output/&lt;SAMPLE_ID&gt;/&lt;SAMPLE_ID&gt;.bam -->
<g id="node38" class="node">
<title>output/&lt;SAMPLE_ID&gt;/&lt;SAMPLE_ID&gt;.bam</title>
<text text-anchor="middle" x="505" y="-767" font-family="Helvetica,sans-Serif" font-size="10.00" fill="#000000">output/&lt;SAMPLE_ID&gt;/&lt;SAMPLE_ID&gt;.bam</text>
</g>
<!-- umi_dedup&#45;&gt;output/&lt;SAMPLE_ID&gt;/&lt;SAMPLE_ID&gt;.bam -->
<g id="edge26" class="edge">
<title>umi_dedup&#45;&gt;output/&lt;SAMPLE_ID&gt;/&lt;SAMPLE_ID&gt;.bam</title>
<path fill="none" stroke="#000000" d="M505,-823.8314C505,-816.131 505,-806.9743 505,-798.4166"/>
<polygon fill="#000000" stroke="#000000" points="508.5001,-798.4132 505,-788.4133 501.5001,-798.4133 508.5001,-798.4132"/>
</g>
<!-- umi_post_group -->
<g id="node20" class="node">
<title>umi_post_group</title>
<polygon fill="none" stroke="#000000" points="377.6261,-716 290.3739,-716 290.3739,-680 377.6261,-680 377.6261,-716"/>
<text text-anchor="middle" x="334" y="-695" font-family="Helvetica,sans-Serif" font-size="10.00" fill="#000000">umi_tools group</text>
</g>
<!-- tmp/&lt;SAMPLE_ID&gt;/post_dedup_groups.tsv -->
<g id="node35" class="node">
<title>tmp/&lt;SAMPLE_ID&gt;/post_dedup_groups.tsv</title>
<text text-anchor="middle" x="267" y="-623" font-family="Helvetica,sans-Serif" font-size="10.00" fill="#000000">tmp/&lt;SAMPLE_ID&gt;/post_dedup_groups.tsv</text>
</g>
<!-- umi_post_group&#45;&gt;tmp/&lt;SAMPLE_ID&gt;/post_dedup_groups.tsv -->
<g id="edge28" class="edge">
<title>umi_post_group&#45;&gt;tmp/&lt;SAMPLE_ID&gt;/post_dedup_groups.tsv</title>
<path fill="none" stroke="#000000" d="M317.0931,-679.8314C309.2187,-671.3694 299.708,-661.1489 291.0987,-651.8971"/>
<polygon fill="#000000" stroke="#000000" points="293.5092,-649.3497 284.1346,-644.4133 288.3847,-654.1183 293.5092,-649.3497"/>
</g>
<!-- samindex_dedup -->
<g id="node21" class="node">
<title>samindex_dedup</title>
<polygon fill="none" stroke="#000000" points="546.1796,-716 463.8204,-716 463.8204,-680 546.1796,-680 546.1796,-716"/>
<text text-anchor="middle" x="505" y="-695" font-family="Helvetica,sans-Serif" font-size="10.00" fill="#000000">samtools index</text>
</g>
<!-- output/&lt;SAMPLE_ID&gt;/&lt;SAMPLE_ID&gt;.bam+.bai -->
<g id="node39" class="node">
<title>output/&lt;SAMPLE_ID&gt;/&lt;SAMPLE_ID&gt;.bam+.bai</title>
<text text-anchor="middle" x="505" y="-623" font-family="Helvetica,sans-Serif" font-size="10.00" fill="#000000">output/&lt;SAMPLE_ID&gt;/&lt;SAMPLE_ID&gt;.bam+.bai</text>
</g>
<!-- samindex_dedup&#45;&gt;output/&lt;SAMPLE_ID&gt;/&lt;SAMPLE_ID&gt;.bam+.bai -->
<g id="edge30" class="edge">
<title>samindex_dedup&#45;&gt;output/&lt;SAMPLE_ID&gt;/&lt;SAMPLE_ID&gt;.bam+.bai</title>
<path fill="none" stroke="#000000" d="M505,-679.8314C505,-672.131 505,-662.9743 505,-654.4166"/>
<polygon fill="#000000" stroke="#000000" points="508.5001,-654.4132 505,-644.4133 501.5001,-654.4133 508.5001,-654.4132"/>
</g>
<!-- trim -->
<g id="node22" class="node">
<title>trim</title>
<polygon fill="none" stroke="#000000" points="652.504,-1292 541.496,-1292 541.496,-1256 652.504,-1256 652.504,-1292"/>
<text text-anchor="middle" x="597" y="-1271" font-family="Helvetica,sans-Serif" font-size="10.00" fill="#000000">trim_5p_mismatch.py</text>
</g>
<!-- tmp/&lt;SAMPLE_ID&gt;/orf_map_clean.sam -->
<g id="node33" class="node">
<title>tmp/&lt;SAMPLE_ID&gt;/orf_map_clean.sam</title>
<text text-anchor="middle" x="521" y="-1199" font-family="Helvetica,sans-Serif" font-size="10.00" fill="#000000">tmp/&lt;SAMPLE_ID&gt;/orf_map_clean.sam</text>
</g>
<!-- trim&#45;&gt;tmp/&lt;SAMPLE_ID&gt;/orf_map_clean.sam -->
<g id="edge18" class="edge">
<title>trim&#45;&gt;tmp/&lt;SAMPLE_ID&gt;/orf_map_clean.sam</title>
<path fill="none" stroke="#000000" d="M577.822,-1255.8314C568.6412,-1247.1337 557.4994,-1236.5783 547.5224,-1227.1265"/>
<polygon fill="#000000" stroke="#000000" points="549.8385,-1224.4995 540.1719,-1220.1628 545.0243,-1229.5811 549.8385,-1224.4995"/>
</g>
<!-- bedplus -->
<g id="node23" class="node">
<title>bedplus</title>
<polygon fill="none" stroke="#000000" points="277.5319,-572 154.4681,-572 154.4681,-536 277.5319,-536 277.5319,-572"/>
<text text-anchor="middle" x="216" y="-551" font-family="Helvetica,sans-Serif" font-size="10.00" fill="#000000">bedtools genomecov (+)</text>
</g>
<!-- output/&lt;SAMPLE_ID&gt;/plus.bedgraph -->
<g id="node40" class="node">
<title>output/&lt;SAMPLE_ID&gt;/plus.bedgraph</title>
<text text-anchor="middle" x="176" y="-479" font-family="Helvetica,sans-Serif" font-size="10.00" fill="#000000">output/&lt;SAMPLE_ID&gt;/plus.bedgraph</text>
</g>
<!-- bedplus&#45;&gt;output/&lt;SAMPLE_ID&gt;/plus.bedgraph -->
<g id="edge32" class="edge">
<title>bedplus&#45;&gt;output/&lt;SAMPLE_ID&gt;/plus.bedgraph</title>
<path fill="none" stroke="#000000" d="M205.9063,-535.8314C201.4403,-527.7925 196.0925,-518.1666 191.1621,-509.2918"/>
<polygon fill="#000000" stroke="#000000" points="194.1456,-507.4551 186.2296,-500.4133 188.0265,-510.8546 194.1456,-507.4551"/>
</g>
<!-- bedminus -->
<g id="node24" class="node">
<title>bedminus</title>
<polygon fill="none" stroke="#000000" points="495.521,-572 374.479,-572 374.479,-536 495.521,-536 495.521,-572"/>
<text text-anchor="middle" x="435" y="-551" font-family="Helvetica,sans-Serif" font-size="10.00" fill="#000000">bedtools genomecov (&#45;)</text>
</g>
<!-- output/&lt;SAMPLE_ID&gt;/minus.bedgraph -->
<g id="node41" class="node">
<title>output/&lt;SAMPLE_ID&gt;/minus.bedgraph</title>
<text text-anchor="middle" x="379" y="-479" font-family="Helvetica,sans-Serif" font-size="10.00" fill="#000000">output/&lt;SAMPLE_ID&gt;/minus.bedgraph</text>
</g>
<!-- bedminus&#45;&gt;output/&lt;SAMPLE_ID&gt;/minus.bedgraph -->
<g id="edge34" class="edge">
<title>bedminus&#45;&gt;output/&lt;SAMPLE_ID&gt;/minus.bedgraph</title>
<path fill="none" stroke="#000000" d="M420.8688,-535.8314C414.4189,-527.5386 406.6555,-517.557 399.5748,-508.4533"/>
<polygon fill="#000000" stroke="#000000" points="402.2236,-506.158 393.3214,-500.4133 396.6981,-510.4556 402.2236,-506.158"/>
</g>
<!-- output/&lt;SAMPLE_ID&gt;/&lt;SAMPLE_ID&gt;.h5 -->
<g id="node42" class="node">
<title>output/&lt;SAMPLE_ID&gt;/&lt;SAMPLE_ID&gt;.h5</title>
<text text-anchor="middle" x="591" y="-479" font-family="Helvetica,sans-Serif" font-size="10.00" fill="#000000">output/&lt;SAMPLE_ID&gt;/&lt;SAMPLE_ID&gt;.h5</text>
</g>
<!-- bam2h5&#45;&gt;output/&lt;SAMPLE_ID&gt;/&lt;SAMPLE_ID&gt;.h5 -->
<g id="edge37" class="edge">
<title>bam2h5&#45;&gt;output/&lt;SAMPLE_ID&gt;/&lt;SAMPLE_ID&gt;.h5</title>
<path fill="none" stroke="#000000" d="M591,-535.8314C591,-528.131 591,-518.9743 591,-510.4166"/>
<polygon fill="#000000" stroke="#000000" points="594.5001,-510.4132 591,-500.4133 587.5001,-510.4133 594.5001,-510.4132"/>
</g>
<!-- pdfs -->
<g id="node43" class="node">
<title>pdfs</title>
<polygon fill="none" stroke="#000000" stroke-dasharray="5,2" points="258.1891,-356 15.8109,-356 15.8109,-168 258.1891,-168 258.1891,-356"/>
<text text-anchor="middle" x="137" y="-343" font-family="Helvetica,sans-Serif" font-size="10.00" fill="#000000">output/&lt;SAMPLE_ID&gt;/3nt_periodicity.pdf</text>
<text text-anchor="middle" x="137" y="-331" font-family="Helvetica,sans-Serif" font-size="10.00" fill="#000000">&#13;</text>
<text text-anchor="middle" x="137" y="-319" font-family="Helvetica,sans-Serif" font-size="10.00" fill="#000000">output/&lt;SAMPLE_ID&gt;/codon_ribodens.pdf</text>
<text text-anchor="middle" x="137" y="-307" font-family="Helvetica,sans-Serif" font-size="10.00" fill="#000000">&#13;</text>
<text text-anchor="middle" x="137" y="-295" font-family="Helvetica,sans-Serif" font-size="10.00" fill="#000000">output/&lt;SAMPLE_ID&gt;/read_lengths.pdf</text>
<text text-anchor="middle" x="137" y="-283" font-family="Helvetica,sans-Serif" font-size="10.00" fill="#000000">&#13;</text>
<text text-anchor="middle" x="137" y="-271" font-family="Helvetica,sans-Serif" font-size="10.00" fill="#000000">output/&lt;SAMPLE_ID&gt;/pos_sp_rpf_norm_reads.pdf</text>
<text text-anchor="middle" x="137" y="-259" font-family="Helvetica,sans-Serif" font-size="10.00" fill="#000000">&#13;</text>
<text text-anchor="middle" x="137" y="-247" font-family="Helvetica,sans-Serif" font-size="10.00" fill="#000000">output/&lt;SAMPLE_ID&gt;/features.pdf</text>
<text text-anchor="middle" x="137" y="-235" font-family="Helvetica,sans-Serif" font-size="10.00" fill="#000000">&#13;</text>
<text text-anchor="middle" x="137" y="-223" font-family="Helvetica,sans-Serif" font-size="10.00" fill="#000000">output/&lt;SAMPLE_ID&gt;/startcodon_ribogridbar.pdf</text>
<text text-anchor="middle" x="137" y="-211" font-family="Helvetica,sans-Serif" font-size="10.00" fill="#000000">&#13;</text>
<text text-anchor="middle" x="137" y="-199" font-family="Helvetica,sans-Serif" font-size="10.00" fill="#000000">output/&lt;SAMPLE_ID&gt;/startcodon_ribogrid.pdf</text>
<text text-anchor="middle" x="137" y="-187" font-family="Helvetica,sans-Serif" font-size="10.00" fill="#000000">&#13;</text>
<text text-anchor="middle" x="137" y="-175" font-family="Helvetica,sans-Serif" font-size="10.00" fill="#000000">output/&lt;SAMPLE_ID&gt;/3ntframe_propbygene.pdf&#13;</text>
</g>
<!-- statsfigs&#45;&gt;pdfs -->
<g id="edge42" class="edge">
<title>statsfigs&#45;&gt;pdfs</title>
<path fill="none" stroke="#000000" d="M556.1536,-404.387C475.9935,-395.9501 333.0709,-378.8622 267.5852,-355.7232"/>
<polygon fill="#000000" stroke="#000000" points="268.7219,-352.4108 258.1313,-352.1122 266.2242,-358.95 268.7219,-352.4108"/>
</g>
<!-- tsvs -->
<g id="node44" class="node">
<title>tsvs</title>
<polygon fill="none" stroke="#000000" stroke-dasharray="5,2" points="517.571,-332 276.429,-332 276.429,-192 517.571,-192 517.571,-332"/>
<text text-anchor="middle" x="397" y="-319" font-family="Helvetica,sans-Serif" font-size="10.00" fill="#000000">output/&lt;SAMPLE_ID&gt;/3nt_periodicity.tsv</text>
<text text-anchor="middle" x="397" y="-307" font-family="Helvetica,sans-Serif" font-size="10.00" fill="#000000">&#13;</text>
<text text-anchor="middle" x="397" y="-295" font-family="Helvetica,sans-Serif" font-size="10.00" fill="#000000">output/&lt;SAMPLE_ID&gt;/codon_ribodens.tsv</text>
<text text-anchor="middle" x="397" y="-283" font-family="Helvetica,sans-Serif" font-size="10.00" fill="#000000">&#13;</text>
<text text-anchor="middle" x="397" y="-271" font-family="Helvetica,sans-Serif" font-size="10.00" fill="#000000">output/&lt;SAMPLE_ID&gt;/read_lengths.tsv</text>
<text text-anchor="middle" x="397" y="-259" font-family="Helvetica,sans-Serif" font-size="10.00" fill="#000000">&#13;</text>
<text text-anchor="middle" x="397" y="-247" font-family="Helvetica,sans-Serif" font-size="10.00" fill="#000000">output/&lt;SAMPLE_ID&gt;/pos_sp_rpf_norm_reads.tsv</text>
<text text-anchor="middle" x="397" y="-235" font-family="Helvetica,sans-Serif" font-size="10.00" fill="#000000">&#13;</text>
<text text-anchor="middle" x="397" y="-223" font-family="Helvetica,sans-Serif" font-size="10.00" fill="#000000">output/&lt;SAMPLE_ID&gt;/pos_sp_nt_freq.tsv</text>
<text text-anchor="middle" x="397" y="-211" font-family="Helvetica,sans-Serif" font-size="10.00" fill="#000000">&#13;</text>
<text text-anchor="middle" x="397" y="-199" font-family="Helvetica,sans-Serif" font-size="10.00" fill="#000000">output/&lt;SAMPLE_ID&gt;/3ntframe_bygene.tsv&#13;</text>
</g>
<!-- statsfigs&#45;&gt;tsvs -->
<g id="edge43" class="edge">
<title>statsfigs&#45;&gt;tsvs</title>
<path fill="none" stroke="#000000" d="M583.2396,-391.9763C566.5376,-381.6964 545.4165,-368.4209 527,-356 518.4258,-350.2172 509.6038,-344.1343 500.7864,-337.96"/>
<polygon fill="#000000" stroke="#000000" points="502.5348,-334.9106 492.3422,-332.0191 498.5069,-340.6357 502.5348,-334.9106"/>
</g>
<!-- output/&lt;SAMPLE_ID&gt;/tpms.tsv -->
<g id="node45" class="node">
<title>output/&lt;SAMPLE_ID&gt;/tpms.tsv</title>
<text text-anchor="middle" x="613" y="-259" font-family="Helvetica,sans-Serif" font-size="10.00" fill="#000000">output/&lt;SAMPLE_ID&gt;/tpms.tsv</text>
</g>
<!-- statsfigs&#45;&gt;output/&lt;SAMPLE_ID&gt;/tpms.tsv -->
<g id="edge44" class="edge">
<title>statsfigs&#45;&gt;output/&lt;SAMPLE_ID&gt;/tpms.tsv</title>
<path fill="none" stroke="#000000" d="M613,-391.8523C613,-366.5539 613,-320.4342 613,-290.5167"/>
<polygon fill="#000000" stroke="#000000" points="616.5001,-290.2961 613,-280.2961 609.5001,-290.2962 616.5001,-290.2961"/>
</g>
<!-- tmp/&lt;SAMPLE_ID&gt;/trim.fq&#45;&gt;umi_extract -->
<g id="edge7" class="edge">
<title>tmp/&lt;SAMPLE_ID&gt;/trim.fq&#45;&gt;umi_extract</title>
<path fill="none" stroke="#000000" d="M605,-1759.8314C605,-1752.131 605,-1742.9743 605,-1734.4166"/>
<polygon fill="#000000" stroke="#000000" points="608.5001,-1734.4132 605,-1724.4133 601.5001,-1734.4133 608.5001,-1734.4132"/>
</g>
<!-- tmp/&lt;SAMPLE_ID&gt;/extract_trim.fq&#45;&gt;h21 -->
<g id="edge9" class="edge">
<title>tmp/&lt;SAMPLE_ID&gt;/extract_trim.fq&#45;&gt;h21</title>
<path fill="none" stroke="#000000" d="M605.2523,-1615.8314C605.3593,-1608.131 605.4865,-1598.9743 605.6053,-1590.4166"/>
<polygon fill="#000000" stroke="#000000" points="609.1049,-1590.4609 605.7443,-1580.4133 602.1056,-1590.3637 609.1049,-1590.4609"/>
</g>
<!-- tmp/&lt;SAMPLE_ID&gt;/nonrRNA.fq&#45;&gt;h22 -->
<g id="edge14" class="edge">
<title>tmp/&lt;SAMPLE_ID&gt;/nonrRNA.fq&#45;&gt;h22</title>
<path fill="none" stroke="#000000" d="M607,-1471.8314C607,-1464.131 607,-1454.9743 607,-1446.4166"/>
<polygon fill="#000000" stroke="#000000" points="610.5001,-1446.4132 607,-1436.4133 603.5001,-1446.4133 610.5001,-1446.4132"/>
</g>
<!-- tmp/&lt;SAMPLE_ID&gt;/orf_map.sam&#45;&gt;trim -->
<g id="edge17" class="edge">
<title>tmp/&lt;SAMPLE_ID&gt;/orf_map.sam&#45;&gt;trim</title>
<path fill="none" stroke="#000000" d="M604.4766,-1327.8314C603.4071,-1320.131 602.1353,-1310.9743 600.9468,-1302.4166"/>
<polygon fill="#000000" stroke="#000000" points="604.3999,-1301.8367 599.5574,-1292.4133 597.4664,-1302.7997 604.3999,-1301.8367"/>
</g>
<!-- tmp/&lt;SAMPLE_ID&gt;/orf_map_clean.sam&#45;&gt;samview -->
<g id="edge19" class="edge">
<title>tmp/&lt;SAMPLE_ID&gt;/orf_map_clean.sam&#45;&gt;samview</title>
<path fill="none" stroke="#000000" d="M518.7289,-1183.8314C517.7664,-1176.131 516.6218,-1166.9743 515.5521,-1158.4166"/>
<polygon fill="#000000" stroke="#000000" points="519.0151,-1157.9019 514.3017,-1148.4133 512.0691,-1158.7702 519.0151,-1157.9019"/>
</g>
<!-- tmp/&lt;SAMPLE_ID&gt;/pre_dedup.bam&#45;&gt;samindex -->
<g id="edge21" class="edge">
<title>tmp/&lt;SAMPLE_ID&gt;/pre_dedup.bam&#45;&gt;samindex</title>
<path fill="none" stroke="#000000" d="M509.9906,-1039.8314C509.5628,-1032.131 509.0541,-1022.9743 508.5787,-1014.4166"/>
<polygon fill="#000000" stroke="#000000" points="512.0724,-1014.2037 508.023,-1004.4133 505.0831,-1014.592 512.0724,-1014.2037"/>
</g>
<!-- tmp/&lt;SAMPLE_ID&gt;/pre_dedup.bam+.bai&#45;&gt;umi_pre_group -->
<g id="edge23" class="edge">
<title>tmp/&lt;SAMPLE_ID&gt;/pre_dedup.bam+.bai&#45;&gt;umi_pre_group</title>
<path fill="none" stroke="#000000" d="M463.3635,-895.8314C441.2958,-886.2018 414.0093,-874.295 390.7143,-864.1299"/>
<polygon fill="#000000" stroke="#000000" points="391.9023,-860.8296 381.3371,-860.038 389.1026,-867.2454 391.9023,-860.8296"/>
</g>
<!-- tmp/&lt;SAMPLE_ID&gt;/pre_dedup.bam+.bai&#45;&gt;umi_dedup -->
<g id="edge25" class="edge">
<title>tmp/&lt;SAMPLE_ID&gt;/pre_dedup.bam+.bai&#45;&gt;umi_dedup</title>
<path fill="none" stroke="#000000" d="M505,-895.8314C505,-888.131 505,-878.9743 505,-870.4166"/>
<polygon fill="#000000" stroke="#000000" points="508.5001,-870.4132 505,-860.4133 501.5001,-870.4133 508.5001,-870.4132"/>
</g>
<!-- output/&lt;SAMPLE_ID&gt;/&lt;SAMPLE_ID&gt;.bam&#45;&gt;umi_post_group -->
<g id="edge27" class="edge">
<title>output/&lt;SAMPLE_ID&gt;/&lt;SAMPLE_ID&gt;.bam&#45;&gt;umi_post_group</title>
<path fill="none" stroke="#000000" d="M461.8495,-751.8314C438.8776,-742.159 410.4491,-730.1891 386.2368,-719.9944"/>
<polygon fill="#000000" stroke="#000000" points="387.4148,-716.6929 376.8402,-716.038 384.6984,-723.1443 387.4148,-716.6929"/>
</g>
<!-- output/&lt;SAMPLE_ID&gt;/&lt;SAMPLE_ID&gt;.bam&#45;&gt;samindex_dedup -->
<g id="edge29" class="edge">
<title>output/&lt;SAMPLE_ID&gt;/&lt;SAMPLE_ID&gt;.bam&#45;&gt;samindex_dedup</title>
<path fill="none" stroke="#000000" d="M505,-751.8314C505,-744.131 505,-734.9743 505,-726.4166"/>
<polygon fill="#000000" stroke="#000000" points="508.5001,-726.4132 505,-716.4133 501.5001,-726.4133 508.5001,-726.4132"/>
</g>
<!-- output/&lt;SAMPLE_ID&gt;/&lt;SAMPLE_ID&gt;.bam+.bai&#45;&gt;bedplus -->
<g id="edge31" class="edge">
<title>output/&lt;SAMPLE_ID&gt;/&lt;SAMPLE_ID&gt;.bam+.bai&#45;&gt;bedplus</title>
<path fill="none" stroke="#000000" d="M432.4461,-607.9243C388.1442,-596.8871 331.7288,-582.8321 287.602,-571.8386"/>
<polygon fill="#000000" stroke="#000000" points="288.361,-568.4207 277.8114,-569.3994 286.6687,-575.2131 288.361,-568.4207"/>
</g>
<!-- output/&lt;SAMPLE_ID&gt;/&lt;SAMPLE_ID&gt;.bam+.bai&#45;&gt;bedminus -->
<g id="edge33" class="edge">
<title>output/&lt;SAMPLE_ID&gt;/&lt;SAMPLE_ID&gt;.bam+.bai&#45;&gt;bedminus</title>
<path fill="none" stroke="#000000" d="M487.336,-607.8314C479.0268,-599.2848 468.9736,-588.9443 459.9082,-579.6198"/>
<polygon fill="#000000" stroke="#000000" points="462.3821,-577.1435 452.9018,-572.4133 457.3631,-582.023 462.3821,-577.1435"/>
</g>
<!-- output/&lt;SAMPLE_ID&gt;/&lt;SAMPLE_ID&gt;.bam+.bai&#45;&gt;bam2h5 -->
<g id="edge35" class="edge">
<title>output/&lt;SAMPLE_ID&gt;/&lt;SAMPLE_ID&gt;.bam+.bai&#45;&gt;bam2h5</title>
<path fill="none" stroke="#000000" d="M526.7014,-607.8314C537.1921,-599.0485 549.9455,-588.3712 561.3194,-578.8489"/>
<polygon fill="#000000" stroke="#000000" points="563.8847,-581.2659 569.3055,-572.1628 559.3911,-575.8986 563.8847,-581.2659"/>
</g>
<!-- output/&lt;SAMPLE_ID&gt;/&lt;SAMPLE_ID&gt;.h5&#45;&gt;statsfigs -->
<g id="edge38" class="edge">
<title>output/&lt;SAMPLE_ID&gt;/&lt;SAMPLE_ID&gt;.h5&#45;&gt;statsfigs</title>
<path fill="none" stroke="#000000" d="M596.5515,-463.8314C598.9303,-456.0463 601.7638,-446.7729 604.4033,-438.1347"/>
<polygon fill="#000000" stroke="#000000" points="607.7987,-438.9996 607.3737,-428.4133 601.1042,-436.954 607.7987,-438.9996"/>
</g>
<!-- collate -->
<g id="node46" class="node">
<title>collate</title>
<polygon fill="none" stroke="#000000" points="654.1181,-124 571.8819,-124 571.8819,-88 654.1181,-88 654.1181,-124"/>
<text text-anchor="middle" x="613" y="-103" font-family="Helvetica,sans-Serif" font-size="10.00" fill="#000000">collate_tpms.R</text>
</g>
<!-- output/&lt;SAMPLE_ID&gt;/tpms.tsv&#45;&gt;collate -->
<g id="edge45" class="edge">
<title>output/&lt;SAMPLE_ID&gt;/tpms.tsv&#45;&gt;collate</title>
<path fill="none" stroke="#000000" d="M613,-243.7995C613,-216.9103 613,-166.3255 613,-134.4926"/>
<polygon fill="#000000" stroke="#000000" points="616.5001,-134.0845 613,-124.0846 609.5001,-134.0846 616.5001,-134.0845"/>
</g>
<!-- output/TPMs_collated.tsv -->
<g id="node47" class="node">
<title>output/TPMs_collated.tsv</title>
<text text-anchor="middle" x="613" y="-31" font-family="Helvetica,sans-Serif" font-size="10.00" fill="#000000">output/TPMs_collated.tsv</text>
</g>
<!-- collate&#45;&gt;output/TPMs_collated.tsv -->
<g id="edge46" class="edge">
<title>collate&#45;&gt;output/TPMs_collated.tsv</title>
<path fill="none" stroke="#000000" d="M613,-87.8314C613,-80.131 613,-70.9743 613,-62.4166"/>
<polygon fill="#000000" stroke="#000000" points="616.5001,-62.4132 613,-52.4133 609.5001,-62.4133 616.5001,-62.4132"/>
</g>
</g>
</svg>
