<?xml version="1.0" encoding="UTF-8" standalone="no"?>
<!DOCTYPE svg PUBLIC "-//W3C//DTD SVG 1.1//EN"
 "http://www.w3.org/Graphics/SVG/1.1/DTD/svg11.dtd">
<!-- Generated by graphviz version 2.40.1 (20161225.0304)
 -->
<!-- Title: G Pages: 1 -->
<svg width="1406pt" height="2236pt"
 viewBox="0.00 0.00 1405.67 2236.00" xmlns="http://www.w3.org/2000/svg" xmlns:xlink="http://www.w3.org/1999/xlink">
<g id="graph0" class="graph" transform="scale(1 1) rotate(0) translate(4 2232)">
<title>G</title>
<polygon fill="#ffffff" stroke="transparent" points="-4,4 -4,-2232 1401.6702,-2232 1401.6702,4 -4,4"/>
<g id="clust1" class="cluster">
<title>cluster_data</title>
<polygon fill="none" stroke="#000000" stroke-dasharray="5,2" points="336.5629,-2056 336.5629,-2220 1224.5629,-2220 1224.5629,-2056 336.5629,-2056"/>
<text text-anchor="middle" x="355.1209" y="-2207" font-family="Helvetica,sans-Serif" font-size="10.00" fill="#000000">Data</text>
</g>
<g id="clust2" class="cluster">
<title>cluster_organism</title>
<polygon fill="none" stroke="#000000" stroke-dasharray="5,2" points="830.5629,-2092 830.5629,-2164 1018.5629,-2164 1018.5629,-2092 830.5629,-2092"/>
<text text-anchor="middle" x="871.3469" y="-2151" font-family="Helvetica,sans-Serif" font-size="10.00" fill="#000000">Organism data</text>
</g>
<g id="clust3" class="cluster">
<title>cluster_contaminants</title>
<polygon fill="none" stroke="#000000" stroke-dasharray="5,2" points="736.5629,-2092 736.5629,-2164 822.5629,-2164 822.5629,-2092 736.5629,-2092"/>
<text text-anchor="middle" x="775.4024" y="-2151" font-family="Helvetica,sans-Serif" font-size="10.00" fill="#000000">Contaminants</text>
</g>
<g id="clust4" class="cluster">
<title>cluster_additional_organism</title>
<polygon fill="none" stroke="#000000" stroke-dasharray="5,2" points="1026.5629,-2064 1026.5629,-2192 1216.5629,-2192 1216.5629,-2064 1026.5629,-2064"/>
<text text-anchor="middle" x="1107.9084" y="-2179" font-family="Helvetica,sans-Serif" font-size="10.00" fill="#000000">Additional organism&#45;specific data</text>
</g>
<g id="clust5" class="cluster">
<title>cluster_ribosome</title>
<polygon fill="none" stroke="#000000" stroke-dasharray="5,2" points="344.5629,-2092 344.5629,-2164 728.5629,-2164 728.5629,-2092 344.5629,-2092"/>
<text text-anchor="middle" x="405.0719" y="-2151" font-family="Helvetica,sans-Serif" font-size="10.00" fill="#000000">Ribosome profiling data</text>
</g>
<g id="clust6" class="cluster">
<title>cluster_indexing</title>
<polygon fill="none" stroke="#000000" points="708.5629,-1616 708.5629,-1760 962.5629,-1760 962.5629,-1616 708.5629,-1616"/>
<text text-anchor="middle" x="735.4594" y="-1747" font-family="Helvetica,sans-Serif" font-size="10.00" fill="#000000">Indexing</text>
</g>
<g id="clust7" class="cluster">
<title>cluster_demultiplexing</title>
<polygon fill="none" stroke="#000000" points="66.5629,-1616 66.5629,-2048 700.5629,-2048 700.5629,-1616 66.5629,-1616"/>
<text text-anchor="middle" x="107.3414" y="-2035" font-family="Helvetica,sans-Serif" font-size="10.00" fill="#000000">Demultiplexing</text>
</g>
<g id="clust8" class="cluster">
<title>cluster_per_sample_processing</title>
<polygon fill="none" stroke="#000000" points="61.5629,-160 61.5629,-1608 1298.5629,-1608 1298.5629,-160 61.5629,-160"/>
<text text-anchor="middle" x="122.9099" y="-1595" font-family="Helvetica,sans-Serif" font-size="10.00" fill="#000000">Process &lt;SAMPLE_ID&gt;</text>
</g>
<g id="clust9" class="cluster">
<title>cluster_tpms_collation</title>
<polygon fill="none" stroke="#000000" points="1141.5629,-8 1141.5629,-152 1285.5629,-152 1285.5629,-8 1141.5629,-8"/>
<text text-anchor="middle" x="1182.3419" y="-139" font-family="Helvetica,sans-Serif" font-size="10.00" fill="#000000">TPMs collation</text>
</g>
<!-- input/CDS.fa -->
<g id="node1" class="node">
<title>input/CDS.fa</title>
<text text-anchor="middle" x="874.5629" y="-2115" font-family="Helvetica,sans-Serif" font-size="10.00" fill="#000000">input/CDS.fa</text>
</g>
<!-- h2build2 -->
<g id="node8" class="node">
<title>h2build2</title>
<polygon fill="none" stroke="#000000" points="932.182,-1732 864.9438,-1732 864.9438,-1696 932.182,-1696 932.182,-1732"/>
<text text-anchor="middle" x="898.5629" y="-1711" font-family="Helvetica,sans-Serif" font-size="10.00" fill="#000000">hisat2&#45;build</text>
</g>
<!-- input/CDS.fa&#45;&gt;h2build2 -->
<g id="edge3" class="edge">
<title>input/CDS.fa&#45;&gt;h2build2</title>
<path fill="none" stroke="#000000" d="M877.1336,-2099.8951C881.6564,-2066.4229 890.5629,-1992.5656 890.5629,-1930 890.5629,-1930 890.5629,-1930 890.5629,-1858 890.5629,-1817.8141 893.7073,-1771.417 896.0534,-1742.3918"/>
<polygon fill="#000000" stroke="#000000" points="899.5628,-1742.4235 896.9053,-1732.1674 892.587,-1741.8422 899.5628,-1742.4235"/>
</g>
<!-- statsfigs -->
<g id="node30" class="node">
<title>statsfigs</title>
<polygon fill="none" stroke="#000000" points="1248.3152,-428 1134.8106,-428 1134.8106,-392 1248.3152,-392 1248.3152,-428"/>
<text text-anchor="middle" x="1191.5629" y="-407" font-family="Helvetica,sans-Serif" font-size="10.00" fill="#000000">generate_stats_figs.R</text>
</g>
<!-- input/CDS.fa&#45;&gt;statsfigs -->
<g id="edge47" class="edge">
<title>input/CDS.fa&#45;&gt;statsfigs</title>
<path fill="none" stroke="#000000" d="M866.2519,-2099.8824C858.3626,-2085.0751 844.9702,-2065.1481 826.5629,-2056 807.5572,-2046.5545 78.7602,-2061.7142 62.5629,-2048 21.9093,-2013.5788 41.5629,-1983.2685 41.5629,-1930 41.5629,-1930 41.5629,-1930 41.5629,-554 41.5629,-444.0947 879.2236,-416.9001 1124.7187,-411.2901"/>
<polygon fill="#000000" stroke="#000000" points="1125.0074,-414.7846 1134.9265,-411.0616 1124.8506,-407.7864 1125.0074,-414.7846"/>
</g>
<!-- input/CDS.gff3 -->
<g id="node2" class="node">
<title>input/CDS.gff3</title>
<text text-anchor="middle" x="969.5629" y="-2115" font-family="Helvetica,sans-Serif" font-size="10.00" fill="#000000">input/CDS.gff3</text>
</g>
<!-- bam2h5 -->
<g id="node29" class="node">
<title>bam2h5</title>
<polygon fill="none" stroke="#000000" points="1229.5819,-572 1153.5439,-572 1153.5439,-536 1229.5819,-536 1229.5819,-572"/>
<text text-anchor="middle" x="1191.5629" y="-551" font-family="Helvetica,sans-Serif" font-size="10.00" fill="#000000">bam_to_h5.R</text>
</g>
<!-- input/CDS.gff3&#45;&gt;bam2h5 -->
<g id="edge44" class="edge">
<title>input/CDS.gff3&#45;&gt;bam2h5</title>
<path fill="none" stroke="#000000" d="M981.4773,-2099.9901C991.2031,-2086.4236 1006.0076,-2068.1462 1022.5629,-2056 1137.8427,-1971.422 1318.5629,-2072.9785 1318.5629,-1930 1318.5629,-1930 1318.5629,-1930 1318.5629,-698 1318.5629,-645.0755 1269.7124,-602.4091 1232.6057,-577.6341"/>
<polygon fill="#000000" stroke="#000000" points="1234.2357,-574.52 1223.939,-572.0244 1230.4321,-580.3964 1234.2357,-574.52"/>
</g>
<!-- input/CDS.gff3&#45;&gt;statsfigs -->
<g id="edge48" class="edge">
<title>input/CDS.gff3&#45;&gt;statsfigs</title>
<path fill="none" stroke="#000000" d="M979.492,-2099.7302C988.5783,-2085.0412 1003.4975,-2065.3647 1022.5629,-2056 1054.7155,-2040.207 1149.5813,-2059.334 1183.5629,-2048 1271.853,-2018.5522 1356.5629,-2023.0716 1356.5629,-1930 1356.5629,-1930 1356.5629,-1930 1356.5629,-554 1356.5629,-495.3647 1296.6834,-455.1167 1249.0692,-432.3815"/>
<polygon fill="#000000" stroke="#000000" points="1250.2773,-429.0842 1239.7313,-428.0677 1247.3416,-435.4389 1250.2773,-429.0842"/>
</g>
<!-- input/rRNA.fa -->
<g id="node3" class="node">
<title>input/rRNA.fa</title>
<text text-anchor="middle" x="779.5629" y="-2115.3" font-family="Helvetica,sans-Serif" font-size="9.00" fill="#000000">input/rRNA.fa</text>
</g>
<!-- h2build1 -->
<g id="node7" class="node">
<title>h2build1</title>
<polygon fill="none" stroke="#000000" points="810.182,-1732 742.9438,-1732 742.9438,-1696 810.182,-1696 810.182,-1732"/>
<text text-anchor="middle" x="776.5629" y="-1711" font-family="Helvetica,sans-Serif" font-size="10.00" fill="#000000">hisat2&#45;build</text>
</g>
<!-- input/rRNA.fa&#45;&gt;h2build1 -->
<g id="edge1" class="edge">
<title>input/rRNA.fa&#45;&gt;h2build1</title>
<path fill="none" stroke="#000000" d="M779.2416,-2099.8522C778.6762,-2066.3103 777.5629,-1992.3438 777.5629,-1930 777.5629,-1930 777.5629,-1930 777.5629,-1858 777.5629,-1817.875 777.1699,-1771.4624 776.8766,-1742.4173"/>
<polygon fill="#000000" stroke="#000000" points="780.3741,-1742.1481 776.7701,-1732.1851 773.3745,-1742.221 780.3741,-1742.1481"/>
</g>
<!-- data -->
<g id="node4" class="node">
<title>data</title>
<polygon fill="none" stroke="#000000" stroke-dasharray="5,2" points="1208.402,-2164 1034.7238,-2164 1034.7238,-2072 1208.402,-2072 1208.402,-2164"/>
<text text-anchor="middle" x="1121.5629" y="-2151" font-family="Helvetica,sans-Serif" font-size="10.00" fill="#000000">data/codon_pos_i200.RData</text>
<text text-anchor="middle" x="1121.5629" y="-2139" font-family="Helvetica,sans-Serif" font-size="10.00" fill="#000000">&#13;</text>
<text text-anchor="middle" x="1121.5629" y="-2127" font-family="Helvetica,sans-Serif" font-size="10.00" fill="#000000">data/features.tsv</text>
<text text-anchor="middle" x="1121.5629" y="-2115" font-family="Helvetica,sans-Serif" font-size="10.00" fill="#000000">&#13;</text>
<text text-anchor="middle" x="1121.5629" y="-2103" font-family="Helvetica,sans-Serif" font-size="10.00" fill="#000000">data/tRNAs.tsv</text>
<text text-anchor="middle" x="1121.5629" y="-2091" font-family="Helvetica,sans-Serif" font-size="10.00" fill="#000000">&#13;</text>
<text text-anchor="middle" x="1121.5629" y="-2079" font-family="Helvetica,sans-Serif" font-size="10.00" fill="#000000">data/standard_asite_disp_length.txt</text>
</g>
<!-- data&#45;&gt;statsfigs -->
<g id="edge49" class="edge">
<title>data&#45;&gt;statsfigs</title>
<path fill="none" stroke="#000000" d="M1208.5838,-2103.4464C1271.197,-2091.2058 1348.3642,-2071.8909 1370.5629,-2048 1406.992,-2008.7939 1394.5629,-1983.5182 1394.5629,-1930 1394.5629,-1930 1394.5629,-1930 1394.5629,-554 1394.5629,-512.6022 1399.3577,-493.7429 1370.5629,-464 1354.7153,-447.6305 1302.4213,-432.9758 1258.4187,-423.0776"/>
<polygon fill="#000000" stroke="#000000" points="1259.1153,-419.6472 1248.5965,-420.9148 1257.6099,-426.4834 1259.1153,-419.6472"/>
</g>
<!-- input/&lt;FASTQ_FILE_NAME_PREFIX&gt;.fastq.gz -->
<g id="node5" class="node">
<title>input/&lt;FASTQ_FILE_NAME_PREFIX&gt;.fastq.gz</title>
<text text-anchor="middle" x="607.5629" y="-2115" font-family="Helvetica,sans-Serif" font-size="10.00" fill="#000000">input/&lt;FASTQ_FILE_NAME_PREFIX&gt;.fastq.gz</text>
</g>
<!-- cut -->
<g id="node11" class="node">
<title>cut</title>
<polygon fill="none" stroke="#000000" points="600.9171,-2020 546.2087,-2020 546.2087,-1984 600.9171,-1984 600.9171,-2020"/>
<text text-anchor="middle" x="573.5629" y="-1999" font-family="Helvetica,sans-Serif" font-size="10.00" fill="#000000">cutadapt</text>
</g>
<!-- input/&lt;FASTQ_FILE_NAME_PREFIX&gt;.fastq.gz&#45;&gt;cut -->
<g id="edge5" class="edge">
<title>input/&lt;FASTQ_FILE_NAME_PREFIX&gt;.fastq.gz&#45;&gt;cut</title>
<path fill="none" stroke="#000000" d="M602.2504,-2099.875C596.7685,-2081.172 588.1439,-2051.747 581.7815,-2030.0399"/>
<polygon fill="#000000" stroke="#000000" points="585.1218,-2028.9924 578.9503,-2020.3805 578.4044,-2030.9613 585.1218,-2028.9924"/>
</g>
<!-- input/&lt;BARCODES&gt;.tsv -->
<g id="node6" class="node">
<title>input/&lt;BARCODES&gt;.tsv</title>
<text text-anchor="middle" x="414.5629" y="-2115" font-family="Helvetica,sans-Serif" font-size="10.00" fill="#000000">input/&lt;BARCODES&gt;.tsv</text>
</g>
<!-- demultiplex -->
<g id="node13" class="node">
<title>demultiplex</title>
<polygon fill="none" stroke="#000000" points="294.6243,-1732 228.5015,-1732 228.5015,-1696 294.6243,-1696 294.6243,-1732"/>
<text text-anchor="middle" x="261.5629" y="-1711" font-family="Helvetica,sans-Serif" font-size="10.00" fill="#000000">demultiplex</text>
</g>
<!-- input/&lt;BARCODES&gt;.tsv&#45;&gt;demultiplex -->
<g id="edge9" class="edge">
<title>input/&lt;BARCODES&gt;.tsv&#45;&gt;demultiplex</title>
<path fill="none" stroke="#000000" d="M352.5825,-2115.0506C255.1979,-2109.1031 72.7647,-2092.231 27.5629,-2048 -10.6887,-2010.5699 3.5629,-1983.5182 3.5629,-1930 3.5629,-1930 3.5629,-1930 3.5629,-1858 3.5629,-1760.9501 144.479,-1728.6977 218.0247,-1718.4737"/>
<polygon fill="#000000" stroke="#000000" points="218.9012,-1721.8889 228.3621,-1717.12 217.9923,-1714.9481 218.9012,-1721.8889"/>
</g>
<!-- index/rRNA.1|...|8.ht2 -->
<g id="node9" class="node">
<title>index/rRNA.1|...|8.ht2</title>
<text text-anchor="middle" x="772.5629" y="-1639" font-family="Helvetica,sans-Serif" font-size="10.00" fill="#000000">index/rRNA.1|...|8.ht2</text>
</g>
<!-- h2build1&#45;&gt;index/rRNA.1|...|8.ht2 -->
<g id="edge2" class="edge">
<title>h2build1&#45;&gt;index/rRNA.1|...|8.ht2</title>
<path fill="none" stroke="#000000" d="M775.5535,-1695.8314C775.1257,-1688.131 774.617,-1678.9743 774.1416,-1670.4166"/>
<polygon fill="#000000" stroke="#000000" points="777.6353,-1670.2037 773.5859,-1660.4133 770.646,-1670.592 777.6353,-1670.2037"/>
</g>
<!-- index/CDS.1|...|8.ht2 -->
<g id="node10" class="node">
<title>index/CDS.1|...|8.ht2</title>
<text text-anchor="middle" x="900.5629" y="-1639" font-family="Helvetica,sans-Serif" font-size="10.00" fill="#000000">index/CDS.1|...|8.ht2</text>
</g>
<!-- h2build2&#45;&gt;index/CDS.1|...|8.ht2 -->
<g id="edge4" class="edge">
<title>h2build2&#45;&gt;index/CDS.1|...|8.ht2</title>
<path fill="none" stroke="#000000" d="M899.0676,-1695.8314C899.2815,-1688.131 899.5358,-1678.9743 899.7736,-1670.4166"/>
<polygon fill="#000000" stroke="#000000" points="903.2723,-1670.5066 900.0514,-1660.4133 896.275,-1670.3122 903.2723,-1670.5066"/>
</g>
<!-- h21 -->
<g id="node18" class="node">
<title>h21</title>
<polygon fill="none" stroke="#000000" points="711.5629,-1580 657.5629,-1580 657.5629,-1544 711.5629,-1544 711.5629,-1580"/>
<text text-anchor="middle" x="684.5629" y="-1559" font-family="Helvetica,sans-Serif" font-size="10.00" fill="#000000">hisat2</text>
</g>
<!-- index/rRNA.1|...|8.ht2&#45;&gt;h21 -->
<g id="edge14" class="edge">
<title>index/rRNA.1|...|8.ht2&#45;&gt;h21</title>
<path fill="none" stroke="#000000" d="M752.5943,-1623.8468C740.5554,-1612.9023 725.054,-1598.8101 711.8896,-1586.8424"/>
<polygon fill="#000000" stroke="#000000" points="714.2062,-1584.2184 704.4524,-1580.0814 709.4975,-1589.398 714.2062,-1584.2184"/>
</g>
<!-- h22 -->
<g id="node19" class="node">
<title>h22</title>
<polygon fill="none" stroke="#000000" points="633.5629,-1436 579.5629,-1436 579.5629,-1400 633.5629,-1400 633.5629,-1436"/>
<text text-anchor="middle" x="606.5629" y="-1415" font-family="Helvetica,sans-Serif" font-size="10.00" fill="#000000">hisat2</text>
</g>
<!-- index/CDS.1|...|8.ht2&#45;&gt;h22 -->
<g id="edge17" class="edge">
<title>index/CDS.1|...|8.ht2&#45;&gt;h22</title>
<path fill="none" stroke="#000000" d="M904.7305,-1623.8419C911.4693,-1589.378 920.384,-1514.1675 881.5629,-1472 849.9691,-1437.6828 711.43,-1424.4788 643.872,-1420.0123"/>
<polygon fill="#000000" stroke="#000000" points="643.8665,-1416.5051 633.666,-1419.3686 643.4258,-1423.4912 643.8665,-1416.5051"/>
</g>
<!-- tmp/&lt;FASTQ_FILE_NAME_PREFIX&gt;_trim.fastq.gz -->
<g id="node14" class="node">
<title>tmp/&lt;FASTQ_FILE_NAME_PREFIX&gt;_trim.fastq.gz</title>
<text text-anchor="middle" x="547.5629" y="-1927" font-family="Helvetica,sans-Serif" font-size="10.00" fill="#000000">tmp/&lt;FASTQ_FILE_NAME_PREFIX&gt;_trim.fastq.gz</text>
</g>
<!-- cut&#45;&gt;tmp/&lt;FASTQ_FILE_NAME_PREFIX&gt;_trim.fastq.gz -->
<g id="edge6" class="edge">
<title>cut&#45;&gt;tmp/&lt;FASTQ_FILE_NAME_PREFIX&gt;_trim.fastq.gz</title>
<path fill="none" stroke="#000000" d="M567.002,-1983.8314C564.1602,-1975.9617 560.7692,-1966.5712 557.621,-1957.8533"/>
<polygon fill="#000000" stroke="#000000" points="560.9006,-1956.63 554.2121,-1948.4133 554.3167,-1959.0076 560.9006,-1956.63"/>
</g>
<!-- umi_extract -->
<g id="node12" class="node">
<title>umi_extract</title>
<polygon fill="none" stroke="#000000" points="417.1299,-1876 325.9959,-1876 325.9959,-1840 417.1299,-1840 417.1299,-1876"/>
<text text-anchor="middle" x="371.5629" y="-1855" font-family="Helvetica,sans-Serif" font-size="10.00" fill="#000000">umi_tools extract</text>
</g>
<!-- tmp/&lt;FASTQ_FILE_NAME_PREFIX&gt;_extract_trim.fastq.gz -->
<g id="node15" class="node">
<title>tmp/&lt;FASTQ_FILE_NAME_PREFIX&gt;_extract_trim.fastq.gz</title>
<text text-anchor="middle" x="349.5629" y="-1783" font-family="Helvetica,sans-Serif" font-size="10.00" fill="#000000">tmp/&lt;FASTQ_FILE_NAME_PREFIX&gt;_extract_trim.fastq.gz</text>
</g>
<!-- umi_extract&#45;&gt;tmp/&lt;FASTQ_FILE_NAME_PREFIX&gt;_extract_trim.fastq.gz -->
<g id="edge8" class="edge">
<title>umi_extract&#45;&gt;tmp/&lt;FASTQ_FILE_NAME_PREFIX&gt;_extract_trim.fastq.gz</title>
<path fill="none" stroke="#000000" d="M366.0114,-1839.8314C363.6326,-1832.0463 360.7991,-1822.7729 358.1596,-1814.1347"/>
<polygon fill="#000000" stroke="#000000" points="361.4587,-1812.954 355.1892,-1804.4133 354.7642,-1814.9996 361.4587,-1812.954"/>
</g>
<!-- tmp/&lt;FASTQ_FILE_NAME_PREFIX&gt;_deplex/num_reads.tsv -->
<g id="node16" class="node">
<title>tmp/&lt;FASTQ_FILE_NAME_PREFIX&gt;_deplex/num_reads.tsv</title>
<text text-anchor="middle" x="217.5629" y="-1639" font-family="Helvetica,sans-Serif" font-size="10.00" fill="#000000">tmp/&lt;FASTQ_FILE_NAME_PREFIX&gt;_deplex/num_reads.tsv</text>
</g>
<!-- demultiplex&#45;&gt;tmp/&lt;FASTQ_FILE_NAME_PREFIX&gt;_deplex/num_reads.tsv -->
<g id="edge10" class="edge">
<title>demultiplex&#45;&gt;tmp/&lt;FASTQ_FILE_NAME_PREFIX&gt;_deplex/num_reads.tsv</title>
<path fill="none" stroke="#000000" d="M250.4598,-1695.8314C245.4955,-1687.7079 239.5407,-1677.9637 234.0701,-1669.0118"/>
<polygon fill="#000000" stroke="#000000" points="237.0165,-1667.121 228.8155,-1660.4133 231.0435,-1670.7712 237.0165,-1667.121"/>
</g>
<!-- tmp/&lt;FASTQ_FILE_NAME_PREFIX&gt;_deplex/&lt;SAMPLE_ID&gt;.fastq -->
<g id="node17" class="node">
<title>tmp/&lt;FASTQ_FILE_NAME_PREFIX&gt;_deplex/&lt;SAMPLE_ID&gt;.fastq</title>
<text text-anchor="middle" x="535.5629" y="-1639" font-family="Helvetica,sans-Serif" font-size="10.00" fill="#000000">tmp/&lt;FASTQ_FILE_NAME_PREFIX&gt;_deplex/&lt;SAMPLE_ID&gt;.fastq</text>
</g>
<!-- demultiplex&#45;&gt;tmp/&lt;FASTQ_FILE_NAME_PREFIX&gt;_deplex/&lt;SAMPLE_ID&gt;.fastq -->
<g id="edge12" class="edge">
<title>demultiplex&#45;&gt;tmp/&lt;FASTQ_FILE_NAME_PREFIX&gt;_deplex/&lt;SAMPLE_ID&gt;.fastq</title>
<path fill="none" stroke="#000000" d="M294.8868,-1705.2434C334.8972,-1694.7297 403.319,-1676.7502 457.0052,-1662.6429"/>
<polygon fill="#000000" stroke="#000000" points="458.0658,-1665.9831 466.848,-1660.0565 456.2868,-1659.2129 458.0658,-1665.9831"/>
</g>
<!-- tmp/&lt;FASTQ_FILE_NAME_PREFIX&gt;_trim.fastq.gz&#45;&gt;umi_extract -->
<g id="edge7" class="edge">
<title>tmp/&lt;FASTQ_FILE_NAME_PREFIX&gt;_trim.fastq.gz&#45;&gt;umi_extract</title>
<path fill="none" stroke="#000000" d="M503.1507,-1911.8314C479.4025,-1902.1162 449.9883,-1890.0831 424.9965,-1879.8592"/>
<polygon fill="#000000" stroke="#000000" points="426.2365,-1876.585 415.6558,-1876.038 423.586,-1883.0638 426.2365,-1876.585"/>
</g>
<!-- tmp/&lt;FASTQ_FILE_NAME_PREFIX&gt;_extract_trim.fastq.gz&#45;&gt;demultiplex -->
<g id="edge11" class="edge">
<title>tmp/&lt;FASTQ_FILE_NAME_PREFIX&gt;_extract_trim.fastq.gz&#45;&gt;demultiplex</title>
<path fill="none" stroke="#000000" d="M327.3568,-1767.8314C316.5179,-1758.9632 303.3185,-1748.1637 291.5951,-1738.5718"/>
<polygon fill="#000000" stroke="#000000" points="293.7179,-1735.7864 283.7619,-1732.1628 289.2852,-1741.2041 293.7179,-1735.7864"/>
</g>
<!-- tmp/&lt;FASTQ_FILE_NAME_PREFIX&gt;_deplex/&lt;SAMPLE_ID&gt;.fastq&#45;&gt;h21 -->
<g id="edge13" class="edge">
<title>tmp/&lt;FASTQ_FILE_NAME_PREFIX&gt;_deplex/&lt;SAMPLE_ID&gt;.fastq&#45;&gt;h21</title>
<path fill="none" stroke="#000000" d="M569.3733,-1623.8468C592.9752,-1611.1746 624.4367,-1594.2825 648.5153,-1581.3544"/>
<polygon fill="#000000" stroke="#000000" points="650.1957,-1584.4248 657.3505,-1576.6107 646.8844,-1578.2575 650.1957,-1584.4248"/>
</g>
<!-- tmp/&lt;SAMPLE_ID&gt;/rRNA_map.sam -->
<g id="node31" class="node">
<title>tmp/&lt;SAMPLE_ID&gt;/rRNA_map.sam</title>
<text text-anchor="middle" x="783.5629" y="-1487" font-family="Helvetica,sans-Serif" font-size="10.00" fill="#000000">tmp/&lt;SAMPLE_ID&gt;/rRNA_map.sam</text>
</g>
<!-- h21&#45;&gt;tmp/&lt;SAMPLE_ID&gt;/rRNA_map.sam -->
<g id="edge15" class="edge">
<title>h21&#45;&gt;tmp/&lt;SAMPLE_ID&gt;/rRNA_map.sam</title>
<path fill="none" stroke="#000000" d="M709.5448,-1543.8314C721.8557,-1534.8779 736.8736,-1523.9558 750.1566,-1514.2955"/>
<polygon fill="#000000" stroke="#000000" points="752.5603,-1516.8752 758.589,-1508.1628 748.443,-1511.214 752.5603,-1516.8752"/>
</g>
<!-- tmp/&lt;SAMPLE_ID&gt;/nonrRNA.fq -->
<g id="node32" class="node">
<title>tmp/&lt;SAMPLE_ID&gt;/nonrRNA.fq</title>
<text text-anchor="middle" x="597.5629" y="-1487" font-family="Helvetica,sans-Serif" font-size="10.00" fill="#000000">tmp/&lt;SAMPLE_ID&gt;/nonrRNA.fq</text>
</g>
<!-- h21&#45;&gt;tmp/&lt;SAMPLE_ID&gt;/nonrRNA.fq -->
<g id="edge16" class="edge">
<title>h21&#45;&gt;tmp/&lt;SAMPLE_ID&gt;/nonrRNA.fq</title>
<path fill="none" stroke="#000000" d="M662.6091,-1543.8314C651.8934,-1534.9632 638.844,-1524.1637 627.2539,-1514.5718"/>
<polygon fill="#000000" stroke="#000000" points="629.4451,-1511.8422 619.5097,-1508.1628 624.9821,-1517.2349 629.4451,-1511.8422"/>
</g>
<!-- tmp/&lt;SAMPLE_ID&gt;/unaligned.fq -->
<g id="node33" class="node">
<title>tmp/&lt;SAMPLE_ID&gt;/unaligned.fq</title>
<text text-anchor="middle" x="431.5629" y="-1343" font-family="Helvetica,sans-Serif" font-size="10.00" fill="#000000">tmp/&lt;SAMPLE_ID&gt;/unaligned.fq</text>
</g>
<!-- h22&#45;&gt;tmp/&lt;SAMPLE_ID&gt;/unaligned.fq -->
<g id="edge19" class="edge">
<title>h22&#45;&gt;tmp/&lt;SAMPLE_ID&gt;/unaligned.fq</title>
<path fill="none" stroke="#000000" d="M579.2192,-1406.75C554.042,-1396.3914 515.9859,-1380.734 484.8149,-1367.9094"/>
<polygon fill="#000000" stroke="#000000" points="485.9637,-1364.5974 475.3841,-1364.0293 483.3003,-1371.071 485.9637,-1364.5974"/>
</g>
<!-- tmp/&lt;SAMPLE_ID&gt;/orf_map.sam -->
<g id="node34" class="node">
<title>tmp/&lt;SAMPLE_ID&gt;/orf_map.sam</title>
<text text-anchor="middle" x="611.5629" y="-1343" font-family="Helvetica,sans-Serif" font-size="10.00" fill="#000000">tmp/&lt;SAMPLE_ID&gt;/orf_map.sam</text>
</g>
<!-- h22&#45;&gt;tmp/&lt;SAMPLE_ID&gt;/orf_map.sam -->
<g id="edge20" class="edge">
<title>h22&#45;&gt;tmp/&lt;SAMPLE_ID&gt;/orf_map.sam</title>
<path fill="none" stroke="#000000" d="M607.8246,-1399.8314C608.3594,-1392.131 608.9952,-1382.9743 609.5895,-1374.4166"/>
<polygon fill="#000000" stroke="#000000" points="613.0829,-1374.6317 610.2842,-1364.4133 606.0997,-1374.1467 613.0829,-1374.6317"/>
</g>
<!-- samindex -->
<g id="node20" class="node">
<title>samindex</title>
<polygon fill="none" stroke="#000000" points="690.7425,-1004 608.3833,-1004 608.3833,-968 690.7425,-968 690.7425,-1004"/>
<text text-anchor="middle" x="649.5629" y="-983" font-family="Helvetica,sans-Serif" font-size="10.00" fill="#000000">samtools index</text>
</g>
<!-- tmp/&lt;SAMPLE_ID&gt;/pre_dedup.bam+.bai -->
<g id="node40" class="node">
<title>tmp/&lt;SAMPLE_ID&gt;/pre_dedup.bam+.bai</title>
<text text-anchor="middle" x="649.5629" y="-911" font-family="Helvetica,sans-Serif" font-size="10.00" fill="#000000">tmp/&lt;SAMPLE_ID&gt;/pre_dedup.bam+.bai</text>
</g>
<!-- samindex&#45;&gt;tmp/&lt;SAMPLE_ID&gt;/pre_dedup.bam+.bai -->
<g id="edge27" class="edge">
<title>samindex&#45;&gt;tmp/&lt;SAMPLE_ID&gt;/pre_dedup.bam+.bai</title>
<path fill="none" stroke="#000000" d="M649.5629,-967.8314C649.5629,-960.131 649.5629,-950.9743 649.5629,-942.4166"/>
<polygon fill="#000000" stroke="#000000" points="653.063,-942.4132 649.5629,-932.4133 646.063,-942.4133 653.063,-942.4132"/>
</g>
<!-- samview -->
<g id="node21" class="node">
<title>samview</title>
<polygon fill="none" stroke="#000000" points="722.9504,-1148 576.1754,-1148 576.1754,-1112 722.9504,-1112 722.9504,-1148"/>
<text text-anchor="middle" x="649.5629" y="-1127" font-family="Helvetica,sans-Serif" font-size="10.00" fill="#000000">samtools view | samtools sort</text>
</g>
<!-- tmp/&lt;SAMPLE_ID&gt;/pre_dedup.bam -->
<g id="node39" class="node">
<title>tmp/&lt;SAMPLE_ID&gt;/pre_dedup.bam</title>
<text text-anchor="middle" x="649.5629" y="-1055" font-family="Helvetica,sans-Serif" font-size="10.00" fill="#000000">tmp/&lt;SAMPLE_ID&gt;/pre_dedup.bam</text>
</g>
<!-- samview&#45;&gt;tmp/&lt;SAMPLE_ID&gt;/pre_dedup.bam -->
<g id="edge25" class="edge">
<title>samview&#45;&gt;tmp/&lt;SAMPLE_ID&gt;/pre_dedup.bam</title>
<path fill="none" stroke="#000000" d="M649.5629,-1111.8314C649.5629,-1104.131 649.5629,-1094.9743 649.5629,-1086.4166"/>
<polygon fill="#000000" stroke="#000000" points="653.063,-1086.4132 649.5629,-1076.4133 646.063,-1086.4133 653.063,-1086.4132"/>
</g>
<!-- umi_pre_group -->
<g id="node22" class="node">
<title>umi_pre_group</title>
<polygon fill="none" stroke="#000000" points="411.189,-860 323.9368,-860 323.9368,-824 411.189,-824 411.189,-860"/>
<text text-anchor="middle" x="367.5629" y="-839" font-family="Helvetica,sans-Serif" font-size="10.00" fill="#000000">umi_tools group</text>
</g>
<!-- tmp/&lt;SAMPLE_ID&gt;/pre_dedup_groups.tsv -->
<g id="node37" class="node">
<title>tmp/&lt;SAMPLE_ID&gt;/pre_dedup_groups.tsv</title>
<text text-anchor="middle" x="172.5629" y="-767" font-family="Helvetica,sans-Serif" font-size="10.00" fill="#000000">tmp/&lt;SAMPLE_ID&gt;/pre_dedup_groups.tsv</text>
</g>
<!-- umi_pre_group&#45;&gt;tmp/&lt;SAMPLE_ID&gt;/pre_dedup_groups.tsv -->
<g id="edge29" class="edge">
<title>umi_pre_group&#45;&gt;tmp/&lt;SAMPLE_ID&gt;/pre_dedup_groups.tsv</title>
<path fill="none" stroke="#000000" d="M323.8011,-825.8418C296.3422,-815.7031 260.6137,-802.5111 230.7784,-791.495"/>
<polygon fill="#000000" stroke="#000000" points="231.91,-788.1819 221.3167,-788.0014 229.4853,-794.7485 231.91,-788.1819"/>
</g>
<!-- umi_dedup -->
<g id="node23" class="node">
<title>umi_dedup</title>
<polygon fill="none" stroke="#000000" points="713.4196,-860 623.7062,-860 623.7062,-824 713.4196,-824 713.4196,-860"/>
<text text-anchor="middle" x="668.5629" y="-839" font-family="Helvetica,sans-Serif" font-size="10.00" fill="#000000">umi_tools dedup</text>
</g>
<!-- tmp/&lt;SAMPLE_ID&gt;/dedup_stats_edit_distance.tsv -->
<g id="node41" class="node">
<title>tmp/&lt;SAMPLE_ID&gt;/dedup_stats_edit_distance.tsv</title>
<text text-anchor="middle" x="1170.5629" y="-767" font-family="Helvetica,sans-Serif" font-size="10.00" fill="#000000">tmp/&lt;SAMPLE_ID&gt;/dedup_stats_edit_distance.tsv</text>
</g>
<!-- umi_dedup&#45;&gt;tmp/&lt;SAMPLE_ID&gt;/dedup_stats_edit_distance.tsv -->
<g id="edge32" class="edge">
<title>umi_dedup&#45;&gt;tmp/&lt;SAMPLE_ID&gt;/dedup_stats_edit_distance.tsv</title>
<path fill="none" stroke="#000000" d="M713.5538,-835.5471C786.4241,-825.0956 932.9444,-804.0807 1040.5147,-788.6523"/>
<polygon fill="#000000" stroke="#000000" points="1041.0701,-792.1086 1050.4719,-787.2242 1040.0763,-785.1795 1041.0701,-792.1086"/>
</g>
<!-- tmp/&lt;SAMPLE_ID&gt;/dedup_stats_per_umi.tsv -->
<g id="node42" class="node">
<title>tmp/&lt;SAMPLE_ID&gt;/dedup_stats_per_umi.tsv</title>
<text text-anchor="middle" x="402.5629" y="-767" font-family="Helvetica,sans-Serif" font-size="10.00" fill="#000000">tmp/&lt;SAMPLE_ID&gt;/dedup_stats_per_umi.tsv</text>
</g>
<!-- umi_dedup&#45;&gt;tmp/&lt;SAMPLE_ID&gt;/dedup_stats_per_umi.tsv -->
<g id="edge33" class="edge">
<title>umi_dedup&#45;&gt;tmp/&lt;SAMPLE_ID&gt;/dedup_stats_per_umi.tsv</title>
<path fill="none" stroke="#000000" d="M623.7404,-829.8676C584.2757,-819.1854 525.959,-803.4004 479.1139,-790.7206"/>
<polygon fill="#000000" stroke="#000000" points="479.8699,-787.2993 469.3027,-788.0649 478.0409,-794.0562 479.8699,-787.2993"/>
</g>
<!-- tmp/&lt;SAMPLE_ID&gt;/dedup_stats_per_umi_per_position.tsv -->
<g id="node43" class="node">
<title>tmp/&lt;SAMPLE_ID&gt;/dedup_stats_per_umi_per_position.tsv</title>
<text text-anchor="middle" x="668.5629" y="-767" font-family="Helvetica,sans-Serif" font-size="10.00" fill="#000000">tmp/&lt;SAMPLE_ID&gt;/dedup_stats_per_umi_per_position.tsv</text>
</g>
<!-- umi_dedup&#45;&gt;tmp/&lt;SAMPLE_ID&gt;/dedup_stats_per_umi_per_position.tsv -->
<g id="edge34" class="edge">
<title>umi_dedup&#45;&gt;tmp/&lt;SAMPLE_ID&gt;/dedup_stats_per_umi_per_position.tsv</title>
<path fill="none" stroke="#000000" d="M668.5629,-823.8314C668.5629,-816.131 668.5629,-806.9743 668.5629,-798.4166"/>
<polygon fill="#000000" stroke="#000000" points="672.063,-798.4132 668.5629,-788.4133 665.063,-798.4133 672.063,-798.4132"/>
</g>
<!-- output/&lt;SAMPLE_ID&gt;/&lt;SAMPLE_ID&gt;.bam -->
<g id="node44" class="node">
<title>output/&lt;SAMPLE_ID&gt;/&lt;SAMPLE_ID&gt;.bam</title>
<text text-anchor="middle" x="928.5629" y="-767" font-family="Helvetica,sans-Serif" font-size="10.00" fill="#000000">output/&lt;SAMPLE_ID&gt;/&lt;SAMPLE_ID&gt;.bam</text>
</g>
<!-- umi_dedup&#45;&gt;output/&lt;SAMPLE_ID&gt;/&lt;SAMPLE_ID&gt;.bam -->
<g id="edge31" class="edge">
<title>umi_dedup&#45;&gt;output/&lt;SAMPLE_ID&gt;/&lt;SAMPLE_ID&gt;.bam</title>
<path fill="none" stroke="#000000" d="M713.2585,-829.6228C751.8093,-818.9472 808.2788,-803.3094 853.7146,-790.7272"/>
<polygon fill="#000000" stroke="#000000" points="854.8233,-794.052 863.5265,-788.0101 852.9551,-787.3059 854.8233,-794.052"/>
</g>
<!-- umi_post_group -->
<g id="node24" class="node">
<title>umi_post_group</title>
<polygon fill="none" stroke="#000000" points="859.189,-572 771.9368,-572 771.9368,-536 859.189,-536 859.189,-572"/>
<text text-anchor="middle" x="815.5629" y="-551" font-family="Helvetica,sans-Serif" font-size="10.00" fill="#000000">umi_tools group</text>
</g>
<!-- tmp/&lt;SAMPLE_ID&gt;/post_dedup_groups.tsv -->
<g id="node38" class="node">
<title>tmp/&lt;SAMPLE_ID&gt;/post_dedup_groups.tsv</title>
<text text-anchor="middle" x="770.5629" y="-479" font-family="Helvetica,sans-Serif" font-size="10.00" fill="#000000">tmp/&lt;SAMPLE_ID&gt;/post_dedup_groups.tsv</text>
</g>
<!-- umi_post_group&#45;&gt;tmp/&lt;SAMPLE_ID&gt;/post_dedup_groups.tsv -->
<g id="edge38" class="edge">
<title>umi_post_group&#45;&gt;tmp/&lt;SAMPLE_ID&gt;/post_dedup_groups.tsv</title>
<path fill="none" stroke="#000000" d="M804.2075,-535.8314C799.1303,-527.7079 793.0402,-517.9637 787.4453,-509.0118"/>
<polygon fill="#000000" stroke="#000000" points="790.3392,-507.0383 782.0712,-500.4133 784.4032,-510.7483 790.3392,-507.0383"/>
</g>
<!-- samindex_dedup -->
<g id="node25" class="node">
<title>samindex_dedup</title>
<polygon fill="none" stroke="#000000" points="969.7425,-716 887.3833,-716 887.3833,-680 969.7425,-680 969.7425,-716"/>
<text text-anchor="middle" x="928.5629" y="-695" font-family="Helvetica,sans-Serif" font-size="10.00" fill="#000000">samtools index</text>
</g>
<!-- output/&lt;SAMPLE_ID&gt;/&lt;SAMPLE_ID&gt;.bam+.bai -->
<g id="node45" class="node">
<title>output/&lt;SAMPLE_ID&gt;/&lt;SAMPLE_ID&gt;.bam+.bai</title>
<text text-anchor="middle" x="928.5629" y="-623" font-family="Helvetica,sans-Serif" font-size="10.00" fill="#000000">output/&lt;SAMPLE_ID&gt;/&lt;SAMPLE_ID&gt;.bam+.bai</text>
</g>
<!-- samindex_dedup&#45;&gt;output/&lt;SAMPLE_ID&gt;/&lt;SAMPLE_ID&gt;.bam+.bai -->
<g id="edge36" class="edge">
<title>samindex_dedup&#45;&gt;output/&lt;SAMPLE_ID&gt;/&lt;SAMPLE_ID&gt;.bam+.bai</title>
<path fill="none" stroke="#000000" d="M928.5629,-679.8314C928.5629,-672.131 928.5629,-662.9743 928.5629,-654.4166"/>
<polygon fill="#000000" stroke="#000000" points="932.063,-654.4132 928.5629,-644.4133 925.063,-654.4133 932.063,-654.4132"/>
</g>
<!-- trim -->
<g id="node26" class="node">
<title>trim</title>
<polygon fill="none" stroke="#000000" points="667.0669,-1292 556.0589,-1292 556.0589,-1256 667.0669,-1256 667.0669,-1292"/>
<text text-anchor="middle" x="611.5629" y="-1271" font-family="Helvetica,sans-Serif" font-size="10.00" fill="#000000">trim_5p_mismatch.py</text>
</g>
<!-- tmp/&lt;SAMPLE_ID&gt;/trim_5p_mismatch.tsv -->
<g id="node35" class="node">
<title>tmp/&lt;SAMPLE_ID&gt;/trim_5p_mismatch.tsv</title>
<text text-anchor="middle" x="432.5629" y="-1199" font-family="Helvetica,sans-Serif" font-size="10.00" fill="#000000">tmp/&lt;SAMPLE_ID&gt;/trim_5p_mismatch.tsv</text>
</g>
<!-- trim&#45;&gt;tmp/&lt;SAMPLE_ID&gt;/trim_5p_mismatch.tsv -->
<g id="edge23" class="edge">
<title>trim&#45;&gt;tmp/&lt;SAMPLE_ID&gt;/trim_5p_mismatch.tsv</title>
<path fill="none" stroke="#000000" d="M566.3936,-1255.8314C542.2407,-1246.1162 512.3251,-1234.0831 486.9073,-1223.8592"/>
<polygon fill="#000000" stroke="#000000" points="487.9911,-1220.5227 477.4074,-1220.038 485.3788,-1227.017 487.9911,-1220.5227"/>
</g>
<!-- tmp/&lt;SAMPLE_ID&gt;/orf_map_clean.sam -->
<g id="node36" class="node">
<title>tmp/&lt;SAMPLE_ID&gt;/orf_map_clean.sam</title>
<text text-anchor="middle" x="649.5629" y="-1199" font-family="Helvetica,sans-Serif" font-size="10.00" fill="#000000">tmp/&lt;SAMPLE_ID&gt;/orf_map_clean.sam</text>
</g>
<!-- trim&#45;&gt;tmp/&lt;SAMPLE_ID&gt;/orf_map_clean.sam -->
<g id="edge22" class="edge">
<title>trim&#45;&gt;tmp/&lt;SAMPLE_ID&gt;/orf_map_clean.sam</title>
<path fill="none" stroke="#000000" d="M621.1519,-1255.8314C625.3947,-1247.7925 630.475,-1238.1666 635.1589,-1229.2918"/>
<polygon fill="#000000" stroke="#000000" points="638.2725,-1230.8908 639.8448,-1220.4133 632.0818,-1227.6235 638.2725,-1230.8908"/>
</g>
<!-- bedplus -->
<g id="node27" class="node">
<title>bedplus</title>
<polygon fill="none" stroke="#000000" points="1017.0948,-572 894.031,-572 894.031,-536 1017.0948,-536 1017.0948,-572"/>
<text text-anchor="middle" x="955.5629" y="-551" font-family="Helvetica,sans-Serif" font-size="10.00" fill="#000000">bedtools genomecov (+)</text>
</g>
<!-- output/&lt;SAMPLE_ID&gt;/plus.bedgraph -->
<g id="node46" class="node">
<title>output/&lt;SAMPLE_ID&gt;/plus.bedgraph</title>
<text text-anchor="middle" x="983.5629" y="-479" font-family="Helvetica,sans-Serif" font-size="10.00" fill="#000000">output/&lt;SAMPLE_ID&gt;/plus.bedgraph</text>
</g>
<!-- bedplus&#45;&gt;output/&lt;SAMPLE_ID&gt;/plus.bedgraph -->
<g id="edge40" class="edge">
<title>bedplus&#45;&gt;output/&lt;SAMPLE_ID&gt;/plus.bedgraph</title>
<path fill="none" stroke="#000000" d="M962.6285,-535.8314C965.6889,-527.9617 969.3408,-518.5712 972.7311,-509.8533"/>
<polygon fill="#000000" stroke="#000000" points="976.0397,-511.0019 976.4022,-500.4133 969.5156,-508.4647 976.0397,-511.0019"/>
</g>
<!-- bedminus -->
<g id="node28" class="node">
<title>bedminus</title>
<polygon fill="none" stroke="#000000" points="689.0839,-572 568.0419,-572 568.0419,-536 689.0839,-536 689.0839,-572"/>
<text text-anchor="middle" x="628.5629" y="-551" font-family="Helvetica,sans-Serif" font-size="10.00" fill="#000000">bedtools genomecov (&#45;)</text>
</g>
<!-- output/&lt;SAMPLE_ID&gt;/minus.bedgraph -->
<g id="node47" class="node">
<title>output/&lt;SAMPLE_ID&gt;/minus.bedgraph</title>
<text text-anchor="middle" x="553.5629" y="-479" font-family="Helvetica,sans-Serif" font-size="10.00" fill="#000000">output/&lt;SAMPLE_ID&gt;/minus.bedgraph</text>
</g>
<!-- bedminus&#45;&gt;output/&lt;SAMPLE_ID&gt;/minus.bedgraph -->
<g id="edge42" class="edge">
<title>bedminus&#45;&gt;output/&lt;SAMPLE_ID&gt;/minus.bedgraph</title>
<path fill="none" stroke="#000000" d="M609.6372,-535.8314C600.5772,-527.1337 589.582,-516.5783 579.7364,-507.1265"/>
<polygon fill="#000000" stroke="#000000" points="582.1203,-504.5633 572.4825,-500.1628 577.2725,-509.613 582.1203,-504.5633"/>
</g>
<!-- output/&lt;SAMPLE_ID&gt;/&lt;SAMPLE_ID&gt;.h5 -->
<g id="node48" class="node">
<title>output/&lt;SAMPLE_ID&gt;/&lt;SAMPLE_ID&gt;.h5</title>
<text text-anchor="middle" x="1191.5629" y="-479" font-family="Helvetica,sans-Serif" font-size="10.00" fill="#000000">output/&lt;SAMPLE_ID&gt;/&lt;SAMPLE_ID&gt;.h5</text>
</g>
<!-- bam2h5&#45;&gt;output/&lt;SAMPLE_ID&gt;/&lt;SAMPLE_ID&gt;.h5 -->
<g id="edge45" class="edge">
<title>bam2h5&#45;&gt;output/&lt;SAMPLE_ID&gt;/&lt;SAMPLE_ID&gt;.h5</title>
<path fill="none" stroke="#000000" d="M1191.5629,-535.8314C1191.5629,-528.131 1191.5629,-518.9743 1191.5629,-510.4166"/>
<polygon fill="#000000" stroke="#000000" points="1195.063,-510.4132 1191.5629,-500.4133 1188.063,-510.4133 1195.063,-510.4132"/>
</g>
<!-- pdfs -->
<g id="node49" class="node">
<title>pdfs</title>
<polygon fill="none" stroke="#000000" stroke-dasharray="5,2" points="858.752,-356 616.3738,-356 616.3738,-168 858.752,-168 858.752,-356"/>
<text text-anchor="middle" x="737.5629" y="-343" font-family="Helvetica,sans-Serif" font-size="10.00" fill="#000000">output/&lt;SAMPLE_ID&gt;/3nt_periodicity.pdf</text>
<text text-anchor="middle" x="737.5629" y="-331" font-family="Helvetica,sans-Serif" font-size="10.00" fill="#000000">&#13;</text>
<text text-anchor="middle" x="737.5629" y="-319" font-family="Helvetica,sans-Serif" font-size="10.00" fill="#000000">output/&lt;SAMPLE_ID&gt;/codon_ribodens.pdf</text>
<text text-anchor="middle" x="737.5629" y="-307" font-family="Helvetica,sans-Serif" font-size="10.00" fill="#000000">&#13;</text>
<text text-anchor="middle" x="737.5629" y="-295" font-family="Helvetica,sans-Serif" font-size="10.00" fill="#000000">output/&lt;SAMPLE_ID&gt;/read_lengths.pdf</text>
<text text-anchor="middle" x="737.5629" y="-283" font-family="Helvetica,sans-Serif" font-size="10.00" fill="#000000">&#13;</text>
<text text-anchor="middle" x="737.5629" y="-271" font-family="Helvetica,sans-Serif" font-size="10.00" fill="#000000">output/&lt;SAMPLE_ID&gt;/pos_sp_rpf_norm_reads.pdf</text>
<text text-anchor="middle" x="737.5629" y="-259" font-family="Helvetica,sans-Serif" font-size="10.00" fill="#000000">&#13;</text>
<text text-anchor="middle" x="737.5629" y="-247" font-family="Helvetica,sans-Serif" font-size="10.00" fill="#000000">output/&lt;SAMPLE_ID&gt;/features.pdf</text>
<text text-anchor="middle" x="737.5629" y="-235" font-family="Helvetica,sans-Serif" font-size="10.00" fill="#000000">&#13;</text>
<text text-anchor="middle" x="737.5629" y="-223" font-family="Helvetica,sans-Serif" font-size="10.00" fill="#000000">output/&lt;SAMPLE_ID&gt;/startcodon_ribogridbar.pdf</text>
<text text-anchor="middle" x="737.5629" y="-211" font-family="Helvetica,sans-Serif" font-size="10.00" fill="#000000">&#13;</text>
<text text-anchor="middle" x="737.5629" y="-199" font-family="Helvetica,sans-Serif" font-size="10.00" fill="#000000">output/&lt;SAMPLE_ID&gt;/startcodon_ribogrid.pdf</text>
<text text-anchor="middle" x="737.5629" y="-187" font-family="Helvetica,sans-Serif" font-size="10.00" fill="#000000">&#13;</text>
<text text-anchor="middle" x="737.5629" y="-175" font-family="Helvetica,sans-Serif" font-size="10.00" fill="#000000">output/&lt;SAMPLE_ID&gt;/3ntframe_propbygene.pdf&#13;</text>
</g>
<!-- statsfigs&#45;&gt;pdfs -->
<g id="edge50" class="edge">
<title>statsfigs&#45;&gt;pdfs</title>
<path fill="none" stroke="#000000" d="M1134.7089,-403.6993C1059.2801,-394.83 929.4183,-377.6604 868.2648,-355.7696"/>
<polygon fill="#000000" stroke="#000000" points="869.3007,-352.4176 858.7115,-352.0704 866.773,-358.9453 869.3007,-352.4176"/>
</g>
<!-- tsvs -->
<g id="node50" class="node">
<title>tsvs</title>
<polygon fill="none" stroke="#000000" stroke-dasharray="5,2" points="1118.1339,-332 876.9919,-332 876.9919,-192 1118.1339,-192 1118.1339,-332"/>
<text text-anchor="middle" x="997.5629" y="-319" font-family="Helvetica,sans-Serif" font-size="10.00" fill="#000000">output/&lt;SAMPLE_ID&gt;/3nt_periodicity.tsv</text>
<text text-anchor="middle" x="997.5629" y="-307" font-family="Helvetica,sans-Serif" font-size="10.00" fill="#000000">&#13;</text>
<text text-anchor="middle" x="997.5629" y="-295" font-family="Helvetica,sans-Serif" font-size="10.00" fill="#000000">output/&lt;SAMPLE_ID&gt;/codon_ribodens.tsv</text>
<text text-anchor="middle" x="997.5629" y="-283" font-family="Helvetica,sans-Serif" font-size="10.00" fill="#000000">&#13;</text>
<text text-anchor="middle" x="997.5629" y="-271" font-family="Helvetica,sans-Serif" font-size="10.00" fill="#000000">output/&lt;SAMPLE_ID&gt;/read_lengths.tsv</text>
<text text-anchor="middle" x="997.5629" y="-259" font-family="Helvetica,sans-Serif" font-size="10.00" fill="#000000">&#13;</text>
<text text-anchor="middle" x="997.5629" y="-247" font-family="Helvetica,sans-Serif" font-size="10.00" fill="#000000">output/&lt;SAMPLE_ID&gt;/pos_sp_rpf_norm_reads.tsv</text>
<text text-anchor="middle" x="997.5629" y="-235" font-family="Helvetica,sans-Serif" font-size="10.00" fill="#000000">&#13;</text>
<text text-anchor="middle" x="997.5629" y="-223" font-family="Helvetica,sans-Serif" font-size="10.00" fill="#000000">output/&lt;SAMPLE_ID&gt;/pos_sp_nt_freq.tsv</text>
<text text-anchor="middle" x="997.5629" y="-211" font-family="Helvetica,sans-Serif" font-size="10.00" fill="#000000">&#13;</text>
<text text-anchor="middle" x="997.5629" y="-199" font-family="Helvetica,sans-Serif" font-size="10.00" fill="#000000">output/&lt;SAMPLE_ID&gt;/3ntframe_bygene.tsv&#13;</text>
</g>
<!-- statsfigs&#45;&gt;tsvs -->
<g id="edge51" class="edge">
<title>statsfigs&#45;&gt;tsvs</title>
<path fill="none" stroke="#000000" d="M1167.7747,-391.8523C1149.8028,-378.1418 1123.8146,-358.3157 1097.5353,-338.2676"/>
<polygon fill="#000000" stroke="#000000" points="1099.4523,-335.3278 1089.3788,-332.0451 1095.2065,-340.8932 1099.4523,-335.3278"/>
</g>
<!-- output/&lt;SAMPLE_ID&gt;/tpms.tsv -->
<g id="node51" class="node">
<title>output/&lt;SAMPLE_ID&gt;/tpms.tsv</title>
<text text-anchor="middle" x="1213.5629" y="-259" font-family="Helvetica,sans-Serif" font-size="10.00" fill="#000000">output/&lt;SAMPLE_ID&gt;/tpms.tsv</text>
</g>
<!-- statsfigs&#45;&gt;output/&lt;SAMPLE_ID&gt;/tpms.tsv -->
<g id="edge52" class="edge">
<title>statsfigs&#45;&gt;output/&lt;SAMPLE_ID&gt;/tpms.tsv</title>
<path fill="none" stroke="#000000" d="M1194.2605,-391.8523C1198.0211,-366.5539 1204.8767,-320.4342 1209.3239,-290.5167"/>
<polygon fill="#000000" stroke="#000000" points="1212.8348,-290.7021 1210.8432,-280.2961 1205.9108,-289.6728 1212.8348,-290.7021"/>
</g>
<!-- tmp/&lt;SAMPLE_ID&gt;/nonrRNA.fq&#45;&gt;h22 -->
<g id="edge18" class="edge">
<title>tmp/&lt;SAMPLE_ID&gt;/nonrRNA.fq&#45;&gt;h22</title>
<path fill="none" stroke="#000000" d="M599.834,-1471.8314C600.7965,-1464.131 601.9411,-1454.9743 603.0108,-1446.4166"/>
<polygon fill="#000000" stroke="#000000" points="606.4938,-1446.7702 604.2612,-1436.4133 599.5478,-1445.9019 606.4938,-1446.7702"/>
</g>
<!-- tmp/&lt;SAMPLE_ID&gt;/orf_map.sam&#45;&gt;trim -->
<g id="edge21" class="edge">
<title>tmp/&lt;SAMPLE_ID&gt;/orf_map.sam&#45;&gt;trim</title>
<path fill="none" stroke="#000000" d="M611.5629,-1327.8314C611.5629,-1320.131 611.5629,-1310.9743 611.5629,-1302.4166"/>
<polygon fill="#000000" stroke="#000000" points="615.063,-1302.4132 611.5629,-1292.4133 608.063,-1302.4133 615.063,-1302.4132"/>
</g>
<!-- tmp/&lt;SAMPLE_ID&gt;/orf_map_clean.sam&#45;&gt;samview -->
<g id="edge24" class="edge">
<title>tmp/&lt;SAMPLE_ID&gt;/orf_map_clean.sam&#45;&gt;samview</title>
<path fill="none" stroke="#000000" d="M649.5629,-1183.8314C649.5629,-1176.131 649.5629,-1166.9743 649.5629,-1158.4166"/>
<polygon fill="#000000" stroke="#000000" points="653.063,-1158.4132 649.5629,-1148.4133 646.063,-1158.4133 653.063,-1158.4132"/>
</g>
<!-- tmp/&lt;SAMPLE_ID&gt;/pre_dedup.bam&#45;&gt;samindex -->
<g id="edge26" class="edge">
<title>tmp/&lt;SAMPLE_ID&gt;/pre_dedup.bam&#45;&gt;samindex</title>
<path fill="none" stroke="#000000" d="M649.5629,-1039.8314C649.5629,-1032.131 649.5629,-1022.9743 649.5629,-1014.4166"/>
<polygon fill="#000000" stroke="#000000" points="653.063,-1014.4132 649.5629,-1004.4133 646.063,-1014.4133 653.063,-1014.4132"/>
</g>
<!-- tmp/&lt;SAMPLE_ID&gt;/pre_dedup.bam+.bai&#45;&gt;umi_pre_group -->
<g id="edge28" class="edge">
<title>tmp/&lt;SAMPLE_ID&gt;/pre_dedup.bam+.bai&#45;&gt;umi_pre_group</title>
<path fill="none" stroke="#000000" d="M578.7664,-895.9243C529.9253,-883.4542 465.996,-867.1319 421.319,-855.725"/>
<polygon fill="#000000" stroke="#000000" points="422.0825,-852.3077 411.5274,-853.225 420.3507,-859.0901 422.0825,-852.3077"/>
</g>
<!-- tmp/&lt;SAMPLE_ID&gt;/pre_dedup.bam+.bai&#45;&gt;umi_dedup -->
<g id="edge30" class="edge">
<title>tmp/&lt;SAMPLE_ID&gt;/pre_dedup.bam+.bai&#45;&gt;umi_dedup</title>
<path fill="none" stroke="#000000" d="M654.3574,-895.8314C656.4118,-888.0463 658.8589,-878.7729 661.1385,-870.1347"/>
<polygon fill="#000000" stroke="#000000" points="664.5364,-870.9753 663.7038,-860.4133 657.7681,-869.1892 664.5364,-870.9753"/>
</g>
<!-- output/&lt;SAMPLE_ID&gt;/&lt;SAMPLE_ID&gt;.bam&#45;&gt;samindex_dedup -->
<g id="edge35" class="edge">
<title>output/&lt;SAMPLE_ID&gt;/&lt;SAMPLE_ID&gt;.bam&#45;&gt;samindex_dedup</title>
<path fill="none" stroke="#000000" d="M928.5629,-751.8314C928.5629,-744.131 928.5629,-734.9743 928.5629,-726.4166"/>
<polygon fill="#000000" stroke="#000000" points="932.063,-726.4132 928.5629,-716.4133 925.063,-726.4133 932.063,-726.4132"/>
</g>
<!-- output/&lt;SAMPLE_ID&gt;/&lt;SAMPLE_ID&gt;.bam+.bai&#45;&gt;umi_post_group -->
<g id="edge37" class="edge">
<title>output/&lt;SAMPLE_ID&gt;/&lt;SAMPLE_ID&gt;.bam+.bai&#45;&gt;umi_post_group</title>
<path fill="none" stroke="#000000" d="M900.0482,-607.8314C885.7287,-598.7074 868.2006,-587.539 852.8291,-577.7449"/>
<polygon fill="#000000" stroke="#000000" points="854.3828,-574.5847 844.0685,-572.1628 850.6212,-580.4882 854.3828,-574.5847"/>
</g>
<!-- output/&lt;SAMPLE_ID&gt;/&lt;SAMPLE_ID&gt;.bam+.bai&#45;&gt;bedplus -->
<g id="edge39" class="edge">
<title>output/&lt;SAMPLE_ID&gt;/&lt;SAMPLE_ID&gt;.bam+.bai&#45;&gt;bedplus</title>
<path fill="none" stroke="#000000" d="M935.3761,-607.8314C938.3273,-599.9617 941.8487,-590.5712 945.1179,-581.8533"/>
<polygon fill="#000000" stroke="#000000" points="948.4238,-583.0055 948.6579,-572.4133 941.8695,-580.5476 948.4238,-583.0055"/>
</g>
<!-- output/&lt;SAMPLE_ID&gt;/&lt;SAMPLE_ID&gt;.bam+.bai&#45;&gt;bedminus -->
<g id="edge41" class="edge">
<title>output/&lt;SAMPLE_ID&gt;/&lt;SAMPLE_ID&gt;.bam+.bai&#45;&gt;bedminus</title>
<path fill="none" stroke="#000000" d="M853.2475,-607.9243C806.0307,-596.5923 745.5588,-582.079 699.247,-570.9642"/>
<polygon fill="#000000" stroke="#000000" points="699.8328,-567.5055 689.2921,-568.575 698.1992,-574.3122 699.8328,-567.5055"/>
</g>
<!-- output/&lt;SAMPLE_ID&gt;/&lt;SAMPLE_ID&gt;.bam+.bai&#45;&gt;bam2h5 -->
<g id="edge43" class="edge">
<title>output/&lt;SAMPLE_ID&gt;/&lt;SAMPLE_ID&gt;.bam+.bai&#45;&gt;bam2h5</title>
<path fill="none" stroke="#000000" d="M994.5894,-607.9243C1040.9345,-595.2367 1101.8464,-578.5612 1143.5929,-567.1325"/>
<polygon fill="#000000" stroke="#000000" points="1144.5254,-570.5061 1153.2463,-564.4897 1142.677,-563.7545 1144.5254,-570.5061"/>
</g>
<!-- output/&lt;SAMPLE_ID&gt;/&lt;SAMPLE_ID&gt;.h5&#45;&gt;statsfigs -->
<g id="edge46" class="edge">
<title>output/&lt;SAMPLE_ID&gt;/&lt;SAMPLE_ID&gt;.h5&#45;&gt;statsfigs</title>
<path fill="none" stroke="#000000" d="M1191.5629,-463.8314C1191.5629,-456.131 1191.5629,-446.9743 1191.5629,-438.4166"/>
<polygon fill="#000000" stroke="#000000" points="1195.063,-438.4132 1191.5629,-428.4133 1188.063,-438.4133 1195.063,-438.4132"/>
</g>
<!-- collate -->
<g id="node52" class="node">
<title>collate</title>
<polygon fill="none" stroke="#000000" points="1254.681,-124 1172.4448,-124 1172.4448,-88 1254.681,-88 1254.681,-124"/>
<text text-anchor="middle" x="1213.5629" y="-103" font-family="Helvetica,sans-Serif" font-size="10.00" fill="#000000">collate_tpms.R</text>
</g>
<!-- output/&lt;SAMPLE_ID&gt;/tpms.tsv&#45;&gt;collate -->
<g id="edge53" class="edge">
<title>output/&lt;SAMPLE_ID&gt;/tpms.tsv&#45;&gt;collate</title>
<path fill="none" stroke="#000000" d="M1213.5629,-243.7995C1213.5629,-216.9103 1213.5629,-166.3255 1213.5629,-134.4926"/>
<polygon fill="#000000" stroke="#000000" points="1217.063,-134.0845 1213.5629,-124.0846 1210.063,-134.0846 1217.063,-134.0845"/>
</g>
<!-- output/TPMs_collated.tsv -->
<g id="node53" class="node">
<title>output/TPMs_collated.tsv</title>
<text text-anchor="middle" x="1213.5629" y="-31" font-family="Helvetica,sans-Serif" font-size="10.00" fill="#000000">output/TPMs_collated.tsv</text>
</g>
<!-- collate&#45;&gt;output/TPMs_collated.tsv -->
<g id="edge54" class="edge">
<title>collate&#45;&gt;output/TPMs_collated.tsv</title>
<path fill="none" stroke="#000000" d="M1213.5629,-87.8314C1213.5629,-80.131 1213.5629,-70.9743 1213.5629,-62.4166"/>
<polygon fill="#000000" stroke="#000000" points="1217.063,-62.4132 1213.5629,-52.4133 1210.063,-62.4133 1217.063,-62.4132"/>
</g>
</g>
</svg>
