<?xml version="1.0" encoding="UTF-8" standalone="no"?>
<!DOCTYPE svg PUBLIC "-//W3C//DTD SVG 1.1//EN"
 "http://www.w3.org/Graphics/SVG/1.1/DTD/svg11.dtd">
<!-- Generated by graphviz version 2.40.1 (20161225.0304)
 -->
<!-- Title: G Pages: 1 -->
<svg width="1351pt" height="2084pt"
 viewBox="0.00 0.00 1351.00 2084.00" xmlns="http://www.w3.org/2000/svg" xmlns:xlink="http://www.w3.org/1999/xlink">
<g id="graph0" class="graph" transform="scale(1 1) rotate(0) translate(4 2080)">
<title>G</title>
<polygon fill="#ffffff" stroke="transparent" points="-4,4 -4,-2080 1347,-2080 1347,4 -4,4"/>
<g id="clust1" class="cluster">
<title>cluster_data</title>
<polygon fill="none" stroke="#000000" stroke-dasharray="5,2" points="537,-1904 537,-2068 1335,-2068 1335,-1904 537,-1904"/>
<text text-anchor="middle" x="555.558" y="-2055" font-family="Helvetica,sans-Serif" font-size="10.00" fill="#000000">Data</text>
</g>
<g id="clust2" class="cluster">
<title>cluster_organism</title>
<polygon fill="none" stroke="#000000" stroke-dasharray="5,2" points="941,-1940 941,-2012 1129,-2012 1129,-1940 941,-1940"/>
<text text-anchor="middle" x="981.784" y="-1999" font-family="Helvetica,sans-Serif" font-size="10.00" fill="#000000">Organism data</text>
</g>
<g id="clust3" class="cluster">
<title>cluster_contaminants</title>
<polygon fill="none" stroke="#000000" stroke-dasharray="5,2" points="847,-1940 847,-2012 933,-2012 933,-1940 847,-1940"/>
<text text-anchor="middle" x="885.8395" y="-1999" font-family="Helvetica,sans-Serif" font-size="10.00" fill="#000000">Contaminants</text>
</g>
<g id="clust4" class="cluster">
<title>cluster_additional_organism</title>
<polygon fill="none" stroke="#000000" stroke-dasharray="5,2" points="1137,-1912 1137,-2040 1327,-2040 1327,-1912 1137,-1912"/>
<text text-anchor="middle" x="1218.3455" y="-2027" font-family="Helvetica,sans-Serif" font-size="10.00" fill="#000000">Additional organism&#45;specific data</text>
</g>
<g id="clust5" class="cluster">
<title>cluster_ribosome</title>
<polygon fill="none" stroke="#000000" stroke-dasharray="5,2" points="545,-1940 545,-2012 839,-2012 839,-1940 545,-1940"/>
<text text-anchor="middle" x="605.509" y="-1999" font-family="Helvetica,sans-Serif" font-size="10.00" fill="#000000">Ribosome profiling data</text>
</g>
<g id="clust6" class="cluster">
<title>cluster_indexing</title>
<polygon fill="none" stroke="#000000" points="788,-1752 788,-1896 1042,-1896 1042,-1752 788,-1752"/>
<text text-anchor="middle" x="814.8965" y="-1883" font-family="Helvetica,sans-Serif" font-size="10.00" fill="#000000">Indexing</text>
</g>
<g id="clust7" class="cluster">
<title>cluster_per_sample_processing</title>
<polygon fill="none" stroke="#000000" points="8,-160 8,-1896 780,-1896 780,-160 8,-160"/>
<text text-anchor="middle" x="62.958" y="-1883" font-family="Helvetica,sans-Serif" font-size="10.00" fill="#000000">Process SAMPLE&lt;I&gt;</text>
</g>
<g id="clust8" class="cluster">
<title>cluster_tpms_collation</title>
<polygon fill="none" stroke="#000000" points="628,-8 628,-152 772,-152 772,-8 628,-8"/>
<text text-anchor="middle" x="668.779" y="-139" font-family="Helvetica,sans-Serif" font-size="10.00" fill="#000000">TPMs collation</text>
</g>
<!-- input/CDS.fa -->
<g id="node1" class="node">
<title>input/CDS.fa</title>
<text text-anchor="middle" x="985" y="-1963" font-family="Helvetica,sans-Serif" font-size="10.00" fill="#000000">input/CDS.fa</text>
</g>
<!-- h2build2 -->
<g id="node9" class="node">
<title>h2build2</title>
<polygon fill="none" stroke="#000000" points="1016.6191,-1868 949.3809,-1868 949.3809,-1832 1016.6191,-1832 1016.6191,-1868"/>
<text text-anchor="middle" x="983" y="-1847" font-family="Helvetica,sans-Serif" font-size="10.00" fill="#000000">hisat2&#45;build</text>
</g>
<!-- input/CDS.fa&#45;&gt;h2build2 -->
<g id="edge3" class="edge">
<title>input/CDS.fa&#45;&gt;h2build2</title>
<path fill="none" stroke="#000000" d="M984.6875,-1947.875C984.368,-1929.3412 983.8669,-1900.2787 983.4936,-1878.6311"/>
<polygon fill="#000000" stroke="#000000" points="986.9889,-1878.3187 983.3169,-1868.3805 979.9899,-1878.4394 986.9889,-1878.3187"/>
</g>
<!-- statsfigs -->
<g id="node26" class="node">
<title>statsfigs</title>
<polygon fill="none" stroke="#000000" points="763.7523,-428 650.2477,-428 650.2477,-392 763.7523,-392 763.7523,-428"/>
<text text-anchor="middle" x="707" y="-407" font-family="Helvetica,sans-Serif" font-size="10.00" fill="#000000">generate_stats_figs.R</text>
</g>
<!-- input/CDS.fa&#45;&gt;statsfigs -->
<g id="edge39" class="edge">
<title>input/CDS.fa&#45;&gt;statsfigs</title>
<path fill="none" stroke="#000000" d="M994.9152,-1947.8948C1002.98,-1934.4555 1015.3923,-1916.3866 1030,-1904 1036.0639,-1898.8581 1041.3743,-1902.4663 1046,-1896 1076.7922,-1852.9555 1062,-1830.9244 1062,-1778 1062,-1778 1062,-1778 1062,-554 1062,-492.45 876.4339,-444.6288 773.6283,-422.8582"/>
<polygon fill="#000000" stroke="#000000" points="774.148,-419.3912 763.6433,-420.7704 772.7153,-426.243 774.148,-419.3912"/>
</g>
<!-- input/CDS.gff3 -->
<g id="node2" class="node">
<title>input/CDS.gff3</title>
<text text-anchor="middle" x="1080" y="-1963" font-family="Helvetica,sans-Serif" font-size="10.00" fill="#000000">input/CDS.gff3</text>
</g>
<!-- bam2h5 -->
<g id="node25" class="node">
<title>bam2h5</title>
<polygon fill="none" stroke="#000000" points="745.019,-572 668.981,-572 668.981,-536 745.019,-536 745.019,-572"/>
<text text-anchor="middle" x="707" y="-551" font-family="Helvetica,sans-Serif" font-size="10.00" fill="#000000">bam_to_h5.R</text>
</g>
<!-- input/CDS.gff3&#45;&gt;bam2h5 -->
<g id="edge36" class="edge">
<title>input/CDS.gff3&#45;&gt;bam2h5</title>
<path fill="none" stroke="#000000" d="M1083.2133,-1947.9195C1088.8669,-1914.4871 1100,-1840.692 1100,-1778 1100,-1778 1100,-1778 1100,-914 1100,-728.4893 858.9527,-612.744 754.4191,-571.2713"/>
<polygon fill="#000000" stroke="#000000" points="755.6276,-567.9859 745.0396,-567.6045 753.0788,-574.5054 755.6276,-567.9859"/>
</g>
<!-- input/CDS.gff3&#45;&gt;statsfigs -->
<g id="edge40" class="edge">
<title>input/CDS.gff3&#45;&gt;statsfigs</title>
<path fill="none" stroke="#000000" d="M1089.5775,-1947.8964C1106.0511,-1915.0214 1138,-1842.898 1138,-1778 1138,-1778 1138,-1778 1138,-554 1138,-478.2044 895.1844,-435.0645 774.0605,-418.2601"/>
<polygon fill="#000000" stroke="#000000" points="774.1705,-414.7427 763.7889,-416.8577 773.2235,-421.6784 774.1705,-414.7427"/>
</g>
<!-- input/rRNA.fa -->
<g id="node3" class="node">
<title>input/rRNA.fa</title>
<text text-anchor="middle" x="890" y="-1963.3" font-family="Helvetica,sans-Serif" font-size="9.00" fill="#000000">input/rRNA.fa</text>
</g>
<!-- h2build1 -->
<g id="node8" class="node">
<title>h2build1</title>
<polygon fill="none" stroke="#000000" points="904.6191,-1868 837.3809,-1868 837.3809,-1832 904.6191,-1832 904.6191,-1868"/>
<text text-anchor="middle" x="871" y="-1847" font-family="Helvetica,sans-Serif" font-size="10.00" fill="#000000">hisat2&#45;build</text>
</g>
<!-- input/rRNA.fa&#45;&gt;h2build1 -->
<g id="edge1" class="edge">
<title>input/rRNA.fa&#45;&gt;h2build1</title>
<path fill="none" stroke="#000000" d="M887.0313,-1947.875C883.9817,-1929.2566 879.1918,-1900.0131 875.6411,-1878.335"/>
<polygon fill="#000000" stroke="#000000" points="879.0811,-1877.6833 874.0106,-1868.3805 872.1731,-1878.8148 879.0811,-1877.6833"/>
</g>
<!-- data -->
<g id="node4" class="node">
<title>data</title>
<polygon fill="none" stroke="#000000" stroke-dasharray="5,2" points="1318.8391,-2012 1145.1609,-2012 1145.1609,-1920 1318.8391,-1920 1318.8391,-2012"/>
<text text-anchor="middle" x="1232" y="-1999" font-family="Helvetica,sans-Serif" font-size="10.00" fill="#000000">data/codon_pos_i200.RData</text>
<text text-anchor="middle" x="1232" y="-1975" font-family="Helvetica,sans-Serif" font-size="10.00" fill="#000000">data/features.tsv</text>
<text text-anchor="middle" x="1232" y="-1951" font-family="Helvetica,sans-Serif" font-size="10.00" fill="#000000">data/tRNAs.tsv</text>
<text text-anchor="middle" x="1232" y="-1927" font-family="Helvetica,sans-Serif" font-size="10.00" fill="#000000">data/standard_asite_disp_length.txt</text>
</g>
<!-- data&#45;&gt;statsfigs -->
<g id="edge41" class="edge">
<title>data&#45;&gt;statsfigs</title>
<path fill="none" stroke="#000000" d="M1221.2545,-1919.9285C1213.3584,-1882.0423 1204,-1826.8384 1204,-1778 1204,-1778 1204,-1778 1204,-554 1204,-465.5719 910.0724,-427.989 774.2941,-415.3453"/>
<polygon fill="#000000" stroke="#000000" points="774.2888,-411.8303 764.0122,-414.4074 773.6529,-418.8014 774.2888,-411.8303"/>
</g>
<!-- ribosome_data0toI -->
<g id="node5" class="node">
<title>ribosome_data0toI</title>
<text text-anchor="middle" x="804" y="-1963" font-family="Helvetica,sans-Serif" font-size="10.00" fill="#000000">...</text>
</g>
<!-- input/SAMPLE&lt;I&gt;.fastq.gz -->
<g id="node6" class="node">
<title>input/SAMPLE&lt;I&gt;.fastq.gz</title>
<text text-anchor="middle" x="692" y="-1963" font-family="Helvetica,sans-Serif" font-size="10.00" fill="#000000">input/SAMPLE&lt;I&gt;.fastq.gz</text>
</g>
<!-- cut -->
<g id="node12" class="node">
<title>cut</title>
<polygon fill="none" stroke="#000000" points="719.3542,-1868 664.6458,-1868 664.6458,-1832 719.3542,-1832 719.3542,-1868"/>
<text text-anchor="middle" x="692" y="-1847" font-family="Helvetica,sans-Serif" font-size="10.00" fill="#000000">cutadapt</text>
</g>
<!-- input/SAMPLE&lt;I&gt;.fastq.gz&#45;&gt;cut -->
<g id="edge5" class="edge">
<title>input/SAMPLE&lt;I&gt;.fastq.gz&#45;&gt;cut</title>
<path fill="none" stroke="#000000" d="M692,-1947.875C692,-1929.3412 692,-1900.2787 692,-1878.6311"/>
<polygon fill="#000000" stroke="#000000" points="695.5001,-1878.3805 692,-1868.3805 688.5001,-1878.3806 695.5001,-1878.3805"/>
</g>
<!-- ribosome_dataItoN -->
<g id="node7" class="node">
<title>ribosome_dataItoN</title>
<text text-anchor="middle" x="580" y="-1963" font-family="Helvetica,sans-Serif" font-size="10.00" fill="#000000">...</text>
</g>
<!-- index/rRNA.1|...|8.ht2 -->
<g id="node10" class="node">
<title>index/rRNA.1|...|8.ht2</title>
<text text-anchor="middle" x="852" y="-1775" font-family="Helvetica,sans-Serif" font-size="10.00" fill="#000000">index/rRNA.1|...|8.ht2</text>
</g>
<!-- h2build1&#45;&gt;index/rRNA.1|...|8.ht2 -->
<g id="edge2" class="edge">
<title>h2build1&#45;&gt;index/rRNA.1|...|8.ht2</title>
<path fill="none" stroke="#000000" d="M866.2055,-1831.8314C864.1511,-1824.0463 861.704,-1814.7729 859.4244,-1806.1347"/>
<polygon fill="#000000" stroke="#000000" points="862.7948,-1805.1892 856.8591,-1796.4133 856.0265,-1806.9753 862.7948,-1805.1892"/>
</g>
<!-- index/CDS.1|...|8.ht2 -->
<g id="node11" class="node">
<title>index/CDS.1|...|8.ht2</title>
<text text-anchor="middle" x="980" y="-1775" font-family="Helvetica,sans-Serif" font-size="10.00" fill="#000000">index/CDS.1|...|8.ht2</text>
</g>
<!-- h2build2&#45;&gt;index/CDS.1|...|8.ht2 -->
<g id="edge4" class="edge">
<title>h2build2&#45;&gt;index/CDS.1|...|8.ht2</title>
<path fill="none" stroke="#000000" d="M982.243,-1831.8314C981.9221,-1824.131 981.5406,-1814.9743 981.184,-1806.4166"/>
<polygon fill="#000000" stroke="#000000" points="984.6806,-1806.2589 980.7672,-1796.4133 977.6867,-1806.5503 984.6806,-1806.2589"/>
</g>
<!-- h21 -->
<g id="node14" class="node">
<title>h21</title>
<polygon fill="none" stroke="#000000" points="720,-1580 666,-1580 666,-1544 720,-1544 720,-1580"/>
<text text-anchor="middle" x="693" y="-1559" font-family="Helvetica,sans-Serif" font-size="10.00" fill="#000000">hisat2</text>
</g>
<!-- index/rRNA.1|...|8.ht2&#45;&gt;h21 -->
<g id="edge10" class="edge">
<title>index/rRNA.1|...|8.ht2&#45;&gt;h21</title>
<path fill="none" stroke="#000000" d="M847.8547,-1759.7663C839.7644,-1727.561 819.2271,-1659.8733 781,-1616 766.9911,-1599.9219 746.9976,-1587.1253 729.6074,-1578.0326"/>
<polygon fill="#000000" stroke="#000000" points="730.7782,-1574.705 720.2685,-1573.3648 727.6486,-1580.9664 730.7782,-1574.705"/>
</g>
<!-- h22 -->
<g id="node15" class="node">
<title>h22</title>
<polygon fill="none" stroke="#000000" points="721,-1436 667,-1436 667,-1400 721,-1400 721,-1436"/>
<text text-anchor="middle" x="694" y="-1415" font-family="Helvetica,sans-Serif" font-size="10.00" fill="#000000">hisat2</text>
</g>
<!-- index/CDS.1|...|8.ht2&#45;&gt;h22 -->
<g id="edge13" class="edge">
<title>index/CDS.1|...|8.ht2&#45;&gt;h22</title>
<path fill="none" stroke="#000000" d="M967.4149,-1759.8478C950.3566,-1733.4241 922,-1682.2435 922,-1634 922,-1634 922,-1634 922,-1562 922,-1472.8601 795.8781,-1436.6601 731.241,-1423.961"/>
<polygon fill="#000000" stroke="#000000" points="731.5232,-1420.4531 721.0499,-1422.0535 730.2353,-1427.3336 731.5232,-1420.4531"/>
</g>
<!-- tmp/SAMPLE&lt;I&gt;_trim.fq -->
<g id="node27" class="node">
<title>tmp/SAMPLE&lt;I&gt;_trim.fq</title>
<text text-anchor="middle" x="692" y="-1775" font-family="Helvetica,sans-Serif" font-size="10.00" fill="#000000">tmp/SAMPLE&lt;I&gt;_trim.fq</text>
</g>
<!-- cut&#45;&gt;tmp/SAMPLE&lt;I&gt;_trim.fq -->
<g id="edge6" class="edge">
<title>cut&#45;&gt;tmp/SAMPLE&lt;I&gt;_trim.fq</title>
<path fill="none" stroke="#000000" d="M692,-1831.8314C692,-1824.131 692,-1814.9743 692,-1806.4166"/>
<polygon fill="#000000" stroke="#000000" points="695.5001,-1806.4132 692,-1796.4133 688.5001,-1806.4133 695.5001,-1806.4132"/>
</g>
<!-- umi_extract -->
<g id="node13" class="node">
<title>umi_extract</title>
<polygon fill="none" stroke="#000000" points="737.567,-1724 646.433,-1724 646.433,-1688 737.567,-1688 737.567,-1724"/>
<text text-anchor="middle" x="692" y="-1703" font-family="Helvetica,sans-Serif" font-size="10.00" fill="#000000">umi_tools extract</text>
</g>
<!-- tmp/SAMPLE&lt;I&gt;_extract_trim.fq -->
<g id="node28" class="node">
<title>tmp/SAMPLE&lt;I&gt;_extract_trim.fq</title>
<text text-anchor="middle" x="692" y="-1631" font-family="Helvetica,sans-Serif" font-size="10.00" fill="#000000">tmp/SAMPLE&lt;I&gt;_extract_trim.fq</text>
</g>
<!-- umi_extract&#45;&gt;tmp/SAMPLE&lt;I&gt;_extract_trim.fq -->
<g id="edge8" class="edge">
<title>umi_extract&#45;&gt;tmp/SAMPLE&lt;I&gt;_extract_trim.fq</title>
<path fill="none" stroke="#000000" d="M692,-1687.8314C692,-1680.131 692,-1670.9743 692,-1662.4166"/>
<polygon fill="#000000" stroke="#000000" points="695.5001,-1662.4132 692,-1652.4133 688.5001,-1662.4133 695.5001,-1662.4132"/>
</g>
<!-- tmp/SAMPLE&lt;I&gt;_rRNA_map.sam -->
<g id="node29" class="node">
<title>tmp/SAMPLE&lt;I&gt;_rRNA_map.sam</title>
<text text-anchor="middle" x="518" y="-1487" font-family="Helvetica,sans-Serif" font-size="10.00" fill="#000000">tmp/SAMPLE&lt;I&gt;_rRNA_map.sam</text>
</g>
<!-- h21&#45;&gt;tmp/SAMPLE&lt;I&gt;_rRNA_map.sam -->
<g id="edge11" class="edge">
<title>h21&#45;&gt;tmp/SAMPLE&lt;I&gt;_rRNA_map.sam</title>
<path fill="none" stroke="#000000" d="M665.6563,-1550.75C640.4791,-1540.3914 602.423,-1524.734 571.252,-1511.9094"/>
<polygon fill="#000000" stroke="#000000" points="572.4008,-1508.5974 561.8212,-1508.0293 569.7374,-1515.071 572.4008,-1508.5974"/>
</g>
<!-- tmp/SAMPLE&lt;I&gt;_nonrRNA.fq -->
<g id="node30" class="node">
<title>tmp/SAMPLE&lt;I&gt;_nonrRNA.fq</title>
<text text-anchor="middle" x="694" y="-1487" font-family="Helvetica,sans-Serif" font-size="10.00" fill="#000000">tmp/SAMPLE&lt;I&gt;_nonrRNA.fq</text>
</g>
<!-- h21&#45;&gt;tmp/SAMPLE&lt;I&gt;_nonrRNA.fq -->
<g id="edge12" class="edge">
<title>h21&#45;&gt;tmp/SAMPLE&lt;I&gt;_nonrRNA.fq</title>
<path fill="none" stroke="#000000" d="M693.2523,-1543.8314C693.3593,-1536.131 693.4865,-1526.9743 693.6053,-1518.4166"/>
<polygon fill="#000000" stroke="#000000" points="697.1049,-1518.4609 693.7443,-1508.4133 690.1056,-1518.3637 697.1049,-1518.4609"/>
</g>
<!-- tmp/SAMPLE&lt;I&gt;_unaligned.fq -->
<g id="node31" class="node">
<title>tmp/SAMPLE&lt;I&gt;_unaligned.fq</title>
<text text-anchor="middle" x="524" y="-1343" font-family="Helvetica,sans-Serif" font-size="10.00" fill="#000000">tmp/SAMPLE&lt;I&gt;_unaligned.fq</text>
</g>
<!-- h22&#45;&gt;tmp/SAMPLE&lt;I&gt;_unaligned.fq -->
<g id="edge15" class="edge">
<title>h22&#45;&gt;tmp/SAMPLE&lt;I&gt;_unaligned.fq</title>
<path fill="none" stroke="#000000" d="M666.6866,-1406.432C642.2953,-1396.1016 605.9048,-1380.6891 575.9797,-1368.0149"/>
<polygon fill="#000000" stroke="#000000" points="577.0876,-1364.6832 566.5144,-1364.0061 574.3576,-1371.129 577.0876,-1364.6832"/>
</g>
<!-- tmp/SAMPLE&lt;I&gt;_orf_map.sam -->
<g id="node32" class="node">
<title>tmp/SAMPLE&lt;I&gt;_orf_map.sam</title>
<text text-anchor="middle" x="694" y="-1343" font-family="Helvetica,sans-Serif" font-size="10.00" fill="#000000">tmp/SAMPLE&lt;I&gt;_orf_map.sam</text>
</g>
<!-- h22&#45;&gt;tmp/SAMPLE&lt;I&gt;_orf_map.sam -->
<g id="edge16" class="edge">
<title>h22&#45;&gt;tmp/SAMPLE&lt;I&gt;_orf_map.sam</title>
<path fill="none" stroke="#000000" d="M694,-1399.8314C694,-1392.131 694,-1382.9743 694,-1374.4166"/>
<polygon fill="#000000" stroke="#000000" points="697.5001,-1374.4132 694,-1364.4133 690.5001,-1374.4133 697.5001,-1374.4132"/>
</g>
<!-- samindex -->
<g id="node16" class="node">
<title>samindex</title>
<polygon fill="none" stroke="#000000" points="543.1796,-1004 460.8204,-1004 460.8204,-968 543.1796,-968 543.1796,-1004"/>
<text text-anchor="middle" x="502" y="-983" font-family="Helvetica,sans-Serif" font-size="10.00" fill="#000000">samtools index</text>
</g>
<!-- output/SAMPLE&lt;I&gt;.bam+.bai -->
<g id="node37" class="node">
<title>output/SAMPLE&lt;I&gt;.bam+.bai</title>
<text text-anchor="middle" x="490" y="-911" font-family="Helvetica,sans-Serif" font-size="10.00" fill="#000000">output/SAMPLE&lt;I&gt;.bam+.bai</text>
</g>
<!-- samindex&#45;&gt;output/SAMPLE&lt;I&gt;.bam+.bai -->
<g id="edge22" class="edge">
<title>samindex&#45;&gt;output/SAMPLE&lt;I&gt;.bam+.bai</title>
<path fill="none" stroke="#000000" d="M498.9719,-967.8314C497.6885,-960.131 496.1624,-950.9743 494.7361,-942.4166"/>
<polygon fill="#000000" stroke="#000000" points="498.1653,-941.7018 493.0689,-932.4133 491.2606,-942.8526 498.1653,-941.7018"/>
</g>
<!-- samview -->
<g id="node17" class="node">
<title>samview</title>
<polygon fill="none" stroke="#000000" points="646.3875,-1148 499.6125,-1148 499.6125,-1112 646.3875,-1112 646.3875,-1148"/>
<text text-anchor="middle" x="573" y="-1127" font-family="Helvetica,sans-Serif" font-size="10.00" fill="#000000">samtools view | samtools sort</text>
</g>
<!-- output/SAMPLE&lt;I&gt;.bam -->
<g id="node36" class="node">
<title>output/SAMPLE&lt;I&gt;.bam</title>
<text text-anchor="middle" x="526" y="-1055" font-family="Helvetica,sans-Serif" font-size="10.00" fill="#000000">output/SAMPLE&lt;I&gt;.bam</text>
</g>
<!-- samview&#45;&gt;output/SAMPLE&lt;I&gt;.bam -->
<g id="edge20" class="edge">
<title>samview&#45;&gt;output/SAMPLE&lt;I&gt;.bam</title>
<path fill="none" stroke="#000000" d="M561.1399,-1111.8314C555.8371,-1103.7079 549.4763,-1093.9637 543.6327,-1085.0118"/>
<polygon fill="#000000" stroke="#000000" points="546.4169,-1082.8739 538.0198,-1076.4133 540.5552,-1086.7003 546.4169,-1082.8739"/>
</g>
<!-- umi_pre_group -->
<g id="node18" class="node">
<title>umi_pre_group</title>
<polygon fill="none" stroke="#000000" points="215.6261,-860 128.3739,-860 128.3739,-824 215.6261,-824 215.6261,-860"/>
<text text-anchor="middle" x="172" y="-839" font-family="Helvetica,sans-Serif" font-size="10.00" fill="#000000">umi_tools group</text>
</g>
<!-- tmp/SAMPLE&lt;I&gt;_pre_dedup_groups.tsv -->
<g id="node34" class="node">
<title>tmp/SAMPLE&lt;I&gt;_pre_dedup_groups.tsv</title>
<text text-anchor="middle" x="114" y="-767" font-family="Helvetica,sans-Serif" font-size="10.00" fill="#000000">tmp/SAMPLE&lt;I&gt;_pre_dedup_groups.tsv</text>
</g>
<!-- umi_pre_group&#45;&gt;tmp/SAMPLE&lt;I&gt;_pre_dedup_groups.tsv -->
<g id="edge28" class="edge">
<title>umi_pre_group&#45;&gt;tmp/SAMPLE&lt;I&gt;_pre_dedup_groups.tsv</title>
<path fill="none" stroke="#000000" d="M157.3642,-823.8314C150.6839,-815.5386 142.6432,-805.557 135.3096,-796.4533"/>
<polygon fill="#000000" stroke="#000000" points="137.8319,-794.0052 128.8329,-788.4133 132.3806,-798.3965 137.8319,-794.0052"/>
</g>
<!-- umi_dedup -->
<g id="node19" class="node">
<title>umi_dedup</title>
<polygon fill="none" stroke="#000000" points="381.8567,-860 292.1433,-860 292.1433,-824 381.8567,-824 381.8567,-860"/>
<text text-anchor="middle" x="337" y="-839" font-family="Helvetica,sans-Serif" font-size="10.00" fill="#000000">umi_tools dedup</text>
</g>
<!-- output/SAMPLE&lt;I&gt;_dedup.bam -->
<g id="node40" class="node">
<title>output/SAMPLE&lt;I&gt;_dedup.bam</title>
<text text-anchor="middle" x="308" y="-767" font-family="Helvetica,sans-Serif" font-size="10.00" fill="#000000">output/SAMPLE&lt;I&gt;_dedup.bam</text>
</g>
<!-- umi_dedup&#45;&gt;output/SAMPLE&lt;I&gt;_dedup.bam -->
<g id="edge30" class="edge">
<title>umi_dedup&#45;&gt;output/SAMPLE&lt;I&gt;_dedup.bam</title>
<path fill="none" stroke="#000000" d="M329.6821,-823.8314C326.5124,-815.9617 322.73,-806.5712 319.2187,-797.8533"/>
<polygon fill="#000000" stroke="#000000" points="322.3992,-796.3815 315.4165,-788.4133 315.9061,-798.9968 322.3992,-796.3815"/>
</g>
<!-- umi_post_group -->
<g id="node20" class="node">
<title>umi_post_group</title>
<polygon fill="none" stroke="#000000" points="351.6261,-716 264.3739,-716 264.3739,-680 351.6261,-680 351.6261,-716"/>
<text text-anchor="middle" x="308" y="-695" font-family="Helvetica,sans-Serif" font-size="10.00" fill="#000000">umi_tools group</text>
</g>
<!-- tmp/SAMPLE&lt;I&gt;_post_dedup_groups.tsv -->
<g id="node35" class="node">
<title>tmp/SAMPLE&lt;I&gt;_post_dedup_groups.tsv</title>
<text text-anchor="middle" x="308" y="-623" font-family="Helvetica,sans-Serif" font-size="10.00" fill="#000000">tmp/SAMPLE&lt;I&gt;_post_dedup_groups.tsv</text>
</g>
<!-- umi_post_group&#45;&gt;tmp/SAMPLE&lt;I&gt;_post_dedup_groups.tsv -->
<g id="edge32" class="edge">
<title>umi_post_group&#45;&gt;tmp/SAMPLE&lt;I&gt;_post_dedup_groups.tsv</title>
<path fill="none" stroke="#000000" d="M308,-679.8314C308,-672.131 308,-662.9743 308,-654.4166"/>
<polygon fill="#000000" stroke="#000000" points="311.5001,-654.4132 308,-644.4133 304.5001,-654.4133 311.5001,-654.4132"/>
</g>
<!-- samindex_dedup -->
<g id="node21" class="node">
<title>samindex_dedup</title>
<polygon fill="none" stroke="#000000" points="587.1796,-716 504.8204,-716 504.8204,-680 587.1796,-680 587.1796,-716"/>
<text text-anchor="middle" x="546" y="-695" font-family="Helvetica,sans-Serif" font-size="10.00" fill="#000000">samtools index</text>
</g>
<!-- output/SAMPLE&lt;I&gt;_dedup.bam+.bai -->
<g id="node41" class="node">
<title>output/SAMPLE&lt;I&gt;_dedup.bam+.bai</title>
<text text-anchor="middle" x="614" y="-623" font-family="Helvetica,sans-Serif" font-size="10.00" fill="#000000">output/SAMPLE&lt;I&gt;_dedup.bam+.bai</text>
</g>
<!-- samindex_dedup&#45;&gt;output/SAMPLE&lt;I&gt;_dedup.bam+.bai -->
<g id="edge34" class="edge">
<title>samindex_dedup&#45;&gt;output/SAMPLE&lt;I&gt;_dedup.bam+.bai</title>
<path fill="none" stroke="#000000" d="M563.1593,-679.8314C571.1511,-671.3694 580.8038,-661.1489 589.5416,-651.8971"/>
<polygon fill="#000000" stroke="#000000" points="592.288,-654.0866 596.6097,-644.4133 587.1989,-649.2802 592.288,-654.0866"/>
</g>
<!-- trim -->
<g id="node22" class="node">
<title>trim</title>
<polygon fill="none" stroke="#000000" points="695.504,-1292 584.496,-1292 584.496,-1256 695.504,-1256 695.504,-1292"/>
<text text-anchor="middle" x="640" y="-1271" font-family="Helvetica,sans-Serif" font-size="10.00" fill="#000000">trim_5p_mismatch.py</text>
</g>
<!-- tmp/SAMPLE&lt;I&gt;_orf_map_clean.sam -->
<g id="node33" class="node">
<title>tmp/SAMPLE&lt;I&gt;_orf_map_clean.sam</title>
<text text-anchor="middle" x="585" y="-1199" font-family="Helvetica,sans-Serif" font-size="10.00" fill="#000000">tmp/SAMPLE&lt;I&gt;_orf_map_clean.sam</text>
</g>
<!-- trim&#45;&gt;tmp/SAMPLE&lt;I&gt;_orf_map_clean.sam -->
<g id="edge18" class="edge">
<title>trim&#45;&gt;tmp/SAMPLE&lt;I&gt;_orf_map_clean.sam</title>
<path fill="none" stroke="#000000" d="M626.1212,-1255.8314C619.7864,-1247.5386 612.1616,-1237.557 605.2074,-1228.4533"/>
<polygon fill="#000000" stroke="#000000" points="607.9175,-1226.2353 599.0657,-1220.4133 602.3548,-1230.4847 607.9175,-1226.2353"/>
</g>
<!-- bedplus -->
<g id="node23" class="node">
<title>bedplus</title>
<polygon fill="none" stroke="#000000" points="551.5319,-860 428.4681,-860 428.4681,-824 551.5319,-824 551.5319,-860"/>
<text text-anchor="middle" x="490" y="-839" font-family="Helvetica,sans-Serif" font-size="10.00" fill="#000000">bedtools genomecov (+)</text>
</g>
<!-- output/SAMPLE&lt;I&gt;_plus.bedgraph -->
<g id="node38" class="node">
<title>output/SAMPLE&lt;I&gt;_plus.bedgraph</title>
<text text-anchor="middle" x="490" y="-767" font-family="Helvetica,sans-Serif" font-size="10.00" fill="#000000">output/SAMPLE&lt;I&gt;_plus.bedgraph</text>
</g>
<!-- bedplus&#45;&gt;output/SAMPLE&lt;I&gt;_plus.bedgraph -->
<g id="edge24" class="edge">
<title>bedplus&#45;&gt;output/SAMPLE&lt;I&gt;_plus.bedgraph</title>
<path fill="none" stroke="#000000" d="M490,-823.8314C490,-816.131 490,-806.9743 490,-798.4166"/>
<polygon fill="#000000" stroke="#000000" points="493.5001,-798.4132 490,-788.4133 486.5001,-798.4133 493.5001,-798.4132"/>
</g>
<!-- bedminus -->
<g id="node24" class="node">
<title>bedminus</title>
<polygon fill="none" stroke="#000000" points="716.521,-860 595.479,-860 595.479,-824 716.521,-824 716.521,-860"/>
<text text-anchor="middle" x="656" y="-839" font-family="Helvetica,sans-Serif" font-size="10.00" fill="#000000">bedtools genomecov (&#45;)</text>
</g>
<!-- output/SAMPLE&lt;I&gt;_minus.bedgraph -->
<g id="node39" class="node">
<title>output/SAMPLE&lt;I&gt;_minus.bedgraph</title>
<text text-anchor="middle" x="683" y="-767" font-family="Helvetica,sans-Serif" font-size="10.00" fill="#000000">output/SAMPLE&lt;I&gt;_minus.bedgraph</text>
</g>
<!-- bedminus&#45;&gt;output/SAMPLE&lt;I&gt;_minus.bedgraph -->
<g id="edge26" class="edge">
<title>bedminus&#45;&gt;output/SAMPLE&lt;I&gt;_minus.bedgraph</title>
<path fill="none" stroke="#000000" d="M662.8132,-823.8314C665.7644,-815.9617 669.2858,-806.5712 672.555,-797.8533"/>
<polygon fill="#000000" stroke="#000000" points="675.8609,-799.0055 676.095,-788.4133 669.3066,-796.5476 675.8609,-799.0055"/>
</g>
<!-- output/SAMPLE&lt;I&gt;.h5 -->
<g id="node42" class="node">
<title>output/SAMPLE&lt;I&gt;.h5</title>
<text text-anchor="middle" x="707" y="-479" font-family="Helvetica,sans-Serif" font-size="10.00" fill="#000000">output/SAMPLE&lt;I&gt;.h5</text>
</g>
<!-- bam2h5&#45;&gt;output/SAMPLE&lt;I&gt;.h5 -->
<g id="edge37" class="edge">
<title>bam2h5&#45;&gt;output/SAMPLE&lt;I&gt;.h5</title>
<path fill="none" stroke="#000000" d="M707,-535.8314C707,-528.131 707,-518.9743 707,-510.4166"/>
<polygon fill="#000000" stroke="#000000" points="710.5001,-510.4132 707,-500.4133 703.5001,-510.4133 710.5001,-510.4132"/>
</g>
<!-- pdfs -->
<g id="node43" class="node">
<title>pdfs</title>
<polygon fill="none" stroke="#000000" stroke-dasharray="5,2" points="360.1911,-356 127.8089,-356 127.8089,-168 360.1911,-168 360.1911,-356"/>
<text text-anchor="middle" x="244" y="-343" font-family="Helvetica,sans-Serif" font-size="10.00" fill="#000000">output/SAMPLE&lt;I&gt;_3nt_periodicity.pdf</text>
<text text-anchor="middle" x="244" y="-319" font-family="Helvetica,sans-Serif" font-size="10.00" fill="#000000">output/SAMPLE&lt;I&gt;_codon_ribodens.pdf</text>
<text text-anchor="middle" x="244" y="-295" font-family="Helvetica,sans-Serif" font-size="10.00" fill="#000000">output/SAMPLE&lt;I&gt;_read_lengths.pdf</text>
<text text-anchor="middle" x="244" y="-271" font-family="Helvetica,sans-Serif" font-size="10.00" fill="#000000">output/SAMPLE&lt;I&gt;_pos_sp_rpf_norm_reads.pdf</text>
<text text-anchor="middle" x="244" y="-247" font-family="Helvetica,sans-Serif" font-size="10.00" fill="#000000">output/SAMPLE&lt;I&gt;_features.pdf</text>
<text text-anchor="middle" x="244" y="-223" font-family="Helvetica,sans-Serif" font-size="10.00" fill="#000000">output/SAMPLE&lt;I&gt;_startcodon_ribogridbar.pdf</text>
<text text-anchor="middle" x="244" y="-199" font-family="Helvetica,sans-Serif" font-size="10.00" fill="#000000">output/SAMPLE&lt;I&gt;_startcodon_ribogrid.pdf</text>
<text text-anchor="middle" x="244" y="-175" font-family="Helvetica,sans-Serif" font-size="10.00" fill="#000000">output/SAMPLE&lt;I&gt;_3ntframe_propbygene.pdf</text>
</g>
<!-- statsfigs&#45;&gt;pdfs -->
<g id="edge42" class="edge">
<title>statsfigs&#45;&gt;pdfs</title>
<path fill="none" stroke="#000000" d="M650.0546,-404.261C571.5768,-395.8142 433.5118,-378.8865 369.943,-355.8561"/>
<polygon fill="#000000" stroke="#000000" points="370.9882,-352.5063 360.4008,-352.1078 368.4288,-359.0217 370.9882,-352.5063"/>
</g>
<!-- tsvs -->
<g id="node44" class="node">
<title>tsvs</title>
<polygon fill="none" stroke="#000000" stroke-dasharray="5,2" points="609.573,-332 378.427,-332 378.427,-192 609.573,-192 609.573,-332"/>
<text text-anchor="middle" x="494" y="-319" font-family="Helvetica,sans-Serif" font-size="10.00" fill="#000000">output/SAMPLE&lt;I&gt;_3nt_periodicity.tsv</text>
<text text-anchor="middle" x="494" y="-295" font-family="Helvetica,sans-Serif" font-size="10.00" fill="#000000">output/SAMPLE&lt;I&gt;_codon_ribodens.tsv</text>
<text text-anchor="middle" x="494" y="-271" font-family="Helvetica,sans-Serif" font-size="10.00" fill="#000000">output/SAMPLE&lt;I&gt;_read_lengths.tsv</text>
<text text-anchor="middle" x="494" y="-247" font-family="Helvetica,sans-Serif" font-size="10.00" fill="#000000">output/SAMPLE&lt;I&gt;_pos_sp_rpf_norm_reads.tsv</text>
<text text-anchor="middle" x="494" y="-223" font-family="Helvetica,sans-Serif" font-size="10.00" fill="#000000">output/SAMPLE&lt;I&gt;_pos_sp_nt_freq.tsv</text>
<text text-anchor="middle" x="494" y="-199" font-family="Helvetica,sans-Serif" font-size="10.00" fill="#000000">output/SAMPLE&lt;I&gt;_3ntframe_bygene.tsv</text>
</g>
<!-- statsfigs&#45;&gt;tsvs -->
<g id="edge43" class="edge">
<title>statsfigs&#45;&gt;tsvs</title>
<path fill="none" stroke="#000000" d="M676.0045,-391.9544C658.938,-381.7768 637.5231,-368.6067 619,-356 610.5797,-350.2692 601.9431,-344.1996 593.3345,-338.0135"/>
<polygon fill="#000000" stroke="#000000" points="595.251,-335.08 585.0974,-332.054 591.1478,-340.7514 595.251,-335.08"/>
</g>
<!-- output/SAMPLE&lt;I&gt;_tpms.tsv -->
<g id="node45" class="node">
<title>output/SAMPLE&lt;I&gt;_tpms.tsv</title>
<text text-anchor="middle" x="700" y="-259" font-family="Helvetica,sans-Serif" font-size="10.00" fill="#000000">output/SAMPLE&lt;I&gt;_tpms.tsv</text>
</g>
<!-- statsfigs&#45;&gt;output/SAMPLE&lt;I&gt;_tpms.tsv -->
<g id="edge44" class="edge">
<title>statsfigs&#45;&gt;output/SAMPLE&lt;I&gt;_tpms.tsv</title>
<path fill="none" stroke="#000000" d="M706.1417,-391.8523C704.9451,-366.5539 702.7638,-320.4342 701.3488,-290.5167"/>
<polygon fill="#000000" stroke="#000000" points="704.834,-290.1196 700.8654,-280.2961 697.8418,-290.4504 704.834,-290.1196"/>
</g>
<!-- tmp/SAMPLE&lt;I&gt;_trim.fq&#45;&gt;umi_extract -->
<g id="edge7" class="edge">
<title>tmp/SAMPLE&lt;I&gt;_trim.fq&#45;&gt;umi_extract</title>
<path fill="none" stroke="#000000" d="M692,-1759.8314C692,-1752.131 692,-1742.9743 692,-1734.4166"/>
<polygon fill="#000000" stroke="#000000" points="695.5001,-1734.4132 692,-1724.4133 688.5001,-1734.4133 695.5001,-1734.4132"/>
</g>
<!-- tmp/SAMPLE&lt;I&gt;_extract_trim.fq&#45;&gt;h21 -->
<g id="edge9" class="edge">
<title>tmp/SAMPLE&lt;I&gt;_extract_trim.fq&#45;&gt;h21</title>
<path fill="none" stroke="#000000" d="M692.2523,-1615.8314C692.3593,-1608.131 692.4865,-1598.9743 692.6053,-1590.4166"/>
<polygon fill="#000000" stroke="#000000" points="696.1049,-1590.4609 692.7443,-1580.4133 689.1056,-1590.3637 696.1049,-1590.4609"/>
</g>
<!-- tmp/SAMPLE&lt;I&gt;_nonrRNA.fq&#45;&gt;h22 -->
<g id="edge14" class="edge">
<title>tmp/SAMPLE&lt;I&gt;_nonrRNA.fq&#45;&gt;h22</title>
<path fill="none" stroke="#000000" d="M694,-1471.8314C694,-1464.131 694,-1454.9743 694,-1446.4166"/>
<polygon fill="#000000" stroke="#000000" points="697.5001,-1446.4132 694,-1436.4133 690.5001,-1446.4133 697.5001,-1446.4132"/>
</g>
<!-- tmp/SAMPLE&lt;I&gt;_orf_map.sam&#45;&gt;trim -->
<g id="edge17" class="edge">
<title>tmp/SAMPLE&lt;I&gt;_orf_map.sam&#45;&gt;trim</title>
<path fill="none" stroke="#000000" d="M680.3735,-1327.8314C674.154,-1319.5386 666.6678,-1309.557 659.84,-1300.4533"/>
<polygon fill="#000000" stroke="#000000" points="662.61,-1298.3133 653.81,-1292.4133 657.01,-1302.5133 662.61,-1298.3133"/>
</g>
<!-- tmp/SAMPLE&lt;I&gt;_orf_map_clean.sam&#45;&gt;samview -->
<g id="edge19" class="edge">
<title>tmp/SAMPLE&lt;I&gt;_orf_map_clean.sam&#45;&gt;samview</title>
<path fill="none" stroke="#000000" d="M581.9719,-1183.8314C580.6885,-1176.131 579.1624,-1166.9743 577.7361,-1158.4166"/>
<polygon fill="#000000" stroke="#000000" points="581.1653,-1157.7018 576.0689,-1148.4133 574.2606,-1158.8526 581.1653,-1157.7018"/>
</g>
<!-- output/SAMPLE&lt;I&gt;.bam&#45;&gt;samindex -->
<g id="edge21" class="edge">
<title>output/SAMPLE&lt;I&gt;.bam&#45;&gt;samindex</title>
<path fill="none" stroke="#000000" d="M519.9438,-1039.8314C517.3488,-1032.0463 514.2576,-1022.7729 511.3782,-1014.1347"/>
<polygon fill="#000000" stroke="#000000" points="514.6205,-1012.7933 508.1378,-1004.4133 507.9797,-1015.0069 514.6205,-1012.7933"/>
</g>
<!-- output/SAMPLE&lt;I&gt;.bam+.bai&#45;&gt;umi_pre_group -->
<g id="edge27" class="edge">
<title>output/SAMPLE&lt;I&gt;.bam+.bai&#45;&gt;umi_pre_group</title>
<path fill="none" stroke="#000000" d="M417.0444,-897.4817C358.6463,-884.2595 278.0878,-866.0199 225.5321,-854.1205"/>
<polygon fill="#000000" stroke="#000000" points="226.2591,-850.6965 215.733,-851.9018 224.7132,-857.5237 226.2591,-850.6965"/>
</g>
<!-- output/SAMPLE&lt;I&gt;.bam+.bai&#45;&gt;umi_dedup -->
<g id="edge29" class="edge">
<title>output/SAMPLE&lt;I&gt;.bam+.bai&#45;&gt;umi_dedup</title>
<path fill="none" stroke="#000000" d="M451.3916,-895.8314C431.1107,-886.2874 406.0762,-874.5065 384.6029,-864.4013"/>
<polygon fill="#000000" stroke="#000000" points="385.8692,-861.1291 375.3307,-860.038 382.8886,-867.4629 385.8692,-861.1291"/>
</g>
<!-- output/SAMPLE&lt;I&gt;.bam+.bai&#45;&gt;bedplus -->
<g id="edge23" class="edge">
<title>output/SAMPLE&lt;I&gt;.bam+.bai&#45;&gt;bedplus</title>
<path fill="none" stroke="#000000" d="M490,-895.8314C490,-888.131 490,-878.9743 490,-870.4166"/>
<polygon fill="#000000" stroke="#000000" points="493.5001,-870.4132 490,-860.4133 486.5001,-870.4133 493.5001,-870.4132"/>
</g>
<!-- output/SAMPLE&lt;I&gt;.bam+.bai&#45;&gt;bedminus -->
<g id="edge25" class="edge">
<title>output/SAMPLE&lt;I&gt;.bam+.bai&#45;&gt;bedminus</title>
<path fill="none" stroke="#000000" d="M531.8888,-895.8314C554.0903,-886.2018 581.5422,-874.295 604.9784,-864.1299"/>
<polygon fill="#000000" stroke="#000000" points="606.6309,-867.2282 614.4124,-860.038 603.8455,-860.8062 606.6309,-867.2282"/>
</g>
<!-- output/SAMPLE&lt;I&gt;_dedup.bam&#45;&gt;umi_post_group -->
<g id="edge31" class="edge">
<title>output/SAMPLE&lt;I&gt;_dedup.bam&#45;&gt;umi_post_group</title>
<path fill="none" stroke="#000000" d="M308,-751.8314C308,-744.131 308,-734.9743 308,-726.4166"/>
<polygon fill="#000000" stroke="#000000" points="311.5001,-726.4132 308,-716.4133 304.5001,-726.4133 311.5001,-726.4132"/>
</g>
<!-- output/SAMPLE&lt;I&gt;_dedup.bam&#45;&gt;samindex_dedup -->
<g id="edge33" class="edge">
<title>output/SAMPLE&lt;I&gt;_dedup.bam&#45;&gt;samindex_dedup</title>
<path fill="none" stroke="#000000" d="M367.7502,-751.9243C406.9344,-740.0703 457.6254,-724.7352 494.9276,-713.4505"/>
<polygon fill="#000000" stroke="#000000" points="496.0311,-716.7734 504.5892,-710.5276 494.0042,-710.0732 496.0311,-716.7734"/>
</g>
<!-- output/SAMPLE&lt;I&gt;_dedup.bam+.bai&#45;&gt;bam2h5 -->
<g id="edge35" class="edge">
<title>output/SAMPLE&lt;I&gt;_dedup.bam+.bai&#45;&gt;bam2h5</title>
<path fill="none" stroke="#000000" d="M637.4678,-607.8314C649.0327,-598.8779 663.1404,-587.9558 675.6183,-578.2955"/>
<polygon fill="#000000" stroke="#000000" points="677.775,-581.0521 683.5397,-572.1628 673.4898,-575.5171 677.775,-581.0521"/>
</g>
<!-- output/SAMPLE&lt;I&gt;.h5&#45;&gt;statsfigs -->
<g id="edge38" class="edge">
<title>output/SAMPLE&lt;I&gt;.h5&#45;&gt;statsfigs</title>
<path fill="none" stroke="#000000" d="M707,-463.8314C707,-456.131 707,-446.9743 707,-438.4166"/>
<polygon fill="#000000" stroke="#000000" points="710.5001,-438.4132 707,-428.4133 703.5001,-438.4133 710.5001,-438.4132"/>
</g>
<!-- collate -->
<g id="node46" class="node">
<title>collate</title>
<polygon fill="none" stroke="#000000" points="741.1181,-124 658.8819,-124 658.8819,-88 741.1181,-88 741.1181,-124"/>
<text text-anchor="middle" x="700" y="-103" font-family="Helvetica,sans-Serif" font-size="10.00" fill="#000000">collate_tpms.R</text>
</g>
<!-- output/SAMPLE&lt;I&gt;_tpms.tsv&#45;&gt;collate -->
<g id="edge45" class="edge">
<title>output/SAMPLE&lt;I&gt;_tpms.tsv&#45;&gt;collate</title>
<path fill="none" stroke="#000000" d="M700,-243.7995C700,-216.9103 700,-166.3255 700,-134.4926"/>
<polygon fill="#000000" stroke="#000000" points="703.5001,-134.0845 700,-124.0846 696.5001,-134.0846 703.5001,-134.0845"/>
</g>
<!-- output/TPMs_collated.tsv -->
<g id="node47" class="node">
<title>output/TPMs_collated.tsv</title>
<text text-anchor="middle" x="700" y="-31" font-family="Helvetica,sans-Serif" font-size="10.00" fill="#000000">output/TPMs_collated.tsv</text>
</g>
<!-- collate&#45;&gt;output/TPMs_collated.tsv -->
<g id="edge46" class="edge">
<title>collate&#45;&gt;output/TPMs_collated.tsv</title>
<path fill="none" stroke="#000000" d="M700,-87.8314C700,-80.131 700,-70.9743 700,-62.4166"/>
<polygon fill="#000000" stroke="#000000" points="703.5001,-62.4132 700,-52.4133 696.5001,-62.4133 703.5001,-62.4132"/>
</g>
</g>
</svg>
