<?xml version="1.0" encoding="UTF-8" standalone="no"?>
<!DOCTYPE svg PUBLIC "-//W3C//DTD SVG 1.1//EN"
 "http://www.w3.org/Graphics/SVG/1.1/DTD/svg11.dtd">
<!-- Generated by graphviz version 2.40.1 (20161225.0304)
 -->
<!-- Title: G Pages: 1 -->
<svg width="1817pt" height="2084pt"
 viewBox="0.00 0.00 1817.00 2084.00" xmlns="http://www.w3.org/2000/svg" xmlns:xlink="http://www.w3.org/1999/xlink">
<g id="graph0" class="graph" transform="scale(1 1) rotate(0) translate(4 2080)">
<title>G</title>
<polygon fill="#ffffff" stroke="transparent" points="-4,4 -4,-2080 1813,-2080 1813,4 -4,4"/>
<g id="clust1" class="cluster">
<title>cluster_data</title>
<polygon fill="none" stroke="#000000" stroke-dasharray="5,2" points="991,-1904 991,-2068 1801,-2068 1801,-1904 991,-1904"/>
<text text-anchor="middle" x="1009.558" y="-2055" font-family="Helvetica,sans-Serif" font-size="10.00" fill="#000000">Data</text>
</g>
<g id="clust2" class="cluster">
<title>cluster_organism</title>
<polygon fill="none" stroke="#000000" stroke-dasharray="5,2" points="1407,-1940 1407,-2012 1595,-2012 1595,-1940 1407,-1940"/>
<text text-anchor="middle" x="1447.784" y="-1999" font-family="Helvetica,sans-Serif" font-size="10.00" fill="#000000">Organism data</text>
</g>
<g id="clust3" class="cluster">
<title>cluster_contaminants</title>
<polygon fill="none" stroke="#000000" stroke-dasharray="5,2" points="1313,-1940 1313,-2012 1399,-2012 1399,-1940 1313,-1940"/>
<text text-anchor="middle" x="1351.8395" y="-1999" font-family="Helvetica,sans-Serif" font-size="10.00" fill="#000000">Contaminants</text>
</g>
<g id="clust4" class="cluster">
<title>cluster_additional_organism</title>
<polygon fill="none" stroke="#000000" stroke-dasharray="5,2" points="1603,-1912 1603,-2040 1793,-2040 1793,-1912 1603,-1912"/>
<text text-anchor="middle" x="1684.3455" y="-2027" font-family="Helvetica,sans-Serif" font-size="10.00" fill="#000000">Additional organism&#45;specific data</text>
</g>
<g id="clust5" class="cluster">
<title>cluster_ribosome</title>
<polygon fill="none" stroke="#000000" stroke-dasharray="5,2" points="999,-1940 999,-2012 1305,-2012 1305,-1940 999,-1940"/>
<text text-anchor="middle" x="1059.509" y="-1999" font-family="Helvetica,sans-Serif" font-size="10.00" fill="#000000">Ribosome profiling data</text>
</g>
<g id="clust6" class="cluster">
<title>cluster_indexing</title>
<polygon fill="none" stroke="#000000" points="1253,-1752 1253,-1896 1507,-1896 1507,-1752 1253,-1752"/>
<text text-anchor="middle" x="1279.8965" y="-1883" font-family="Helvetica,sans-Serif" font-size="10.00" fill="#000000">Indexing</text>
</g>
<g id="clust7" class="cluster">
<title>cluster_per_sample_processing</title>
<polygon fill="none" stroke="#000000" points="8,-160 8,-1896 1245,-1896 1245,-160 8,-160"/>
<text text-anchor="middle" x="69.347" y="-1883" font-family="Helvetica,sans-Serif" font-size="10.00" fill="#000000">Process &lt;SAMPLE_ID&gt;</text>
</g>
<g id="clust8" class="cluster">
<title>cluster_tpms_collation</title>
<polygon fill="none" stroke="#000000" points="1088,-8 1088,-152 1232,-152 1232,-8 1088,-8"/>
<text text-anchor="middle" x="1128.779" y="-139" font-family="Helvetica,sans-Serif" font-size="10.00" fill="#000000">TPMs collation</text>
</g>
<!-- input/CDS.fa -->
<g id="node1" class="node">
<title>input/CDS.fa</title>
<text text-anchor="middle" x="1451" y="-1963" font-family="Helvetica,sans-Serif" font-size="10.00" fill="#000000">input/CDS.fa</text>
</g>
<!-- h2build2 -->
<g id="node9" class="node">
<title>h2build2</title>
<polygon fill="none" stroke="#000000" points="1481.6191,-1868 1414.3809,-1868 1414.3809,-1832 1481.6191,-1832 1481.6191,-1868"/>
<text text-anchor="middle" x="1448" y="-1847" font-family="Helvetica,sans-Serif" font-size="10.00" fill="#000000">hisat2&#45;build</text>
</g>
<!-- input/CDS.fa&#45;&gt;h2build2 -->
<g id="edge3" class="edge">
<title>input/CDS.fa&#45;&gt;h2build2</title>
<path fill="none" stroke="#000000" d="M1450.5313,-1947.875C1450.0519,-1929.3412 1449.3003,-1900.2787 1448.7405,-1878.6311"/>
<polygon fill="#000000" stroke="#000000" points="1452.2328,-1878.2867 1448.4754,-1868.3805 1445.2352,-1878.4677 1452.2328,-1878.2867"/>
</g>
<!-- statsfigs -->
<g id="node26" class="node">
<title>statsfigs</title>
<polygon fill="none" stroke="#000000" points="1216.7523,-428 1103.2477,-428 1103.2477,-392 1216.7523,-392 1216.7523,-428"/>
<text text-anchor="middle" x="1160" y="-407" font-family="Helvetica,sans-Serif" font-size="10.00" fill="#000000">generate_stats_figs.R</text>
</g>
<!-- input/CDS.fa&#45;&gt;statsfigs -->
<g id="edge43" class="edge">
<title>input/CDS.fa&#45;&gt;statsfigs</title>
<path fill="none" stroke="#000000" d="M1461.1792,-1947.7251C1469.2964,-1934.3723 1481.6568,-1916.4903 1496,-1904 1501.6979,-1899.0381 1506.6853,-1902.2024 1511,-1896 1541.2234,-1852.5542 1527,-1830.9244 1527,-1778 1527,-1778 1527,-1778 1527,-554 1527,-490.2638 1332.7584,-443.0502 1226.9,-422.0521"/>
<polygon fill="#000000" stroke="#000000" points="1227.4273,-418.5889 1216.9411,-420.1022 1226.0822,-425.4585 1227.4273,-418.5889"/>
</g>
<!-- input/CDS.gff3 -->
<g id="node2" class="node">
<title>input/CDS.gff3</title>
<text text-anchor="middle" x="1546" y="-1963" font-family="Helvetica,sans-Serif" font-size="10.00" fill="#000000">input/CDS.gff3</text>
</g>
<!-- bam2h5 -->
<g id="node25" class="node">
<title>bam2h5</title>
<polygon fill="none" stroke="#000000" points="1176.019,-572 1099.981,-572 1099.981,-536 1176.019,-536 1176.019,-572"/>
<text text-anchor="middle" x="1138" y="-551" font-family="Helvetica,sans-Serif" font-size="10.00" fill="#000000">bam_to_h5.R</text>
</g>
<!-- input/CDS.gff3&#45;&gt;bam2h5 -->
<g id="edge40" class="edge">
<title>input/CDS.gff3&#45;&gt;bam2h5</title>
<path fill="none" stroke="#000000" d="M1549.0527,-1947.9129C1554.4235,-1914.4697 1565,-1840.6578 1565,-1778 1565,-1778 1565,-1778 1565,-698 1565,-618.8154 1298.0072,-574.8205 1186.2675,-559.8755"/>
<polygon fill="#000000" stroke="#000000" points="1186.6402,-556.3945 1176.2692,-558.5606 1185.7274,-563.3347 1186.6402,-556.3945"/>
</g>
<!-- input/CDS.gff3&#45;&gt;statsfigs -->
<g id="edge44" class="edge">
<title>input/CDS.gff3&#45;&gt;statsfigs</title>
<path fill="none" stroke="#000000" d="M1555.4124,-1947.8772C1571.602,-1914.9716 1603,-1842.8015 1603,-1778 1603,-1778 1603,-1778 1603,-554 1603,-475.9303 1351.0214,-433.7119 1227.143,-417.6736"/>
<polygon fill="#000000" stroke="#000000" points="1227.3697,-414.1743 1217.0076,-416.3828 1226.4853,-421.1182 1227.3697,-414.1743"/>
</g>
<!-- input/rRNA.fa -->
<g id="node3" class="node">
<title>input/rRNA.fa</title>
<text text-anchor="middle" x="1356" y="-1963.3" font-family="Helvetica,sans-Serif" font-size="9.00" fill="#000000">input/rRNA.fa</text>
</g>
<!-- h2build1 -->
<g id="node8" class="node">
<title>h2build1</title>
<polygon fill="none" stroke="#000000" points="1370.6191,-1868 1303.3809,-1868 1303.3809,-1832 1370.6191,-1832 1370.6191,-1868"/>
<text text-anchor="middle" x="1337" y="-1847" font-family="Helvetica,sans-Serif" font-size="10.00" fill="#000000">hisat2&#45;build</text>
</g>
<!-- input/rRNA.fa&#45;&gt;h2build1 -->
<g id="edge1" class="edge">
<title>input/rRNA.fa&#45;&gt;h2build1</title>
<path fill="none" stroke="#000000" d="M1353.0313,-1947.875C1349.9817,-1929.2566 1345.1918,-1900.0131 1341.6411,-1878.335"/>
<polygon fill="#000000" stroke="#000000" points="1345.0811,-1877.6833 1340.0106,-1868.3805 1338.1731,-1878.8148 1345.0811,-1877.6833"/>
</g>
<!-- data -->
<g id="node4" class="node">
<title>data</title>
<polygon fill="none" stroke="#000000" stroke-dasharray="5,2" points="1784.8391,-2012 1611.1609,-2012 1611.1609,-1920 1784.8391,-1920 1784.8391,-2012"/>
<text text-anchor="middle" x="1698" y="-1999" font-family="Helvetica,sans-Serif" font-size="10.00" fill="#000000">data/codon_pos_i200.RData</text>
<text text-anchor="middle" x="1698" y="-1987" font-family="Helvetica,sans-Serif" font-size="10.00" fill="#000000">&#13;</text>
<text text-anchor="middle" x="1698" y="-1975" font-family="Helvetica,sans-Serif" font-size="10.00" fill="#000000">data/features.tsv</text>
<text text-anchor="middle" x="1698" y="-1963" font-family="Helvetica,sans-Serif" font-size="10.00" fill="#000000">&#13;</text>
<text text-anchor="middle" x="1698" y="-1951" font-family="Helvetica,sans-Serif" font-size="10.00" fill="#000000">data/tRNAs.tsv</text>
<text text-anchor="middle" x="1698" y="-1939" font-family="Helvetica,sans-Serif" font-size="10.00" fill="#000000">&#13;</text>
<text text-anchor="middle" x="1698" y="-1927" font-family="Helvetica,sans-Serif" font-size="10.00" fill="#000000">data/standard_asite_disp_length.txt</text>
</g>
<!-- data&#45;&gt;statsfigs -->
<g id="edge45" class="edge">
<title>data&#45;&gt;statsfigs</title>
<path fill="none" stroke="#000000" d="M1686.8708,-1919.9491C1678.6926,-1882.0748 1669,-1826.8769 1669,-1778 1669,-1778 1669,-1778 1669,-554 1669,-463.1738 1365.128,-426.7348 1226.9614,-414.8608"/>
<polygon fill="#000000" stroke="#000000" points="1227.1654,-411.3657 1216.9072,-414.015 1226.5786,-418.3411 1227.1654,-411.3657"/>
</g>
<!-- ribosome_data0toI -->
<g id="node5" class="node">
<title>ribosome_data0toI</title>
<text text-anchor="middle" x="1270" y="-1963" font-family="Helvetica,sans-Serif" font-size="10.00" fill="#000000">...</text>
</g>
<!-- input/&lt;SAMPLE_ID&gt;.fastq.gz -->
<g id="node6" class="node">
<title>input/&lt;SAMPLE_ID&gt;.fastq.gz</title>
<text text-anchor="middle" x="1152" y="-1963" font-family="Helvetica,sans-Serif" font-size="10.00" fill="#000000">input/&lt;SAMPLE_ID&gt;.fastq.gz</text>
</g>
<!-- cut -->
<g id="node12" class="node">
<title>cut</title>
<polygon fill="none" stroke="#000000" points="1179.3542,-1868 1124.6458,-1868 1124.6458,-1832 1179.3542,-1832 1179.3542,-1868"/>
<text text-anchor="middle" x="1152" y="-1847" font-family="Helvetica,sans-Serif" font-size="10.00" fill="#000000">cutadapt</text>
</g>
<!-- input/&lt;SAMPLE_ID&gt;.fastq.gz&#45;&gt;cut -->
<g id="edge5" class="edge">
<title>input/&lt;SAMPLE_ID&gt;.fastq.gz&#45;&gt;cut</title>
<path fill="none" stroke="#000000" d="M1152,-1947.875C1152,-1929.3412 1152,-1900.2787 1152,-1878.6311"/>
<polygon fill="#000000" stroke="#000000" points="1155.5001,-1878.3805 1152,-1868.3805 1148.5001,-1878.3806 1155.5001,-1878.3805"/>
</g>
<!-- ribosome_dataItoN -->
<g id="node7" class="node">
<title>ribosome_dataItoN</title>
<text text-anchor="middle" x="1034" y="-1963" font-family="Helvetica,sans-Serif" font-size="10.00" fill="#000000">...</text>
</g>
<!-- index/rRNA.1|...|8.ht2 -->
<g id="node10" class="node">
<title>index/rRNA.1|...|8.ht2</title>
<text text-anchor="middle" x="1317" y="-1775" font-family="Helvetica,sans-Serif" font-size="10.00" fill="#000000">index/rRNA.1|...|8.ht2</text>
</g>
<!-- h2build1&#45;&gt;index/rRNA.1|...|8.ht2 -->
<g id="edge2" class="edge">
<title>h2build1&#45;&gt;index/rRNA.1|...|8.ht2</title>
<path fill="none" stroke="#000000" d="M1331.9532,-1831.8314C1329.7906,-1824.0463 1327.2147,-1814.7729 1324.8152,-1806.1347"/>
<polygon fill="#000000" stroke="#000000" points="1328.1636,-1805.1117 1322.1148,-1796.4133 1321.419,-1806.9852 1328.1636,-1805.1117"/>
</g>
<!-- index/CDS.1|...|8.ht2 -->
<g id="node11" class="node">
<title>index/CDS.1|...|8.ht2</title>
<text text-anchor="middle" x="1445" y="-1775" font-family="Helvetica,sans-Serif" font-size="10.00" fill="#000000">index/CDS.1|...|8.ht2</text>
</g>
<!-- h2build2&#45;&gt;index/CDS.1|...|8.ht2 -->
<g id="edge4" class="edge">
<title>h2build2&#45;&gt;index/CDS.1|...|8.ht2</title>
<path fill="none" stroke="#000000" d="M1447.243,-1831.8314C1446.9221,-1824.131 1446.5406,-1814.9743 1446.184,-1806.4166"/>
<polygon fill="#000000" stroke="#000000" points="1449.6806,-1806.2589 1445.7672,-1796.4133 1442.6867,-1806.5503 1449.6806,-1806.2589"/>
</g>
<!-- h21 -->
<g id="node14" class="node">
<title>h21</title>
<polygon fill="none" stroke="#000000" points="1180,-1580 1126,-1580 1126,-1544 1180,-1544 1180,-1580"/>
<text text-anchor="middle" x="1153" y="-1559" font-family="Helvetica,sans-Serif" font-size="10.00" fill="#000000">hisat2</text>
</g>
<!-- index/rRNA.1|...|8.ht2&#45;&gt;h21 -->
<g id="edge10" class="edge">
<title>index/rRNA.1|...|8.ht2&#45;&gt;h21</title>
<path fill="none" stroke="#000000" d="M1313.0245,-1759.9269C1305.147,-1727.6763 1284.86,-1659.5198 1246,-1616 1230.575,-1598.7253 1208.2634,-1585.5131 1189.3605,-1576.4822"/>
<polygon fill="#000000" stroke="#000000" points="1190.6714,-1573.2332 1180.1211,-1572.2635 1187.764,-1579.6009 1190.6714,-1573.2332"/>
</g>
<!-- h22 -->
<g id="node15" class="node">
<title>h22</title>
<polygon fill="none" stroke="#000000" points="1181,-1436 1127,-1436 1127,-1400 1181,-1400 1181,-1436"/>
<text text-anchor="middle" x="1154" y="-1415" font-family="Helvetica,sans-Serif" font-size="10.00" fill="#000000">hisat2</text>
</g>
<!-- index/CDS.1|...|8.ht2&#45;&gt;h22 -->
<g id="edge13" class="edge">
<title>index/CDS.1|...|8.ht2&#45;&gt;h22</title>
<path fill="none" stroke="#000000" d="M1432.4149,-1759.8478C1415.3566,-1733.4241 1387,-1682.2435 1387,-1634 1387,-1634 1387,-1634 1387,-1562 1387,-1471.046 1256.9355,-1435.6194 1191.159,-1423.5188"/>
<polygon fill="#000000" stroke="#000000" points="1191.6379,-1420.0495 1181.1841,-1421.7721 1190.4305,-1426.9446 1191.6379,-1420.0495"/>
</g>
<!-- tmp/&lt;SAMPLE_ID&gt;/trim.fq -->
<g id="node27" class="node">
<title>tmp/&lt;SAMPLE_ID&gt;/trim.fq</title>
<text text-anchor="middle" x="1152" y="-1775" font-family="Helvetica,sans-Serif" font-size="10.00" fill="#000000">tmp/&lt;SAMPLE_ID&gt;/trim.fq</text>
</g>
<!-- cut&#45;&gt;tmp/&lt;SAMPLE_ID&gt;/trim.fq -->
<g id="edge6" class="edge">
<title>cut&#45;&gt;tmp/&lt;SAMPLE_ID&gt;/trim.fq</title>
<path fill="none" stroke="#000000" d="M1152,-1831.8314C1152,-1824.131 1152,-1814.9743 1152,-1806.4166"/>
<polygon fill="#000000" stroke="#000000" points="1155.5001,-1806.4132 1152,-1796.4133 1148.5001,-1806.4133 1155.5001,-1806.4132"/>
</g>
<!-- umi_extract -->
<g id="node13" class="node">
<title>umi_extract</title>
<polygon fill="none" stroke="#000000" points="1197.567,-1724 1106.433,-1724 1106.433,-1688 1197.567,-1688 1197.567,-1724"/>
<text text-anchor="middle" x="1152" y="-1703" font-family="Helvetica,sans-Serif" font-size="10.00" fill="#000000">umi_tools extract</text>
</g>
<!-- tmp/&lt;SAMPLE_ID&gt;/extract_trim.fq -->
<g id="node28" class="node">
<title>tmp/&lt;SAMPLE_ID&gt;/extract_trim.fq</title>
<text text-anchor="middle" x="1152" y="-1631" font-family="Helvetica,sans-Serif" font-size="10.00" fill="#000000">tmp/&lt;SAMPLE_ID&gt;/extract_trim.fq</text>
</g>
<!-- umi_extract&#45;&gt;tmp/&lt;SAMPLE_ID&gt;/extract_trim.fq -->
<g id="edge8" class="edge">
<title>umi_extract&#45;&gt;tmp/&lt;SAMPLE_ID&gt;/extract_trim.fq</title>
<path fill="none" stroke="#000000" d="M1152,-1687.8314C1152,-1680.131 1152,-1670.9743 1152,-1662.4166"/>
<polygon fill="#000000" stroke="#000000" points="1155.5001,-1662.4132 1152,-1652.4133 1148.5001,-1662.4133 1155.5001,-1662.4132"/>
</g>
<!-- tmp/&lt;SAMPLE_ID&gt;/rRNA_map.sam -->
<g id="node29" class="node">
<title>tmp/&lt;SAMPLE_ID&gt;/rRNA_map.sam</title>
<text text-anchor="middle" x="968" y="-1487" font-family="Helvetica,sans-Serif" font-size="10.00" fill="#000000">tmp/&lt;SAMPLE_ID&gt;/rRNA_map.sam</text>
</g>
<!-- h21&#45;&gt;tmp/&lt;SAMPLE_ID&gt;/rRNA_map.sam -->
<g id="edge11" class="edge">
<title>h21&#45;&gt;tmp/&lt;SAMPLE_ID&gt;/rRNA_map.sam</title>
<path fill="none" stroke="#000000" d="M1125.7026,-1551.3762C1099.0821,-1541.0157 1057.8025,-1524.9502 1024.1536,-1511.8544"/>
<polygon fill="#000000" stroke="#000000" points="1025.0219,-1508.4366 1014.4333,-1508.0714 1022.483,-1514.96 1025.0219,-1508.4366"/>
</g>
<!-- tmp/&lt;SAMPLE_ID&gt;/nonrRNA.fq -->
<g id="node30" class="node">
<title>tmp/&lt;SAMPLE_ID&gt;/nonrRNA.fq</title>
<text text-anchor="middle" x="1154" y="-1487" font-family="Helvetica,sans-Serif" font-size="10.00" fill="#000000">tmp/&lt;SAMPLE_ID&gt;/nonrRNA.fq</text>
</g>
<!-- h21&#45;&gt;tmp/&lt;SAMPLE_ID&gt;/nonrRNA.fq -->
<g id="edge12" class="edge">
<title>h21&#45;&gt;tmp/&lt;SAMPLE_ID&gt;/nonrRNA.fq</title>
<path fill="none" stroke="#000000" d="M1153.2523,-1543.8314C1153.3593,-1536.131 1153.4865,-1526.9743 1153.6053,-1518.4166"/>
<polygon fill="#000000" stroke="#000000" points="1157.1049,-1518.4609 1153.7443,-1508.4133 1150.1056,-1518.3637 1157.1049,-1518.4609"/>
</g>
<!-- tmp/&lt;SAMPLE_ID&gt;/unaligned.fq -->
<g id="node31" class="node">
<title>tmp/&lt;SAMPLE_ID&gt;/unaligned.fq</title>
<text text-anchor="middle" x="974" y="-1343" font-family="Helvetica,sans-Serif" font-size="10.00" fill="#000000">tmp/&lt;SAMPLE_ID&gt;/unaligned.fq</text>
</g>
<!-- h22&#45;&gt;tmp/&lt;SAMPLE_ID&gt;/unaligned.fq -->
<g id="edge15" class="edge">
<title>h22&#45;&gt;tmp/&lt;SAMPLE_ID&gt;/unaligned.fq</title>
<path fill="none" stroke="#000000" d="M1126.6619,-1407.0647C1100.7032,-1396.6813 1060.9376,-1380.7751 1028.4993,-1367.7997"/>
<polygon fill="#000000" stroke="#000000" points="1029.7123,-1364.5153 1019.1276,-1364.051 1027.1125,-1371.0147 1029.7123,-1364.5153"/>
</g>
<!-- tmp/&lt;SAMPLE_ID&gt;/orf_map.sam -->
<g id="node32" class="node">
<title>tmp/&lt;SAMPLE_ID&gt;/orf_map.sam</title>
<text text-anchor="middle" x="1154" y="-1343" font-family="Helvetica,sans-Serif" font-size="10.00" fill="#000000">tmp/&lt;SAMPLE_ID&gt;/orf_map.sam</text>
</g>
<!-- h22&#45;&gt;tmp/&lt;SAMPLE_ID&gt;/orf_map.sam -->
<g id="edge16" class="edge">
<title>h22&#45;&gt;tmp/&lt;SAMPLE_ID&gt;/orf_map.sam</title>
<path fill="none" stroke="#000000" d="M1154,-1399.8314C1154,-1392.131 1154,-1382.9743 1154,-1374.4166"/>
<polygon fill="#000000" stroke="#000000" points="1157.5001,-1374.4132 1154,-1364.4133 1150.5001,-1374.4133 1157.5001,-1374.4132"/>
</g>
<!-- samindex -->
<g id="node16" class="node">
<title>samindex</title>
<polygon fill="none" stroke="#000000" points="865.1796,-1004 782.8204,-1004 782.8204,-968 865.1796,-968 865.1796,-1004"/>
<text text-anchor="middle" x="824" y="-983" font-family="Helvetica,sans-Serif" font-size="10.00" fill="#000000">samtools index</text>
</g>
<!-- tmp/&lt;SAMPLE_ID&gt;/pre_dedup.bam+.bai -->
<g id="node38" class="node">
<title>tmp/&lt;SAMPLE_ID&gt;/pre_dedup.bam+.bai</title>
<text text-anchor="middle" x="740" y="-911" font-family="Helvetica,sans-Serif" font-size="10.00" fill="#000000">tmp/&lt;SAMPLE_ID&gt;/pre_dedup.bam+.bai</text>
</g>
<!-- samindex&#45;&gt;tmp/&lt;SAMPLE_ID&gt;/pre_dedup.bam+.bai -->
<g id="edge23" class="edge">
<title>samindex&#45;&gt;tmp/&lt;SAMPLE_ID&gt;/pre_dedup.bam+.bai</title>
<path fill="none" stroke="#000000" d="M802.8033,-967.8314C792.5566,-959.0485 780.0997,-948.3712 768.9903,-938.8489"/>
<polygon fill="#000000" stroke="#000000" points="771.0603,-936.0134 761.19,-932.1628 766.5048,-941.3282 771.0603,-936.0134"/>
</g>
<!-- samview -->
<g id="node17" class="node">
<title>samview</title>
<polygon fill="none" stroke="#000000" points="1113.3875,-1148 966.6125,-1148 966.6125,-1112 1113.3875,-1112 1113.3875,-1148"/>
<text text-anchor="middle" x="1040" y="-1127" font-family="Helvetica,sans-Serif" font-size="10.00" fill="#000000">samtools view | samtools sort</text>
</g>
<!-- tmp/&lt;SAMPLE_ID&gt;/pre_dedup.bam -->
<g id="node37" class="node">
<title>tmp/&lt;SAMPLE_ID&gt;/pre_dedup.bam</title>
<text text-anchor="middle" x="957" y="-1055" font-family="Helvetica,sans-Serif" font-size="10.00" fill="#000000">tmp/&lt;SAMPLE_ID&gt;/pre_dedup.bam</text>
</g>
<!-- samview&#45;&gt;tmp/&lt;SAMPLE_ID&gt;/pre_dedup.bam -->
<g id="edge21" class="edge">
<title>samview&#45;&gt;tmp/&lt;SAMPLE_ID&gt;/pre_dedup.bam</title>
<path fill="none" stroke="#000000" d="M1019.0556,-1111.8314C1008.9309,-1103.0485 996.6223,-1092.3712 985.6452,-1082.8489"/>
<polygon fill="#000000" stroke="#000000" points="987.7851,-1080.0718 977.9377,-1076.1628 983.1981,-1085.3595 987.7851,-1080.0718"/>
</g>
<!-- umi_pre_group -->
<g id="node18" class="node">
<title>umi_pre_group</title>
<polygon fill="none" stroke="#000000" points="419.6261,-860 332.3739,-860 332.3739,-824 419.6261,-824 419.6261,-860"/>
<text text-anchor="middle" x="376" y="-839" font-family="Helvetica,sans-Serif" font-size="10.00" fill="#000000">umi_tools group</text>
</g>
<!-- tmp/&lt;SAMPLE_ID&gt;/pre_dedup_groups.tsv -->
<g id="node35" class="node">
<title>tmp/&lt;SAMPLE_ID&gt;/pre_dedup_groups.tsv</title>
<text text-anchor="middle" x="119" y="-767" font-family="Helvetica,sans-Serif" font-size="10.00" fill="#000000">tmp/&lt;SAMPLE_ID&gt;/pre_dedup_groups.tsv</text>
</g>
<!-- umi_pre_group&#45;&gt;tmp/&lt;SAMPLE_ID&gt;/pre_dedup_groups.tsv -->
<g id="edge25" class="edge">
<title>umi_pre_group&#45;&gt;tmp/&lt;SAMPLE_ID&gt;/pre_dedup_groups.tsv</title>
<path fill="none" stroke="#000000" d="M332.4035,-829.7862C294.3788,-819.1334 238.4009,-803.4508 193.3167,-790.8202"/>
<polygon fill="#000000" stroke="#000000" points="194.1533,-787.4199 183.5798,-788.0924 192.2648,-794.1604 194.1533,-787.4199"/>
</g>
<!-- umi_dedup -->
<g id="node19" class="node">
<title>umi_dedup</title>
<polygon fill="none" stroke="#000000" points="784.8567,-860 695.1433,-860 695.1433,-824 784.8567,-824 784.8567,-860"/>
<text text-anchor="middle" x="740" y="-839" font-family="Helvetica,sans-Serif" font-size="10.00" fill="#000000">umi_tools dedup</text>
</g>
<!-- tmp/&lt;SAMPLE_ID&gt;/dedup_stats_edit_distance.tsv -->
<g id="node39" class="node">
<title>tmp/&lt;SAMPLE_ID&gt;/dedup_stats_edit_distance.tsv</title>
<text text-anchor="middle" x="360" y="-767" font-family="Helvetica,sans-Serif" font-size="10.00" fill="#000000">tmp/&lt;SAMPLE_ID&gt;/dedup_stats_edit_distance.tsv</text>
</g>
<!-- umi_dedup&#45;&gt;tmp/&lt;SAMPLE_ID&gt;/dedup_stats_edit_distance.tsv -->
<g id="edge28" class="edge">
<title>umi_dedup&#45;&gt;tmp/&lt;SAMPLE_ID&gt;/dedup_stats_edit_distance.tsv</title>
<path fill="none" stroke="#000000" d="M695.2917,-833.529C639.1512,-822.8918 541.032,-804.3008 465.3932,-789.9692"/>
<polygon fill="#000000" stroke="#000000" points="465.8237,-786.4886 455.3469,-788.0657 464.5205,-793.3662 465.8237,-786.4886"/>
</g>
<!-- tmp/&lt;SAMPLE_ID&gt;/dedup_stats_per_umi.tsv -->
<g id="node40" class="node">
<title>tmp/&lt;SAMPLE_ID&gt;/dedup_stats_per_umi.tsv</title>
<text text-anchor="middle" x="607" y="-767" font-family="Helvetica,sans-Serif" font-size="10.00" fill="#000000">tmp/&lt;SAMPLE_ID&gt;/dedup_stats_per_umi.tsv</text>
</g>
<!-- umi_dedup&#45;&gt;tmp/&lt;SAMPLE_ID&gt;/dedup_stats_per_umi.tsv -->
<g id="edge29" class="edge">
<title>umi_dedup&#45;&gt;tmp/&lt;SAMPLE_ID&gt;/dedup_stats_per_umi.tsv</title>
<path fill="none" stroke="#000000" d="M706.4385,-823.8314C689.1119,-814.4516 667.7942,-802.9112 649.3464,-792.9244"/>
<polygon fill="#000000" stroke="#000000" points="651.0111,-789.8457 640.5508,-788.1628 647.6786,-796.0015 651.0111,-789.8457"/>
</g>
<!-- tmp/&lt;SAMPLE_ID&gt;/dedup_stats_per_umi_per_position.tsv -->
<g id="node41" class="node">
<title>tmp/&lt;SAMPLE_ID&gt;/dedup_stats_per_umi_per_position.tsv</title>
<text text-anchor="middle" x="873" y="-767" font-family="Helvetica,sans-Serif" font-size="10.00" fill="#000000">tmp/&lt;SAMPLE_ID&gt;/dedup_stats_per_umi_per_position.tsv</text>
</g>
<!-- umi_dedup&#45;&gt;tmp/&lt;SAMPLE_ID&gt;/dedup_stats_per_umi_per_position.tsv -->
<g id="edge30" class="edge">
<title>umi_dedup&#45;&gt;tmp/&lt;SAMPLE_ID&gt;/dedup_stats_per_umi_per_position.tsv</title>
<path fill="none" stroke="#000000" d="M773.5615,-823.8314C790.8881,-814.4516 812.2058,-802.9112 830.6536,-792.9244"/>
<polygon fill="#000000" stroke="#000000" points="832.3214,-796.0015 839.4492,-788.1628 828.9889,-789.8457 832.3214,-796.0015"/>
</g>
<!-- output/&lt;SAMPLE_ID&gt;/&lt;SAMPLE_ID&gt;.bam -->
<g id="node42" class="node">
<title>output/&lt;SAMPLE_ID&gt;/&lt;SAMPLE_ID&gt;.bam</title>
<text text-anchor="middle" x="1133" y="-767" font-family="Helvetica,sans-Serif" font-size="10.00" fill="#000000">output/&lt;SAMPLE_ID&gt;/&lt;SAMPLE_ID&gt;.bam</text>
</g>
<!-- umi_dedup&#45;&gt;output/&lt;SAMPLE_ID&gt;/&lt;SAMPLE_ID&gt;.bam -->
<g id="edge27" class="edge">
<title>umi_dedup&#45;&gt;output/&lt;SAMPLE_ID&gt;/&lt;SAMPLE_ID&gt;.bam</title>
<path fill="none" stroke="#000000" d="M784.6995,-833.8108C842.6749,-823.1893 945.7267,-804.3096 1024.7471,-789.8326"/>
<polygon fill="#000000" stroke="#000000" points="1025.5433,-793.2451 1034.7489,-788.0002 1024.2818,-786.3597 1025.5433,-793.2451"/>
</g>
<!-- umi_post_group -->
<g id="node20" class="node">
<title>umi_post_group</title>
<polygon fill="none" stroke="#000000" points="959.6261,-572 872.3739,-572 872.3739,-536 959.6261,-536 959.6261,-572"/>
<text text-anchor="middle" x="916" y="-551" font-family="Helvetica,sans-Serif" font-size="10.00" fill="#000000">umi_tools group</text>
</g>
<!-- tmp/&lt;SAMPLE_ID&gt;/post_dedup_groups.tsv -->
<g id="node36" class="node">
<title>tmp/&lt;SAMPLE_ID&gt;/post_dedup_groups.tsv</title>
<text text-anchor="middle" x="916" y="-479" font-family="Helvetica,sans-Serif" font-size="10.00" fill="#000000">tmp/&lt;SAMPLE_ID&gt;/post_dedup_groups.tsv</text>
</g>
<!-- umi_post_group&#45;&gt;tmp/&lt;SAMPLE_ID&gt;/post_dedup_groups.tsv -->
<g id="edge34" class="edge">
<title>umi_post_group&#45;&gt;tmp/&lt;SAMPLE_ID&gt;/post_dedup_groups.tsv</title>
<path fill="none" stroke="#000000" d="M916,-535.8314C916,-528.131 916,-518.9743 916,-510.4166"/>
<polygon fill="#000000" stroke="#000000" points="919.5001,-510.4132 916,-500.4133 912.5001,-510.4133 919.5001,-510.4132"/>
</g>
<!-- samindex_dedup -->
<g id="node21" class="node">
<title>samindex_dedup</title>
<polygon fill="none" stroke="#000000" points="1065.1796,-716 982.8204,-716 982.8204,-680 1065.1796,-680 1065.1796,-716"/>
<text text-anchor="middle" x="1024" y="-695" font-family="Helvetica,sans-Serif" font-size="10.00" fill="#000000">samtools index</text>
</g>
<!-- output/&lt;SAMPLE_ID&gt;/&lt;SAMPLE_ID&gt;.bam+.bai -->
<g id="node43" class="node">
<title>output/&lt;SAMPLE_ID&gt;/&lt;SAMPLE_ID&gt;.bam+.bai</title>
<text text-anchor="middle" x="916" y="-623" font-family="Helvetica,sans-Serif" font-size="10.00" fill="#000000">output/&lt;SAMPLE_ID&gt;/&lt;SAMPLE_ID&gt;.bam+.bai</text>
</g>
<!-- samindex_dedup&#45;&gt;output/&lt;SAMPLE_ID&gt;/&lt;SAMPLE_ID&gt;.bam+.bai -->
<g id="edge32" class="edge">
<title>samindex_dedup&#45;&gt;output/&lt;SAMPLE_ID&gt;/&lt;SAMPLE_ID&gt;.bam+.bai</title>
<path fill="none" stroke="#000000" d="M996.747,-679.8314C983.0611,-670.7074 966.3085,-659.539 951.6173,-649.7449"/>
<polygon fill="#000000" stroke="#000000" points="953.5062,-646.7977 943.2442,-644.1628 949.6233,-652.6221 953.5062,-646.7977"/>
</g>
<!-- trim -->
<g id="node22" class="node">
<title>trim</title>
<polygon fill="none" stroke="#000000" points="1128.504,-1292 1017.496,-1292 1017.496,-1256 1128.504,-1256 1128.504,-1292"/>
<text text-anchor="middle" x="1073" y="-1271" font-family="Helvetica,sans-Serif" font-size="10.00" fill="#000000">trim_5p_mismatch.py</text>
</g>
<!-- tmp/&lt;SAMPLE_ID&gt;/trim_5p_mismatch.tsv -->
<g id="node33" class="node">
<title>tmp/&lt;SAMPLE_ID&gt;/trim_5p_mismatch.tsv</title>
<text text-anchor="middle" x="856" y="-1199" font-family="Helvetica,sans-Serif" font-size="10.00" fill="#000000">tmp/&lt;SAMPLE_ID&gt;/trim_5p_mismatch.tsv</text>
</g>
<!-- trim&#45;&gt;tmp/&lt;SAMPLE_ID&gt;/trim_5p_mismatch.tsv -->
<g id="edge19" class="edge">
<title>trim&#45;&gt;tmp/&lt;SAMPLE_ID&gt;/trim_5p_mismatch.tsv</title>
<path fill="none" stroke="#000000" d="M1018.5218,-1255.9243C988.5987,-1245.9959 951.3157,-1233.6255 920.0096,-1223.2382"/>
<polygon fill="#000000" stroke="#000000" points="921.094,-1219.9104 910.5006,-1220.0831 918.8896,-1226.5543 921.094,-1219.9104"/>
</g>
<!-- tmp/&lt;SAMPLE_ID&gt;/orf_map_clean.sam -->
<g id="node34" class="node">
<title>tmp/&lt;SAMPLE_ID&gt;/orf_map_clean.sam</title>
<text text-anchor="middle" x="1073" y="-1199" font-family="Helvetica,sans-Serif" font-size="10.00" fill="#000000">tmp/&lt;SAMPLE_ID&gt;/orf_map_clean.sam</text>
</g>
<!-- trim&#45;&gt;tmp/&lt;SAMPLE_ID&gt;/orf_map_clean.sam -->
<g id="edge18" class="edge">
<title>trim&#45;&gt;tmp/&lt;SAMPLE_ID&gt;/orf_map_clean.sam</title>
<path fill="none" stroke="#000000" d="M1073,-1255.8314C1073,-1248.131 1073,-1238.9743 1073,-1230.4166"/>
<polygon fill="#000000" stroke="#000000" points="1076.5001,-1230.4132 1073,-1220.4133 1069.5001,-1230.4133 1076.5001,-1230.4132"/>
</g>
<!-- bedplus -->
<g id="node23" class="node">
<title>bedplus</title>
<polygon fill="none" stroke="#000000" points="612.5319,-572 489.4681,-572 489.4681,-536 612.5319,-536 612.5319,-572"/>
<text text-anchor="middle" x="551" y="-551" font-family="Helvetica,sans-Serif" font-size="10.00" fill="#000000">bedtools genomecov (+)</text>
</g>
<!-- output/&lt;SAMPLE_ID&gt;/plus.bedgraph -->
<g id="node44" class="node">
<title>output/&lt;SAMPLE_ID&gt;/plus.bedgraph</title>
<text text-anchor="middle" x="496" y="-479" font-family="Helvetica,sans-Serif" font-size="10.00" fill="#000000">output/&lt;SAMPLE_ID&gt;/plus.bedgraph</text>
</g>
<!-- bedplus&#45;&gt;output/&lt;SAMPLE_ID&gt;/plus.bedgraph -->
<g id="edge36" class="edge">
<title>bedplus&#45;&gt;output/&lt;SAMPLE_ID&gt;/plus.bedgraph</title>
<path fill="none" stroke="#000000" d="M537.1212,-535.8314C530.7864,-527.5386 523.1616,-517.557 516.2074,-508.4533"/>
<polygon fill="#000000" stroke="#000000" points="518.9175,-506.2353 510.0657,-500.4133 513.3548,-510.4847 518.9175,-506.2353"/>
</g>
<!-- bedminus -->
<g id="node24" class="node">
<title>bedminus</title>
<polygon fill="none" stroke="#000000" points="806.521,-572 685.479,-572 685.479,-536 806.521,-536 806.521,-572"/>
<text text-anchor="middle" x="746" y="-551" font-family="Helvetica,sans-Serif" font-size="10.00" fill="#000000">bedtools genomecov (&#45;)</text>
</g>
<!-- output/&lt;SAMPLE_ID&gt;/minus.bedgraph -->
<g id="node45" class="node">
<title>output/&lt;SAMPLE_ID&gt;/minus.bedgraph</title>
<text text-anchor="middle" x="699" y="-479" font-family="Helvetica,sans-Serif" font-size="10.00" fill="#000000">output/&lt;SAMPLE_ID&gt;/minus.bedgraph</text>
</g>
<!-- bedminus&#45;&gt;output/&lt;SAMPLE_ID&gt;/minus.bedgraph -->
<g id="edge38" class="edge">
<title>bedminus&#45;&gt;output/&lt;SAMPLE_ID&gt;/minus.bedgraph</title>
<path fill="none" stroke="#000000" d="M734.1399,-535.8314C728.8371,-527.7079 722.4763,-517.9637 716.6327,-509.0118"/>
<polygon fill="#000000" stroke="#000000" points="719.4169,-506.8739 711.0198,-500.4133 713.5552,-510.7003 719.4169,-506.8739"/>
</g>
<!-- output/&lt;SAMPLE_ID&gt;/&lt;SAMPLE_ID&gt;.h5 -->
<g id="node46" class="node">
<title>output/&lt;SAMPLE_ID&gt;/&lt;SAMPLE_ID&gt;.h5</title>
<text text-anchor="middle" x="1138" y="-479" font-family="Helvetica,sans-Serif" font-size="10.00" fill="#000000">output/&lt;SAMPLE_ID&gt;/&lt;SAMPLE_ID&gt;.h5</text>
</g>
<!-- bam2h5&#45;&gt;output/&lt;SAMPLE_ID&gt;/&lt;SAMPLE_ID&gt;.h5 -->
<g id="edge41" class="edge">
<title>bam2h5&#45;&gt;output/&lt;SAMPLE_ID&gt;/&lt;SAMPLE_ID&gt;.h5</title>
<path fill="none" stroke="#000000" d="M1138,-535.8314C1138,-528.131 1138,-518.9743 1138,-510.4166"/>
<polygon fill="#000000" stroke="#000000" points="1141.5001,-510.4132 1138,-500.4133 1134.5001,-510.4133 1141.5001,-510.4132"/>
</g>
<!-- pdfs -->
<g id="node47" class="node">
<title>pdfs</title>
<polygon fill="none" stroke="#000000" stroke-dasharray="5,2" points="805.1891,-356 562.8109,-356 562.8109,-168 805.1891,-168 805.1891,-356"/>
<text text-anchor="middle" x="684" y="-343" font-family="Helvetica,sans-Serif" font-size="10.00" fill="#000000">output/&lt;SAMPLE_ID&gt;/3nt_periodicity.pdf</text>
<text text-anchor="middle" x="684" y="-331" font-family="Helvetica,sans-Serif" font-size="10.00" fill="#000000">&#13;</text>
<text text-anchor="middle" x="684" y="-319" font-family="Helvetica,sans-Serif" font-size="10.00" fill="#000000">output/&lt;SAMPLE_ID&gt;/codon_ribodens.pdf</text>
<text text-anchor="middle" x="684" y="-307" font-family="Helvetica,sans-Serif" font-size="10.00" fill="#000000">&#13;</text>
<text text-anchor="middle" x="684" y="-295" font-family="Helvetica,sans-Serif" font-size="10.00" fill="#000000">output/&lt;SAMPLE_ID&gt;/read_lengths.pdf</text>
<text text-anchor="middle" x="684" y="-283" font-family="Helvetica,sans-Serif" font-size="10.00" fill="#000000">&#13;</text>
<text text-anchor="middle" x="684" y="-271" font-family="Helvetica,sans-Serif" font-size="10.00" fill="#000000">output/&lt;SAMPLE_ID&gt;/pos_sp_rpf_norm_reads.pdf</text>
<text text-anchor="middle" x="684" y="-259" font-family="Helvetica,sans-Serif" font-size="10.00" fill="#000000">&#13;</text>
<text text-anchor="middle" x="684" y="-247" font-family="Helvetica,sans-Serif" font-size="10.00" fill="#000000">output/&lt;SAMPLE_ID&gt;/features.pdf</text>
<text text-anchor="middle" x="684" y="-235" font-family="Helvetica,sans-Serif" font-size="10.00" fill="#000000">&#13;</text>
<text text-anchor="middle" x="684" y="-223" font-family="Helvetica,sans-Serif" font-size="10.00" fill="#000000">output/&lt;SAMPLE_ID&gt;/startcodon_ribogridbar.pdf</text>
<text text-anchor="middle" x="684" y="-211" font-family="Helvetica,sans-Serif" font-size="10.00" fill="#000000">&#13;</text>
<text text-anchor="middle" x="684" y="-199" font-family="Helvetica,sans-Serif" font-size="10.00" fill="#000000">output/&lt;SAMPLE_ID&gt;/startcodon_ribogrid.pdf</text>
<text text-anchor="middle" x="684" y="-187" font-family="Helvetica,sans-Serif" font-size="10.00" fill="#000000">&#13;</text>
<text text-anchor="middle" x="684" y="-175" font-family="Helvetica,sans-Serif" font-size="10.00" fill="#000000">output/&lt;SAMPLE_ID&gt;/3ntframe_propbygene.pdf&#13;</text>
</g>
<!-- statsfigs&#45;&gt;pdfs -->
<g id="edge46" class="edge">
<title>statsfigs&#45;&gt;pdfs</title>
<path fill="none" stroke="#000000" d="M1103.1536,-404.387C1022.9935,-395.9501 880.0709,-378.8622 814.5852,-355.7232"/>
<polygon fill="#000000" stroke="#000000" points="815.7219,-352.4108 805.1313,-352.1122 813.2242,-358.95 815.7219,-352.4108"/>
</g>
<!-- tsvs -->
<g id="node48" class="node">
<title>tsvs</title>
<polygon fill="none" stroke="#000000" stroke-dasharray="5,2" points="1064.571,-332 823.429,-332 823.429,-192 1064.571,-192 1064.571,-332"/>
<text text-anchor="middle" x="944" y="-319" font-family="Helvetica,sans-Serif" font-size="10.00" fill="#000000">output/&lt;SAMPLE_ID&gt;/3nt_periodicity.tsv</text>
<text text-anchor="middle" x="944" y="-307" font-family="Helvetica,sans-Serif" font-size="10.00" fill="#000000">&#13;</text>
<text text-anchor="middle" x="944" y="-295" font-family="Helvetica,sans-Serif" font-size="10.00" fill="#000000">output/&lt;SAMPLE_ID&gt;/codon_ribodens.tsv</text>
<text text-anchor="middle" x="944" y="-283" font-family="Helvetica,sans-Serif" font-size="10.00" fill="#000000">&#13;</text>
<text text-anchor="middle" x="944" y="-271" font-family="Helvetica,sans-Serif" font-size="10.00" fill="#000000">output/&lt;SAMPLE_ID&gt;/read_lengths.tsv</text>
<text text-anchor="middle" x="944" y="-259" font-family="Helvetica,sans-Serif" font-size="10.00" fill="#000000">&#13;</text>
<text text-anchor="middle" x="944" y="-247" font-family="Helvetica,sans-Serif" font-size="10.00" fill="#000000">output/&lt;SAMPLE_ID&gt;/pos_sp_rpf_norm_reads.tsv</text>
<text text-anchor="middle" x="944" y="-235" font-family="Helvetica,sans-Serif" font-size="10.00" fill="#000000">&#13;</text>
<text text-anchor="middle" x="944" y="-223" font-family="Helvetica,sans-Serif" font-size="10.00" fill="#000000">output/&lt;SAMPLE_ID&gt;/pos_sp_nt_freq.tsv</text>
<text text-anchor="middle" x="944" y="-211" font-family="Helvetica,sans-Serif" font-size="10.00" fill="#000000">&#13;</text>
<text text-anchor="middle" x="944" y="-199" font-family="Helvetica,sans-Serif" font-size="10.00" fill="#000000">output/&lt;SAMPLE_ID&gt;/3ntframe_bygene.tsv&#13;</text>
</g>
<!-- statsfigs&#45;&gt;tsvs -->
<g id="edge47" class="edge">
<title>statsfigs&#45;&gt;tsvs</title>
<path fill="none" stroke="#000000" d="M1130.2396,-391.9763C1113.5376,-381.6964 1092.4165,-368.4209 1074,-356 1065.4258,-350.2172 1056.6038,-344.1343 1047.7864,-337.96"/>
<polygon fill="#000000" stroke="#000000" points="1049.5348,-334.9106 1039.3422,-332.0191 1045.5069,-340.6357 1049.5348,-334.9106"/>
</g>
<!-- output/&lt;SAMPLE_ID&gt;/tpms.tsv -->
<g id="node49" class="node">
<title>output/&lt;SAMPLE_ID&gt;/tpms.tsv</title>
<text text-anchor="middle" x="1160" y="-259" font-family="Helvetica,sans-Serif" font-size="10.00" fill="#000000">output/&lt;SAMPLE_ID&gt;/tpms.tsv</text>
</g>
<!-- statsfigs&#45;&gt;output/&lt;SAMPLE_ID&gt;/tpms.tsv -->
<g id="edge48" class="edge">
<title>statsfigs&#45;&gt;output/&lt;SAMPLE_ID&gt;/tpms.tsv</title>
<path fill="none" stroke="#000000" d="M1160,-391.8523C1160,-366.5539 1160,-320.4342 1160,-290.5167"/>
<polygon fill="#000000" stroke="#000000" points="1163.5001,-290.2961 1160,-280.2961 1156.5001,-290.2962 1163.5001,-290.2961"/>
</g>
<!-- tmp/&lt;SAMPLE_ID&gt;/trim.fq&#45;&gt;umi_extract -->
<g id="edge7" class="edge">
<title>tmp/&lt;SAMPLE_ID&gt;/trim.fq&#45;&gt;umi_extract</title>
<path fill="none" stroke="#000000" d="M1152,-1759.8314C1152,-1752.131 1152,-1742.9743 1152,-1734.4166"/>
<polygon fill="#000000" stroke="#000000" points="1155.5001,-1734.4132 1152,-1724.4133 1148.5001,-1734.4133 1155.5001,-1734.4132"/>
</g>
<!-- tmp/&lt;SAMPLE_ID&gt;/extract_trim.fq&#45;&gt;h21 -->
<g id="edge9" class="edge">
<title>tmp/&lt;SAMPLE_ID&gt;/extract_trim.fq&#45;&gt;h21</title>
<path fill="none" stroke="#000000" d="M1152.2523,-1615.8314C1152.3593,-1608.131 1152.4865,-1598.9743 1152.6053,-1590.4166"/>
<polygon fill="#000000" stroke="#000000" points="1156.1049,-1590.4609 1152.7443,-1580.4133 1149.1056,-1590.3637 1156.1049,-1590.4609"/>
</g>
<!-- tmp/&lt;SAMPLE_ID&gt;/nonrRNA.fq&#45;&gt;h22 -->
<g id="edge14" class="edge">
<title>tmp/&lt;SAMPLE_ID&gt;/nonrRNA.fq&#45;&gt;h22</title>
<path fill="none" stroke="#000000" d="M1154,-1471.8314C1154,-1464.131 1154,-1454.9743 1154,-1446.4166"/>
<polygon fill="#000000" stroke="#000000" points="1157.5001,-1446.4132 1154,-1436.4133 1150.5001,-1446.4133 1157.5001,-1446.4132"/>
</g>
<!-- tmp/&lt;SAMPLE_ID&gt;/orf_map.sam&#45;&gt;trim -->
<g id="edge17" class="edge">
<title>tmp/&lt;SAMPLE_ID&gt;/orf_map.sam&#45;&gt;trim</title>
<path fill="none" stroke="#000000" d="M1133.5603,-1327.8314C1123.6795,-1319.0485 1111.6676,-1308.3712 1100.955,-1298.8489"/>
<polygon fill="#000000" stroke="#000000" points="1103.2326,-1296.1906 1093.4332,-1292.1628 1098.582,-1301.4224 1103.2326,-1296.1906"/>
</g>
<!-- tmp/&lt;SAMPLE_ID&gt;/orf_map_clean.sam&#45;&gt;samview -->
<g id="edge20" class="edge">
<title>tmp/&lt;SAMPLE_ID&gt;/orf_map_clean.sam&#45;&gt;samview</title>
<path fill="none" stroke="#000000" d="M1064.6727,-1183.8314C1061.027,-1175.8771 1056.6691,-1166.369 1052.6373,-1157.5723"/>
<polygon fill="#000000" stroke="#000000" points="1055.7877,-1156.0456 1048.4394,-1148.4133 1049.4243,-1158.9622 1055.7877,-1156.0456"/>
</g>
<!-- tmp/&lt;SAMPLE_ID&gt;/pre_dedup.bam&#45;&gt;samindex -->
<g id="edge22" class="edge">
<title>tmp/&lt;SAMPLE_ID&gt;/pre_dedup.bam&#45;&gt;samindex</title>
<path fill="none" stroke="#000000" d="M923.4385,-1039.8314C906.1119,-1030.4516 884.7942,-1018.9112 866.3464,-1008.9244"/>
<polygon fill="#000000" stroke="#000000" points="868.0111,-1005.8457 857.5508,-1004.1628 864.6786,-1012.0015 868.0111,-1005.8457"/>
</g>
<!-- tmp/&lt;SAMPLE_ID&gt;/pre_dedup.bam+.bai&#45;&gt;umi_pre_group -->
<g id="edge24" class="edge">
<title>tmp/&lt;SAMPLE_ID&gt;/pre_dedup.bam+.bai&#45;&gt;umi_pre_group</title>
<path fill="none" stroke="#000000" d="M648.6173,-895.9243C579.6804,-882.2884 487.4564,-864.0463 429.9013,-852.6618"/>
<polygon fill="#000000" stroke="#000000" points="430.4109,-849.1948 419.9218,-850.6878 429.0525,-856.0618 430.4109,-849.1948"/>
</g>
<!-- tmp/&lt;SAMPLE_ID&gt;/pre_dedup.bam+.bai&#45;&gt;umi_dedup -->
<g id="edge26" class="edge">
<title>tmp/&lt;SAMPLE_ID&gt;/pre_dedup.bam+.bai&#45;&gt;umi_dedup</title>
<path fill="none" stroke="#000000" d="M740,-895.8314C740,-888.131 740,-878.9743 740,-870.4166"/>
<polygon fill="#000000" stroke="#000000" points="743.5001,-870.4132 740,-860.4133 736.5001,-870.4133 743.5001,-870.4132"/>
</g>
<!-- output/&lt;SAMPLE_ID&gt;/&lt;SAMPLE_ID&gt;.bam&#45;&gt;samindex_dedup -->
<g id="edge31" class="edge">
<title>output/&lt;SAMPLE_ID&gt;/&lt;SAMPLE_ID&gt;.bam&#45;&gt;samindex_dedup</title>
<path fill="none" stroke="#000000" d="M1105.4947,-751.8314C1091.682,-742.7074 1074.7744,-731.539 1059.9471,-721.7449"/>
<polygon fill="#000000" stroke="#000000" points="1061.7696,-718.7541 1051.4965,-716.1628 1057.9114,-724.5949 1061.7696,-718.7541"/>
</g>
<!-- output/&lt;SAMPLE_ID&gt;/&lt;SAMPLE_ID&gt;.bam+.bai&#45;&gt;umi_post_group -->
<g id="edge33" class="edge">
<title>output/&lt;SAMPLE_ID&gt;/&lt;SAMPLE_ID&gt;.bam+.bai&#45;&gt;umi_post_group</title>
<path fill="none" stroke="#000000" d="M916,-607.8314C916,-600.131 916,-590.9743 916,-582.4166"/>
<polygon fill="#000000" stroke="#000000" points="919.5001,-582.4132 916,-572.4133 912.5001,-582.4133 919.5001,-582.4132"/>
</g>
<!-- output/&lt;SAMPLE_ID&gt;/&lt;SAMPLE_ID&gt;.bam+.bai&#45;&gt;bedplus -->
<g id="edge35" class="edge">
<title>output/&lt;SAMPLE_ID&gt;/&lt;SAMPLE_ID&gt;.bam+.bai&#45;&gt;bedplus</title>
<path fill="none" stroke="#000000" d="M824.3662,-607.9243C761.9136,-595.6049 680.4008,-579.5256 622.6844,-568.1405"/>
<polygon fill="#000000" stroke="#000000" points="623.0432,-564.6439 612.5549,-566.1423 621.6884,-571.5115 623.0432,-564.6439"/>
</g>
<!-- output/&lt;SAMPLE_ID&gt;/&lt;SAMPLE_ID&gt;.bam+.bai&#45;&gt;bedminus -->
<g id="edge37" class="edge">
<title>output/&lt;SAMPLE_ID&gt;/&lt;SAMPLE_ID&gt;.bam+.bai&#45;&gt;bedminus</title>
<path fill="none" stroke="#000000" d="M873.1018,-607.8314C850.2643,-598.159 822.002,-586.1891 797.9313,-575.9944"/>
<polygon fill="#000000" stroke="#000000" points="799.1629,-572.7151 788.5897,-572.038 796.4329,-579.1608 799.1629,-572.7151"/>
</g>
<!-- output/&lt;SAMPLE_ID&gt;/&lt;SAMPLE_ID&gt;.bam+.bai&#45;&gt;bam2h5 -->
<g id="edge39" class="edge">
<title>output/&lt;SAMPLE_ID&gt;/&lt;SAMPLE_ID&gt;.bam+.bai&#45;&gt;bam2h5</title>
<path fill="none" stroke="#000000" d="M971.7334,-607.9243C1008.0891,-596.1333 1055.0644,-580.898 1089.8055,-569.6307"/>
<polygon fill="#000000" stroke="#000000" points="1091.2815,-572.8315 1099.7139,-566.4171 1089.1219,-566.1729 1091.2815,-572.8315"/>
</g>
<!-- output/&lt;SAMPLE_ID&gt;/&lt;SAMPLE_ID&gt;.h5&#45;&gt;statsfigs -->
<g id="edge42" class="edge">
<title>output/&lt;SAMPLE_ID&gt;/&lt;SAMPLE_ID&gt;.h5&#45;&gt;statsfigs</title>
<path fill="none" stroke="#000000" d="M1143.5515,-463.8314C1145.9303,-456.0463 1148.7638,-446.7729 1151.4033,-438.1347"/>
<polygon fill="#000000" stroke="#000000" points="1154.7987,-438.9996 1154.3737,-428.4133 1148.1042,-436.954 1154.7987,-438.9996"/>
</g>
<!-- collate -->
<g id="node50" class="node">
<title>collate</title>
<polygon fill="none" stroke="#000000" points="1201.1181,-124 1118.8819,-124 1118.8819,-88 1201.1181,-88 1201.1181,-124"/>
<text text-anchor="middle" x="1160" y="-103" font-family="Helvetica,sans-Serif" font-size="10.00" fill="#000000">collate_tpms.R</text>
</g>
<!-- output/&lt;SAMPLE_ID&gt;/tpms.tsv&#45;&gt;collate -->
<g id="edge49" class="edge">
<title>output/&lt;SAMPLE_ID&gt;/tpms.tsv&#45;&gt;collate</title>
<path fill="none" stroke="#000000" d="M1160,-243.7995C1160,-216.9103 1160,-166.3255 1160,-134.4926"/>
<polygon fill="#000000" stroke="#000000" points="1163.5001,-134.0845 1160,-124.0846 1156.5001,-134.0846 1163.5001,-134.0845"/>
</g>
<!-- output/TPMs_collated.tsv -->
<g id="node51" class="node">
<title>output/TPMs_collated.tsv</title>
<text text-anchor="middle" x="1160" y="-31" font-family="Helvetica,sans-Serif" font-size="10.00" fill="#000000">output/TPMs_collated.tsv</text>
</g>
<!-- collate&#45;&gt;output/TPMs_collated.tsv -->
<g id="edge50" class="edge">
<title>collate&#45;&gt;output/TPMs_collated.tsv</title>
<path fill="none" stroke="#000000" d="M1160,-87.8314C1160,-80.131 1160,-70.9743 1160,-62.4166"/>
<polygon fill="#000000" stroke="#000000" points="1163.5001,-62.4132 1160,-52.4133 1156.5001,-62.4133 1163.5001,-62.4132"/>
</g>
</g>
</svg>
