<?xml version="1.0" encoding="UTF-8" standalone="no"?>
<!DOCTYPE svg PUBLIC "-//W3C//DTD SVG 1.1//EN"
 "http://www.w3.org/Graphics/SVG/1.1/DTD/svg11.dtd">
<!-- Generated by graphviz version 2.40.1 (20161225.0304)
 -->
<!-- Title: G Pages: 1 -->
<svg width="1271pt" height="2236pt"
 viewBox="0.00 0.00 1270.59 2236.00" xmlns="http://www.w3.org/2000/svg" xmlns:xlink="http://www.w3.org/1999/xlink">
<g id="graph0" class="graph" transform="scale(1 1) rotate(0) translate(4 2232)">
<title>G</title>
<polygon fill="#ffffff" stroke="transparent" points="-4,4 -4,-2232 1266.5915,-2232 1266.5915,4 -4,4"/>
<g id="clust1" class="cluster">
<title>cluster_data</title>
<polygon fill="none" stroke="#000000" stroke-dasharray="5,2" points="350.5915,-2056 350.5915,-2220 1238.5915,-2220 1238.5915,-2056 350.5915,-2056"/>
<text text-anchor="middle" x="369.1495" y="-2207" font-family="Helvetica,sans-Serif" font-size="10.00" fill="#000000">Data</text>
</g>
<g id="clust2" class="cluster">
<title>cluster_organism</title>
<polygon fill="none" stroke="#000000" stroke-dasharray="5,2" points="844.5915,-2092 844.5915,-2164 1032.5915,-2164 1032.5915,-2092 844.5915,-2092"/>
<text text-anchor="middle" x="885.3755" y="-2151" font-family="Helvetica,sans-Serif" font-size="10.00" fill="#000000">Organism data</text>
</g>
<g id="clust3" class="cluster">
<title>cluster_contaminants</title>
<polygon fill="none" stroke="#000000" stroke-dasharray="5,2" points="750.5915,-2092 750.5915,-2164 836.5915,-2164 836.5915,-2092 750.5915,-2092"/>
<text text-anchor="middle" x="789.431" y="-2151" font-family="Helvetica,sans-Serif" font-size="10.00" fill="#000000">Contaminants</text>
</g>
<g id="clust4" class="cluster">
<title>cluster_additional_organism</title>
<polygon fill="none" stroke="#000000" stroke-dasharray="5,2" points="1040.5915,-2064 1040.5915,-2192 1230.5915,-2192 1230.5915,-2064 1040.5915,-2064"/>
<text text-anchor="middle" x="1121.937" y="-2179" font-family="Helvetica,sans-Serif" font-size="10.00" fill="#000000">Additional organism&#45;specific data</text>
</g>
<g id="clust5" class="cluster">
<title>cluster_ribosome</title>
<polygon fill="none" stroke="#000000" stroke-dasharray="5,2" points="358.5915,-2092 358.5915,-2164 742.5915,-2164 742.5915,-2092 358.5915,-2092"/>
<text text-anchor="middle" x="419.1005" y="-2151" font-family="Helvetica,sans-Serif" font-size="10.00" fill="#000000">Ribosome profiling data</text>
</g>
<g id="clust6" class="cluster">
<title>cluster_indexing</title>
<polygon fill="none" stroke="#000000" points="722.5915,-1616 722.5915,-1760 976.5915,-1760 976.5915,-1616 722.5915,-1616"/>
<text text-anchor="middle" x="749.488" y="-1747" font-family="Helvetica,sans-Serif" font-size="10.00" fill="#000000">Indexing</text>
</g>
<g id="clust7" class="cluster">
<title>cluster_demultiplexing</title>
<polygon fill="none" stroke="#000000" points="80.5915,-1616 80.5915,-2048 714.5915,-2048 714.5915,-1616 80.5915,-1616"/>
<text text-anchor="middle" x="121.37" y="-2035" font-family="Helvetica,sans-Serif" font-size="10.00" fill="#000000">Demultiplexing</text>
</g>
<g id="clust8" class="cluster">
<title>cluster_per_sample_processing</title>
<polygon fill="none" stroke="#000000" points="61.5915,-160 61.5915,-1608 1166.5915,-1608 1166.5915,-160 61.5915,-160"/>
<text text-anchor="middle" x="122.9385" y="-1595" font-family="Helvetica,sans-Serif" font-size="10.00" fill="#000000">Process &lt;SAMPLE_ID&gt;</text>
</g>
<g id="clust9" class="cluster">
<title>cluster_tpms_collation</title>
<polygon fill="none" stroke="#000000" points="972.5915,-8 972.5915,-152 1116.5915,-152 1116.5915,-8 972.5915,-8"/>
<text text-anchor="middle" x="1013.3705" y="-139" font-family="Helvetica,sans-Serif" font-size="10.00" fill="#000000">TPMs collation</text>
</g>
<!-- input/CDS.fa -->
<g id="node1" class="node">
<title>input/CDS.fa</title>
<text text-anchor="middle" x="888.5915" y="-2115" font-family="Helvetica,sans-Serif" font-size="10.00" fill="#000000">input/CDS.fa</text>
</g>
<!-- h2build2 -->
<g id="node8" class="node">
<title>h2build2</title>
<polygon fill="none" stroke="#000000" points="946.2106,-1732 878.9724,-1732 878.9724,-1696 946.2106,-1696 946.2106,-1732"/>
<text text-anchor="middle" x="912.5915" y="-1711" font-family="Helvetica,sans-Serif" font-size="10.00" fill="#000000">hisat2&#45;build</text>
</g>
<!-- input/CDS.fa&#45;&gt;h2build2 -->
<g id="edge3" class="edge">
<title>input/CDS.fa&#45;&gt;h2build2</title>
<path fill="none" stroke="#000000" d="M889.8768,-2099.8624C892.1383,-2066.3371 896.5915,-1992.3967 896.5915,-1930 896.5915,-1930 896.5915,-1930 896.5915,-1858 896.5915,-1817.6291 902.8803,-1771.2789 907.5726,-1742.3146"/>
<polygon fill="#000000" stroke="#000000" points="911.081,-1742.5537 909.2763,-1732.1137 904.1767,-1741.4004 911.081,-1742.5537"/>
</g>
<!-- statsfigs -->
<g id="node30" class="node">
<title>statsfigs</title>
<polygon fill="none" stroke="#000000" points="1030.3438,-428 916.8392,-428 916.8392,-392 1030.3438,-392 1030.3438,-428"/>
<text text-anchor="middle" x="973.5915" y="-407" font-family="Helvetica,sans-Serif" font-size="10.00" fill="#000000">generate_stats_figs.R</text>
</g>
<!-- input/CDS.fa&#45;&gt;statsfigs -->
<g id="edge43" class="edge">
<title>input/CDS.fa&#45;&gt;statsfigs</title>
<path fill="none" stroke="#000000" d="M880.2805,-2099.8824C872.3912,-2085.0751 858.9988,-2065.1481 840.5915,-2056 821.5858,-2046.5545 93.5324,-2060.7842 76.5915,-2048 32.9266,-2015.0489 41.5915,-1984.7028 41.5915,-1930 41.5915,-1930 41.5915,-1930 41.5915,-554 41.5915,-466.4088 692.8369,-424.6343 906.5505,-413.2838"/>
<polygon fill="#000000" stroke="#000000" points="906.8913,-416.7708 916.6937,-412.7505 906.5237,-409.7804 906.8913,-416.7708"/>
</g>
<!-- input/CDS.gff3 -->
<g id="node2" class="node">
<title>input/CDS.gff3</title>
<text text-anchor="middle" x="983.5915" y="-2115" font-family="Helvetica,sans-Serif" font-size="10.00" fill="#000000">input/CDS.gff3</text>
</g>
<!-- bam2h5 -->
<g id="node29" class="node">
<title>bam2h5</title>
<polygon fill="none" stroke="#000000" points="1011.6105,-572 935.5725,-572 935.5725,-536 1011.6105,-536 1011.6105,-572"/>
<text text-anchor="middle" x="973.5915" y="-551" font-family="Helvetica,sans-Serif" font-size="10.00" fill="#000000">bam_to_h5.R</text>
</g>
<!-- input/CDS.gff3&#45;&gt;bam2h5 -->
<g id="edge40" class="edge">
<title>input/CDS.gff3&#45;&gt;bam2h5</title>
<path fill="none" stroke="#000000" d="M997.7038,-2099.9441C1007.9817,-2087.1917 1022.5127,-2069.9578 1036.5915,-2056 1098.4216,-1994.7016 1186.5915,-2017.0657 1186.5915,-1930 1186.5915,-1930 1186.5915,-1930 1186.5915,-698 1186.5915,-618.7676 1084.1878,-580.1801 1021.3887,-563.9655"/>
<polygon fill="#000000" stroke="#000000" points="1022.2204,-560.5658 1011.6716,-561.5525 1020.5333,-567.3595 1022.2204,-560.5658"/>
</g>
<!-- input/CDS.gff3&#45;&gt;statsfigs -->
<g id="edge44" class="edge">
<title>input/CDS.gff3&#45;&gt;statsfigs</title>
<path fill="none" stroke="#000000" d="M993.6322,-2099.951C1002.7866,-2085.3968 1017.7431,-2065.7941 1036.5915,-2056 1069.8692,-2038.708 1087.184,-2065.0399 1120.5915,-2048 1182.8651,-2016.2366 1224.5915,-1999.9065 1224.5915,-1930 1224.5915,-1930 1224.5915,-1930 1224.5915,-554 1224.5915,-468.9525 1114.8315,-433.4155 1040.4756,-419.0989"/>
<polygon fill="#000000" stroke="#000000" points="1040.7017,-415.5819 1030.2338,-417.2167 1039.4364,-422.4666 1040.7017,-415.5819"/>
</g>
<!-- input/rRNA.fa -->
<g id="node3" class="node">
<title>input/rRNA.fa</title>
<text text-anchor="middle" x="793.5915" y="-2115.3" font-family="Helvetica,sans-Serif" font-size="9.00" fill="#000000">input/rRNA.fa</text>
</g>
<!-- h2build1 -->
<g id="node7" class="node">
<title>h2build1</title>
<polygon fill="none" stroke="#000000" points="824.2106,-1732 756.9724,-1732 756.9724,-1696 824.2106,-1696 824.2106,-1732"/>
<text text-anchor="middle" x="790.5915" y="-1711" font-family="Helvetica,sans-Serif" font-size="10.00" fill="#000000">hisat2&#45;build</text>
</g>
<!-- input/rRNA.fa&#45;&gt;h2build1 -->
<g id="edge1" class="edge">
<title>input/rRNA.fa&#45;&gt;h2build1</title>
<path fill="none" stroke="#000000" d="M793.2702,-2099.8522C792.7048,-2066.3103 791.5915,-1992.3438 791.5915,-1930 791.5915,-1930 791.5915,-1930 791.5915,-1858 791.5915,-1817.875 791.1984,-1771.4624 790.9052,-1742.4173"/>
<polygon fill="#000000" stroke="#000000" points="794.4027,-1742.1481 790.7987,-1732.1851 787.403,-1742.221 794.4027,-1742.1481"/>
</g>
<!-- data -->
<g id="node4" class="node">
<title>data</title>
<polygon fill="none" stroke="#000000" stroke-dasharray="5,2" points="1222.4306,-2164 1048.7524,-2164 1048.7524,-2072 1222.4306,-2072 1222.4306,-2164"/>
<text text-anchor="middle" x="1135.5915" y="-2151" font-family="Helvetica,sans-Serif" font-size="10.00" fill="#000000">data/codon_pos_i200.RData</text>
<text text-anchor="middle" x="1135.5915" y="-2127" font-family="Helvetica,sans-Serif" font-size="10.00" fill="#000000">data/features.tsv</text>
<text text-anchor="middle" x="1135.5915" y="-2103" font-family="Helvetica,sans-Serif" font-size="10.00" fill="#000000">data/tRNAs.tsv</text>
<text text-anchor="middle" x="1135.5915" y="-2079" font-family="Helvetica,sans-Serif" font-size="10.00" fill="#000000">data/standard_asite_disp_length.txt</text>
</g>
<!-- data&#45;&gt;statsfigs -->
<g id="edge45" class="edge">
<title>data&#45;&gt;statsfigs</title>
<path fill="none" stroke="#000000" d="M1189.4509,-2071.8931C1224.0648,-2036.9287 1262.5915,-1985.5375 1262.5915,-1930 1262.5915,-1930 1262.5915,-1930 1262.5915,-554 1262.5915,-455.2882 1125.8513,-424.2424 1040.4868,-414.4787"/>
<polygon fill="#000000" stroke="#000000" points="1040.6601,-410.9773 1030.3438,-413.3904 1039.9133,-417.9374 1040.6601,-410.9773"/>
</g>
<!-- input/&lt;FASTQ_FILE_NAME_PREFIX&gt;.fastq.gz -->
<g id="node5" class="node">
<title>input/&lt;FASTQ_FILE_NAME_PREFIX&gt;.fastq.gz</title>
<text text-anchor="middle" x="621.5915" y="-2115" font-family="Helvetica,sans-Serif" font-size="10.00" fill="#000000">input/&lt;FASTQ_FILE_NAME_PREFIX&gt;.fastq.gz</text>
</g>
<!-- cut -->
<g id="node11" class="node">
<title>cut</title>
<polygon fill="none" stroke="#000000" points="614.9457,-2020 560.2373,-2020 560.2373,-1984 614.9457,-1984 614.9457,-2020"/>
<text text-anchor="middle" x="587.5915" y="-1999" font-family="Helvetica,sans-Serif" font-size="10.00" fill="#000000">cutadapt</text>
</g>
<!-- input/&lt;FASTQ_FILE_NAME_PREFIX&gt;.fastq.gz&#45;&gt;cut -->
<g id="edge5" class="edge">
<title>input/&lt;FASTQ_FILE_NAME_PREFIX&gt;.fastq.gz&#45;&gt;cut</title>
<path fill="none" stroke="#000000" d="M616.279,-2099.875C610.7971,-2081.172 602.1725,-2051.747 595.8101,-2030.0399"/>
<polygon fill="#000000" stroke="#000000" points="599.1504,-2028.9924 592.9789,-2020.3805 592.433,-2030.9613 599.1504,-2028.9924"/>
</g>
<!-- input/&lt;BARCODES&gt;.tsv -->
<g id="node6" class="node">
<title>input/&lt;BARCODES&gt;.tsv</title>
<text text-anchor="middle" x="428.5915" y="-2115" font-family="Helvetica,sans-Serif" font-size="10.00" fill="#000000">input/&lt;BARCODES&gt;.tsv</text>
</g>
<!-- demultiplex -->
<g id="node13" class="node">
<title>demultiplex</title>
<polygon fill="none" stroke="#000000" points="308.6529,-1732 242.5301,-1732 242.5301,-1696 308.6529,-1696 308.6529,-1732"/>
<text text-anchor="middle" x="275.5915" y="-1711" font-family="Helvetica,sans-Serif" font-size="10.00" fill="#000000">demultiplex</text>
</g>
<!-- input/&lt;BARCODES&gt;.tsv&#45;&gt;demultiplex -->
<g id="edge9" class="edge">
<title>input/&lt;BARCODES&gt;.tsv&#45;&gt;demultiplex</title>
<path fill="none" stroke="#000000" d="M366.4193,-2115.4827C266.0675,-2110.0986 74.8341,-2093.9458 27.5915,-2048 -10.7745,-2010.6872 3.5915,-1983.5182 3.5915,-1930 3.5915,-1930 3.5915,-1930 3.5915,-1858 3.5915,-1755.8097 155.4055,-1725.9375 232.1968,-1717.3639"/>
<polygon fill="#000000" stroke="#000000" points="232.9271,-1720.8069 242.5109,-1716.2902 232.2022,-1713.8445 232.9271,-1720.8069"/>
</g>
<!-- index/rRNA.1|...|8.ht2 -->
<g id="node9" class="node">
<title>index/rRNA.1|...|8.ht2</title>
<text text-anchor="middle" x="786.5915" y="-1639" font-family="Helvetica,sans-Serif" font-size="10.00" fill="#000000">index/rRNA.1|...|8.ht2</text>
</g>
<!-- h2build1&#45;&gt;index/rRNA.1|...|8.ht2 -->
<g id="edge2" class="edge">
<title>h2build1&#45;&gt;index/rRNA.1|...|8.ht2</title>
<path fill="none" stroke="#000000" d="M789.5821,-1695.8314C789.1543,-1688.131 788.6456,-1678.9743 788.1702,-1670.4166"/>
<polygon fill="#000000" stroke="#000000" points="791.6639,-1670.2037 787.6145,-1660.4133 784.6746,-1670.592 791.6639,-1670.2037"/>
</g>
<!-- index/CDS.1|...|8.ht2 -->
<g id="node10" class="node">
<title>index/CDS.1|...|8.ht2</title>
<text text-anchor="middle" x="914.5915" y="-1639" font-family="Helvetica,sans-Serif" font-size="10.00" fill="#000000">index/CDS.1|...|8.ht2</text>
</g>
<!-- h2build2&#45;&gt;index/CDS.1|...|8.ht2 -->
<g id="edge4" class="edge">
<title>h2build2&#45;&gt;index/CDS.1|...|8.ht2</title>
<path fill="none" stroke="#000000" d="M913.0962,-1695.8314C913.3101,-1688.131 913.5644,-1678.9743 913.8021,-1670.4166"/>
<polygon fill="#000000" stroke="#000000" points="917.3009,-1670.5066 914.08,-1660.4133 910.3036,-1670.3122 917.3009,-1670.5066"/>
</g>
<!-- h21 -->
<g id="node18" class="node">
<title>h21</title>
<polygon fill="none" stroke="#000000" points="682.5915,-1580 628.5915,-1580 628.5915,-1544 682.5915,-1544 682.5915,-1580"/>
<text text-anchor="middle" x="655.5915" y="-1559" font-family="Helvetica,sans-Serif" font-size="10.00" fill="#000000">hisat2</text>
</g>
<!-- index/rRNA.1|...|8.ht2&#45;&gt;h21 -->
<g id="edge14" class="edge">
<title>index/rRNA.1|...|8.ht2&#45;&gt;h21</title>
<path fill="none" stroke="#000000" d="M756.8656,-1623.8468C737.5327,-1612.0404 712.2017,-1596.5711 691.7102,-1584.0572"/>
<polygon fill="#000000" stroke="#000000" points="693.3248,-1580.9422 682.9662,-1578.7173 689.6764,-1586.9163 693.3248,-1580.9422"/>
</g>
<!-- h22 -->
<g id="node19" class="node">
<title>h22</title>
<polygon fill="none" stroke="#000000" points="536.5915,-1436 482.5915,-1436 482.5915,-1400 536.5915,-1400 536.5915,-1436"/>
<text text-anchor="middle" x="509.5915" y="-1415" font-family="Helvetica,sans-Serif" font-size="10.00" fill="#000000">hisat2</text>
</g>
<!-- index/CDS.1|...|8.ht2&#45;&gt;h22 -->
<g id="edge17" class="edge">
<title>index/CDS.1|...|8.ht2&#45;&gt;h22</title>
<path fill="none" stroke="#000000" d="M918.9116,-1623.9151C926.0108,-1589.2385 935.6589,-1513.1926 895.5915,-1472 871.4287,-1447.1586 638.7641,-1427.4956 546.7626,-1420.6303"/>
<polygon fill="#000000" stroke="#000000" points="547.0026,-1417.1386 536.7723,-1419.894 546.488,-1424.1196 547.0026,-1417.1386"/>
</g>
<!-- tmp/&lt;FASTQ_FILE_NAME_PREFIX&gt;_trim.fastq.gz -->
<g id="node14" class="node">
<title>tmp/&lt;FASTQ_FILE_NAME_PREFIX&gt;_trim.fastq.gz</title>
<text text-anchor="middle" x="561.5915" y="-1927" font-family="Helvetica,sans-Serif" font-size="10.00" fill="#000000">tmp/&lt;FASTQ_FILE_NAME_PREFIX&gt;_trim.fastq.gz</text>
</g>
<!-- cut&#45;&gt;tmp/&lt;FASTQ_FILE_NAME_PREFIX&gt;_trim.fastq.gz -->
<g id="edge6" class="edge">
<title>cut&#45;&gt;tmp/&lt;FASTQ_FILE_NAME_PREFIX&gt;_trim.fastq.gz</title>
<path fill="none" stroke="#000000" d="M581.0306,-1983.8314C578.1888,-1975.9617 574.7978,-1966.5712 571.6496,-1957.8533"/>
<polygon fill="#000000" stroke="#000000" points="574.9292,-1956.63 568.2407,-1948.4133 568.3453,-1959.0076 574.9292,-1956.63"/>
</g>
<!-- umi_extract -->
<g id="node12" class="node">
<title>umi_extract</title>
<polygon fill="none" stroke="#000000" points="431.1585,-1876 340.0245,-1876 340.0245,-1840 431.1585,-1840 431.1585,-1876"/>
<text text-anchor="middle" x="385.5915" y="-1855" font-family="Helvetica,sans-Serif" font-size="10.00" fill="#000000">umi_tools extract</text>
</g>
<!-- tmp/&lt;FASTQ_FILE_NAME_PREFIX&gt;_extract_trim.fastq.gz -->
<g id="node15" class="node">
<title>tmp/&lt;FASTQ_FILE_NAME_PREFIX&gt;_extract_trim.fastq.gz</title>
<text text-anchor="middle" x="363.5915" y="-1783" font-family="Helvetica,sans-Serif" font-size="10.00" fill="#000000">tmp/&lt;FASTQ_FILE_NAME_PREFIX&gt;_extract_trim.fastq.gz</text>
</g>
<!-- umi_extract&#45;&gt;tmp/&lt;FASTQ_FILE_NAME_PREFIX&gt;_extract_trim.fastq.gz -->
<g id="edge8" class="edge">
<title>umi_extract&#45;&gt;tmp/&lt;FASTQ_FILE_NAME_PREFIX&gt;_extract_trim.fastq.gz</title>
<path fill="none" stroke="#000000" d="M380.04,-1839.8314C377.6612,-1832.0463 374.8277,-1822.7729 372.1882,-1814.1347"/>
<polygon fill="#000000" stroke="#000000" points="375.4873,-1812.954 369.2178,-1804.4133 368.7928,-1814.9996 375.4873,-1812.954"/>
</g>
<!-- tmp/&lt;FASTQ_FILE_NAME_PREFIX&gt;_deplex/num_reads.tsv -->
<g id="node16" class="node">
<title>tmp/&lt;FASTQ_FILE_NAME_PREFIX&gt;_deplex/num_reads.tsv</title>
<text text-anchor="middle" x="231.5915" y="-1639" font-family="Helvetica,sans-Serif" font-size="10.00" fill="#000000">tmp/&lt;FASTQ_FILE_NAME_PREFIX&gt;_deplex/num_reads.tsv</text>
</g>
<!-- demultiplex&#45;&gt;tmp/&lt;FASTQ_FILE_NAME_PREFIX&gt;_deplex/num_reads.tsv -->
<g id="edge10" class="edge">
<title>demultiplex&#45;&gt;tmp/&lt;FASTQ_FILE_NAME_PREFIX&gt;_deplex/num_reads.tsv</title>
<path fill="none" stroke="#000000" d="M264.4884,-1695.8314C259.5241,-1687.7079 253.5693,-1677.9637 248.0987,-1669.0118"/>
<polygon fill="#000000" stroke="#000000" points="251.0451,-1667.121 242.8441,-1660.4133 245.0721,-1670.7712 251.0451,-1667.121"/>
</g>
<!-- tmp/&lt;FASTQ_FILE_NAME_PREFIX&gt;_deplex/&lt;SAMPLE_ID&gt;.fastq -->
<g id="node17" class="node">
<title>tmp/&lt;FASTQ_FILE_NAME_PREFIX&gt;_deplex/&lt;SAMPLE_ID&gt;.fastq</title>
<text text-anchor="middle" x="549.5915" y="-1639" font-family="Helvetica,sans-Serif" font-size="10.00" fill="#000000">tmp/&lt;FASTQ_FILE_NAME_PREFIX&gt;_deplex/&lt;SAMPLE_ID&gt;.fastq</text>
</g>
<!-- demultiplex&#45;&gt;tmp/&lt;FASTQ_FILE_NAME_PREFIX&gt;_deplex/&lt;SAMPLE_ID&gt;.fastq -->
<g id="edge12" class="edge">
<title>demultiplex&#45;&gt;tmp/&lt;FASTQ_FILE_NAME_PREFIX&gt;_deplex/&lt;SAMPLE_ID&gt;.fastq</title>
<path fill="none" stroke="#000000" d="M308.9153,-1705.2434C348.9258,-1694.7297 417.3476,-1676.7502 471.0338,-1662.6429"/>
<polygon fill="#000000" stroke="#000000" points="472.0944,-1665.9831 480.8766,-1660.0565 470.3154,-1659.2129 472.0944,-1665.9831"/>
</g>
<!-- tmp/&lt;FASTQ_FILE_NAME_PREFIX&gt;_trim.fastq.gz&#45;&gt;umi_extract -->
<g id="edge7" class="edge">
<title>tmp/&lt;FASTQ_FILE_NAME_PREFIX&gt;_trim.fastq.gz&#45;&gt;umi_extract</title>
<path fill="none" stroke="#000000" d="M517.1793,-1911.8314C493.4311,-1902.1162 464.0169,-1890.0831 439.0251,-1879.8592"/>
<polygon fill="#000000" stroke="#000000" points="440.2651,-1876.585 429.6844,-1876.038 437.6146,-1883.0638 440.2651,-1876.585"/>
</g>
<!-- tmp/&lt;FASTQ_FILE_NAME_PREFIX&gt;_extract_trim.fastq.gz&#45;&gt;demultiplex -->
<g id="edge11" class="edge">
<title>tmp/&lt;FASTQ_FILE_NAME_PREFIX&gt;_extract_trim.fastq.gz&#45;&gt;demultiplex</title>
<path fill="none" stroke="#000000" d="M341.3854,-1767.8314C330.5465,-1758.9632 317.3471,-1748.1637 305.6237,-1738.5718"/>
<polygon fill="#000000" stroke="#000000" points="307.7465,-1735.7864 297.7905,-1732.1628 303.3138,-1741.2041 307.7465,-1735.7864"/>
</g>
<!-- tmp/&lt;FASTQ_FILE_NAME_PREFIX&gt;_deplex/&lt;SAMPLE_ID&gt;.fastq&#45;&gt;h21 -->
<g id="edge13" class="edge">
<title>tmp/&lt;FASTQ_FILE_NAME_PREFIX&gt;_deplex/&lt;SAMPLE_ID&gt;.fastq&#45;&gt;h21</title>
<path fill="none" stroke="#000000" d="M573.6445,-1623.8468C588.4171,-1612.6977 607.5176,-1598.2822 623.5615,-1586.1736"/>
<polygon fill="#000000" stroke="#000000" points="625.7602,-1588.8992 631.6336,-1580.0814 621.5433,-1583.3118 625.7602,-1588.8992"/>
</g>
<!-- tmp/&lt;SAMPLE_ID&gt;/&lt;SAMPLE_ID&gt;_rRNA_map.sam -->
<g id="node31" class="node">
<title>tmp/&lt;SAMPLE_ID&gt;/&lt;SAMPLE_ID&gt;_rRNA_map.sam</title>
<text text-anchor="middle" x="761.5915" y="-1487" font-family="Helvetica,sans-Serif" font-size="10.00" fill="#000000">tmp/&lt;SAMPLE_ID&gt;/&lt;SAMPLE_ID&gt;_rRNA_map.sam</text>
</g>
<!-- h21&#45;&gt;tmp/&lt;SAMPLE_ID&gt;/&lt;SAMPLE_ID&gt;_rRNA_map.sam -->
<g id="edge15" class="edge">
<title>h21&#45;&gt;tmp/&lt;SAMPLE_ID&gt;/&lt;SAMPLE_ID&gt;_rRNA_map.sam</title>
<path fill="none" stroke="#000000" d="M682.3398,-1543.8314C695.6468,-1534.7927 711.9075,-1523.7476 726.229,-1514.0198"/>
<polygon fill="#000000" stroke="#000000" points="728.5462,-1516.677 734.8518,-1508.1628 724.613,-1510.8864 728.5462,-1516.677"/>
</g>
<!-- tmp/&lt;SAMPLE_ID&gt;/&lt;SAMPLE_ID&gt;_nonrRNA.fq -->
<g id="node32" class="node">
<title>tmp/&lt;SAMPLE_ID&gt;/&lt;SAMPLE_ID&gt;_nonrRNA.fq</title>
<text text-anchor="middle" x="502.5915" y="-1487" font-family="Helvetica,sans-Serif" font-size="10.00" fill="#000000">tmp/&lt;SAMPLE_ID&gt;/&lt;SAMPLE_ID&gt;_nonrRNA.fq</text>
</g>
<!-- h21&#45;&gt;tmp/&lt;SAMPLE_ID&gt;/&lt;SAMPLE_ID&gt;_nonrRNA.fq -->
<g id="edge16" class="edge">
<title>h21&#45;&gt;tmp/&lt;SAMPLE_ID&gt;/&lt;SAMPLE_ID&gt;_nonrRNA.fq</title>
<path fill="none" stroke="#000000" d="M628.5904,-1549.2936C606.9679,-1539.1183 576.0996,-1524.592 550.3285,-1512.4645"/>
<polygon fill="#000000" stroke="#000000" points="551.6296,-1509.2086 541.0911,-1508.1174 548.6489,-1515.5423 551.6296,-1509.2086"/>
</g>
<!-- tmp/&lt;SAMPLE_ID&gt;/&lt;SAMPLE_ID&gt;_unaligned.fq -->
<g id="node33" class="node">
<title>tmp/&lt;SAMPLE_ID&gt;/&lt;SAMPLE_ID&gt;_unaligned.fq</title>
<text text-anchor="middle" x="474.5915" y="-1343" font-family="Helvetica,sans-Serif" font-size="10.00" fill="#000000">tmp/&lt;SAMPLE_ID&gt;/&lt;SAMPLE_ID&gt;_unaligned.fq</text>
</g>
<!-- h22&#45;&gt;tmp/&lt;SAMPLE_ID&gt;/&lt;SAMPLE_ID&gt;_unaligned.fq -->
<g id="edge19" class="edge">
<title>h22&#45;&gt;tmp/&lt;SAMPLE_ID&gt;/&lt;SAMPLE_ID&gt;_unaligned.fq</title>
<path fill="none" stroke="#000000" d="M500.7595,-1399.8314C496.8929,-1391.8771 492.2709,-1382.369 487.9947,-1373.5723"/>
<polygon fill="#000000" stroke="#000000" points="491.0622,-1371.8768 483.5424,-1364.4133 484.7666,-1374.9371 491.0622,-1371.8768"/>
</g>
<!-- tmp/&lt;SAMPLE_ID&gt;/&lt;SAMPLE_ID&gt;_orf_map.sam -->
<g id="node34" class="node">
<title>tmp/&lt;SAMPLE_ID&gt;/&lt;SAMPLE_ID&gt;_orf_map.sam</title>
<text text-anchor="middle" x="728.5915" y="-1343" font-family="Helvetica,sans-Serif" font-size="10.00" fill="#000000">tmp/&lt;SAMPLE_ID&gt;/&lt;SAMPLE_ID&gt;_orf_map.sam</text>
</g>
<!-- h22&#45;&gt;tmp/&lt;SAMPLE_ID&gt;/&lt;SAMPLE_ID&gt;_orf_map.sam -->
<g id="edge20" class="edge">
<title>h22&#45;&gt;tmp/&lt;SAMPLE_ID&gt;/&lt;SAMPLE_ID&gt;_orf_map.sam</title>
<path fill="none" stroke="#000000" d="M536.8852,-1409.0267C568.4788,-1398.6398 621.5886,-1381.179 663.9064,-1367.2663"/>
<polygon fill="#000000" stroke="#000000" points="665.177,-1370.533 673.5836,-1364.0848 662.9907,-1363.8831 665.177,-1370.533"/>
</g>
<!-- samindex -->
<g id="node20" class="node">
<title>samindex</title>
<polygon fill="none" stroke="#000000" points="769.7711,-1004 687.4119,-1004 687.4119,-968 769.7711,-968 769.7711,-1004"/>
<text text-anchor="middle" x="728.5915" y="-983" font-family="Helvetica,sans-Serif" font-size="10.00" fill="#000000">samtools index</text>
</g>
<!-- output/&lt;SAMPLE_ID&gt;/&lt;SAMPLE_ID&gt;.bam+.bai -->
<g id="node39" class="node">
<title>output/&lt;SAMPLE_ID&gt;/&lt;SAMPLE_ID&gt;.bam+.bai</title>
<text text-anchor="middle" x="728.5915" y="-911" font-family="Helvetica,sans-Serif" font-size="10.00" fill="#000000">output/&lt;SAMPLE_ID&gt;/&lt;SAMPLE_ID&gt;.bam+.bai</text>
</g>
<!-- samindex&#45;&gt;output/&lt;SAMPLE_ID&gt;/&lt;SAMPLE_ID&gt;.bam+.bai -->
<g id="edge26" class="edge">
<title>samindex&#45;&gt;output/&lt;SAMPLE_ID&gt;/&lt;SAMPLE_ID&gt;.bam+.bai</title>
<path fill="none" stroke="#000000" d="M728.5915,-967.8314C728.5915,-960.131 728.5915,-950.9743 728.5915,-942.4166"/>
<polygon fill="#000000" stroke="#000000" points="732.0916,-942.4132 728.5915,-932.4133 725.0916,-942.4133 732.0916,-942.4132"/>
</g>
<!-- samview -->
<g id="node21" class="node">
<title>samview</title>
<polygon fill="none" stroke="#000000" points="801.979,-1148 655.204,-1148 655.204,-1112 801.979,-1112 801.979,-1148"/>
<text text-anchor="middle" x="728.5915" y="-1127" font-family="Helvetica,sans-Serif" font-size="10.00" fill="#000000">samtools view | samtools sort</text>
</g>
<!-- output/&lt;SAMPLE_ID&gt;/&lt;SAMPLE_ID&gt;.bam -->
<g id="node38" class="node">
<title>output/&lt;SAMPLE_ID&gt;/&lt;SAMPLE_ID&gt;.bam</title>
<text text-anchor="middle" x="728.5915" y="-1055" font-family="Helvetica,sans-Serif" font-size="10.00" fill="#000000">output/&lt;SAMPLE_ID&gt;/&lt;SAMPLE_ID&gt;.bam</text>
</g>
<!-- samview&#45;&gt;output/&lt;SAMPLE_ID&gt;/&lt;SAMPLE_ID&gt;.bam -->
<g id="edge24" class="edge">
<title>samview&#45;&gt;output/&lt;SAMPLE_ID&gt;/&lt;SAMPLE_ID&gt;.bam</title>
<path fill="none" stroke="#000000" d="M728.5915,-1111.8314C728.5915,-1104.131 728.5915,-1094.9743 728.5915,-1086.4166"/>
<polygon fill="#000000" stroke="#000000" points="732.0916,-1086.4132 728.5915,-1076.4133 725.0916,-1086.4133 732.0916,-1086.4132"/>
</g>
<!-- umi_pre_group -->
<g id="node22" class="node">
<title>umi_pre_group</title>
<polygon fill="none" stroke="#000000" points="325.2176,-860 237.9654,-860 237.9654,-824 325.2176,-824 325.2176,-860"/>
<text text-anchor="middle" x="281.5915" y="-839" font-family="Helvetica,sans-Serif" font-size="10.00" fill="#000000">umi_tools group</text>
</g>
<!-- tmp/&lt;SAMPLE_ID&gt;/&lt;SAMPLE_ID&gt;_pre_dedup_groups.tsv -->
<g id="node36" class="node">
<title>tmp/&lt;SAMPLE_ID&gt;/&lt;SAMPLE_ID&gt;_pre_dedup_groups.tsv</title>
<text text-anchor="middle" x="208.5915" y="-767" font-family="Helvetica,sans-Serif" font-size="10.00" fill="#000000">tmp/&lt;SAMPLE_ID&gt;/&lt;SAMPLE_ID&gt;_pre_dedup_groups.tsv</text>
</g>
<!-- umi_pre_group&#45;&gt;tmp/&lt;SAMPLE_ID&gt;/&lt;SAMPLE_ID&gt;_pre_dedup_groups.tsv -->
<g id="edge32" class="edge">
<title>umi_pre_group&#45;&gt;tmp/&lt;SAMPLE_ID&gt;/&lt;SAMPLE_ID&gt;_pre_dedup_groups.tsv</title>
<path fill="none" stroke="#000000" d="M263.1705,-823.8314C254.4386,-815.219 243.8598,-804.7851 234.3492,-795.4048"/>
<polygon fill="#000000" stroke="#000000" points="236.584,-792.6931 227.0066,-788.1628 231.6685,-797.6769 236.584,-792.6931"/>
</g>
<!-- umi_dedup -->
<g id="node23" class="node">
<title>umi_dedup</title>
<polygon fill="none" stroke="#000000" points="585.4482,-860 495.7348,-860 495.7348,-824 585.4482,-824 585.4482,-860"/>
<text text-anchor="middle" x="540.5915" y="-839" font-family="Helvetica,sans-Serif" font-size="10.00" fill="#000000">umi_tools dedup</text>
</g>
<!-- output/&lt;SAMPLE_ID&gt;/&lt;SAMPLE_ID&gt;_dedup.bam -->
<g id="node42" class="node">
<title>output/&lt;SAMPLE_ID&gt;/&lt;SAMPLE_ID&gt;_dedup.bam</title>
<text text-anchor="middle" x="486.5915" y="-767" font-family="Helvetica,sans-Serif" font-size="10.00" fill="#000000">output/&lt;SAMPLE_ID&gt;/&lt;SAMPLE_ID&gt;_dedup.bam</text>
</g>
<!-- umi_dedup&#45;&gt;output/&lt;SAMPLE_ID&gt;/&lt;SAMPLE_ID&gt;_dedup.bam -->
<g id="edge34" class="edge">
<title>umi_dedup&#45;&gt;output/&lt;SAMPLE_ID&gt;/&lt;SAMPLE_ID&gt;_dedup.bam</title>
<path fill="none" stroke="#000000" d="M526.965,-823.8314C520.7455,-815.5386 513.2593,-805.557 506.4315,-796.4533"/>
<polygon fill="#000000" stroke="#000000" points="509.2015,-794.3133 500.4014,-788.4133 503.6015,-798.5133 509.2015,-794.3133"/>
</g>
<!-- umi_post_group -->
<g id="node24" class="node">
<title>umi_post_group</title>
<polygon fill="none" stroke="#000000" points="530.2176,-716 442.9654,-716 442.9654,-680 530.2176,-680 530.2176,-716"/>
<text text-anchor="middle" x="486.5915" y="-695" font-family="Helvetica,sans-Serif" font-size="10.00" fill="#000000">umi_tools group</text>
</g>
<!-- tmp/&lt;SAMPLE_ID&gt;/&lt;SAMPLE_ID&gt;_post_dedup_groups.tsv -->
<g id="node37" class="node">
<title>tmp/&lt;SAMPLE_ID&gt;/&lt;SAMPLE_ID&gt;_post_dedup_groups.tsv</title>
<text text-anchor="middle" x="486.5915" y="-623" font-family="Helvetica,sans-Serif" font-size="10.00" fill="#000000">tmp/&lt;SAMPLE_ID&gt;/&lt;SAMPLE_ID&gt;_post_dedup_groups.tsv</text>
</g>
<!-- umi_post_group&#45;&gt;tmp/&lt;SAMPLE_ID&gt;/&lt;SAMPLE_ID&gt;_post_dedup_groups.tsv -->
<g id="edge36" class="edge">
<title>umi_post_group&#45;&gt;tmp/&lt;SAMPLE_ID&gt;/&lt;SAMPLE_ID&gt;_post_dedup_groups.tsv</title>
<path fill="none" stroke="#000000" d="M486.5915,-679.8314C486.5915,-672.131 486.5915,-662.9743 486.5915,-654.4166"/>
<polygon fill="#000000" stroke="#000000" points="490.0916,-654.4132 486.5915,-644.4133 483.0916,-654.4133 490.0916,-654.4132"/>
</g>
<!-- samindex_dedup -->
<g id="node25" class="node">
<title>samindex_dedup</title>
<polygon fill="none" stroke="#000000" points="724.7711,-716 642.4119,-716 642.4119,-680 724.7711,-680 724.7711,-716"/>
<text text-anchor="middle" x="683.5915" y="-695" font-family="Helvetica,sans-Serif" font-size="10.00" fill="#000000">samtools index</text>
</g>
<!-- output/&lt;SAMPLE_ID&gt;/&lt;SAMPLE_ID&gt;_dedup.bam+.bai -->
<g id="node43" class="node">
<title>output/&lt;SAMPLE_ID&gt;/&lt;SAMPLE_ID&gt;_dedup.bam+.bai</title>
<text text-anchor="middle" x="902.5915" y="-623" font-family="Helvetica,sans-Serif" font-size="10.00" fill="#000000">output/&lt;SAMPLE_ID&gt;/&lt;SAMPLE_ID&gt;_dedup.bam+.bai</text>
</g>
<!-- samindex_dedup&#45;&gt;output/&lt;SAMPLE_ID&gt;/&lt;SAMPLE_ID&gt;_dedup.bam+.bai -->
<g id="edge38" class="edge">
<title>samindex_dedup&#45;&gt;output/&lt;SAMPLE_ID&gt;/&lt;SAMPLE_ID&gt;_dedup.bam+.bai</title>
<path fill="none" stroke="#000000" d="M724.7837,-684.4574C756.631,-673.987 801.3135,-659.2969 837.9182,-647.2625"/>
<polygon fill="#000000" stroke="#000000" points="839.1163,-650.5529 847.5229,-644.1047 836.93,-643.9031 839.1163,-650.5529"/>
</g>
<!-- trim -->
<g id="node26" class="node">
<title>trim</title>
<polygon fill="none" stroke="#000000" points="784.0955,-1292 673.0875,-1292 673.0875,-1256 784.0955,-1256 784.0955,-1292"/>
<text text-anchor="middle" x="728.5915" y="-1271" font-family="Helvetica,sans-Serif" font-size="10.00" fill="#000000">trim_5p_mismatch.py</text>
</g>
<!-- tmp/&lt;SAMPLE_ID&gt;/&lt;SAMPLE_ID&gt;_orf_map_clean.sam -->
<g id="node35" class="node">
<title>tmp/&lt;SAMPLE_ID&gt;/&lt;SAMPLE_ID&gt;_orf_map_clean.sam</title>
<text text-anchor="middle" x="728.5915" y="-1199" font-family="Helvetica,sans-Serif" font-size="10.00" fill="#000000">tmp/&lt;SAMPLE_ID&gt;/&lt;SAMPLE_ID&gt;_orf_map_clean.sam</text>
</g>
<!-- trim&#45;&gt;tmp/&lt;SAMPLE_ID&gt;/&lt;SAMPLE_ID&gt;_orf_map_clean.sam -->
<g id="edge22" class="edge">
<title>trim&#45;&gt;tmp/&lt;SAMPLE_ID&gt;/&lt;SAMPLE_ID&gt;_orf_map_clean.sam</title>
<path fill="none" stroke="#000000" d="M728.5915,-1255.8314C728.5915,-1248.131 728.5915,-1238.9743 728.5915,-1230.4166"/>
<polygon fill="#000000" stroke="#000000" points="732.0916,-1230.4132 728.5915,-1220.4133 725.0916,-1230.4133 732.0916,-1230.4132"/>
</g>
<!-- bedplus -->
<g id="node27" class="node">
<title>bedplus</title>
<polygon fill="none" stroke="#000000" points="793.1234,-860 670.0596,-860 670.0596,-824 793.1234,-824 793.1234,-860"/>
<text text-anchor="middle" x="731.5915" y="-839" font-family="Helvetica,sans-Serif" font-size="10.00" fill="#000000">bedtools genomecov (+)</text>
</g>
<!-- output/&lt;SAMPLE_ID&gt;/&lt;SAMPLE_ID&gt;_plus.bedgraph -->
<g id="node40" class="node">
<title>output/&lt;SAMPLE_ID&gt;/&lt;SAMPLE_ID&gt;_plus.bedgraph</title>
<text text-anchor="middle" x="751.5915" y="-767" font-family="Helvetica,sans-Serif" font-size="10.00" fill="#000000">output/&lt;SAMPLE_ID&gt;/&lt;SAMPLE_ID&gt;_plus.bedgraph</text>
</g>
<!-- bedplus&#45;&gt;output/&lt;SAMPLE_ID&gt;/&lt;SAMPLE_ID&gt;_plus.bedgraph -->
<g id="edge28" class="edge">
<title>bedplus&#45;&gt;output/&lt;SAMPLE_ID&gt;/&lt;SAMPLE_ID&gt;_plus.bedgraph</title>
<path fill="none" stroke="#000000" d="M736.6383,-823.8314C738.8009,-816.0463 741.3768,-806.7729 743.7763,-798.1347"/>
<polygon fill="#000000" stroke="#000000" points="747.1725,-798.9852 746.4767,-788.4133 740.4279,-797.1117 747.1725,-798.9852"/>
</g>
<!-- bedminus -->
<g id="node28" class="node">
<title>bedminus</title>
<polygon fill="none" stroke="#000000" points="1017.1125,-860 896.0705,-860 896.0705,-824 1017.1125,-824 1017.1125,-860"/>
<text text-anchor="middle" x="956.5915" y="-839" font-family="Helvetica,sans-Serif" font-size="10.00" fill="#000000">bedtools genomecov (&#45;)</text>
</g>
<!-- output/&lt;SAMPLE_ID&gt;/&lt;SAMPLE_ID&gt;_minus.bedgraph -->
<g id="node41" class="node">
<title>output/&lt;SAMPLE_ID&gt;/&lt;SAMPLE_ID&gt;_minus.bedgraph</title>
<text text-anchor="middle" x="1027.5915" y="-767" font-family="Helvetica,sans-Serif" font-size="10.00" fill="#000000">output/&lt;SAMPLE_ID&gt;/&lt;SAMPLE_ID&gt;_minus.bedgraph</text>
</g>
<!-- bedminus&#45;&gt;output/&lt;SAMPLE_ID&gt;/&lt;SAMPLE_ID&gt;_minus.bedgraph -->
<g id="edge30" class="edge">
<title>bedminus&#45;&gt;output/&lt;SAMPLE_ID&gt;/&lt;SAMPLE_ID&gt;_minus.bedgraph</title>
<path fill="none" stroke="#000000" d="M974.5078,-823.8314C982.9357,-815.2848 993.1325,-804.9443 1002.3275,-795.6198"/>
<polygon fill="#000000" stroke="#000000" points="1004.9046,-797.9912 1009.434,-788.4133 999.9204,-793.0761 1004.9046,-797.9912"/>
</g>
<!-- output/&lt;SAMPLE_ID&gt;/&lt;SAMPLE_ID&gt;.h5 -->
<g id="node44" class="node">
<title>output/&lt;SAMPLE_ID&gt;/&lt;SAMPLE_ID&gt;.h5</title>
<text text-anchor="middle" x="973.5915" y="-479" font-family="Helvetica,sans-Serif" font-size="10.00" fill="#000000">output/&lt;SAMPLE_ID&gt;/&lt;SAMPLE_ID&gt;.h5</text>
</g>
<!-- bam2h5&#45;&gt;output/&lt;SAMPLE_ID&gt;/&lt;SAMPLE_ID&gt;.h5 -->
<g id="edge41" class="edge">
<title>bam2h5&#45;&gt;output/&lt;SAMPLE_ID&gt;/&lt;SAMPLE_ID&gt;.h5</title>
<path fill="none" stroke="#000000" d="M973.5915,-535.8314C973.5915,-528.131 973.5915,-518.9743 973.5915,-510.4166"/>
<polygon fill="#000000" stroke="#000000" points="977.0916,-510.4132 973.5915,-500.4133 970.0916,-510.4133 977.0916,-510.4132"/>
</g>
<!-- pdfs -->
<g id="node45" class="node">
<title>pdfs</title>
<polygon fill="none" stroke="#000000" stroke-dasharray="5,2" points="580.1388,-356 265.0442,-356 265.0442,-168 580.1388,-168 580.1388,-356"/>
<text text-anchor="middle" x="422.5915" y="-343" font-family="Helvetica,sans-Serif" font-size="10.00" fill="#000000">output/&lt;SAMPLE_ID&gt;/&lt;SAMPLE_ID&gt;_3nt_periodicity.pdf</text>
<text text-anchor="middle" x="422.5915" y="-319" font-family="Helvetica,sans-Serif" font-size="10.00" fill="#000000">output/&lt;SAMPLE_ID&gt;/&lt;SAMPLE_ID&gt;_codon_ribodens.pdf</text>
<text text-anchor="middle" x="422.5915" y="-295" font-family="Helvetica,sans-Serif" font-size="10.00" fill="#000000">output/&lt;SAMPLE_ID&gt;/&lt;SAMPLE_ID&gt;_read_lengths.pdf</text>
<text text-anchor="middle" x="422.5915" y="-271" font-family="Helvetica,sans-Serif" font-size="10.00" fill="#000000">output/&lt;SAMPLE_ID&gt;/&lt;SAMPLE_ID&gt;_pos_sp_rpf_norm_reads.pdf</text>
<text text-anchor="middle" x="422.5915" y="-247" font-family="Helvetica,sans-Serif" font-size="10.00" fill="#000000">output/&lt;SAMPLE_ID&gt;/&lt;SAMPLE_ID&gt;_features.pdf</text>
<text text-anchor="middle" x="422.5915" y="-223" font-family="Helvetica,sans-Serif" font-size="10.00" fill="#000000">output/&lt;SAMPLE_ID&gt;/&lt;SAMPLE_ID&gt;_startcodon_ribogridbar.pdf</text>
<text text-anchor="middle" x="422.5915" y="-199" font-family="Helvetica,sans-Serif" font-size="10.00" fill="#000000">output/&lt;SAMPLE_ID&gt;/&lt;SAMPLE_ID&gt;_startcodon_ribogrid.pdf</text>
<text text-anchor="middle" x="422.5915" y="-175" font-family="Helvetica,sans-Serif" font-size="10.00" fill="#000000">output/&lt;SAMPLE_ID&gt;/&lt;SAMPLE_ID&gt;_3ntframe_propbygene.pdf</text>
</g>
<!-- statsfigs&#45;&gt;pdfs -->
<g id="edge46" class="edge">
<title>statsfigs&#45;&gt;pdfs</title>
<path fill="none" stroke="#000000" d="M916.8326,-404.6324C829.3256,-395.939 664.6422,-377.8153 590.4427,-355.9184"/>
<polygon fill="#000000" stroke="#000000" points="591.1807,-352.481 580.5908,-352.8042 589.0709,-359.1555 591.1807,-352.481"/>
</g>
<!-- tsvs -->
<g id="node46" class="node">
<title>tsvs</title>
<polygon fill="none" stroke="#000000" stroke-dasharray="5,2" points="913.0208,-332 598.1622,-332 598.1622,-192 913.0208,-192 913.0208,-332"/>
<text text-anchor="middle" x="755.5915" y="-319" font-family="Helvetica,sans-Serif" font-size="10.00" fill="#000000">output/&lt;SAMPLE_ID&gt;/&lt;SAMPLE_ID&gt;_3nt_periodicity.tsv</text>
<text text-anchor="middle" x="755.5915" y="-295" font-family="Helvetica,sans-Serif" font-size="10.00" fill="#000000">output/&lt;SAMPLE_ID&gt;/&lt;SAMPLE_ID&gt;_codon_ribodens.tsv</text>
<text text-anchor="middle" x="755.5915" y="-271" font-family="Helvetica,sans-Serif" font-size="10.00" fill="#000000">output/&lt;SAMPLE_ID&gt;/&lt;SAMPLE_ID&gt;_read_lengths.tsv</text>
<text text-anchor="middle" x="755.5915" y="-247" font-family="Helvetica,sans-Serif" font-size="10.00" fill="#000000">output/&lt;SAMPLE_ID&gt;/&lt;SAMPLE_ID&gt;_pos_sp_rpf_norm_reads.tsv</text>
<text text-anchor="middle" x="755.5915" y="-223" font-family="Helvetica,sans-Serif" font-size="10.00" fill="#000000">output/&lt;SAMPLE_ID&gt;/&lt;SAMPLE_ID&gt;_pos_sp_nt_freq.tsv</text>
<text text-anchor="middle" x="755.5915" y="-199" font-family="Helvetica,sans-Serif" font-size="10.00" fill="#000000">output/&lt;SAMPLE_ID&gt;/&lt;SAMPLE_ID&gt;_3ntframe_bygene.tsv</text>
</g>
<!-- statsfigs&#45;&gt;tsvs -->
<g id="edge47" class="edge">
<title>statsfigs&#45;&gt;tsvs</title>
<path fill="none" stroke="#000000" d="M946.8604,-391.8523C926.4911,-378.0236 896.9578,-357.9735 867.1678,-337.7491"/>
<polygon fill="#000000" stroke="#000000" points="869.0055,-334.7663 858.7661,-332.0451 865.0737,-340.5578 869.0055,-334.7663"/>
</g>
<!-- output/&lt;SAMPLE_ID&gt;/&lt;SAMPLE_ID&gt;_tpms.tsv -->
<g id="node47" class="node">
<title>output/&lt;SAMPLE_ID&gt;/&lt;SAMPLE_ID&gt;_tpms.tsv</title>
<text text-anchor="middle" x="1044.5915" y="-259" font-family="Helvetica,sans-Serif" font-size="10.00" fill="#000000">output/&lt;SAMPLE_ID&gt;/&lt;SAMPLE_ID&gt;_tpms.tsv</text>
</g>
<!-- statsfigs&#45;&gt;output/&lt;SAMPLE_ID&gt;/&lt;SAMPLE_ID&gt;_tpms.tsv -->
<g id="edge48" class="edge">
<title>statsfigs&#45;&gt;output/&lt;SAMPLE_ID&gt;/&lt;SAMPLE_ID&gt;_tpms.tsv</title>
<path fill="none" stroke="#000000" d="M982.2975,-391.8523C994.5936,-366.221 1017.1429,-319.2169 1031.4736,-289.3443"/>
<polygon fill="#000000" stroke="#000000" points="1034.6446,-290.8262 1035.8143,-280.2961 1028.3332,-287.7984 1034.6446,-290.8262"/>
</g>
<!-- tmp/&lt;SAMPLE_ID&gt;/&lt;SAMPLE_ID&gt;_nonrRNA.fq&#45;&gt;h22 -->
<g id="edge18" class="edge">
<title>tmp/&lt;SAMPLE_ID&gt;/&lt;SAMPLE_ID&gt;_nonrRNA.fq&#45;&gt;h22</title>
<path fill="none" stroke="#000000" d="M504.3579,-1471.8314C505.1065,-1464.131 505.9968,-1454.9743 506.8288,-1446.4166"/>
<polygon fill="#000000" stroke="#000000" points="510.3171,-1446.7051 507.8013,-1436.4133 503.35,-1446.0276 510.3171,-1446.7051"/>
</g>
<!-- tmp/&lt;SAMPLE_ID&gt;/&lt;SAMPLE_ID&gt;_orf_map.sam&#45;&gt;trim -->
<g id="edge21" class="edge">
<title>tmp/&lt;SAMPLE_ID&gt;/&lt;SAMPLE_ID&gt;_orf_map.sam&#45;&gt;trim</title>
<path fill="none" stroke="#000000" d="M728.5915,-1327.8314C728.5915,-1320.131 728.5915,-1310.9743 728.5915,-1302.4166"/>
<polygon fill="#000000" stroke="#000000" points="732.0916,-1302.4132 728.5915,-1292.4133 725.0916,-1302.4133 732.0916,-1302.4132"/>
</g>
<!-- tmp/&lt;SAMPLE_ID&gt;/&lt;SAMPLE_ID&gt;_orf_map_clean.sam&#45;&gt;samview -->
<g id="edge23" class="edge">
<title>tmp/&lt;SAMPLE_ID&gt;/&lt;SAMPLE_ID&gt;_orf_map_clean.sam&#45;&gt;samview</title>
<path fill="none" stroke="#000000" d="M728.5915,-1183.8314C728.5915,-1176.131 728.5915,-1166.9743 728.5915,-1158.4166"/>
<polygon fill="#000000" stroke="#000000" points="732.0916,-1158.4132 728.5915,-1148.4133 725.0916,-1158.4133 732.0916,-1158.4132"/>
</g>
<!-- output/&lt;SAMPLE_ID&gt;/&lt;SAMPLE_ID&gt;.bam&#45;&gt;samindex -->
<g id="edge25" class="edge">
<title>output/&lt;SAMPLE_ID&gt;/&lt;SAMPLE_ID&gt;.bam&#45;&gt;samindex</title>
<path fill="none" stroke="#000000" d="M728.5915,-1039.8314C728.5915,-1032.131 728.5915,-1022.9743 728.5915,-1014.4166"/>
<polygon fill="#000000" stroke="#000000" points="732.0916,-1014.4132 728.5915,-1004.4133 725.0916,-1014.4133 732.0916,-1014.4132"/>
</g>
<!-- output/&lt;SAMPLE_ID&gt;/&lt;SAMPLE_ID&gt;.bam+.bai&#45;&gt;umi_pre_group -->
<g id="edge31" class="edge">
<title>output/&lt;SAMPLE_ID&gt;/&lt;SAMPLE_ID&gt;.bam+.bai&#45;&gt;umi_pre_group</title>
<path fill="none" stroke="#000000" d="M616.6597,-895.9707C526.8787,-881.5093 404.7928,-861.8445 335.4936,-850.6822"/>
<polygon fill="#000000" stroke="#000000" points="335.6794,-847.1671 325.2501,-849.0323 334.5662,-854.078 335.6794,-847.1671"/>
</g>
<!-- output/&lt;SAMPLE_ID&gt;/&lt;SAMPLE_ID&gt;.bam+.bai&#45;&gt;umi_dedup -->
<g id="edge33" class="edge">
<title>output/&lt;SAMPLE_ID&gt;/&lt;SAMPLE_ID&gt;.bam+.bai&#45;&gt;umi_dedup</title>
<path fill="none" stroke="#000000" d="M681.1512,-895.8314C654.8791,-885.7697 622.1155,-873.2219 594.8309,-862.7725"/>
<polygon fill="#000000" stroke="#000000" points="596.0184,-859.4795 585.4281,-859.1715 593.5149,-866.0165 596.0184,-859.4795"/>
</g>
<!-- output/&lt;SAMPLE_ID&gt;/&lt;SAMPLE_ID&gt;.bam+.bai&#45;&gt;bedplus -->
<g id="edge27" class="edge">
<title>output/&lt;SAMPLE_ID&gt;/&lt;SAMPLE_ID&gt;.bam+.bai&#45;&gt;bedplus</title>
<path fill="none" stroke="#000000" d="M729.3485,-895.8314C729.6694,-888.131 730.0509,-878.9743 730.4075,-870.4166"/>
<polygon fill="#000000" stroke="#000000" points="733.9048,-870.5503 730.8243,-860.4133 726.9109,-870.2589 733.9048,-870.5503"/>
</g>
<!-- output/&lt;SAMPLE_ID&gt;/&lt;SAMPLE_ID&gt;.bam+.bai&#45;&gt;bedminus -->
<g id="edge29" class="edge">
<title>output/&lt;SAMPLE_ID&gt;/&lt;SAMPLE_ID&gt;.bam+.bai&#45;&gt;bedminus</title>
<path fill="none" stroke="#000000" d="M785.8312,-895.9243C817.4067,-885.9531 856.7819,-873.5188 889.7621,-863.104"/>
<polygon fill="#000000" stroke="#000000" points="890.8464,-866.4321 899.3282,-860.0831 888.7384,-859.757 890.8464,-866.4321"/>
</g>
<!-- output/&lt;SAMPLE_ID&gt;/&lt;SAMPLE_ID&gt;_dedup.bam&#45;&gt;umi_post_group -->
<g id="edge35" class="edge">
<title>output/&lt;SAMPLE_ID&gt;/&lt;SAMPLE_ID&gt;_dedup.bam&#45;&gt;umi_post_group</title>
<path fill="none" stroke="#000000" d="M486.5915,-751.8314C486.5915,-744.131 486.5915,-734.9743 486.5915,-726.4166"/>
<polygon fill="#000000" stroke="#000000" points="490.0916,-726.4132 486.5915,-716.4133 483.0916,-726.4133 490.0916,-726.4132"/>
</g>
<!-- output/&lt;SAMPLE_ID&gt;/&lt;SAMPLE_ID&gt;_dedup.bam&#45;&gt;samindex_dedup -->
<g id="edge37" class="edge">
<title>output/&lt;SAMPLE_ID&gt;/&lt;SAMPLE_ID&gt;_dedup.bam&#45;&gt;samindex_dedup</title>
<path fill="none" stroke="#000000" d="M536.0486,-751.9243C565.4373,-741.1833 602.6459,-727.5842 632.3442,-716.73"/>
<polygon fill="#000000" stroke="#000000" points="633.9148,-719.8824 642.1057,-713.1623 631.5119,-713.3078 633.9148,-719.8824"/>
</g>
<!-- output/&lt;SAMPLE_ID&gt;/&lt;SAMPLE_ID&gt;_dedup.bam+.bai&#45;&gt;bam2h5 -->
<g id="edge39" class="edge">
<title>output/&lt;SAMPLE_ID&gt;/&lt;SAMPLE_ID&gt;_dedup.bam+.bai&#45;&gt;bam2h5</title>
<path fill="none" stroke="#000000" d="M920.5078,-607.8314C928.9357,-599.2848 939.1325,-588.9443 948.3275,-579.6198"/>
<polygon fill="#000000" stroke="#000000" points="950.9046,-581.9912 955.434,-572.4133 945.9204,-577.0761 950.9046,-581.9912"/>
</g>
<!-- output/&lt;SAMPLE_ID&gt;/&lt;SAMPLE_ID&gt;.h5&#45;&gt;statsfigs -->
<g id="edge42" class="edge">
<title>output/&lt;SAMPLE_ID&gt;/&lt;SAMPLE_ID&gt;.h5&#45;&gt;statsfigs</title>
<path fill="none" stroke="#000000" d="M973.5915,-463.8314C973.5915,-456.131 973.5915,-446.9743 973.5915,-438.4166"/>
<polygon fill="#000000" stroke="#000000" points="977.0916,-438.4132 973.5915,-428.4133 970.0916,-438.4133 977.0916,-438.4132"/>
</g>
<!-- collate -->
<g id="node48" class="node">
<title>collate</title>
<polygon fill="none" stroke="#000000" points="1085.7096,-124 1003.4734,-124 1003.4734,-88 1085.7096,-88 1085.7096,-124"/>
<text text-anchor="middle" x="1044.5915" y="-103" font-family="Helvetica,sans-Serif" font-size="10.00" fill="#000000">collate_tpms.R</text>
</g>
<!-- output/&lt;SAMPLE_ID&gt;/&lt;SAMPLE_ID&gt;_tpms.tsv&#45;&gt;collate -->
<g id="edge49" class="edge">
<title>output/&lt;SAMPLE_ID&gt;/&lt;SAMPLE_ID&gt;_tpms.tsv&#45;&gt;collate</title>
<path fill="none" stroke="#000000" d="M1044.5915,-243.7995C1044.5915,-216.9103 1044.5915,-166.3255 1044.5915,-134.4926"/>
<polygon fill="#000000" stroke="#000000" points="1048.0916,-134.0845 1044.5915,-124.0846 1041.0916,-134.0846 1048.0916,-134.0845"/>
</g>
<!-- output/TPMs_collated.tsv -->
<g id="node49" class="node">
<title>output/TPMs_collated.tsv</title>
<text text-anchor="middle" x="1044.5915" y="-31" font-family="Helvetica,sans-Serif" font-size="10.00" fill="#000000">output/TPMs_collated.tsv</text>
</g>
<!-- collate&#45;&gt;output/TPMs_collated.tsv -->
<g id="edge50" class="edge">
<title>collate&#45;&gt;output/TPMs_collated.tsv</title>
<path fill="none" stroke="#000000" d="M1044.5915,-87.8314C1044.5915,-80.131 1044.5915,-70.9743 1044.5915,-62.4166"/>
<polygon fill="#000000" stroke="#000000" points="1048.0916,-62.4132 1044.5915,-52.4133 1041.0916,-62.4133 1048.0916,-62.4132"/>
</g>
</g>
</svg>
