<?xml version="1.0" encoding="UTF-8" standalone="no"?>
<!DOCTYPE svg PUBLIC "-//W3C//DTD SVG 1.1//EN"
 "http://www.w3.org/Graphics/SVG/1.1/DTD/svg11.dtd">
<!-- Generated by graphviz version 2.40.1 (20161225.0304)
 -->
<!-- Title: G Pages: 1 -->
<svg width="1225pt" height="2236pt"
 viewBox="0.00 0.00 1224.53 2236.00" xmlns="http://www.w3.org/2000/svg" xmlns:xlink="http://www.w3.org/1999/xlink">
<g id="graph0" class="graph" transform="scale(1 1) rotate(0) translate(4 2232)">
<title>G</title>
<polygon fill="#ffffff" stroke="transparent" points="-4,4 -4,-2232 1220.5275,-2232 1220.5275,4 -4,4"/>
<g id="clust1" class="cluster">
<title>cluster_data</title>
<polygon fill="none" stroke="#000000" stroke-dasharray="5,2" points="320.5275,-2056 320.5275,-2220 1208.5275,-2220 1208.5275,-2056 320.5275,-2056"/>
<text text-anchor="middle" x="339.0855" y="-2207" font-family="Helvetica,sans-Serif" font-size="10.00" fill="#000000">Data</text>
</g>
<g id="clust2" class="cluster">
<title>cluster_organism</title>
<polygon fill="none" stroke="#000000" stroke-dasharray="5,2" points="814.5275,-2092 814.5275,-2164 1002.5275,-2164 1002.5275,-2092 814.5275,-2092"/>
<text text-anchor="middle" x="855.3115" y="-2151" font-family="Helvetica,sans-Serif" font-size="10.00" fill="#000000">Organism data</text>
</g>
<g id="clust3" class="cluster">
<title>cluster_contaminants</title>
<polygon fill="none" stroke="#000000" stroke-dasharray="5,2" points="720.5275,-2092 720.5275,-2164 806.5275,-2164 806.5275,-2092 720.5275,-2092"/>
<text text-anchor="middle" x="759.367" y="-2151" font-family="Helvetica,sans-Serif" font-size="10.00" fill="#000000">Contaminants</text>
</g>
<g id="clust4" class="cluster">
<title>cluster_additional_organism</title>
<polygon fill="none" stroke="#000000" stroke-dasharray="5,2" points="1010.5275,-2064 1010.5275,-2192 1200.5275,-2192 1200.5275,-2064 1010.5275,-2064"/>
<text text-anchor="middle" x="1091.873" y="-2179" font-family="Helvetica,sans-Serif" font-size="10.00" fill="#000000">Additional organism&#45;specific data</text>
</g>
<g id="clust5" class="cluster">
<title>cluster_ribosome</title>
<polygon fill="none" stroke="#000000" stroke-dasharray="5,2" points="328.5275,-2092 328.5275,-2164 712.5275,-2164 712.5275,-2092 328.5275,-2092"/>
<text text-anchor="middle" x="389.0365" y="-2151" font-family="Helvetica,sans-Serif" font-size="10.00" fill="#000000">Ribosome profiling data</text>
</g>
<g id="clust6" class="cluster">
<title>cluster_indexing</title>
<polygon fill="none" stroke="#000000" points="703.5275,-1616 703.5275,-1760 957.5275,-1760 957.5275,-1616 703.5275,-1616"/>
<text text-anchor="middle" x="730.424" y="-1747" font-family="Helvetica,sans-Serif" font-size="10.00" fill="#000000">Indexing</text>
</g>
<g id="clust7" class="cluster">
<title>cluster_demultiplexing</title>
<polygon fill="none" stroke="#000000" points="61.5275,-1616 61.5275,-2048 695.5275,-2048 695.5275,-1616 61.5275,-1616"/>
<text text-anchor="middle" x="102.306" y="-2035" font-family="Helvetica,sans-Serif" font-size="10.00" fill="#000000">Demultiplexing</text>
</g>
<g id="clust8" class="cluster">
<title>cluster_per_sample_processing</title>
<polygon fill="none" stroke="#000000" points="399.5275,-160 399.5275,-1608 1089.5275,-1608 1089.5275,-160 399.5275,-160"/>
<text text-anchor="middle" x="460.8745" y="-1595" font-family="Helvetica,sans-Serif" font-size="10.00" fill="#000000">Process &lt;SAMPLE_ID&gt;</text>
</g>
<g id="clust9" class="cluster">
<title>cluster_tpms_collation</title>
<polygon fill="none" stroke="#000000" points="932.5275,-8 932.5275,-152 1076.5275,-152 1076.5275,-8 932.5275,-8"/>
<text text-anchor="middle" x="973.3065" y="-139" font-family="Helvetica,sans-Serif" font-size="10.00" fill="#000000">TPMs collation</text>
</g>
<!-- input/CDS.fa -->
<g id="node1" class="node">
<title>input/CDS.fa</title>
<text text-anchor="middle" x="858.5275" y="-2115" font-family="Helvetica,sans-Serif" font-size="10.00" fill="#000000">input/CDS.fa</text>
</g>
<!-- h2build2 -->
<g id="node8" class="node">
<title>h2build2</title>
<polygon fill="none" stroke="#000000" points="918.1466,-1732 850.9084,-1732 850.9084,-1696 918.1466,-1696 918.1466,-1732"/>
<text text-anchor="middle" x="884.5275" y="-1711" font-family="Helvetica,sans-Serif" font-size="10.00" fill="#000000">hisat2&#45;build</text>
</g>
<!-- input/CDS.fa&#45;&gt;h2build2 -->
<g id="edge3" class="edge">
<title>input/CDS.fa&#45;&gt;h2build2</title>
<path fill="none" stroke="#000000" d="M860.1342,-2099.8685C862.961,-2066.3532 868.5275,-1992.4284 868.5275,-1930 868.5275,-1930 868.5275,-1930 868.5275,-1858 868.5275,-1817.6291 874.8164,-1771.2789 879.5086,-1742.3146"/>
<polygon fill="#000000" stroke="#000000" points="883.0171,-1742.5537 881.2123,-1732.1137 876.1127,-1741.4004 883.0171,-1742.5537"/>
</g>
<!-- statsfigs -->
<g id="node30" class="node">
<title>statsfigs</title>
<polygon fill="none" stroke="#000000" points="969.2798,-428 855.7753,-428 855.7753,-392 969.2798,-392 969.2798,-428"/>
<text text-anchor="middle" x="912.5275" y="-407" font-family="Helvetica,sans-Serif" font-size="10.00" fill="#000000">generate_stats_figs.R</text>
</g>
<!-- input/CDS.fa&#45;&gt;statsfigs -->
<g id="edge43" class="edge">
<title>input/CDS.fa&#45;&gt;statsfigs</title>
<path fill="none" stroke="#000000" d="M850.2162,-2099.8832C842.3266,-2085.0762 828.9341,-2065.1495 810.5275,-2056 791.7962,-2046.6891 73.2078,-2061.8451 57.5275,-2048 17.8549,-2012.9704 41.5275,-1982.9244 41.5275,-1930 41.5275,-1930 41.5275,-1930 41.5275,-554 41.5275,-472.5622 641.8813,-427.0926 845.7344,-414.0006"/>
<polygon fill="#000000" stroke="#000000" points="845.9574,-417.4935 855.7148,-413.3652 845.5126,-410.5077 845.9574,-417.4935"/>
</g>
<!-- input/CDS.gff3 -->
<g id="node2" class="node">
<title>input/CDS.gff3</title>
<text text-anchor="middle" x="953.5275" y="-2115" font-family="Helvetica,sans-Serif" font-size="10.00" fill="#000000">input/CDS.gff3</text>
</g>
<!-- bam2h5 -->
<g id="node29" class="node">
<title>bam2h5</title>
<polygon fill="none" stroke="#000000" points="950.5465,-572 874.5085,-572 874.5085,-536 950.5465,-536 950.5465,-572"/>
<text text-anchor="middle" x="912.5275" y="-551" font-family="Helvetica,sans-Serif" font-size="10.00" fill="#000000">bam_to_h5.R</text>
</g>
<!-- input/CDS.gff3&#45;&gt;bam2h5 -->
<g id="edge40" class="edge">
<title>input/CDS.gff3&#45;&gt;bam2h5</title>
<path fill="none" stroke="#000000" d="M957.3836,-2099.9493C964.1678,-2066.5654 977.5275,-1992.8462 977.5275,-1930 977.5275,-1930 977.5275,-1930 977.5275,-698 977.5275,-653.9445 951.9407,-608.486 932.8739,-580.7272"/>
<polygon fill="#000000" stroke="#000000" points="935.5868,-578.5017 926.9531,-572.3608 929.8728,-582.5454 935.5868,-578.5017"/>
</g>
<!-- input/CDS.gff3&#45;&gt;statsfigs -->
<g id="edge44" class="edge">
<title>input/CDS.gff3&#45;&gt;statsfigs</title>
<path fill="none" stroke="#000000" d="M968.3115,-2099.7926C992.9001,-2067.6076 1039.5275,-1997.656 1039.5275,-1930 1039.5275,-1930 1039.5275,-1930 1039.5275,-554 1039.5275,-513.1184 1045.5153,-496.3562 1020.5275,-464 1009.763,-450.0612 994.4325,-439.4554 978.6922,-431.4962"/>
<polygon fill="#000000" stroke="#000000" points="979.9455,-428.2174 969.4086,-427.1106 976.9554,-434.5467 979.9455,-428.2174"/>
</g>
<!-- input/rRNA.fa -->
<g id="node3" class="node">
<title>input/rRNA.fa</title>
<text text-anchor="middle" x="763.5275" y="-2115.3" font-family="Helvetica,sans-Serif" font-size="9.00" fill="#000000">input/rRNA.fa</text>
</g>
<!-- h2build1 -->
<g id="node7" class="node">
<title>h2build1</title>
<polygon fill="none" stroke="#000000" points="800.1466,-1732 732.9084,-1732 732.9084,-1696 800.1466,-1696 800.1466,-1732"/>
<text text-anchor="middle" x="766.5275" y="-1711" font-family="Helvetica,sans-Serif" font-size="10.00" fill="#000000">hisat2&#45;build</text>
</g>
<!-- input/rRNA.fa&#45;&gt;h2build1 -->
<g id="edge1" class="edge">
<title>input/rRNA.fa&#45;&gt;h2build1</title>
<path fill="none" stroke="#000000" d="M763.6882,-2099.8516C763.9709,-2066.3089 764.5275,-1992.3412 764.5275,-1930 764.5275,-1930 764.5275,-1930 764.5275,-1858 764.5275,-1817.8721 765.3136,-1771.4602 765.9002,-1742.416"/>
<polygon fill="#000000" stroke="#000000" points="769.4042,-1742.255 766.1131,-1732.1843 762.4057,-1742.1092 769.4042,-1742.255"/>
</g>
<!-- data -->
<g id="node4" class="node">
<title>data</title>
<polygon fill="none" stroke="#000000" stroke-dasharray="5,2" points="1192.3666,-2164 1018.6885,-2164 1018.6885,-2072 1192.3666,-2072 1192.3666,-2164"/>
<text text-anchor="middle" x="1105.5275" y="-2151" font-family="Helvetica,sans-Serif" font-size="10.00" fill="#000000">data/codon_pos_i200.RData</text>
<text text-anchor="middle" x="1105.5275" y="-2139" font-family="Helvetica,sans-Serif" font-size="10.00" fill="#000000">&#13;</text>
<text text-anchor="middle" x="1105.5275" y="-2127" font-family="Helvetica,sans-Serif" font-size="10.00" fill="#000000">data/features.tsv</text>
<text text-anchor="middle" x="1105.5275" y="-2115" font-family="Helvetica,sans-Serif" font-size="10.00" fill="#000000">&#13;</text>
<text text-anchor="middle" x="1105.5275" y="-2103" font-family="Helvetica,sans-Serif" font-size="10.00" fill="#000000">data/tRNAs.tsv</text>
<text text-anchor="middle" x="1105.5275" y="-2091" font-family="Helvetica,sans-Serif" font-size="10.00" fill="#000000">&#13;</text>
<text text-anchor="middle" x="1105.5275" y="-2079" font-family="Helvetica,sans-Serif" font-size="10.00" fill="#000000">data/standard_asite_disp_length.txt</text>
</g>
<!-- data&#45;&gt;statsfigs -->
<g id="edge45" class="edge">
<title>data&#45;&gt;statsfigs</title>
<path fill="none" stroke="#000000" d="M1096.7009,-2071.8363C1090.2148,-2033.8967 1082.5275,-1978.6657 1082.5275,-1930 1082.5275,-1930 1082.5275,-1930 1082.5275,-554 1082.5275,-510.2273 1073.8567,-494.5701 1042.5275,-464 1025.0031,-446.9001 1001.2844,-434.9139 978.9038,-426.6578"/>
<polygon fill="#000000" stroke="#000000" points="980.0109,-423.3372 969.4161,-423.3439 977.7026,-429.9457 980.0109,-423.3372"/>
</g>
<!-- input/&lt;FASTQ_FILE_NAME_PREFIX&gt;.fastq.gz -->
<g id="node5" class="node">
<title>input/&lt;FASTQ_FILE_NAME_PREFIX&gt;.fastq.gz</title>
<text text-anchor="middle" x="591.5275" y="-2115" font-family="Helvetica,sans-Serif" font-size="10.00" fill="#000000">input/&lt;FASTQ_FILE_NAME_PREFIX&gt;.fastq.gz</text>
</g>
<!-- cut -->
<g id="node11" class="node">
<title>cut</title>
<polygon fill="none" stroke="#000000" points="593.8817,-2020 539.1734,-2020 539.1734,-1984 593.8817,-1984 593.8817,-2020"/>
<text text-anchor="middle" x="566.5275" y="-1999" font-family="Helvetica,sans-Serif" font-size="10.00" fill="#000000">cutadapt</text>
</g>
<!-- input/&lt;FASTQ_FILE_NAME_PREFIX&gt;.fastq.gz&#45;&gt;cut -->
<g id="edge5" class="edge">
<title>input/&lt;FASTQ_FILE_NAME_PREFIX&gt;.fastq.gz&#45;&gt;cut</title>
<path fill="none" stroke="#000000" d="M587.6213,-2099.875C583.6087,-2081.2566 577.3062,-2052.0131 572.6342,-2030.335"/>
<polygon fill="#000000" stroke="#000000" points="576.0172,-2029.4187 570.4889,-2020.3805 569.1743,-2030.8935 576.0172,-2029.4187"/>
</g>
<!-- input/&lt;BARCODES&gt;.tsv -->
<g id="node6" class="node">
<title>input/&lt;BARCODES&gt;.tsv</title>
<text text-anchor="middle" x="398.5275" y="-2115" font-family="Helvetica,sans-Serif" font-size="10.00" fill="#000000">input/&lt;BARCODES&gt;.tsv</text>
</g>
<!-- demultiplex -->
<g id="node13" class="node">
<title>demultiplex</title>
<polygon fill="none" stroke="#000000" points="289.589,-1732 223.4661,-1732 223.4661,-1696 289.589,-1696 289.589,-1732"/>
<text text-anchor="middle" x="256.5275" y="-1711" font-family="Helvetica,sans-Serif" font-size="10.00" fill="#000000">demultiplex</text>
</g>
<!-- input/&lt;BARCODES&gt;.tsv&#45;&gt;demultiplex -->
<g id="edge9" class="edge">
<title>input/&lt;BARCODES&gt;.tsv&#45;&gt;demultiplex</title>
<path fill="none" stroke="#000000" d="M336.4184,-2114.4963C242.4026,-2107.8807 70.3521,-2090.2222 27.5275,-2048 -10.5826,-2010.4259 3.5275,-1983.5182 3.5275,-1930 3.5275,-1930 3.5275,-1930 3.5275,-1858 3.5275,-1762.6217 141.0174,-1729.6107 213.2869,-1718.8471"/>
<polygon fill="#000000" stroke="#000000" points="214.038,-1722.276 223.4522,-1717.4157 213.0618,-1715.3443 214.038,-1722.276"/>
</g>
<!-- index/rRNA.1|...|8.ht2 -->
<g id="node9" class="node">
<title>index/rRNA.1|...|8.ht2</title>
<text text-anchor="middle" x="767.5275" y="-1639" font-family="Helvetica,sans-Serif" font-size="10.00" fill="#000000">index/rRNA.1|...|8.ht2</text>
</g>
<!-- h2build1&#45;&gt;index/rRNA.1|...|8.ht2 -->
<g id="edge2" class="edge">
<title>h2build1&#45;&gt;index/rRNA.1|...|8.ht2</title>
<path fill="none" stroke="#000000" d="M766.7799,-1695.8314C766.8868,-1688.131 767.014,-1678.9743 767.1329,-1670.4166"/>
<polygon fill="#000000" stroke="#000000" points="770.6325,-1670.4609 767.2718,-1660.4133 763.6332,-1670.3637 770.6325,-1670.4609"/>
</g>
<!-- index/CDS.1|...|8.ht2 -->
<g id="node10" class="node">
<title>index/CDS.1|...|8.ht2</title>
<text text-anchor="middle" x="895.5275" y="-1639" font-family="Helvetica,sans-Serif" font-size="10.00" fill="#000000">index/CDS.1|...|8.ht2</text>
</g>
<!-- h2build2&#45;&gt;index/CDS.1|...|8.ht2 -->
<g id="edge4" class="edge">
<title>h2build2&#45;&gt;index/CDS.1|...|8.ht2</title>
<path fill="none" stroke="#000000" d="M887.3033,-1695.8314C888.4798,-1688.131 889.8787,-1678.9743 891.1861,-1670.4166"/>
<polygon fill="#000000" stroke="#000000" points="894.6639,-1670.8272 892.7144,-1660.4133 887.7442,-1669.7699 894.6639,-1670.8272"/>
</g>
<!-- h21 -->
<g id="node18" class="node">
<title>h21</title>
<polygon fill="none" stroke="#000000" points="706.5275,-1580 652.5275,-1580 652.5275,-1544 706.5275,-1544 706.5275,-1580"/>
<text text-anchor="middle" x="679.5275" y="-1559" font-family="Helvetica,sans-Serif" font-size="10.00" fill="#000000">hisat2</text>
</g>
<!-- index/rRNA.1|...|8.ht2&#45;&gt;h21 -->
<g id="edge14" class="edge">
<title>index/rRNA.1|...|8.ht2&#45;&gt;h21</title>
<path fill="none" stroke="#000000" d="M747.559,-1623.8468C735.52,-1612.9023 720.0187,-1598.8101 706.8542,-1586.8424"/>
<polygon fill="#000000" stroke="#000000" points="709.1709,-1584.2184 699.4171,-1580.0814 704.4621,-1589.398 709.1709,-1584.2184"/>
</g>
<!-- h22 -->
<g id="node19" class="node">
<title>h22</title>
<polygon fill="none" stroke="#000000" points="687.5275,-1436 633.5275,-1436 633.5275,-1400 687.5275,-1400 687.5275,-1436"/>
<text text-anchor="middle" x="660.5275" y="-1415" font-family="Helvetica,sans-Serif" font-size="10.00" fill="#000000">hisat2</text>
</g>
<!-- index/CDS.1|...|8.ht2&#45;&gt;h22 -->
<g id="edge17" class="edge">
<title>index/CDS.1|...|8.ht2&#45;&gt;h22</title>
<path fill="none" stroke="#000000" d="M899.5469,-1623.7532C905.9407,-1589.4723 914.1613,-1515.0334 876.5275,-1472 853.2796,-1445.4164 753.1755,-1429.2708 697.7735,-1422.206"/>
<polygon fill="#000000" stroke="#000000" points="698.0056,-1418.7081 687.6513,-1420.9528 697.1455,-1425.655 698.0056,-1418.7081"/>
</g>
<!-- tmp/&lt;FASTQ_FILE_NAME_PREFIX&gt;_trim.fastq.gz -->
<g id="node14" class="node">
<title>tmp/&lt;FASTQ_FILE_NAME_PREFIX&gt;_trim.fastq.gz</title>
<text text-anchor="middle" x="542.5275" y="-1927" font-family="Helvetica,sans-Serif" font-size="10.00" fill="#000000">tmp/&lt;FASTQ_FILE_NAME_PREFIX&gt;_trim.fastq.gz</text>
</g>
<!-- cut&#45;&gt;tmp/&lt;FASTQ_FILE_NAME_PREFIX&gt;_trim.fastq.gz -->
<g id="edge6" class="edge">
<title>cut&#45;&gt;tmp/&lt;FASTQ_FILE_NAME_PREFIX&gt;_trim.fastq.gz</title>
<path fill="none" stroke="#000000" d="M560.4713,-1983.8314C557.8763,-1976.0463 554.7852,-1966.7729 551.9058,-1958.1347"/>
<polygon fill="#000000" stroke="#000000" points="555.148,-1956.7933 548.6653,-1948.4133 548.5072,-1959.0069 555.148,-1956.7933"/>
</g>
<!-- umi_extract -->
<g id="node12" class="node">
<title>umi_extract</title>
<polygon fill="none" stroke="#000000" points="412.0946,-1876 320.9605,-1876 320.9605,-1840 412.0946,-1840 412.0946,-1876"/>
<text text-anchor="middle" x="366.5275" y="-1855" font-family="Helvetica,sans-Serif" font-size="10.00" fill="#000000">umi_tools extract</text>
</g>
<!-- tmp/&lt;FASTQ_FILE_NAME_PREFIX&gt;_extract_trim.fastq.gz -->
<g id="node15" class="node">
<title>tmp/&lt;FASTQ_FILE_NAME_PREFIX&gt;_extract_trim.fastq.gz</title>
<text text-anchor="middle" x="344.5275" y="-1783" font-family="Helvetica,sans-Serif" font-size="10.00" fill="#000000">tmp/&lt;FASTQ_FILE_NAME_PREFIX&gt;_extract_trim.fastq.gz</text>
</g>
<!-- umi_extract&#45;&gt;tmp/&lt;FASTQ_FILE_NAME_PREFIX&gt;_extract_trim.fastq.gz -->
<g id="edge8" class="edge">
<title>umi_extract&#45;&gt;tmp/&lt;FASTQ_FILE_NAME_PREFIX&gt;_extract_trim.fastq.gz</title>
<path fill="none" stroke="#000000" d="M360.976,-1839.8314C358.5973,-1832.0463 355.7637,-1822.7729 353.1243,-1814.1347"/>
<polygon fill="#000000" stroke="#000000" points="356.4233,-1812.954 350.1538,-1804.4133 349.7288,-1814.9996 356.4233,-1812.954"/>
</g>
<!-- tmp/&lt;FASTQ_FILE_NAME_PREFIX&gt;_deplex/num_reads.tsv -->
<g id="node16" class="node">
<title>tmp/&lt;FASTQ_FILE_NAME_PREFIX&gt;_deplex/num_reads.tsv</title>
<text text-anchor="middle" x="212.5275" y="-1639" font-family="Helvetica,sans-Serif" font-size="10.00" fill="#000000">tmp/&lt;FASTQ_FILE_NAME_PREFIX&gt;_deplex/num_reads.tsv</text>
</g>
<!-- demultiplex&#45;&gt;tmp/&lt;FASTQ_FILE_NAME_PREFIX&gt;_deplex/num_reads.tsv -->
<g id="edge10" class="edge">
<title>demultiplex&#45;&gt;tmp/&lt;FASTQ_FILE_NAME_PREFIX&gt;_deplex/num_reads.tsv</title>
<path fill="none" stroke="#000000" d="M245.4245,-1695.8314C240.4601,-1687.7079 234.5054,-1677.9637 229.0347,-1669.0118"/>
<polygon fill="#000000" stroke="#000000" points="231.9811,-1667.121 223.7801,-1660.4133 226.0082,-1670.7712 231.9811,-1667.121"/>
</g>
<!-- tmp/&lt;FASTQ_FILE_NAME_PREFIX&gt;_deplex/&lt;SAMPLE_ID&gt;.fastq -->
<g id="node17" class="node">
<title>tmp/&lt;FASTQ_FILE_NAME_PREFIX&gt;_deplex/&lt;SAMPLE_ID&gt;.fastq</title>
<text text-anchor="middle" x="530.5275" y="-1639" font-family="Helvetica,sans-Serif" font-size="10.00" fill="#000000">tmp/&lt;FASTQ_FILE_NAME_PREFIX&gt;_deplex/&lt;SAMPLE_ID&gt;.fastq</text>
</g>
<!-- demultiplex&#45;&gt;tmp/&lt;FASTQ_FILE_NAME_PREFIX&gt;_deplex/&lt;SAMPLE_ID&gt;.fastq -->
<g id="edge12" class="edge">
<title>demultiplex&#45;&gt;tmp/&lt;FASTQ_FILE_NAME_PREFIX&gt;_deplex/&lt;SAMPLE_ID&gt;.fastq</title>
<path fill="none" stroke="#000000" d="M289.8514,-1705.2434C329.8619,-1694.7297 398.2836,-1676.7502 451.9699,-1662.6429"/>
<polygon fill="#000000" stroke="#000000" points="453.0305,-1665.9831 461.8126,-1660.0565 451.2514,-1659.2129 453.0305,-1665.9831"/>
</g>
<!-- tmp/&lt;FASTQ_FILE_NAME_PREFIX&gt;_trim.fastq.gz&#45;&gt;umi_extract -->
<g id="edge7" class="edge">
<title>tmp/&lt;FASTQ_FILE_NAME_PREFIX&gt;_trim.fastq.gz&#45;&gt;umi_extract</title>
<path fill="none" stroke="#000000" d="M498.1153,-1911.8314C474.3671,-1902.1162 444.9529,-1890.0831 419.9612,-1879.8592"/>
<polygon fill="#000000" stroke="#000000" points="421.2011,-1876.585 410.6204,-1876.038 418.5506,-1883.0638 421.2011,-1876.585"/>
</g>
<!-- tmp/&lt;FASTQ_FILE_NAME_PREFIX&gt;_extract_trim.fastq.gz&#45;&gt;demultiplex -->
<g id="edge11" class="edge">
<title>tmp/&lt;FASTQ_FILE_NAME_PREFIX&gt;_extract_trim.fastq.gz&#45;&gt;demultiplex</title>
<path fill="none" stroke="#000000" d="M322.3214,-1767.8314C311.4826,-1758.9632 298.2832,-1748.1637 286.5598,-1738.5718"/>
<polygon fill="#000000" stroke="#000000" points="288.6825,-1735.7864 278.7266,-1732.1628 284.2498,-1741.2041 288.6825,-1735.7864"/>
</g>
<!-- tmp/&lt;FASTQ_FILE_NAME_PREFIX&gt;_deplex/&lt;SAMPLE_ID&gt;.fastq&#45;&gt;h21 -->
<g id="edge13" class="edge">
<title>tmp/&lt;FASTQ_FILE_NAME_PREFIX&gt;_deplex/&lt;SAMPLE_ID&gt;.fastq&#45;&gt;h21</title>
<path fill="none" stroke="#000000" d="M564.3379,-1623.8468C587.9399,-1611.1746 619.4013,-1594.2825 643.48,-1581.3544"/>
<polygon fill="#000000" stroke="#000000" points="645.1603,-1584.4248 652.3151,-1576.6107 641.849,-1578.2575 645.1603,-1584.4248"/>
</g>
<!-- tmp/&lt;SAMPLE_ID&gt;/rRNA_map.sam -->
<g id="node31" class="node">
<title>tmp/&lt;SAMPLE_ID&gt;/rRNA_map.sam</title>
<text text-anchor="middle" x="778.5275" y="-1487" font-family="Helvetica,sans-Serif" font-size="10.00" fill="#000000">tmp/&lt;SAMPLE_ID&gt;/rRNA_map.sam</text>
</g>
<!-- h21&#45;&gt;tmp/&lt;SAMPLE_ID&gt;/rRNA_map.sam -->
<g id="edge15" class="edge">
<title>h21&#45;&gt;tmp/&lt;SAMPLE_ID&gt;/rRNA_map.sam</title>
<path fill="none" stroke="#000000" d="M704.5094,-1543.8314C716.8204,-1534.8779 731.8383,-1523.9558 745.1213,-1514.2955"/>
<polygon fill="#000000" stroke="#000000" points="747.5249,-1516.8752 753.5537,-1508.1628 743.4077,-1511.214 747.5249,-1516.8752"/>
</g>
<!-- tmp/&lt;SAMPLE_ID&gt;/nonrRNA.fq -->
<g id="node32" class="node">
<title>tmp/&lt;SAMPLE_ID&gt;/nonrRNA.fq</title>
<text text-anchor="middle" x="592.5275" y="-1487" font-family="Helvetica,sans-Serif" font-size="10.00" fill="#000000">tmp/&lt;SAMPLE_ID&gt;/nonrRNA.fq</text>
</g>
<!-- h21&#45;&gt;tmp/&lt;SAMPLE_ID&gt;/nonrRNA.fq -->
<g id="edge16" class="edge">
<title>h21&#45;&gt;tmp/&lt;SAMPLE_ID&gt;/nonrRNA.fq</title>
<path fill="none" stroke="#000000" d="M657.5738,-1543.8314C646.8581,-1534.9632 633.8087,-1524.1637 622.2185,-1514.5718"/>
<polygon fill="#000000" stroke="#000000" points="624.4098,-1511.8422 614.4743,-1508.1628 619.9468,-1517.2349 624.4098,-1511.8422"/>
</g>
<!-- tmp/&lt;SAMPLE_ID&gt;/unaligned.fq -->
<g id="node33" class="node">
<title>tmp/&lt;SAMPLE_ID&gt;/unaligned.fq</title>
<text text-anchor="middle" x="570.5275" y="-1343" font-family="Helvetica,sans-Serif" font-size="10.00" fill="#000000">tmp/&lt;SAMPLE_ID&gt;/unaligned.fq</text>
</g>
<!-- h22&#45;&gt;tmp/&lt;SAMPLE_ID&gt;/unaligned.fq -->
<g id="edge19" class="edge">
<title>h22&#45;&gt;tmp/&lt;SAMPLE_ID&gt;/unaligned.fq</title>
<path fill="none" stroke="#000000" d="M637.8167,-1399.8314C626.7315,-1390.9632 613.2322,-1380.1637 601.2423,-1370.5718"/>
<polygon fill="#000000" stroke="#000000" points="603.2262,-1367.6768 593.2311,-1364.1628 598.8533,-1373.1429 603.2262,-1367.6768"/>
</g>
<!-- tmp/&lt;SAMPLE_ID&gt;/orf_map.sam -->
<g id="node34" class="node">
<title>tmp/&lt;SAMPLE_ID&gt;/orf_map.sam</title>
<text text-anchor="middle" x="750.5275" y="-1343" font-family="Helvetica,sans-Serif" font-size="10.00" fill="#000000">tmp/&lt;SAMPLE_ID&gt;/orf_map.sam</text>
</g>
<!-- h22&#45;&gt;tmp/&lt;SAMPLE_ID&gt;/orf_map.sam -->
<g id="edge20" class="edge">
<title>h22&#45;&gt;tmp/&lt;SAMPLE_ID&gt;/orf_map.sam</title>
<path fill="none" stroke="#000000" d="M683.2383,-1399.8314C694.3235,-1390.9632 707.8229,-1380.1637 719.8128,-1370.5718"/>
<polygon fill="#000000" stroke="#000000" points="722.2017,-1373.1429 727.824,-1364.1628 717.8289,-1367.6768 722.2017,-1373.1429"/>
</g>
<!-- samindex -->
<g id="node20" class="node">
<title>samindex</title>
<polygon fill="none" stroke="#000000" points="791.7072,-1004 709.3479,-1004 709.3479,-968 791.7072,-968 791.7072,-1004"/>
<text text-anchor="middle" x="750.5275" y="-983" font-family="Helvetica,sans-Serif" font-size="10.00" fill="#000000">samtools index</text>
</g>
<!-- tmp/&lt;SAMPLE_ID&gt;/pre_dedup.bam+.bai -->
<g id="node39" class="node">
<title>tmp/&lt;SAMPLE_ID&gt;/pre_dedup.bam+.bai</title>
<text text-anchor="middle" x="750.5275" y="-911" font-family="Helvetica,sans-Serif" font-size="10.00" fill="#000000">tmp/&lt;SAMPLE_ID&gt;/pre_dedup.bam+.bai</text>
</g>
<!-- samindex&#45;&gt;tmp/&lt;SAMPLE_ID&gt;/pre_dedup.bam+.bai -->
<g id="edge26" class="edge">
<title>samindex&#45;&gt;tmp/&lt;SAMPLE_ID&gt;/pre_dedup.bam+.bai</title>
<path fill="none" stroke="#000000" d="M750.5275,-967.8314C750.5275,-960.131 750.5275,-950.9743 750.5275,-942.4166"/>
<polygon fill="#000000" stroke="#000000" points="754.0276,-942.4132 750.5275,-932.4133 747.0276,-942.4133 754.0276,-942.4132"/>
</g>
<!-- samview -->
<g id="node21" class="node">
<title>samview</title>
<polygon fill="none" stroke="#000000" points="823.9151,-1148 677.14,-1148 677.14,-1112 823.9151,-1112 823.9151,-1148"/>
<text text-anchor="middle" x="750.5275" y="-1127" font-family="Helvetica,sans-Serif" font-size="10.00" fill="#000000">samtools view | samtools sort</text>
</g>
<!-- tmp/&lt;SAMPLE_ID&gt;/pre_dedup.bam -->
<g id="node38" class="node">
<title>tmp/&lt;SAMPLE_ID&gt;/pre_dedup.bam</title>
<text text-anchor="middle" x="750.5275" y="-1055" font-family="Helvetica,sans-Serif" font-size="10.00" fill="#000000">tmp/&lt;SAMPLE_ID&gt;/pre_dedup.bam</text>
</g>
<!-- samview&#45;&gt;tmp/&lt;SAMPLE_ID&gt;/pre_dedup.bam -->
<g id="edge24" class="edge">
<title>samview&#45;&gt;tmp/&lt;SAMPLE_ID&gt;/pre_dedup.bam</title>
<path fill="none" stroke="#000000" d="M750.5275,-1111.8314C750.5275,-1104.131 750.5275,-1094.9743 750.5275,-1086.4166"/>
<polygon fill="#000000" stroke="#000000" points="754.0276,-1086.4132 750.5275,-1076.4133 747.0276,-1086.4133 754.0276,-1086.4132"/>
</g>
<!-- umi_pre_group -->
<g id="node22" class="node">
<title>umi_pre_group</title>
<polygon fill="none" stroke="#000000" points="629.1536,-860 541.9015,-860 541.9015,-824 629.1536,-824 629.1536,-860"/>
<text text-anchor="middle" x="585.5275" y="-839" font-family="Helvetica,sans-Serif" font-size="10.00" fill="#000000">umi_tools group</text>
</g>
<!-- tmp/&lt;SAMPLE_ID&gt;/pre_dedup_groups.tsv -->
<g id="node36" class="node">
<title>tmp/&lt;SAMPLE_ID&gt;/pre_dedup_groups.tsv</title>
<text text-anchor="middle" x="526.5275" y="-767" font-family="Helvetica,sans-Serif" font-size="10.00" fill="#000000">tmp/&lt;SAMPLE_ID&gt;/pre_dedup_groups.tsv</text>
</g>
<!-- umi_pre_group&#45;&gt;tmp/&lt;SAMPLE_ID&gt;/pre_dedup_groups.tsv -->
<g id="edge28" class="edge">
<title>umi_pre_group&#45;&gt;tmp/&lt;SAMPLE_ID&gt;/pre_dedup_groups.tsv</title>
<path fill="none" stroke="#000000" d="M570.6394,-823.8314C563.7746,-815.454 555.4975,-805.3531 547.9764,-796.1749"/>
<polygon fill="#000000" stroke="#000000" points="550.6616,-793.9297 541.6162,-788.4133 545.2473,-798.3665 550.6616,-793.9297"/>
</g>
<!-- umi_dedup -->
<g id="node23" class="node">
<title>umi_dedup</title>
<polygon fill="none" stroke="#000000" points="795.3843,-860 705.6708,-860 705.6708,-824 795.3843,-824 795.3843,-860"/>
<text text-anchor="middle" x="750.5275" y="-839" font-family="Helvetica,sans-Serif" font-size="10.00" fill="#000000">umi_tools dedup</text>
</g>
<!-- output/&lt;SAMPLE_ID&gt;/&lt;SAMPLE_ID&gt;.bam -->
<g id="node40" class="node">
<title>output/&lt;SAMPLE_ID&gt;/&lt;SAMPLE_ID&gt;.bam</title>
<text text-anchor="middle" x="750.5275" y="-767" font-family="Helvetica,sans-Serif" font-size="10.00" fill="#000000">output/&lt;SAMPLE_ID&gt;/&lt;SAMPLE_ID&gt;.bam</text>
</g>
<!-- umi_dedup&#45;&gt;output/&lt;SAMPLE_ID&gt;/&lt;SAMPLE_ID&gt;.bam -->
<g id="edge30" class="edge">
<title>umi_dedup&#45;&gt;output/&lt;SAMPLE_ID&gt;/&lt;SAMPLE_ID&gt;.bam</title>
<path fill="none" stroke="#000000" d="M750.5275,-823.8314C750.5275,-816.131 750.5275,-806.9743 750.5275,-798.4166"/>
<polygon fill="#000000" stroke="#000000" points="754.0276,-798.4132 750.5275,-788.4133 747.0276,-798.4133 754.0276,-798.4132"/>
</g>
<!-- umi_post_group -->
<g id="node24" class="node">
<title>umi_post_group</title>
<polygon fill="none" stroke="#000000" points="623.1536,-716 535.9015,-716 535.9015,-680 623.1536,-680 623.1536,-716"/>
<text text-anchor="middle" x="579.5275" y="-695" font-family="Helvetica,sans-Serif" font-size="10.00" fill="#000000">umi_tools group</text>
</g>
<!-- tmp/&lt;SAMPLE_ID&gt;/post_dedup_groups.tsv -->
<g id="node37" class="node">
<title>tmp/&lt;SAMPLE_ID&gt;/post_dedup_groups.tsv</title>
<text text-anchor="middle" x="512.5275" y="-623" font-family="Helvetica,sans-Serif" font-size="10.00" fill="#000000">tmp/&lt;SAMPLE_ID&gt;/post_dedup_groups.tsv</text>
</g>
<!-- umi_post_group&#45;&gt;tmp/&lt;SAMPLE_ID&gt;/post_dedup_groups.tsv -->
<g id="edge32" class="edge">
<title>umi_post_group&#45;&gt;tmp/&lt;SAMPLE_ID&gt;/post_dedup_groups.tsv</title>
<path fill="none" stroke="#000000" d="M562.6206,-679.8314C554.7463,-671.3694 545.2356,-661.1489 536.6262,-651.8971"/>
<polygon fill="#000000" stroke="#000000" points="539.0367,-649.3497 529.6621,-644.4133 533.9122,-654.1183 539.0367,-649.3497"/>
</g>
<!-- samindex_dedup -->
<g id="node25" class="node">
<title>samindex_dedup</title>
<polygon fill="none" stroke="#000000" points="791.7072,-716 709.3479,-716 709.3479,-680 791.7072,-680 791.7072,-716"/>
<text text-anchor="middle" x="750.5275" y="-695" font-family="Helvetica,sans-Serif" font-size="10.00" fill="#000000">samtools index</text>
</g>
<!-- output/&lt;SAMPLE_ID&gt;/&lt;SAMPLE_ID&gt;.bam+.bai -->
<g id="node41" class="node">
<title>output/&lt;SAMPLE_ID&gt;/&lt;SAMPLE_ID&gt;.bam+.bai</title>
<text text-anchor="middle" x="750.5275" y="-623" font-family="Helvetica,sans-Serif" font-size="10.00" fill="#000000">output/&lt;SAMPLE_ID&gt;/&lt;SAMPLE_ID&gt;.bam+.bai</text>
</g>
<!-- samindex_dedup&#45;&gt;output/&lt;SAMPLE_ID&gt;/&lt;SAMPLE_ID&gt;.bam+.bai -->
<g id="edge34" class="edge">
<title>samindex_dedup&#45;&gt;output/&lt;SAMPLE_ID&gt;/&lt;SAMPLE_ID&gt;.bam+.bai</title>
<path fill="none" stroke="#000000" d="M750.5275,-679.8314C750.5275,-672.131 750.5275,-662.9743 750.5275,-654.4166"/>
<polygon fill="#000000" stroke="#000000" points="754.0276,-654.4132 750.5275,-644.4133 747.0276,-654.4133 754.0276,-654.4132"/>
</g>
<!-- trim -->
<g id="node26" class="node">
<title>trim</title>
<polygon fill="none" stroke="#000000" points="806.0315,-1292 695.0235,-1292 695.0235,-1256 806.0315,-1256 806.0315,-1292"/>
<text text-anchor="middle" x="750.5275" y="-1271" font-family="Helvetica,sans-Serif" font-size="10.00" fill="#000000">trim_5p_mismatch.py</text>
</g>
<!-- tmp/&lt;SAMPLE_ID&gt;/orf_map_clean.sam -->
<g id="node35" class="node">
<title>tmp/&lt;SAMPLE_ID&gt;/orf_map_clean.sam</title>
<text text-anchor="middle" x="750.5275" y="-1199" font-family="Helvetica,sans-Serif" font-size="10.00" fill="#000000">tmp/&lt;SAMPLE_ID&gt;/orf_map_clean.sam</text>
</g>
<!-- trim&#45;&gt;tmp/&lt;SAMPLE_ID&gt;/orf_map_clean.sam -->
<g id="edge22" class="edge">
<title>trim&#45;&gt;tmp/&lt;SAMPLE_ID&gt;/orf_map_clean.sam</title>
<path fill="none" stroke="#000000" d="M750.5275,-1255.8314C750.5275,-1248.131 750.5275,-1238.9743 750.5275,-1230.4166"/>
<polygon fill="#000000" stroke="#000000" points="754.0276,-1230.4132 750.5275,-1220.4133 747.0276,-1230.4133 754.0276,-1230.4132"/>
</g>
<!-- bedplus -->
<g id="node27" class="node">
<title>bedplus</title>
<polygon fill="none" stroke="#000000" points="616.0594,-572 492.9957,-572 492.9957,-536 616.0594,-536 616.0594,-572"/>
<text text-anchor="middle" x="554.5275" y="-551" font-family="Helvetica,sans-Serif" font-size="10.00" fill="#000000">bedtools genomecov (+)</text>
</g>
<!-- output/&lt;SAMPLE_ID&gt;/plus.bedgraph -->
<g id="node42" class="node">
<title>output/&lt;SAMPLE_ID&gt;/plus.bedgraph</title>
<text text-anchor="middle" x="497.5275" y="-479" font-family="Helvetica,sans-Serif" font-size="10.00" fill="#000000">output/&lt;SAMPLE_ID&gt;/plus.bedgraph</text>
</g>
<!-- bedplus&#45;&gt;output/&lt;SAMPLE_ID&gt;/plus.bedgraph -->
<g id="edge36" class="edge">
<title>bedplus&#45;&gt;output/&lt;SAMPLE_ID&gt;/plus.bedgraph</title>
<path fill="none" stroke="#000000" d="M540.144,-535.8314C533.5789,-527.5386 525.6769,-517.557 518.4698,-508.4533"/>
<polygon fill="#000000" stroke="#000000" points="521.0559,-506.0813 512.1047,-500.4133 515.5676,-510.4262 521.0559,-506.0813"/>
</g>
<!-- bedminus -->
<g id="node28" class="node">
<title>bedminus</title>
<polygon fill="none" stroke="#000000" points="786.0485,-572 665.0065,-572 665.0065,-536 786.0485,-536 786.0485,-572"/>
<text text-anchor="middle" x="725.5275" y="-551" font-family="Helvetica,sans-Serif" font-size="10.00" fill="#000000">bedtools genomecov (&#45;)</text>
</g>
<!-- output/&lt;SAMPLE_ID&gt;/minus.bedgraph -->
<g id="node43" class="node">
<title>output/&lt;SAMPLE_ID&gt;/minus.bedgraph</title>
<text text-anchor="middle" x="700.5275" y="-479" font-family="Helvetica,sans-Serif" font-size="10.00" fill="#000000">output/&lt;SAMPLE_ID&gt;/minus.bedgraph</text>
</g>
<!-- bedminus&#45;&gt;output/&lt;SAMPLE_ID&gt;/minus.bedgraph -->
<g id="edge38" class="edge">
<title>bedminus&#45;&gt;output/&lt;SAMPLE_ID&gt;/minus.bedgraph</title>
<path fill="none" stroke="#000000" d="M719.219,-535.8314C716.5159,-528.0463 713.2959,-518.7729 710.2965,-510.1347"/>
<polygon fill="#000000" stroke="#000000" points="713.5076,-508.7119 706.921,-500.4133 706.8949,-511.0081 713.5076,-508.7119"/>
</g>
<!-- output/&lt;SAMPLE_ID&gt;/&lt;SAMPLE_ID&gt;.h5 -->
<g id="node44" class="node">
<title>output/&lt;SAMPLE_ID&gt;/&lt;SAMPLE_ID&gt;.h5</title>
<text text-anchor="middle" x="912.5275" y="-479" font-family="Helvetica,sans-Serif" font-size="10.00" fill="#000000">output/&lt;SAMPLE_ID&gt;/&lt;SAMPLE_ID&gt;.h5</text>
</g>
<!-- bam2h5&#45;&gt;output/&lt;SAMPLE_ID&gt;/&lt;SAMPLE_ID&gt;.h5 -->
<g id="edge41" class="edge">
<title>bam2h5&#45;&gt;output/&lt;SAMPLE_ID&gt;/&lt;SAMPLE_ID&gt;.h5</title>
<path fill="none" stroke="#000000" d="M912.5275,-535.8314C912.5275,-528.131 912.5275,-518.9743 912.5275,-510.4166"/>
<polygon fill="#000000" stroke="#000000" points="916.0276,-510.4132 912.5275,-500.4133 909.0276,-510.4133 916.0276,-510.4132"/>
</g>
<!-- pdfs -->
<g id="node45" class="node">
<title>pdfs</title>
<polygon fill="none" stroke="#000000" stroke-dasharray="5,2" points="649.7166,-356 407.3385,-356 407.3385,-168 649.7166,-168 649.7166,-356"/>
<text text-anchor="middle" x="528.5275" y="-343" font-family="Helvetica,sans-Serif" font-size="10.00" fill="#000000">output/&lt;SAMPLE_ID&gt;/3nt_periodicity.pdf</text>
<text text-anchor="middle" x="528.5275" y="-331" font-family="Helvetica,sans-Serif" font-size="10.00" fill="#000000">&#13;</text>
<text text-anchor="middle" x="528.5275" y="-319" font-family="Helvetica,sans-Serif" font-size="10.00" fill="#000000">output/&lt;SAMPLE_ID&gt;/codon_ribodens.pdf</text>
<text text-anchor="middle" x="528.5275" y="-307" font-family="Helvetica,sans-Serif" font-size="10.00" fill="#000000">&#13;</text>
<text text-anchor="middle" x="528.5275" y="-295" font-family="Helvetica,sans-Serif" font-size="10.00" fill="#000000">output/&lt;SAMPLE_ID&gt;/read_lengths.pdf</text>
<text text-anchor="middle" x="528.5275" y="-283" font-family="Helvetica,sans-Serif" font-size="10.00" fill="#000000">&#13;</text>
<text text-anchor="middle" x="528.5275" y="-271" font-family="Helvetica,sans-Serif" font-size="10.00" fill="#000000">output/&lt;SAMPLE_ID&gt;/pos_sp_rpf_norm_reads.pdf</text>
<text text-anchor="middle" x="528.5275" y="-259" font-family="Helvetica,sans-Serif" font-size="10.00" fill="#000000">&#13;</text>
<text text-anchor="middle" x="528.5275" y="-247" font-family="Helvetica,sans-Serif" font-size="10.00" fill="#000000">output/&lt;SAMPLE_ID&gt;/features.pdf</text>
<text text-anchor="middle" x="528.5275" y="-235" font-family="Helvetica,sans-Serif" font-size="10.00" fill="#000000">&#13;</text>
<text text-anchor="middle" x="528.5275" y="-223" font-family="Helvetica,sans-Serif" font-size="10.00" fill="#000000">output/&lt;SAMPLE_ID&gt;/startcodon_ribogridbar.pdf</text>
<text text-anchor="middle" x="528.5275" y="-211" font-family="Helvetica,sans-Serif" font-size="10.00" fill="#000000">&#13;</text>
<text text-anchor="middle" x="528.5275" y="-199" font-family="Helvetica,sans-Serif" font-size="10.00" fill="#000000">output/&lt;SAMPLE_ID&gt;/startcodon_ribogrid.pdf</text>
<text text-anchor="middle" x="528.5275" y="-187" font-family="Helvetica,sans-Serif" font-size="10.00" fill="#000000">&#13;</text>
<text text-anchor="middle" x="528.5275" y="-175" font-family="Helvetica,sans-Serif" font-size="10.00" fill="#000000">output/&lt;SAMPLE_ID&gt;/3ntframe_propbygene.pdf&#13;</text>
</g>
<!-- statsfigs&#45;&gt;pdfs -->
<g id="edge46" class="edge">
<title>statsfigs&#45;&gt;pdfs</title>
<path fill="none" stroke="#000000" d="M855.7056,-404.7488C805.0824,-398.577 729.539,-385.6613 659.1939,-355.9906"/>
<polygon fill="#000000" stroke="#000000" points="660.3197,-352.6638 649.753,-351.8919 657.532,-359.0848 660.3197,-352.6638"/>
</g>
<!-- tsvs -->
<g id="node46" class="node">
<title>tsvs</title>
<polygon fill="none" stroke="#000000" stroke-dasharray="5,2" points="909.0986,-332 667.9565,-332 667.9565,-192 909.0986,-192 909.0986,-332"/>
<text text-anchor="middle" x="788.5275" y="-319" font-family="Helvetica,sans-Serif" font-size="10.00" fill="#000000">output/&lt;SAMPLE_ID&gt;/3nt_periodicity.tsv</text>
<text text-anchor="middle" x="788.5275" y="-307" font-family="Helvetica,sans-Serif" font-size="10.00" fill="#000000">&#13;</text>
<text text-anchor="middle" x="788.5275" y="-295" font-family="Helvetica,sans-Serif" font-size="10.00" fill="#000000">output/&lt;SAMPLE_ID&gt;/codon_ribodens.tsv</text>
<text text-anchor="middle" x="788.5275" y="-283" font-family="Helvetica,sans-Serif" font-size="10.00" fill="#000000">&#13;</text>
<text text-anchor="middle" x="788.5275" y="-271" font-family="Helvetica,sans-Serif" font-size="10.00" fill="#000000">output/&lt;SAMPLE_ID&gt;/read_lengths.tsv</text>
<text text-anchor="middle" x="788.5275" y="-259" font-family="Helvetica,sans-Serif" font-size="10.00" fill="#000000">&#13;</text>
<text text-anchor="middle" x="788.5275" y="-247" font-family="Helvetica,sans-Serif" font-size="10.00" fill="#000000">output/&lt;SAMPLE_ID&gt;/pos_sp_rpf_norm_reads.tsv</text>
<text text-anchor="middle" x="788.5275" y="-235" font-family="Helvetica,sans-Serif" font-size="10.00" fill="#000000">&#13;</text>
<text text-anchor="middle" x="788.5275" y="-223" font-family="Helvetica,sans-Serif" font-size="10.00" fill="#000000">output/&lt;SAMPLE_ID&gt;/pos_sp_nt_freq.tsv</text>
<text text-anchor="middle" x="788.5275" y="-211" font-family="Helvetica,sans-Serif" font-size="10.00" fill="#000000">&#13;</text>
<text text-anchor="middle" x="788.5275" y="-199" font-family="Helvetica,sans-Serif" font-size="10.00" fill="#000000">output/&lt;SAMPLE_ID&gt;/3ntframe_bygene.tsv&#13;</text>
</g>
<!-- statsfigs&#45;&gt;tsvs -->
<g id="edge47" class="edge">
<title>statsfigs&#45;&gt;tsvs</title>
<path fill="none" stroke="#000000" d="M897.3227,-391.8523C886.1326,-378.4964 870.0803,-359.3371 853.7302,-339.8225"/>
<polygon fill="#000000" stroke="#000000" points="856.3191,-337.4626 847.214,-332.0451 850.9534,-341.9581 856.3191,-337.4626"/>
</g>
<!-- output/&lt;SAMPLE_ID&gt;/tpms.tsv -->
<g id="node47" class="node">
<title>output/&lt;SAMPLE_ID&gt;/tpms.tsv</title>
<text text-anchor="middle" x="1004.5275" y="-259" font-family="Helvetica,sans-Serif" font-size="10.00" fill="#000000">output/&lt;SAMPLE_ID&gt;/tpms.tsv</text>
</g>
<!-- statsfigs&#45;&gt;output/&lt;SAMPLE_ID&gt;/tpms.tsv -->
<g id="edge48" class="edge">
<title>statsfigs&#45;&gt;output/&lt;SAMPLE_ID&gt;/tpms.tsv</title>
<path fill="none" stroke="#000000" d="M923.8085,-391.8523C939.8105,-366.1101 969.2135,-318.8095 987.7703,-288.9573"/>
<polygon fill="#000000" stroke="#000000" points="990.8474,-290.6368 993.1543,-280.2961 984.9024,-286.9412 990.8474,-290.6368"/>
</g>
<!-- tmp/&lt;SAMPLE_ID&gt;/nonrRNA.fq&#45;&gt;h22 -->
<g id="edge18" class="edge">
<title>tmp/&lt;SAMPLE_ID&gt;/nonrRNA.fq&#45;&gt;h22</title>
<path fill="none" stroke="#000000" d="M609.6868,-1471.8314C617.6787,-1463.3694 627.3314,-1453.1489 636.0692,-1443.8971"/>
<polygon fill="#000000" stroke="#000000" points="638.8155,-1446.0866 643.1372,-1436.4133 633.7264,-1441.2802 638.8155,-1446.0866"/>
</g>
<!-- tmp/&lt;SAMPLE_ID&gt;/orf_map.sam&#45;&gt;trim -->
<g id="edge21" class="edge">
<title>tmp/&lt;SAMPLE_ID&gt;/orf_map.sam&#45;&gt;trim</title>
<path fill="none" stroke="#000000" d="M750.5275,-1327.8314C750.5275,-1320.131 750.5275,-1310.9743 750.5275,-1302.4166"/>
<polygon fill="#000000" stroke="#000000" points="754.0276,-1302.4132 750.5275,-1292.4133 747.0276,-1302.4133 754.0276,-1302.4132"/>
</g>
<!-- tmp/&lt;SAMPLE_ID&gt;/orf_map_clean.sam&#45;&gt;samview -->
<g id="edge23" class="edge">
<title>tmp/&lt;SAMPLE_ID&gt;/orf_map_clean.sam&#45;&gt;samview</title>
<path fill="none" stroke="#000000" d="M750.5275,-1183.8314C750.5275,-1176.131 750.5275,-1166.9743 750.5275,-1158.4166"/>
<polygon fill="#000000" stroke="#000000" points="754.0276,-1158.4132 750.5275,-1148.4133 747.0276,-1158.4133 754.0276,-1158.4132"/>
</g>
<!-- tmp/&lt;SAMPLE_ID&gt;/pre_dedup.bam&#45;&gt;samindex -->
<g id="edge25" class="edge">
<title>tmp/&lt;SAMPLE_ID&gt;/pre_dedup.bam&#45;&gt;samindex</title>
<path fill="none" stroke="#000000" d="M750.5275,-1039.8314C750.5275,-1032.131 750.5275,-1022.9743 750.5275,-1014.4166"/>
<polygon fill="#000000" stroke="#000000" points="754.0276,-1014.4132 750.5275,-1004.4133 747.0276,-1014.4133 754.0276,-1014.4132"/>
</g>
<!-- tmp/&lt;SAMPLE_ID&gt;/pre_dedup.bam+.bai&#45;&gt;umi_pre_group -->
<g id="edge27" class="edge">
<title>tmp/&lt;SAMPLE_ID&gt;/pre_dedup.bam+.bai&#45;&gt;umi_pre_group</title>
<path fill="none" stroke="#000000" d="M708.8911,-895.8314C686.8233,-886.2018 659.5368,-874.295 636.2418,-864.1299"/>
<polygon fill="#000000" stroke="#000000" points="637.4298,-860.8296 626.8646,-860.038 634.6302,-867.2454 637.4298,-860.8296"/>
</g>
<!-- tmp/&lt;SAMPLE_ID&gt;/pre_dedup.bam+.bai&#45;&gt;umi_dedup -->
<g id="edge29" class="edge">
<title>tmp/&lt;SAMPLE_ID&gt;/pre_dedup.bam+.bai&#45;&gt;umi_dedup</title>
<path fill="none" stroke="#000000" d="M750.5275,-895.8314C750.5275,-888.131 750.5275,-878.9743 750.5275,-870.4166"/>
<polygon fill="#000000" stroke="#000000" points="754.0276,-870.4132 750.5275,-860.4133 747.0276,-870.4133 754.0276,-870.4132"/>
</g>
<!-- output/&lt;SAMPLE_ID&gt;/&lt;SAMPLE_ID&gt;.bam&#45;&gt;umi_post_group -->
<g id="edge31" class="edge">
<title>output/&lt;SAMPLE_ID&gt;/&lt;SAMPLE_ID&gt;.bam&#45;&gt;umi_post_group</title>
<path fill="none" stroke="#000000" d="M707.377,-751.8314C684.4051,-742.159 655.9766,-730.1891 631.7643,-719.9944"/>
<polygon fill="#000000" stroke="#000000" points="632.9424,-716.6929 622.3678,-716.038 630.2259,-723.1443 632.9424,-716.6929"/>
</g>
<!-- output/&lt;SAMPLE_ID&gt;/&lt;SAMPLE_ID&gt;.bam&#45;&gt;samindex_dedup -->
<g id="edge33" class="edge">
<title>output/&lt;SAMPLE_ID&gt;/&lt;SAMPLE_ID&gt;.bam&#45;&gt;samindex_dedup</title>
<path fill="none" stroke="#000000" d="M750.5275,-751.8314C750.5275,-744.131 750.5275,-734.9743 750.5275,-726.4166"/>
<polygon fill="#000000" stroke="#000000" points="754.0276,-726.4132 750.5275,-716.4133 747.0276,-726.4133 754.0276,-726.4132"/>
</g>
<!-- output/&lt;SAMPLE_ID&gt;/&lt;SAMPLE_ID&gt;.bam+.bai&#45;&gt;bedplus -->
<g id="edge35" class="edge">
<title>output/&lt;SAMPLE_ID&gt;/&lt;SAMPLE_ID&gt;.bam+.bai&#45;&gt;bedplus</title>
<path fill="none" stroke="#000000" d="M701.3215,-607.9243C674.6436,-598.1243 641.489,-585.945 613.4423,-575.6422"/>
<polygon fill="#000000" stroke="#000000" points="614.3475,-572.246 603.7539,-572.0831 611.9337,-578.8167 614.3475,-572.246"/>
</g>
<!-- output/&lt;SAMPLE_ID&gt;/&lt;SAMPLE_ID&gt;.bam+.bai&#45;&gt;bedminus -->
<g id="edge37" class="edge">
<title>output/&lt;SAMPLE_ID&gt;/&lt;SAMPLE_ID&gt;.bam+.bai&#45;&gt;bedminus</title>
<path fill="none" stroke="#000000" d="M744.219,-607.8314C741.5159,-600.0463 738.2959,-590.7729 735.2965,-582.1347"/>
<polygon fill="#000000" stroke="#000000" points="738.5076,-580.7119 731.921,-572.4133 731.8949,-583.0081 738.5076,-580.7119"/>
</g>
<!-- output/&lt;SAMPLE_ID&gt;/&lt;SAMPLE_ID&gt;.bam+.bai&#45;&gt;bam2h5 -->
<g id="edge39" class="edge">
<title>output/&lt;SAMPLE_ID&gt;/&lt;SAMPLE_ID&gt;.bam+.bai&#45;&gt;bam2h5</title>
<path fill="none" stroke="#000000" d="M791.407,-607.8314C813.815,-597.8723 841.7034,-585.4774 865.0692,-575.0926"/>
<polygon fill="#000000" stroke="#000000" points="866.7268,-578.1861 874.4434,-570.9263 863.8838,-571.7894 866.7268,-578.1861"/>
</g>
<!-- output/&lt;SAMPLE_ID&gt;/&lt;SAMPLE_ID&gt;.h5&#45;&gt;statsfigs -->
<g id="edge42" class="edge">
<title>output/&lt;SAMPLE_ID&gt;/&lt;SAMPLE_ID&gt;.h5&#45;&gt;statsfigs</title>
<path fill="none" stroke="#000000" d="M912.5275,-463.8314C912.5275,-456.131 912.5275,-446.9743 912.5275,-438.4166"/>
<polygon fill="#000000" stroke="#000000" points="916.0276,-438.4132 912.5275,-428.4133 909.0276,-438.4133 916.0276,-438.4132"/>
</g>
<!-- collate -->
<g id="node48" class="node">
<title>collate</title>
<polygon fill="none" stroke="#000000" points="1045.6456,-124 963.4095,-124 963.4095,-88 1045.6456,-88 1045.6456,-124"/>
<text text-anchor="middle" x="1004.5275" y="-103" font-family="Helvetica,sans-Serif" font-size="10.00" fill="#000000">collate_tpms.R</text>
</g>
<!-- output/&lt;SAMPLE_ID&gt;/tpms.tsv&#45;&gt;collate -->
<g id="edge49" class="edge">
<title>output/&lt;SAMPLE_ID&gt;/tpms.tsv&#45;&gt;collate</title>
<path fill="none" stroke="#000000" d="M1004.5275,-243.7995C1004.5275,-216.9103 1004.5275,-166.3255 1004.5275,-134.4926"/>
<polygon fill="#000000" stroke="#000000" points="1008.0276,-134.0845 1004.5275,-124.0846 1001.0276,-134.0846 1008.0276,-134.0845"/>
</g>
<!-- output/TPMs_collated.tsv -->
<g id="node49" class="node">
<title>output/TPMs_collated.tsv</title>
<text text-anchor="middle" x="1004.5275" y="-31" font-family="Helvetica,sans-Serif" font-size="10.00" fill="#000000">output/TPMs_collated.tsv</text>
</g>
<!-- collate&#45;&gt;output/TPMs_collated.tsv -->
<g id="edge50" class="edge">
<title>collate&#45;&gt;output/TPMs_collated.tsv</title>
<path fill="none" stroke="#000000" d="M1004.5275,-87.8314C1004.5275,-80.131 1004.5275,-70.9743 1004.5275,-62.4166"/>
<polygon fill="#000000" stroke="#000000" points="1008.0276,-62.4132 1004.5275,-52.4133 1001.0276,-62.4133 1008.0276,-62.4132"/>
</g>
</g>
</svg>
