<?xml version="1.0" encoding="UTF-8" standalone="no"?>
<!DOCTYPE svg PUBLIC "-//W3C//DTD SVG 1.1//EN"
 "http://www.w3.org/Graphics/SVG/1.1/DTD/svg11.dtd">
<!-- Generated by graphviz version 2.40.1 (20161225.0304)
 -->
<!-- Title: G Pages: 1 -->
<svg width="1105pt" height="1652pt"
 viewBox="0.00 0.00 1105.00 1652.00" xmlns="http://www.w3.org/2000/svg" xmlns:xlink="http://www.w3.org/1999/xlink">
<g id="graph0" class="graph" transform="scale(1 1) rotate(0) translate(4 1648)">
<title>G</title>
<polygon fill="#ffffff" stroke="transparent" points="-4,4 -4,-1648 1101,-1648 1101,4 -4,4"/>
<g id="clust1" class="cluster">
<title>cluster_data</title>
<polygon fill="none" stroke="#000000" stroke-dasharray="5,2" points="279,-1472 279,-1636 1089,-1636 1089,-1472 279,-1472"/>
<text text-anchor="middle" x="297.558" y="-1623" font-family="Helvetica,sans-Serif" font-size="10.00" fill="#000000">Data</text>
</g>
<g id="clust2" class="cluster">
<title>cluster_organism</title>
<polygon fill="none" stroke="#000000" stroke-dasharray="5,2" points="695,-1508 695,-1580 883,-1580 883,-1508 695,-1508"/>
<text text-anchor="middle" x="735.784" y="-1567" font-family="Helvetica,sans-Serif" font-size="10.00" fill="#000000">Organism data</text>
</g>
<g id="clust3" class="cluster">
<title>cluster_contaminants</title>
<polygon fill="none" stroke="#000000" stroke-dasharray="5,2" points="287,-1508 287,-1580 373,-1580 373,-1508 287,-1508"/>
<text text-anchor="middle" x="325.8395" y="-1567" font-family="Helvetica,sans-Serif" font-size="10.00" fill="#000000">Contaminants</text>
</g>
<g id="clust4" class="cluster">
<title>cluster_additional_organism</title>
<polygon fill="none" stroke="#000000" stroke-dasharray="5,2" points="891,-1480 891,-1608 1081,-1608 1081,-1480 891,-1480"/>
<text text-anchor="middle" x="972.3455" y="-1595" font-family="Helvetica,sans-Serif" font-size="10.00" fill="#000000">Additional organism&#45;specific data</text>
</g>
<g id="clust5" class="cluster">
<title>cluster_ribosome</title>
<polygon fill="none" stroke="#000000" stroke-dasharray="5,2" points="381,-1508 381,-1580 687,-1580 687,-1508 381,-1508"/>
<text text-anchor="middle" x="441.509" y="-1567" font-family="Helvetica,sans-Serif" font-size="10.00" fill="#000000">Ribosome profiling data</text>
</g>
<g id="clust6" class="cluster">
<title>cluster_indexing</title>
<polygon fill="none" stroke="#000000" points="8,-1320 8,-1464 262,-1464 262,-1320 8,-1320"/>
<text text-anchor="middle" x="34.8965" y="-1451" font-family="Helvetica,sans-Serif" font-size="10.00" fill="#000000">Indexing</text>
</g>
<g id="clust7" class="cluster">
<title>cluster_per_sample_processing</title>
<polygon fill="none" stroke="#000000" points="270,-160 270,-1464 960,-1464 960,-160 270,-160"/>
<text text-anchor="middle" x="331.347" y="-1451" font-family="Helvetica,sans-Serif" font-size="10.00" fill="#000000">Process &lt;SAMPLE_ID&gt;</text>
</g>
<g id="clust8" class="cluster">
<title>cluster_tpms_collation</title>
<polygon fill="none" stroke="#000000" points="803,-8 803,-152 947,-152 947,-8 803,-8"/>
<text text-anchor="middle" x="843.779" y="-139" font-family="Helvetica,sans-Serif" font-size="10.00" fill="#000000">TPMs collation</text>
</g>
<!-- input/CDS.fa -->
<g id="node1" class="node">
<title>input/CDS.fa</title>
<text text-anchor="middle" x="739" y="-1531" font-family="Helvetica,sans-Serif" font-size="10.00" fill="#000000">input/CDS.fa</text>
</g>
<!-- h2build2 -->
<g id="node9" class="node">
<title>h2build2</title>
<polygon fill="none" stroke="#000000" points="243.6191,-1436 176.3809,-1436 176.3809,-1400 243.6191,-1400 243.6191,-1436"/>
<text text-anchor="middle" x="210" y="-1415" font-family="Helvetica,sans-Serif" font-size="10.00" fill="#000000">hisat2&#45;build</text>
</g>
<!-- input/CDS.fa&#45;&gt;h2build2 -->
<g id="edge3" class="edge">
<title>input/CDS.fa&#45;&gt;h2build2</title>
<path fill="none" stroke="#000000" d="M730.6696,-1515.9212C722.7682,-1501.138 709.3689,-1481.2249 691,-1472 648.7929,-1450.8036 310.3143,-1480.3392 266,-1464 254.1306,-1459.6236 242.9462,-1451.5889 233.7398,-1443.4448"/>
<polygon fill="#000000" stroke="#000000" points="235.8744,-1440.6478 226.1909,-1436.3488 231.08,-1445.7482 235.8744,-1440.6478"/>
</g>
<!-- statsfigs -->
<g id="node21" class="node">
<title>statsfigs</title>
<polygon fill="none" stroke="#000000" points="931.7523,-428 818.2477,-428 818.2477,-392 931.7523,-392 931.7523,-428"/>
<text text-anchor="middle" x="875" y="-407" font-family="Helvetica,sans-Serif" font-size="10.00" fill="#000000">generate_stats_figs.R</text>
</g>
<!-- input/CDS.fa&#45;&gt;statsfigs -->
<g id="edge29" class="edge">
<title>input/CDS.fa&#45;&gt;statsfigs</title>
<path fill="none" stroke="#000000" d="M751.9948,-1515.9208C785.461,-1469.3235 872,-1348.58 872,-1346 872,-1346 872,-1346 872,-698 872,-593.6577 905.9763,-567.2619 891,-464 889.7428,-455.3319 887.4064,-446.1182 884.9,-437.802"/>
<polygon fill="#000000" stroke="#000000" points="888.2072,-436.6531 881.8195,-428.2004 881.5418,-438.7916 888.2072,-436.6531"/>
</g>
<!-- input/CDS.gff3 -->
<g id="node2" class="node">
<title>input/CDS.gff3</title>
<text text-anchor="middle" x="834" y="-1531" font-family="Helvetica,sans-Serif" font-size="10.00" fill="#000000">input/CDS.gff3</text>
</g>
<!-- bam2h5 -->
<g id="node20" class="node">
<title>bam2h5</title>
<polygon fill="none" stroke="#000000" points="821.019,-572 744.981,-572 744.981,-536 821.019,-536 821.019,-572"/>
<text text-anchor="middle" x="783" y="-551" font-family="Helvetica,sans-Serif" font-size="10.00" fill="#000000">bam_to_h5.R</text>
</g>
<!-- input/CDS.gff3&#45;&gt;bam2h5 -->
<g id="edge26" class="edge">
<title>input/CDS.gff3&#45;&gt;bam2h5</title>
<path fill="none" stroke="#000000" d="M851.0336,-1515.8292C862.6199,-1502.4751 877.3618,-1483.3545 886,-1464 907.812,-1415.1284 910,-1399.5182 910,-1346 910,-1346 910,-1346 910,-698 910,-645.0755 861.1495,-602.4091 824.0428,-577.6341"/>
<polygon fill="#000000" stroke="#000000" points="825.6728,-574.52 815.3761,-572.0244 821.8692,-580.3964 825.6728,-574.52"/>
</g>
<!-- input/CDS.gff3&#45;&gt;statsfigs -->
<g id="edge30" class="edge">
<title>input/CDS.gff3&#45;&gt;statsfigs</title>
<path fill="none" stroke="#000000" d="M845.4899,-1515.9537C855.0886,-1502.1851 869.9262,-1483.6588 887,-1472 895.9379,-1465.8968 902.4363,-1471.7412 910,-1464 948.505,-1424.5916 948,-1401.0968 948,-1346 948,-1346 948,-1346 948,-554 948,-512.6022 943.8016,-500.3548 924,-464 918.4367,-453.7861 910.5554,-443.9482 902.7365,-435.5321"/>
<polygon fill="#000000" stroke="#000000" points="905.1213,-432.9641 895.6416,-428.2327 900.1017,-437.843 905.1213,-432.9641"/>
</g>
<!-- input/rRNA.fa -->
<g id="node3" class="node">
<title>input/rRNA.fa</title>
<text text-anchor="middle" x="330" y="-1531.3" font-family="Helvetica,sans-Serif" font-size="9.00" fill="#000000">input/rRNA.fa</text>
</g>
<!-- h2build1 -->
<g id="node8" class="node">
<title>h2build1</title>
<polygon fill="none" stroke="#000000" points="137.6191,-1436 70.3809,-1436 70.3809,-1400 137.6191,-1400 137.6191,-1436"/>
<text text-anchor="middle" x="104" y="-1415" font-family="Helvetica,sans-Serif" font-size="10.00" fill="#000000">hisat2&#45;build</text>
</g>
<!-- input/rRNA.fa&#45;&gt;h2build1 -->
<g id="edge1" class="edge">
<title>input/rRNA.fa&#45;&gt;h2build1</title>
<path fill="none" stroke="#000000" d="M294.8914,-1521.5554C261.1251,-1508.9834 209.1392,-1488.0243 167,-1464 155.8783,-1457.6594 144.3799,-1449.7291 134.2995,-1442.2478"/>
<polygon fill="#000000" stroke="#000000" points="136.2889,-1439.3639 126.2049,-1436.1138 132.0612,-1444.9431 136.2889,-1439.3639"/>
</g>
<!-- data -->
<g id="node4" class="node">
<title>data</title>
<polygon fill="none" stroke="#000000" stroke-dasharray="5,2" points="1072.8391,-1580 899.1609,-1580 899.1609,-1488 1072.8391,-1488 1072.8391,-1580"/>
<text text-anchor="middle" x="986" y="-1567" font-family="Helvetica,sans-Serif" font-size="10.00" fill="#000000">data/codon_pos_i200.RData</text>
<text text-anchor="middle" x="986" y="-1555" font-family="Helvetica,sans-Serif" font-size="10.00" fill="#000000">&#13;</text>
<text text-anchor="middle" x="986" y="-1543" font-family="Helvetica,sans-Serif" font-size="10.00" fill="#000000">data/features.tsv</text>
<text text-anchor="middle" x="986" y="-1531" font-family="Helvetica,sans-Serif" font-size="10.00" fill="#000000">&#13;</text>
<text text-anchor="middle" x="986" y="-1519" font-family="Helvetica,sans-Serif" font-size="10.00" fill="#000000">data/tRNAs.tsv</text>
<text text-anchor="middle" x="986" y="-1507" font-family="Helvetica,sans-Serif" font-size="10.00" fill="#000000">&#13;</text>
<text text-anchor="middle" x="986" y="-1495" font-family="Helvetica,sans-Serif" font-size="10.00" fill="#000000">data/standard_asite_disp_length.txt</text>
</g>
<!-- data&#45;&gt;statsfigs -->
<g id="edge31" class="edge">
<title>data&#45;&gt;statsfigs</title>
<path fill="none" stroke="#000000" d="M986,-1487.644C986,-1449.5928 986,-1394.3056 986,-1346 986,-1346 986,-1346 986,-554 986,-510.2273 973.1615,-498.3264 946,-464 937.0301,-452.6639 925.162,-442.4153 913.7017,-433.9683"/>
<polygon fill="#000000" stroke="#000000" points="915.6606,-431.0668 905.4762,-428.1462 911.6164,-436.7804 915.6606,-431.0668"/>
</g>
<!-- ribosome_data0toI -->
<g id="node5" class="node">
<title>ribosome_data0toI</title>
<text text-anchor="middle" x="652" y="-1531" font-family="Helvetica,sans-Serif" font-size="10.00" fill="#000000">...</text>
</g>
<!-- input/&lt;SAMPLE_ID&gt;.fastq.gz -->
<g id="node6" class="node">
<title>input/&lt;SAMPLE_ID&gt;.fastq.gz</title>
<text text-anchor="middle" x="534" y="-1531" font-family="Helvetica,sans-Serif" font-size="10.00" fill="#000000">input/&lt;SAMPLE_ID&gt;.fastq.gz</text>
</g>
<!-- cut -->
<g id="node12" class="node">
<title>cut</title>
<polygon fill="none" stroke="#000000" points="540.3542,-1436 485.6458,-1436 485.6458,-1400 540.3542,-1400 540.3542,-1436"/>
<text text-anchor="middle" x="513" y="-1415" font-family="Helvetica,sans-Serif" font-size="10.00" fill="#000000">cutadapt</text>
</g>
<!-- input/&lt;SAMPLE_ID&gt;.fastq.gz&#45;&gt;cut -->
<g id="edge5" class="edge">
<title>input/&lt;SAMPLE_ID&gt;.fastq.gz&#45;&gt;cut</title>
<path fill="none" stroke="#000000" d="M530.7188,-1515.875C527.3482,-1497.2566 522.0541,-1468.0131 518.1296,-1446.335"/>
<polygon fill="#000000" stroke="#000000" points="521.553,-1445.5971 516.3275,-1436.3805 514.665,-1446.8441 521.553,-1445.5971"/>
</g>
<!-- ribosome_dataItoN -->
<g id="node7" class="node">
<title>ribosome_dataItoN</title>
<text text-anchor="middle" x="416" y="-1531" font-family="Helvetica,sans-Serif" font-size="10.00" fill="#000000">...</text>
</g>
<!-- index/rRNA.1|...|8.ht2 -->
<g id="node10" class="node">
<title>index/rRNA.1|...|8.ht2</title>
<text text-anchor="middle" x="72" y="-1343" font-family="Helvetica,sans-Serif" font-size="10.00" fill="#000000">index/rRNA.1|...|8.ht2</text>
</g>
<!-- h2build1&#45;&gt;index/rRNA.1|...|8.ht2 -->
<g id="edge2" class="edge">
<title>h2build1&#45;&gt;index/rRNA.1|...|8.ht2</title>
<path fill="none" stroke="#000000" d="M95.925,-1399.8314C92.3898,-1391.8771 88.164,-1382.369 84.2544,-1373.5723"/>
<polygon fill="#000000" stroke="#000000" points="87.4435,-1372.1299 80.1837,-1364.4133 81.0468,-1374.9729 87.4435,-1372.1299"/>
</g>
<!-- index/CDS.1|...|8.ht2 -->
<g id="node11" class="node">
<title>index/CDS.1|...|8.ht2</title>
<text text-anchor="middle" x="200" y="-1343" font-family="Helvetica,sans-Serif" font-size="10.00" fill="#000000">index/CDS.1|...|8.ht2</text>
</g>
<!-- h2build2&#45;&gt;index/CDS.1|...|8.ht2 -->
<g id="edge4" class="edge">
<title>h2build2&#45;&gt;index/CDS.1|...|8.ht2</title>
<path fill="none" stroke="#000000" d="M207.4766,-1399.8314C206.4071,-1392.131 205.1353,-1382.9743 203.9468,-1374.4166"/>
<polygon fill="#000000" stroke="#000000" points="207.3999,-1373.8367 202.5574,-1364.4133 200.4664,-1374.7997 207.3999,-1373.8367"/>
</g>
<!-- h21 -->
<g id="node13" class="node">
<title>h21</title>
<polygon fill="none" stroke="#000000" points="415,-1292 361,-1292 361,-1256 415,-1256 415,-1292"/>
<text text-anchor="middle" x="388" y="-1271" font-family="Helvetica,sans-Serif" font-size="10.00" fill="#000000">hisat2</text>
</g>
<!-- index/rRNA.1|...|8.ht2&#45;&gt;h21 -->
<g id="edge8" class="edge">
<title>index/rRNA.1|...|8.ht2&#45;&gt;h21</title>
<path fill="none" stroke="#000000" d="M113.5301,-1327.968C121.2391,-1325.0288 129.2927,-1322.2236 137,-1320 211.3554,-1298.5478 301.1048,-1284.9537 350.6194,-1278.4819"/>
<polygon fill="#000000" stroke="#000000" points="351.3727,-1281.9141 360.847,-1277.1721 350.4834,-1274.9709 351.3727,-1281.9141"/>
</g>
<!-- h22 -->
<g id="node14" class="node">
<title>h22</title>
<polygon fill="none" stroke="#000000" points="499,-1148 445,-1148 445,-1112 499,-1112 499,-1148"/>
<text text-anchor="middle" x="472" y="-1127" font-family="Helvetica,sans-Serif" font-size="10.00" fill="#000000">hisat2</text>
</g>
<!-- index/CDS.1|...|8.ht2&#45;&gt;h22 -->
<g id="edge11" class="edge">
<title>index/CDS.1|...|8.ht2&#45;&gt;h22</title>
<path fill="none" stroke="#000000" d="M202.4646,-1327.8949C208.0098,-1294.3447 224.6445,-1222.4395 269,-1184 293.6875,-1162.6053 383.2433,-1144.7086 434.7823,-1135.8924"/>
<polygon fill="#000000" stroke="#000000" points="435.5766,-1139.3081 444.8595,-1134.2013 434.4181,-1132.4046 435.5766,-1139.3081"/>
</g>
<!-- tmp/&lt;SAMPLE_ID&gt;/trim.fq -->
<g id="node22" class="node">
<title>tmp/&lt;SAMPLE_ID&gt;/trim.fq</title>
<text text-anchor="middle" x="471" y="-1343" font-family="Helvetica,sans-Serif" font-size="10.00" fill="#000000">tmp/&lt;SAMPLE_ID&gt;/trim.fq</text>
</g>
<!-- cut&#45;&gt;tmp/&lt;SAMPLE_ID&gt;/trim.fq -->
<g id="edge6" class="edge">
<title>cut&#45;&gt;tmp/&lt;SAMPLE_ID&gt;/trim.fq</title>
<path fill="none" stroke="#000000" d="M502.4016,-1399.8314C497.7123,-1391.7925 492.0972,-1382.1666 486.9202,-1373.2918"/>
<polygon fill="#000000" stroke="#000000" points="489.8031,-1371.2875 481.7411,-1364.4133 483.7566,-1374.8146 489.8031,-1371.2875"/>
</g>
<!-- tmp/&lt;SAMPLE_ID&gt;/rRNA_map.sam -->
<g id="node23" class="node">
<title>tmp/&lt;SAMPLE_ID&gt;/rRNA_map.sam</title>
<text text-anchor="middle" x="367" y="-1199" font-family="Helvetica,sans-Serif" font-size="10.00" fill="#000000">tmp/&lt;SAMPLE_ID&gt;/rRNA_map.sam</text>
</g>
<!-- h21&#45;&gt;tmp/&lt;SAMPLE_ID&gt;/rRNA_map.sam -->
<g id="edge9" class="edge">
<title>h21&#45;&gt;tmp/&lt;SAMPLE_ID&gt;/rRNA_map.sam</title>
<path fill="none" stroke="#000000" d="M382.7008,-1255.8314C380.4302,-1248.0463 377.7254,-1238.7729 375.206,-1230.1347"/>
<polygon fill="#000000" stroke="#000000" points="378.5306,-1229.0332 372.3705,-1220.4133 371.8106,-1230.9933 378.5306,-1229.0332"/>
</g>
<!-- tmp/&lt;SAMPLE_ID&gt;/nonrRNA.fq -->
<g id="node24" class="node">
<title>tmp/&lt;SAMPLE_ID&gt;/nonrRNA.fq</title>
<text text-anchor="middle" x="553" y="-1199" font-family="Helvetica,sans-Serif" font-size="10.00" fill="#000000">tmp/&lt;SAMPLE_ID&gt;/nonrRNA.fq</text>
</g>
<!-- h21&#45;&gt;tmp/&lt;SAMPLE_ID&gt;/nonrRNA.fq -->
<g id="edge10" class="edge">
<title>h21&#45;&gt;tmp/&lt;SAMPLE_ID&gt;/nonrRNA.fq</title>
<path fill="none" stroke="#000000" d="M415.2464,-1262.1107C438.766,-1251.8476 473.3737,-1236.746 502.0164,-1224.2474"/>
<polygon fill="#000000" stroke="#000000" points="503.7111,-1227.3266 511.4767,-1220.1193 500.9115,-1220.9109 503.7111,-1227.3266"/>
</g>
<!-- tmp/&lt;SAMPLE_ID&gt;/unaligned.fq -->
<g id="node25" class="node">
<title>tmp/&lt;SAMPLE_ID&gt;/unaligned.fq</title>
<text text-anchor="middle" x="391" y="-1055" font-family="Helvetica,sans-Serif" font-size="10.00" fill="#000000">tmp/&lt;SAMPLE_ID&gt;/unaligned.fq</text>
</g>
<!-- h22&#45;&gt;tmp/&lt;SAMPLE_ID&gt;/unaligned.fq -->
<g id="edge13" class="edge">
<title>h22&#45;&gt;tmp/&lt;SAMPLE_ID&gt;/unaligned.fq</title>
<path fill="none" stroke="#000000" d="M451.5603,-1111.8314C441.6795,-1103.0485 429.6676,-1092.3712 418.955,-1082.8489"/>
<polygon fill="#000000" stroke="#000000" points="421.2326,-1080.1906 411.4332,-1076.1628 416.582,-1085.4224 421.2326,-1080.1906"/>
</g>
<!-- tmp/&lt;SAMPLE_ID&gt;/orf_map.sam -->
<g id="node26" class="node">
<title>tmp/&lt;SAMPLE_ID&gt;/orf_map.sam</title>
<text text-anchor="middle" x="571" y="-1055" font-family="Helvetica,sans-Serif" font-size="10.00" fill="#000000">tmp/&lt;SAMPLE_ID&gt;/orf_map.sam</text>
</g>
<!-- h22&#45;&gt;tmp/&lt;SAMPLE_ID&gt;/orf_map.sam -->
<g id="edge14" class="edge">
<title>h22&#45;&gt;tmp/&lt;SAMPLE_ID&gt;/orf_map.sam</title>
<path fill="none" stroke="#000000" d="M496.9819,-1111.8314C509.2928,-1102.8779 524.3107,-1091.9558 537.5937,-1082.2955"/>
<polygon fill="#000000" stroke="#000000" points="539.9973,-1084.8752 546.0261,-1076.1628 535.8801,-1079.214 539.9973,-1084.8752"/>
</g>
<!-- samindex -->
<g id="node15" class="node">
<title>samindex</title>
<polygon fill="none" stroke="#000000" points="612.1796,-716 529.8204,-716 529.8204,-680 612.1796,-680 612.1796,-716"/>
<text text-anchor="middle" x="571" y="-695" font-family="Helvetica,sans-Serif" font-size="10.00" fill="#000000">samtools index</text>
</g>
<!-- output/&lt;SAMPLE_ID&gt;/&lt;SAMPLE_ID&gt;.bam+.bai -->
<g id="node29" class="node">
<title>output/&lt;SAMPLE_ID&gt;/&lt;SAMPLE_ID&gt;.bam+.bai</title>
<text text-anchor="middle" x="571" y="-623" font-family="Helvetica,sans-Serif" font-size="10.00" fill="#000000">output/&lt;SAMPLE_ID&gt;/&lt;SAMPLE_ID&gt;.bam+.bai</text>
</g>
<!-- samindex&#45;&gt;output/&lt;SAMPLE_ID&gt;/&lt;SAMPLE_ID&gt;.bam+.bai -->
<g id="edge20" class="edge">
<title>samindex&#45;&gt;output/&lt;SAMPLE_ID&gt;/&lt;SAMPLE_ID&gt;.bam+.bai</title>
<path fill="none" stroke="#000000" d="M571,-679.8314C571,-672.131 571,-662.9743 571,-654.4166"/>
<polygon fill="#000000" stroke="#000000" points="574.5001,-654.4132 571,-644.4133 567.5001,-654.4133 574.5001,-654.4132"/>
</g>
<!-- samview -->
<g id="node16" class="node">
<title>samview</title>
<polygon fill="none" stroke="#000000" points="644.3875,-860 497.6125,-860 497.6125,-824 644.3875,-824 644.3875,-860"/>
<text text-anchor="middle" x="571" y="-839" font-family="Helvetica,sans-Serif" font-size="10.00" fill="#000000">samtools view | samtools sort</text>
</g>
<!-- output/&lt;SAMPLE_ID&gt;/&lt;SAMPLE_ID&gt;.bam -->
<g id="node28" class="node">
<title>output/&lt;SAMPLE_ID&gt;/&lt;SAMPLE_ID&gt;.bam</title>
<text text-anchor="middle" x="571" y="-767" font-family="Helvetica,sans-Serif" font-size="10.00" fill="#000000">output/&lt;SAMPLE_ID&gt;/&lt;SAMPLE_ID&gt;.bam</text>
</g>
<!-- samview&#45;&gt;output/&lt;SAMPLE_ID&gt;/&lt;SAMPLE_ID&gt;.bam -->
<g id="edge18" class="edge">
<title>samview&#45;&gt;output/&lt;SAMPLE_ID&gt;/&lt;SAMPLE_ID&gt;.bam</title>
<path fill="none" stroke="#000000" d="M571,-823.8314C571,-816.131 571,-806.9743 571,-798.4166"/>
<polygon fill="#000000" stroke="#000000" points="574.5001,-798.4132 571,-788.4133 567.5001,-798.4133 574.5001,-798.4132"/>
</g>
<!-- trim -->
<g id="node17" class="node">
<title>trim</title>
<polygon fill="none" stroke="#000000" points="626.504,-1004 515.496,-1004 515.496,-968 626.504,-968 626.504,-1004"/>
<text text-anchor="middle" x="571" y="-983" font-family="Helvetica,sans-Serif" font-size="10.00" fill="#000000">trim_5p_mismatch.py</text>
</g>
<!-- tmp/&lt;SAMPLE_ID&gt;/orf_map_clean.sam -->
<g id="node27" class="node">
<title>tmp/&lt;SAMPLE_ID&gt;/orf_map_clean.sam</title>
<text text-anchor="middle" x="571" y="-911" font-family="Helvetica,sans-Serif" font-size="10.00" fill="#000000">tmp/&lt;SAMPLE_ID&gt;/orf_map_clean.sam</text>
</g>
<!-- trim&#45;&gt;tmp/&lt;SAMPLE_ID&gt;/orf_map_clean.sam -->
<g id="edge16" class="edge">
<title>trim&#45;&gt;tmp/&lt;SAMPLE_ID&gt;/orf_map_clean.sam</title>
<path fill="none" stroke="#000000" d="M571,-967.8314C571,-960.131 571,-950.9743 571,-942.4166"/>
<polygon fill="#000000" stroke="#000000" points="574.5001,-942.4132 571,-932.4133 567.5001,-942.4133 574.5001,-942.4132"/>
</g>
<!-- bedplus -->
<g id="node18" class="node">
<title>bedplus</title>
<polygon fill="none" stroke="#000000" points="460.5319,-572 337.4681,-572 337.4681,-536 460.5319,-536 460.5319,-572"/>
<text text-anchor="middle" x="399" y="-551" font-family="Helvetica,sans-Serif" font-size="10.00" fill="#000000">bedtools genomecov (+)</text>
</g>
<!-- output/&lt;SAMPLE_ID&gt;/plus.bedgraph -->
<g id="node30" class="node">
<title>output/&lt;SAMPLE_ID&gt;/plus.bedgraph</title>
<text text-anchor="middle" x="368" y="-479" font-family="Helvetica,sans-Serif" font-size="10.00" fill="#000000">output/&lt;SAMPLE_ID&gt;/plus.bedgraph</text>
</g>
<!-- bedplus&#45;&gt;output/&lt;SAMPLE_ID&gt;/plus.bedgraph -->
<g id="edge22" class="edge">
<title>bedplus&#45;&gt;output/&lt;SAMPLE_ID&gt;/plus.bedgraph</title>
<path fill="none" stroke="#000000" d="M391.1774,-535.8314C387.7891,-527.9617 383.7459,-518.5712 379.9924,-509.8533"/>
<polygon fill="#000000" stroke="#000000" points="383.0973,-508.214 375.9279,-500.4133 376.6679,-510.9822 383.0973,-508.214"/>
</g>
<!-- bedminus -->
<g id="node19" class="node">
<title>bedminus</title>
<polygon fill="none" stroke="#000000" points="631.521,-572 510.479,-572 510.479,-536 631.521,-536 631.521,-572"/>
<text text-anchor="middle" x="571" y="-551" font-family="Helvetica,sans-Serif" font-size="10.00" fill="#000000">bedtools genomecov (&#45;)</text>
</g>
<!-- output/&lt;SAMPLE_ID&gt;/minus.bedgraph -->
<g id="node31" class="node">
<title>output/&lt;SAMPLE_ID&gt;/minus.bedgraph</title>
<text text-anchor="middle" x="571" y="-479" font-family="Helvetica,sans-Serif" font-size="10.00" fill="#000000">output/&lt;SAMPLE_ID&gt;/minus.bedgraph</text>
</g>
<!-- bedminus&#45;&gt;output/&lt;SAMPLE_ID&gt;/minus.bedgraph -->
<g id="edge24" class="edge">
<title>bedminus&#45;&gt;output/&lt;SAMPLE_ID&gt;/minus.bedgraph</title>
<path fill="none" stroke="#000000" d="M571,-535.8314C571,-528.131 571,-518.9743 571,-510.4166"/>
<polygon fill="#000000" stroke="#000000" points="574.5001,-510.4132 571,-500.4133 567.5001,-510.4133 574.5001,-510.4132"/>
</g>
<!-- output/&lt;SAMPLE_ID&gt;/&lt;SAMPLE_ID&gt;.h5 -->
<g id="node32" class="node">
<title>output/&lt;SAMPLE_ID&gt;/&lt;SAMPLE_ID&gt;.h5</title>
<text text-anchor="middle" x="783" y="-479" font-family="Helvetica,sans-Serif" font-size="10.00" fill="#000000">output/&lt;SAMPLE_ID&gt;/&lt;SAMPLE_ID&gt;.h5</text>
</g>
<!-- bam2h5&#45;&gt;output/&lt;SAMPLE_ID&gt;/&lt;SAMPLE_ID&gt;.h5 -->
<g id="edge27" class="edge">
<title>bam2h5&#45;&gt;output/&lt;SAMPLE_ID&gt;/&lt;SAMPLE_ID&gt;.h5</title>
<path fill="none" stroke="#000000" d="M783,-535.8314C783,-528.131 783,-518.9743 783,-510.4166"/>
<polygon fill="#000000" stroke="#000000" points="786.5001,-510.4132 783,-500.4133 779.5001,-510.4133 786.5001,-510.4132"/>
</g>
<!-- pdfs -->
<g id="node33" class="node">
<title>pdfs</title>
<polygon fill="none" stroke="#000000" stroke-dasharray="5,2" points="520.1891,-356 277.8109,-356 277.8109,-168 520.1891,-168 520.1891,-356"/>
<text text-anchor="middle" x="399" y="-343" font-family="Helvetica,sans-Serif" font-size="10.00" fill="#000000">output/&lt;SAMPLE_ID&gt;/3nt_periodicity.pdf</text>
<text text-anchor="middle" x="399" y="-331" font-family="Helvetica,sans-Serif" font-size="10.00" fill="#000000">&#13;</text>
<text text-anchor="middle" x="399" y="-319" font-family="Helvetica,sans-Serif" font-size="10.00" fill="#000000">output/&lt;SAMPLE_ID&gt;/codon_ribodens.pdf</text>
<text text-anchor="middle" x="399" y="-307" font-family="Helvetica,sans-Serif" font-size="10.00" fill="#000000">&#13;</text>
<text text-anchor="middle" x="399" y="-295" font-family="Helvetica,sans-Serif" font-size="10.00" fill="#000000">output/&lt;SAMPLE_ID&gt;/read_lengths.pdf</text>
<text text-anchor="middle" x="399" y="-283" font-family="Helvetica,sans-Serif" font-size="10.00" fill="#000000">&#13;</text>
<text text-anchor="middle" x="399" y="-271" font-family="Helvetica,sans-Serif" font-size="10.00" fill="#000000">output/&lt;SAMPLE_ID&gt;/pos_sp_rpf_norm_reads.pdf</text>
<text text-anchor="middle" x="399" y="-259" font-family="Helvetica,sans-Serif" font-size="10.00" fill="#000000">&#13;</text>
<text text-anchor="middle" x="399" y="-247" font-family="Helvetica,sans-Serif" font-size="10.00" fill="#000000">output/&lt;SAMPLE_ID&gt;/features.pdf</text>
<text text-anchor="middle" x="399" y="-235" font-family="Helvetica,sans-Serif" font-size="10.00" fill="#000000">&#13;</text>
<text text-anchor="middle" x="399" y="-223" font-family="Helvetica,sans-Serif" font-size="10.00" fill="#000000">output/&lt;SAMPLE_ID&gt;/startcodon_ribogridbar.pdf</text>
<text text-anchor="middle" x="399" y="-211" font-family="Helvetica,sans-Serif" font-size="10.00" fill="#000000">&#13;</text>
<text text-anchor="middle" x="399" y="-199" font-family="Helvetica,sans-Serif" font-size="10.00" fill="#000000">output/&lt;SAMPLE_ID&gt;/startcodon_ribogrid.pdf</text>
<text text-anchor="middle" x="399" y="-187" font-family="Helvetica,sans-Serif" font-size="10.00" fill="#000000">&#13;</text>
<text text-anchor="middle" x="399" y="-175" font-family="Helvetica,sans-Serif" font-size="10.00" fill="#000000">output/&lt;SAMPLE_ID&gt;/3ntframe_propbygene.pdf&#13;</text>
</g>
<!-- statsfigs&#45;&gt;pdfs -->
<g id="edge32" class="edge">
<title>statsfigs&#45;&gt;pdfs</title>
<path fill="none" stroke="#000000" d="M818.1536,-404.387C737.9935,-395.9501 595.0709,-378.8622 529.5852,-355.7232"/>
<polygon fill="#000000" stroke="#000000" points="530.7219,-352.4108 520.1313,-352.1122 528.2242,-358.95 530.7219,-352.4108"/>
</g>
<!-- tsvs -->
<g id="node34" class="node">
<title>tsvs</title>
<polygon fill="none" stroke="#000000" stroke-dasharray="5,2" points="779.571,-332 538.429,-332 538.429,-192 779.571,-192 779.571,-332"/>
<text text-anchor="middle" x="659" y="-319" font-family="Helvetica,sans-Serif" font-size="10.00" fill="#000000">output/&lt;SAMPLE_ID&gt;/3nt_periodicity.tsv</text>
<text text-anchor="middle" x="659" y="-307" font-family="Helvetica,sans-Serif" font-size="10.00" fill="#000000">&#13;</text>
<text text-anchor="middle" x="659" y="-295" font-family="Helvetica,sans-Serif" font-size="10.00" fill="#000000">output/&lt;SAMPLE_ID&gt;/codon_ribodens.tsv</text>
<text text-anchor="middle" x="659" y="-283" font-family="Helvetica,sans-Serif" font-size="10.00" fill="#000000">&#13;</text>
<text text-anchor="middle" x="659" y="-271" font-family="Helvetica,sans-Serif" font-size="10.00" fill="#000000">output/&lt;SAMPLE_ID&gt;/read_lengths.tsv</text>
<text text-anchor="middle" x="659" y="-259" font-family="Helvetica,sans-Serif" font-size="10.00" fill="#000000">&#13;</text>
<text text-anchor="middle" x="659" y="-247" font-family="Helvetica,sans-Serif" font-size="10.00" fill="#000000">output/&lt;SAMPLE_ID&gt;/pos_sp_rpf_norm_reads.tsv</text>
<text text-anchor="middle" x="659" y="-235" font-family="Helvetica,sans-Serif" font-size="10.00" fill="#000000">&#13;</text>
<text text-anchor="middle" x="659" y="-223" font-family="Helvetica,sans-Serif" font-size="10.00" fill="#000000">output/&lt;SAMPLE_ID&gt;/pos_sp_nt_freq.tsv</text>
<text text-anchor="middle" x="659" y="-211" font-family="Helvetica,sans-Serif" font-size="10.00" fill="#000000">&#13;</text>
<text text-anchor="middle" x="659" y="-199" font-family="Helvetica,sans-Serif" font-size="10.00" fill="#000000">output/&lt;SAMPLE_ID&gt;/3ntframe_bygene.tsv&#13;</text>
</g>
<!-- statsfigs&#45;&gt;tsvs -->
<g id="edge33" class="edge">
<title>statsfigs&#45;&gt;tsvs</title>
<path fill="none" stroke="#000000" d="M845.2396,-391.9763C828.5376,-381.6964 807.4165,-368.4209 789,-356 780.4258,-350.2172 771.6038,-344.1343 762.7864,-337.96"/>
<polygon fill="#000000" stroke="#000000" points="764.5348,-334.9106 754.3422,-332.0191 760.5069,-340.6357 764.5348,-334.9106"/>
</g>
<!-- output/&lt;SAMPLE_ID&gt;/tpms.tsv -->
<g id="node35" class="node">
<title>output/&lt;SAMPLE_ID&gt;/tpms.tsv</title>
<text text-anchor="middle" x="875" y="-259" font-family="Helvetica,sans-Serif" font-size="10.00" fill="#000000">output/&lt;SAMPLE_ID&gt;/tpms.tsv</text>
</g>
<!-- statsfigs&#45;&gt;output/&lt;SAMPLE_ID&gt;/tpms.tsv -->
<g id="edge34" class="edge">
<title>statsfigs&#45;&gt;output/&lt;SAMPLE_ID&gt;/tpms.tsv</title>
<path fill="none" stroke="#000000" d="M875,-391.8523C875,-366.5539 875,-320.4342 875,-290.5167"/>
<polygon fill="#000000" stroke="#000000" points="878.5001,-290.2961 875,-280.2961 871.5001,-290.2962 878.5001,-290.2961"/>
</g>
<!-- tmp/&lt;SAMPLE_ID&gt;/trim.fq&#45;&gt;h21 -->
<g id="edge7" class="edge">
<title>tmp/&lt;SAMPLE_ID&gt;/trim.fq&#45;&gt;h21</title>
<path fill="none" stroke="#000000" d="M450.0556,-1327.8314C439.9309,-1319.0485 427.6223,-1308.3712 416.6452,-1298.8489"/>
<polygon fill="#000000" stroke="#000000" points="418.7851,-1296.0718 408.9377,-1292.1628 414.1981,-1301.3595 418.7851,-1296.0718"/>
</g>
<!-- tmp/&lt;SAMPLE_ID&gt;/nonrRNA.fq&#45;&gt;h22 -->
<g id="edge12" class="edge">
<title>tmp/&lt;SAMPLE_ID&gt;/nonrRNA.fq&#45;&gt;h22</title>
<path fill="none" stroke="#000000" d="M532.5603,-1183.8314C522.6795,-1175.0485 510.6676,-1164.3712 499.955,-1154.8489"/>
<polygon fill="#000000" stroke="#000000" points="502.2326,-1152.1906 492.4332,-1148.1628 497.582,-1157.4224 502.2326,-1152.1906"/>
</g>
<!-- tmp/&lt;SAMPLE_ID&gt;/orf_map.sam&#45;&gt;trim -->
<g id="edge15" class="edge">
<title>tmp/&lt;SAMPLE_ID&gt;/orf_map.sam&#45;&gt;trim</title>
<path fill="none" stroke="#000000" d="M571,-1039.8314C571,-1032.131 571,-1022.9743 571,-1014.4166"/>
<polygon fill="#000000" stroke="#000000" points="574.5001,-1014.4132 571,-1004.4133 567.5001,-1014.4133 574.5001,-1014.4132"/>
</g>
<!-- tmp/&lt;SAMPLE_ID&gt;/orf_map_clean.sam&#45;&gt;samview -->
<g id="edge17" class="edge">
<title>tmp/&lt;SAMPLE_ID&gt;/orf_map_clean.sam&#45;&gt;samview</title>
<path fill="none" stroke="#000000" d="M571,-895.8314C571,-888.131 571,-878.9743 571,-870.4166"/>
<polygon fill="#000000" stroke="#000000" points="574.5001,-870.4132 571,-860.4133 567.5001,-870.4133 574.5001,-870.4132"/>
</g>
<!-- output/&lt;SAMPLE_ID&gt;/&lt;SAMPLE_ID&gt;.bam&#45;&gt;samindex -->
<g id="edge19" class="edge">
<title>output/&lt;SAMPLE_ID&gt;/&lt;SAMPLE_ID&gt;.bam&#45;&gt;samindex</title>
<path fill="none" stroke="#000000" d="M571,-751.8314C571,-744.131 571,-734.9743 571,-726.4166"/>
<polygon fill="#000000" stroke="#000000" points="574.5001,-726.4132 571,-716.4133 567.5001,-726.4133 574.5001,-726.4132"/>
</g>
<!-- output/&lt;SAMPLE_ID&gt;/&lt;SAMPLE_ID&gt;.bam+.bai&#45;&gt;bedplus -->
<g id="edge21" class="edge">
<title>output/&lt;SAMPLE_ID&gt;/&lt;SAMPLE_ID&gt;.bam+.bai&#45;&gt;bedplus</title>
<path fill="none" stroke="#000000" d="M527.5971,-607.8314C504.4909,-598.159 475.8962,-586.1891 451.5423,-575.9944"/>
<polygon fill="#000000" stroke="#000000" points="452.6667,-572.6709 442.0908,-572.038 449.9637,-579.128 452.6667,-572.6709"/>
</g>
<!-- output/&lt;SAMPLE_ID&gt;/&lt;SAMPLE_ID&gt;.bam+.bai&#45;&gt;bedminus -->
<g id="edge23" class="edge">
<title>output/&lt;SAMPLE_ID&gt;/&lt;SAMPLE_ID&gt;.bam+.bai&#45;&gt;bedminus</title>
<path fill="none" stroke="#000000" d="M571,-607.8314C571,-600.131 571,-590.9743 571,-582.4166"/>
<polygon fill="#000000" stroke="#000000" points="574.5001,-582.4132 571,-572.4133 567.5001,-582.4133 574.5001,-582.4132"/>
</g>
<!-- output/&lt;SAMPLE_ID&gt;/&lt;SAMPLE_ID&gt;.bam+.bai&#45;&gt;bam2h5 -->
<g id="edge25" class="edge">
<title>output/&lt;SAMPLE_ID&gt;/&lt;SAMPLE_ID&gt;.bam+.bai&#45;&gt;bam2h5</title>
<path fill="none" stroke="#000000" d="M624.2229,-607.9243C658.2362,-596.3726 701.9832,-581.5151 734.9417,-570.3217"/>
<polygon fill="#000000" stroke="#000000" points="736.4579,-573.5032 744.8011,-566.9732 734.2067,-566.875 736.4579,-573.5032"/>
</g>
<!-- output/&lt;SAMPLE_ID&gt;/&lt;SAMPLE_ID&gt;.h5&#45;&gt;statsfigs -->
<g id="edge28" class="edge">
<title>output/&lt;SAMPLE_ID&gt;/&lt;SAMPLE_ID&gt;.h5&#45;&gt;statsfigs</title>
<path fill="none" stroke="#000000" d="M806.2155,-463.8314C817.547,-454.9632 831.3464,-444.1637 843.6027,-434.5718"/>
<polygon fill="#000000" stroke="#000000" points="846.074,-437.0822 851.7919,-428.1628 841.7598,-431.5697 846.074,-437.0822"/>
</g>
<!-- collate -->
<g id="node36" class="node">
<title>collate</title>
<polygon fill="none" stroke="#000000" points="916.1181,-124 833.8819,-124 833.8819,-88 916.1181,-88 916.1181,-124"/>
<text text-anchor="middle" x="875" y="-103" font-family="Helvetica,sans-Serif" font-size="10.00" fill="#000000">collate_tpms.R</text>
</g>
<!-- output/&lt;SAMPLE_ID&gt;/tpms.tsv&#45;&gt;collate -->
<g id="edge35" class="edge">
<title>output/&lt;SAMPLE_ID&gt;/tpms.tsv&#45;&gt;collate</title>
<path fill="none" stroke="#000000" d="M875,-243.7995C875,-216.9103 875,-166.3255 875,-134.4926"/>
<polygon fill="#000000" stroke="#000000" points="878.5001,-134.0845 875,-124.0846 871.5001,-134.0846 878.5001,-134.0845"/>
</g>
<!-- output/TPMs_collated.tsv -->
<g id="node37" class="node">
<title>output/TPMs_collated.tsv</title>
<text text-anchor="middle" x="875" y="-31" font-family="Helvetica,sans-Serif" font-size="10.00" fill="#000000">output/TPMs_collated.tsv</text>
</g>
<!-- collate&#45;&gt;output/TPMs_collated.tsv -->
<g id="edge36" class="edge">
<title>collate&#45;&gt;output/TPMs_collated.tsv</title>
<path fill="none" stroke="#000000" d="M875,-87.8314C875,-80.131 875,-70.9743 875,-62.4166"/>
<polygon fill="#000000" stroke="#000000" points="878.5001,-62.4132 875,-52.4133 871.5001,-62.4133 878.5001,-62.4132"/>
</g>
</g>
</svg>
