<?xml version="1.0" encoding="UTF-8" standalone="no"?>
<!DOCTYPE svg PUBLIC "-//W3C//DTD SVG 1.1//EN"
 "http://www.w3.org/Graphics/SVG/1.1/DTD/svg11.dtd">
<!-- Generated by graphviz version 2.40.1 (20161225.0304)
 -->
<!-- Title: G Pages: 1 -->
<svg width="1002pt" height="1652pt"
 viewBox="0.00 0.00 1002.00 1652.00" xmlns="http://www.w3.org/2000/svg" xmlns:xlink="http://www.w3.org/1999/xlink">
<g id="graph0" class="graph" transform="scale(1 1) rotate(0) translate(4 1648)">
<title>G</title>
<polygon fill="#ffffff" stroke="transparent" points="-4,4 -4,-1648 998,-1648 998,4 -4,4"/>
<g id="clust1" class="cluster">
<title>cluster_data</title>
<polygon fill="none" stroke="#000000" stroke-dasharray="5,2" points="188,-1472 188,-1636 986,-1636 986,-1472 188,-1472"/>
<text text-anchor="middle" x="206.558" y="-1623" font-family="Helvetica,sans-Serif" font-size="10.00" fill="#000000">Data</text>
</g>
<g id="clust2" class="cluster">
<title>cluster_organism</title>
<polygon fill="none" stroke="#000000" stroke-dasharray="5,2" points="592,-1508 592,-1580 780,-1580 780,-1508 592,-1508"/>
<text text-anchor="middle" x="632.784" y="-1567" font-family="Helvetica,sans-Serif" font-size="10.00" fill="#000000">Organism data</text>
</g>
<g id="clust3" class="cluster">
<title>cluster_contaminants</title>
<polygon fill="none" stroke="#000000" stroke-dasharray="5,2" points="196,-1508 196,-1580 282,-1580 282,-1508 196,-1508"/>
<text text-anchor="middle" x="234.8395" y="-1567" font-family="Helvetica,sans-Serif" font-size="10.00" fill="#000000">Contaminants</text>
</g>
<g id="clust4" class="cluster">
<title>cluster_additional_organism</title>
<polygon fill="none" stroke="#000000" stroke-dasharray="5,2" points="788,-1480 788,-1608 978,-1608 978,-1480 788,-1480"/>
<text text-anchor="middle" x="869.3455" y="-1595" font-family="Helvetica,sans-Serif" font-size="10.00" fill="#000000">Additional organism&#45;specific data</text>
</g>
<g id="clust5" class="cluster">
<title>cluster_ribosome</title>
<polygon fill="none" stroke="#000000" stroke-dasharray="5,2" points="290,-1508 290,-1580 584,-1580 584,-1508 290,-1508"/>
<text text-anchor="middle" x="350.509" y="-1567" font-family="Helvetica,sans-Serif" font-size="10.00" fill="#000000">Ribosome profiling data</text>
</g>
<g id="clust6" class="cluster">
<title>cluster_indexing</title>
<polygon fill="none" stroke="#000000" points="8,-1320 8,-1464 262,-1464 262,-1320 8,-1320"/>
<text text-anchor="middle" x="34.8965" y="-1451" font-family="Helvetica,sans-Serif" font-size="10.00" fill="#000000">Indexing</text>
</g>
<g id="clust7" class="cluster">
<title>cluster_per_sample_processing</title>
<polygon fill="none" stroke="#000000" points="270,-160 270,-1464 930,-1464 930,-160 270,-160"/>
<text text-anchor="middle" x="324.958" y="-1451" font-family="Helvetica,sans-Serif" font-size="10.00" fill="#000000">Process SAMPLE&lt;I&gt;</text>
</g>
<g id="clust8" class="cluster">
<title>cluster_tpms_collation</title>
<polygon fill="none" stroke="#000000" points="778,-8 778,-152 922,-152 922,-8 778,-8"/>
<text text-anchor="middle" x="818.779" y="-139" font-family="Helvetica,sans-Serif" font-size="10.00" fill="#000000">TPMs collation</text>
</g>
<!-- input/CDS.fa -->
<g id="node1" class="node">
<title>input/CDS.fa</title>
<text text-anchor="middle" x="636" y="-1531" font-family="Helvetica,sans-Serif" font-size="10.00" fill="#000000">input/CDS.fa</text>
</g>
<!-- h2build2 -->
<g id="node9" class="node">
<title>h2build2</title>
<polygon fill="none" stroke="#000000" points="243.6191,-1436 176.3809,-1436 176.3809,-1400 243.6191,-1400 243.6191,-1436"/>
<text text-anchor="middle" x="210" y="-1415" font-family="Helvetica,sans-Serif" font-size="10.00" fill="#000000">hisat2&#45;build</text>
</g>
<!-- input/CDS.fa&#45;&gt;h2build2 -->
<g id="edge3" class="edge">
<title>input/CDS.fa&#45;&gt;h2build2</title>
<path fill="none" stroke="#000000" d="M627.6556,-1515.9491C619.7454,-1501.1834 606.3411,-1481.2801 588,-1472 556.0662,-1455.8423 299.5416,-1476.482 266,-1464 254.1438,-1459.5879 242.9623,-1451.5456 233.7544,-1443.4053"/>
<polygon fill="#000000" stroke="#000000" points="235.8893,-1440.6088 226.2034,-1436.3152 231.0977,-1445.7119 235.8893,-1440.6088"/>
</g>
<!-- statsfigs -->
<g id="node21" class="node">
<title>statsfigs</title>
<polygon fill="none" stroke="#000000" points="863.7523,-428 750.2477,-428 750.2477,-392 863.7523,-392 863.7523,-428"/>
<text text-anchor="middle" x="807" y="-407" font-family="Helvetica,sans-Serif" font-size="10.00" fill="#000000">generate_stats_figs.R</text>
</g>
<!-- input/CDS.fa&#45;&gt;statsfigs -->
<g id="edge29" class="edge">
<title>input/CDS.fa&#45;&gt;statsfigs</title>
<path fill="none" stroke="#000000" d="M648.9948,-1515.9208C682.461,-1469.3235 769,-1348.58 769,-1346 769,-1346 769,-1346 769,-698 769,-601.9481 790.032,-489.4131 800.8021,-438.0826"/>
<polygon fill="#000000" stroke="#000000" points="804.2712,-438.5961 802.9333,-428.0861 797.4251,-437.1365 804.2712,-438.5961"/>
</g>
<!-- input/CDS.gff3 -->
<g id="node2" class="node">
<title>input/CDS.gff3</title>
<text text-anchor="middle" x="731" y="-1531" font-family="Helvetica,sans-Serif" font-size="10.00" fill="#000000">input/CDS.gff3</text>
</g>
<!-- bam2h5 -->
<g id="node20" class="node">
<title>bam2h5</title>
<polygon fill="none" stroke="#000000" points="759.019,-572 682.981,-572 682.981,-536 759.019,-536 759.019,-572"/>
<text text-anchor="middle" x="721" y="-551" font-family="Helvetica,sans-Serif" font-size="10.00" fill="#000000">bam_to_h5.R</text>
</g>
<!-- input/CDS.gff3&#45;&gt;bam2h5 -->
<g id="edge26" class="edge">
<title>input/CDS.gff3&#45;&gt;bam2h5</title>
<path fill="none" stroke="#000000" d="M748.0336,-1515.8292C759.6199,-1502.4751 774.3618,-1483.3545 783,-1464 804.812,-1415.1284 807,-1399.5182 807,-1346 807,-1346 807,-1346 807,-698 807,-651.3549 773.3275,-606.7026 748.1224,-579.8126"/>
<polygon fill="#000000" stroke="#000000" points="750.4114,-577.1445 740.9463,-572.3839 745.3767,-582.0079 750.4114,-577.1445"/>
</g>
<!-- input/CDS.gff3&#45;&gt;statsfigs -->
<g id="edge30" class="edge">
<title>input/CDS.gff3&#45;&gt;statsfigs</title>
<path fill="none" stroke="#000000" d="M742.4899,-1515.9537C752.0886,-1502.1851 766.9262,-1483.6588 784,-1472 792.9379,-1465.8968 799.4363,-1471.7412 807,-1464 845.505,-1424.5916 845,-1401.0968 845,-1346 845,-1346 845,-1346 845,-554 845,-512.3681 829.9672,-466.14 818.8119,-437.567"/>
<polygon fill="#000000" stroke="#000000" points="822.0368,-436.2055 815.0588,-428.2332 815.5422,-438.817 822.0368,-436.2055"/>
</g>
<!-- input/rRNA.fa -->
<g id="node3" class="node">
<title>input/rRNA.fa</title>
<text text-anchor="middle" x="239" y="-1531.3" font-family="Helvetica,sans-Serif" font-size="9.00" fill="#000000">input/rRNA.fa</text>
</g>
<!-- h2build1 -->
<g id="node8" class="node">
<title>h2build1</title>
<polygon fill="none" stroke="#000000" points="137.6191,-1436 70.3809,-1436 70.3809,-1400 137.6191,-1400 137.6191,-1436"/>
<text text-anchor="middle" x="104" y="-1415" font-family="Helvetica,sans-Serif" font-size="10.00" fill="#000000">hisat2&#45;build</text>
</g>
<!-- input/rRNA.fa&#45;&gt;h2build1 -->
<g id="edge1" class="edge">
<title>input/rRNA.fa&#45;&gt;h2build1</title>
<path fill="none" stroke="#000000" d="M217.9063,-1515.875C195.1549,-1496.3257 158.7706,-1465.0622 133.2605,-1443.1424"/>
<polygon fill="#000000" stroke="#000000" points="135.2568,-1440.2431 125.3912,-1436.3805 130.6948,-1445.5524 135.2568,-1440.2431"/>
</g>
<!-- data -->
<g id="node4" class="node">
<title>data</title>
<polygon fill="none" stroke="#000000" stroke-dasharray="5,2" points="969.8391,-1580 796.1609,-1580 796.1609,-1488 969.8391,-1488 969.8391,-1580"/>
<text text-anchor="middle" x="883" y="-1567" font-family="Helvetica,sans-Serif" font-size="10.00" fill="#000000">data/codon_pos_i200.RData</text>
<text text-anchor="middle" x="883" y="-1543" font-family="Helvetica,sans-Serif" font-size="10.00" fill="#000000">data/features.tsv</text>
<text text-anchor="middle" x="883" y="-1519" font-family="Helvetica,sans-Serif" font-size="10.00" fill="#000000">data/tRNAs.tsv</text>
<text text-anchor="middle" x="883" y="-1495" font-family="Helvetica,sans-Serif" font-size="10.00" fill="#000000">data/standard_asite_disp_length.txt</text>
</g>
<!-- data&#45;&gt;statsfigs -->
<g id="edge31" class="edge">
<title>data&#45;&gt;statsfigs</title>
<path fill="none" stroke="#000000" d="M883,-1487.644C883,-1449.5928 883,-1394.3056 883,-1346 883,-1346 883,-1346 883,-554 883,-508.656 853.1616,-463.5999 830.8774,-436.2735"/>
<polygon fill="#000000" stroke="#000000" points="833.3585,-433.7856 824.2456,-428.3814 827.9994,-438.2889 833.3585,-433.7856"/>
</g>
<!-- ribosome_data0toI -->
<g id="node5" class="node">
<title>ribosome_data0toI</title>
<text text-anchor="middle" x="549" y="-1531" font-family="Helvetica,sans-Serif" font-size="10.00" fill="#000000">...</text>
</g>
<!-- input/SAMPLE&lt;I&gt;.fastq.gz -->
<g id="node6" class="node">
<title>input/SAMPLE&lt;I&gt;.fastq.gz</title>
<text text-anchor="middle" x="437" y="-1531" font-family="Helvetica,sans-Serif" font-size="10.00" fill="#000000">input/SAMPLE&lt;I&gt;.fastq.gz</text>
</g>
<!-- cut -->
<g id="node12" class="node">
<title>cut</title>
<polygon fill="none" stroke="#000000" points="455.3542,-1436 400.6458,-1436 400.6458,-1400 455.3542,-1400 455.3542,-1436"/>
<text text-anchor="middle" x="428" y="-1415" font-family="Helvetica,sans-Serif" font-size="10.00" fill="#000000">cutadapt</text>
</g>
<!-- input/SAMPLE&lt;I&gt;.fastq.gz&#45;&gt;cut -->
<g id="edge5" class="edge">
<title>input/SAMPLE&lt;I&gt;.fastq.gz&#45;&gt;cut</title>
<path fill="none" stroke="#000000" d="M435.5938,-1515.875C434.1558,-1497.3412 431.9009,-1468.2787 430.2214,-1446.6311"/>
<polygon fill="#000000" stroke="#000000" points="433.6892,-1446.0798 429.4261,-1436.3805 426.7102,-1446.6214 433.6892,-1446.0798"/>
</g>
<!-- ribosome_dataItoN -->
<g id="node7" class="node">
<title>ribosome_dataItoN</title>
<text text-anchor="middle" x="325" y="-1531" font-family="Helvetica,sans-Serif" font-size="10.00" fill="#000000">...</text>
</g>
<!-- index/rRNA.1|...|8.ht2 -->
<g id="node10" class="node">
<title>index/rRNA.1|...|8.ht2</title>
<text text-anchor="middle" x="72" y="-1343" font-family="Helvetica,sans-Serif" font-size="10.00" fill="#000000">index/rRNA.1|...|8.ht2</text>
</g>
<!-- h2build1&#45;&gt;index/rRNA.1|...|8.ht2 -->
<g id="edge2" class="edge">
<title>h2build1&#45;&gt;index/rRNA.1|...|8.ht2</title>
<path fill="none" stroke="#000000" d="M95.925,-1399.8314C92.3898,-1391.8771 88.164,-1382.369 84.2544,-1373.5723"/>
<polygon fill="#000000" stroke="#000000" points="87.4435,-1372.1299 80.1837,-1364.4133 81.0468,-1374.9729 87.4435,-1372.1299"/>
</g>
<!-- index/CDS.1|...|8.ht2 -->
<g id="node11" class="node">
<title>index/CDS.1|...|8.ht2</title>
<text text-anchor="middle" x="200" y="-1343" font-family="Helvetica,sans-Serif" font-size="10.00" fill="#000000">index/CDS.1|...|8.ht2</text>
</g>
<!-- h2build2&#45;&gt;index/CDS.1|...|8.ht2 -->
<g id="edge4" class="edge">
<title>h2build2&#45;&gt;index/CDS.1|...|8.ht2</title>
<path fill="none" stroke="#000000" d="M207.4766,-1399.8314C206.4071,-1392.131 205.1353,-1382.9743 203.9468,-1374.4166"/>
<polygon fill="#000000" stroke="#000000" points="207.3999,-1373.8367 202.5574,-1364.4133 200.4664,-1374.7997 207.3999,-1373.8367"/>
</g>
<!-- h21 -->
<g id="node13" class="node">
<title>h21</title>
<polygon fill="none" stroke="#000000" points="399,-1292 345,-1292 345,-1256 399,-1256 399,-1292"/>
<text text-anchor="middle" x="372" y="-1271" font-family="Helvetica,sans-Serif" font-size="10.00" fill="#000000">hisat2</text>
</g>
<!-- index/rRNA.1|...|8.ht2&#45;&gt;h21 -->
<g id="edge8" class="edge">
<title>index/rRNA.1|...|8.ht2&#45;&gt;h21</title>
<path fill="none" stroke="#000000" d="M113.903,-1327.9107C121.503,-1325.0121 129.4228,-1322.2356 137,-1320 205.5794,-1299.7661 288.0826,-1285.957 334.8452,-1279.0729"/>
<polygon fill="#000000" stroke="#000000" points="335.4246,-1282.5256 344.8205,-1277.63 334.4224,-1275.5977 335.4246,-1282.5256"/>
</g>
<!-- h22 -->
<g id="node14" class="node">
<title>h22</title>
<polygon fill="none" stroke="#000000" points="489,-1148 435,-1148 435,-1112 489,-1112 489,-1148"/>
<text text-anchor="middle" x="462" y="-1127" font-family="Helvetica,sans-Serif" font-size="10.00" fill="#000000">hisat2</text>
</g>
<!-- index/CDS.1|...|8.ht2&#45;&gt;h22 -->
<g id="edge11" class="edge">
<title>index/CDS.1|...|8.ht2&#45;&gt;h22</title>
<path fill="none" stroke="#000000" d="M202.511,-1327.9481C208.1335,-1294.4866 224.892,-1222.7231 269,-1184 292.1293,-1163.6945 375.465,-1145.6645 424.7461,-1136.4627"/>
<polygon fill="#000000" stroke="#000000" points="425.5066,-1139.8817 434.7113,-1134.6355 424.2441,-1132.9965 425.5066,-1139.8817"/>
</g>
<!-- tmp/SAMPLE&lt;I&gt;_trim.fq -->
<g id="node22" class="node">
<title>tmp/SAMPLE&lt;I&gt;_trim.fq</title>
<text text-anchor="middle" x="409" y="-1343" font-family="Helvetica,sans-Serif" font-size="10.00" fill="#000000">tmp/SAMPLE&lt;I&gt;_trim.fq</text>
</g>
<!-- cut&#45;&gt;tmp/SAMPLE&lt;I&gt;_trim.fq -->
<g id="edge6" class="edge">
<title>cut&#45;&gt;tmp/SAMPLE&lt;I&gt;_trim.fq</title>
<path fill="none" stroke="#000000" d="M423.2055,-1399.8314C421.1511,-1392.0463 418.704,-1382.7729 416.4244,-1374.1347"/>
<polygon fill="#000000" stroke="#000000" points="419.7948,-1373.1892 413.8591,-1364.4133 413.0265,-1374.9753 419.7948,-1373.1892"/>
</g>
<!-- tmp/SAMPLE&lt;I&gt;_rRNA_map.sam -->
<g id="node23" class="node">
<title>tmp/SAMPLE&lt;I&gt;_rRNA_map.sam</title>
<text text-anchor="middle" x="362" y="-1199" font-family="Helvetica,sans-Serif" font-size="10.00" fill="#000000">tmp/SAMPLE&lt;I&gt;_rRNA_map.sam</text>
</g>
<!-- h21&#45;&gt;tmp/SAMPLE&lt;I&gt;_rRNA_map.sam -->
<g id="edge9" class="edge">
<title>h21&#45;&gt;tmp/SAMPLE&lt;I&gt;_rRNA_map.sam</title>
<path fill="none" stroke="#000000" d="M369.4766,-1255.8314C368.4071,-1248.131 367.1353,-1238.9743 365.9468,-1230.4166"/>
<polygon fill="#000000" stroke="#000000" points="369.3999,-1229.8367 364.5574,-1220.4133 362.4664,-1230.7997 369.3999,-1229.8367"/>
</g>
<!-- tmp/SAMPLE&lt;I&gt;_nonrRNA.fq -->
<g id="node24" class="node">
<title>tmp/SAMPLE&lt;I&gt;_nonrRNA.fq</title>
<text text-anchor="middle" x="538" y="-1199" font-family="Helvetica,sans-Serif" font-size="10.00" fill="#000000">tmp/SAMPLE&lt;I&gt;_nonrRNA.fq</text>
</g>
<!-- h21&#45;&gt;tmp/SAMPLE&lt;I&gt;_nonrRNA.fq -->
<g id="edge10" class="edge">
<title>h21&#45;&gt;tmp/SAMPLE&lt;I&gt;_nonrRNA.fq</title>
<path fill="none" stroke="#000000" d="M399.0402,-1262.2717C422.8324,-1251.9522 458.1075,-1236.6522 487.1623,-1224.0501"/>
<polygon fill="#000000" stroke="#000000" points="488.5732,-1227.2532 496.3547,-1220.063 485.7878,-1220.8313 488.5732,-1227.2532"/>
</g>
<!-- tmp/SAMPLE&lt;I&gt;_unaligned.fq -->
<g id="node25" class="node">
<title>tmp/SAMPLE&lt;I&gt;_unaligned.fq</title>
<text text-anchor="middle" x="386" y="-1055" font-family="Helvetica,sans-Serif" font-size="10.00" fill="#000000">tmp/SAMPLE&lt;I&gt;_unaligned.fq</text>
</g>
<!-- h22&#45;&gt;tmp/SAMPLE&lt;I&gt;_unaligned.fq -->
<g id="edge13" class="edge">
<title>h22&#45;&gt;tmp/SAMPLE&lt;I&gt;_unaligned.fq</title>
<path fill="none" stroke="#000000" d="M442.822,-1111.8314C433.6412,-1103.1337 422.4994,-1092.5783 412.5224,-1083.1265"/>
<polygon fill="#000000" stroke="#000000" points="414.8385,-1080.4995 405.1719,-1076.1628 410.0243,-1085.5811 414.8385,-1080.4995"/>
</g>
<!-- tmp/SAMPLE&lt;I&gt;_orf_map.sam -->
<g id="node26" class="node">
<title>tmp/SAMPLE&lt;I&gt;_orf_map.sam</title>
<text text-anchor="middle" x="556" y="-1055" font-family="Helvetica,sans-Serif" font-size="10.00" fill="#000000">tmp/SAMPLE&lt;I&gt;_orf_map.sam</text>
</g>
<!-- h22&#45;&gt;tmp/SAMPLE&lt;I&gt;_orf_map.sam -->
<g id="edge14" class="edge">
<title>h22&#45;&gt;tmp/SAMPLE&lt;I&gt;_orf_map.sam</title>
<path fill="none" stroke="#000000" d="M485.7202,-1111.8314C497.4094,-1102.8779 511.6688,-1091.9558 524.2809,-1082.2955"/>
<polygon fill="#000000" stroke="#000000" points="526.4769,-1085.0222 532.2874,-1076.1628 522.2203,-1079.4651 526.4769,-1085.0222"/>
</g>
<!-- samindex -->
<g id="node15" class="node">
<title>samindex</title>
<polygon fill="none" stroke="#000000" points="597.1796,-716 514.8204,-716 514.8204,-680 597.1796,-680 597.1796,-716"/>
<text text-anchor="middle" x="556" y="-695" font-family="Helvetica,sans-Serif" font-size="10.00" fill="#000000">samtools index</text>
</g>
<!-- output/SAMPLE&lt;I&gt;.bam+.bai -->
<g id="node29" class="node">
<title>output/SAMPLE&lt;I&gt;.bam+.bai</title>
<text text-anchor="middle" x="556" y="-623" font-family="Helvetica,sans-Serif" font-size="10.00" fill="#000000">output/SAMPLE&lt;I&gt;.bam+.bai</text>
</g>
<!-- samindex&#45;&gt;output/SAMPLE&lt;I&gt;.bam+.bai -->
<g id="edge20" class="edge">
<title>samindex&#45;&gt;output/SAMPLE&lt;I&gt;.bam+.bai</title>
<path fill="none" stroke="#000000" d="M556,-679.8314C556,-672.131 556,-662.9743 556,-654.4166"/>
<polygon fill="#000000" stroke="#000000" points="559.5001,-654.4132 556,-644.4133 552.5001,-654.4133 559.5001,-654.4132"/>
</g>
<!-- samview -->
<g id="node16" class="node">
<title>samview</title>
<polygon fill="none" stroke="#000000" points="629.3875,-860 482.6125,-860 482.6125,-824 629.3875,-824 629.3875,-860"/>
<text text-anchor="middle" x="556" y="-839" font-family="Helvetica,sans-Serif" font-size="10.00" fill="#000000">samtools view | samtools sort</text>
</g>
<!-- output/SAMPLE&lt;I&gt;.bam -->
<g id="node28" class="node">
<title>output/SAMPLE&lt;I&gt;.bam</title>
<text text-anchor="middle" x="556" y="-767" font-family="Helvetica,sans-Serif" font-size="10.00" fill="#000000">output/SAMPLE&lt;I&gt;.bam</text>
</g>
<!-- samview&#45;&gt;output/SAMPLE&lt;I&gt;.bam -->
<g id="edge18" class="edge">
<title>samview&#45;&gt;output/SAMPLE&lt;I&gt;.bam</title>
<path fill="none" stroke="#000000" d="M556,-823.8314C556,-816.131 556,-806.9743 556,-798.4166"/>
<polygon fill="#000000" stroke="#000000" points="559.5001,-798.4132 556,-788.4133 552.5001,-798.4133 559.5001,-798.4132"/>
</g>
<!-- trim -->
<g id="node17" class="node">
<title>trim</title>
<polygon fill="none" stroke="#000000" points="611.504,-1004 500.496,-1004 500.496,-968 611.504,-968 611.504,-1004"/>
<text text-anchor="middle" x="556" y="-983" font-family="Helvetica,sans-Serif" font-size="10.00" fill="#000000">trim_5p_mismatch.py</text>
</g>
<!-- tmp/SAMPLE&lt;I&gt;_orf_map_clean.sam -->
<g id="node27" class="node">
<title>tmp/SAMPLE&lt;I&gt;_orf_map_clean.sam</title>
<text text-anchor="middle" x="556" y="-911" font-family="Helvetica,sans-Serif" font-size="10.00" fill="#000000">tmp/SAMPLE&lt;I&gt;_orf_map_clean.sam</text>
</g>
<!-- trim&#45;&gt;tmp/SAMPLE&lt;I&gt;_orf_map_clean.sam -->
<g id="edge16" class="edge">
<title>trim&#45;&gt;tmp/SAMPLE&lt;I&gt;_orf_map_clean.sam</title>
<path fill="none" stroke="#000000" d="M556,-967.8314C556,-960.131 556,-950.9743 556,-942.4166"/>
<polygon fill="#000000" stroke="#000000" points="559.5001,-942.4132 556,-932.4133 552.5001,-942.4133 559.5001,-942.4132"/>
</g>
<!-- bedplus -->
<g id="node18" class="node">
<title>bedplus</title>
<polygon fill="none" stroke="#000000" points="450.5319,-572 327.4681,-572 327.4681,-536 450.5319,-536 450.5319,-572"/>
<text text-anchor="middle" x="389" y="-551" font-family="Helvetica,sans-Serif" font-size="10.00" fill="#000000">bedtools genomecov (+)</text>
</g>
<!-- output/SAMPLE&lt;I&gt;_plus.bedgraph -->
<g id="node30" class="node">
<title>output/SAMPLE&lt;I&gt;_plus.bedgraph</title>
<text text-anchor="middle" x="363" y="-479" font-family="Helvetica,sans-Serif" font-size="10.00" fill="#000000">output/SAMPLE&lt;I&gt;_plus.bedgraph</text>
</g>
<!-- bedplus&#45;&gt;output/SAMPLE&lt;I&gt;_plus.bedgraph -->
<g id="edge22" class="edge">
<title>bedplus&#45;&gt;output/SAMPLE&lt;I&gt;_plus.bedgraph</title>
<path fill="none" stroke="#000000" d="M382.4391,-535.8314C379.5973,-527.9617 376.2063,-518.5712 373.0581,-509.8533"/>
<polygon fill="#000000" stroke="#000000" points="376.3377,-508.63 369.6492,-500.4133 369.7538,-511.0076 376.3377,-508.63"/>
</g>
<!-- bedminus -->
<g id="node19" class="node">
<title>bedminus</title>
<polygon fill="none" stroke="#000000" points="616.521,-572 495.479,-572 495.479,-536 616.521,-536 616.521,-572"/>
<text text-anchor="middle" x="556" y="-551" font-family="Helvetica,sans-Serif" font-size="10.00" fill="#000000">bedtools genomecov (&#45;)</text>
</g>
<!-- output/SAMPLE&lt;I&gt;_minus.bedgraph -->
<g id="node31" class="node">
<title>output/SAMPLE&lt;I&gt;_minus.bedgraph</title>
<text text-anchor="middle" x="556" y="-479" font-family="Helvetica,sans-Serif" font-size="10.00" fill="#000000">output/SAMPLE&lt;I&gt;_minus.bedgraph</text>
</g>
<!-- bedminus&#45;&gt;output/SAMPLE&lt;I&gt;_minus.bedgraph -->
<g id="edge24" class="edge">
<title>bedminus&#45;&gt;output/SAMPLE&lt;I&gt;_minus.bedgraph</title>
<path fill="none" stroke="#000000" d="M556,-535.8314C556,-528.131 556,-518.9743 556,-510.4166"/>
<polygon fill="#000000" stroke="#000000" points="559.5001,-510.4132 556,-500.4133 552.5001,-510.4133 559.5001,-510.4132"/>
</g>
<!-- output/SAMPLE&lt;I&gt;.h5 -->
<g id="node32" class="node">
<title>output/SAMPLE&lt;I&gt;.h5</title>
<text text-anchor="middle" x="721" y="-479" font-family="Helvetica,sans-Serif" font-size="10.00" fill="#000000">output/SAMPLE&lt;I&gt;.h5</text>
</g>
<!-- bam2h5&#45;&gt;output/SAMPLE&lt;I&gt;.h5 -->
<g id="edge27" class="edge">
<title>bam2h5&#45;&gt;output/SAMPLE&lt;I&gt;.h5</title>
<path fill="none" stroke="#000000" d="M721,-535.8314C721,-528.131 721,-518.9743 721,-510.4166"/>
<polygon fill="#000000" stroke="#000000" points="724.5001,-510.4132 721,-500.4133 717.5001,-510.4133 724.5001,-510.4132"/>
</g>
<!-- pdfs -->
<g id="node33" class="node">
<title>pdfs</title>
<polygon fill="none" stroke="#000000" stroke-dasharray="5,2" points="510.1911,-356 277.8089,-356 277.8089,-168 510.1911,-168 510.1911,-356"/>
<text text-anchor="middle" x="394" y="-343" font-family="Helvetica,sans-Serif" font-size="10.00" fill="#000000">output/SAMPLE&lt;I&gt;_3nt_periodicity.pdf</text>
<text text-anchor="middle" x="394" y="-319" font-family="Helvetica,sans-Serif" font-size="10.00" fill="#000000">output/SAMPLE&lt;I&gt;_codon_ribodens.pdf</text>
<text text-anchor="middle" x="394" y="-295" font-family="Helvetica,sans-Serif" font-size="10.00" fill="#000000">output/SAMPLE&lt;I&gt;_read_lengths.pdf</text>
<text text-anchor="middle" x="394" y="-271" font-family="Helvetica,sans-Serif" font-size="10.00" fill="#000000">output/SAMPLE&lt;I&gt;_pos_sp_rpf_norm_reads.pdf</text>
<text text-anchor="middle" x="394" y="-247" font-family="Helvetica,sans-Serif" font-size="10.00" fill="#000000">output/SAMPLE&lt;I&gt;_features.pdf</text>
<text text-anchor="middle" x="394" y="-223" font-family="Helvetica,sans-Serif" font-size="10.00" fill="#000000">output/SAMPLE&lt;I&gt;_startcodon_ribogridbar.pdf</text>
<text text-anchor="middle" x="394" y="-199" font-family="Helvetica,sans-Serif" font-size="10.00" fill="#000000">output/SAMPLE&lt;I&gt;_startcodon_ribogrid.pdf</text>
<text text-anchor="middle" x="394" y="-175" font-family="Helvetica,sans-Serif" font-size="10.00" fill="#000000">output/SAMPLE&lt;I&gt;_3ntframe_propbygene.pdf</text>
</g>
<!-- statsfigs&#45;&gt;pdfs -->
<g id="edge32" class="edge">
<title>statsfigs&#45;&gt;pdfs</title>
<path fill="none" stroke="#000000" d="M750.3576,-407.0144C692.8128,-402.328 601.826,-390.3224 519.8784,-356.0632"/>
<polygon fill="#000000" stroke="#000000" points="521.0155,-352.7422 510.4465,-352.0022 518.2472,-359.1716 521.0155,-352.7422"/>
</g>
<!-- tsvs -->
<g id="node34" class="node">
<title>tsvs</title>
<polygon fill="none" stroke="#000000" stroke-dasharray="5,2" points="759.573,-332 528.427,-332 528.427,-192 759.573,-192 759.573,-332"/>
<text text-anchor="middle" x="644" y="-319" font-family="Helvetica,sans-Serif" font-size="10.00" fill="#000000">output/SAMPLE&lt;I&gt;_3nt_periodicity.tsv</text>
<text text-anchor="middle" x="644" y="-295" font-family="Helvetica,sans-Serif" font-size="10.00" fill="#000000">output/SAMPLE&lt;I&gt;_codon_ribodens.tsv</text>
<text text-anchor="middle" x="644" y="-271" font-family="Helvetica,sans-Serif" font-size="10.00" fill="#000000">output/SAMPLE&lt;I&gt;_read_lengths.tsv</text>
<text text-anchor="middle" x="644" y="-247" font-family="Helvetica,sans-Serif" font-size="10.00" fill="#000000">output/SAMPLE&lt;I&gt;_pos_sp_rpf_norm_reads.tsv</text>
<text text-anchor="middle" x="644" y="-223" font-family="Helvetica,sans-Serif" font-size="10.00" fill="#000000">output/SAMPLE&lt;I&gt;_pos_sp_nt_freq.tsv</text>
<text text-anchor="middle" x="644" y="-199" font-family="Helvetica,sans-Serif" font-size="10.00" fill="#000000">output/SAMPLE&lt;I&gt;_3ntframe_bygene.tsv</text>
</g>
<!-- statsfigs&#45;&gt;tsvs -->
<g id="edge33" class="edge">
<title>statsfigs&#45;&gt;tsvs</title>
<path fill="none" stroke="#000000" d="M787.013,-391.8523C772.0431,-378.26 750.4534,-358.6571 728.5684,-338.786"/>
<polygon fill="#000000" stroke="#000000" points="730.9006,-336.1761 721.1443,-332.0451 726.1951,-341.3586 730.9006,-336.1761"/>
</g>
<!-- output/SAMPLE&lt;I&gt;_tpms.tsv -->
<g id="node35" class="node">
<title>output/SAMPLE&lt;I&gt;_tpms.tsv</title>
<text text-anchor="middle" x="850" y="-259" font-family="Helvetica,sans-Serif" font-size="10.00" fill="#000000">output/SAMPLE&lt;I&gt;_tpms.tsv</text>
</g>
<!-- statsfigs&#45;&gt;output/SAMPLE&lt;I&gt;_tpms.tsv -->
<g id="edge34" class="edge">
<title>statsfigs&#45;&gt;output/SAMPLE&lt;I&gt;_tpms.tsv</title>
<path fill="none" stroke="#000000" d="M812.2726,-391.8523C819.6551,-366.443 833.1402,-320.0292 841.8288,-290.124"/>
<polygon fill="#000000" stroke="#000000" points="845.2551,-290.8756 844.6842,-280.2961 838.5331,-288.9225 845.2551,-290.8756"/>
</g>
<!-- tmp/SAMPLE&lt;I&gt;_trim.fq&#45;&gt;h21 -->
<g id="edge7" class="edge">
<title>tmp/SAMPLE&lt;I&gt;_trim.fq&#45;&gt;h21</title>
<path fill="none" stroke="#000000" d="M399.6633,-1327.8314C395.5757,-1319.8771 390.6896,-1310.369 386.1691,-1301.5723"/>
<polygon fill="#000000" stroke="#000000" points="389.1461,-1299.7078 381.4624,-1292.4133 382.9201,-1302.9074 389.1461,-1299.7078"/>
</g>
<!-- tmp/SAMPLE&lt;I&gt;_nonrRNA.fq&#45;&gt;h22 -->
<g id="edge12" class="edge">
<title>tmp/SAMPLE&lt;I&gt;_nonrRNA.fq&#45;&gt;h22</title>
<path fill="none" stroke="#000000" d="M518.822,-1183.8314C509.6412,-1175.1337 498.4994,-1164.5783 488.5224,-1155.1265"/>
<polygon fill="#000000" stroke="#000000" points="490.8385,-1152.4995 481.1719,-1148.1628 486.0243,-1157.5811 490.8385,-1152.4995"/>
</g>
<!-- tmp/SAMPLE&lt;I&gt;_orf_map.sam&#45;&gt;trim -->
<g id="edge15" class="edge">
<title>tmp/SAMPLE&lt;I&gt;_orf_map.sam&#45;&gt;trim</title>
<path fill="none" stroke="#000000" d="M556,-1039.8314C556,-1032.131 556,-1022.9743 556,-1014.4166"/>
<polygon fill="#000000" stroke="#000000" points="559.5001,-1014.4132 556,-1004.4133 552.5001,-1014.4133 559.5001,-1014.4132"/>
</g>
<!-- tmp/SAMPLE&lt;I&gt;_orf_map_clean.sam&#45;&gt;samview -->
<g id="edge17" class="edge">
<title>tmp/SAMPLE&lt;I&gt;_orf_map_clean.sam&#45;&gt;samview</title>
<path fill="none" stroke="#000000" d="M556,-895.8314C556,-888.131 556,-878.9743 556,-870.4166"/>
<polygon fill="#000000" stroke="#000000" points="559.5001,-870.4132 556,-860.4133 552.5001,-870.4133 559.5001,-870.4132"/>
</g>
<!-- output/SAMPLE&lt;I&gt;.bam&#45;&gt;samindex -->
<g id="edge19" class="edge">
<title>output/SAMPLE&lt;I&gt;.bam&#45;&gt;samindex</title>
<path fill="none" stroke="#000000" d="M556,-751.8314C556,-744.131 556,-734.9743 556,-726.4166"/>
<polygon fill="#000000" stroke="#000000" points="559.5001,-726.4132 556,-716.4133 552.5001,-726.4133 559.5001,-726.4132"/>
</g>
<!-- output/SAMPLE&lt;I&gt;.bam+.bai&#45;&gt;bedplus -->
<g id="edge21" class="edge">
<title>output/SAMPLE&lt;I&gt;.bam+.bai&#45;&gt;bedplus</title>
<path fill="none" stroke="#000000" d="M513.8588,-607.8314C491.5236,-598.2018 463.9064,-586.295 440.329,-576.1299"/>
<polygon fill="#000000" stroke="#000000" points="441.4067,-572.7831 430.8381,-572.038 438.6353,-579.2112 441.4067,-572.7831"/>
</g>
<!-- output/SAMPLE&lt;I&gt;.bam+.bai&#45;&gt;bedminus -->
<g id="edge23" class="edge">
<title>output/SAMPLE&lt;I&gt;.bam+.bai&#45;&gt;bedminus</title>
<path fill="none" stroke="#000000" d="M556,-607.8314C556,-600.131 556,-590.9743 556,-582.4166"/>
<polygon fill="#000000" stroke="#000000" points="559.5001,-582.4132 556,-572.4133 552.5001,-582.4133 559.5001,-582.4132"/>
</g>
<!-- output/SAMPLE&lt;I&gt;.bam+.bai&#45;&gt;bam2h5 -->
<g id="edge25" class="edge">
<title>output/SAMPLE&lt;I&gt;.bam+.bai&#45;&gt;bam2h5</title>
<path fill="none" stroke="#000000" d="M597.6365,-607.8314C620.7294,-597.7544 649.5372,-585.1838 673.5055,-574.7249"/>
<polygon fill="#000000" stroke="#000000" points="675.0043,-577.8896 682.7699,-570.6822 672.2047,-571.4738 675.0043,-577.8896"/>
</g>
<!-- output/SAMPLE&lt;I&gt;.h5&#45;&gt;statsfigs -->
<g id="edge28" class="edge">
<title>output/SAMPLE&lt;I&gt;.h5&#45;&gt;statsfigs</title>
<path fill="none" stroke="#000000" d="M742.7014,-463.8314C753.1921,-455.0485 765.9455,-444.3712 777.3194,-434.8489"/>
<polygon fill="#000000" stroke="#000000" points="779.8847,-437.2659 785.3055,-428.1628 775.3911,-431.8986 779.8847,-437.2659"/>
</g>
<!-- collate -->
<g id="node36" class="node">
<title>collate</title>
<polygon fill="none" stroke="#000000" points="891.1181,-124 808.8819,-124 808.8819,-88 891.1181,-88 891.1181,-124"/>
<text text-anchor="middle" x="850" y="-103" font-family="Helvetica,sans-Serif" font-size="10.00" fill="#000000">collate_tpms.R</text>
</g>
<!-- output/SAMPLE&lt;I&gt;_tpms.tsv&#45;&gt;collate -->
<g id="edge35" class="edge">
<title>output/SAMPLE&lt;I&gt;_tpms.tsv&#45;&gt;collate</title>
<path fill="none" stroke="#000000" d="M850,-243.7995C850,-216.9103 850,-166.3255 850,-134.4926"/>
<polygon fill="#000000" stroke="#000000" points="853.5001,-134.0845 850,-124.0846 846.5001,-134.0846 853.5001,-134.0845"/>
</g>
<!-- output/TPMs_collated.tsv -->
<g id="node37" class="node">
<title>output/TPMs_collated.tsv</title>
<text text-anchor="middle" x="850" y="-31" font-family="Helvetica,sans-Serif" font-size="10.00" fill="#000000">output/TPMs_collated.tsv</text>
</g>
<!-- collate&#45;&gt;output/TPMs_collated.tsv -->
<g id="edge36" class="edge">
<title>collate&#45;&gt;output/TPMs_collated.tsv</title>
<path fill="none" stroke="#000000" d="M850,-87.8314C850,-80.131 850,-70.9743 850,-62.4166"/>
<polygon fill="#000000" stroke="#000000" points="853.5001,-62.4132 850,-52.4133 846.5001,-62.4133 853.5001,-62.4132"/>
</g>
</g>
</svg>
