<?xml version="1.0" encoding="UTF-8" standalone="no"?>
<!DOCTYPE svg PUBLIC "-//W3C//DTD SVG 1.1//EN"
 "http://www.w3.org/Graphics/SVG/1.1/DTD/svg11.dtd">
<!-- Generated by graphviz version 2.40.1 (20161225.0304)
 -->
<!-- Title: G Pages: 1 -->
<svg width="2142pt" height="1773pt"
 viewBox="0.00 0.00 2142.00 1773.00" xmlns="http://www.w3.org/2000/svg" xmlns:xlink="http://www.w3.org/1999/xlink">
<g id="graph0" class="graph" transform="scale(1 1) rotate(0) translate(4 1769)">
<title>G</title>
<polygon fill="#ffffff" stroke="transparent" points="-4,4 -4,-1769 2138,-1769 2138,4 -4,4"/>
<g id="clust1" class="cluster">
<title>cluster_data</title>
<polygon fill="none" stroke="#000000" stroke-dasharray="5,2" points="1312,-1599 1312,-1757 2126,-1757 2126,-1599 1312,-1599"/>
<text text-anchor="middle" x="1331" y="-1745" font-family="Helvetica,sans-Serif" font-size="10.00" fill="#000000">Data</text>
</g>
<g id="clust2" class="cluster">
<title>cluster_organism</title>
<polygon fill="none" stroke="#000000" stroke-dasharray="5,2" points="1416,-1633 1416,-1704 1606,-1704 1606,-1633 1416,-1633"/>
<text text-anchor="middle" x="1456" y="-1692" font-family="Helvetica,sans-Serif" font-size="10.00" fill="#000000">Organism data</text>
</g>
<g id="clust3" class="cluster">
<title>cluster_contaminants</title>
<polygon fill="none" stroke="#000000" stroke-dasharray="5,2" points="1320,-1633 1320,-1704 1408,-1704 1408,-1633 1320,-1633"/>
<text text-anchor="middle" x="1358.5" y="-1692" font-family="Helvetica,sans-Serif" font-size="10.00" fill="#000000">Contaminants</text>
</g>
<g id="clust4" class="cluster">
<title>cluster_additional_organism</title>
<polygon fill="none" stroke="#000000" stroke-dasharray="5,2" points="1930,-1607 1930,-1730 2118,-1730 2118,-1607 1930,-1607"/>
<text text-anchor="middle" x="2010.5" y="-1718" font-family="Helvetica,sans-Serif" font-size="10.00" fill="#000000">Additional organism&#45;specific data</text>
</g>
<g id="clust5" class="cluster">
<title>cluster_ribosome</title>
<polygon fill="none" stroke="#000000" stroke-dasharray="5,2" points="1614,-1633 1614,-1704 1922,-1704 1922,-1633 1614,-1633"/>
<text text-anchor="middle" x="1673.5" y="-1692" font-family="Helvetica,sans-Serif" font-size="10.00" fill="#000000">Ribosome profiling data</text>
</g>
<g id="clust6" class="cluster">
<title>cluster_indexing</title>
<polygon fill="none" stroke="#000000" points="1299,-1448 1299,-1591 1552,-1591 1552,-1448 1299,-1448"/>
<text text-anchor="middle" x="1325.5" y="-1579" font-family="Helvetica,sans-Serif" font-size="10.00" fill="#000000">Indexing</text>
</g>
<g id="clust7" class="cluster">
<title>cluster_per_sample_processing</title>
<polygon fill="none" stroke="#000000" points="8,-8 8,-1591 1289,-1591 1289,-8 8,-8"/>
<text text-anchor="middle" x="70" y="-1579" font-family="Helvetica,sans-Serif" font-size="10.00" fill="#000000">Process &lt;SAMPLE_ID&gt;</text>
</g>
<g id="clust8" class="cluster">
<title>cluster_summary</title>
<polygon fill="none" stroke="#000000" points="1297,-8 1297,-151 1673,-151 1673,-8 1297,-8"/>
<text text-anchor="middle" x="1326.5" y="-139" font-family="Helvetica,sans-Serif" font-size="10.00" fill="#000000">Summary</text>
</g>
<!-- input/CDS.fa -->
<g id="node1" class="node">
<title>input/CDS.fa</title>
<text text-anchor="middle" x="1461" y="-1656.5" font-family="Helvetica,sans-Serif" font-size="10.00" fill="#000000">input/CDS.fa</text>
</g>
<!-- h2build2 -->
<g id="node9" class="node">
<title>h2build2</title>
<polygon fill="none" stroke="#000000" points="1509,-1564 1443,-1564 1443,-1528 1509,-1528 1509,-1564"/>
<text text-anchor="middle" x="1476" y="-1543.5" font-family="Helvetica,sans-Serif" font-size="10.00" fill="#000000">hisat2&#45;build</text>
</g>
<!-- input/CDS.fa&#45;&gt;h2build2 -->
<g id="edge3" class="edge">
<title>input/CDS.fa&#45;&gt;h2build2</title>
<path fill="none" stroke="#000000" d="M1463.41,-1640.8446C1465.7937,-1622.8877 1469.4761,-1595.1466 1472.2438,-1574.2969"/>
<polygon fill="#000000" stroke="#000000" points="1475.7496,-1574.484 1473.596,-1564.1103 1468.8104,-1573.5628 1475.7496,-1574.484"/>
</g>
<!-- statsfigs -->
<g id="node22" class="node">
<title>statsfigs</title>
<polygon fill="none" stroke="#000000" points="1223.5,-412 1110.5,-412 1110.5,-376 1223.5,-376 1223.5,-412"/>
<text text-anchor="middle" x="1167" y="-391.5" font-family="Helvetica,sans-Serif" font-size="10.00" fill="#000000">generate_stats_figs.R</text>
</g>
<!-- input/CDS.fa&#45;&gt;statsfigs -->
<g id="edge32" class="edge">
<title>input/CDS.fa&#45;&gt;statsfigs</title>
<path fill="none" stroke="#000000" d="M1470.0722,-1640.7372C1477.9067,-1626.9723 1490.5561,-1608.8408 1507,-1599 1525.9345,-1587.6687 1540.4035,-1606.6097 1556,-1591 1593.2354,-1553.7329 1575,-1526.6812 1575,-1474 1575,-1474 1575,-1474 1575,-754 1575,-566.0152 1448.1941,-537.7172 1283,-448 1262.1782,-436.6916 1238.5696,-425.4321 1218.1111,-416.1439"/>
<polygon fill="#000000" stroke="#000000" points="1219.5097,-412.9353 1208.9543,-412.022 1216.6363,-419.3184 1219.5097,-412.9353"/>
</g>
<!-- input/CDS.gff3 -->
<g id="node2" class="node">
<title>input/CDS.gff3</title>
<text text-anchor="middle" x="1557" y="-1656.5" font-family="Helvetica,sans-Serif" font-size="10.00" fill="#000000">input/CDS.gff3</text>
</g>
<!-- bam2h5 -->
<g id="node20" class="node">
<title>bam2h5</title>
<polygon fill="none" stroke="#000000" points="1211.5,-556 1136.5,-556 1136.5,-520 1211.5,-520 1211.5,-556"/>
<text text-anchor="middle" x="1174" y="-535.5" font-family="Helvetica,sans-Serif" font-size="10.00" fill="#000000">bam_to_h5.R</text>
</g>
<!-- input/CDS.gff3&#45;&gt;bam2h5 -->
<g id="edge29" class="edge">
<title>input/CDS.gff3&#45;&gt;bam2h5</title>
<path fill="none" stroke="#000000" d="M1567.056,-1640.73C1574.0762,-1627.3122 1583.1941,-1608.4567 1589,-1591 1605.7526,-1540.6301 1613,-1527.0827 1613,-1474 1613,-1474 1613,-1474 1613,-754 1613,-667.5277 1335.3093,-581.9723 1221.6404,-550.5737"/>
<polygon fill="#000000" stroke="#000000" points="1222.3783,-547.1469 1211.8088,-547.8802 1220.5286,-553.8981 1222.3783,-547.1469"/>
</g>
<!-- input/CDS.gff3&#45;&gt;statsfigs -->
<g id="edge33" class="edge">
<title>input/CDS.gff3&#45;&gt;statsfigs</title>
<path fill="none" stroke="#000000" d="M1574.6125,-1640.9725C1586.5206,-1627.9689 1601.8644,-1609.5124 1612,-1591 1638.3231,-1542.9215 1651,-1528.8128 1651,-1474 1651,-1474 1651,-1474 1651,-538 1651,-452.024 1366.8822,-413.262 1234.0131,-399.8355"/>
<polygon fill="#000000" stroke="#000000" points="1234.2407,-396.341 1223.9442,-398.8373 1233.5501,-403.3068 1234.2407,-396.341"/>
</g>
<!-- input/rRNA.fa -->
<g id="node3" class="node">
<title>input/rRNA.fa</title>
<text text-anchor="middle" x="1364" y="-1656.8" font-family="Helvetica,sans-Serif" font-size="9.00" fill="#000000">input/rRNA.fa</text>
</g>
<!-- h2build1 -->
<g id="node8" class="node">
<title>h2build1</title>
<polygon fill="none" stroke="#000000" points="1396,-1564 1330,-1564 1330,-1528 1396,-1528 1396,-1564"/>
<text text-anchor="middle" x="1363" y="-1543.5" font-family="Helvetica,sans-Serif" font-size="10.00" fill="#000000">hisat2&#45;build</text>
</g>
<!-- input/rRNA.fa&#45;&gt;h2build1 -->
<g id="edge1" class="edge">
<title>input/rRNA.fa&#45;&gt;h2build1</title>
<path fill="none" stroke="#000000" d="M1363.8393,-1640.8446C1363.6804,-1622.8877 1363.4349,-1595.1466 1363.2504,-1574.2969"/>
<polygon fill="#000000" stroke="#000000" points="1366.7487,-1574.079 1363.1603,-1564.1103 1359.749,-1574.141 1366.7487,-1574.079"/>
</g>
<!-- data -->
<g id="node4" class="node">
<title>data</title>
<polygon fill="none" stroke="#000000" stroke-dasharray="5,2" points="2109.5,-1703 1938.5,-1703 1938.5,-1615 2109.5,-1615 2109.5,-1703"/>
<text text-anchor="middle" x="2024" y="-1691" font-family="Helvetica,sans-Serif" font-size="10.00" fill="#000000">data/codon_pos_i200.RData</text>
<text text-anchor="middle" x="2024" y="-1679" font-family="Helvetica,sans-Serif" font-size="10.00" fill="#000000">&#13;</text>
<text text-anchor="middle" x="2024" y="-1668" font-family="Helvetica,sans-Serif" font-size="10.00" fill="#000000">data/features.tsv</text>
<text text-anchor="middle" x="2024" y="-1656" font-family="Helvetica,sans-Serif" font-size="10.00" fill="#000000">&#13;</text>
<text text-anchor="middle" x="2024" y="-1645" font-family="Helvetica,sans-Serif" font-size="10.00" fill="#000000">data/tRNAs.tsv</text>
<text text-anchor="middle" x="2024" y="-1633" font-family="Helvetica,sans-Serif" font-size="10.00" fill="#000000">&#13;</text>
<text text-anchor="middle" x="2024" y="-1622" font-family="Helvetica,sans-Serif" font-size="10.00" fill="#000000">data/standard_asite_disp_length.txt</text>
</g>
<!-- data&#45;&gt;statsfigs -->
<g id="edge34" class="edge">
<title>data&#45;&gt;statsfigs</title>
<path fill="none" stroke="#000000" d="M1951.0762,-1614.9267C1887.3689,-1573.7995 1805,-1513.0702 1805,-1474 1805,-1474 1805,-1474 1805,-610 1805,-484.6029 1690.8315,-493.5503 1574,-448 1513.4677,-424.3996 1332.7596,-407.0281 1233.7264,-398.9818"/>
<polygon fill="#000000" stroke="#000000" points="1233.7762,-395.4747 1223.5281,-398.1628 1233.2157,-402.4522 1233.7762,-395.4747"/>
</g>
<!-- ribosome_data0toI -->
<g id="node5" class="node">
<title>ribosome_data0toI</title>
<text text-anchor="middle" x="1887" y="-1656.5" font-family="Helvetica,sans-Serif" font-size="10.00" fill="#000000">...</text>
</g>
<!-- input/&lt;SAMPLE_ID&gt;.fastq.gz -->
<g id="node6" class="node">
<title>input/&lt;SAMPLE_ID&gt;.fastq.gz</title>
<text text-anchor="middle" x="1768" y="-1656.5" font-family="Helvetica,sans-Serif" font-size="10.00" fill="#000000">input/&lt;SAMPLE_ID&gt;.fastq.gz</text>
</g>
<!-- cut -->
<g id="node12" class="node">
<title>cut</title>
<polygon fill="none" stroke="#000000" points="1260,-1564 1206,-1564 1206,-1528 1260,-1528 1260,-1564"/>
<text text-anchor="middle" x="1233" y="-1543.5" font-family="Helvetica,sans-Serif" font-size="10.00" fill="#000000">cutadapt</text>
</g>
<!-- input/&lt;SAMPLE_ID&gt;.fastq.gz&#45;&gt;cut -->
<g id="edge5" class="edge">
<title>input/&lt;SAMPLE_ID&gt;.fastq.gz&#45;&gt;cut</title>
<path fill="none" stroke="#000000" d="M1749.7871,-1640.7266C1734.1168,-1626.3598 1710.1211,-1607.4147 1685,-1599 1643.9019,-1585.2336 1336.0849,-1604.8057 1295,-1591 1282.167,-1586.6877 1269.7371,-1578.6904 1259.4187,-1570.6201"/>
<polygon fill="#000000" stroke="#000000" points="1261.5721,-1567.8594 1251.6288,-1564.2013 1257.1207,-1573.2617 1261.5721,-1567.8594"/>
</g>
<!-- count_reads -->
<g id="node43" class="node">
<title>count_reads</title>
<polygon fill="none" stroke="#000000" points="1502.5,-124 1419.5,-124 1419.5,-88 1502.5,-88 1502.5,-124"/>
<text text-anchor="middle" x="1461" y="-103.5" font-family="Helvetica,sans-Serif" font-size="10.00" fill="#000000">count_reads.py</text>
</g>
<!-- input/&lt;SAMPLE_ID&gt;.fastq.gz&#45;&gt;count_reads -->
<g id="edge43" class="edge">
<title>input/&lt;SAMPLE_ID&gt;.fastq.gz&#45;&gt;count_reads</title>
<path fill="none" stroke="#000000" d="M1767.8371,-1640.8812C1767.5537,-1607.7528 1767,-1535.1858 1767,-1474 1767,-1474 1767,-1474 1767,-394 1767,-255.6497 1599.0789,-164.2315 1512.0234,-126.1337"/>
<polygon fill="#000000" stroke="#000000" points="1513.1562,-122.8109 1502.587,-122.0742 1510.3899,-129.2411 1513.1562,-122.8109"/>
</g>
<!-- ribosome_dataItoN -->
<g id="node7" class="node">
<title>ribosome_dataItoN</title>
<text text-anchor="middle" x="1649" y="-1656.5" font-family="Helvetica,sans-Serif" font-size="10.00" fill="#000000">...</text>
</g>
<!-- index/rRNA.1|...|8.ht2 -->
<g id="node10" class="node">
<title>index/rRNA.1|...|8.ht2</title>
<text text-anchor="middle" x="1362" y="-1471.5" font-family="Helvetica,sans-Serif" font-size="10.00" fill="#000000">index/rRNA.1|...|8.ht2</text>
</g>
<!-- h2build1&#45;&gt;index/rRNA.1|...|8.ht2 -->
<g id="edge2" class="edge">
<title>h2build1&#45;&gt;index/rRNA.1|...|8.ht2</title>
<path fill="none" stroke="#000000" d="M1362.7477,-1527.8314C1362.6407,-1520.131 1362.5135,-1510.9743 1362.3947,-1502.4166"/>
<polygon fill="#000000" stroke="#000000" points="1365.8944,-1502.3637 1362.2557,-1492.4133 1358.8951,-1502.4609 1365.8944,-1502.3637"/>
</g>
<!-- index/CDS.1|...|8.ht2 -->
<g id="node11" class="node">
<title>index/CDS.1|...|8.ht2</title>
<text text-anchor="middle" x="1490" y="-1471.5" font-family="Helvetica,sans-Serif" font-size="10.00" fill="#000000">index/CDS.1|...|8.ht2</text>
</g>
<!-- h2build2&#45;&gt;index/CDS.1|...|8.ht2 -->
<g id="edge4" class="edge">
<title>h2build2&#45;&gt;index/CDS.1|...|8.ht2</title>
<path fill="none" stroke="#000000" d="M1479.5328,-1527.8314C1481.0301,-1520.131 1482.8105,-1510.9743 1484.4745,-1502.4166"/>
<polygon fill="#000000" stroke="#000000" points="1487.9465,-1502.8975 1486.4196,-1492.4133 1481.0752,-1501.5614 1487.9465,-1502.8975"/>
</g>
<!-- h21 -->
<g id="node13" class="node">
<title>h21</title>
<polygon fill="none" stroke="#000000" points="1230,-1420 1176,-1420 1176,-1384 1230,-1384 1230,-1420"/>
<text text-anchor="middle" x="1203" y="-1399.5" font-family="Helvetica,sans-Serif" font-size="10.00" fill="#000000">hisat2</text>
</g>
<!-- index/rRNA.1|...|8.ht2&#45;&gt;h21 -->
<g id="edge8" class="edge">
<title>index/rRNA.1|...|8.ht2&#45;&gt;h21</title>
<path fill="none" stroke="#000000" d="M1321.8776,-1455.8314C1296.5382,-1444.3569 1264.0584,-1429.6491 1239.454,-1418.5075"/>
<polygon fill="#000000" stroke="#000000" points="1240.6607,-1415.2118 1230.1073,-1414.275 1237.7731,-1421.5885 1240.6607,-1415.2118"/>
</g>
<!-- h22 -->
<g id="node14" class="node">
<title>h22</title>
<polygon fill="none" stroke="#000000" points="1138,-1276 1084,-1276 1084,-1240 1138,-1240 1138,-1276"/>
<text text-anchor="middle" x="1111" y="-1255.5" font-family="Helvetica,sans-Serif" font-size="10.00" fill="#000000">hisat2</text>
</g>
<!-- index/CDS.1|...|8.ht2&#45;&gt;h22 -->
<g id="edge11" class="edge">
<title>index/CDS.1|...|8.ht2&#45;&gt;h22</title>
<path fill="none" stroke="#000000" d="M1472.7116,-1455.9553C1440.0229,-1422.826 1365.6253,-1352.0371 1290,-1312 1243.9801,-1287.6364 1185.3477,-1272.6028 1147.9802,-1264.773"/>
<polygon fill="#000000" stroke="#000000" points="1148.5291,-1261.3131 1138.0326,-1262.7538 1147.1365,-1268.1732 1148.5291,-1261.3131"/>
</g>
<!-- tmp/&lt;SAMPLE_ID&gt;/trim.fq -->
<g id="node24" class="node">
<title>tmp/&lt;SAMPLE_ID&gt;/trim.fq</title>
<text text-anchor="middle" x="1213" y="-1471.5" font-family="Helvetica,sans-Serif" font-size="10.00" fill="#000000">tmp/&lt;SAMPLE_ID&gt;/trim.fq</text>
</g>
<!-- cut&#45;&gt;tmp/&lt;SAMPLE_ID&gt;/trim.fq -->
<g id="edge6" class="edge">
<title>cut&#45;&gt;tmp/&lt;SAMPLE_ID&gt;/trim.fq</title>
<path fill="none" stroke="#000000" d="M1227.9532,-1527.8314C1225.7906,-1520.0463 1223.2147,-1510.7729 1220.8152,-1502.1347"/>
<polygon fill="#000000" stroke="#000000" points="1224.1636,-1501.1117 1218.1148,-1492.4133 1217.419,-1502.9852 1224.1636,-1501.1117"/>
</g>
<!-- tmp/&lt;SAMPLE_ID&gt;/rRNA_map.sam -->
<g id="node25" class="node">
<title>tmp/&lt;SAMPLE_ID&gt;/rRNA_map.sam</title>
<text text-anchor="middle" x="1192" y="-1327.5" font-family="Helvetica,sans-Serif" font-size="10.00" fill="#000000">tmp/&lt;SAMPLE_ID&gt;/rRNA_map.sam</text>
</g>
<!-- h21&#45;&gt;tmp/&lt;SAMPLE_ID&gt;/rRNA_map.sam -->
<g id="edge9" class="edge">
<title>h21&#45;&gt;tmp/&lt;SAMPLE_ID&gt;/rRNA_map.sam</title>
<path fill="none" stroke="#000000" d="M1200.2242,-1383.8314C1199.0478,-1376.131 1197.6489,-1366.9743 1196.3414,-1358.4166"/>
<polygon fill="#000000" stroke="#000000" points="1199.7833,-1357.7699 1194.8131,-1348.4133 1192.8636,-1358.8272 1199.7833,-1357.7699"/>
</g>
<!-- tmp/&lt;SAMPLE_ID&gt;/nonrRNA.fq -->
<g id="node26" class="node">
<title>tmp/&lt;SAMPLE_ID&gt;/nonrRNA.fq</title>
<text text-anchor="middle" x="1006" y="-1327.5" font-family="Helvetica,sans-Serif" font-size="10.00" fill="#000000">tmp/&lt;SAMPLE_ID&gt;/nonrRNA.fq</text>
</g>
<!-- h21&#45;&gt;tmp/&lt;SAMPLE_ID&gt;/nonrRNA.fq -->
<g id="edge10" class="edge">
<title>h21&#45;&gt;tmp/&lt;SAMPLE_ID&gt;/nonrRNA.fq</title>
<path fill="none" stroke="#000000" d="M1175.608,-1391.9887C1147.1722,-1381.5959 1101.8067,-1365.0157 1065.1459,-1351.6168"/>
<polygon fill="#000000" stroke="#000000" points="1066.1383,-1348.2531 1055.5445,-1348.1076 1063.7354,-1354.8278 1066.1383,-1348.2531"/>
</g>
<!-- tmp/&lt;SAMPLE_ID&gt;/unaligned.fq -->
<g id="node27" class="node">
<title>tmp/&lt;SAMPLE_ID&gt;/unaligned.fq</title>
<text text-anchor="middle" x="1201" y="-1183.5" font-family="Helvetica,sans-Serif" font-size="10.00" fill="#000000">tmp/&lt;SAMPLE_ID&gt;/unaligned.fq</text>
</g>
<!-- h22&#45;&gt;tmp/&lt;SAMPLE_ID&gt;/unaligned.fq -->
<g id="edge13" class="edge">
<title>h22&#45;&gt;tmp/&lt;SAMPLE_ID&gt;/unaligned.fq</title>
<path fill="none" stroke="#000000" d="M1133.7108,-1239.8314C1144.796,-1230.9632 1158.2954,-1220.1637 1170.2852,-1210.5718"/>
<polygon fill="#000000" stroke="#000000" points="1172.6742,-1213.1429 1178.2965,-1204.1628 1168.3013,-1207.6768 1172.6742,-1213.1429"/>
</g>
<!-- tmp/&lt;SAMPLE_ID&gt;/orf_map.sam -->
<g id="node28" class="node">
<title>tmp/&lt;SAMPLE_ID&gt;/orf_map.sam</title>
<text text-anchor="middle" x="1021" y="-1183.5" font-family="Helvetica,sans-Serif" font-size="10.00" fill="#000000">tmp/&lt;SAMPLE_ID&gt;/orf_map.sam</text>
</g>
<!-- h22&#45;&gt;tmp/&lt;SAMPLE_ID&gt;/orf_map.sam -->
<g id="edge14" class="edge">
<title>h22&#45;&gt;tmp/&lt;SAMPLE_ID&gt;/orf_map.sam</title>
<path fill="none" stroke="#000000" d="M1088.2892,-1239.8314C1077.204,-1230.9632 1063.7046,-1220.1637 1051.7148,-1210.5718"/>
<polygon fill="#000000" stroke="#000000" points="1053.6987,-1207.6768 1043.7035,-1204.1628 1049.3258,-1213.1429 1053.6987,-1207.6768"/>
</g>
<!-- samindex -->
<g id="node15" class="node">
<title>samindex</title>
<polygon fill="none" stroke="#000000" points="1003.5,-844 920.5,-844 920.5,-808 1003.5,-808 1003.5,-844"/>
<text text-anchor="middle" x="962" y="-823.5" font-family="Helvetica,sans-Serif" font-size="10.00" fill="#000000">samtools index</text>
</g>
<!-- tmp/&lt;SAMPLE_ID&gt;/orf_map_clean.bam+.bai -->
<g id="node32" class="node">
<title>tmp/&lt;SAMPLE_ID&gt;/orf_map_clean.bam+.bai</title>
<text text-anchor="middle" x="962" y="-751.5" font-family="Helvetica,sans-Serif" font-size="10.00" fill="#000000">tmp/&lt;SAMPLE_ID&gt;/orf_map_clean.bam+.bai</text>
</g>
<!-- samindex&#45;&gt;tmp/&lt;SAMPLE_ID&gt;/orf_map_clean.bam+.bai -->
<g id="edge21" class="edge">
<title>samindex&#45;&gt;tmp/&lt;SAMPLE_ID&gt;/orf_map_clean.bam+.bai</title>
<path fill="none" stroke="#000000" d="M962,-807.8314C962,-800.131 962,-790.9743 962,-782.4166"/>
<polygon fill="#000000" stroke="#000000" points="965.5001,-782.4132 962,-772.4133 958.5001,-782.4133 965.5001,-782.4132"/>
</g>
<!-- samview -->
<g id="node16" class="node">
<title>samview</title>
<polygon fill="none" stroke="#000000" points="1035.5,-988 888.5,-988 888.5,-952 1035.5,-952 1035.5,-988"/>
<text text-anchor="middle" x="962" y="-967.5" font-family="Helvetica,sans-Serif" font-size="10.00" fill="#000000">samtools view | samtools sort</text>
</g>
<!-- tmp/&lt;SAMPLE_ID&gt;/orf_map_clean.bam -->
<g id="node31" class="node">
<title>tmp/&lt;SAMPLE_ID&gt;/orf_map_clean.bam</title>
<text text-anchor="middle" x="962" y="-895.5" font-family="Helvetica,sans-Serif" font-size="10.00" fill="#000000">tmp/&lt;SAMPLE_ID&gt;/orf_map_clean.bam</text>
</g>
<!-- samview&#45;&gt;tmp/&lt;SAMPLE_ID&gt;/orf_map_clean.bam -->
<g id="edge19" class="edge">
<title>samview&#45;&gt;tmp/&lt;SAMPLE_ID&gt;/orf_map_clean.bam</title>
<path fill="none" stroke="#000000" d="M962,-951.8314C962,-944.131 962,-934.9743 962,-926.4166"/>
<polygon fill="#000000" stroke="#000000" points="965.5001,-926.4132 962,-916.4133 958.5001,-926.4133 965.5001,-926.4132"/>
</g>
<!-- trim -->
<g id="node17" class="node">
<title>trim</title>
<polygon fill="none" stroke="#000000" points="1076,-1132 966,-1132 966,-1096 1076,-1096 1076,-1132"/>
<text text-anchor="middle" x="1021" y="-1111.5" font-family="Helvetica,sans-Serif" font-size="10.00" fill="#000000">trim_5p_mismatch.py</text>
</g>
<!-- tmp/&lt;SAMPLE_ID&gt;/trim_5p_mismatch.tsv -->
<g id="node29" class="node">
<title>tmp/&lt;SAMPLE_ID&gt;/trim_5p_mismatch.tsv</title>
<text text-anchor="middle" x="1179" y="-1039.5" font-family="Helvetica,sans-Serif" font-size="10.00" fill="#000000">tmp/&lt;SAMPLE_ID&gt;/trim_5p_mismatch.tsv</text>
</g>
<!-- trim&#45;&gt;tmp/&lt;SAMPLE_ID&gt;/trim_5p_mismatch.tsv -->
<g id="edge17" class="edge">
<title>trim&#45;&gt;tmp/&lt;SAMPLE_ID&gt;/trim_5p_mismatch.tsv</title>
<path fill="none" stroke="#000000" d="M1060.8701,-1095.8314C1081.9077,-1086.2446 1107.8983,-1074.4008 1130.1396,-1064.2655"/>
<polygon fill="#000000" stroke="#000000" points="1131.7683,-1067.3697 1139.4166,-1060.038 1128.8655,-1060.9999 1131.7683,-1067.3697"/>
</g>
<!-- tmp/&lt;SAMPLE_ID&gt;/orf_map_clean.sam -->
<g id="node30" class="node">
<title>tmp/&lt;SAMPLE_ID&gt;/orf_map_clean.sam</title>
<text text-anchor="middle" x="962" y="-1039.5" font-family="Helvetica,sans-Serif" font-size="10.00" fill="#000000">tmp/&lt;SAMPLE_ID&gt;/orf_map_clean.sam</text>
</g>
<!-- trim&#45;&gt;tmp/&lt;SAMPLE_ID&gt;/orf_map_clean.sam -->
<g id="edge16" class="edge">
<title>trim&#45;&gt;tmp/&lt;SAMPLE_ID&gt;/orf_map_clean.sam</title>
<path fill="none" stroke="#000000" d="M1006.1118,-1095.8314C999.247,-1087.454 990.9699,-1077.3531 983.4489,-1068.1749"/>
<polygon fill="#000000" stroke="#000000" points="986.1341,-1065.9297 977.0886,-1060.4133 980.7197,-1070.3665 986.1341,-1065.9297"/>
</g>
<!-- bedplus -->
<g id="node18" class="node">
<title>bedplus</title>
<polygon fill="none" stroke="#000000" points="853,-556 731,-556 731,-520 853,-520 853,-556"/>
<text text-anchor="middle" x="792" y="-535.5" font-family="Helvetica,sans-Serif" font-size="10.00" fill="#000000">bedtools genomecov (+)</text>
</g>
<!-- output/&lt;SAMPLE_ID&gt;/plus.bedgraph -->
<g id="node34" class="node">
<title>output/&lt;SAMPLE_ID&gt;/plus.bedgraph</title>
<text text-anchor="middle" x="761" y="-463.5" font-family="Helvetica,sans-Serif" font-size="10.00" fill="#000000">output/&lt;SAMPLE_ID&gt;/plus.bedgraph</text>
</g>
<!-- bedplus&#45;&gt;output/&lt;SAMPLE_ID&gt;/plus.bedgraph -->
<g id="edge25" class="edge">
<title>bedplus&#45;&gt;output/&lt;SAMPLE_ID&gt;/plus.bedgraph</title>
<path fill="none" stroke="#000000" d="M784.1774,-519.8314C780.7891,-511.9617 776.7459,-502.5712 772.9924,-493.8533"/>
<polygon fill="#000000" stroke="#000000" points="776.0973,-492.214 768.9279,-484.4133 769.6679,-494.9822 776.0973,-492.214"/>
</g>
<!-- bedminus -->
<g id="node19" class="node">
<title>bedminus</title>
<polygon fill="none" stroke="#000000" points="1021.5,-556 902.5,-556 902.5,-520 1021.5,-520 1021.5,-556"/>
<text text-anchor="middle" x="962" y="-535.5" font-family="Helvetica,sans-Serif" font-size="10.00" fill="#000000">bedtools genomecov (&#45;)</text>
</g>
<!-- output/&lt;SAMPLE_ID&gt;/minus.bedgraph -->
<g id="node35" class="node">
<title>output/&lt;SAMPLE_ID&gt;/minus.bedgraph</title>
<text text-anchor="middle" x="962" y="-463.5" font-family="Helvetica,sans-Serif" font-size="10.00" fill="#000000">output/&lt;SAMPLE_ID&gt;/minus.bedgraph</text>
</g>
<!-- bedminus&#45;&gt;output/&lt;SAMPLE_ID&gt;/minus.bedgraph -->
<g id="edge27" class="edge">
<title>bedminus&#45;&gt;output/&lt;SAMPLE_ID&gt;/minus.bedgraph</title>
<path fill="none" stroke="#000000" d="M962,-519.8314C962,-512.131 962,-502.9743 962,-494.4166"/>
<polygon fill="#000000" stroke="#000000" points="965.5001,-494.4132 962,-484.4133 958.5001,-494.4133 965.5001,-494.4132"/>
</g>
<!-- output/&lt;SAMPLE_ID&gt;/&lt;SAMPLE_ID&gt;.h5 -->
<g id="node36" class="node">
<title>output/&lt;SAMPLE_ID&gt;/&lt;SAMPLE_ID&gt;.h5</title>
<text text-anchor="middle" x="1174" y="-463.5" font-family="Helvetica,sans-Serif" font-size="10.00" fill="#000000">output/&lt;SAMPLE_ID&gt;/&lt;SAMPLE_ID&gt;.h5</text>
</g>
<!-- bam2h5&#45;&gt;output/&lt;SAMPLE_ID&gt;/&lt;SAMPLE_ID&gt;.h5 -->
<g id="edge30" class="edge">
<title>bam2h5&#45;&gt;output/&lt;SAMPLE_ID&gt;/&lt;SAMPLE_ID&gt;.h5</title>
<path fill="none" stroke="#000000" d="M1174,-519.8314C1174,-512.131 1174,-502.9743 1174,-494.4166"/>
<polygon fill="#000000" stroke="#000000" points="1177.5001,-494.4132 1174,-484.4133 1170.5001,-494.4133 1177.5001,-494.4132"/>
</g>
<!-- copy -->
<g id="node21" class="node">
<title>copy</title>
<polygon fill="none" stroke="#000000" points="989,-700 935,-700 935,-664 989,-664 989,-700"/>
<text text-anchor="middle" x="962" y="-679.5" font-family="Helvetica,sans-Serif" font-size="10.00" fill="#000000">copy</text>
</g>
<!-- output/&lt;SAMPLE_ID&gt;/&lt;SAMPLE_ID&gt;.bam+.bai -->
<g id="node33" class="node">
<title>output/&lt;SAMPLE_ID&gt;/&lt;SAMPLE_ID&gt;.bam+.bai</title>
<text text-anchor="middle" x="962" y="-607.5" font-family="Helvetica,sans-Serif" font-size="10.00" fill="#000000">output/&lt;SAMPLE_ID&gt;/&lt;SAMPLE_ID&gt;.bam+.bai</text>
</g>
<!-- copy&#45;&gt;output/&lt;SAMPLE_ID&gt;/&lt;SAMPLE_ID&gt;.bam+.bai -->
<g id="edge23" class="edge">
<title>copy&#45;&gt;output/&lt;SAMPLE_ID&gt;/&lt;SAMPLE_ID&gt;.bam+.bai</title>
<path fill="none" stroke="#000000" d="M962,-663.8314C962,-656.131 962,-646.9743 962,-638.4166"/>
<polygon fill="#000000" stroke="#000000" points="965.5001,-638.4132 962,-628.4133 958.5001,-638.4133 965.5001,-638.4132"/>
</g>
<!-- pdfs -->
<g id="node37" class="node">
<title>pdfs</title>
<polygon fill="none" stroke="#000000" stroke-dasharray="5,2" points="331.5,-340 16.5,-340 16.5,-160 331.5,-160 331.5,-340"/>
<text text-anchor="middle" x="174" y="-328" font-family="Helvetica,sans-Serif" font-size="10.00" fill="#000000">output/&lt;SAMPLE_ID&gt;/metagene_start_stop_read_counts.pdf</text>
<text text-anchor="middle" x="174" y="-316" font-family="Helvetica,sans-Serif" font-size="10.00" fill="#000000">&#13;</text>
<text text-anchor="middle" x="174" y="-305" font-family="Helvetica,sans-Serif" font-size="10.00" fill="#000000">output/&lt;SAMPLE_ID&gt;/metagene_normalized_profile_start_stop.pdf</text>
<text text-anchor="middle" x="174" y="-293" font-family="Helvetica,sans-Serif" font-size="10.00" fill="#000000">&#13;</text>
<text text-anchor="middle" x="174" y="-282" font-family="Helvetica,sans-Serif" font-size="10.00" fill="#000000">output/&lt;SAMPLE_ID&gt;/ORF_TPMs_vs_features.pdf</text>
<text text-anchor="middle" x="174" y="-270" font-family="Helvetica,sans-Serif" font-size="10.00" fill="#000000">&#13;</text>
<text text-anchor="middle" x="174" y="-259" font-family="Helvetica,sans-Serif" font-size="10.00" fill="#000000">output/&lt;SAMPLE_ID&gt;/normalized_density_APEsites_per_codon.pdf</text>
<text text-anchor="middle" x="174" y="-247" font-family="Helvetica,sans-Serif" font-size="10.00" fill="#000000">&#13;</text>
<text text-anchor="middle" x="174" y="-236" font-family="Helvetica,sans-Serif" font-size="10.00" fill="#000000">output/&lt;SAMPLE_ID&gt;/metagene_start_barplot_by_length.pdf</text>
<text text-anchor="middle" x="174" y="-224" font-family="Helvetica,sans-Serif" font-size="10.00" fill="#000000">&#13;</text>
<text text-anchor="middle" x="174" y="-213" font-family="Helvetica,sans-Serif" font-size="10.00" fill="#000000">output/&lt;SAMPLE_ID&gt;/metagene_start_ribogrid_by_length.pdf</text>
<text text-anchor="middle" x="174" y="-201" font-family="Helvetica,sans-Serif" font-size="10.00" fill="#000000">&#13;</text>
<text text-anchor="middle" x="174" y="-190" font-family="Helvetica,sans-Serif" font-size="10.00" fill="#000000">output/&lt;SAMPLE_ID&gt;/frame_proportions_per_ORF.pdf</text>
<text text-anchor="middle" x="174" y="-178" font-family="Helvetica,sans-Serif" font-size="10.00" fill="#000000">&#13;</text>
<text text-anchor="middle" x="174" y="-167" font-family="Helvetica,sans-Serif" font-size="10.00" fill="#000000">output/&lt;SAMPLE_ID&gt;/read_counts_by_length.pdf</text>
</g>
<!-- statsfigs&#45;&gt;pdfs -->
<g id="edge35" class="edge">
<title>statsfigs&#45;&gt;pdfs</title>
<path fill="none" stroke="#000000" d="M1110.2607,-393.4506C951.4358,-391.4251 503.9297,-382.259 341.7615,-340.2257"/>
<polygon fill="#000000" stroke="#000000" points="342.5252,-336.806 331.956,-337.542 340.6773,-343.5577 342.5252,-336.806"/>
</g>
<!-- tsvs -->
<g id="node38" class="node">
<title>tsvs</title>
<polygon fill="none" stroke="#000000" stroke-dasharray="5,2" points="664.5,-282.5 349.5,-282.5 349.5,-217.5 664.5,-217.5 664.5,-282.5"/>
<text text-anchor="middle" x="507" y="-270.5" font-family="Helvetica,sans-Serif" font-size="10.00" fill="#000000">output/&lt;SAMPLE_ID&gt;/normalized_density_APEsites_per_codon.tsv</text>
<text text-anchor="middle" x="507" y="-258.5" font-family="Helvetica,sans-Serif" font-size="10.00" fill="#000000">&#13;</text>
<text text-anchor="middle" x="507" y="-247.5" font-family="Helvetica,sans-Serif" font-size="10.00" fill="#000000">output/&lt;SAMPLE_ID&gt;/read_frame_per_ORF.tsv</text>
<text text-anchor="middle" x="507" y="-235.5" font-family="Helvetica,sans-Serif" font-size="10.00" fill="#000000">&#13;</text>
<text text-anchor="middle" x="507" y="-224.5" font-family="Helvetica,sans-Serif" font-size="10.00" fill="#000000">output/&lt;SAMPLE_ID&gt;/nt_freq_per_read_position.tsv</text>
</g>
<!-- statsfigs&#45;&gt;tsvs -->
<g id="edge36" class="edge">
<title>statsfigs&#45;&gt;tsvs</title>
<path fill="none" stroke="#000000" d="M1110.448,-390.5401C998.8726,-383.2663 754.2607,-364.977 674,-340 635.3377,-327.9683 595.2945,-306.7361 564.1134,-287.9152"/>
<polygon fill="#000000" stroke="#000000" points="565.9184,-284.9164 555.5622,-282.6803 562.2636,-290.8866 565.9184,-284.9164"/>
</g>
<!-- tsvs_for_static_html -->
<g id="node39" class="node">
<title>tsvs_for_static_html</title>
<polygon fill="none" stroke="#000000" stroke-dasharray="5,2" points="1021,-328.5 683,-328.5 683,-171.5 1021,-171.5 1021,-328.5"/>
<text text-anchor="middle" x="852" y="-316.5" font-family="Helvetica,sans-Serif" font-size="10.00" fill="#000000">output/&lt;SAMPLE_ID&gt;/metagene_start_stop_read_counts.tsv</text>
<text text-anchor="middle" x="852" y="-304.5" font-family="Helvetica,sans-Serif" font-size="10.00" fill="#000000">&#13;</text>
<text text-anchor="middle" x="852" y="-293.5" font-family="Helvetica,sans-Serif" font-size="10.00" fill="#000000">output/&lt;SAMPLE_ID&gt;/metagene_normalized_profile_start_stop.tsv</text>
<text text-anchor="middle" x="852" y="-281.5" font-family="Helvetica,sans-Serif" font-size="10.00" fill="#000000">&#13;</text>
<text text-anchor="middle" x="852" y="-270.5" font-family="Helvetica,sans-Serif" font-size="10.00" fill="#000000">output/&lt;SAMPLE_ID&gt;/ORF_TPMs_vs_features.tsv</text>
<text text-anchor="middle" x="852" y="-258.5" font-family="Helvetica,sans-Serif" font-size="10.00" fill="#000000">&#13;</text>
<text text-anchor="middle" x="852" y="-247.5" font-family="Helvetica,sans-Serif" font-size="10.00" fill="#000000">output/&lt;SAMPLE_ID&gt;/read_frame_per_ORF_filtered.tsv</text>
<text text-anchor="middle" x="852" y="-235.5" font-family="Helvetica,sans-Serif" font-size="10.00" fill="#000000">&#13;</text>
<text text-anchor="middle" x="852" y="-224.5" font-family="Helvetica,sans-Serif" font-size="10.00" fill="#000000">output/&lt;SAMPLE_ID&gt;/normalized_density_APEsites_per_codon_long.tsv</text>
<text text-anchor="middle" x="852" y="-212.5" font-family="Helvetica,sans-Serif" font-size="10.00" fill="#000000">&#13;</text>
<text text-anchor="middle" x="852" y="-201.5" font-family="Helvetica,sans-Serif" font-size="10.00" fill="#000000">output/&lt;SAMPLE_ID&gt;/read_counts_by_length.tsv</text>
<text text-anchor="middle" x="852" y="-189.5" font-family="Helvetica,sans-Serif" font-size="10.00" fill="#000000">&#13;</text>
<text text-anchor="middle" x="852" y="-178.5" font-family="Helvetica,sans-Serif" font-size="10.00" fill="#000000">output/&lt;SAMPLE_ID&gt;/metagene_position_length_counts_5start.tsv</text>
</g>
<!-- statsfigs&#45;&gt;tsvs_for_static_html -->
<g id="edge37" class="edge">
<title>statsfigs&#45;&gt;tsvs_for_static_html</title>
<path fill="none" stroke="#000000" d="M1118.0397,-375.9651C1091.7032,-365.9482 1058.8063,-352.9263 1030,-340 1024.9648,-337.7406 1019.8667,-335.4136 1014.7329,-333.0364"/>
<polygon fill="#000000" stroke="#000000" points="1016.0014,-329.766 1005.4597,-328.7066 1013.0399,-336.1087 1016.0014,-329.766"/>
</g>
<!-- output/&lt;SAMPLE_ID&gt;/ORF_TPMs_and_counts.tsv -->
<g id="node41" class="node">
<title>output/&lt;SAMPLE_ID&gt;/ORF_TPMs_and_counts.tsv</title>
<text text-anchor="middle" x="1160" y="-247.5" font-family="Helvetica,sans-Serif" font-size="10.00" fill="#000000">output/&lt;SAMPLE_ID&gt;/ORF_TPMs_and_counts.tsv</text>
</g>
<!-- statsfigs&#45;&gt;output/&lt;SAMPLE_ID&gt;/ORF_TPMs_and_counts.tsv -->
<g id="edge38" class="edge">
<title>statsfigs&#45;&gt;output/&lt;SAMPLE_ID&gt;/ORF_TPMs_and_counts.tsv</title>
<path fill="none" stroke="#000000" d="M1166.1134,-375.7623C1164.9195,-351.201 1162.7829,-307.2474 1161.3783,-278.3541"/>
<polygon fill="#000000" stroke="#000000" points="1164.8609,-277.9079 1160.8794,-268.0896 1157.8691,-278.2478 1164.8609,-277.9079"/>
</g>
<!-- staticHTML -->
<g id="node23" class="node">
<title>staticHTML</title>
<polygon fill="none" stroke="#000000" points="908.5,-124 795.5,-124 795.5,-88 908.5,-88 908.5,-124"/>
<text text-anchor="middle" x="852" y="-103.5" font-family="Helvetica,sans-Serif" font-size="10.00" fill="#000000">AnalysisOutputs.Rmd</text>
</g>
<!-- output/&lt;SAMPLE_ID&gt;/&lt;SAMPLE_ID&gt;_output_report.html -->
<g id="node40" class="node">
<title>output/&lt;SAMPLE_ID&gt;/&lt;SAMPLE_ID&gt;_output_report.html</title>
<text text-anchor="middle" x="852" y="-31.5" font-family="Helvetica,sans-Serif" font-size="10.00" fill="#000000">output/&lt;SAMPLE_ID&gt;/&lt;SAMPLE_ID&gt;_output_report.html</text>
</g>
<!-- staticHTML&#45;&gt;output/&lt;SAMPLE_ID&gt;/&lt;SAMPLE_ID&gt;_output_report.html -->
<g id="edge40" class="edge">
<title>staticHTML&#45;&gt;output/&lt;SAMPLE_ID&gt;/&lt;SAMPLE_ID&gt;_output_report.html</title>
<path fill="none" stroke="#000000" d="M852,-87.8314C852,-80.131 852,-70.9743 852,-62.4166"/>
<polygon fill="#000000" stroke="#000000" points="855.5001,-62.4132 852,-52.4133 848.5001,-62.4133 855.5001,-62.4132"/>
</g>
<!-- tmp/&lt;SAMPLE_ID&gt;/trim.fq&#45;&gt;h21 -->
<g id="edge7" class="edge">
<title>tmp/&lt;SAMPLE_ID&gt;/trim.fq&#45;&gt;h21</title>
<path fill="none" stroke="#000000" d="M1210.4766,-1455.8314C1209.4071,-1448.131 1208.1353,-1438.9743 1206.9468,-1430.4166"/>
<polygon fill="#000000" stroke="#000000" points="1210.3999,-1429.8367 1205.5574,-1420.4133 1203.4664,-1430.7997 1210.3999,-1429.8367"/>
</g>
<!-- tmp/&lt;SAMPLE_ID&gt;/trim.fq&#45;&gt;count_reads -->
<g id="edge44" class="edge">
<title>tmp/&lt;SAMPLE_ID&gt;/trim.fq&#45;&gt;count_reads</title>
<path fill="none" stroke="#000000" d="M1255.6905,-1455.9219C1343.6705,-1417.3053 1537,-1324.8435 1537,-1258 1537,-1258 1537,-1258 1537,-682 1537,-449.4179 1579.3419,-378.6305 1500,-160 1496.4865,-150.3183 1490.6973,-140.8373 1484.6412,-132.5891"/>
<polygon fill="#000000" stroke="#000000" points="1487.2281,-130.2149 1478.3176,-124.4832 1481.7089,-134.5206 1487.2281,-130.2149"/>
</g>
<!-- tmp/&lt;SAMPLE_ID&gt;/rRNA_map.sam&#45;&gt;count_reads -->
<g id="edge45" class="edge">
<title>tmp/&lt;SAMPLE_ID&gt;/rRNA_map.sam&#45;&gt;count_reads</title>
<path fill="none" stroke="#000000" d="M1281.1035,-1323.2537C1353.2403,-1315.9828 1447.2608,-1301.8091 1475,-1276 1505.3081,-1247.8007 1499,-1227.3978 1499,-1186 1499,-1186 1499,-1186 1499,-394 1499,-289.4544 1493.5049,-262.8948 1475,-160 1473.4813,-151.5552 1471.337,-142.4881 1469.1821,-134.2409"/>
<polygon fill="#000000" stroke="#000000" points="1472.4921,-133.0741 1466.4931,-124.3413 1465.7368,-134.9091 1472.4921,-133.0741"/>
</g>
<!-- tmp/&lt;SAMPLE_ID&gt;/nonrRNA.fq&#45;&gt;h22 -->
<g id="edge12" class="edge">
<title>tmp/&lt;SAMPLE_ID&gt;/nonrRNA.fq&#45;&gt;h22</title>
<path fill="none" stroke="#000000" d="M1032.4959,-1311.8314C1045.6774,-1302.7927 1061.7847,-1291.7476 1075.9711,-1282.0198"/>
<polygon fill="#000000" stroke="#000000" points="1078.2446,-1284.7047 1084.5125,-1276.1628 1074.2859,-1278.9316 1078.2446,-1284.7047"/>
</g>
<!-- tmp/&lt;SAMPLE_ID&gt;/nonrRNA.fq&#45;&gt;count_reads -->
<g id="edge46" class="edge">
<title>tmp/&lt;SAMPLE_ID&gt;/nonrRNA.fq&#45;&gt;count_reads</title>
<path fill="none" stroke="#000000" d="M1085.5151,-1313.1024C1215.9417,-1284.269 1461,-1224.9158 1461,-1186 1461,-1186 1461,-1186 1461,-394 1461,-298.7734 1461,-185.8357 1461,-134.2449"/>
<polygon fill="#000000" stroke="#000000" points="1464.5001,-134.1955 1461,-124.1956 1457.5001,-134.1956 1464.5001,-134.1955"/>
</g>
<!-- tmp/&lt;SAMPLE_ID&gt;/unaligned.fq&#45;&gt;count_reads -->
<g id="edge47" class="edge">
<title>tmp/&lt;SAMPLE_ID&gt;/unaligned.fq&#45;&gt;count_reads</title>
<path fill="none" stroke="#000000" d="M1281.0482,-1172.5368C1328.3076,-1163.0342 1382.1046,-1148.9911 1399,-1132 1428.1899,-1102.6448 1423,-1083.3978 1423,-1042 1423,-1042 1423,-1042 1423,-394 1423,-289.4544 1428.4951,-262.8948 1447,-160 1448.5187,-151.5552 1450.663,-142.4881 1452.8179,-134.2409"/>
<polygon fill="#000000" stroke="#000000" points="1456.2632,-134.9091 1455.5069,-124.3413 1449.5079,-133.0741 1456.2632,-134.9091"/>
</g>
<!-- tmp/&lt;SAMPLE_ID&gt;/orf_map.sam&#45;&gt;trim -->
<g id="edge15" class="edge">
<title>tmp/&lt;SAMPLE_ID&gt;/orf_map.sam&#45;&gt;trim</title>
<path fill="none" stroke="#000000" d="M1021,-1167.8314C1021,-1160.131 1021,-1150.9743 1021,-1142.4166"/>
<polygon fill="#000000" stroke="#000000" points="1024.5001,-1142.4132 1021,-1132.4133 1017.5001,-1142.4133 1024.5001,-1142.4132"/>
</g>
<!-- tmp/&lt;SAMPLE_ID&gt;/orf_map.sam&#45;&gt;count_reads -->
<g id="edge48" class="edge">
<title>tmp/&lt;SAMPLE_ID&gt;/orf_map.sam&#45;&gt;count_reads</title>
<path fill="none" stroke="#000000" d="M1083.5738,-1167.9251C1187.6468,-1136.9625 1385,-1074.0261 1385,-1042 1385,-1042 1385,-1042 1385,-394 1385,-288.9079 1377.8173,-256.6868 1419,-160 1423.1888,-150.1658 1429.6234,-140.5721 1436.207,-132.2652"/>
<polygon fill="#000000" stroke="#000000" points="1439.0323,-134.3425 1442.7626,-124.426 1433.6625,-129.8519 1439.0323,-134.3425"/>
</g>
<!-- tmp/&lt;SAMPLE_ID&gt;/trim_5p_mismatch.tsv&#45;&gt;count_reads -->
<g id="edge49" class="edge">
<title>tmp/&lt;SAMPLE_ID&gt;/trim_5p_mismatch.tsv&#45;&gt;count_reads</title>
<path fill="none" stroke="#000000" d="M1266.6401,-1023.9884C1287.5028,-1016.007 1308.0279,-1004.5191 1323,-988 1350.8012,-957.3263 1347,-939.3978 1347,-898 1347,-898 1347,-898 1347,-394 1347,-289.4544 1303.0826,-239.4796 1371,-160 1381.1549,-148.1163 1391.0482,-158.0492 1405,-151 1415.4832,-145.7033 1425.8317,-138.2141 1434.7259,-130.8621"/>
<polygon fill="#000000" stroke="#000000" points="1437.1517,-133.3922 1442.4474,-124.2158 1432.5851,-128.0869 1437.1517,-133.3922"/>
</g>
<!-- tmp/&lt;SAMPLE_ID&gt;/orf_map_clean.sam&#45;&gt;samview -->
<g id="edge18" class="edge">
<title>tmp/&lt;SAMPLE_ID&gt;/orf_map_clean.sam&#45;&gt;samview</title>
<path fill="none" stroke="#000000" d="M962,-1023.8314C962,-1016.131 962,-1006.9743 962,-998.4166"/>
<polygon fill="#000000" stroke="#000000" points="965.5001,-998.4132 962,-988.4133 958.5001,-998.4133 965.5001,-998.4132"/>
</g>
<!-- tmp/&lt;SAMPLE_ID&gt;/orf_map_clean.sam&#45;&gt;count_reads -->
<g id="edge50" class="edge">
<title>tmp/&lt;SAMPLE_ID&gt;/orf_map_clean.sam&#45;&gt;count_reads</title>
<path fill="none" stroke="#000000" d="M1048.6676,-1023.9891C1151.4466,-1000.0807 1309,-954.2561 1309,-898 1309,-898 1309,-898 1309,-394 1309,-289.6208 1256.4059,-235.0008 1329,-160 1340.828,-147.7798 1389.3184,-157.5819 1405,-151 1416.2074,-146.296 1426.9972,-138.6522 1436.0633,-130.9886"/>
<polygon fill="#000000" stroke="#000000" points="1438.4107,-133.5849 1443.5539,-124.3222 1433.7569,-128.3558 1438.4107,-133.5849"/>
</g>
<!-- tmp/&lt;SAMPLE_ID&gt;/orf_map_clean.bam&#45;&gt;samindex -->
<g id="edge20" class="edge">
<title>tmp/&lt;SAMPLE_ID&gt;/orf_map_clean.bam&#45;&gt;samindex</title>
<path fill="none" stroke="#000000" d="M962,-879.8314C962,-872.131 962,-862.9743 962,-854.4166"/>
<polygon fill="#000000" stroke="#000000" points="965.5001,-854.4132 962,-844.4133 958.5001,-854.4133 965.5001,-854.4132"/>
</g>
<!-- tmp/&lt;SAMPLE_ID&gt;/orf_map_clean.bam+.bai&#45;&gt;copy -->
<g id="edge22" class="edge">
<title>tmp/&lt;SAMPLE_ID&gt;/orf_map_clean.bam+.bai&#45;&gt;copy</title>
<path fill="none" stroke="#000000" d="M962,-735.8314C962,-728.131 962,-718.9743 962,-710.4166"/>
<polygon fill="#000000" stroke="#000000" points="965.5001,-710.4132 962,-700.4133 958.5001,-710.4133 965.5001,-710.4132"/>
</g>
<!-- output/&lt;SAMPLE_ID&gt;/&lt;SAMPLE_ID&gt;.bam+.bai&#45;&gt;bedplus -->
<g id="edge24" class="edge">
<title>output/&lt;SAMPLE_ID&gt;/&lt;SAMPLE_ID&gt;.bam+.bai&#45;&gt;bedplus</title>
<path fill="none" stroke="#000000" d="M919.1018,-591.8314C896.2643,-582.159 868.002,-570.1891 843.9313,-559.9944"/>
<polygon fill="#000000" stroke="#000000" points="845.1629,-556.7151 834.5897,-556.038 842.4329,-563.1608 845.1629,-556.7151"/>
</g>
<!-- output/&lt;SAMPLE_ID&gt;/&lt;SAMPLE_ID&gt;.bam+.bai&#45;&gt;bedminus -->
<g id="edge26" class="edge">
<title>output/&lt;SAMPLE_ID&gt;/&lt;SAMPLE_ID&gt;.bam+.bai&#45;&gt;bedminus</title>
<path fill="none" stroke="#000000" d="M962,-591.8314C962,-584.131 962,-574.9743 962,-566.4166"/>
<polygon fill="#000000" stroke="#000000" points="965.5001,-566.4132 962,-556.4133 958.5001,-566.4133 965.5001,-566.4132"/>
</g>
<!-- output/&lt;SAMPLE_ID&gt;/&lt;SAMPLE_ID&gt;.bam+.bai&#45;&gt;bam2h5 -->
<g id="edge28" class="edge">
<title>output/&lt;SAMPLE_ID&gt;/&lt;SAMPLE_ID&gt;.bam+.bai&#45;&gt;bam2h5</title>
<path fill="none" stroke="#000000" d="M1015.2229,-591.9243C1049.4585,-580.2971 1093.5554,-565.3208 1126.5866,-554.1027"/>
<polygon fill="#000000" stroke="#000000" points="1128.1159,-557.2797 1136.4592,-550.7497 1125.8648,-550.6515 1128.1159,-557.2797"/>
</g>
<!-- output/&lt;SAMPLE_ID&gt;/&lt;SAMPLE_ID&gt;.h5&#45;&gt;statsfigs -->
<g id="edge31" class="edge">
<title>output/&lt;SAMPLE_ID&gt;/&lt;SAMPLE_ID&gt;.h5&#45;&gt;statsfigs</title>
<path fill="none" stroke="#000000" d="M1172.2336,-447.8314C1171.485,-440.131 1170.5947,-430.9743 1169.7627,-422.4166"/>
<polygon fill="#000000" stroke="#000000" points="1173.2415,-422.0276 1168.7902,-412.4133 1166.2744,-422.7051 1173.2415,-422.0276"/>
</g>
<!-- tsvs_for_static_html&#45;&gt;staticHTML -->
<g id="edge39" class="edge">
<title>tsvs_for_static_html&#45;&gt;staticHTML</title>
<path fill="none" stroke="#000000" d="M852,-171.2588C852,-157.9625 852,-144.9756 852,-134.1333"/>
<polygon fill="#000000" stroke="#000000" points="855.5001,-134.0737 852,-124.0737 848.5001,-134.0737 855.5001,-134.0737"/>
</g>
<!-- collate -->
<g id="node42" class="node">
<title>collate</title>
<polygon fill="none" stroke="#000000" points="1395.5,-124 1312.5,-124 1312.5,-88 1395.5,-88 1395.5,-124"/>
<text text-anchor="middle" x="1354" y="-103.5" font-family="Helvetica,sans-Serif" font-size="10.00" fill="#000000">collate_tpms.R</text>
</g>
<!-- output/&lt;SAMPLE_ID&gt;/ORF_TPMs_and_counts.tsv&#45;&gt;collate -->
<g id="edge41" class="edge">
<title>output/&lt;SAMPLE_ID&gt;/ORF_TPMs_and_counts.tsv&#45;&gt;collate</title>
<path fill="none" stroke="#000000" d="M1184.5702,-231.7623C1219.2632,-206.0108 1282.6753,-158.942 1321.3114,-130.2637"/>
<polygon fill="#000000" stroke="#000000" points="1323.6856,-132.8602 1329.6293,-124.0896 1319.5135,-127.2394 1323.6856,-132.8602"/>
</g>
<!-- output/TPMs_all_CDS_all_samples.tsv -->
<g id="node44" class="node">
<title>output/TPMs_all_CDS_all_samples.tsv</title>
<text text-anchor="middle" x="1399" y="-31.5" font-family="Helvetica,sans-Serif" font-size="10.00" fill="#000000">output/TPMs_all_CDS_all_samples.tsv</text>
</g>
<!-- collate&#45;&gt;output/TPMs_all_CDS_all_samples.tsv -->
<g id="edge42" class="edge">
<title>collate&#45;&gt;output/TPMs_all_CDS_all_samples.tsv</title>
<path fill="none" stroke="#000000" d="M1365.3554,-87.8314C1370.4326,-79.7079 1376.5227,-69.9637 1382.1176,-61.0118"/>
<polygon fill="#000000" stroke="#000000" points="1385.1597,-62.7483 1387.4917,-52.4133 1379.2237,-59.0383 1385.1597,-62.7483"/>
</g>
<!-- output/read_counts_per_file.tsv -->
<g id="node45" class="node">
<title>output/read_counts_per_file.tsv</title>
<text text-anchor="middle" x="1588" y="-31.5" font-family="Helvetica,sans-Serif" font-size="10.00" fill="#000000">output/read_counts_per_file.tsv</text>
</g>
<!-- count_reads&#45;&gt;output/read_counts_per_file.tsv -->
<g id="edge51" class="edge">
<title>count_reads&#45;&gt;output/read_counts_per_file.tsv</title>
<path fill="none" stroke="#000000" d="M1493.0475,-87.8314C1509.442,-78.5368 1529.5786,-67.1208 1547.0829,-57.1971"/>
<polygon fill="#000000" stroke="#000000" points="1548.9897,-60.1395 1555.9628,-52.1628 1545.5374,-54.05 1548.9897,-60.1395"/>
</g>
</g>
</svg>
