<?xml version="1.0" encoding="UTF-8" standalone="no"?>
<!DOCTYPE svg PUBLIC "-//W3C//DTD SVG 1.1//EN"
 "http://www.w3.org/Graphics/SVG/1.1/DTD/svg11.dtd">
<!-- Generated by graphviz version 2.40.1 (20161225.0304)
 -->
<!-- Title: G Pages: 1 -->
<svg width="1840pt" height="1819pt"
 viewBox="0.00 0.00 1840.00 1819.00" xmlns="http://www.w3.org/2000/svg" xmlns:xlink="http://www.w3.org/1999/xlink">
<g id="graph0" class="graph" transform="scale(1 1) rotate(0) translate(4 1815)">
<title>G</title>
<polygon fill="#ffffff" stroke="transparent" points="-4,4 -4,-1815 1836,-1815 1836,4 -4,4"/>
<g id="clust1" class="cluster">
<title>cluster_data</title>
<polygon fill="none" stroke="#000000" stroke-dasharray="5,2" points="1010,-1645 1010,-1803 1824,-1803 1824,-1645 1010,-1645"/>
<text text-anchor="middle" x="1029" y="-1791" font-family="Helvetica,sans-Serif" font-size="10.00" fill="#000000">Data</text>
</g>
<g id="clust2" class="cluster">
<title>cluster_organism</title>
<polygon fill="none" stroke="#000000" stroke-dasharray="5,2" points="1114,-1679 1114,-1750 1304,-1750 1304,-1679 1114,-1679"/>
<text text-anchor="middle" x="1154" y="-1738" font-family="Helvetica,sans-Serif" font-size="10.00" fill="#000000">Organism data</text>
</g>
<g id="clust3" class="cluster">
<title>cluster_contaminants</title>
<polygon fill="none" stroke="#000000" stroke-dasharray="5,2" points="1018,-1679 1018,-1750 1106,-1750 1106,-1679 1018,-1679"/>
<text text-anchor="middle" x="1056.5" y="-1738" font-family="Helvetica,sans-Serif" font-size="10.00" fill="#000000">Contaminants</text>
</g>
<g id="clust4" class="cluster">
<title>cluster_additional_organism</title>
<polygon fill="none" stroke="#000000" stroke-dasharray="5,2" points="1628,-1653 1628,-1776 1816,-1776 1816,-1653 1628,-1653"/>
<text text-anchor="middle" x="1708.5" y="-1764" font-family="Helvetica,sans-Serif" font-size="10.00" fill="#000000">Additional organism&#45;specific data</text>
</g>
<g id="clust5" class="cluster">
<title>cluster_ribosome</title>
<polygon fill="none" stroke="#000000" stroke-dasharray="5,2" points="1312,-1679 1312,-1750 1620,-1750 1620,-1679 1312,-1679"/>
<text text-anchor="middle" x="1371.5" y="-1738" font-family="Helvetica,sans-Serif" font-size="10.00" fill="#000000">Ribosome profiling data</text>
</g>
<g id="clust6" class="cluster">
<title>cluster_indexing</title>
<polygon fill="none" stroke="#000000" points="964,-1494 964,-1637 1217,-1637 1217,-1494 964,-1494"/>
<text text-anchor="middle" x="990.5" y="-1625" font-family="Helvetica,sans-Serif" font-size="10.00" fill="#000000">Indexing</text>
</g>
<g id="clust7" class="cluster">
<title>cluster_per_sample_processing</title>
<polygon fill="none" stroke="#000000" points="8,-8 8,-1637 956,-1637 956,-8 8,-8"/>
<text text-anchor="middle" x="70" y="-1625" font-family="Helvetica,sans-Serif" font-size="10.00" fill="#000000">Process &lt;SAMPLE_ID&gt;</text>
</g>
<g id="clust8" class="cluster">
<title>cluster_summary</title>
<polygon fill="none" stroke="#000000" points="1011,-8 1011,-151 1387,-151 1387,-8 1011,-8"/>
<text text-anchor="middle" x="1040.5" y="-139" font-family="Helvetica,sans-Serif" font-size="10.00" fill="#000000">Summary</text>
</g>
<!-- input/CDS.fa -->
<g id="node1" class="node">
<title>input/CDS.fa</title>
<text text-anchor="middle" x="1159" y="-1702.5" font-family="Helvetica,sans-Serif" font-size="10.00" fill="#000000">input/CDS.fa</text>
</g>
<!-- h2build2 -->
<g id="node9" class="node">
<title>h2build2</title>
<polygon fill="none" stroke="#000000" points="1191,-1610 1125,-1610 1125,-1574 1191,-1574 1191,-1610"/>
<text text-anchor="middle" x="1158" y="-1589.5" font-family="Helvetica,sans-Serif" font-size="10.00" fill="#000000">hisat2&#45;build</text>
</g>
<!-- input/CDS.fa&#45;&gt;h2build2 -->
<g id="edge3" class="edge">
<title>input/CDS.fa&#45;&gt;h2build2</title>
<path fill="none" stroke="#000000" d="M1158.8393,-1686.8446C1158.6804,-1668.8877 1158.4349,-1641.1466 1158.2504,-1620.2969"/>
<polygon fill="#000000" stroke="#000000" points="1161.7487,-1620.079 1158.1603,-1610.1103 1154.749,-1620.141 1161.7487,-1620.079"/>
</g>
<!-- statsfigs -->
<g id="node22" class="node">
<title>statsfigs</title>
<polygon fill="none" stroke="#000000" points="903.5,-458 790.5,-458 790.5,-422 903.5,-422 903.5,-458"/>
<text text-anchor="middle" x="847" y="-437.5" font-family="Helvetica,sans-Serif" font-size="10.00" fill="#000000">generate_stats_figs.R</text>
</g>
<!-- input/CDS.fa&#45;&gt;statsfigs -->
<g id="edge32" class="edge">
<title>input/CDS.fa&#45;&gt;statsfigs</title>
<path fill="none" stroke="#000000" d="M1169.6911,-1686.9619C1178.0461,-1674.0295 1190.6272,-1656.8667 1205,-1645 1211.1308,-1639.9381 1216.8202,-1643.7631 1221,-1637 1254.4131,-1582.9364 1229.3522,-1557.0044 1221,-1494 1192.0825,-1275.8635 1092,-1236.0449 1092,-1016 1092,-1016 1092,-1016 1092,-584 1092,-500.9487 986.0692,-464.8566 913.517,-449.8767"/>
<polygon fill="#000000" stroke="#000000" points="914.0044,-446.4054 903.5156,-447.9004 912.6474,-453.2727 914.0044,-446.4054"/>
</g>
<!-- input/CDS.gff3 -->
<g id="node2" class="node">
<title>input/CDS.gff3</title>
<text text-anchor="middle" x="1255" y="-1702.5" font-family="Helvetica,sans-Serif" font-size="10.00" fill="#000000">input/CDS.gff3</text>
</g>
<!-- bam2h5 -->
<g id="node20" class="node">
<title>bam2h5</title>
<polygon fill="none" stroke="#000000" points="884.5,-602 809.5,-602 809.5,-566 884.5,-566 884.5,-602"/>
<text text-anchor="middle" x="847" y="-581.5" font-family="Helvetica,sans-Serif" font-size="10.00" fill="#000000">bam_to_h5.R</text>
</g>
<!-- input/CDS.gff3&#45;&gt;bam2h5 -->
<g id="edge29" class="edge">
<title>input/CDS.gff3&#45;&gt;bam2h5</title>
<path fill="none" stroke="#000000" d="M1255.6679,-1686.8749C1256.7929,-1650.296 1258.2855,-1565.0727 1251,-1494 1248.0489,-1465.2107 1245.1172,-1458.2862 1239,-1430 1218.106,-1333.3858 1211.2325,-1309.5729 1186,-1214 1162.6554,-1125.5778 1130,-1107.4519 1130,-1016 1130,-1016 1130,-1016 1130,-728 1130,-623.8031 975.7259,-594.9707 894.9896,-587.016"/>
<polygon fill="#000000" stroke="#000000" points="894.857,-583.4895 884.5802,-586.0659 894.2206,-590.4605 894.857,-583.4895"/>
</g>
<!-- input/CDS.gff3&#45;&gt;statsfigs -->
<g id="edge33" class="edge">
<title>input/CDS.gff3&#45;&gt;statsfigs</title>
<path fill="none" stroke="#000000" d="M1260.0929,-1686.9948C1263.6661,-1673.3899 1268.127,-1654.186 1270,-1637 1276.8885,-1573.7938 1272.5042,-1557.2469 1266,-1494 1240.5999,-1247.0081 1168,-1192.2945 1168,-944 1168,-944 1168,-944 1168,-584 1168,-524.5357 1121.5172,-521.8916 1069,-494 1020.4732,-468.2277 959.4619,-454.5355 913.6854,-447.3962"/>
<polygon fill="#000000" stroke="#000000" points="913.9798,-443.9015 903.5726,-445.8864 912.9462,-450.8247 913.9798,-443.9015"/>
</g>
<!-- input/rRNA.fa -->
<g id="node3" class="node">
<title>input/rRNA.fa</title>
<text text-anchor="middle" x="1062" y="-1702.8" font-family="Helvetica,sans-Serif" font-size="9.00" fill="#000000">input/rRNA.fa</text>
</g>
<!-- h2build1 -->
<g id="node8" class="node">
<title>h2build1</title>
<polygon fill="none" stroke="#000000" points="1078,-1610 1012,-1610 1012,-1574 1078,-1574 1078,-1610"/>
<text text-anchor="middle" x="1045" y="-1589.5" font-family="Helvetica,sans-Serif" font-size="10.00" fill="#000000">hisat2&#45;build</text>
</g>
<!-- input/rRNA.fa&#45;&gt;h2build1 -->
<g id="edge1" class="edge">
<title>input/rRNA.fa&#45;&gt;h2build1</title>
<path fill="none" stroke="#000000" d="M1059.2687,-1686.8446C1056.5548,-1668.8053 1052.3554,-1640.8919 1049.214,-1620.0104"/>
<polygon fill="#000000" stroke="#000000" points="1052.6734,-1619.4784 1047.7246,-1610.1103 1045.7513,-1620.5198 1052.6734,-1619.4784"/>
</g>
<!-- data -->
<g id="node4" class="node">
<title>data</title>
<polygon fill="none" stroke="#000000" stroke-dasharray="5,2" points="1807.5,-1749 1636.5,-1749 1636.5,-1661 1807.5,-1661 1807.5,-1749"/>
<text text-anchor="middle" x="1722" y="-1737" font-family="Helvetica,sans-Serif" font-size="10.00" fill="#000000">data/codon_pos_i200.RData</text>
<text text-anchor="middle" x="1722" y="-1725" font-family="Helvetica,sans-Serif" font-size="10.00" fill="#000000">&#13;</text>
<text text-anchor="middle" x="1722" y="-1714" font-family="Helvetica,sans-Serif" font-size="10.00" fill="#000000">data/features.tsv</text>
<text text-anchor="middle" x="1722" y="-1702" font-family="Helvetica,sans-Serif" font-size="10.00" fill="#000000">&#13;</text>
<text text-anchor="middle" x="1722" y="-1691" font-family="Helvetica,sans-Serif" font-size="10.00" fill="#000000">data/tRNAs.tsv</text>
<text text-anchor="middle" x="1722" y="-1679" font-family="Helvetica,sans-Serif" font-size="10.00" fill="#000000">&#13;</text>
<text text-anchor="middle" x="1722" y="-1668" font-family="Helvetica,sans-Serif" font-size="10.00" fill="#000000">data/standard_asite_disp_length.txt</text>
</g>
<!-- data&#45;&gt;statsfigs -->
<g id="edge34" class="edge">
<title>data&#45;&gt;statsfigs</title>
<path fill="none" stroke="#000000" d="M1680.6994,-1660.8827C1652.0441,-1625.5744 1619,-1573.3027 1619,-1520 1619,-1520 1619,-1520 1619,-584 1619,-512.5435 1101.2771,-461.5509 913.7758,-445.4262"/>
<polygon fill="#000000" stroke="#000000" points="914.0285,-441.9351 903.767,-444.5717 913.433,-448.9098 914.0285,-441.9351"/>
</g>
<!-- ribosome_data0toI -->
<g id="node5" class="node">
<title>ribosome_data0toI</title>
<text text-anchor="middle" x="1585" y="-1702.5" font-family="Helvetica,sans-Serif" font-size="10.00" fill="#000000">...</text>
</g>
<!-- input/&lt;SAMPLE_ID&gt;.fastq.gz -->
<g id="node6" class="node">
<title>input/&lt;SAMPLE_ID&gt;.fastq.gz</title>
<text text-anchor="middle" x="1466" y="-1702.5" font-family="Helvetica,sans-Serif" font-size="10.00" fill="#000000">input/&lt;SAMPLE_ID&gt;.fastq.gz</text>
</g>
<!-- cut -->
<g id="node12" class="node">
<title>cut</title>
<polygon fill="none" stroke="#000000" points="927,-1610 873,-1610 873,-1574 927,-1574 927,-1610"/>
<text text-anchor="middle" x="900" y="-1589.5" font-family="Helvetica,sans-Serif" font-size="10.00" fill="#000000">cutadapt</text>
</g>
<!-- input/&lt;SAMPLE_ID&gt;.fastq.gz&#45;&gt;cut -->
<g id="edge5" class="edge">
<title>input/&lt;SAMPLE_ID&gt;.fastq.gz&#45;&gt;cut</title>
<path fill="none" stroke="#000000" d="M1447.7906,-1686.7161C1432.1224,-1672.343 1408.1279,-1653.3946 1383,-1645 1338.4138,-1630.1049 1004.4535,-1652.2864 960,-1637 947.5906,-1632.7328 935.6529,-1624.8512 925.7388,-1616.8624"/>
<polygon fill="#000000" stroke="#000000" points="927.8032,-1614.0232 917.9209,-1610.2035 923.2643,-1619.3523 927.8032,-1614.0232"/>
</g>
<!-- count_reads -->
<g id="node42" class="node">
<title>count_reads</title>
<polygon fill="none" stroke="#000000" points="1361.5,-124 1278.5,-124 1278.5,-88 1361.5,-88 1361.5,-124"/>
<text text-anchor="middle" x="1320" y="-103.5" font-family="Helvetica,sans-Serif" font-size="10.00" fill="#000000">count_reads.py</text>
</g>
<!-- input/&lt;SAMPLE_ID&gt;.fastq.gz&#45;&gt;count_reads -->
<g id="edge42" class="edge">
<title>input/&lt;SAMPLE_ID&gt;.fastq.gz&#45;&gt;count_reads</title>
<path fill="none" stroke="#000000" d="M1466.9774,-1686.8874C1468.6775,-1653.7688 1472,-1581.2171 1472,-1520 1472,-1520 1472,-1520 1472,-440 1472,-314.4737 1509.114,-261.3112 1435,-160 1419.7306,-139.1273 1394.3246,-126.0467 1371.2702,-117.999"/>
<polygon fill="#000000" stroke="#000000" points="1372.1623,-114.6088 1361.5702,-114.85 1370.0009,-121.2668 1372.1623,-114.6088"/>
</g>
<!-- ribosome_dataItoN -->
<g id="node7" class="node">
<title>ribosome_dataItoN</title>
<text text-anchor="middle" x="1347" y="-1702.5" font-family="Helvetica,sans-Serif" font-size="10.00" fill="#000000">...</text>
</g>
<!-- index/rRNA.1|...|8.ht2 -->
<g id="node10" class="node">
<title>index/rRNA.1|...|8.ht2</title>
<text text-anchor="middle" x="1027" y="-1517.5" font-family="Helvetica,sans-Serif" font-size="10.00" fill="#000000">index/rRNA.1|...|8.ht2</text>
</g>
<!-- h2build1&#45;&gt;index/rRNA.1|...|8.ht2 -->
<g id="edge2" class="edge">
<title>h2build1&#45;&gt;index/rRNA.1|...|8.ht2</title>
<path fill="none" stroke="#000000" d="M1040.4578,-1573.8314C1038.5116,-1566.0463 1036.1932,-1556.7729 1034.0337,-1548.1347"/>
<polygon fill="#000000" stroke="#000000" points="1037.4242,-1547.2658 1031.6033,-1538.4133 1030.6332,-1548.9636 1037.4242,-1547.2658"/>
</g>
<!-- index/CDS.1|...|8.ht2 -->
<g id="node11" class="node">
<title>index/CDS.1|...|8.ht2</title>
<text text-anchor="middle" x="1155" y="-1517.5" font-family="Helvetica,sans-Serif" font-size="10.00" fill="#000000">index/CDS.1|...|8.ht2</text>
</g>
<!-- h2build2&#45;&gt;index/CDS.1|...|8.ht2 -->
<g id="edge4" class="edge">
<title>h2build2&#45;&gt;index/CDS.1|...|8.ht2</title>
<path fill="none" stroke="#000000" d="M1157.243,-1573.8314C1156.9221,-1566.131 1156.5406,-1556.9743 1156.184,-1548.4166"/>
<polygon fill="#000000" stroke="#000000" points="1159.6806,-1548.2589 1155.7672,-1538.4133 1152.6867,-1548.5503 1159.6806,-1548.2589"/>
</g>
<!-- h21 -->
<g id="node13" class="node">
<title>h21</title>
<polygon fill="none" stroke="#000000" points="897,-1466 843,-1466 843,-1430 897,-1430 897,-1466"/>
<text text-anchor="middle" x="870" y="-1445.5" font-family="Helvetica,sans-Serif" font-size="10.00" fill="#000000">hisat2</text>
</g>
<!-- index/rRNA.1|...|8.ht2&#45;&gt;h21 -->
<g id="edge8" class="edge">
<title>index/rRNA.1|...|8.ht2&#45;&gt;h21</title>
<path fill="none" stroke="#000000" d="M987.3823,-1501.8314C962.522,-1490.4305 930.7012,-1475.8375 906.4637,-1464.7222"/>
<polygon fill="#000000" stroke="#000000" points="907.7952,-1461.4824 897.2464,-1460.4952 904.8772,-1467.8452 907.7952,-1461.4824"/>
</g>
<!-- h22 -->
<g id="node14" class="node">
<title>h22</title>
<polygon fill="none" stroke="#000000" points="805,-1322 751,-1322 751,-1286 805,-1286 805,-1322"/>
<text text-anchor="middle" x="778" y="-1301.5" font-family="Helvetica,sans-Serif" font-size="10.00" fill="#000000">hisat2</text>
</g>
<!-- index/CDS.1|...|8.ht2&#45;&gt;h22 -->
<g id="edge11" class="edge">
<title>index/CDS.1|...|8.ht2&#45;&gt;h22</title>
<path fill="none" stroke="#000000" d="M1137.923,-1501.9446C1105.6246,-1468.7975 1032.0714,-1397.9807 957,-1358 911.0402,-1333.5233 852.3926,-1318.5183 815.0053,-1310.7257"/>
<polygon fill="#000000" stroke="#000000" points="815.5469,-1307.2645 805.0521,-1308.7171 814.1622,-1314.1262 815.5469,-1307.2645"/>
</g>
<!-- tmp/&lt;SAMPLE_ID&gt;/trim.fq -->
<g id="node24" class="node">
<title>tmp/&lt;SAMPLE_ID&gt;/trim.fq</title>
<text text-anchor="middle" x="880" y="-1517.5" font-family="Helvetica,sans-Serif" font-size="10.00" fill="#000000">tmp/&lt;SAMPLE_ID&gt;/trim.fq</text>
</g>
<!-- cut&#45;&gt;tmp/&lt;SAMPLE_ID&gt;/trim.fq -->
<g id="edge6" class="edge">
<title>cut&#45;&gt;tmp/&lt;SAMPLE_ID&gt;/trim.fq</title>
<path fill="none" stroke="#000000" d="M894.9532,-1573.8314C892.7906,-1566.0463 890.2147,-1556.7729 887.8152,-1548.1347"/>
<polygon fill="#000000" stroke="#000000" points="891.1636,-1547.1117 885.1148,-1538.4133 884.419,-1548.9852 891.1636,-1547.1117"/>
</g>
<!-- tmp/&lt;SAMPLE_ID&gt;/rRNA_map.sam -->
<g id="node25" class="node">
<title>tmp/&lt;SAMPLE_ID&gt;/rRNA_map.sam</title>
<text text-anchor="middle" x="859" y="-1373.5" font-family="Helvetica,sans-Serif" font-size="10.00" fill="#000000">tmp/&lt;SAMPLE_ID&gt;/rRNA_map.sam</text>
</g>
<!-- h21&#45;&gt;tmp/&lt;SAMPLE_ID&gt;/rRNA_map.sam -->
<g id="edge9" class="edge">
<title>h21&#45;&gt;tmp/&lt;SAMPLE_ID&gt;/rRNA_map.sam</title>
<path fill="none" stroke="#000000" d="M867.2242,-1429.8314C866.0478,-1422.131 864.6489,-1412.9743 863.3414,-1404.4166"/>
<polygon fill="#000000" stroke="#000000" points="866.7833,-1403.7699 861.8131,-1394.4133 859.8636,-1404.8272 866.7833,-1403.7699"/>
</g>
<!-- tmp/&lt;SAMPLE_ID&gt;/nonrRNA.fq -->
<g id="node26" class="node">
<title>tmp/&lt;SAMPLE_ID&gt;/nonrRNA.fq</title>
<text text-anchor="middle" x="673" y="-1373.5" font-family="Helvetica,sans-Serif" font-size="10.00" fill="#000000">tmp/&lt;SAMPLE_ID&gt;/nonrRNA.fq</text>
</g>
<!-- h21&#45;&gt;tmp/&lt;SAMPLE_ID&gt;/nonrRNA.fq -->
<g id="edge10" class="edge">
<title>h21&#45;&gt;tmp/&lt;SAMPLE_ID&gt;/nonrRNA.fq</title>
<path fill="none" stroke="#000000" d="M842.608,-1437.9887C814.1722,-1427.5959 768.8067,-1411.0157 732.1459,-1397.6168"/>
<polygon fill="#000000" stroke="#000000" points="733.1383,-1394.2531 722.5445,-1394.1076 730.7354,-1400.8278 733.1383,-1394.2531"/>
</g>
<!-- tmp/&lt;SAMPLE_ID&gt;/unaligned.fq -->
<g id="node27" class="node">
<title>tmp/&lt;SAMPLE_ID&gt;/unaligned.fq</title>
<text text-anchor="middle" x="868" y="-1229.5" font-family="Helvetica,sans-Serif" font-size="10.00" fill="#000000">tmp/&lt;SAMPLE_ID&gt;/unaligned.fq</text>
</g>
<!-- h22&#45;&gt;tmp/&lt;SAMPLE_ID&gt;/unaligned.fq -->
<g id="edge13" class="edge">
<title>h22&#45;&gt;tmp/&lt;SAMPLE_ID&gt;/unaligned.fq</title>
<path fill="none" stroke="#000000" d="M800.7108,-1285.8314C811.796,-1276.9632 825.2954,-1266.1637 837.2852,-1256.5718"/>
<polygon fill="#000000" stroke="#000000" points="839.6742,-1259.1429 845.2965,-1250.1628 835.3013,-1253.6768 839.6742,-1259.1429"/>
</g>
<!-- tmp/&lt;SAMPLE_ID&gt;/orf_map.sam -->
<g id="node28" class="node">
<title>tmp/&lt;SAMPLE_ID&gt;/orf_map.sam</title>
<text text-anchor="middle" x="688" y="-1229.5" font-family="Helvetica,sans-Serif" font-size="10.00" fill="#000000">tmp/&lt;SAMPLE_ID&gt;/orf_map.sam</text>
</g>
<!-- h22&#45;&gt;tmp/&lt;SAMPLE_ID&gt;/orf_map.sam -->
<g id="edge14" class="edge">
<title>h22&#45;&gt;tmp/&lt;SAMPLE_ID&gt;/orf_map.sam</title>
<path fill="none" stroke="#000000" d="M755.2892,-1285.8314C744.204,-1276.9632 730.7046,-1266.1637 718.7148,-1256.5718"/>
<polygon fill="#000000" stroke="#000000" points="720.6987,-1253.6768 710.7035,-1250.1628 716.3258,-1259.1429 720.6987,-1253.6768"/>
</g>
<!-- samindex -->
<g id="node15" class="node">
<title>samindex</title>
<polygon fill="none" stroke="#000000" points="674.5,-890 591.5,-890 591.5,-854 674.5,-854 674.5,-890"/>
<text text-anchor="middle" x="633" y="-869.5" font-family="Helvetica,sans-Serif" font-size="10.00" fill="#000000">samtools index</text>
</g>
<!-- tmp/&lt;SAMPLE_ID&gt;/orf_map_clean.bam+.bai -->
<g id="node32" class="node">
<title>tmp/&lt;SAMPLE_ID&gt;/orf_map_clean.bam+.bai</title>
<text text-anchor="middle" x="633" y="-797.5" font-family="Helvetica,sans-Serif" font-size="10.00" fill="#000000">tmp/&lt;SAMPLE_ID&gt;/orf_map_clean.bam+.bai</text>
</g>
<!-- samindex&#45;&gt;tmp/&lt;SAMPLE_ID&gt;/orf_map_clean.bam+.bai -->
<g id="edge21" class="edge">
<title>samindex&#45;&gt;tmp/&lt;SAMPLE_ID&gt;/orf_map_clean.bam+.bai</title>
<path fill="none" stroke="#000000" d="M633,-853.8314C633,-846.131 633,-836.9743 633,-828.4166"/>
<polygon fill="#000000" stroke="#000000" points="636.5001,-828.4132 633,-818.4133 629.5001,-828.4133 636.5001,-828.4132"/>
</g>
<!-- samview -->
<g id="node16" class="node">
<title>samview</title>
<polygon fill="none" stroke="#000000" points="703.5,-1034 556.5,-1034 556.5,-998 703.5,-998 703.5,-1034"/>
<text text-anchor="middle" x="630" y="-1013.5" font-family="Helvetica,sans-Serif" font-size="10.00" fill="#000000">samtools view | samtools sort</text>
</g>
<!-- tmp/&lt;SAMPLE_ID&gt;/orf_map_clean.bam -->
<g id="node31" class="node">
<title>tmp/&lt;SAMPLE_ID&gt;/orf_map_clean.bam</title>
<text text-anchor="middle" x="633" y="-941.5" font-family="Helvetica,sans-Serif" font-size="10.00" fill="#000000">tmp/&lt;SAMPLE_ID&gt;/orf_map_clean.bam</text>
</g>
<!-- samview&#45;&gt;tmp/&lt;SAMPLE_ID&gt;/orf_map_clean.bam -->
<g id="edge19" class="edge">
<title>samview&#45;&gt;tmp/&lt;SAMPLE_ID&gt;/orf_map_clean.bam</title>
<path fill="none" stroke="#000000" d="M630.757,-997.8314C631.0779,-990.131 631.4594,-980.9743 631.816,-972.4166"/>
<polygon fill="#000000" stroke="#000000" points="635.3133,-972.5503 632.2328,-962.4133 628.3194,-972.2589 635.3133,-972.5503"/>
</g>
<!-- trim -->
<g id="node17" class="node">
<title>trim</title>
<polygon fill="none" stroke="#000000" points="743,-1178 633,-1178 633,-1142 743,-1142 743,-1178"/>
<text text-anchor="middle" x="688" y="-1157.5" font-family="Helvetica,sans-Serif" font-size="10.00" fill="#000000">trim_5p_mismatch.py</text>
</g>
<!-- tmp/&lt;SAMPLE_ID&gt;/trim_5p_mismatch.tsv -->
<g id="node29" class="node">
<title>tmp/&lt;SAMPLE_ID&gt;/trim_5p_mismatch.tsv</title>
<text text-anchor="middle" x="846" y="-1085.5" font-family="Helvetica,sans-Serif" font-size="10.00" fill="#000000">tmp/&lt;SAMPLE_ID&gt;/trim_5p_mismatch.tsv</text>
</g>
<!-- trim&#45;&gt;tmp/&lt;SAMPLE_ID&gt;/trim_5p_mismatch.tsv -->
<g id="edge17" class="edge">
<title>trim&#45;&gt;tmp/&lt;SAMPLE_ID&gt;/trim_5p_mismatch.tsv</title>
<path fill="none" stroke="#000000" d="M727.8701,-1141.8314C748.9077,-1132.2446 774.8983,-1120.4008 797.1396,-1110.2655"/>
<polygon fill="#000000" stroke="#000000" points="798.7683,-1113.3697 806.4166,-1106.038 795.8655,-1106.9999 798.7683,-1113.3697"/>
</g>
<!-- tmp/&lt;SAMPLE_ID&gt;/orf_map_clean.sam -->
<g id="node30" class="node">
<title>tmp/&lt;SAMPLE_ID&gt;/orf_map_clean.sam</title>
<text text-anchor="middle" x="629" y="-1085.5" font-family="Helvetica,sans-Serif" font-size="10.00" fill="#000000">tmp/&lt;SAMPLE_ID&gt;/orf_map_clean.sam</text>
</g>
<!-- trim&#45;&gt;tmp/&lt;SAMPLE_ID&gt;/orf_map_clean.sam -->
<g id="edge16" class="edge">
<title>trim&#45;&gt;tmp/&lt;SAMPLE_ID&gt;/orf_map_clean.sam</title>
<path fill="none" stroke="#000000" d="M673.1118,-1141.8314C666.247,-1133.454 657.9699,-1123.3531 650.4489,-1114.1749"/>
<polygon fill="#000000" stroke="#000000" points="653.1341,-1111.9297 644.0886,-1106.4133 647.7197,-1116.3665 653.1341,-1111.9297"/>
</g>
<!-- bedplus -->
<g id="node18" class="node">
<title>bedplus</title>
<polygon fill="none" stroke="#000000" points="526,-602 404,-602 404,-566 526,-566 526,-602"/>
<text text-anchor="middle" x="465" y="-581.5" font-family="Helvetica,sans-Serif" font-size="10.00" fill="#000000">bedtools genomecov (+)</text>
</g>
<!-- output/&lt;SAMPLE_ID&gt;/plus.bedgraph -->
<g id="node34" class="node">
<title>output/&lt;SAMPLE_ID&gt;/plus.bedgraph</title>
<text text-anchor="middle" x="434" y="-509.5" font-family="Helvetica,sans-Serif" font-size="10.00" fill="#000000">output/&lt;SAMPLE_ID&gt;/plus.bedgraph</text>
</g>
<!-- bedplus&#45;&gt;output/&lt;SAMPLE_ID&gt;/plus.bedgraph -->
<g id="edge25" class="edge">
<title>bedplus&#45;&gt;output/&lt;SAMPLE_ID&gt;/plus.bedgraph</title>
<path fill="none" stroke="#000000" d="M457.1774,-565.8314C453.7891,-557.9617 449.7459,-548.5712 445.9924,-539.8533"/>
<polygon fill="#000000" stroke="#000000" points="449.0973,-538.214 441.9279,-530.4133 442.6679,-540.9822 449.0973,-538.214"/>
</g>
<!-- bedminus -->
<g id="node19" class="node">
<title>bedminus</title>
<polygon fill="none" stroke="#000000" points="694.5,-602 575.5,-602 575.5,-566 694.5,-566 694.5,-602"/>
<text text-anchor="middle" x="635" y="-581.5" font-family="Helvetica,sans-Serif" font-size="10.00" fill="#000000">bedtools genomecov (&#45;)</text>
</g>
<!-- output/&lt;SAMPLE_ID&gt;/minus.bedgraph -->
<g id="node35" class="node">
<title>output/&lt;SAMPLE_ID&gt;/minus.bedgraph</title>
<text text-anchor="middle" x="635" y="-509.5" font-family="Helvetica,sans-Serif" font-size="10.00" fill="#000000">output/&lt;SAMPLE_ID&gt;/minus.bedgraph</text>
</g>
<!-- bedminus&#45;&gt;output/&lt;SAMPLE_ID&gt;/minus.bedgraph -->
<g id="edge27" class="edge">
<title>bedminus&#45;&gt;output/&lt;SAMPLE_ID&gt;/minus.bedgraph</title>
<path fill="none" stroke="#000000" d="M635,-565.8314C635,-558.131 635,-548.9743 635,-540.4166"/>
<polygon fill="#000000" stroke="#000000" points="638.5001,-540.4132 635,-530.4133 631.5001,-540.4133 638.5001,-540.4132"/>
</g>
<!-- output/&lt;SAMPLE_ID&gt;/&lt;SAMPLE_ID&gt;.h5 -->
<g id="node36" class="node">
<title>output/&lt;SAMPLE_ID&gt;/&lt;SAMPLE_ID&gt;.h5</title>
<text text-anchor="middle" x="847" y="-509.5" font-family="Helvetica,sans-Serif" font-size="10.00" fill="#000000">output/&lt;SAMPLE_ID&gt;/&lt;SAMPLE_ID&gt;.h5</text>
</g>
<!-- bam2h5&#45;&gt;output/&lt;SAMPLE_ID&gt;/&lt;SAMPLE_ID&gt;.h5 -->
<g id="edge30" class="edge">
<title>bam2h5&#45;&gt;output/&lt;SAMPLE_ID&gt;/&lt;SAMPLE_ID&gt;.h5</title>
<path fill="none" stroke="#000000" d="M847,-565.8314C847,-558.131 847,-548.9743 847,-540.4166"/>
<polygon fill="#000000" stroke="#000000" points="850.5001,-540.4132 847,-530.4133 843.5001,-540.4133 850.5001,-540.4132"/>
</g>
<!-- copy -->
<g id="node21" class="node">
<title>copy</title>
<polygon fill="none" stroke="#000000" points="662,-746 608,-746 608,-710 662,-710 662,-746"/>
<text text-anchor="middle" x="635" y="-725.5" font-family="Helvetica,sans-Serif" font-size="10.00" fill="#000000">copy</text>
</g>
<!-- output/&lt;SAMPLE_ID&gt;/&lt;SAMPLE_ID&gt;.bam+.bai -->
<g id="node33" class="node">
<title>output/&lt;SAMPLE_ID&gt;/&lt;SAMPLE_ID&gt;.bam+.bai</title>
<text text-anchor="middle" x="635" y="-653.5" font-family="Helvetica,sans-Serif" font-size="10.00" fill="#000000">output/&lt;SAMPLE_ID&gt;/&lt;SAMPLE_ID&gt;.bam+.bai</text>
</g>
<!-- copy&#45;&gt;output/&lt;SAMPLE_ID&gt;/&lt;SAMPLE_ID&gt;.bam+.bai -->
<g id="edge23" class="edge">
<title>copy&#45;&gt;output/&lt;SAMPLE_ID&gt;/&lt;SAMPLE_ID&gt;.bam+.bai</title>
<path fill="none" stroke="#000000" d="M635,-709.8314C635,-702.131 635,-692.9743 635,-684.4166"/>
<polygon fill="#000000" stroke="#000000" points="638.5001,-684.4132 635,-674.4133 631.5001,-684.4133 638.5001,-684.4132"/>
</g>
<!-- pdfs -->
<g id="node37" class="node">
<title>pdfs</title>
<polygon fill="none" stroke="#000000" stroke-dasharray="5,2" points="947.5,-363 632.5,-363 632.5,-183 947.5,-183 947.5,-363"/>
<text text-anchor="middle" x="790" y="-351" font-family="Helvetica,sans-Serif" font-size="10.00" fill="#000000">output/&lt;SAMPLE_ID&gt;/metagene_start_stop_read_counts.pdf</text>
<text text-anchor="middle" x="790" y="-339" font-family="Helvetica,sans-Serif" font-size="10.00" fill="#000000">&#13;</text>
<text text-anchor="middle" x="790" y="-328" font-family="Helvetica,sans-Serif" font-size="10.00" fill="#000000">output/&lt;SAMPLE_ID&gt;/metagene_normalized_profile_start_stop.pdf</text>
<text text-anchor="middle" x="790" y="-316" font-family="Helvetica,sans-Serif" font-size="10.00" fill="#000000">&#13;</text>
<text text-anchor="middle" x="790" y="-305" font-family="Helvetica,sans-Serif" font-size="10.00" fill="#000000">output/&lt;SAMPLE_ID&gt;/ORF_TPMs_vs_features.pdf</text>
<text text-anchor="middle" x="790" y="-293" font-family="Helvetica,sans-Serif" font-size="10.00" fill="#000000">&#13;</text>
<text text-anchor="middle" x="790" y="-282" font-family="Helvetica,sans-Serif" font-size="10.00" fill="#000000">output/&lt;SAMPLE_ID&gt;/normalized_density_APEsites_per_codon.pdf</text>
<text text-anchor="middle" x="790" y="-270" font-family="Helvetica,sans-Serif" font-size="10.00" fill="#000000">&#13;</text>
<text text-anchor="middle" x="790" y="-259" font-family="Helvetica,sans-Serif" font-size="10.00" fill="#000000">output/&lt;SAMPLE_ID&gt;/metagene_start_barplot_by_length.pdf</text>
<text text-anchor="middle" x="790" y="-247" font-family="Helvetica,sans-Serif" font-size="10.00" fill="#000000">&#13;</text>
<text text-anchor="middle" x="790" y="-236" font-family="Helvetica,sans-Serif" font-size="10.00" fill="#000000">output/&lt;SAMPLE_ID&gt;/metagene_start_ribogrid_by_length.pdf</text>
<text text-anchor="middle" x="790" y="-224" font-family="Helvetica,sans-Serif" font-size="10.00" fill="#000000">&#13;</text>
<text text-anchor="middle" x="790" y="-213" font-family="Helvetica,sans-Serif" font-size="10.00" fill="#000000">output/&lt;SAMPLE_ID&gt;/frame_proportions_per_ORF.pdf</text>
<text text-anchor="middle" x="790" y="-201" font-family="Helvetica,sans-Serif" font-size="10.00" fill="#000000">&#13;</text>
<text text-anchor="middle" x="790" y="-190" font-family="Helvetica,sans-Serif" font-size="10.00" fill="#000000">output/&lt;SAMPLE_ID&gt;/read_counts_by_length.pdf</text>
</g>
<!-- statsfigs&#45;&gt;pdfs -->
<g id="edge35" class="edge">
<title>statsfigs&#45;&gt;pdfs</title>
<path fill="none" stroke="#000000" d="M840.7915,-421.8102C836.5212,-409.2991 830.4759,-391.5873 824.0385,-372.7267"/>
<polygon fill="#000000" stroke="#000000" points="827.2914,-371.4217 820.7487,-363.0884 820.6666,-373.6829 827.2914,-371.4217"/>
</g>
<!-- tsvs -->
<g id="node38" class="node">
<title>tsvs</title>
<polygon fill="none" stroke="#000000" stroke-dasharray="5,2" points="354,-386 16,-386 16,-160 354,-160 354,-386"/>
<text text-anchor="middle" x="185" y="-374" font-family="Helvetica,sans-Serif" font-size="10.00" fill="#000000">output/&lt;SAMPLE_ID&gt;/metagene_start_stop_read_counts.tsv</text>
<text text-anchor="middle" x="185" y="-362" font-family="Helvetica,sans-Serif" font-size="10.00" fill="#000000">&#13;</text>
<text text-anchor="middle" x="185" y="-351" font-family="Helvetica,sans-Serif" font-size="10.00" fill="#000000">output/&lt;SAMPLE_ID&gt;/metagene_normalized_profile_start_stop.tsv</text>
<text text-anchor="middle" x="185" y="-339" font-family="Helvetica,sans-Serif" font-size="10.00" fill="#000000">&#13;</text>
<text text-anchor="middle" x="185" y="-328" font-family="Helvetica,sans-Serif" font-size="10.00" fill="#000000">output/&lt;SAMPLE_ID&gt;/ORF_TPMs_vs_features.tsv</text>
<text text-anchor="middle" x="185" y="-316" font-family="Helvetica,sans-Serif" font-size="10.00" fill="#000000">&#13;</text>
<text text-anchor="middle" x="185" y="-305" font-family="Helvetica,sans-Serif" font-size="10.00" fill="#000000">output/&lt;SAMPLE_ID&gt;/normalized_density_APEsites_per_codon.tsv</text>
<text text-anchor="middle" x="185" y="-293" font-family="Helvetica,sans-Serif" font-size="10.00" fill="#000000">&#13;</text>
<text text-anchor="middle" x="185" y="-282" font-family="Helvetica,sans-Serif" font-size="10.00" fill="#000000">output/&lt;SAMPLE_ID&gt;/read_frame_per_ORF.tsv</text>
<text text-anchor="middle" x="185" y="-270" font-family="Helvetica,sans-Serif" font-size="10.00" fill="#000000">&#13;</text>
<text text-anchor="middle" x="185" y="-259" font-family="Helvetica,sans-Serif" font-size="10.00" fill="#000000">output/&lt;SAMPLE_ID&gt;/read_frame_per_ORF_filtered.tsv</text>
<text text-anchor="middle" x="185" y="-247" font-family="Helvetica,sans-Serif" font-size="10.00" fill="#000000">&#13;</text>
<text text-anchor="middle" x="185" y="-236" font-family="Helvetica,sans-Serif" font-size="10.00" fill="#000000">output/&lt;SAMPLE_ID&gt;/normalized_density_APEsites_per_codon_long.tsv</text>
<text text-anchor="middle" x="185" y="-224" font-family="Helvetica,sans-Serif" font-size="10.00" fill="#000000">&#13;</text>
<text text-anchor="middle" x="185" y="-213" font-family="Helvetica,sans-Serif" font-size="10.00" fill="#000000">output/&lt;SAMPLE_ID&gt;/read_counts_by_length.tsv</text>
<text text-anchor="middle" x="185" y="-201" font-family="Helvetica,sans-Serif" font-size="10.00" fill="#000000">&#13;</text>
<text text-anchor="middle" x="185" y="-190" font-family="Helvetica,sans-Serif" font-size="10.00" fill="#000000">output/&lt;SAMPLE_ID&gt;/nt_freq_per_read_position.tsv</text>
<text text-anchor="middle" x="185" y="-178" font-family="Helvetica,sans-Serif" font-size="10.00" fill="#000000">&#13;</text>
<text text-anchor="middle" x="185" y="-167" font-family="Helvetica,sans-Serif" font-size="10.00" fill="#000000">output/&lt;SAMPLE_ID&gt;/gene_position_length_counts_5start.tsv</text>
</g>
<!-- statsfigs&#45;&gt;tsvs -->
<g id="edge36" class="edge">
<title>statsfigs&#45;&gt;tsvs</title>
<path fill="none" stroke="#000000" d="M790.4761,-436.899C684.1414,-430.56 457.3486,-414.5121 363.8697,-385.9146"/>
<polygon fill="#000000" stroke="#000000" points="364.7874,-382.5322 354.1946,-382.7384 362.604,-389.1829 364.7874,-382.5322"/>
</g>
<!-- output/&lt;SAMPLE_ID&gt;/ORF_TPMs_and_counts.tsv -->
<g id="node40" class="node">
<title>output/&lt;SAMPLE_ID&gt;/ORF_TPMs_and_counts.tsv</title>
<text text-anchor="middle" x="493" y="-270.5" font-family="Helvetica,sans-Serif" font-size="10.00" fill="#000000">output/&lt;SAMPLE_ID&gt;/ORF_TPMs_and_counts.tsv</text>
</g>
<!-- statsfigs&#45;&gt;output/&lt;SAMPLE_ID&gt;/ORF_TPMs_and_counts.tsv -->
<g id="edge37" class="edge">
<title>statsfigs&#45;&gt;output/&lt;SAMPLE_ID&gt;/ORF_TPMs_and_counts.tsv</title>
<path fill="none" stroke="#000000" d="M790.3607,-433.802C743.6736,-426.9695 676.7911,-413.127 624,-386 580.906,-363.8559 540.1065,-324.7512 515.8208,-298.8531"/>
<polygon fill="#000000" stroke="#000000" points="518.1823,-296.2511 508.8297,-291.2732 513.0367,-300.997 518.1823,-296.2511"/>
</g>
<!-- staticHTML -->
<g id="node23" class="node">
<title>staticHTML</title>
<polygon fill="none" stroke="#000000" points="241.5,-124 128.5,-124 128.5,-88 241.5,-88 241.5,-124"/>
<text text-anchor="middle" x="185" y="-103.5" font-family="Helvetica,sans-Serif" font-size="10.00" fill="#000000">AnalysisOutputs.Rmd</text>
</g>
<!-- output/&lt;SAMPLE_ID&gt;/&lt;SAMPLE_ID&gt;_output_report.html -->
<g id="node39" class="node">
<title>output/&lt;SAMPLE_ID&gt;/&lt;SAMPLE_ID&gt;_output_report.html</title>
<text text-anchor="middle" x="185" y="-31.5" font-family="Helvetica,sans-Serif" font-size="10.00" fill="#000000">output/&lt;SAMPLE_ID&gt;/&lt;SAMPLE_ID&gt;_output_report.html</text>
</g>
<!-- staticHTML&#45;&gt;output/&lt;SAMPLE_ID&gt;/&lt;SAMPLE_ID&gt;_output_report.html -->
<g id="edge39" class="edge">
<title>staticHTML&#45;&gt;output/&lt;SAMPLE_ID&gt;/&lt;SAMPLE_ID&gt;_output_report.html</title>
<path fill="none" stroke="#000000" d="M185,-87.8314C185,-80.131 185,-70.9743 185,-62.4166"/>
<polygon fill="#000000" stroke="#000000" points="188.5001,-62.4132 185,-52.4133 181.5001,-62.4133 188.5001,-62.4132"/>
</g>
<!-- tmp/&lt;SAMPLE_ID&gt;/trim.fq&#45;&gt;h21 -->
<g id="edge7" class="edge">
<title>tmp/&lt;SAMPLE_ID&gt;/trim.fq&#45;&gt;h21</title>
<path fill="none" stroke="#000000" d="M877.4766,-1501.8314C876.4071,-1494.131 875.1353,-1484.9743 873.9468,-1476.4166"/>
<polygon fill="#000000" stroke="#000000" points="877.3999,-1475.8367 872.5574,-1466.4133 870.4664,-1476.7997 877.3999,-1475.8367"/>
</g>
<!-- tmp/&lt;SAMPLE_ID&gt;/trim.fq&#45;&gt;count_reads -->
<g id="edge43" class="edge">
<title>tmp/&lt;SAMPLE_ID&gt;/trim.fq&#45;&gt;count_reads</title>
<path fill="none" stroke="#000000" d="M933.6316,-1501.9972C942.4115,-1499.2151 951.4363,-1496.4543 960,-1494 1064.3476,-1464.0951 1434,-1484.5482 1434,-1376 1434,-1376 1434,-1376 1434,-440 1434,-314.6943 1466.5016,-266.8226 1401,-160 1393.4642,-147.7104 1381.9579,-137.6155 1369.9634,-129.6171"/>
<polygon fill="#000000" stroke="#000000" points="1371.5332,-126.4717 1361.1931,-124.1622 1367.8361,-132.4158 1371.5332,-126.4717"/>
</g>
<!-- tmp/&lt;SAMPLE_ID&gt;/rRNA_map.sam&#45;&gt;count_reads -->
<g id="edge44" class="edge">
<title>tmp/&lt;SAMPLE_ID&gt;/rRNA_map.sam&#45;&gt;count_reads</title>
<path fill="none" stroke="#000000" d="M948.2278,-1372.0552C1086.635,-1365.1332 1340.523,-1348.9208 1372,-1322 1403.4609,-1295.093 1396,-1273.3978 1396,-1232 1396,-1232 1396,-1232 1396,-440 1396,-315.0992 1423.6151,-273.7369 1372,-160 1367.1821,-149.3834 1359.369,-139.5849 1351.2468,-131.3318"/>
<polygon fill="#000000" stroke="#000000" points="1353.4296,-128.577 1343.7777,-124.2077 1348.5982,-133.6424 1353.4296,-128.577"/>
</g>
<!-- tmp/&lt;SAMPLE_ID&gt;/nonrRNA.fq&#45;&gt;h22 -->
<g id="edge12" class="edge">
<title>tmp/&lt;SAMPLE_ID&gt;/nonrRNA.fq&#45;&gt;h22</title>
<path fill="none" stroke="#000000" d="M699.4959,-1357.8314C712.6774,-1348.7927 728.7847,-1337.7476 742.9711,-1328.0198"/>
<polygon fill="#000000" stroke="#000000" points="745.2446,-1330.7047 751.5125,-1322.1628 741.2859,-1324.9316 745.2446,-1330.7047"/>
</g>
<!-- tmp/&lt;SAMPLE_ID&gt;/nonrRNA.fq&#45;&gt;count_reads -->
<g id="edge45" class="edge">
<title>tmp/&lt;SAMPLE_ID&gt;/nonrRNA.fq&#45;&gt;count_reads</title>
<path fill="none" stroke="#000000" d="M752.5828,-1359.5293C933.0876,-1322.1378 1358,-1233.9142 1358,-1232 1358,-1232 1358,-1232 1358,-440 1358,-315.0992 1355.0805,-283.1089 1334,-160 1332.5518,-151.5428 1330.4293,-142.4719 1328.2726,-134.225"/>
<polygon fill="#000000" stroke="#000000" points="1331.5808,-133.0529 1325.5707,-124.3277 1324.8279,-134.8964 1331.5808,-133.0529"/>
</g>
<!-- tmp/&lt;SAMPLE_ID&gt;/unaligned.fq&#45;&gt;count_reads -->
<g id="edge46" class="edge">
<title>tmp/&lt;SAMPLE_ID&gt;/unaligned.fq&#45;&gt;count_reads</title>
<path fill="none" stroke="#000000" d="M948.1781,-1226.691C1064.836,-1218.2519 1270.3324,-1200.4147 1296,-1178 1327.1817,-1150.7699 1320,-1129.3978 1320,-1088 1320,-1088 1320,-1088 1320,-440 1320,-326.6915 1320,-191.7608 1320,-134.2341"/>
<polygon fill="#000000" stroke="#000000" points="1323.5001,-134.1025 1320,-124.1025 1316.5001,-134.1026 1323.5001,-134.1025"/>
</g>
<!-- tmp/&lt;SAMPLE_ID&gt;/orf_map.sam&#45;&gt;trim -->
<g id="edge15" class="edge">
<title>tmp/&lt;SAMPLE_ID&gt;/orf_map.sam&#45;&gt;trim</title>
<path fill="none" stroke="#000000" d="M688,-1213.8314C688,-1206.131 688,-1196.9743 688,-1188.4166"/>
<polygon fill="#000000" stroke="#000000" points="691.5001,-1188.4132 688,-1178.4133 684.5001,-1188.4133 691.5001,-1188.4132"/>
</g>
<!-- tmp/&lt;SAMPLE_ID&gt;/orf_map.sam&#45;&gt;count_reads -->
<g id="edge47" class="edge">
<title>tmp/&lt;SAMPLE_ID&gt;/orf_map.sam&#45;&gt;count_reads</title>
<path fill="none" stroke="#000000" d="M770.2811,-1214.1876C933.3638,-1178.6022 1282,-1101.007 1282,-1088 1282,-1088 1282,-1088 1282,-440 1282,-325.9605 1304.1402,-191.4147 1314.621,-134.1113"/>
<polygon fill="#000000" stroke="#000000" points="1318.1102,-134.4912 1316.4932,-124.0205 1311.2277,-133.2142 1318.1102,-134.4912"/>
</g>
<!-- tmp/&lt;SAMPLE_ID&gt;/trim_5p_mismatch.tsv&#45;&gt;count_reads -->
<g id="edge48" class="edge">
<title>tmp/&lt;SAMPLE_ID&gt;/trim_5p_mismatch.tsv&#45;&gt;count_reads</title>
<path fill="none" stroke="#000000" d="M948.4014,-1079.0151C1052.0628,-1069.0077 1199.8992,-1051.8728 1220,-1034 1250.9369,-1006.4921 1244,-985.3978 1244,-944 1244,-944 1244,-944 1244,-440 1244,-315.0992 1216.3849,-273.7369 1268,-160 1272.8179,-149.3834 1280.631,-139.5849 1288.7532,-131.3318"/>
<polygon fill="#000000" stroke="#000000" points="1291.4018,-133.6424 1296.2223,-124.2077 1286.5704,-128.577 1291.4018,-133.6424"/>
</g>
<!-- tmp/&lt;SAMPLE_ID&gt;/orf_map_clean.sam&#45;&gt;samview -->
<g id="edge18" class="edge">
<title>tmp/&lt;SAMPLE_ID&gt;/orf_map_clean.sam&#45;&gt;samview</title>
<path fill="none" stroke="#000000" d="M629.2523,-1069.8314C629.3593,-1062.131 629.4865,-1052.9743 629.6053,-1044.4166"/>
<polygon fill="#000000" stroke="#000000" points="633.1049,-1044.4609 629.7443,-1034.4133 626.1056,-1044.3637 633.1049,-1044.4609"/>
</g>
<!-- tmp/&lt;SAMPLE_ID&gt;/orf_map_clean.sam&#45;&gt;count_reads -->
<g id="edge49" class="edge">
<title>tmp/&lt;SAMPLE_ID&gt;/orf_map_clean.sam&#45;&gt;count_reads</title>
<path fill="none" stroke="#000000" d="M720.109,-1069.9537C882.7041,-1037.1217 1206,-968.7307 1206,-944 1206,-944 1206,-944 1206,-440 1206,-315.0202 1165.9834,-266.1214 1232,-160 1240.8602,-145.7573 1255.0014,-134.7116 1269.3788,-126.4289"/>
<polygon fill="#000000" stroke="#000000" points="1271.1652,-129.4424 1278.3163,-121.6249 1267.851,-123.2766 1271.1652,-129.4424"/>
</g>
<!-- tmp/&lt;SAMPLE_ID&gt;/orf_map_clean.bam&#45;&gt;samindex -->
<g id="edge20" class="edge">
<title>tmp/&lt;SAMPLE_ID&gt;/orf_map_clean.bam&#45;&gt;samindex</title>
<path fill="none" stroke="#000000" d="M633,-925.8314C633,-918.131 633,-908.9743 633,-900.4166"/>
<polygon fill="#000000" stroke="#000000" points="636.5001,-900.4132 633,-890.4133 629.5001,-900.4133 636.5001,-900.4132"/>
</g>
<!-- tmp/&lt;SAMPLE_ID&gt;/orf_map_clean.bam+.bai&#45;&gt;copy -->
<g id="edge22" class="edge">
<title>tmp/&lt;SAMPLE_ID&gt;/orf_map_clean.bam+.bai&#45;&gt;copy</title>
<path fill="none" stroke="#000000" d="M633.5047,-781.8314C633.7186,-774.131 633.9729,-764.9743 634.2106,-756.4166"/>
<polygon fill="#000000" stroke="#000000" points="637.7094,-756.5066 634.4885,-746.4133 630.7121,-756.3122 637.7094,-756.5066"/>
</g>
<!-- output/&lt;SAMPLE_ID&gt;/&lt;SAMPLE_ID&gt;.bam+.bai&#45;&gt;bedplus -->
<g id="edge24" class="edge">
<title>output/&lt;SAMPLE_ID&gt;/&lt;SAMPLE_ID&gt;.bam+.bai&#45;&gt;bedplus</title>
<path fill="none" stroke="#000000" d="M592.1018,-637.8314C569.2643,-628.159 541.002,-616.1891 516.9313,-605.9944"/>
<polygon fill="#000000" stroke="#000000" points="518.1629,-602.7151 507.5897,-602.038 515.4329,-609.1608 518.1629,-602.7151"/>
</g>
<!-- output/&lt;SAMPLE_ID&gt;/&lt;SAMPLE_ID&gt;.bam+.bai&#45;&gt;bedminus -->
<g id="edge26" class="edge">
<title>output/&lt;SAMPLE_ID&gt;/&lt;SAMPLE_ID&gt;.bam+.bai&#45;&gt;bedminus</title>
<path fill="none" stroke="#000000" d="M635,-637.8314C635,-630.131 635,-620.9743 635,-612.4166"/>
<polygon fill="#000000" stroke="#000000" points="638.5001,-612.4132 635,-602.4133 631.5001,-612.4133 638.5001,-612.4132"/>
</g>
<!-- output/&lt;SAMPLE_ID&gt;/&lt;SAMPLE_ID&gt;.bam+.bai&#45;&gt;bam2h5 -->
<g id="edge28" class="edge">
<title>output/&lt;SAMPLE_ID&gt;/&lt;SAMPLE_ID&gt;.bam+.bai&#45;&gt;bam2h5</title>
<path fill="none" stroke="#000000" d="M688.2229,-637.9243C722.4585,-626.2971 766.5554,-611.3208 799.5866,-600.1027"/>
<polygon fill="#000000" stroke="#000000" points="801.1159,-603.2797 809.4592,-596.7497 798.8648,-596.6515 801.1159,-603.2797"/>
</g>
<!-- output/&lt;SAMPLE_ID&gt;/&lt;SAMPLE_ID&gt;.h5&#45;&gt;statsfigs -->
<g id="edge31" class="edge">
<title>output/&lt;SAMPLE_ID&gt;/&lt;SAMPLE_ID&gt;.h5&#45;&gt;statsfigs</title>
<path fill="none" stroke="#000000" d="M847,-493.8314C847,-486.131 847,-476.9743 847,-468.4166"/>
<polygon fill="#000000" stroke="#000000" points="850.5001,-468.4132 847,-458.4133 843.5001,-468.4133 850.5001,-468.4132"/>
</g>
<!-- tsvs&#45;&gt;staticHTML -->
<g id="edge38" class="edge">
<title>tsvs&#45;&gt;staticHTML</title>
<path fill="none" stroke="#000000" d="M185,-159.7591C185,-150.5356 185,-141.8689 185,-134.2989"/>
<polygon fill="#000000" stroke="#000000" points="188.5001,-134.0554 185,-124.0554 181.5001,-134.0555 188.5001,-134.0554"/>
</g>
<!-- collate -->
<g id="node41" class="node">
<title>collate</title>
<polygon fill="none" stroke="#000000" points="1128.5,-124 1045.5,-124 1045.5,-88 1128.5,-88 1128.5,-124"/>
<text text-anchor="middle" x="1087" y="-103.5" font-family="Helvetica,sans-Serif" font-size="10.00" fill="#000000">collate_tpms.R</text>
</g>
<!-- output/&lt;SAMPLE_ID&gt;/ORF_TPMs_and_counts.tsv&#45;&gt;collate -->
<g id="edge40" class="edge">
<title>output/&lt;SAMPLE_ID&gt;/ORF_TPMs_and_counts.tsv&#45;&gt;collate</title>
<path fill="none" stroke="#000000" d="M507.0887,-254.6388C528.8075,-227.9851 573.3009,-179.6218 624,-160 658.8292,-146.5203 923.2813,-157.8204 960,-151 986.0601,-146.1594 1013.932,-136.7877 1036.9063,-127.8443"/>
<polygon fill="#000000" stroke="#000000" points="1038.4364,-131.0024 1046.4329,-124.0521 1035.8475,-124.4987 1038.4364,-131.0024"/>
</g>
<!-- output/TPMs_all_CDS_all_samples.tsv -->
<g id="node43" class="node">
<title>output/TPMs_all_CDS_all_samples.tsv</title>
<text text-anchor="middle" x="1113" y="-31.5" font-family="Helvetica,sans-Serif" font-size="10.00" fill="#000000">output/TPMs_all_CDS_all_samples.tsv</text>
</g>
<!-- collate&#45;&gt;output/TPMs_all_CDS_all_samples.tsv -->
<g id="edge41" class="edge">
<title>collate&#45;&gt;output/TPMs_all_CDS_all_samples.tsv</title>
<path fill="none" stroke="#000000" d="M1093.5609,-87.8314C1096.4027,-79.9617 1099.7937,-70.5712 1102.9419,-61.8533"/>
<polygon fill="#000000" stroke="#000000" points="1106.2462,-63.0076 1106.3508,-52.4133 1099.6623,-60.63 1106.2462,-63.0076"/>
</g>
<!-- output/read_counts_per_file.tsv -->
<g id="node44" class="node">
<title>output/read_counts_per_file.tsv</title>
<text text-anchor="middle" x="1302" y="-31.5" font-family="Helvetica,sans-Serif" font-size="10.00" fill="#000000">output/read_counts_per_file.tsv</text>
</g>
<!-- count_reads&#45;&gt;output/read_counts_per_file.tsv -->
<g id="edge50" class="edge">
<title>count_reads&#45;&gt;output/read_counts_per_file.tsv</title>
<path fill="none" stroke="#000000" d="M1315.4578,-87.8314C1313.5116,-80.0463 1311.1932,-70.7729 1309.0337,-62.1347"/>
<polygon fill="#000000" stroke="#000000" points="1312.4242,-61.2658 1306.6033,-52.4133 1305.6332,-62.9636 1312.4242,-61.2658"/>
</g>
</g>
</svg>
