<?xml version="1.0" encoding="UTF-8" standalone="no"?>
<!DOCTYPE svg PUBLIC "-//W3C//DTD SVG 1.1//EN"
 "http://www.w3.org/Graphics/SVG/1.1/DTD/svg11.dtd">
<!-- Generated by graphviz version 2.40.1 (20161225.0304)
 -->
<!-- Title: G Pages: 1 -->
<svg width="1200pt" height="2236pt"
 viewBox="0.00 0.00 1200.47 2236.00" xmlns="http://www.w3.org/2000/svg" xmlns:xlink="http://www.w3.org/1999/xlink">
<g id="graph0" class="graph" transform="scale(1 1) rotate(0) translate(4 2232)">
<title>G</title>
<polygon fill="#ffffff" stroke="transparent" points="-4,4 -4,-2232 1196.4683,-2232 1196.4683,4 -4,4"/>
<g id="clust1" class="cluster">
<title>cluster_data</title>
<polygon fill="none" stroke="#000000" stroke-dasharray="5,2" points="296.4683,-2056 296.4683,-2220 1184.4683,-2220 1184.4683,-2056 296.4683,-2056"/>
<text text-anchor="middle" x="315.0263" y="-2207" font-family="Helvetica,sans-Serif" font-size="10.00" fill="#000000">Data</text>
</g>
<g id="clust2" class="cluster">
<title>cluster_organism</title>
<polygon fill="none" stroke="#000000" stroke-dasharray="5,2" points="790.4683,-2092 790.4683,-2164 978.4683,-2164 978.4683,-2092 790.4683,-2092"/>
<text text-anchor="middle" x="831.2523" y="-2151" font-family="Helvetica,sans-Serif" font-size="10.00" fill="#000000">Organism data</text>
</g>
<g id="clust3" class="cluster">
<title>cluster_contaminants</title>
<polygon fill="none" stroke="#000000" stroke-dasharray="5,2" points="696.4683,-2092 696.4683,-2164 782.4683,-2164 782.4683,-2092 696.4683,-2092"/>
<text text-anchor="middle" x="735.3078" y="-2151" font-family="Helvetica,sans-Serif" font-size="10.00" fill="#000000">Contaminants</text>
</g>
<g id="clust4" class="cluster">
<title>cluster_additional_organism</title>
<polygon fill="none" stroke="#000000" stroke-dasharray="5,2" points="986.4683,-2064 986.4683,-2192 1176.4683,-2192 1176.4683,-2064 986.4683,-2064"/>
<text text-anchor="middle" x="1067.8138" y="-2179" font-family="Helvetica,sans-Serif" font-size="10.00" fill="#000000">Additional organism&#45;specific data</text>
</g>
<g id="clust5" class="cluster">
<title>cluster_ribosome</title>
<polygon fill="none" stroke="#000000" stroke-dasharray="5,2" points="304.4683,-2092 304.4683,-2164 688.4683,-2164 688.4683,-2092 304.4683,-2092"/>
<text text-anchor="middle" x="364.9773" y="-2151" font-family="Helvetica,sans-Serif" font-size="10.00" fill="#000000">Ribosome profiling data</text>
</g>
<g id="clust6" class="cluster">
<title>cluster_indexing</title>
<polygon fill="none" stroke="#000000" points="703.4683,-1616 703.4683,-1760 957.4683,-1760 957.4683,-1616 703.4683,-1616"/>
<text text-anchor="middle" x="730.3648" y="-1747" font-family="Helvetica,sans-Serif" font-size="10.00" fill="#000000">Indexing</text>
</g>
<g id="clust7" class="cluster">
<title>cluster_demultiplexing</title>
<polygon fill="none" stroke="#000000" points="61.4683,-1616 61.4683,-2048 695.4683,-2048 695.4683,-1616 61.4683,-1616"/>
<text text-anchor="middle" x="102.2468" y="-2035" font-family="Helvetica,sans-Serif" font-size="10.00" fill="#000000">Demultiplexing</text>
</g>
<g id="clust8" class="cluster">
<title>cluster_per_sample_processing</title>
<polygon fill="none" stroke="#000000" points="361.4683,-160 361.4683,-1608 1051.4683,-1608 1051.4683,-160 361.4683,-160"/>
<text text-anchor="middle" x="422.8153" y="-1595" font-family="Helvetica,sans-Serif" font-size="10.00" fill="#000000">Process &lt;SAMPLE_ID&gt;</text>
</g>
<g id="clust9" class="cluster">
<title>cluster_tpms_collation</title>
<polygon fill="none" stroke="#000000" points="894.4683,-8 894.4683,-152 1038.4683,-152 1038.4683,-8 894.4683,-8"/>
<text text-anchor="middle" x="935.2473" y="-139" font-family="Helvetica,sans-Serif" font-size="10.00" fill="#000000">TPMs collation</text>
</g>
<!-- input/CDS.fa -->
<g id="node1" class="node">
<title>input/CDS.fa</title>
<text text-anchor="middle" x="834.4683" y="-2115" font-family="Helvetica,sans-Serif" font-size="10.00" fill="#000000">input/CDS.fa</text>
</g>
<!-- h2build2 -->
<g id="node8" class="node">
<title>h2build2</title>
<polygon fill="none" stroke="#000000" points="902.0874,-1732 834.8492,-1732 834.8492,-1696 902.0874,-1696 902.0874,-1732"/>
<text text-anchor="middle" x="868.4683" y="-1711" font-family="Helvetica,sans-Serif" font-size="10.00" fill="#000000">hisat2&#45;build</text>
</g>
<!-- input/CDS.fa&#45;&gt;h2build2 -->
<g id="edge3" class="edge">
<title>input/CDS.fa&#45;&gt;h2build2</title>
<path fill="none" stroke="#000000" d="M837.521,-2099.9129C842.8919,-2066.4697 853.4683,-1992.6578 853.4683,-1930 853.4683,-1930 853.4683,-1930 853.4683,-1858 853.4683,-1817.6589 859.3641,-1771.3012 863.7631,-1742.327"/>
<polygon fill="#000000" stroke="#000000" points="867.2717,-1742.5433 865.3603,-1732.1223 860.3559,-1741.4608 867.2717,-1742.5433"/>
</g>
<!-- statsfigs -->
<g id="node30" class="node">
<title>statsfigs</title>
<polygon fill="none" stroke="#000000" points="956.2206,-428 842.716,-428 842.716,-392 956.2206,-392 956.2206,-428"/>
<text text-anchor="middle" x="899.4683" y="-407" font-family="Helvetica,sans-Serif" font-size="10.00" fill="#000000">generate_stats_figs.R</text>
</g>
<!-- input/CDS.fa&#45;&gt;statsfigs -->
<g id="edge44" class="edge">
<title>input/CDS.fa&#45;&gt;statsfigs</title>
<path fill="none" stroke="#000000" d="M826.1562,-2099.8848C818.2661,-2085.0789 804.8733,-2065.1527 786.4683,-2056 768.3355,-2046.9826 72.6465,-2061.4065 57.4683,-2048 17.8018,-2012.9635 41.4683,-1982.9244 41.4683,-1930 41.4683,-1930 41.4683,-1930 41.4683,-554 41.4683,-473.8778 630.9084,-427.6472 832.6732,-414.1695"/>
<polygon fill="#000000" stroke="#000000" points="833.0939,-417.6494 842.8407,-413.4962 832.6313,-410.6647 833.0939,-417.6494"/>
</g>
<!-- input/CDS.gff3 -->
<g id="node2" class="node">
<title>input/CDS.gff3</title>
<text text-anchor="middle" x="929.4683" y="-2115" font-family="Helvetica,sans-Serif" font-size="10.00" fill="#000000">input/CDS.gff3</text>
</g>
<!-- bam2h5 -->
<g id="node29" class="node">
<title>bam2h5</title>
<polygon fill="none" stroke="#000000" points="937.4873,-572 861.4493,-572 861.4493,-536 937.4873,-536 937.4873,-572"/>
<text text-anchor="middle" x="899.4683" y="-551" font-family="Helvetica,sans-Serif" font-size="10.00" fill="#000000">bam_to_h5.R</text>
</g>
<!-- input/CDS.gff3&#45;&gt;bam2h5 -->
<g id="edge41" class="edge">
<title>input/CDS.gff3&#45;&gt;bam2h5</title>
<path fill="none" stroke="#000000" d="M937.2872,-2099.9789C950.8885,-2066.942 977.4683,-1994.1717 977.4683,-1930 977.4683,-1930 977.4683,-1930 977.4683,-698 977.4683,-652.3933 946.8446,-607.4038 923.9741,-580.1636"/>
<polygon fill="#000000" stroke="#000000" points="926.3582,-577.5699 917.1677,-572.2986 921.065,-582.1506 926.3582,-577.5699"/>
</g>
<!-- input/CDS.gff3&#45;&gt;statsfigs -->
<g id="edge45" class="edge">
<title>input/CDS.gff3&#45;&gt;statsfigs</title>
<path fill="none" stroke="#000000" d="M946.3644,-2099.8681C974.1556,-2068.071 1026.4683,-1999.0473 1026.4683,-1930 1026.4683,-1930 1026.4683,-1930 1026.4683,-554 1026.4683,-513.1184 1032.456,-496.3562 1007.4683,-464 996.7038,-450.0612 981.3733,-439.4554 965.633,-431.4962"/>
<polygon fill="#000000" stroke="#000000" points="966.8862,-428.2174 956.3494,-427.1106 963.8962,-434.5467 966.8862,-428.2174"/>
</g>
<!-- input/rRNA.fa -->
<g id="node3" class="node">
<title>input/rRNA.fa</title>
<text text-anchor="middle" x="739.4683" y="-2115.3" font-family="Helvetica,sans-Serif" font-size="9.00" fill="#000000">input/rRNA.fa</text>
</g>
<!-- h2build1 -->
<g id="node7" class="node">
<title>h2build1</title>
<polygon fill="none" stroke="#000000" points="790.0874,-1732 722.8492,-1732 722.8492,-1696 790.0874,-1696 790.0874,-1732"/>
<text text-anchor="middle" x="756.4683" y="-1711" font-family="Helvetica,sans-Serif" font-size="10.00" fill="#000000">hisat2&#45;build</text>
</g>
<!-- input/rRNA.fa&#45;&gt;h2build1 -->
<g id="edge1" class="edge">
<title>input/rRNA.fa&#45;&gt;h2build1</title>
<path fill="none" stroke="#000000" d="M740.4323,-2099.8576C742.1284,-2066.3246 745.4683,-1992.372 745.4683,-1930 745.4683,-1930 745.4683,-1930 745.4683,-1858 745.4683,-1817.7591 749.7919,-1771.3759 753.0178,-1742.3689"/>
<polygon fill="#000000" stroke="#000000" points="756.5273,-1742.485 754.1891,-1732.1514 749.5729,-1741.6877 756.5273,-1742.485"/>
</g>
<!-- data -->
<g id="node4" class="node">
<title>data</title>
<polygon fill="none" stroke="#000000" stroke-dasharray="5,2" points="1168.3074,-2164 994.6292,-2164 994.6292,-2072 1168.3074,-2072 1168.3074,-2164"/>
<text text-anchor="middle" x="1081.4683" y="-2151" font-family="Helvetica,sans-Serif" font-size="10.00" fill="#000000">data/codon_pos_i200.RData</text>
<text text-anchor="middle" x="1081.4683" y="-2139" font-family="Helvetica,sans-Serif" font-size="10.00" fill="#000000">&#13;</text>
<text text-anchor="middle" x="1081.4683" y="-2127" font-family="Helvetica,sans-Serif" font-size="10.00" fill="#000000">data/features.tsv</text>
<text text-anchor="middle" x="1081.4683" y="-2115" font-family="Helvetica,sans-Serif" font-size="10.00" fill="#000000">&#13;</text>
<text text-anchor="middle" x="1081.4683" y="-2103" font-family="Helvetica,sans-Serif" font-size="10.00" fill="#000000">data/tRNAs.tsv</text>
<text text-anchor="middle" x="1081.4683" y="-2091" font-family="Helvetica,sans-Serif" font-size="10.00" fill="#000000">&#13;</text>
<text text-anchor="middle" x="1081.4683" y="-2079" font-family="Helvetica,sans-Serif" font-size="10.00" fill="#000000">data/standard_asite_disp_length.txt</text>
</g>
<!-- data&#45;&gt;statsfigs -->
<g id="edge46" class="edge">
<title>data&#45;&gt;statsfigs</title>
<path fill="none" stroke="#000000" d="M1079.5495,-2071.6531C1078.1395,-2033.6072 1076.4683,-1978.3226 1076.4683,-1930 1076.4683,-1930 1076.4683,-1930 1076.4683,-554 1076.4683,-508.8741 1062.7432,-494.4816 1029.4683,-464 1011.5727,-447.6067 987.9993,-435.806 965.8458,-427.5017"/>
<polygon fill="#000000" stroke="#000000" points="966.7219,-424.0985 956.1272,-424.0412 964.3737,-430.6929 966.7219,-424.0985"/>
</g>
<!-- input/&lt;FASTQ_FILE_NAME_PREFIX&gt;.fastq.gz -->
<g id="node5" class="node">
<title>input/&lt;FASTQ_FILE_NAME_PREFIX&gt;.fastq.gz</title>
<text text-anchor="middle" x="567.4683" y="-2115" font-family="Helvetica,sans-Serif" font-size="10.00" fill="#000000">input/&lt;FASTQ_FILE_NAME_PREFIX&gt;.fastq.gz</text>
</g>
<!-- cut -->
<g id="node11" class="node">
<title>cut</title>
<polygon fill="none" stroke="#000000" points="575.8225,-2020 521.1142,-2020 521.1142,-1984 575.8225,-1984 575.8225,-2020"/>
<text text-anchor="middle" x="548.4683" y="-1999" font-family="Helvetica,sans-Serif" font-size="10.00" fill="#000000">cutadapt</text>
</g>
<!-- input/&lt;FASTQ_FILE_NAME_PREFIX&gt;.fastq.gz&#45;&gt;cut -->
<g id="edge5" class="edge">
<title>input/&lt;FASTQ_FILE_NAME_PREFIX&gt;.fastq.gz&#45;&gt;cut</title>
<path fill="none" stroke="#000000" d="M564.4996,-2099.875C561.45,-2081.2566 556.6601,-2052.0131 553.1094,-2030.335"/>
<polygon fill="#000000" stroke="#000000" points="556.5494,-2029.6833 551.4789,-2020.3805 549.6414,-2030.8148 556.5494,-2029.6833"/>
</g>
<!-- input/&lt;BARCODES&gt;.tsv -->
<g id="node6" class="node">
<title>input/&lt;BARCODES&gt;.tsv</title>
<text text-anchor="middle" x="374.4683" y="-2115" font-family="Helvetica,sans-Serif" font-size="10.00" fill="#000000">input/&lt;BARCODES&gt;.tsv</text>
</g>
<!-- demultiplex -->
<g id="node13" class="node">
<title>demultiplex</title>
<polygon fill="none" stroke="#000000" points="297.5298,-1732 231.4069,-1732 231.4069,-1696 297.5298,-1696 297.5298,-1732"/>
<text text-anchor="middle" x="264.4683" y="-1711" font-family="Helvetica,sans-Serif" font-size="10.00" fill="#000000">demultiplex</text>
</g>
<!-- input/&lt;BARCODES&gt;.tsv&#45;&gt;demultiplex -->
<g id="edge9" class="edge">
<title>input/&lt;BARCODES&gt;.tsv&#45;&gt;demultiplex</title>
<path fill="none" stroke="#000000" d="M312.3364,-2113.583C223.5595,-2105.9661 66.7733,-2087.2424 27.4683,-2048 -10.4049,-2010.1871 3.4683,-1983.5182 3.4683,-1930 3.4683,-1930 3.4683,-1930 3.4683,-1858 3.4683,-1759.7643 146.9686,-1728.0379 221.1607,-1718.1996"/>
<polygon fill="#000000" stroke="#000000" points="221.6584,-1721.6647 231.1474,-1716.9519 220.7906,-1714.7187 221.6584,-1721.6647"/>
</g>
<!-- index/rRNA.1|...|8.ht2 -->
<g id="node9" class="node">
<title>index/rRNA.1|...|8.ht2</title>
<text text-anchor="middle" x="767.4683" y="-1639" font-family="Helvetica,sans-Serif" font-size="10.00" fill="#000000">index/rRNA.1|...|8.ht2</text>
</g>
<!-- h2build1&#45;&gt;index/rRNA.1|...|8.ht2 -->
<g id="edge2" class="edge">
<title>h2build1&#45;&gt;index/rRNA.1|...|8.ht2</title>
<path fill="none" stroke="#000000" d="M759.2441,-1695.8314C760.4205,-1688.131 761.8195,-1678.9743 763.1269,-1670.4166"/>
<polygon fill="#000000" stroke="#000000" points="766.6047,-1670.8272 764.6552,-1660.4133 759.685,-1669.7699 766.6047,-1670.8272"/>
</g>
<!-- index/CDS.1|...|8.ht2 -->
<g id="node10" class="node">
<title>index/CDS.1|...|8.ht2</title>
<text text-anchor="middle" x="895.4683" y="-1639" font-family="Helvetica,sans-Serif" font-size="10.00" fill="#000000">index/CDS.1|...|8.ht2</text>
</g>
<!-- h2build2&#45;&gt;index/CDS.1|...|8.ht2 -->
<g id="edge4" class="edge">
<title>h2build2&#45;&gt;index/CDS.1|...|8.ht2</title>
<path fill="none" stroke="#000000" d="M875.2816,-1695.8314C878.2327,-1687.9617 881.7541,-1678.5712 885.0233,-1669.8533"/>
<polygon fill="#000000" stroke="#000000" points="888.3292,-1671.0055 888.5633,-1660.4133 881.7749,-1668.5476 888.3292,-1671.0055"/>
</g>
<!-- h21 -->
<g id="node18" class="node">
<title>h21</title>
<polygon fill="none" stroke="#000000" points="706.4683,-1580 652.4683,-1580 652.4683,-1544 706.4683,-1544 706.4683,-1580"/>
<text text-anchor="middle" x="679.4683" y="-1559" font-family="Helvetica,sans-Serif" font-size="10.00" fill="#000000">hisat2</text>
</g>
<!-- index/rRNA.1|...|8.ht2&#45;&gt;h21 -->
<g id="edge14" class="edge">
<title>index/rRNA.1|...|8.ht2&#45;&gt;h21</title>
<path fill="none" stroke="#000000" d="M747.4998,-1623.8468C735.4608,-1612.9023 719.9594,-1598.8101 706.795,-1586.8424"/>
<polygon fill="#000000" stroke="#000000" points="709.1116,-1584.2184 699.3579,-1580.0814 704.4029,-1589.398 709.1116,-1584.2184"/>
</g>
<!-- h22 -->
<g id="node19" class="node">
<title>h22</title>
<polygon fill="none" stroke="#000000" points="652.4683,-1436 598.4683,-1436 598.4683,-1400 652.4683,-1400 652.4683,-1436"/>
<text text-anchor="middle" x="625.4683" y="-1415" font-family="Helvetica,sans-Serif" font-size="10.00" fill="#000000">hisat2</text>
</g>
<!-- index/CDS.1|...|8.ht2&#45;&gt;h22 -->
<g id="edge17" class="edge">
<title>index/CDS.1|...|8.ht2&#45;&gt;h22</title>
<path fill="none" stroke="#000000" d="M899.5666,-1623.9051C906.187,-1589.5493 914.908,-1514.5155 876.4683,-1472 848.3509,-1440.9013 726.0219,-1426.3484 663.1237,-1420.8172"/>
<polygon fill="#000000" stroke="#000000" points="663.0934,-1417.3022 652.8339,-1419.9463 662.5031,-1424.2773 663.0934,-1417.3022"/>
</g>
<!-- tmp/&lt;FASTQ_FILE_NAME_PREFIX&gt;_trim.fastq.gz -->
<g id="node14" class="node">
<title>tmp/&lt;FASTQ_FILE_NAME_PREFIX&gt;_trim.fastq.gz</title>
<text text-anchor="middle" x="535.4683" y="-1927" font-family="Helvetica,sans-Serif" font-size="10.00" fill="#000000">tmp/&lt;FASTQ_FILE_NAME_PREFIX&gt;_trim.fastq.gz</text>
</g>
<!-- cut&#45;&gt;tmp/&lt;FASTQ_FILE_NAME_PREFIX&gt;_trim.fastq.gz -->
<g id="edge6" class="edge">
<title>cut&#45;&gt;tmp/&lt;FASTQ_FILE_NAME_PREFIX&gt;_trim.fastq.gz</title>
<path fill="none" stroke="#000000" d="M545.1879,-1983.8314C543.7975,-1976.131 542.1442,-1966.9743 540.5991,-1958.4166"/>
<polygon fill="#000000" stroke="#000000" points="544.0141,-1957.6322 538.7929,-1948.4133 537.1255,-1958.8761 544.0141,-1957.6322"/>
</g>
<!-- umi_extract -->
<g id="node12" class="node">
<title>umi_extract</title>
<polygon fill="none" stroke="#000000" points="418.0353,-1876 326.9013,-1876 326.9013,-1840 418.0353,-1840 418.0353,-1876"/>
<text text-anchor="middle" x="372.4683" y="-1855" font-family="Helvetica,sans-Serif" font-size="10.00" fill="#000000">umi_tools extract</text>
</g>
<!-- tmp/&lt;FASTQ_FILE_NAME_PREFIX&gt;_extract_trim.fastq.gz -->
<g id="node15" class="node">
<title>tmp/&lt;FASTQ_FILE_NAME_PREFIX&gt;_extract_trim.fastq.gz</title>
<text text-anchor="middle" x="346.4683" y="-1783" font-family="Helvetica,sans-Serif" font-size="10.00" fill="#000000">tmp/&lt;FASTQ_FILE_NAME_PREFIX&gt;_extract_trim.fastq.gz</text>
</g>
<!-- umi_extract&#45;&gt;tmp/&lt;FASTQ_FILE_NAME_PREFIX&gt;_extract_trim.fastq.gz -->
<g id="edge8" class="edge">
<title>umi_extract&#45;&gt;tmp/&lt;FASTQ_FILE_NAME_PREFIX&gt;_extract_trim.fastq.gz</title>
<path fill="none" stroke="#000000" d="M365.9074,-1839.8314C363.0656,-1831.9617 359.6746,-1822.5712 356.5264,-1813.8533"/>
<polygon fill="#000000" stroke="#000000" points="359.806,-1812.63 353.1175,-1804.4133 353.2221,-1815.0076 359.806,-1812.63"/>
</g>
<!-- tmp/&lt;FASTQ_FILE_NAME_PREFIX&gt;_deplex/num_reads.tsv -->
<g id="node16" class="node">
<title>tmp/&lt;FASTQ_FILE_NAME_PREFIX&gt;_deplex/num_reads.tsv</title>
<text text-anchor="middle" x="212.4683" y="-1639" font-family="Helvetica,sans-Serif" font-size="10.00" fill="#000000">tmp/&lt;FASTQ_FILE_NAME_PREFIX&gt;_deplex/num_reads.tsv</text>
</g>
<!-- demultiplex&#45;&gt;tmp/&lt;FASTQ_FILE_NAME_PREFIX&gt;_deplex/num_reads.tsv -->
<g id="edge10" class="edge">
<title>demultiplex&#45;&gt;tmp/&lt;FASTQ_FILE_NAME_PREFIX&gt;_deplex/num_reads.tsv</title>
<path fill="none" stroke="#000000" d="M251.3465,-1695.8314C245.4184,-1687.6232 238.2954,-1677.7606 231.775,-1668.7323"/>
<polygon fill="#000000" stroke="#000000" points="234.4591,-1666.4708 225.7668,-1660.4133 228.7843,-1670.5693 234.4591,-1666.4708"/>
</g>
<!-- tmp/&lt;FASTQ_FILE_NAME_PREFIX&gt;_deplex/&lt;SAMPLE_ID&gt;.fastq -->
<g id="node17" class="node">
<title>tmp/&lt;FASTQ_FILE_NAME_PREFIX&gt;_deplex/&lt;SAMPLE_ID&gt;.fastq</title>
<text text-anchor="middle" x="530.4683" y="-1639" font-family="Helvetica,sans-Serif" font-size="10.00" fill="#000000">tmp/&lt;FASTQ_FILE_NAME_PREFIX&gt;_deplex/&lt;SAMPLE_ID&gt;.fastq</text>
</g>
<!-- demultiplex&#45;&gt;tmp/&lt;FASTQ_FILE_NAME_PREFIX&gt;_deplex/&lt;SAMPLE_ID&gt;.fastq -->
<g id="edge12" class="edge">
<title>demultiplex&#45;&gt;tmp/&lt;FASTQ_FILE_NAME_PREFIX&gt;_deplex/&lt;SAMPLE_ID&gt;.fastq</title>
<path fill="none" stroke="#000000" d="M297.6196,-1705.0267C336.5436,-1694.4909 402.3563,-1676.6769 454.1034,-1662.6702"/>
<polygon fill="#000000" stroke="#000000" points="455.1842,-1666.0037 463.9224,-1660.0124 453.3552,-1659.2468 455.1842,-1666.0037"/>
</g>
<!-- tmp/&lt;FASTQ_FILE_NAME_PREFIX&gt;_trim.fastq.gz&#45;&gt;umi_extract -->
<g id="edge7" class="edge">
<title>tmp/&lt;FASTQ_FILE_NAME_PREFIX&gt;_trim.fastq.gz&#45;&gt;umi_extract</title>
<path fill="none" stroke="#000000" d="M494.3365,-1911.8314C472.5362,-1902.2018 445.5805,-1890.295 422.5679,-1880.1299"/>
<polygon fill="#000000" stroke="#000000" points="423.8659,-1876.877 413.3043,-1876.038 421.0375,-1883.2802 423.8659,-1876.877"/>
</g>
<!-- tmp/&lt;FASTQ_FILE_NAME_PREFIX&gt;_extract_trim.fastq.gz&#45;&gt;demultiplex -->
<g id="edge11" class="edge">
<title>tmp/&lt;FASTQ_FILE_NAME_PREFIX&gt;_extract_trim.fastq.gz&#45;&gt;demultiplex</title>
<path fill="none" stroke="#000000" d="M325.7763,-1767.8314C315.7735,-1759.0485 303.6133,-1748.3712 292.7684,-1738.8489"/>
<polygon fill="#000000" stroke="#000000" points="294.9775,-1736.1308 285.1538,-1732.1628 290.3589,-1741.3909 294.9775,-1736.1308"/>
</g>
<!-- tmp/&lt;FASTQ_FILE_NAME_PREFIX&gt;_deplex/&lt;SAMPLE_ID&gt;.fastq&#45;&gt;h21 -->
<g id="edge13" class="edge">
<title>tmp/&lt;FASTQ_FILE_NAME_PREFIX&gt;_deplex/&lt;SAMPLE_ID&gt;.fastq&#45;&gt;h21</title>
<path fill="none" stroke="#000000" d="M564.2787,-1623.8468C587.8807,-1611.1746 619.3421,-1594.2825 643.4207,-1581.3544"/>
<polygon fill="#000000" stroke="#000000" points="645.1011,-1584.4248 652.2559,-1576.6107 641.7898,-1578.2575 645.1011,-1584.4248"/>
</g>
<!-- tmp/&lt;SAMPLE_ID&gt;/rRNA_map.sam -->
<g id="node31" class="node">
<title>tmp/&lt;SAMPLE_ID&gt;/rRNA_map.sam</title>
<text text-anchor="middle" x="778.4683" y="-1487" font-family="Helvetica,sans-Serif" font-size="10.00" fill="#000000">tmp/&lt;SAMPLE_ID&gt;/rRNA_map.sam</text>
</g>
<!-- h21&#45;&gt;tmp/&lt;SAMPLE_ID&gt;/rRNA_map.sam -->
<g id="edge15" class="edge">
<title>h21&#45;&gt;tmp/&lt;SAMPLE_ID&gt;/rRNA_map.sam</title>
<path fill="none" stroke="#000000" d="M704.4502,-1543.8314C716.7612,-1534.8779 731.7791,-1523.9558 745.062,-1514.2955"/>
<polygon fill="#000000" stroke="#000000" points="747.4657,-1516.8752 753.4944,-1508.1628 743.3484,-1511.214 747.4657,-1516.8752"/>
</g>
<!-- tmp/&lt;SAMPLE_ID&gt;/nonrRNA.fq -->
<g id="node32" class="node">
<title>tmp/&lt;SAMPLE_ID&gt;/nonrRNA.fq</title>
<text text-anchor="middle" x="592.4683" y="-1487" font-family="Helvetica,sans-Serif" font-size="10.00" fill="#000000">tmp/&lt;SAMPLE_ID&gt;/nonrRNA.fq</text>
</g>
<!-- h21&#45;&gt;tmp/&lt;SAMPLE_ID&gt;/nonrRNA.fq -->
<g id="edge16" class="edge">
<title>h21&#45;&gt;tmp/&lt;SAMPLE_ID&gt;/nonrRNA.fq</title>
<path fill="none" stroke="#000000" d="M657.5145,-1543.8314C646.7988,-1534.9632 633.7494,-1524.1637 622.1593,-1514.5718"/>
<polygon fill="#000000" stroke="#000000" points="624.3505,-1511.8422 614.4151,-1508.1628 619.8875,-1517.2349 624.3505,-1511.8422"/>
</g>
<!-- tmp/&lt;SAMPLE_ID&gt;/unaligned.fq -->
<g id="node33" class="node">
<title>tmp/&lt;SAMPLE_ID&gt;/unaligned.fq</title>
<text text-anchor="middle" x="477.4683" y="-1343" font-family="Helvetica,sans-Serif" font-size="10.00" fill="#000000">tmp/&lt;SAMPLE_ID&gt;/unaligned.fq</text>
</g>
<!-- h22&#45;&gt;tmp/&lt;SAMPLE_ID&gt;/unaligned.fq -->
<g id="edge19" class="edge">
<title>h22&#45;&gt;tmp/&lt;SAMPLE_ID&gt;/unaligned.fq</title>
<path fill="none" stroke="#000000" d="M598.3228,-1404.7941C577.4558,-1394.6426 548.1446,-1380.3831 523.6146,-1368.4495"/>
<polygon fill="#000000" stroke="#000000" points="524.9984,-1365.2306 514.4749,-1364.0032 521.9361,-1371.5252 524.9984,-1365.2306"/>
</g>
<!-- tmp/&lt;SAMPLE_ID&gt;/orf_map.sam -->
<g id="node34" class="node">
<title>tmp/&lt;SAMPLE_ID&gt;/orf_map.sam</title>
<text text-anchor="middle" x="657.4683" y="-1343" font-family="Helvetica,sans-Serif" font-size="10.00" fill="#000000">tmp/&lt;SAMPLE_ID&gt;/orf_map.sam</text>
</g>
<!-- h22&#45;&gt;tmp/&lt;SAMPLE_ID&gt;/orf_map.sam -->
<g id="edge20" class="edge">
<title>h22&#45;&gt;tmp/&lt;SAMPLE_ID&gt;/orf_map.sam</title>
<path fill="none" stroke="#000000" d="M633.5433,-1399.8314C637.0785,-1391.8771 641.3043,-1382.369 645.214,-1373.5723"/>
<polygon fill="#000000" stroke="#000000" points="648.4215,-1374.9729 649.2846,-1364.4133 642.0249,-1372.1299 648.4215,-1374.9729"/>
</g>
<!-- samindex -->
<g id="node20" class="node">
<title>samindex</title>
<polygon fill="none" stroke="#000000" points="731.6479,-1004 649.2887,-1004 649.2887,-968 731.6479,-968 731.6479,-1004"/>
<text text-anchor="middle" x="690.4683" y="-983" font-family="Helvetica,sans-Serif" font-size="10.00" fill="#000000">samtools index</text>
</g>
<!-- tmp/&lt;SAMPLE_ID&gt;/pre_dedup.bam+.bai -->
<g id="node40" class="node">
<title>tmp/&lt;SAMPLE_ID&gt;/pre_dedup.bam+.bai</title>
<text text-anchor="middle" x="690.4683" y="-911" font-family="Helvetica,sans-Serif" font-size="10.00" fill="#000000">tmp/&lt;SAMPLE_ID&gt;/pre_dedup.bam+.bai</text>
</g>
<!-- samindex&#45;&gt;tmp/&lt;SAMPLE_ID&gt;/pre_dedup.bam+.bai -->
<g id="edge27" class="edge">
<title>samindex&#45;&gt;tmp/&lt;SAMPLE_ID&gt;/pre_dedup.bam+.bai</title>
<path fill="none" stroke="#000000" d="M690.4683,-967.8314C690.4683,-960.131 690.4683,-950.9743 690.4683,-942.4166"/>
<polygon fill="#000000" stroke="#000000" points="693.9684,-942.4132 690.4683,-932.4133 686.9684,-942.4133 693.9684,-942.4132"/>
</g>
<!-- samview -->
<g id="node21" class="node">
<title>samview</title>
<polygon fill="none" stroke="#000000" points="763.8558,-1148 617.0808,-1148 617.0808,-1112 763.8558,-1112 763.8558,-1148"/>
<text text-anchor="middle" x="690.4683" y="-1127" font-family="Helvetica,sans-Serif" font-size="10.00" fill="#000000">samtools view | samtools sort</text>
</g>
<!-- tmp/&lt;SAMPLE_ID&gt;/pre_dedup.bam -->
<g id="node39" class="node">
<title>tmp/&lt;SAMPLE_ID&gt;/pre_dedup.bam</title>
<text text-anchor="middle" x="690.4683" y="-1055" font-family="Helvetica,sans-Serif" font-size="10.00" fill="#000000">tmp/&lt;SAMPLE_ID&gt;/pre_dedup.bam</text>
</g>
<!-- samview&#45;&gt;tmp/&lt;SAMPLE_ID&gt;/pre_dedup.bam -->
<g id="edge25" class="edge">
<title>samview&#45;&gt;tmp/&lt;SAMPLE_ID&gt;/pre_dedup.bam</title>
<path fill="none" stroke="#000000" d="M690.4683,-1111.8314C690.4683,-1104.131 690.4683,-1094.9743 690.4683,-1086.4166"/>
<polygon fill="#000000" stroke="#000000" points="693.9684,-1086.4132 690.4683,-1076.4133 686.9684,-1086.4133 693.9684,-1086.4132"/>
</g>
<!-- umi_pre_group -->
<g id="node22" class="node">
<title>umi_pre_group</title>
<polygon fill="none" stroke="#000000" points="577.0944,-860 489.8422,-860 489.8422,-824 577.0944,-824 577.0944,-860"/>
<text text-anchor="middle" x="533.4683" y="-839" font-family="Helvetica,sans-Serif" font-size="10.00" fill="#000000">umi_tools group</text>
</g>
<!-- tmp/&lt;SAMPLE_ID&gt;/pre_dedup_groups.tsv -->
<g id="node37" class="node">
<title>tmp/&lt;SAMPLE_ID&gt;/pre_dedup_groups.tsv</title>
<text text-anchor="middle" x="476.4683" y="-767" font-family="Helvetica,sans-Serif" font-size="10.00" fill="#000000">tmp/&lt;SAMPLE_ID&gt;/pre_dedup_groups.tsv</text>
</g>
<!-- umi_pre_group&#45;&gt;tmp/&lt;SAMPLE_ID&gt;/pre_dedup_groups.tsv -->
<g id="edge29" class="edge">
<title>umi_pre_group&#45;&gt;tmp/&lt;SAMPLE_ID&gt;/pre_dedup_groups.tsv</title>
<path fill="none" stroke="#000000" d="M519.0848,-823.8314C512.5197,-815.5386 504.6176,-805.557 497.4105,-796.4533"/>
<polygon fill="#000000" stroke="#000000" points="499.9967,-794.0813 491.0455,-788.4133 494.5084,-798.4262 499.9967,-794.0813"/>
</g>
<!-- umi_dedup -->
<g id="node23" class="node">
<title>umi_dedup</title>
<polygon fill="none" stroke="#000000" points="743.325,-860 653.6116,-860 653.6116,-824 743.325,-824 743.325,-860"/>
<text text-anchor="middle" x="698.4683" y="-839" font-family="Helvetica,sans-Serif" font-size="10.00" fill="#000000">umi_tools dedup</text>
</g>
<!-- output/&lt;SAMPLE_ID&gt;/&lt;SAMPLE_ID&gt;.bam -->
<g id="node41" class="node">
<title>output/&lt;SAMPLE_ID&gt;/&lt;SAMPLE_ID&gt;.bam</title>
<text text-anchor="middle" x="700.4683" y="-767" font-family="Helvetica,sans-Serif" font-size="10.00" fill="#000000">output/&lt;SAMPLE_ID&gt;/&lt;SAMPLE_ID&gt;.bam</text>
</g>
<!-- umi_dedup&#45;&gt;output/&lt;SAMPLE_ID&gt;/&lt;SAMPLE_ID&gt;.bam -->
<g id="edge31" class="edge">
<title>umi_dedup&#45;&gt;output/&lt;SAMPLE_ID&gt;/&lt;SAMPLE_ID&gt;.bam</title>
<path fill="none" stroke="#000000" d="M698.973,-823.8314C699.1869,-816.131 699.4412,-806.9743 699.679,-798.4166"/>
<polygon fill="#000000" stroke="#000000" points="703.1777,-798.5066 699.9568,-788.4133 696.1804,-798.3122 703.1777,-798.5066"/>
</g>
<!-- umi_post_group -->
<g id="node24" class="node">
<title>umi_post_group</title>
<polygon fill="none" stroke="#000000" points="581.0944,-716 493.8422,-716 493.8422,-680 581.0944,-680 581.0944,-716"/>
<text text-anchor="middle" x="537.4683" y="-695" font-family="Helvetica,sans-Serif" font-size="10.00" fill="#000000">umi_tools group</text>
</g>
<!-- tmp/&lt;SAMPLE_ID&gt;/post_dedup_groups.tsv -->
<g id="node38" class="node">
<title>tmp/&lt;SAMPLE_ID&gt;/post_dedup_groups.tsv</title>
<text text-anchor="middle" x="474.4683" y="-623" font-family="Helvetica,sans-Serif" font-size="10.00" fill="#000000">tmp/&lt;SAMPLE_ID&gt;/post_dedup_groups.tsv</text>
</g>
<!-- umi_post_group&#45;&gt;tmp/&lt;SAMPLE_ID&gt;/post_dedup_groups.tsv -->
<g id="edge33" class="edge">
<title>umi_post_group&#45;&gt;tmp/&lt;SAMPLE_ID&gt;/post_dedup_groups.tsv</title>
<path fill="none" stroke="#000000" d="M521.5708,-679.8314C514.2406,-671.454 505.4023,-661.3531 497.3714,-652.1749"/>
<polygon fill="#000000" stroke="#000000" points="499.799,-649.6343 490.5799,-644.4133 494.531,-654.2438 499.799,-649.6343"/>
</g>
<!-- samindex_dedup -->
<g id="node25" class="node">
<title>samindex_dedup</title>
<polygon fill="none" stroke="#000000" points="745.6479,-716 663.2887,-716 663.2887,-680 745.6479,-680 745.6479,-716"/>
<text text-anchor="middle" x="704.4683" y="-695" font-family="Helvetica,sans-Serif" font-size="10.00" fill="#000000">samtools index</text>
</g>
<!-- output/&lt;SAMPLE_ID&gt;/&lt;SAMPLE_ID&gt;.bam+.bai -->
<g id="node42" class="node">
<title>output/&lt;SAMPLE_ID&gt;/&lt;SAMPLE_ID&gt;.bam+.bai</title>
<text text-anchor="middle" x="712.4683" y="-623" font-family="Helvetica,sans-Serif" font-size="10.00" fill="#000000">output/&lt;SAMPLE_ID&gt;/&lt;SAMPLE_ID&gt;.bam+.bai</text>
</g>
<!-- samindex_dedup&#45;&gt;output/&lt;SAMPLE_ID&gt;/&lt;SAMPLE_ID&gt;.bam+.bai -->
<g id="edge35" class="edge">
<title>samindex_dedup&#45;&gt;output/&lt;SAMPLE_ID&gt;/&lt;SAMPLE_ID&gt;.bam+.bai</title>
<path fill="none" stroke="#000000" d="M706.4871,-679.8314C707.3427,-672.131 708.3601,-662.9743 709.3109,-654.4166"/>
<polygon fill="#000000" stroke="#000000" points="712.7966,-654.7386 710.4224,-644.4133 705.8394,-653.9656 712.7966,-654.7386"/>
</g>
<!-- trim -->
<g id="node26" class="node">
<title>trim</title>
<polygon fill="none" stroke="#000000" points="712.9723,-1292 601.9643,-1292 601.9643,-1256 712.9723,-1256 712.9723,-1292"/>
<text text-anchor="middle" x="657.4683" y="-1271" font-family="Helvetica,sans-Serif" font-size="10.00" fill="#000000">trim_5p_mismatch.py</text>
</g>
<!-- tmp/&lt;SAMPLE_ID&gt;/trim_5p_mismatch.tsv -->
<g id="node35" class="node">
<title>tmp/&lt;SAMPLE_ID&gt;/trim_5p_mismatch.tsv</title>
<text text-anchor="middle" x="473.4683" y="-1199" font-family="Helvetica,sans-Serif" font-size="10.00" fill="#000000">tmp/&lt;SAMPLE_ID&gt;/trim_5p_mismatch.tsv</text>
</g>
<!-- trim&#45;&gt;tmp/&lt;SAMPLE_ID&gt;/trim_5p_mismatch.tsv -->
<g id="edge23" class="edge">
<title>trim&#45;&gt;tmp/&lt;SAMPLE_ID&gt;/trim_5p_mismatch.tsv</title>
<path fill="none" stroke="#000000" d="M611.0373,-1255.8314C586.1003,-1246.0734 555.1874,-1233.977 528.9857,-1223.7242"/>
<polygon fill="#000000" stroke="#000000" points="530.1533,-1220.4227 519.5654,-1220.038 527.6024,-1226.9414 530.1533,-1220.4227"/>
</g>
<!-- tmp/&lt;SAMPLE_ID&gt;/orf_map_clean.sam -->
<g id="node36" class="node">
<title>tmp/&lt;SAMPLE_ID&gt;/orf_map_clean.sam</title>
<text text-anchor="middle" x="690.4683" y="-1199" font-family="Helvetica,sans-Serif" font-size="10.00" fill="#000000">tmp/&lt;SAMPLE_ID&gt;/orf_map_clean.sam</text>
</g>
<!-- trim&#45;&gt;tmp/&lt;SAMPLE_ID&gt;/orf_map_clean.sam -->
<g id="edge22" class="edge">
<title>trim&#45;&gt;tmp/&lt;SAMPLE_ID&gt;/orf_map_clean.sam</title>
<path fill="none" stroke="#000000" d="M665.7956,-1255.8314C669.4413,-1247.8771 673.7992,-1238.369 677.831,-1229.5723"/>
<polygon fill="#000000" stroke="#000000" points="681.044,-1230.9622 682.0289,-1220.4133 674.6806,-1228.0456 681.044,-1230.9622"/>
</g>
<!-- bedplus -->
<g id="node27" class="node">
<title>bedplus</title>
<polygon fill="none" stroke="#000000" points="578.0002,-572 454.9364,-572 454.9364,-536 578.0002,-536 578.0002,-572"/>
<text text-anchor="middle" x="516.4683" y="-551" font-family="Helvetica,sans-Serif" font-size="10.00" fill="#000000">bedtools genomecov (+)</text>
</g>
<!-- output/&lt;SAMPLE_ID&gt;/plus.bedgraph -->
<g id="node43" class="node">
<title>output/&lt;SAMPLE_ID&gt;/plus.bedgraph</title>
<text text-anchor="middle" x="484.4683" y="-479" font-family="Helvetica,sans-Serif" font-size="10.00" fill="#000000">output/&lt;SAMPLE_ID&gt;/plus.bedgraph</text>
</g>
<!-- bedplus&#45;&gt;output/&lt;SAMPLE_ID&gt;/plus.bedgraph -->
<g id="edge37" class="edge">
<title>bedplus&#45;&gt;output/&lt;SAMPLE_ID&gt;/plus.bedgraph</title>
<path fill="none" stroke="#000000" d="M508.3934,-535.8314C504.8581,-527.8771 500.6323,-518.369 496.7227,-509.5723"/>
<polygon fill="#000000" stroke="#000000" points="499.9118,-508.1299 492.652,-500.4133 493.5151,-510.9729 499.9118,-508.1299"/>
</g>
<!-- bedminus -->
<g id="node28" class="node">
<title>bedminus</title>
<polygon fill="none" stroke="#000000" points="760.9893,-572 639.9473,-572 639.9473,-536 760.9893,-536 760.9893,-572"/>
<text text-anchor="middle" x="700.4683" y="-551" font-family="Helvetica,sans-Serif" font-size="10.00" fill="#000000">bedtools genomecov (&#45;)</text>
</g>
<!-- output/&lt;SAMPLE_ID&gt;/minus.bedgraph -->
<g id="node44" class="node">
<title>output/&lt;SAMPLE_ID&gt;/minus.bedgraph</title>
<text text-anchor="middle" x="687.4683" y="-479" font-family="Helvetica,sans-Serif" font-size="10.00" fill="#000000">output/&lt;SAMPLE_ID&gt;/minus.bedgraph</text>
</g>
<!-- bedminus&#45;&gt;output/&lt;SAMPLE_ID&gt;/minus.bedgraph -->
<g id="edge39" class="edge">
<title>bedminus&#45;&gt;output/&lt;SAMPLE_ID&gt;/minus.bedgraph</title>
<path fill="none" stroke="#000000" d="M697.1879,-535.8314C695.7975,-528.131 694.1442,-518.9743 692.5991,-510.4166"/>
<polygon fill="#000000" stroke="#000000" points="696.0141,-509.6322 690.7929,-500.4133 689.1255,-510.8761 696.0141,-509.6322"/>
</g>
<!-- output/&lt;SAMPLE_ID&gt;/&lt;SAMPLE_ID&gt;.h5 -->
<g id="node45" class="node">
<title>output/&lt;SAMPLE_ID&gt;/&lt;SAMPLE_ID&gt;.h5</title>
<text text-anchor="middle" x="899.4683" y="-479" font-family="Helvetica,sans-Serif" font-size="10.00" fill="#000000">output/&lt;SAMPLE_ID&gt;/&lt;SAMPLE_ID&gt;.h5</text>
</g>
<!-- bam2h5&#45;&gt;output/&lt;SAMPLE_ID&gt;/&lt;SAMPLE_ID&gt;.h5 -->
<g id="edge42" class="edge">
<title>bam2h5&#45;&gt;output/&lt;SAMPLE_ID&gt;/&lt;SAMPLE_ID&gt;.h5</title>
<path fill="none" stroke="#000000" d="M899.4683,-535.8314C899.4683,-528.131 899.4683,-518.9743 899.4683,-510.4166"/>
<polygon fill="#000000" stroke="#000000" points="902.9684,-510.4132 899.4683,-500.4133 895.9684,-510.4133 902.9684,-510.4132"/>
</g>
<!-- pdfs -->
<g id="node46" class="node">
<title>pdfs</title>
<polygon fill="none" stroke="#000000" stroke-dasharray="5,2" points="611.6574,-356 369.2792,-356 369.2792,-168 611.6574,-168 611.6574,-356"/>
<text text-anchor="middle" x="490.4683" y="-343" font-family="Helvetica,sans-Serif" font-size="10.00" fill="#000000">output/&lt;SAMPLE_ID&gt;/3nt_periodicity.pdf</text>
<text text-anchor="middle" x="490.4683" y="-331" font-family="Helvetica,sans-Serif" font-size="10.00" fill="#000000">&#13;</text>
<text text-anchor="middle" x="490.4683" y="-319" font-family="Helvetica,sans-Serif" font-size="10.00" fill="#000000">output/&lt;SAMPLE_ID&gt;/codon_ribodens.pdf</text>
<text text-anchor="middle" x="490.4683" y="-307" font-family="Helvetica,sans-Serif" font-size="10.00" fill="#000000">&#13;</text>
<text text-anchor="middle" x="490.4683" y="-295" font-family="Helvetica,sans-Serif" font-size="10.00" fill="#000000">output/&lt;SAMPLE_ID&gt;/read_lengths.pdf</text>
<text text-anchor="middle" x="490.4683" y="-283" font-family="Helvetica,sans-Serif" font-size="10.00" fill="#000000">&#13;</text>
<text text-anchor="middle" x="490.4683" y="-271" font-family="Helvetica,sans-Serif" font-size="10.00" fill="#000000">output/&lt;SAMPLE_ID&gt;/pos_sp_rpf_norm_reads.pdf</text>
<text text-anchor="middle" x="490.4683" y="-259" font-family="Helvetica,sans-Serif" font-size="10.00" fill="#000000">&#13;</text>
<text text-anchor="middle" x="490.4683" y="-247" font-family="Helvetica,sans-Serif" font-size="10.00" fill="#000000">output/&lt;SAMPLE_ID&gt;/features.pdf</text>
<text text-anchor="middle" x="490.4683" y="-235" font-family="Helvetica,sans-Serif" font-size="10.00" fill="#000000">&#13;</text>
<text text-anchor="middle" x="490.4683" y="-223" font-family="Helvetica,sans-Serif" font-size="10.00" fill="#000000">output/&lt;SAMPLE_ID&gt;/startcodon_ribogridbar.pdf</text>
<text text-anchor="middle" x="490.4683" y="-211" font-family="Helvetica,sans-Serif" font-size="10.00" fill="#000000">&#13;</text>
<text text-anchor="middle" x="490.4683" y="-199" font-family="Helvetica,sans-Serif" font-size="10.00" fill="#000000">output/&lt;SAMPLE_ID&gt;/startcodon_ribogrid.pdf</text>
<text text-anchor="middle" x="490.4683" y="-187" font-family="Helvetica,sans-Serif" font-size="10.00" fill="#000000">&#13;</text>
<text text-anchor="middle" x="490.4683" y="-175" font-family="Helvetica,sans-Serif" font-size="10.00" fill="#000000">output/&lt;SAMPLE_ID&gt;/3ntframe_propbygene.pdf&#13;</text>
</g>
<!-- statsfigs&#45;&gt;pdfs -->
<g id="edge47" class="edge">
<title>statsfigs&#45;&gt;pdfs</title>
<path fill="none" stroke="#000000" d="M842.8344,-406.249C787.1812,-400.9962 700.4622,-388.5824 621.2782,-356.0352"/>
<polygon fill="#000000" stroke="#000000" points="622.235,-352.6396 611.6616,-351.9654 619.5067,-359.0861 622.235,-352.6396"/>
</g>
<!-- tsvs -->
<g id="node47" class="node">
<title>tsvs</title>
<polygon fill="none" stroke="#000000" stroke-dasharray="5,2" points="871.0393,-332 629.8973,-332 629.8973,-192 871.0393,-192 871.0393,-332"/>
<text text-anchor="middle" x="750.4683" y="-319" font-family="Helvetica,sans-Serif" font-size="10.00" fill="#000000">output/&lt;SAMPLE_ID&gt;/3nt_periodicity.tsv</text>
<text text-anchor="middle" x="750.4683" y="-307" font-family="Helvetica,sans-Serif" font-size="10.00" fill="#000000">&#13;</text>
<text text-anchor="middle" x="750.4683" y="-295" font-family="Helvetica,sans-Serif" font-size="10.00" fill="#000000">output/&lt;SAMPLE_ID&gt;/codon_ribodens.tsv</text>
<text text-anchor="middle" x="750.4683" y="-283" font-family="Helvetica,sans-Serif" font-size="10.00" fill="#000000">&#13;</text>
<text text-anchor="middle" x="750.4683" y="-271" font-family="Helvetica,sans-Serif" font-size="10.00" fill="#000000">output/&lt;SAMPLE_ID&gt;/read_lengths.tsv</text>
<text text-anchor="middle" x="750.4683" y="-259" font-family="Helvetica,sans-Serif" font-size="10.00" fill="#000000">&#13;</text>
<text text-anchor="middle" x="750.4683" y="-247" font-family="Helvetica,sans-Serif" font-size="10.00" fill="#000000">output/&lt;SAMPLE_ID&gt;/pos_sp_rpf_norm_reads.tsv</text>
<text text-anchor="middle" x="750.4683" y="-235" font-family="Helvetica,sans-Serif" font-size="10.00" fill="#000000">&#13;</text>
<text text-anchor="middle" x="750.4683" y="-223" font-family="Helvetica,sans-Serif" font-size="10.00" fill="#000000">output/&lt;SAMPLE_ID&gt;/pos_sp_nt_freq.tsv</text>
<text text-anchor="middle" x="750.4683" y="-211" font-family="Helvetica,sans-Serif" font-size="10.00" fill="#000000">&#13;</text>
<text text-anchor="middle" x="750.4683" y="-199" font-family="Helvetica,sans-Serif" font-size="10.00" fill="#000000">output/&lt;SAMPLE_ID&gt;/3ntframe_bygene.tsv&#13;</text>
</g>
<!-- statsfigs&#45;&gt;tsvs -->
<g id="edge48" class="edge">
<title>statsfigs&#45;&gt;tsvs</title>
<path fill="none" stroke="#000000" d="M881.198,-391.8523C867.6328,-378.3782 848.1213,-358.9976 828.295,-339.3043"/>
<polygon fill="#000000" stroke="#000000" points="830.5481,-336.6092 820.9867,-332.0451 825.6151,-341.5756 830.5481,-336.6092"/>
</g>
<!-- output/&lt;SAMPLE_ID&gt;/tpms.tsv -->
<g id="node48" class="node">
<title>output/&lt;SAMPLE_ID&gt;/tpms.tsv</title>
<text text-anchor="middle" x="966.4683" y="-259" font-family="Helvetica,sans-Serif" font-size="10.00" fill="#000000">output/&lt;SAMPLE_ID&gt;/tpms.tsv</text>
</g>
<!-- statsfigs&#45;&gt;output/&lt;SAMPLE_ID&gt;/tpms.tsv -->
<g id="edge49" class="edge">
<title>statsfigs&#45;&gt;output/&lt;SAMPLE_ID&gt;/tpms.tsv</title>
<path fill="none" stroke="#000000" d="M907.6838,-391.8523C919.2369,-366.332 940.382,-319.6234 953.9134,-289.7332"/>
<polygon fill="#000000" stroke="#000000" points="957.2499,-290.8496 958.1856,-280.2961 950.8729,-287.9627 957.2499,-290.8496"/>
</g>
<!-- tmp/&lt;SAMPLE_ID&gt;/nonrRNA.fq&#45;&gt;h22 -->
<g id="edge18" class="edge">
<title>tmp/&lt;SAMPLE_ID&gt;/nonrRNA.fq&#45;&gt;h22</title>
<path fill="none" stroke="#000000" d="M600.7956,-1471.8314C604.4413,-1463.8771 608.7992,-1454.369 612.831,-1445.5723"/>
<polygon fill="#000000" stroke="#000000" points="616.044,-1446.9622 617.0289,-1436.4133 609.6806,-1444.0456 616.044,-1446.9622"/>
</g>
<!-- tmp/&lt;SAMPLE_ID&gt;/orf_map.sam&#45;&gt;trim -->
<g id="edge21" class="edge">
<title>tmp/&lt;SAMPLE_ID&gt;/orf_map.sam&#45;&gt;trim</title>
<path fill="none" stroke="#000000" d="M657.4683,-1327.8314C657.4683,-1320.131 657.4683,-1310.9743 657.4683,-1302.4166"/>
<polygon fill="#000000" stroke="#000000" points="660.9684,-1302.4132 657.4683,-1292.4133 653.9684,-1302.4133 660.9684,-1302.4132"/>
</g>
<!-- tmp/&lt;SAMPLE_ID&gt;/orf_map_clean.sam&#45;&gt;samview -->
<g id="edge24" class="edge">
<title>tmp/&lt;SAMPLE_ID&gt;/orf_map_clean.sam&#45;&gt;samview</title>
<path fill="none" stroke="#000000" d="M690.4683,-1183.8314C690.4683,-1176.131 690.4683,-1166.9743 690.4683,-1158.4166"/>
<polygon fill="#000000" stroke="#000000" points="693.9684,-1158.4132 690.4683,-1148.4133 686.9684,-1158.4133 693.9684,-1158.4132"/>
</g>
<!-- tmp/&lt;SAMPLE_ID&gt;/pre_dedup.bam&#45;&gt;samindex -->
<g id="edge26" class="edge">
<title>tmp/&lt;SAMPLE_ID&gt;/pre_dedup.bam&#45;&gt;samindex</title>
<path fill="none" stroke="#000000" d="M690.4683,-1039.8314C690.4683,-1032.131 690.4683,-1022.9743 690.4683,-1014.4166"/>
<polygon fill="#000000" stroke="#000000" points="693.9684,-1014.4132 690.4683,-1004.4133 686.9684,-1014.4133 693.9684,-1014.4132"/>
</g>
<!-- tmp/&lt;SAMPLE_ID&gt;/pre_dedup.bam+.bai&#45;&gt;umi_pre_group -->
<g id="edge28" class="edge">
<title>tmp/&lt;SAMPLE_ID&gt;/pre_dedup.bam+.bai&#45;&gt;umi_pre_group</title>
<path fill="none" stroke="#000000" d="M650.8506,-895.8314C629.9461,-886.2446 604.12,-874.4008 582.0195,-864.2655"/>
<polygon fill="#000000" stroke="#000000" points="583.3499,-861.0252 572.8012,-860.038 580.4319,-867.388 583.3499,-861.0252"/>
</g>
<!-- tmp/&lt;SAMPLE_ID&gt;/pre_dedup.bam+.bai&#45;&gt;umi_dedup -->
<g id="edge30" class="edge">
<title>tmp/&lt;SAMPLE_ID&gt;/pre_dedup.bam+.bai&#45;&gt;umi_dedup</title>
<path fill="none" stroke="#000000" d="M692.4871,-895.8314C693.3427,-888.131 694.3601,-878.9743 695.3109,-870.4166"/>
<polygon fill="#000000" stroke="#000000" points="698.7966,-870.7386 696.4224,-860.4133 691.8394,-869.9656 698.7966,-870.7386"/>
</g>
<!-- output/&lt;SAMPLE_ID&gt;/&lt;SAMPLE_ID&gt;.bam&#45;&gt;umi_post_group -->
<g id="edge32" class="edge">
<title>output/&lt;SAMPLE_ID&gt;/&lt;SAMPLE_ID&gt;.bam&#45;&gt;umi_post_group</title>
<path fill="none" stroke="#000000" d="M659.3365,-751.8314C637.5362,-742.2018 610.5805,-730.295 587.5679,-720.1299"/>
<polygon fill="#000000" stroke="#000000" points="588.8659,-716.877 578.3043,-716.038 586.0375,-723.2802 588.8659,-716.877"/>
</g>
<!-- output/&lt;SAMPLE_ID&gt;/&lt;SAMPLE_ID&gt;.bam&#45;&gt;samindex_dedup -->
<g id="edge34" class="edge">
<title>output/&lt;SAMPLE_ID&gt;/&lt;SAMPLE_ID&gt;.bam&#45;&gt;samindex_dedup</title>
<path fill="none" stroke="#000000" d="M701.4777,-751.8314C701.9055,-744.131 702.4142,-734.9743 702.8896,-726.4166"/>
<polygon fill="#000000" stroke="#000000" points="706.3852,-726.592 703.4454,-716.4133 699.3959,-726.2037 706.3852,-726.592"/>
</g>
<!-- output/&lt;SAMPLE_ID&gt;/&lt;SAMPLE_ID&gt;.bam+.bai&#45;&gt;bedplus -->
<g id="edge36" class="edge">
<title>output/&lt;SAMPLE_ID&gt;/&lt;SAMPLE_ID&gt;.bam+.bai&#45;&gt;bedplus</title>
<path fill="none" stroke="#000000" d="M663.2622,-607.9243C636.5844,-598.1243 603.4297,-585.945 575.3831,-575.6422"/>
<polygon fill="#000000" stroke="#000000" points="576.2882,-572.246 565.6946,-572.0831 573.8745,-578.8167 576.2882,-572.246"/>
</g>
<!-- output/&lt;SAMPLE_ID&gt;/&lt;SAMPLE_ID&gt;.bam+.bai&#45;&gt;bedminus -->
<g id="edge38" class="edge">
<title>output/&lt;SAMPLE_ID&gt;/&lt;SAMPLE_ID&gt;.bam+.bai&#45;&gt;bedminus</title>
<path fill="none" stroke="#000000" d="M709.4402,-607.8314C708.1568,-600.131 706.6307,-590.9743 705.2044,-582.4166"/>
<polygon fill="#000000" stroke="#000000" points="708.6336,-581.7018 703.5372,-572.4133 701.7289,-582.8526 708.6336,-581.7018"/>
</g>
<!-- output/&lt;SAMPLE_ID&gt;/&lt;SAMPLE_ID&gt;.bam+.bai&#45;&gt;bam2h5 -->
<g id="edge40" class="edge">
<title>output/&lt;SAMPLE_ID&gt;/&lt;SAMPLE_ID&gt;.bam+.bai&#45;&gt;bam2h5</title>
<path fill="none" stroke="#000000" d="M759.6563,-607.8314C787.8211,-596.9872 823.4865,-583.255 851.7455,-572.3746"/>
<polygon fill="#000000" stroke="#000000" points="853.3332,-575.5138 861.4077,-568.6543 850.8179,-568.9813 853.3332,-575.5138"/>
</g>
<!-- output/&lt;SAMPLE_ID&gt;/&lt;SAMPLE_ID&gt;.h5&#45;&gt;statsfigs -->
<g id="edge43" class="edge">
<title>output/&lt;SAMPLE_ID&gt;/&lt;SAMPLE_ID&gt;.h5&#45;&gt;statsfigs</title>
<path fill="none" stroke="#000000" d="M899.4683,-463.8314C899.4683,-456.131 899.4683,-446.9743 899.4683,-438.4166"/>
<polygon fill="#000000" stroke="#000000" points="902.9684,-438.4132 899.4683,-428.4133 895.9684,-438.4133 902.9684,-438.4132"/>
</g>
<!-- collate -->
<g id="node49" class="node">
<title>collate</title>
<polygon fill="none" stroke="#000000" points="1007.5864,-124 925.3502,-124 925.3502,-88 1007.5864,-88 1007.5864,-124"/>
<text text-anchor="middle" x="966.4683" y="-103" font-family="Helvetica,sans-Serif" font-size="10.00" fill="#000000">collate_tpms.R</text>
</g>
<!-- output/&lt;SAMPLE_ID&gt;/tpms.tsv&#45;&gt;collate -->
<g id="edge50" class="edge">
<title>output/&lt;SAMPLE_ID&gt;/tpms.tsv&#45;&gt;collate</title>
<path fill="none" stroke="#000000" d="M966.4683,-243.7995C966.4683,-216.9103 966.4683,-166.3255 966.4683,-134.4926"/>
<polygon fill="#000000" stroke="#000000" points="969.9684,-134.0845 966.4683,-124.0846 962.9684,-134.0846 969.9684,-134.0845"/>
</g>
<!-- output/TPMs_collated.tsv -->
<g id="node50" class="node">
<title>output/TPMs_collated.tsv</title>
<text text-anchor="middle" x="966.4683" y="-31" font-family="Helvetica,sans-Serif" font-size="10.00" fill="#000000">output/TPMs_collated.tsv</text>
</g>
<!-- collate&#45;&gt;output/TPMs_collated.tsv -->
<g id="edge51" class="edge">
<title>collate&#45;&gt;output/TPMs_collated.tsv</title>
<path fill="none" stroke="#000000" d="M966.4683,-87.8314C966.4683,-80.131 966.4683,-70.9743 966.4683,-62.4166"/>
<polygon fill="#000000" stroke="#000000" points="969.9684,-62.4132 966.4683,-52.4133 962.9684,-62.4133 969.9684,-62.4132"/>
</g>
</g>
</svg>
