<?xml version="1.0" encoding="UTF-8" standalone="no"?>
<!DOCTYPE svg PUBLIC "-//W3C//DTD SVG 1.1//EN"
 "http://www.w3.org/Graphics/SVG/1.1/DTD/svg11.dtd">
<!-- Generated by graphviz version 2.40.1 (20161225.0304)
 -->
<!-- Title: G Pages: 1 -->
<svg width="1561pt" height="1652pt"
 viewBox="0.00 0.00 1561.00 1652.00" xmlns="http://www.w3.org/2000/svg" xmlns:xlink="http://www.w3.org/1999/xlink">
<g id="graph0" class="graph" transform="scale(1 1) rotate(0) translate(4 1648)">
<title>G</title>
<polygon fill="#ffffff" stroke="transparent" points="-4,4 -4,-1648 1557,-1648 1557,4 -4,4"/>
<g id="clust1" class="cluster">
<title>cluster_data</title>
<polygon fill="none" stroke="#000000" stroke-dasharray="5,2" points="735,-1472 735,-1636 1545,-1636 1545,-1472 735,-1472"/>
<text text-anchor="middle" x="753.558" y="-1623" font-family="Helvetica,sans-Serif" font-size="10.00" fill="#000000">Data</text>
</g>
<g id="clust2" class="cluster">
<title>cluster_organism</title>
<polygon fill="none" stroke="#000000" stroke-dasharray="5,2" points="837,-1508 837,-1580 1025,-1580 1025,-1508 837,-1508"/>
<text text-anchor="middle" x="877.784" y="-1567" font-family="Helvetica,sans-Serif" font-size="10.00" fill="#000000">Organism data</text>
</g>
<g id="clust3" class="cluster">
<title>cluster_contaminants</title>
<polygon fill="none" stroke="#000000" stroke-dasharray="5,2" points="743,-1508 743,-1580 829,-1580 829,-1508 743,-1508"/>
<text text-anchor="middle" x="781.8395" y="-1567" font-family="Helvetica,sans-Serif" font-size="10.00" fill="#000000">Contaminants</text>
</g>
<g id="clust4" class="cluster">
<title>cluster_additional_organism</title>
<polygon fill="none" stroke="#000000" stroke-dasharray="5,2" points="1347,-1480 1347,-1608 1537,-1608 1537,-1480 1347,-1480"/>
<text text-anchor="middle" x="1428.3455" y="-1595" font-family="Helvetica,sans-Serif" font-size="10.00" fill="#000000">Additional organism&#45;specific data</text>
</g>
<g id="clust5" class="cluster">
<title>cluster_ribosome</title>
<polygon fill="none" stroke="#000000" stroke-dasharray="5,2" points="1033,-1508 1033,-1580 1339,-1580 1339,-1508 1033,-1508"/>
<text text-anchor="middle" x="1093.509" y="-1567" font-family="Helvetica,sans-Serif" font-size="10.00" fill="#000000">Ribosome profiling data</text>
</g>
<g id="clust6" class="cluster">
<title>cluster_indexing</title>
<polygon fill="none" stroke="#000000" points="708,-1320 708,-1464 962,-1464 962,-1320 708,-1320"/>
<text text-anchor="middle" x="734.8965" y="-1451" font-family="Helvetica,sans-Serif" font-size="10.00" fill="#000000">Indexing</text>
</g>
<g id="clust7" class="cluster">
<title>cluster_per_sample_processing</title>
<polygon fill="none" stroke="#000000" points="8,-160 8,-1464 698,-1464 698,-160 8,-160"/>
<text text-anchor="middle" x="69.347" y="-1451" font-family="Helvetica,sans-Serif" font-size="10.00" fill="#000000">Process &lt;SAMPLE_ID&gt;</text>
</g>
<g id="clust8" class="cluster">
<title>cluster_summary</title>
<polygon fill="none" stroke="#000000" points="610,-8 610,-152 890,-152 890,-8 610,-8"/>
<text text-anchor="middle" x="639.387" y="-139" font-family="Helvetica,sans-Serif" font-size="10.00" fill="#000000">Summary</text>
</g>
<!-- input/CDS.fa -->
<g id="node1" class="node">
<title>input/CDS.fa</title>
<text text-anchor="middle" x="881" y="-1531" font-family="Helvetica,sans-Serif" font-size="10.00" fill="#000000">input/CDS.fa</text>
</g>
<!-- h2build2 -->
<g id="node9" class="node">
<title>h2build2</title>
<polygon fill="none" stroke="#000000" points="929.6191,-1436 862.3809,-1436 862.3809,-1400 929.6191,-1400 929.6191,-1436"/>
<text text-anchor="middle" x="896" y="-1415" font-family="Helvetica,sans-Serif" font-size="10.00" fill="#000000">hisat2&#45;build</text>
</g>
<!-- input/CDS.fa&#45;&gt;h2build2 -->
<g id="edge3" class="edge">
<title>input/CDS.fa&#45;&gt;h2build2</title>
<path fill="none" stroke="#000000" d="M883.3438,-1515.875C885.7513,-1497.2566 889.5328,-1468.0131 892.336,-1446.335"/>
<polygon fill="#000000" stroke="#000000" points="895.8118,-1446.7469 893.6232,-1436.3805 888.8696,-1445.8491 895.8118,-1446.7469"/>
</g>
<!-- statsfigs -->
<g id="node21" class="node">
<title>statsfigs</title>
<polygon fill="none" stroke="#000000" points="647.7523,-428 534.2477,-428 534.2477,-392 647.7523,-392 647.7523,-428"/>
<text text-anchor="middle" x="591" y="-407" font-family="Helvetica,sans-Serif" font-size="10.00" fill="#000000">generate_stats_figs.R</text>
</g>
<!-- input/CDS.fa&#45;&gt;statsfigs -->
<g id="edge30" class="edge">
<title>input/CDS.fa&#45;&gt;statsfigs</title>
<path fill="none" stroke="#000000" d="M889.422,-1515.8797C896.9784,-1501.6872 909.4296,-1482.6253 926,-1472 941.2618,-1462.2138 953.4786,-1477.1113 966,-1464 1002.6398,-1425.634 984,-1399.0511 984,-1346 984,-1346 984,-1346 984,-770 984,-584.1494 860.422,-556.1052 699,-464 679.6757,-452.9738 657.8115,-441.8087 638.835,-432.5151"/>
<polygon fill="#000000" stroke="#000000" points="640.2989,-429.3351 629.7749,-428.1119 637.2391,-435.631 640.2989,-429.3351"/>
</g>
<!-- input/CDS.gff3 -->
<g id="node2" class="node">
<title>input/CDS.gff3</title>
<text text-anchor="middle" x="976" y="-1531" font-family="Helvetica,sans-Serif" font-size="10.00" fill="#000000">input/CDS.gff3</text>
</g>
<!-- bam2h5 -->
<g id="node20" class="node">
<title>bam2h5</title>
<polygon fill="none" stroke="#000000" points="629.019,-572 552.981,-572 552.981,-536 629.019,-536 629.019,-572"/>
<text text-anchor="middle" x="591" y="-551" font-family="Helvetica,sans-Serif" font-size="10.00" fill="#000000">bam_to_h5.R</text>
</g>
<!-- input/CDS.gff3&#45;&gt;bam2h5 -->
<g id="edge27" class="edge">
<title>input/CDS.gff3&#45;&gt;bam2h5</title>
<path fill="none" stroke="#000000" d="M983.4931,-1515.9474C996.5277,-1482.8599 1022,-1410.0113 1022,-1346 1022,-1346 1022,-1346 1022,-770 1022,-600.3683 751.8602,-563.9451 639.3151,-556.1312"/>
<polygon fill="#000000" stroke="#000000" points="639.4535,-552.633 629.2484,-555.4799 639.0015,-559.6184 639.4535,-552.633"/>
</g>
<!-- input/CDS.gff3&#45;&gt;statsfigs -->
<g id="edge31" class="edge">
<title>input/CDS.gff3&#45;&gt;statsfigs</title>
<path fill="none" stroke="#000000" d="M990.2495,-1515.9923C1014.215,-1483.8372 1060,-1413.5651 1060,-1346 1060,-1346 1060,-1346 1060,-554 1060,-470.967 787.9628,-430.8848 658.2562,-416.4928"/>
<polygon fill="#000000" stroke="#000000" points="658.36,-412.9835 648.0397,-415.3798 657.6018,-419.9423 658.36,-412.9835"/>
</g>
<!-- input/rRNA.fa -->
<g id="node3" class="node">
<title>input/rRNA.fa</title>
<text text-anchor="middle" x="786" y="-1531.3" font-family="Helvetica,sans-Serif" font-size="9.00" fill="#000000">input/rRNA.fa</text>
</g>
<!-- h2build1 -->
<g id="node8" class="node">
<title>h2build1</title>
<polygon fill="none" stroke="#000000" points="812.6191,-1436 745.3809,-1436 745.3809,-1400 812.6191,-1400 812.6191,-1436"/>
<text text-anchor="middle" x="779" y="-1415" font-family="Helvetica,sans-Serif" font-size="10.00" fill="#000000">hisat2&#45;build</text>
</g>
<!-- input/rRNA.fa&#45;&gt;h2build1 -->
<g id="edge1" class="edge">
<title>input/rRNA.fa&#45;&gt;h2build1</title>
<path fill="none" stroke="#000000" d="M784.9063,-1515.875C783.7878,-1497.3412 782.0341,-1468.2787 780.7277,-1446.6311"/>
<polygon fill="#000000" stroke="#000000" points="784.2053,-1446.1515 780.1092,-1436.3805 777.218,-1446.5732 784.2053,-1446.1515"/>
</g>
<!-- data -->
<g id="node4" class="node">
<title>data</title>
<polygon fill="none" stroke="#000000" stroke-dasharray="5,2" points="1528.8391,-1580 1355.1609,-1580 1355.1609,-1488 1528.8391,-1488 1528.8391,-1580"/>
<text text-anchor="middle" x="1442" y="-1567" font-family="Helvetica,sans-Serif" font-size="10.00" fill="#000000">data/codon_pos_i200.RData</text>
<text text-anchor="middle" x="1442" y="-1555" font-family="Helvetica,sans-Serif" font-size="10.00" fill="#000000">&#13;</text>
<text text-anchor="middle" x="1442" y="-1543" font-family="Helvetica,sans-Serif" font-size="10.00" fill="#000000">data/features.tsv</text>
<text text-anchor="middle" x="1442" y="-1531" font-family="Helvetica,sans-Serif" font-size="10.00" fill="#000000">&#13;</text>
<text text-anchor="middle" x="1442" y="-1519" font-family="Helvetica,sans-Serif" font-size="10.00" fill="#000000">data/tRNAs.tsv</text>
<text text-anchor="middle" x="1442" y="-1507" font-family="Helvetica,sans-Serif" font-size="10.00" fill="#000000">&#13;</text>
<text text-anchor="middle" x="1442" y="-1495" font-family="Helvetica,sans-Serif" font-size="10.00" fill="#000000">data/standard_asite_disp_length.txt</text>
</g>
<!-- data&#45;&gt;statsfigs -->
<g id="edge32" class="edge">
<title>data&#45;&gt;statsfigs</title>
<path fill="none" stroke="#000000" d="M1378.3837,-1487.9612C1312.7831,-1439.3475 1220,-1366.8965 1220,-1346 1220,-1346 1220,-1346 1220,-626 1220,-499.5089 1103.8988,-509.8243 986,-464 927.6457,-441.3191 754.5086,-423.7273 657.9578,-415.3585"/>
<polygon fill="#000000" stroke="#000000" points="657.9804,-411.8476 647.7179,-414.4806 657.3824,-418.8221 657.9804,-411.8476"/>
</g>
<!-- ribosome_data0toI -->
<g id="node5" class="node">
<title>ribosome_data0toI</title>
<text text-anchor="middle" x="1304" y="-1531" font-family="Helvetica,sans-Serif" font-size="10.00" fill="#000000">...</text>
</g>
<!-- input/&lt;SAMPLE_ID&gt;.fastq.gz -->
<g id="node6" class="node">
<title>input/&lt;SAMPLE_ID&gt;.fastq.gz</title>
<text text-anchor="middle" x="1186" y="-1531" font-family="Helvetica,sans-Serif" font-size="10.00" fill="#000000">input/&lt;SAMPLE_ID&gt;.fastq.gz</text>
</g>
<!-- cut -->
<g id="node12" class="node">
<title>cut</title>
<polygon fill="none" stroke="#000000" points="670.3542,-1436 615.6458,-1436 615.6458,-1400 670.3542,-1400 670.3542,-1436"/>
<text text-anchor="middle" x="643" y="-1415" font-family="Helvetica,sans-Serif" font-size="10.00" fill="#000000">cutadapt</text>
</g>
<!-- input/&lt;SAMPLE_ID&gt;.fastq.gz&#45;&gt;cut -->
<g id="edge5" class="edge">
<title>input/&lt;SAMPLE_ID&gt;.fastq.gz&#45;&gt;cut</title>
<path fill="none" stroke="#000000" d="M1168.7826,-1515.7204C1153.4166,-1500.8116 1129.4629,-1480.8269 1104,-1472 1061.9988,-1457.4399 746.0105,-1478.5333 704,-1464 691.0429,-1459.5175 678.6041,-1451.1552 668.3776,-1442.7771"/>
<polygon fill="#000000" stroke="#000000" points="670.5378,-1440.018 660.6828,-1436.1284 665.9612,-1445.3147 670.5378,-1440.018"/>
</g>
<!-- count_reads -->
<g id="node38" class="node">
<title>count_reads</title>
<polygon fill="none" stroke="#000000" points="874.3598,-124 789.6402,-124 789.6402,-88 874.3598,-88 874.3598,-124"/>
<text text-anchor="middle" x="832" y="-103" font-family="Helvetica,sans-Serif" font-size="10.00" fill="#000000">count_reads.py</text>
</g>
<!-- input/&lt;SAMPLE_ID&gt;.fastq.gz&#45;&gt;count_reads -->
<g id="edge38" class="edge">
<title>input/&lt;SAMPLE_ID&gt;.fastq.gz&#45;&gt;count_reads</title>
<path fill="none" stroke="#000000" d="M1185.3573,-1515.8542C1184.2266,-1482.3156 1182,-1408.3544 1182,-1346 1182,-1346 1182,-1346 1182,-410 1182,-253.9867 981.3277,-159.9412 883.8806,-123.4698"/>
<polygon fill="#000000" stroke="#000000" points="884.8117,-120.0831 874.2182,-119.9157 882.3951,-126.6528 884.8117,-120.0831"/>
</g>
<!-- ribosome_dataItoN -->
<g id="node7" class="node">
<title>ribosome_dataItoN</title>
<text text-anchor="middle" x="1068" y="-1531" font-family="Helvetica,sans-Serif" font-size="10.00" fill="#000000">...</text>
</g>
<!-- index/rRNA.1|...|8.ht2 -->
<g id="node10" class="node">
<title>index/rRNA.1|...|8.ht2</title>
<text text-anchor="middle" x="772" y="-1343" font-family="Helvetica,sans-Serif" font-size="10.00" fill="#000000">index/rRNA.1|...|8.ht2</text>
</g>
<!-- h2build1&#45;&gt;index/rRNA.1|...|8.ht2 -->
<g id="edge2" class="edge">
<title>h2build1&#45;&gt;index/rRNA.1|...|8.ht2</title>
<path fill="none" stroke="#000000" d="M777.2336,-1399.8314C776.485,-1392.131 775.5947,-1382.9743 774.7627,-1374.4166"/>
<polygon fill="#000000" stroke="#000000" points="778.2415,-1374.0276 773.7902,-1364.4133 771.2744,-1374.7051 778.2415,-1374.0276"/>
</g>
<!-- index/CDS.1|...|8.ht2 -->
<g id="node11" class="node">
<title>index/CDS.1|...|8.ht2</title>
<text text-anchor="middle" x="900" y="-1343" font-family="Helvetica,sans-Serif" font-size="10.00" fill="#000000">index/CDS.1|...|8.ht2</text>
</g>
<!-- h2build2&#45;&gt;index/CDS.1|...|8.ht2 -->
<g id="edge4" class="edge">
<title>h2build2&#45;&gt;index/CDS.1|...|8.ht2</title>
<path fill="none" stroke="#000000" d="M897.0094,-1399.8314C897.4372,-1392.131 897.9459,-1382.9743 898.4213,-1374.4166"/>
<polygon fill="#000000" stroke="#000000" points="901.9169,-1374.592 898.977,-1364.4133 894.9276,-1374.2037 901.9169,-1374.592"/>
</g>
<!-- h21 -->
<g id="node13" class="node">
<title>h21</title>
<polygon fill="none" stroke="#000000" points="639,-1292 585,-1292 585,-1256 639,-1256 639,-1292"/>
<text text-anchor="middle" x="612" y="-1271" font-family="Helvetica,sans-Serif" font-size="10.00" fill="#000000">hisat2</text>
</g>
<!-- index/rRNA.1|...|8.ht2&#45;&gt;h21 -->
<g id="edge8" class="edge">
<title>index/rRNA.1|...|8.ht2&#45;&gt;h21</title>
<path fill="none" stroke="#000000" d="M731.6252,-1327.8314C706.1265,-1316.3569 673.4424,-1301.6491 648.6833,-1290.5075"/>
<polygon fill="#000000" stroke="#000000" points="649.8333,-1287.187 639.2778,-1286.275 646.9607,-1293.5704 649.8333,-1287.187"/>
</g>
<!-- h22 -->
<g id="node14" class="node">
<title>h22</title>
<polygon fill="none" stroke="#000000" points="547,-1148 493,-1148 493,-1112 547,-1112 547,-1148"/>
<text text-anchor="middle" x="520" y="-1127" font-family="Helvetica,sans-Serif" font-size="10.00" fill="#000000">hisat2</text>
</g>
<!-- index/CDS.1|...|8.ht2&#45;&gt;h22 -->
<g id="edge11" class="edge">
<title>index/CDS.1|...|8.ht2&#45;&gt;h22</title>
<path fill="none" stroke="#000000" d="M882.606,-1327.9608C849.7223,-1294.8403 774.9028,-1224.0656 699,-1184 652.9505,-1159.6926 594.3256,-1144.6447 556.9678,-1136.7965"/>
<polygon fill="#000000" stroke="#000000" points="557.5202,-1133.3372 547.023,-1134.7721 556.1239,-1140.1965 557.5202,-1133.3372"/>
</g>
<!-- tmp/&lt;SAMPLE_ID&gt;/trim.fq -->
<g id="node22" class="node">
<title>tmp/&lt;SAMPLE_ID&gt;/trim.fq</title>
<text text-anchor="middle" x="623" y="-1343" font-family="Helvetica,sans-Serif" font-size="10.00" fill="#000000">tmp/&lt;SAMPLE_ID&gt;/trim.fq</text>
</g>
<!-- cut&#45;&gt;tmp/&lt;SAMPLE_ID&gt;/trim.fq -->
<g id="edge6" class="edge">
<title>cut&#45;&gt;tmp/&lt;SAMPLE_ID&gt;/trim.fq</title>
<path fill="none" stroke="#000000" d="M637.9532,-1399.8314C635.7906,-1392.0463 633.2147,-1382.7729 630.8152,-1374.1347"/>
<polygon fill="#000000" stroke="#000000" points="634.1636,-1373.1117 628.1148,-1364.4133 627.419,-1374.9852 634.1636,-1373.1117"/>
</g>
<!-- tmp/&lt;SAMPLE_ID&gt;/rRNA_map.sam -->
<g id="node23" class="node">
<title>tmp/&lt;SAMPLE_ID&gt;/rRNA_map.sam</title>
<text text-anchor="middle" x="601" y="-1199" font-family="Helvetica,sans-Serif" font-size="10.00" fill="#000000">tmp/&lt;SAMPLE_ID&gt;/rRNA_map.sam</text>
</g>
<!-- h21&#45;&gt;tmp/&lt;SAMPLE_ID&gt;/rRNA_map.sam -->
<g id="edge9" class="edge">
<title>h21&#45;&gt;tmp/&lt;SAMPLE_ID&gt;/rRNA_map.sam</title>
<path fill="none" stroke="#000000" d="M609.2242,-1255.8314C608.0478,-1248.131 606.6489,-1238.9743 605.3414,-1230.4166"/>
<polygon fill="#000000" stroke="#000000" points="608.7833,-1229.7699 603.8131,-1220.4133 601.8636,-1230.8272 608.7833,-1229.7699"/>
</g>
<!-- tmp/&lt;SAMPLE_ID&gt;/nonrRNA.fq -->
<g id="node24" class="node">
<title>tmp/&lt;SAMPLE_ID&gt;/nonrRNA.fq</title>
<text text-anchor="middle" x="415" y="-1199" font-family="Helvetica,sans-Serif" font-size="10.00" fill="#000000">tmp/&lt;SAMPLE_ID&gt;/nonrRNA.fq</text>
</g>
<!-- h21&#45;&gt;tmp/&lt;SAMPLE_ID&gt;/nonrRNA.fq -->
<g id="edge10" class="edge">
<title>h21&#45;&gt;tmp/&lt;SAMPLE_ID&gt;/nonrRNA.fq</title>
<path fill="none" stroke="#000000" d="M584.608,-1263.9887C556.1722,-1253.5959 510.8067,-1237.0157 474.1459,-1223.6168"/>
<polygon fill="#000000" stroke="#000000" points="475.1383,-1220.2531 464.5445,-1220.1076 472.7354,-1226.8278 475.1383,-1220.2531"/>
</g>
<!-- tmp/&lt;SAMPLE_ID&gt;/unaligned.fq -->
<g id="node25" class="node">
<title>tmp/&lt;SAMPLE_ID&gt;/unaligned.fq</title>
<text text-anchor="middle" x="610" y="-1055" font-family="Helvetica,sans-Serif" font-size="10.00" fill="#000000">tmp/&lt;SAMPLE_ID&gt;/unaligned.fq</text>
</g>
<!-- h22&#45;&gt;tmp/&lt;SAMPLE_ID&gt;/unaligned.fq -->
<g id="edge13" class="edge">
<title>h22&#45;&gt;tmp/&lt;SAMPLE_ID&gt;/unaligned.fq</title>
<path fill="none" stroke="#000000" d="M542.7108,-1111.8314C553.796,-1102.9632 567.2954,-1092.1637 579.2852,-1082.5718"/>
<polygon fill="#000000" stroke="#000000" points="581.6742,-1085.1429 587.2965,-1076.1628 577.3013,-1079.6768 581.6742,-1085.1429"/>
</g>
<!-- tmp/&lt;SAMPLE_ID&gt;/orf_map.sam -->
<g id="node26" class="node">
<title>tmp/&lt;SAMPLE_ID&gt;/orf_map.sam</title>
<text text-anchor="middle" x="430" y="-1055" font-family="Helvetica,sans-Serif" font-size="10.00" fill="#000000">tmp/&lt;SAMPLE_ID&gt;/orf_map.sam</text>
</g>
<!-- h22&#45;&gt;tmp/&lt;SAMPLE_ID&gt;/orf_map.sam -->
<g id="edge14" class="edge">
<title>h22&#45;&gt;tmp/&lt;SAMPLE_ID&gt;/orf_map.sam</title>
<path fill="none" stroke="#000000" d="M497.2892,-1111.8314C486.204,-1102.9632 472.7046,-1092.1637 460.7148,-1082.5718"/>
<polygon fill="#000000" stroke="#000000" points="462.6987,-1079.6768 452.7035,-1076.1628 458.3258,-1085.1429 462.6987,-1079.6768"/>
</g>
<!-- samindex -->
<g id="node15" class="node">
<title>samindex</title>
<polygon fill="none" stroke="#000000" points="413.1796,-716 330.8204,-716 330.8204,-680 413.1796,-680 413.1796,-716"/>
<text text-anchor="middle" x="372" y="-695" font-family="Helvetica,sans-Serif" font-size="10.00" fill="#000000">samtools index</text>
</g>
<!-- output/&lt;SAMPLE_ID&gt;/&lt;SAMPLE_ID&gt;.bam+.bai -->
<g id="node30" class="node">
<title>output/&lt;SAMPLE_ID&gt;/&lt;SAMPLE_ID&gt;.bam+.bai</title>
<text text-anchor="middle" x="372" y="-623" font-family="Helvetica,sans-Serif" font-size="10.00" fill="#000000">output/&lt;SAMPLE_ID&gt;/&lt;SAMPLE_ID&gt;.bam+.bai</text>
</g>
<!-- samindex&#45;&gt;output/&lt;SAMPLE_ID&gt;/&lt;SAMPLE_ID&gt;.bam+.bai -->
<g id="edge21" class="edge">
<title>samindex&#45;&gt;output/&lt;SAMPLE_ID&gt;/&lt;SAMPLE_ID&gt;.bam+.bai</title>
<path fill="none" stroke="#000000" d="M372,-679.8314C372,-672.131 372,-662.9743 372,-654.4166"/>
<polygon fill="#000000" stroke="#000000" points="375.5001,-654.4132 372,-644.4133 368.5001,-654.4133 375.5001,-654.4132"/>
</g>
<!-- samview -->
<g id="node16" class="node">
<title>samview</title>
<polygon fill="none" stroke="#000000" points="445.3875,-860 298.6125,-860 298.6125,-824 445.3875,-824 445.3875,-860"/>
<text text-anchor="middle" x="372" y="-839" font-family="Helvetica,sans-Serif" font-size="10.00" fill="#000000">samtools view | samtools sort</text>
</g>
<!-- output/&lt;SAMPLE_ID&gt;/&lt;SAMPLE_ID&gt;.bam -->
<g id="node29" class="node">
<title>output/&lt;SAMPLE_ID&gt;/&lt;SAMPLE_ID&gt;.bam</title>
<text text-anchor="middle" x="372" y="-767" font-family="Helvetica,sans-Serif" font-size="10.00" fill="#000000">output/&lt;SAMPLE_ID&gt;/&lt;SAMPLE_ID&gt;.bam</text>
</g>
<!-- samview&#45;&gt;output/&lt;SAMPLE_ID&gt;/&lt;SAMPLE_ID&gt;.bam -->
<g id="edge19" class="edge">
<title>samview&#45;&gt;output/&lt;SAMPLE_ID&gt;/&lt;SAMPLE_ID&gt;.bam</title>
<path fill="none" stroke="#000000" d="M372,-823.8314C372,-816.131 372,-806.9743 372,-798.4166"/>
<polygon fill="#000000" stroke="#000000" points="375.5001,-798.4132 372,-788.4133 368.5001,-798.4133 375.5001,-798.4132"/>
</g>
<!-- trim -->
<g id="node17" class="node">
<title>trim</title>
<polygon fill="none" stroke="#000000" points="485.504,-1004 374.496,-1004 374.496,-968 485.504,-968 485.504,-1004"/>
<text text-anchor="middle" x="430" y="-983" font-family="Helvetica,sans-Serif" font-size="10.00" fill="#000000">trim_5p_mismatch.py</text>
</g>
<!-- tmp/&lt;SAMPLE_ID&gt;/trim_5p_mismatch.tsv -->
<g id="node27" class="node">
<title>tmp/&lt;SAMPLE_ID&gt;/trim_5p_mismatch.tsv</title>
<text text-anchor="middle" x="588" y="-911" font-family="Helvetica,sans-Serif" font-size="10.00" fill="#000000">tmp/&lt;SAMPLE_ID&gt;/trim_5p_mismatch.tsv</text>
</g>
<!-- trim&#45;&gt;tmp/&lt;SAMPLE_ID&gt;/trim_5p_mismatch.tsv -->
<g id="edge17" class="edge">
<title>trim&#45;&gt;tmp/&lt;SAMPLE_ID&gt;/trim_5p_mismatch.tsv</title>
<path fill="none" stroke="#000000" d="M469.8701,-967.8314C490.9077,-958.2446 516.8983,-946.4008 539.1396,-936.2655"/>
<polygon fill="#000000" stroke="#000000" points="540.7683,-939.3697 548.4166,-932.038 537.8655,-932.9999 540.7683,-939.3697"/>
</g>
<!-- tmp/&lt;SAMPLE_ID&gt;/orf_map_clean.sam -->
<g id="node28" class="node">
<title>tmp/&lt;SAMPLE_ID&gt;/orf_map_clean.sam</title>
<text text-anchor="middle" x="371" y="-911" font-family="Helvetica,sans-Serif" font-size="10.00" fill="#000000">tmp/&lt;SAMPLE_ID&gt;/orf_map_clean.sam</text>
</g>
<!-- trim&#45;&gt;tmp/&lt;SAMPLE_ID&gt;/orf_map_clean.sam -->
<g id="edge16" class="edge">
<title>trim&#45;&gt;tmp/&lt;SAMPLE_ID&gt;/orf_map_clean.sam</title>
<path fill="none" stroke="#000000" d="M415.1118,-967.8314C408.247,-959.454 399.9699,-949.3531 392.4489,-940.1749"/>
<polygon fill="#000000" stroke="#000000" points="395.1341,-937.9297 386.0886,-932.4133 389.7197,-942.3665 395.1341,-937.9297"/>
</g>
<!-- bedplus -->
<g id="node18" class="node">
<title>bedplus</title>
<polygon fill="none" stroke="#000000" points="264.5319,-572 141.4681,-572 141.4681,-536 264.5319,-536 264.5319,-572"/>
<text text-anchor="middle" x="203" y="-551" font-family="Helvetica,sans-Serif" font-size="10.00" fill="#000000">bedtools genomecov (+)</text>
</g>
<!-- output/&lt;SAMPLE_ID&gt;/plus.bedgraph -->
<g id="node31" class="node">
<title>output/&lt;SAMPLE_ID&gt;/plus.bedgraph</title>
<text text-anchor="middle" x="174" y="-479" font-family="Helvetica,sans-Serif" font-size="10.00" fill="#000000">output/&lt;SAMPLE_ID&gt;/plus.bedgraph</text>
</g>
<!-- bedplus&#45;&gt;output/&lt;SAMPLE_ID&gt;/plus.bedgraph -->
<g id="edge23" class="edge">
<title>bedplus&#45;&gt;output/&lt;SAMPLE_ID&gt;/plus.bedgraph</title>
<path fill="none" stroke="#000000" d="M195.6821,-535.8314C192.5124,-527.9617 188.73,-518.5712 185.2187,-509.8533"/>
<polygon fill="#000000" stroke="#000000" points="188.3992,-508.3815 181.4165,-500.4133 181.9061,-510.9968 188.3992,-508.3815"/>
</g>
<!-- bedminus -->
<g id="node19" class="node">
<title>bedminus</title>
<polygon fill="none" stroke="#000000" points="433.521,-572 312.479,-572 312.479,-536 433.521,-536 433.521,-572"/>
<text text-anchor="middle" x="373" y="-551" font-family="Helvetica,sans-Serif" font-size="10.00" fill="#000000">bedtools genomecov (&#45;)</text>
</g>
<!-- output/&lt;SAMPLE_ID&gt;/minus.bedgraph -->
<g id="node32" class="node">
<title>output/&lt;SAMPLE_ID&gt;/minus.bedgraph</title>
<text text-anchor="middle" x="377" y="-479" font-family="Helvetica,sans-Serif" font-size="10.00" fill="#000000">output/&lt;SAMPLE_ID&gt;/minus.bedgraph</text>
</g>
<!-- bedminus&#45;&gt;output/&lt;SAMPLE_ID&gt;/minus.bedgraph -->
<g id="edge25" class="edge">
<title>bedminus&#45;&gt;output/&lt;SAMPLE_ID&gt;/minus.bedgraph</title>
<path fill="none" stroke="#000000" d="M374.0094,-535.8314C374.4372,-528.131 374.9459,-518.9743 375.4213,-510.4166"/>
<polygon fill="#000000" stroke="#000000" points="378.9169,-510.592 375.977,-500.4133 371.9276,-510.2037 378.9169,-510.592"/>
</g>
<!-- output/&lt;SAMPLE_ID&gt;/&lt;SAMPLE_ID&gt;.h5 -->
<g id="node33" class="node">
<title>output/&lt;SAMPLE_ID&gt;/&lt;SAMPLE_ID&gt;.h5</title>
<text text-anchor="middle" x="591" y="-479" font-family="Helvetica,sans-Serif" font-size="10.00" fill="#000000">output/&lt;SAMPLE_ID&gt;/&lt;SAMPLE_ID&gt;.h5</text>
</g>
<!-- bam2h5&#45;&gt;output/&lt;SAMPLE_ID&gt;/&lt;SAMPLE_ID&gt;.h5 -->
<g id="edge28" class="edge">
<title>bam2h5&#45;&gt;output/&lt;SAMPLE_ID&gt;/&lt;SAMPLE_ID&gt;.h5</title>
<path fill="none" stroke="#000000" d="M591,-535.8314C591,-528.131 591,-518.9743 591,-510.4166"/>
<polygon fill="#000000" stroke="#000000" points="594.5001,-510.4132 591,-500.4133 587.5001,-510.4133 594.5001,-510.4132"/>
</g>
<!-- pdfs -->
<g id="node34" class="node">
<title>pdfs</title>
<polygon fill="none" stroke="#000000" stroke-dasharray="5,2" points="430.1891,-356 187.8109,-356 187.8109,-168 430.1891,-168 430.1891,-356"/>
<text text-anchor="middle" x="309" y="-343" font-family="Helvetica,sans-Serif" font-size="10.00" fill="#000000">output/&lt;SAMPLE_ID&gt;/3nt_periodicity.pdf</text>
<text text-anchor="middle" x="309" y="-331" font-family="Helvetica,sans-Serif" font-size="10.00" fill="#000000">&#13;</text>
<text text-anchor="middle" x="309" y="-319" font-family="Helvetica,sans-Serif" font-size="10.00" fill="#000000">output/&lt;SAMPLE_ID&gt;/codon_ribodens.pdf</text>
<text text-anchor="middle" x="309" y="-307" font-family="Helvetica,sans-Serif" font-size="10.00" fill="#000000">&#13;</text>
<text text-anchor="middle" x="309" y="-295" font-family="Helvetica,sans-Serif" font-size="10.00" fill="#000000">output/&lt;SAMPLE_ID&gt;/read_lengths.pdf</text>
<text text-anchor="middle" x="309" y="-283" font-family="Helvetica,sans-Serif" font-size="10.00" fill="#000000">&#13;</text>
<text text-anchor="middle" x="309" y="-271" font-family="Helvetica,sans-Serif" font-size="10.00" fill="#000000">output/&lt;SAMPLE_ID&gt;/pos_sp_rpf_norm_reads.pdf</text>
<text text-anchor="middle" x="309" y="-259" font-family="Helvetica,sans-Serif" font-size="10.00" fill="#000000">&#13;</text>
<text text-anchor="middle" x="309" y="-247" font-family="Helvetica,sans-Serif" font-size="10.00" fill="#000000">output/&lt;SAMPLE_ID&gt;/features.pdf</text>
<text text-anchor="middle" x="309" y="-235" font-family="Helvetica,sans-Serif" font-size="10.00" fill="#000000">&#13;</text>
<text text-anchor="middle" x="309" y="-223" font-family="Helvetica,sans-Serif" font-size="10.00" fill="#000000">output/&lt;SAMPLE_ID&gt;/startcodon_ribogridbar.pdf</text>
<text text-anchor="middle" x="309" y="-211" font-family="Helvetica,sans-Serif" font-size="10.00" fill="#000000">&#13;</text>
<text text-anchor="middle" x="309" y="-199" font-family="Helvetica,sans-Serif" font-size="10.00" fill="#000000">output/&lt;SAMPLE_ID&gt;/startcodon_ribogrid.pdf</text>
<text text-anchor="middle" x="309" y="-187" font-family="Helvetica,sans-Serif" font-size="10.00" fill="#000000">&#13;</text>
<text text-anchor="middle" x="309" y="-175" font-family="Helvetica,sans-Serif" font-size="10.00" fill="#000000">output/&lt;SAMPLE_ID&gt;/3ntframe_propbygene.pdf&#13;</text>
</g>
<!-- statsfigs&#45;&gt;pdfs -->
<g id="edge33" class="edge">
<title>statsfigs&#45;&gt;pdfs</title>
<path fill="none" stroke="#000000" d="M534.1604,-394.0491C504.8906,-384.7913 469.1223,-371.824 439,-356 438.9075,-355.9514 438.8151,-355.9028 438.7226,-355.8541"/>
<polygon fill="#000000" stroke="#000000" points="440.5626,-352.8708 430.1062,-351.1637 437.2158,-359.0189 440.5626,-352.8708"/>
</g>
<!-- tsvs -->
<g id="node35" class="node">
<title>tsvs</title>
<polygon fill="none" stroke="#000000" stroke-dasharray="5,2" points="689.571,-332 448.429,-332 448.429,-192 689.571,-192 689.571,-332"/>
<text text-anchor="middle" x="569" y="-319" font-family="Helvetica,sans-Serif" font-size="10.00" fill="#000000">output/&lt;SAMPLE_ID&gt;/3nt_periodicity.tsv</text>
<text text-anchor="middle" x="569" y="-307" font-family="Helvetica,sans-Serif" font-size="10.00" fill="#000000">&#13;</text>
<text text-anchor="middle" x="569" y="-295" font-family="Helvetica,sans-Serif" font-size="10.00" fill="#000000">output/&lt;SAMPLE_ID&gt;/codon_ribodens.tsv</text>
<text text-anchor="middle" x="569" y="-283" font-family="Helvetica,sans-Serif" font-size="10.00" fill="#000000">&#13;</text>
<text text-anchor="middle" x="569" y="-271" font-family="Helvetica,sans-Serif" font-size="10.00" fill="#000000">output/&lt;SAMPLE_ID&gt;/read_lengths.tsv</text>
<text text-anchor="middle" x="569" y="-259" font-family="Helvetica,sans-Serif" font-size="10.00" fill="#000000">&#13;</text>
<text text-anchor="middle" x="569" y="-247" font-family="Helvetica,sans-Serif" font-size="10.00" fill="#000000">output/&lt;SAMPLE_ID&gt;/pos_sp_rpf_norm_reads.tsv</text>
<text text-anchor="middle" x="569" y="-235" font-family="Helvetica,sans-Serif" font-size="10.00" fill="#000000">&#13;</text>
<text text-anchor="middle" x="569" y="-223" font-family="Helvetica,sans-Serif" font-size="10.00" fill="#000000">output/&lt;SAMPLE_ID&gt;/pos_sp_nt_freq.tsv</text>
<text text-anchor="middle" x="569" y="-211" font-family="Helvetica,sans-Serif" font-size="10.00" fill="#000000">&#13;</text>
<text text-anchor="middle" x="569" y="-199" font-family="Helvetica,sans-Serif" font-size="10.00" fill="#000000">output/&lt;SAMPLE_ID&gt;/3ntframe_bygene.tsv&#13;</text>
</g>
<!-- statsfigs&#45;&gt;tsvs -->
<g id="edge34" class="edge">
<title>statsfigs&#45;&gt;tsvs</title>
<path fill="none" stroke="#000000" d="M588.3024,-391.8523C586.3961,-379.0282 583.6945,-360.8539 580.9145,-342.1519"/>
<polygon fill="#000000" stroke="#000000" points="584.3445,-341.4218 579.4121,-332.0451 577.4206,-342.4511 584.3445,-341.4218"/>
</g>
<!-- output/&lt;SAMPLE_ID&gt;/tpms.tsv -->
<g id="node36" class="node">
<title>output/&lt;SAMPLE_ID&gt;/tpms.tsv</title>
<text text-anchor="middle" x="93" y="-259" font-family="Helvetica,sans-Serif" font-size="10.00" fill="#000000">output/&lt;SAMPLE_ID&gt;/tpms.tsv</text>
</g>
<!-- statsfigs&#45;&gt;output/&lt;SAMPLE_ID&gt;/tpms.tsv -->
<g id="edge35" class="edge">
<title>statsfigs&#45;&gt;output/&lt;SAMPLE_ID&gt;/tpms.tsv</title>
<path fill="none" stroke="#000000" d="M534.3132,-407.352C436.2512,-401.9896 239.6259,-387.5678 179,-356 149.3421,-340.5572 124.7222,-310.5742 109.5322,-288.6085"/>
<polygon fill="#000000" stroke="#000000" points="112.2722,-286.4097 103.8022,-280.0449 106.4544,-290.3024 112.2722,-286.4097"/>
</g>
<!-- tmp/&lt;SAMPLE_ID&gt;/trim.fq&#45;&gt;h21 -->
<g id="edge7" class="edge">
<title>tmp/&lt;SAMPLE_ID&gt;/trim.fq&#45;&gt;h21</title>
<path fill="none" stroke="#000000" d="M620.2242,-1327.8314C619.0478,-1320.131 617.6489,-1310.9743 616.3414,-1302.4166"/>
<polygon fill="#000000" stroke="#000000" points="619.7833,-1301.7699 614.8131,-1292.4133 612.8636,-1302.8272 619.7833,-1301.7699"/>
</g>
<!-- tmp/&lt;SAMPLE_ID&gt;/trim.fq&#45;&gt;count_reads -->
<g id="edge39" class="edge">
<title>tmp/&lt;SAMPLE_ID&gt;/trim.fq&#45;&gt;count_reads</title>
<path fill="none" stroke="#000000" d="M665.5588,-1327.8998C753.2672,-1289.2404 946,-1196.7008 946,-1130 946,-1130 946,-1130 946,-698 946,-458.4119 1031.0632,-367.9097 912,-160 904.8971,-147.5968 893.6461,-137.464 881.7998,-129.4655"/>
<polygon fill="#000000" stroke="#000000" points="883.4499,-126.3689 873.1195,-124.0167 879.7283,-132.2977 883.4499,-126.3689"/>
</g>
<!-- tmp/&lt;SAMPLE_ID&gt;/rRNA_map.sam&#45;&gt;count_reads -->
<g id="edge40" class="edge">
<title>tmp/&lt;SAMPLE_ID&gt;/rRNA_map.sam&#45;&gt;count_reads</title>
<path fill="none" stroke="#000000" d="M689.7466,-1195.2896C761.9298,-1188.0295 856.2151,-1173.8517 884,-1148 914.3081,-1119.8007 908,-1099.3978 908,-1058 908,-1058 908,-1058 908,-410 908,-298.3781 930.6455,-261.4084 884,-160 879.128,-149.4081 871.2987,-139.617 863.1782,-131.3631"/>
<polygon fill="#000000" stroke="#000000" points="865.3645,-128.6114 855.7152,-124.2363 860.5301,-133.6738 865.3645,-128.6114"/>
</g>
<!-- tmp/&lt;SAMPLE_ID&gt;/nonrRNA.fq&#45;&gt;h22 -->
<g id="edge12" class="edge">
<title>tmp/&lt;SAMPLE_ID&gt;/nonrRNA.fq&#45;&gt;h22</title>
<path fill="none" stroke="#000000" d="M441.4959,-1183.8314C454.6774,-1174.7927 470.7847,-1163.7476 484.9711,-1154.0198"/>
<polygon fill="#000000" stroke="#000000" points="487.2446,-1156.7047 493.5125,-1148.1628 483.2859,-1150.9316 487.2446,-1156.7047"/>
</g>
<!-- tmp/&lt;SAMPLE_ID&gt;/nonrRNA.fq&#45;&gt;count_reads -->
<g id="edge41" class="edge">
<title>tmp/&lt;SAMPLE_ID&gt;/nonrRNA.fq&#45;&gt;count_reads</title>
<path fill="none" stroke="#000000" d="M494.255,-1185.1599C624.6155,-1156.3479 870,-1096.9417 870,-1058 870,-1058 870,-1058 870,-410 870,-298.3781 865.4003,-269.9231 846,-160 844.5087,-151.5503 842.3729,-142.4817 840.2173,-134.2346"/>
<polygon fill="#000000" stroke="#000000" points="843.5266,-133.0658 837.5233,-124.3359 836.7723,-134.9041 843.5266,-133.0658"/>
</g>
<!-- tmp/&lt;SAMPLE_ID&gt;/unaligned.fq&#45;&gt;count_reads -->
<g id="edge42" class="edge">
<title>tmp/&lt;SAMPLE_ID&gt;/unaligned.fq&#45;&gt;count_reads</title>
<path fill="none" stroke="#000000" d="M690.3118,-1044.4838C737.5074,-1034.982 791.136,-1020.9596 808,-1004 837.1899,-974.6448 832,-955.3978 832,-914 832,-914 832,-914 832,-410 832,-308.5321 832,-188.0138 832,-134.286"/>
<polygon fill="#000000" stroke="#000000" points="835.5001,-134.1605 832,-124.1605 828.5001,-134.1606 835.5001,-134.1605"/>
</g>
<!-- tmp/&lt;SAMPLE_ID&gt;/orf_map.sam&#45;&gt;trim -->
<g id="edge15" class="edge">
<title>tmp/&lt;SAMPLE_ID&gt;/orf_map.sam&#45;&gt;trim</title>
<path fill="none" stroke="#000000" d="M430,-1039.8314C430,-1032.131 430,-1022.9743 430,-1014.4166"/>
<polygon fill="#000000" stroke="#000000" points="433.5001,-1014.4132 430,-1004.4133 426.5001,-1014.4133 433.5001,-1014.4132"/>
</g>
<!-- tmp/&lt;SAMPLE_ID&gt;/orf_map.sam&#45;&gt;count_reads -->
<g id="edge43" class="edge">
<title>tmp/&lt;SAMPLE_ID&gt;/orf_map.sam&#45;&gt;count_reads</title>
<path fill="none" stroke="#000000" d="M492.5738,-1039.9251C596.6468,-1008.9625 794,-946.0261 794,-914 794,-914 794,-914 794,-410 794,-307.7425 815.4318,-187.6206 826.105,-134.1391"/>
<polygon fill="#000000" stroke="#000000" points="829.5912,-134.558 828.1472,-124.062 822.7307,-133.1676 829.5912,-134.558"/>
</g>
<!-- tmp/&lt;SAMPLE_ID&gt;/trim_5p_mismatch.tsv&#45;&gt;count_reads -->
<g id="edge44" class="edge">
<title>tmp/&lt;SAMPLE_ID&gt;/trim_5p_mismatch.tsv&#45;&gt;count_reads</title>
<path fill="none" stroke="#000000" d="M675.6401,-895.9884C696.5028,-888.007 717.0279,-876.5191 732,-860 759.8012,-829.3263 756,-811.3978 756,-770 756,-770 756,-770 756,-410 756,-298.3781 733.3545,-261.4084 780,-160 784.872,-149.4081 792.7013,-139.617 800.8218,-131.3631"/>
<polygon fill="#000000" stroke="#000000" points="803.4699,-133.6738 808.2848,-124.2363 798.6355,-128.6114 803.4699,-133.6738"/>
</g>
<!-- tmp/&lt;SAMPLE_ID&gt;/orf_map_clean.sam&#45;&gt;samview -->
<g id="edge18" class="edge">
<title>tmp/&lt;SAMPLE_ID&gt;/orf_map_clean.sam&#45;&gt;samview</title>
<path fill="none" stroke="#000000" d="M371.2523,-895.8314C371.3593,-888.131 371.4865,-878.9743 371.6053,-870.4166"/>
<polygon fill="#000000" stroke="#000000" points="375.1049,-870.4609 371.7443,-860.4133 368.1056,-870.3637 375.1049,-870.4609"/>
</g>
<!-- tmp/&lt;SAMPLE_ID&gt;/orf_map_clean.sam&#45;&gt;count_reads -->
<g id="edge45" class="edge">
<title>tmp/&lt;SAMPLE_ID&gt;/orf_map_clean.sam&#45;&gt;count_reads</title>
<path fill="none" stroke="#000000" d="M457.6676,-895.9891C560.4466,-872.0807 718,-826.2561 718,-770 718,-770 718,-770 718,-410 718,-298.1942 686.5324,-254.6792 746,-160 754.3844,-146.6511 767.4032,-136.0395 780.7962,-127.8815"/>
<polygon fill="#000000" stroke="#000000" points="782.6443,-130.8569 789.6065,-122.8707 779.1837,-124.7722 782.6443,-130.8569"/>
</g>
<!-- output/&lt;SAMPLE_ID&gt;/&lt;SAMPLE_ID&gt;.bam&#45;&gt;samindex -->
<g id="edge20" class="edge">
<title>output/&lt;SAMPLE_ID&gt;/&lt;SAMPLE_ID&gt;.bam&#45;&gt;samindex</title>
<path fill="none" stroke="#000000" d="M372,-751.8314C372,-744.131 372,-734.9743 372,-726.4166"/>
<polygon fill="#000000" stroke="#000000" points="375.5001,-726.4132 372,-716.4133 368.5001,-726.4133 375.5001,-726.4132"/>
</g>
<!-- output/&lt;SAMPLE_ID&gt;/&lt;SAMPLE_ID&gt;.bam+.bai&#45;&gt;bedplus -->
<g id="edge22" class="edge">
<title>output/&lt;SAMPLE_ID&gt;/&lt;SAMPLE_ID&gt;.bam+.bai&#45;&gt;bedplus</title>
<path fill="none" stroke="#000000" d="M329.3542,-607.8314C306.651,-598.159 278.5549,-586.1891 254.6258,-575.9944"/>
<polygon fill="#000000" stroke="#000000" points="255.9109,-572.7376 245.3392,-572.038 253.1672,-579.1775 255.9109,-572.7376"/>
</g>
<!-- output/&lt;SAMPLE_ID&gt;/&lt;SAMPLE_ID&gt;.bam+.bai&#45;&gt;bedminus -->
<g id="edge24" class="edge">
<title>output/&lt;SAMPLE_ID&gt;/&lt;SAMPLE_ID&gt;.bam+.bai&#45;&gt;bedminus</title>
<path fill="none" stroke="#000000" d="M372.2523,-607.8314C372.3593,-600.131 372.4865,-590.9743 372.6053,-582.4166"/>
<polygon fill="#000000" stroke="#000000" points="376.1049,-582.4609 372.7443,-572.4133 369.1056,-582.3637 376.1049,-582.4609"/>
</g>
<!-- output/&lt;SAMPLE_ID&gt;/&lt;SAMPLE_ID&gt;.bam+.bai&#45;&gt;bam2h5 -->
<g id="edge26" class="edge">
<title>output/&lt;SAMPLE_ID&gt;/&lt;SAMPLE_ID&gt;.bam+.bai&#45;&gt;bam2h5</title>
<path fill="none" stroke="#000000" d="M426.9803,-607.9243C462.7294,-596.1712 508.8873,-580.996 543.1258,-569.7395"/>
<polygon fill="#000000" stroke="#000000" points="544.4885,-572.9758 552.8951,-566.5276 542.3022,-566.326 544.4885,-572.9758"/>
</g>
<!-- output/&lt;SAMPLE_ID&gt;/&lt;SAMPLE_ID&gt;.h5&#45;&gt;statsfigs -->
<g id="edge29" class="edge">
<title>output/&lt;SAMPLE_ID&gt;/&lt;SAMPLE_ID&gt;.h5&#45;&gt;statsfigs</title>
<path fill="none" stroke="#000000" d="M591,-463.8314C591,-456.131 591,-446.9743 591,-438.4166"/>
<polygon fill="#000000" stroke="#000000" points="594.5001,-438.4132 591,-428.4133 587.5001,-438.4133 594.5001,-438.4132"/>
</g>
<!-- collate -->
<g id="node37" class="node">
<title>collate</title>
<polygon fill="none" stroke="#000000" points="711.1181,-124 628.8819,-124 628.8819,-88 711.1181,-88 711.1181,-124"/>
<text text-anchor="middle" x="670" y="-103" font-family="Helvetica,sans-Serif" font-size="10.00" fill="#000000">collate_tpms.R</text>
</g>
<!-- output/&lt;SAMPLE_ID&gt;/tpms.tsv&#45;&gt;collate -->
<g id="edge36" class="edge">
<title>output/&lt;SAMPLE_ID&gt;/tpms.tsv&#45;&gt;collate</title>
<path fill="none" stroke="#000000" d="M102.4079,-243.9627C115.8698,-220.2001 143.0291,-179.1827 179,-160 254.2291,-119.8815 508.8011,-109.5069 618.7405,-106.874"/>
<polygon fill="#000000" stroke="#000000" points="618.9996,-110.3691 628.9174,-106.6426 618.8404,-103.3709 618.9996,-110.3691"/>
</g>
<!-- output/TPMs_collated.tsv -->
<g id="node39" class="node">
<title>output/TPMs_collated.tsv</title>
<text text-anchor="middle" x="682" y="-31" font-family="Helvetica,sans-Serif" font-size="10.00" fill="#000000">output/TPMs_collated.tsv</text>
</g>
<!-- collate&#45;&gt;output/TPMs_collated.tsv -->
<g id="edge37" class="edge">
<title>collate&#45;&gt;output/TPMs_collated.tsv</title>
<path fill="none" stroke="#000000" d="M673.0281,-87.8314C674.3115,-80.131 675.8376,-70.9743 677.2639,-62.4166"/>
<polygon fill="#000000" stroke="#000000" points="680.7394,-62.8526 678.9311,-52.4133 673.8347,-61.7018 680.7394,-62.8526"/>
</g>
<!-- output/read_counts.tsv -->
<g id="node40" class="node">
<title>output/read_counts.tsv</title>
<text text-anchor="middle" x="823" y="-31" font-family="Helvetica,sans-Serif" font-size="10.00" fill="#000000">output/read_counts.tsv</text>
</g>
<!-- count_reads&#45;&gt;output/read_counts.tsv -->
<g id="edge46" class="edge">
<title>count_reads&#45;&gt;output/read_counts.tsv</title>
<path fill="none" stroke="#000000" d="M829.7289,-87.8314C828.7664,-80.131 827.6218,-70.9743 826.5521,-62.4166"/>
<polygon fill="#000000" stroke="#000000" points="830.0151,-61.9019 825.3017,-52.4133 823.0691,-62.7702 830.0151,-61.9019"/>
</g>
</g>
</svg>
