<?xml version="1.0" encoding="UTF-8" standalone="no"?>
<!DOCTYPE svg PUBLIC "-//W3C//DTD SVG 1.1//EN"
 "http://www.w3.org/Graphics/SVG/1.1/DTD/svg11.dtd">
<!-- Generated by graphviz version 2.40.1 (20161225.0304)
 -->
<!-- Title: G Pages: 1 -->
<svg width="1252pt" height="1652pt"
 viewBox="0.00 0.00 1252.00 1652.00" xmlns="http://www.w3.org/2000/svg" xmlns:xlink="http://www.w3.org/1999/xlink">
<g id="graph0" class="graph" transform="scale(1 1) rotate(0) translate(4 1648)">
<title>G</title>
<polygon fill="#ffffff" stroke="transparent" points="-4,4 -4,-1648 1248,-1648 1248,4 -4,4"/>
<g id="clust1" class="cluster">
<title>cluster_data</title>
<polygon fill="none" stroke="#000000" stroke-dasharray="5,2" points="426,-1472 426,-1636 1236,-1636 1236,-1472 426,-1472"/>
<text text-anchor="middle" x="444.558" y="-1623" font-family="Helvetica,sans-Serif" font-size="10.00" fill="#000000">Data</text>
</g>
<g id="clust2" class="cluster">
<title>cluster_organism</title>
<polygon fill="none" stroke="#000000" stroke-dasharray="5,2" points="842,-1508 842,-1580 1030,-1580 1030,-1508 842,-1508"/>
<text text-anchor="middle" x="882.784" y="-1567" font-family="Helvetica,sans-Serif" font-size="10.00" fill="#000000">Organism data</text>
</g>
<g id="clust3" class="cluster">
<title>cluster_contaminants</title>
<polygon fill="none" stroke="#000000" stroke-dasharray="5,2" points="434,-1508 434,-1580 520,-1580 520,-1508 434,-1508"/>
<text text-anchor="middle" x="472.8395" y="-1567" font-family="Helvetica,sans-Serif" font-size="10.00" fill="#000000">Contaminants</text>
</g>
<g id="clust4" class="cluster">
<title>cluster_additional_organism</title>
<polygon fill="none" stroke="#000000" stroke-dasharray="5,2" points="1038,-1480 1038,-1608 1228,-1608 1228,-1480 1038,-1480"/>
<text text-anchor="middle" x="1119.3455" y="-1595" font-family="Helvetica,sans-Serif" font-size="10.00" fill="#000000">Additional organism&#45;specific data</text>
</g>
<g id="clust5" class="cluster">
<title>cluster_ribosome</title>
<polygon fill="none" stroke="#000000" stroke-dasharray="5,2" points="528,-1508 528,-1580 834,-1580 834,-1508 528,-1508"/>
<text text-anchor="middle" x="588.509" y="-1567" font-family="Helvetica,sans-Serif" font-size="10.00" fill="#000000">Ribosome profiling data</text>
</g>
<g id="clust6" class="cluster">
<title>cluster_indexing</title>
<polygon fill="none" stroke="#000000" points="8,-1320 8,-1464 262,-1464 262,-1320 8,-1320"/>
<text text-anchor="middle" x="34.8965" y="-1451" font-family="Helvetica,sans-Serif" font-size="10.00" fill="#000000">Indexing</text>
</g>
<g id="clust7" class="cluster">
<title>cluster_per_sample_processing</title>
<polygon fill="none" stroke="#000000" points="270,-160 270,-1464 1180,-1464 1180,-160 270,-160"/>
<text text-anchor="middle" x="331.347" y="-1451" font-family="Helvetica,sans-Serif" font-size="10.00" fill="#000000">Process &lt;SAMPLE_ID&gt;</text>
</g>
<g id="clust8" class="cluster">
<title>cluster_tpms_collation</title>
<polygon fill="none" stroke="#000000" points="986,-8 986,-152 1130,-152 1130,-8 986,-8"/>
<text text-anchor="middle" x="1026.779" y="-139" font-family="Helvetica,sans-Serif" font-size="10.00" fill="#000000">TPMs collation</text>
</g>
<!-- input/CDS.fa -->
<g id="node1" class="node">
<title>input/CDS.fa</title>
<text text-anchor="middle" x="886" y="-1531" font-family="Helvetica,sans-Serif" font-size="10.00" fill="#000000">input/CDS.fa</text>
</g>
<!-- h2build2 -->
<g id="node9" class="node">
<title>h2build2</title>
<polygon fill="none" stroke="#000000" points="243.6191,-1436 176.3809,-1436 176.3809,-1400 243.6191,-1400 243.6191,-1436"/>
<text text-anchor="middle" x="210" y="-1415" font-family="Helvetica,sans-Serif" font-size="10.00" fill="#000000">hisat2&#45;build</text>
</g>
<!-- input/CDS.fa&#45;&gt;h2build2 -->
<g id="edge3" class="edge">
<title>input/CDS.fa&#45;&gt;h2build2</title>
<path fill="none" stroke="#000000" d="M877.6809,-1515.8988C869.7865,-1501.1016 856.3912,-1481.1804 838,-1472 809.5649,-1457.8059 295.8451,-1474.9223 266,-1464 254.12,-1459.6523 242.9334,-1451.6238 233.7281,-1443.4765"/>
<polygon fill="#000000" stroke="#000000" points="235.8626,-1440.6791 226.181,-1436.3758 231.0658,-1445.7773 235.8626,-1440.6791"/>
</g>
<!-- statsfigs -->
<g id="node21" class="node">
<title>statsfigs</title>
<polygon fill="none" stroke="#000000" points="1113.7523,-428 1000.2477,-428 1000.2477,-392 1113.7523,-392 1113.7523,-428"/>
<text text-anchor="middle" x="1057" y="-407" font-family="Helvetica,sans-Serif" font-size="10.00" fill="#000000">generate_stats_figs.R</text>
</g>
<!-- input/CDS.fa&#45;&gt;statsfigs -->
<g id="edge29" class="edge">
<title>input/CDS.fa&#45;&gt;statsfigs</title>
<path fill="none" stroke="#000000" d="M898.9948,-1515.9208C932.461,-1469.3235 1019,-1348.58 1019,-1346 1019,-1346 1019,-1346 1019,-698 1019,-601.9481 1040.032,-489.4131 1050.8021,-438.0826"/>
<polygon fill="#000000" stroke="#000000" points="1054.2712,-438.5961 1052.9333,-428.0861 1047.4251,-437.1365 1054.2712,-438.5961"/>
</g>
<!-- input/CDS.gff3 -->
<g id="node2" class="node">
<title>input/CDS.gff3</title>
<text text-anchor="middle" x="981" y="-1531" font-family="Helvetica,sans-Serif" font-size="10.00" fill="#000000">input/CDS.gff3</text>
</g>
<!-- bam2h5 -->
<g id="node20" class="node">
<title>bam2h5</title>
<polygon fill="none" stroke="#000000" points="968.019,-572 891.981,-572 891.981,-536 968.019,-536 968.019,-572"/>
<text text-anchor="middle" x="930" y="-551" font-family="Helvetica,sans-Serif" font-size="10.00" fill="#000000">bam_to_h5.R</text>
</g>
<!-- input/CDS.gff3&#45;&gt;bam2h5 -->
<g id="edge26" class="edge">
<title>input/CDS.gff3&#45;&gt;bam2h5</title>
<path fill="none" stroke="#000000" d="M998.0336,-1515.8292C1009.6199,-1502.4751 1024.3618,-1483.3545 1033,-1464 1054.812,-1415.1284 1057,-1399.5182 1057,-1346 1057,-1346 1057,-1346 1057,-698 1057,-645.0755 1008.1495,-602.4091 971.0428,-577.6341"/>
<polygon fill="#000000" stroke="#000000" points="972.6728,-574.52 962.3761,-572.0244 968.8692,-580.3964 972.6728,-574.52"/>
</g>
<!-- input/CDS.gff3&#45;&gt;statsfigs -->
<g id="edge30" class="edge">
<title>input/CDS.gff3&#45;&gt;statsfigs</title>
<path fill="none" stroke="#000000" d="M992.4899,-1515.9537C1002.0886,-1502.1851 1016.9262,-1483.6588 1034,-1472 1042.9379,-1465.8968 1049.4363,-1471.7412 1057,-1464 1095.505,-1424.5916 1095,-1401.0968 1095,-1346 1095,-1346 1095,-1346 1095,-554 1095,-512.3681 1079.9672,-466.14 1068.8119,-437.567"/>
<polygon fill="#000000" stroke="#000000" points="1072.0368,-436.2055 1065.0588,-428.2332 1065.5422,-438.817 1072.0368,-436.2055"/>
</g>
<!-- input/rRNA.fa -->
<g id="node3" class="node">
<title>input/rRNA.fa</title>
<text text-anchor="middle" x="477" y="-1531.3" font-family="Helvetica,sans-Serif" font-size="9.00" fill="#000000">input/rRNA.fa</text>
</g>
<!-- h2build1 -->
<g id="node8" class="node">
<title>h2build1</title>
<polygon fill="none" stroke="#000000" points="137.6191,-1436 70.3809,-1436 70.3809,-1400 137.6191,-1400 137.6191,-1436"/>
<text text-anchor="middle" x="104" y="-1415" font-family="Helvetica,sans-Serif" font-size="10.00" fill="#000000">hisat2&#45;build</text>
</g>
<!-- input/rRNA.fa&#45;&gt;h2build1 -->
<g id="edge1" class="edge">
<title>input/rRNA.fa&#45;&gt;h2build1</title>
<path fill="none" stroke="#000000" d="M441.5767,-1530.7335C382.3973,-1524.2588 260.6875,-1506.5575 167,-1464 154.741,-1458.4314 142.5018,-1450.25 132.116,-1442.3251"/>
<polygon fill="#000000" stroke="#000000" points="134.2337,-1439.5377 124.2191,-1436.0794 129.8913,-1445.028 134.2337,-1439.5377"/>
</g>
<!-- data -->
<g id="node4" class="node">
<title>data</title>
<polygon fill="none" stroke="#000000" stroke-dasharray="5,2" points="1219.8391,-1580 1046.1609,-1580 1046.1609,-1488 1219.8391,-1488 1219.8391,-1580"/>
<text text-anchor="middle" x="1133" y="-1567" font-family="Helvetica,sans-Serif" font-size="10.00" fill="#000000">data/codon_pos_i200.RData</text>
<text text-anchor="middle" x="1133" y="-1543" font-family="Helvetica,sans-Serif" font-size="10.00" fill="#000000">data/features.tsv</text>
<text text-anchor="middle" x="1133" y="-1519" font-family="Helvetica,sans-Serif" font-size="10.00" fill="#000000">data/tRNAs.tsv</text>
<text text-anchor="middle" x="1133" y="-1495" font-family="Helvetica,sans-Serif" font-size="10.00" fill="#000000">data/standard_asite_disp_length.txt</text>
</g>
<!-- data&#45;&gt;statsfigs -->
<g id="edge31" class="edge">
<title>data&#45;&gt;statsfigs</title>
<path fill="none" stroke="#000000" d="M1133,-1487.644C1133,-1449.5928 1133,-1394.3056 1133,-1346 1133,-1346 1133,-1346 1133,-554 1133,-508.656 1103.1616,-463.5999 1080.8774,-436.2735"/>
<polygon fill="#000000" stroke="#000000" points="1083.3585,-433.7856 1074.2456,-428.3814 1077.9994,-438.2889 1083.3585,-433.7856"/>
</g>
<!-- ribosome_data0toI -->
<g id="node5" class="node">
<title>ribosome_data0toI</title>
<text text-anchor="middle" x="799" y="-1531" font-family="Helvetica,sans-Serif" font-size="10.00" fill="#000000">...</text>
</g>
<!-- input/&lt;SAMPLE_ID&gt;.fastq.gz -->
<g id="node6" class="node">
<title>input/&lt;SAMPLE_ID&gt;.fastq.gz</title>
<text text-anchor="middle" x="681" y="-1531" font-family="Helvetica,sans-Serif" font-size="10.00" fill="#000000">input/&lt;SAMPLE_ID&gt;.fastq.gz</text>
</g>
<!-- cut -->
<g id="node12" class="node">
<title>cut</title>
<polygon fill="none" stroke="#000000" points="671.3542,-1436 616.6458,-1436 616.6458,-1400 671.3542,-1400 671.3542,-1436"/>
<text text-anchor="middle" x="644" y="-1415" font-family="Helvetica,sans-Serif" font-size="10.00" fill="#000000">cutadapt</text>
</g>
<!-- input/&lt;SAMPLE_ID&gt;.fastq.gz&#45;&gt;cut -->
<g id="edge5" class="edge">
<title>input/&lt;SAMPLE_ID&gt;.fastq.gz&#45;&gt;cut</title>
<path fill="none" stroke="#000000" d="M675.2188,-1515.875C669.2531,-1497.172 659.8676,-1467.747 652.9438,-1446.0399"/>
<polygon fill="#000000" stroke="#000000" points="656.2361,-1444.844 649.8628,-1436.3805 649.5672,-1446.9713 656.2361,-1444.844"/>
</g>
<!-- ribosome_dataItoN -->
<g id="node7" class="node">
<title>ribosome_dataItoN</title>
<text text-anchor="middle" x="563" y="-1531" font-family="Helvetica,sans-Serif" font-size="10.00" fill="#000000">...</text>
</g>
<!-- index/rRNA.1|...|8.ht2 -->
<g id="node10" class="node">
<title>index/rRNA.1|...|8.ht2</title>
<text text-anchor="middle" x="72" y="-1343" font-family="Helvetica,sans-Serif" font-size="10.00" fill="#000000">index/rRNA.1|...|8.ht2</text>
</g>
<!-- h2build1&#45;&gt;index/rRNA.1|...|8.ht2 -->
<g id="edge2" class="edge">
<title>h2build1&#45;&gt;index/rRNA.1|...|8.ht2</title>
<path fill="none" stroke="#000000" d="M95.925,-1399.8314C92.3898,-1391.8771 88.164,-1382.369 84.2544,-1373.5723"/>
<polygon fill="#000000" stroke="#000000" points="87.4435,-1372.1299 80.1837,-1364.4133 81.0468,-1374.9729 87.4435,-1372.1299"/>
</g>
<!-- index/CDS.1|...|8.ht2 -->
<g id="node11" class="node">
<title>index/CDS.1|...|8.ht2</title>
<text text-anchor="middle" x="200" y="-1343" font-family="Helvetica,sans-Serif" font-size="10.00" fill="#000000">index/CDS.1|...|8.ht2</text>
</g>
<!-- h2build2&#45;&gt;index/CDS.1|...|8.ht2 -->
<g id="edge4" class="edge">
<title>h2build2&#45;&gt;index/CDS.1|...|8.ht2</title>
<path fill="none" stroke="#000000" d="M207.4766,-1399.8314C206.4071,-1392.131 205.1353,-1382.9743 203.9468,-1374.4166"/>
<polygon fill="#000000" stroke="#000000" points="207.3999,-1373.8367 202.5574,-1364.4133 200.4664,-1374.7997 207.3999,-1373.8367"/>
</g>
<!-- h21 -->
<g id="node13" class="node">
<title>h21</title>
<polygon fill="none" stroke="#000000" points="560,-1292 506,-1292 506,-1256 560,-1256 560,-1292"/>
<text text-anchor="middle" x="533" y="-1271" font-family="Helvetica,sans-Serif" font-size="10.00" fill="#000000">hisat2</text>
</g>
<!-- index/rRNA.1|...|8.ht2&#45;&gt;h21 -->
<g id="edge8" class="edge">
<title>index/rRNA.1|...|8.ht2&#45;&gt;h21</title>
<path fill="none" stroke="#000000" d="M112.3659,-1327.9445C120.4012,-1324.8971 128.8705,-1322.0592 137,-1320 265.9112,-1287.3478 424.3853,-1277.7969 495.4304,-1275.0637"/>
<polygon fill="#000000" stroke="#000000" points="495.7974,-1278.5529 505.6647,-1274.6945 495.545,-1271.5574 495.7974,-1278.5529"/>
</g>
<!-- h22 -->
<g id="node14" class="node">
<title>h22</title>
<polygon fill="none" stroke="#000000" points="571,-1148 517,-1148 517,-1112 571,-1112 571,-1148"/>
<text text-anchor="middle" x="544" y="-1127" font-family="Helvetica,sans-Serif" font-size="10.00" fill="#000000">hisat2</text>
</g>
<!-- index/CDS.1|...|8.ht2&#45;&gt;h22 -->
<g id="edge11" class="edge">
<title>index/CDS.1|...|8.ht2&#45;&gt;h22</title>
<path fill="none" stroke="#000000" d="M202.1909,-1327.8811C207.3036,-1293.9801 223.2799,-1221.0492 269,-1184 305.0613,-1154.7778 440.1194,-1139.1191 506.5824,-1133.0379"/>
<polygon fill="#000000" stroke="#000000" points="506.9842,-1136.5161 516.6347,-1132.1436 506.3638,-1129.5437 506.9842,-1136.5161"/>
</g>
<!-- tmp/&lt;SAMPLE_ID&gt;/&lt;SAMPLE_ID&gt;_trim.fq -->
<g id="node22" class="node">
<title>tmp/&lt;SAMPLE_ID&gt;/&lt;SAMPLE_ID&gt;_trim.fq</title>
<text text-anchor="middle" x="607" y="-1343" font-family="Helvetica,sans-Serif" font-size="10.00" fill="#000000">tmp/&lt;SAMPLE_ID&gt;/&lt;SAMPLE_ID&gt;_trim.fq</text>
</g>
<!-- cut&#45;&gt;tmp/&lt;SAMPLE_ID&gt;/&lt;SAMPLE_ID&gt;_trim.fq -->
<g id="edge6" class="edge">
<title>cut&#45;&gt;tmp/&lt;SAMPLE_ID&gt;/&lt;SAMPLE_ID&gt;_trim.fq</title>
<path fill="none" stroke="#000000" d="M634.6633,-1399.8314C630.5757,-1391.8771 625.6896,-1382.369 621.1691,-1373.5723"/>
<polygon fill="#000000" stroke="#000000" points="624.1461,-1371.7078 616.4624,-1364.4133 617.9201,-1374.9074 624.1461,-1371.7078"/>
</g>
<!-- tmp/&lt;SAMPLE_ID&gt;/&lt;SAMPLE_ID&gt;_rRNA_map.sam -->
<g id="node23" class="node">
<title>tmp/&lt;SAMPLE_ID&gt;/&lt;SAMPLE_ID&gt;_rRNA_map.sam</title>
<text text-anchor="middle" x="403" y="-1199" font-family="Helvetica,sans-Serif" font-size="10.00" fill="#000000">tmp/&lt;SAMPLE_ID&gt;/&lt;SAMPLE_ID&gt;_rRNA_map.sam</text>
</g>
<!-- h21&#45;&gt;tmp/&lt;SAMPLE_ID&gt;/&lt;SAMPLE_ID&gt;_rRNA_map.sam -->
<g id="edge9" class="edge">
<title>h21&#45;&gt;tmp/&lt;SAMPLE_ID&gt;/&lt;SAMPLE_ID&gt;_rRNA_map.sam</title>
<path fill="none" stroke="#000000" d="M505.7477,-1258.9064C488.0569,-1249.1084 464.6571,-1236.1486 444.6573,-1225.0718"/>
<polygon fill="#000000" stroke="#000000" points="446.1839,-1221.9163 435.7402,-1220.133 442.7924,-1228.0399 446.1839,-1221.9163"/>
</g>
<!-- tmp/&lt;SAMPLE_ID&gt;/&lt;SAMPLE_ID&gt;_nonrRNA.fq -->
<g id="node24" class="node">
<title>tmp/&lt;SAMPLE_ID&gt;/&lt;SAMPLE_ID&gt;_nonrRNA.fq</title>
<text text-anchor="middle" x="662" y="-1199" font-family="Helvetica,sans-Serif" font-size="10.00" fill="#000000">tmp/&lt;SAMPLE_ID&gt;/&lt;SAMPLE_ID&gt;_nonrRNA.fq</text>
</g>
<!-- h21&#45;&gt;tmp/&lt;SAMPLE_ID&gt;/&lt;SAMPLE_ID&gt;_nonrRNA.fq -->
<g id="edge10" class="edge">
<title>h21&#45;&gt;tmp/&lt;SAMPLE_ID&gt;/&lt;SAMPLE_ID&gt;_nonrRNA.fq</title>
<path fill="none" stroke="#000000" d="M560.0426,-1258.9064C577.5974,-1249.1084 600.8171,-1236.1486 620.6631,-1225.0718"/>
<polygon fill="#000000" stroke="#000000" points="622.4854,-1228.063 629.5116,-1220.133 619.0738,-1221.9506 622.4854,-1228.063"/>
</g>
<!-- tmp/&lt;SAMPLE_ID&gt;/&lt;SAMPLE_ID&gt;_unaligned.fq -->
<g id="node25" class="node">
<title>tmp/&lt;SAMPLE_ID&gt;/&lt;SAMPLE_ID&gt;_unaligned.fq</title>
<text text-anchor="middle" x="427" y="-1055" font-family="Helvetica,sans-Serif" font-size="10.00" fill="#000000">tmp/&lt;SAMPLE_ID&gt;/&lt;SAMPLE_ID&gt;_unaligned.fq</text>
</g>
<!-- h22&#45;&gt;tmp/&lt;SAMPLE_ID&gt;/&lt;SAMPLE_ID&gt;_unaligned.fq -->
<g id="edge13" class="edge">
<title>h22&#45;&gt;tmp/&lt;SAMPLE_ID&gt;/&lt;SAMPLE_ID&gt;_unaligned.fq</title>
<path fill="none" stroke="#000000" d="M516.8638,-1113.3008C501.4577,-1103.8201 481.9313,-1091.8039 465.0188,-1081.3962"/>
<polygon fill="#000000" stroke="#000000" points="466.7995,-1078.3824 456.4485,-1076.1222 463.1307,-1084.344 466.7995,-1078.3824"/>
</g>
<!-- tmp/&lt;SAMPLE_ID&gt;/&lt;SAMPLE_ID&gt;_orf_map.sam -->
<g id="node26" class="node">
<title>tmp/&lt;SAMPLE_ID&gt;/&lt;SAMPLE_ID&gt;_orf_map.sam</title>
<text text-anchor="middle" x="681" y="-1055" font-family="Helvetica,sans-Serif" font-size="10.00" fill="#000000">tmp/&lt;SAMPLE_ID&gt;/&lt;SAMPLE_ID&gt;_orf_map.sam</text>
</g>
<!-- h22&#45;&gt;tmp/&lt;SAMPLE_ID&gt;/&lt;SAMPLE_ID&gt;_orf_map.sam -->
<g id="edge14" class="edge">
<title>h22&#45;&gt;tmp/&lt;SAMPLE_ID&gt;/&lt;SAMPLE_ID&gt;_orf_map.sam</title>
<path fill="none" stroke="#000000" d="M571.0668,-1115.7751C590.0355,-1105.8061 615.7941,-1092.2688 637.6093,-1080.8038"/>
<polygon fill="#000000" stroke="#000000" points="639.4623,-1083.784 646.686,-1076.0336 636.2057,-1077.5876 639.4623,-1083.784"/>
</g>
<!-- samindex -->
<g id="node15" class="node">
<title>samindex</title>
<polygon fill="none" stroke="#000000" points="722.1796,-716 639.8204,-716 639.8204,-680 722.1796,-680 722.1796,-716"/>
<text text-anchor="middle" x="681" y="-695" font-family="Helvetica,sans-Serif" font-size="10.00" fill="#000000">samtools index</text>
</g>
<!-- output/&lt;SAMPLE_ID&gt;/&lt;SAMPLE_ID&gt;.bam+.bai -->
<g id="node29" class="node">
<title>output/&lt;SAMPLE_ID&gt;/&lt;SAMPLE_ID&gt;.bam+.bai</title>
<text text-anchor="middle" x="681" y="-623" font-family="Helvetica,sans-Serif" font-size="10.00" fill="#000000">output/&lt;SAMPLE_ID&gt;/&lt;SAMPLE_ID&gt;.bam+.bai</text>
</g>
<!-- samindex&#45;&gt;output/&lt;SAMPLE_ID&gt;/&lt;SAMPLE_ID&gt;.bam+.bai -->
<g id="edge20" class="edge">
<title>samindex&#45;&gt;output/&lt;SAMPLE_ID&gt;/&lt;SAMPLE_ID&gt;.bam+.bai</title>
<path fill="none" stroke="#000000" d="M681,-679.8314C681,-672.131 681,-662.9743 681,-654.4166"/>
<polygon fill="#000000" stroke="#000000" points="684.5001,-654.4132 681,-644.4133 677.5001,-654.4133 684.5001,-654.4132"/>
</g>
<!-- samview -->
<g id="node16" class="node">
<title>samview</title>
<polygon fill="none" stroke="#000000" points="754.3875,-860 607.6125,-860 607.6125,-824 754.3875,-824 754.3875,-860"/>
<text text-anchor="middle" x="681" y="-839" font-family="Helvetica,sans-Serif" font-size="10.00" fill="#000000">samtools view | samtools sort</text>
</g>
<!-- output/&lt;SAMPLE_ID&gt;/&lt;SAMPLE_ID&gt;.bam -->
<g id="node28" class="node">
<title>output/&lt;SAMPLE_ID&gt;/&lt;SAMPLE_ID&gt;.bam</title>
<text text-anchor="middle" x="681" y="-767" font-family="Helvetica,sans-Serif" font-size="10.00" fill="#000000">output/&lt;SAMPLE_ID&gt;/&lt;SAMPLE_ID&gt;.bam</text>
</g>
<!-- samview&#45;&gt;output/&lt;SAMPLE_ID&gt;/&lt;SAMPLE_ID&gt;.bam -->
<g id="edge18" class="edge">
<title>samview&#45;&gt;output/&lt;SAMPLE_ID&gt;/&lt;SAMPLE_ID&gt;.bam</title>
<path fill="none" stroke="#000000" d="M681,-823.8314C681,-816.131 681,-806.9743 681,-798.4166"/>
<polygon fill="#000000" stroke="#000000" points="684.5001,-798.4132 681,-788.4133 677.5001,-798.4133 684.5001,-798.4132"/>
</g>
<!-- trim -->
<g id="node17" class="node">
<title>trim</title>
<polygon fill="none" stroke="#000000" points="736.504,-1004 625.496,-1004 625.496,-968 736.504,-968 736.504,-1004"/>
<text text-anchor="middle" x="681" y="-983" font-family="Helvetica,sans-Serif" font-size="10.00" fill="#000000">trim_5p_mismatch.py</text>
</g>
<!-- tmp/&lt;SAMPLE_ID&gt;/&lt;SAMPLE_ID&gt;_orf_map_clean.sam -->
<g id="node27" class="node">
<title>tmp/&lt;SAMPLE_ID&gt;/&lt;SAMPLE_ID&gt;_orf_map_clean.sam</title>
<text text-anchor="middle" x="681" y="-911" font-family="Helvetica,sans-Serif" font-size="10.00" fill="#000000">tmp/&lt;SAMPLE_ID&gt;/&lt;SAMPLE_ID&gt;_orf_map_clean.sam</text>
</g>
<!-- trim&#45;&gt;tmp/&lt;SAMPLE_ID&gt;/&lt;SAMPLE_ID&gt;_orf_map_clean.sam -->
<g id="edge16" class="edge">
<title>trim&#45;&gt;tmp/&lt;SAMPLE_ID&gt;/&lt;SAMPLE_ID&gt;_orf_map_clean.sam</title>
<path fill="none" stroke="#000000" d="M681,-967.8314C681,-960.131 681,-950.9743 681,-942.4166"/>
<polygon fill="#000000" stroke="#000000" points="684.5001,-942.4132 681,-932.4133 677.5001,-942.4133 684.5001,-942.4132"/>
</g>
<!-- bedplus -->
<g id="node18" class="node">
<title>bedplus</title>
<polygon fill="none" stroke="#000000" points="534.5319,-572 411.4681,-572 411.4681,-536 534.5319,-536 534.5319,-572"/>
<text text-anchor="middle" x="473" y="-551" font-family="Helvetica,sans-Serif" font-size="10.00" fill="#000000">bedtools genomecov (+)</text>
</g>
<!-- output/&lt;SAMPLE_ID&gt;/&lt;SAMPLE_ID&gt;_plus.bedgraph -->
<g id="node30" class="node">
<title>output/&lt;SAMPLE_ID&gt;/&lt;SAMPLE_ID&gt;_plus.bedgraph</title>
<text text-anchor="middle" x="405" y="-479" font-family="Helvetica,sans-Serif" font-size="10.00" fill="#000000">output/&lt;SAMPLE_ID&gt;/&lt;SAMPLE_ID&gt;_plus.bedgraph</text>
</g>
<!-- bedplus&#45;&gt;output/&lt;SAMPLE_ID&gt;/&lt;SAMPLE_ID&gt;_plus.bedgraph -->
<g id="edge22" class="edge">
<title>bedplus&#45;&gt;output/&lt;SAMPLE_ID&gt;/&lt;SAMPLE_ID&gt;_plus.bedgraph</title>
<path fill="none" stroke="#000000" d="M455.8407,-535.8314C447.8489,-527.3694 438.1962,-517.1489 429.4584,-507.8971"/>
<polygon fill="#000000" stroke="#000000" points="431.8011,-505.2802 422.3903,-500.4133 426.712,-510.0866 431.8011,-505.2802"/>
</g>
<!-- bedminus -->
<g id="node19" class="node">
<title>bedminus</title>
<polygon fill="none" stroke="#000000" points="741.521,-572 620.479,-572 620.479,-536 741.521,-536 741.521,-572"/>
<text text-anchor="middle" x="681" y="-551" font-family="Helvetica,sans-Serif" font-size="10.00" fill="#000000">bedtools genomecov (&#45;)</text>
</g>
<!-- output/&lt;SAMPLE_ID&gt;/&lt;SAMPLE_ID&gt;_minus.bedgraph -->
<g id="node31" class="node">
<title>output/&lt;SAMPLE_ID&gt;/&lt;SAMPLE_ID&gt;_minus.bedgraph</title>
<text text-anchor="middle" x="681" y="-479" font-family="Helvetica,sans-Serif" font-size="10.00" fill="#000000">output/&lt;SAMPLE_ID&gt;/&lt;SAMPLE_ID&gt;_minus.bedgraph</text>
</g>
<!-- bedminus&#45;&gt;output/&lt;SAMPLE_ID&gt;/&lt;SAMPLE_ID&gt;_minus.bedgraph -->
<g id="edge24" class="edge">
<title>bedminus&#45;&gt;output/&lt;SAMPLE_ID&gt;/&lt;SAMPLE_ID&gt;_minus.bedgraph</title>
<path fill="none" stroke="#000000" d="M681,-535.8314C681,-528.131 681,-518.9743 681,-510.4166"/>
<polygon fill="#000000" stroke="#000000" points="684.5001,-510.4132 681,-500.4133 677.5001,-510.4133 684.5001,-510.4132"/>
</g>
<!-- output/&lt;SAMPLE_ID&gt;/&lt;SAMPLE_ID&gt;.h5 -->
<g id="node32" class="node">
<title>output/&lt;SAMPLE_ID&gt;/&lt;SAMPLE_ID&gt;.h5</title>
<text text-anchor="middle" x="930" y="-479" font-family="Helvetica,sans-Serif" font-size="10.00" fill="#000000">output/&lt;SAMPLE_ID&gt;/&lt;SAMPLE_ID&gt;.h5</text>
</g>
<!-- bam2h5&#45;&gt;output/&lt;SAMPLE_ID&gt;/&lt;SAMPLE_ID&gt;.h5 -->
<g id="edge27" class="edge">
<title>bam2h5&#45;&gt;output/&lt;SAMPLE_ID&gt;/&lt;SAMPLE_ID&gt;.h5</title>
<path fill="none" stroke="#000000" d="M930,-535.8314C930,-528.131 930,-518.9743 930,-510.4166"/>
<polygon fill="#000000" stroke="#000000" points="933.5001,-510.4132 930,-500.4133 926.5001,-510.4133 933.5001,-510.4132"/>
</g>
<!-- pdfs -->
<g id="node33" class="node">
<title>pdfs</title>
<polygon fill="none" stroke="#000000" stroke-dasharray="5,2" points="593.5473,-356 278.4527,-356 278.4527,-168 593.5473,-168 593.5473,-356"/>
<text text-anchor="middle" x="436" y="-343" font-family="Helvetica,sans-Serif" font-size="10.00" fill="#000000">output/&lt;SAMPLE_ID&gt;/&lt;SAMPLE_ID&gt;_3nt_periodicity.pdf</text>
<text text-anchor="middle" x="436" y="-319" font-family="Helvetica,sans-Serif" font-size="10.00" fill="#000000">output/&lt;SAMPLE_ID&gt;/&lt;SAMPLE_ID&gt;_codon_ribodens.pdf</text>
<text text-anchor="middle" x="436" y="-295" font-family="Helvetica,sans-Serif" font-size="10.00" fill="#000000">output/&lt;SAMPLE_ID&gt;/&lt;SAMPLE_ID&gt;_read_lengths.pdf</text>
<text text-anchor="middle" x="436" y="-271" font-family="Helvetica,sans-Serif" font-size="10.00" fill="#000000">output/&lt;SAMPLE_ID&gt;/&lt;SAMPLE_ID&gt;_pos_sp_rpf_norm_reads.pdf</text>
<text text-anchor="middle" x="436" y="-247" font-family="Helvetica,sans-Serif" font-size="10.00" fill="#000000">output/&lt;SAMPLE_ID&gt;/&lt;SAMPLE_ID&gt;_features.pdf</text>
<text text-anchor="middle" x="436" y="-223" font-family="Helvetica,sans-Serif" font-size="10.00" fill="#000000">output/&lt;SAMPLE_ID&gt;/&lt;SAMPLE_ID&gt;_startcodon_ribogridbar.pdf</text>
<text text-anchor="middle" x="436" y="-199" font-family="Helvetica,sans-Serif" font-size="10.00" fill="#000000">output/&lt;SAMPLE_ID&gt;/&lt;SAMPLE_ID&gt;_startcodon_ribogrid.pdf</text>
<text text-anchor="middle" x="436" y="-175" font-family="Helvetica,sans-Serif" font-size="10.00" fill="#000000">output/&lt;SAMPLE_ID&gt;/&lt;SAMPLE_ID&gt;_3ntframe_propbygene.pdf</text>
</g>
<!-- statsfigs&#45;&gt;pdfs -->
<g id="edge32" class="edge">
<title>statsfigs&#45;&gt;pdfs</title>
<path fill="none" stroke="#000000" d="M1000.0544,-406.0266C899.0574,-398.5352 691.6753,-381.0406 603.6075,-355.8409"/>
<polygon fill="#000000" stroke="#000000" points="604.5562,-352.4711 593.9698,-352.8931 602.5088,-359.165 604.5562,-352.4711"/>
</g>
<!-- tsvs -->
<g id="node34" class="node">
<title>tsvs</title>
<polygon fill="none" stroke="#000000" stroke-dasharray="5,2" points="926.4293,-332 611.5707,-332 611.5707,-192 926.4293,-192 926.4293,-332"/>
<text text-anchor="middle" x="769" y="-319" font-family="Helvetica,sans-Serif" font-size="10.00" fill="#000000">output/&lt;SAMPLE_ID&gt;/&lt;SAMPLE_ID&gt;_3nt_periodicity.tsv</text>
<text text-anchor="middle" x="769" y="-295" font-family="Helvetica,sans-Serif" font-size="10.00" fill="#000000">output/&lt;SAMPLE_ID&gt;/&lt;SAMPLE_ID&gt;_codon_ribodens.tsv</text>
<text text-anchor="middle" x="769" y="-271" font-family="Helvetica,sans-Serif" font-size="10.00" fill="#000000">output/&lt;SAMPLE_ID&gt;/&lt;SAMPLE_ID&gt;_read_lengths.tsv</text>
<text text-anchor="middle" x="769" y="-247" font-family="Helvetica,sans-Serif" font-size="10.00" fill="#000000">output/&lt;SAMPLE_ID&gt;/&lt;SAMPLE_ID&gt;_pos_sp_rpf_norm_reads.tsv</text>
<text text-anchor="middle" x="769" y="-223" font-family="Helvetica,sans-Serif" font-size="10.00" fill="#000000">output/&lt;SAMPLE_ID&gt;/&lt;SAMPLE_ID&gt;_pos_sp_nt_freq.tsv</text>
<text text-anchor="middle" x="769" y="-199" font-family="Helvetica,sans-Serif" font-size="10.00" fill="#000000">output/&lt;SAMPLE_ID&gt;/&lt;SAMPLE_ID&gt;_3ntframe_bygene.tsv</text>
</g>
<!-- statsfigs&#45;&gt;tsvs -->
<g id="edge33" class="edge">
<title>statsfigs&#45;&gt;tsvs</title>
<path fill="none" stroke="#000000" d="M1013.3229,-391.9057C989.8476,-381.8717 960.556,-368.8524 935,-356 923.0954,-350.013 910.8324,-343.5861 898.6177,-337.0053"/>
<polygon fill="#000000" stroke="#000000" points="900.1971,-333.8803 889.7379,-332.1903 896.8604,-340.0339 900.1971,-333.8803"/>
</g>
<!-- output/&lt;SAMPLE_ID&gt;/&lt;SAMPLE_ID&gt;_tpms.tsv -->
<g id="node35" class="node">
<title>output/&lt;SAMPLE_ID&gt;/&lt;SAMPLE_ID&gt;_tpms.tsv</title>
<text text-anchor="middle" x="1058" y="-259" font-family="Helvetica,sans-Serif" font-size="10.00" fill="#000000">output/&lt;SAMPLE_ID&gt;/&lt;SAMPLE_ID&gt;_tpms.tsv</text>
</g>
<!-- statsfigs&#45;&gt;output/&lt;SAMPLE_ID&gt;/&lt;SAMPLE_ID&gt;_tpms.tsv -->
<g id="edge34" class="edge">
<title>statsfigs&#45;&gt;output/&lt;SAMPLE_ID&gt;/&lt;SAMPLE_ID&gt;_tpms.tsv</title>
<path fill="none" stroke="#000000" d="M1057.1226,-391.8523C1057.2936,-366.5539 1057.6052,-320.4342 1057.8073,-290.5167"/>
<polygon fill="#000000" stroke="#000000" points="1061.3086,-290.3196 1057.8764,-280.2961 1054.3088,-290.2722 1061.3086,-290.3196"/>
</g>
<!-- tmp/&lt;SAMPLE_ID&gt;/&lt;SAMPLE_ID&gt;_trim.fq&#45;&gt;h21 -->
<g id="edge7" class="edge">
<title>tmp/&lt;SAMPLE_ID&gt;/&lt;SAMPLE_ID&gt;_trim.fq&#45;&gt;h21</title>
<path fill="none" stroke="#000000" d="M588.3267,-1327.8314C579.4751,-1319.219 568.7514,-1308.7851 559.1105,-1299.4048"/>
<polygon fill="#000000" stroke="#000000" points="561.2754,-1296.6279 551.6674,-1292.1628 556.3939,-1301.645 561.2754,-1296.6279"/>
</g>
<!-- tmp/&lt;SAMPLE_ID&gt;/&lt;SAMPLE_ID&gt;_nonrRNA.fq&#45;&gt;h22 -->
<g id="edge12" class="edge">
<title>tmp/&lt;SAMPLE_ID&gt;/&lt;SAMPLE_ID&gt;_nonrRNA.fq&#45;&gt;h22</title>
<path fill="none" stroke="#000000" d="M632.2236,-1183.8314C616.4394,-1174.2003 596.9219,-1162.2913 580.2608,-1152.1252"/>
<polygon fill="#000000" stroke="#000000" points="581.6998,-1148.9032 571.3403,-1146.6822 578.0537,-1154.8787 581.6998,-1148.9032"/>
</g>
<!-- tmp/&lt;SAMPLE_ID&gt;/&lt;SAMPLE_ID&gt;_orf_map.sam&#45;&gt;trim -->
<g id="edge15" class="edge">
<title>tmp/&lt;SAMPLE_ID&gt;/&lt;SAMPLE_ID&gt;_orf_map.sam&#45;&gt;trim</title>
<path fill="none" stroke="#000000" d="M681,-1039.8314C681,-1032.131 681,-1022.9743 681,-1014.4166"/>
<polygon fill="#000000" stroke="#000000" points="684.5001,-1014.4132 681,-1004.4133 677.5001,-1014.4133 684.5001,-1014.4132"/>
</g>
<!-- tmp/&lt;SAMPLE_ID&gt;/&lt;SAMPLE_ID&gt;_orf_map_clean.sam&#45;&gt;samview -->
<g id="edge17" class="edge">
<title>tmp/&lt;SAMPLE_ID&gt;/&lt;SAMPLE_ID&gt;_orf_map_clean.sam&#45;&gt;samview</title>
<path fill="none" stroke="#000000" d="M681,-895.8314C681,-888.131 681,-878.9743 681,-870.4166"/>
<polygon fill="#000000" stroke="#000000" points="684.5001,-870.4132 681,-860.4133 677.5001,-870.4133 684.5001,-870.4132"/>
</g>
<!-- output/&lt;SAMPLE_ID&gt;/&lt;SAMPLE_ID&gt;.bam&#45;&gt;samindex -->
<g id="edge19" class="edge">
<title>output/&lt;SAMPLE_ID&gt;/&lt;SAMPLE_ID&gt;.bam&#45;&gt;samindex</title>
<path fill="none" stroke="#000000" d="M681,-751.8314C681,-744.131 681,-734.9743 681,-726.4166"/>
<polygon fill="#000000" stroke="#000000" points="684.5001,-726.4132 681,-716.4133 677.5001,-726.4133 684.5001,-726.4132"/>
</g>
<!-- output/&lt;SAMPLE_ID&gt;/&lt;SAMPLE_ID&gt;.bam+.bai&#45;&gt;bedplus -->
<g id="edge21" class="edge">
<title>output/&lt;SAMPLE_ID&gt;/&lt;SAMPLE_ID&gt;.bam+.bai&#45;&gt;bedplus</title>
<path fill="none" stroke="#000000" d="M628.7813,-607.9243C600.2229,-598.0387 564.6705,-585.7321 534.7432,-575.3726"/>
<polygon fill="#000000" stroke="#000000" points="535.835,-572.0469 525.2402,-572.0831 533.5451,-578.6618 535.835,-572.0469"/>
</g>
<!-- output/&lt;SAMPLE_ID&gt;/&lt;SAMPLE_ID&gt;.bam+.bai&#45;&gt;bedminus -->
<g id="edge23" class="edge">
<title>output/&lt;SAMPLE_ID&gt;/&lt;SAMPLE_ID&gt;.bam+.bai&#45;&gt;bedminus</title>
<path fill="none" stroke="#000000" d="M681,-607.8314C681,-600.131 681,-590.9743 681,-582.4166"/>
<polygon fill="#000000" stroke="#000000" points="684.5001,-582.4132 681,-572.4133 677.5001,-582.4133 684.5001,-582.4132"/>
</g>
<!-- output/&lt;SAMPLE_ID&gt;/&lt;SAMPLE_ID&gt;.bam+.bai&#45;&gt;bam2h5 -->
<g id="edge25" class="edge">
<title>output/&lt;SAMPLE_ID&gt;/&lt;SAMPLE_ID&gt;.bam+.bai&#45;&gt;bam2h5</title>
<path fill="none" stroke="#000000" d="M743.5118,-607.9243C786.5407,-595.4822 842.8323,-579.2051 882.2686,-567.8018"/>
<polygon fill="#000000" stroke="#000000" points="883.2791,-571.1531 891.9133,-565.013 881.3346,-564.4286 883.2791,-571.1531"/>
</g>
<!-- output/&lt;SAMPLE_ID&gt;/&lt;SAMPLE_ID&gt;.h5&#45;&gt;statsfigs -->
<g id="edge28" class="edge">
<title>output/&lt;SAMPLE_ID&gt;/&lt;SAMPLE_ID&gt;.h5&#45;&gt;statsfigs</title>
<path fill="none" stroke="#000000" d="M962.0475,-463.8314C978.442,-454.5368 998.5786,-443.1208 1016.0829,-433.1971"/>
<polygon fill="#000000" stroke="#000000" points="1017.9897,-436.1395 1024.9628,-428.1628 1014.5374,-430.05 1017.9897,-436.1395"/>
</g>
<!-- collate -->
<g id="node36" class="node">
<title>collate</title>
<polygon fill="none" stroke="#000000" points="1099.1181,-124 1016.8819,-124 1016.8819,-88 1099.1181,-88 1099.1181,-124"/>
<text text-anchor="middle" x="1058" y="-103" font-family="Helvetica,sans-Serif" font-size="10.00" fill="#000000">collate_tpms.R</text>
</g>
<!-- output/&lt;SAMPLE_ID&gt;/&lt;SAMPLE_ID&gt;_tpms.tsv&#45;&gt;collate -->
<g id="edge35" class="edge">
<title>output/&lt;SAMPLE_ID&gt;/&lt;SAMPLE_ID&gt;_tpms.tsv&#45;&gt;collate</title>
<path fill="none" stroke="#000000" d="M1058,-243.7995C1058,-216.9103 1058,-166.3255 1058,-134.4926"/>
<polygon fill="#000000" stroke="#000000" points="1061.5001,-134.0845 1058,-124.0846 1054.5001,-134.0846 1061.5001,-134.0845"/>
</g>
<!-- output/TPMs_collated.tsv -->
<g id="node37" class="node">
<title>output/TPMs_collated.tsv</title>
<text text-anchor="middle" x="1058" y="-31" font-family="Helvetica,sans-Serif" font-size="10.00" fill="#000000">output/TPMs_collated.tsv</text>
</g>
<!-- collate&#45;&gt;output/TPMs_collated.tsv -->
<g id="edge36" class="edge">
<title>collate&#45;&gt;output/TPMs_collated.tsv</title>
<path fill="none" stroke="#000000" d="M1058,-87.8314C1058,-80.131 1058,-70.9743 1058,-62.4166"/>
<polygon fill="#000000" stroke="#000000" points="1061.5001,-62.4132 1058,-52.4133 1054.5001,-62.4133 1061.5001,-62.4132"/>
</g>
</g>
</svg>
