<?xml version="1.0" encoding="UTF-8" standalone="no"?>
<!DOCTYPE svg PUBLIC "-//W3C//DTD SVG 1.1//EN"
 "http://www.w3.org/Graphics/SVG/1.1/DTD/svg11.dtd">
<!-- Generated by graphviz version 2.40.1 (20161225.0304)
 -->
<!-- Title: G Pages: 1 -->
<svg width="1625pt" height="1819pt"
 viewBox="0.00 0.00 1625.00 1819.00" xmlns="http://www.w3.org/2000/svg" xmlns:xlink="http://www.w3.org/1999/xlink">
<g id="graph0" class="graph" transform="scale(1 1) rotate(0) translate(4 1815)">
<title>G</title>
<polygon fill="#ffffff" stroke="transparent" points="-4,4 -4,-1815 1621,-1815 1621,4 -4,4"/>
<g id="clust1" class="cluster">
<title>cluster_data</title>
<polygon fill="none" stroke="#000000" stroke-dasharray="5,2" points="795,-1645 795,-1803 1609,-1803 1609,-1645 795,-1645"/>
<text text-anchor="middle" x="814" y="-1791" font-family="Helvetica,sans-Serif" font-size="10.00" fill="#000000">Data</text>
</g>
<g id="clust2" class="cluster">
<title>cluster_organism</title>
<polygon fill="none" stroke="#000000" stroke-dasharray="5,2" points="899,-1679 899,-1750 1089,-1750 1089,-1679 899,-1679"/>
<text text-anchor="middle" x="939" y="-1738" font-family="Helvetica,sans-Serif" font-size="10.00" fill="#000000">Organism data</text>
</g>
<g id="clust3" class="cluster">
<title>cluster_contaminants</title>
<polygon fill="none" stroke="#000000" stroke-dasharray="5,2" points="803,-1679 803,-1750 891,-1750 891,-1679 803,-1679"/>
<text text-anchor="middle" x="841.5" y="-1738" font-family="Helvetica,sans-Serif" font-size="10.00" fill="#000000">Contaminants</text>
</g>
<g id="clust4" class="cluster">
<title>cluster_additional_organism</title>
<polygon fill="none" stroke="#000000" stroke-dasharray="5,2" points="1413,-1653 1413,-1776 1601,-1776 1601,-1653 1413,-1653"/>
<text text-anchor="middle" x="1493.5" y="-1764" font-family="Helvetica,sans-Serif" font-size="10.00" fill="#000000">Additional organism&#45;specific data</text>
</g>
<g id="clust5" class="cluster">
<title>cluster_ribosome</title>
<polygon fill="none" stroke="#000000" stroke-dasharray="5,2" points="1097,-1679 1097,-1750 1405,-1750 1405,-1679 1097,-1679"/>
<text text-anchor="middle" x="1156.5" y="-1738" font-family="Helvetica,sans-Serif" font-size="10.00" fill="#000000">Ribosome profiling data</text>
</g>
<g id="clust6" class="cluster">
<title>cluster_indexing</title>
<polygon fill="none" stroke="#000000" points="753,-1494 753,-1637 1006,-1637 1006,-1494 753,-1494"/>
<text text-anchor="middle" x="779.5" y="-1625" font-family="Helvetica,sans-Serif" font-size="10.00" fill="#000000">Indexing</text>
</g>
<g id="clust7" class="cluster">
<title>cluster_per_sample_processing</title>
<polygon fill="none" stroke="#000000" points="8,-8 8,-1637 745,-1637 745,-8 8,-8"/>
<text text-anchor="middle" x="70" y="-1625" font-family="Helvetica,sans-Serif" font-size="10.00" fill="#000000">Process &lt;SAMPLE_ID&gt;</text>
</g>
<g id="clust8" class="cluster">
<title>cluster_summary</title>
<polygon fill="none" stroke="#000000" points="879,-8 879,-151 1157,-151 1157,-8 879,-8"/>
<text text-anchor="middle" x="908.5" y="-139" font-family="Helvetica,sans-Serif" font-size="10.00" fill="#000000">Summary</text>
</g>
<!-- input/CDS.fa -->
<g id="node1" class="node">
<title>input/CDS.fa</title>
<text text-anchor="middle" x="944" y="-1702.5" font-family="Helvetica,sans-Serif" font-size="10.00" fill="#000000">input/CDS.fa</text>
</g>
<!-- h2build2 -->
<g id="node9" class="node">
<title>h2build2</title>
<polygon fill="none" stroke="#000000" points="977,-1610 911,-1610 911,-1574 977,-1574 977,-1610"/>
<text text-anchor="middle" x="944" y="-1589.5" font-family="Helvetica,sans-Serif" font-size="10.00" fill="#000000">hisat2&#45;build</text>
</g>
<!-- input/CDS.fa&#45;&gt;h2build2 -->
<g id="edge3" class="edge">
<title>input/CDS.fa&#45;&gt;h2build2</title>
<path fill="none" stroke="#000000" d="M944,-1686.8446C944,-1668.8877 944,-1641.1466 944,-1620.2969"/>
<polygon fill="#000000" stroke="#000000" points="947.5001,-1620.1103 944,-1610.1103 940.5001,-1620.1104 947.5001,-1620.1103"/>
</g>
<!-- statsfigs -->
<g id="node22" class="node">
<title>statsfigs</title>
<polygon fill="none" stroke="#000000" points="692.5,-458 579.5,-458 579.5,-422 692.5,-422 692.5,-458"/>
<text text-anchor="middle" x="636" y="-437.5" font-family="Helvetica,sans-Serif" font-size="10.00" fill="#000000">generate_stats_figs.R</text>
</g>
<!-- input/CDS.fa&#45;&gt;statsfigs -->
<g id="edge32" class="edge">
<title>input/CDS.fa&#45;&gt;statsfigs</title>
<path fill="none" stroke="#000000" d="M954.2322,-1686.8768C962.4416,-1673.7313 975.0419,-1656.3384 990,-1645 997.6295,-1639.2168 1004.6327,-1644.9276 1010,-1637 1045.6311,-1584.3717 1017.8463,-1557.0694 1010,-1494 978.873,-1243.7987 871,-1196.1301 871,-944 871,-944 871,-944 871,-584 871,-504.5314 772.0916,-467.5669 702.61,-451.404"/>
<polygon fill="#000000" stroke="#000000" points="703.1096,-447.9295 692.5874,-449.1677 701.5852,-454.7615 703.1096,-447.9295"/>
</g>
<!-- input/CDS.gff3 -->
<g id="node2" class="node">
<title>input/CDS.gff3</title>
<text text-anchor="middle" x="1040" y="-1702.5" font-family="Helvetica,sans-Serif" font-size="10.00" fill="#000000">input/CDS.gff3</text>
</g>
<!-- bam2h5 -->
<g id="node20" class="node">
<title>bam2h5</title>
<polygon fill="none" stroke="#000000" points="673.5,-602 598.5,-602 598.5,-566 673.5,-566 673.5,-602"/>
<text text-anchor="middle" x="636" y="-581.5" font-family="Helvetica,sans-Serif" font-size="10.00" fill="#000000">bam_to_h5.R</text>
</g>
<!-- input/CDS.gff3&#45;&gt;bam2h5 -->
<g id="edge29" class="edge">
<title>input/CDS.gff3&#45;&gt;bam2h5</title>
<path fill="none" stroke="#000000" d="M1040.0877,-1686.9359C1040.2455,-1650.4665 1040.5151,-1565.4304 1040,-1494 1039.3333,-1401.5483 1055.6317,-1376.5572 1037,-1286 1004.2932,-1127.0327 909,-1106.2971 909,-944 909,-944 909,-944 909,-728 909,-627.3578 762.0552,-596.8809 683.7811,-587.7857"/>
<polygon fill="#000000" stroke="#000000" points="683.9929,-584.2882 673.6729,-586.6855 683.2354,-591.2471 683.9929,-584.2882"/>
</g>
<!-- input/CDS.gff3&#45;&gt;statsfigs -->
<g id="edge33" class="edge">
<title>input/CDS.gff3&#45;&gt;statsfigs</title>
<path fill="none" stroke="#000000" d="M1044.6511,-1686.9611C1047.9339,-1673.339 1052.0769,-1654.1284 1054,-1637 1066.0528,-1529.6517 1057.8888,-1502.0171 1059,-1394 1059.4945,-1345.9285 1060.8517,-1333.4285 1053,-1286 1027.0095,-1129.0033 947,-1103.1335 947,-944 947,-944 947,-944 947,-584 947,-523.875 899.0565,-522.2847 846,-494 801.2539,-470.1456 745.4555,-456.4439 702.6243,-448.8151"/>
<polygon fill="#000000" stroke="#000000" points="703.0329,-445.3342 692.5855,-447.0953 701.8509,-452.2337 703.0329,-445.3342"/>
</g>
<!-- input/rRNA.fa -->
<g id="node3" class="node">
<title>input/rRNA.fa</title>
<text text-anchor="middle" x="847" y="-1702.8" font-family="Helvetica,sans-Serif" font-size="9.00" fill="#000000">input/rRNA.fa</text>
</g>
<!-- h2build1 -->
<g id="node8" class="node">
<title>h2build1</title>
<polygon fill="none" stroke="#000000" points="865,-1610 799,-1610 799,-1574 865,-1574 865,-1610"/>
<text text-anchor="middle" x="832" y="-1589.5" font-family="Helvetica,sans-Serif" font-size="10.00" fill="#000000">hisat2&#45;build</text>
</g>
<!-- input/rRNA.fa&#45;&gt;h2build1 -->
<g id="edge1" class="edge">
<title>input/rRNA.fa&#45;&gt;h2build1</title>
<path fill="none" stroke="#000000" d="M844.59,-1686.8446C842.2063,-1668.8877 838.5239,-1641.1466 835.7562,-1620.2969"/>
<polygon fill="#000000" stroke="#000000" points="839.1896,-1619.5628 834.404,-1610.1103 832.2504,-1620.484 839.1896,-1619.5628"/>
</g>
<!-- data -->
<g id="node4" class="node">
<title>data</title>
<polygon fill="none" stroke="#000000" stroke-dasharray="5,2" points="1592.5,-1749 1421.5,-1749 1421.5,-1661 1592.5,-1661 1592.5,-1749"/>
<text text-anchor="middle" x="1507" y="-1737" font-family="Helvetica,sans-Serif" font-size="10.00" fill="#000000">data/codon_pos_i200.RData</text>
<text text-anchor="middle" x="1507" y="-1725" font-family="Helvetica,sans-Serif" font-size="10.00" fill="#000000">&#13;</text>
<text text-anchor="middle" x="1507" y="-1714" font-family="Helvetica,sans-Serif" font-size="10.00" fill="#000000">data/features.tsv</text>
<text text-anchor="middle" x="1507" y="-1702" font-family="Helvetica,sans-Serif" font-size="10.00" fill="#000000">&#13;</text>
<text text-anchor="middle" x="1507" y="-1691" font-family="Helvetica,sans-Serif" font-size="10.00" fill="#000000">data/tRNAs.tsv</text>
<text text-anchor="middle" x="1507" y="-1679" font-family="Helvetica,sans-Serif" font-size="10.00" fill="#000000">&#13;</text>
<text text-anchor="middle" x="1507" y="-1668" font-family="Helvetica,sans-Serif" font-size="10.00" fill="#000000">data/standard_asite_disp_length.txt</text>
</g>
<!-- data&#45;&gt;statsfigs -->
<g id="edge34" class="edge">
<title>data&#45;&gt;statsfigs</title>
<path fill="none" stroke="#000000" d="M1462.9797,-1660.9426C1432.7282,-1625.8657 1398,-1573.8672 1398,-1520 1398,-1520 1398,-1520 1398,-584 1398,-513.5555 888.6863,-462.0468 702.8394,-445.5963"/>
<polygon fill="#000000" stroke="#000000" points="702.9193,-442.0899 692.6513,-444.701 702.3065,-449.0631 702.9193,-442.0899"/>
</g>
<!-- ribosome_data0toI -->
<g id="node5" class="node">
<title>ribosome_data0toI</title>
<text text-anchor="middle" x="1370" y="-1702.5" font-family="Helvetica,sans-Serif" font-size="10.00" fill="#000000">...</text>
</g>
<!-- input/&lt;SAMPLE_ID&gt;.fastq.gz -->
<g id="node6" class="node">
<title>input/&lt;SAMPLE_ID&gt;.fastq.gz</title>
<text text-anchor="middle" x="1251" y="-1702.5" font-family="Helvetica,sans-Serif" font-size="10.00" fill="#000000">input/&lt;SAMPLE_ID&gt;.fastq.gz</text>
</g>
<!-- cut -->
<g id="node12" class="node">
<title>cut</title>
<polygon fill="none" stroke="#000000" points="716,-1610 662,-1610 662,-1574 716,-1574 716,-1610"/>
<text text-anchor="middle" x="689" y="-1589.5" font-family="Helvetica,sans-Serif" font-size="10.00" fill="#000000">cutadapt</text>
</g>
<!-- input/&lt;SAMPLE_ID&gt;.fastq.gz&#45;&gt;cut -->
<g id="edge5" class="edge">
<title>input/&lt;SAMPLE_ID&gt;.fastq.gz&#45;&gt;cut</title>
<path fill="none" stroke="#000000" d="M1232.7902,-1686.7173C1217.1218,-1672.3449 1193.1271,-1653.3968 1168,-1645 1123.8366,-1630.2417 793.032,-1652.1458 749,-1637 736.591,-1632.7316 724.6534,-1624.8498 714.7392,-1616.8611"/>
<polygon fill="#000000" stroke="#000000" points="716.8036,-1614.022 706.9212,-1610.2025 712.2648,-1619.3511 716.8036,-1614.022"/>
</g>
<!-- count_reads -->
<g id="node42" class="node">
<title>count_reads</title>
<polygon fill="none" stroke="#000000" points="1140.5,-124 1057.5,-124 1057.5,-88 1140.5,-88 1140.5,-124"/>
<text text-anchor="middle" x="1099" y="-103.5" font-family="Helvetica,sans-Serif" font-size="10.00" fill="#000000">count_reads.py</text>
</g>
<!-- input/&lt;SAMPLE_ID&gt;.fastq.gz&#45;&gt;count_reads -->
<g id="edge42" class="edge">
<title>input/&lt;SAMPLE_ID&gt;.fastq.gz&#45;&gt;count_reads</title>
<path fill="none" stroke="#000000" d="M1251,-1686.881C1251,-1653.7523 1251,-1581.1849 1251,-1520 1251,-1520 1251,-1520 1251,-440 1251,-314.4737 1288.114,-261.3112 1214,-160 1198.7306,-139.1273 1173.3246,-126.0467 1150.2702,-117.999"/>
<polygon fill="#000000" stroke="#000000" points="1151.1623,-114.6088 1140.5702,-114.85 1149.0009,-121.2668 1151.1623,-114.6088"/>
</g>
<!-- ribosome_dataItoN -->
<g id="node7" class="node">
<title>ribosome_dataItoN</title>
<text text-anchor="middle" x="1132" y="-1702.5" font-family="Helvetica,sans-Serif" font-size="10.00" fill="#000000">...</text>
</g>
<!-- index/rRNA.1|...|8.ht2 -->
<g id="node10" class="node">
<title>index/rRNA.1|...|8.ht2</title>
<text text-anchor="middle" x="816" y="-1517.5" font-family="Helvetica,sans-Serif" font-size="10.00" fill="#000000">index/rRNA.1|...|8.ht2</text>
</g>
<!-- h2build1&#45;&gt;index/rRNA.1|...|8.ht2 -->
<g id="edge2" class="edge">
<title>h2build1&#45;&gt;index/rRNA.1|...|8.ht2</title>
<path fill="none" stroke="#000000" d="M827.9625,-1573.8314C826.2513,-1566.131 824.2165,-1556.9743 822.3148,-1548.4166"/>
<polygon fill="#000000" stroke="#000000" points="825.6779,-1547.4159 820.0918,-1538.4133 818.8446,-1548.9344 825.6779,-1547.4159"/>
</g>
<!-- index/CDS.1|...|8.ht2 -->
<g id="node11" class="node">
<title>index/CDS.1|...|8.ht2</title>
<text text-anchor="middle" x="944" y="-1517.5" font-family="Helvetica,sans-Serif" font-size="10.00" fill="#000000">index/CDS.1|...|8.ht2</text>
</g>
<!-- h2build2&#45;&gt;index/CDS.1|...|8.ht2 -->
<g id="edge4" class="edge">
<title>h2build2&#45;&gt;index/CDS.1|...|8.ht2</title>
<path fill="none" stroke="#000000" d="M944,-1573.8314C944,-1566.131 944,-1556.9743 944,-1548.4166"/>
<polygon fill="#000000" stroke="#000000" points="947.5001,-1548.4132 944,-1538.4133 940.5001,-1548.4133 947.5001,-1548.4132"/>
</g>
<!-- h21 -->
<g id="node13" class="node">
<title>h21</title>
<polygon fill="none" stroke="#000000" points="686,-1466 632,-1466 632,-1430 686,-1430 686,-1466"/>
<text text-anchor="middle" x="659" y="-1445.5" font-family="Helvetica,sans-Serif" font-size="10.00" fill="#000000">hisat2</text>
</g>
<!-- index/rRNA.1|...|8.ht2&#45;&gt;h21 -->
<g id="edge8" class="edge">
<title>index/rRNA.1|...|8.ht2&#45;&gt;h21</title>
<path fill="none" stroke="#000000" d="M776.3823,-1501.8314C751.522,-1490.4305 719.7012,-1475.8375 695.4637,-1464.7222"/>
<polygon fill="#000000" stroke="#000000" points="696.7952,-1461.4824 686.2464,-1460.4952 693.8772,-1467.8452 696.7952,-1461.4824"/>
</g>
<!-- h22 -->
<g id="node14" class="node">
<title>h22</title>
<polygon fill="none" stroke="#000000" points="594,-1322 540,-1322 540,-1286 594,-1286 594,-1322"/>
<text text-anchor="middle" x="567" y="-1301.5" font-family="Helvetica,sans-Serif" font-size="10.00" fill="#000000">hisat2</text>
</g>
<!-- index/CDS.1|...|8.ht2&#45;&gt;h22 -->
<g id="edge11" class="edge">
<title>index/CDS.1|...|8.ht2&#45;&gt;h22</title>
<path fill="none" stroke="#000000" d="M926.923,-1501.9446C894.6246,-1468.7975 821.0714,-1397.9807 746,-1358 700.0402,-1333.5233 641.3926,-1318.5183 604.0053,-1310.7257"/>
<polygon fill="#000000" stroke="#000000" points="604.5469,-1307.2645 594.0521,-1308.7171 603.1622,-1314.1262 604.5469,-1307.2645"/>
</g>
<!-- tmp/&lt;SAMPLE_ID&gt;/trim.fq -->
<g id="node24" class="node">
<title>tmp/&lt;SAMPLE_ID&gt;/trim.fq</title>
<text text-anchor="middle" x="669" y="-1517.5" font-family="Helvetica,sans-Serif" font-size="10.00" fill="#000000">tmp/&lt;SAMPLE_ID&gt;/trim.fq</text>
</g>
<!-- cut&#45;&gt;tmp/&lt;SAMPLE_ID&gt;/trim.fq -->
<g id="edge6" class="edge">
<title>cut&#45;&gt;tmp/&lt;SAMPLE_ID&gt;/trim.fq</title>
<path fill="none" stroke="#000000" d="M683.9532,-1573.8314C681.7906,-1566.0463 679.2147,-1556.7729 676.8152,-1548.1347"/>
<polygon fill="#000000" stroke="#000000" points="680.1636,-1547.1117 674.1148,-1538.4133 673.419,-1548.9852 680.1636,-1547.1117"/>
</g>
<!-- tmp/&lt;SAMPLE_ID&gt;/rRNA_map.sam -->
<g id="node25" class="node">
<title>tmp/&lt;SAMPLE_ID&gt;/rRNA_map.sam</title>
<text text-anchor="middle" x="648" y="-1373.5" font-family="Helvetica,sans-Serif" font-size="10.00" fill="#000000">tmp/&lt;SAMPLE_ID&gt;/rRNA_map.sam</text>
</g>
<!-- h21&#45;&gt;tmp/&lt;SAMPLE_ID&gt;/rRNA_map.sam -->
<g id="edge9" class="edge">
<title>h21&#45;&gt;tmp/&lt;SAMPLE_ID&gt;/rRNA_map.sam</title>
<path fill="none" stroke="#000000" d="M656.2242,-1429.8314C655.0478,-1422.131 653.6489,-1412.9743 652.3414,-1404.4166"/>
<polygon fill="#000000" stroke="#000000" points="655.7833,-1403.7699 650.8131,-1394.4133 648.8636,-1404.8272 655.7833,-1403.7699"/>
</g>
<!-- tmp/&lt;SAMPLE_ID&gt;/nonrRNA.fq -->
<g id="node26" class="node">
<title>tmp/&lt;SAMPLE_ID&gt;/nonrRNA.fq</title>
<text text-anchor="middle" x="462" y="-1373.5" font-family="Helvetica,sans-Serif" font-size="10.00" fill="#000000">tmp/&lt;SAMPLE_ID&gt;/nonrRNA.fq</text>
</g>
<!-- h21&#45;&gt;tmp/&lt;SAMPLE_ID&gt;/nonrRNA.fq -->
<g id="edge10" class="edge">
<title>h21&#45;&gt;tmp/&lt;SAMPLE_ID&gt;/nonrRNA.fq</title>
<path fill="none" stroke="#000000" d="M631.608,-1437.9887C603.1722,-1427.5959 557.8067,-1411.0157 521.1459,-1397.6168"/>
<polygon fill="#000000" stroke="#000000" points="522.1383,-1394.2531 511.5445,-1394.1076 519.7354,-1400.8278 522.1383,-1394.2531"/>
</g>
<!-- tmp/&lt;SAMPLE_ID&gt;/unaligned.fq -->
<g id="node27" class="node">
<title>tmp/&lt;SAMPLE_ID&gt;/unaligned.fq</title>
<text text-anchor="middle" x="657" y="-1229.5" font-family="Helvetica,sans-Serif" font-size="10.00" fill="#000000">tmp/&lt;SAMPLE_ID&gt;/unaligned.fq</text>
</g>
<!-- h22&#45;&gt;tmp/&lt;SAMPLE_ID&gt;/unaligned.fq -->
<g id="edge13" class="edge">
<title>h22&#45;&gt;tmp/&lt;SAMPLE_ID&gt;/unaligned.fq</title>
<path fill="none" stroke="#000000" d="M589.7108,-1285.8314C600.796,-1276.9632 614.2954,-1266.1637 626.2852,-1256.5718"/>
<polygon fill="#000000" stroke="#000000" points="628.6742,-1259.1429 634.2965,-1250.1628 624.3013,-1253.6768 628.6742,-1259.1429"/>
</g>
<!-- tmp/&lt;SAMPLE_ID&gt;/orf_map.sam -->
<g id="node28" class="node">
<title>tmp/&lt;SAMPLE_ID&gt;/orf_map.sam</title>
<text text-anchor="middle" x="477" y="-1229.5" font-family="Helvetica,sans-Serif" font-size="10.00" fill="#000000">tmp/&lt;SAMPLE_ID&gt;/orf_map.sam</text>
</g>
<!-- h22&#45;&gt;tmp/&lt;SAMPLE_ID&gt;/orf_map.sam -->
<g id="edge14" class="edge">
<title>h22&#45;&gt;tmp/&lt;SAMPLE_ID&gt;/orf_map.sam</title>
<path fill="none" stroke="#000000" d="M544.2892,-1285.8314C533.204,-1276.9632 519.7046,-1266.1637 507.7148,-1256.5718"/>
<polygon fill="#000000" stroke="#000000" points="509.6987,-1253.6768 499.7035,-1250.1628 505.3258,-1259.1429 509.6987,-1253.6768"/>
</g>
<!-- samindex -->
<g id="node15" class="node">
<title>samindex</title>
<polygon fill="none" stroke="#000000" points="462.5,-890 379.5,-890 379.5,-854 462.5,-854 462.5,-890"/>
<text text-anchor="middle" x="421" y="-869.5" font-family="Helvetica,sans-Serif" font-size="10.00" fill="#000000">samtools index</text>
</g>
<!-- tmp/&lt;SAMPLE_ID&gt;/orf_map_clean.bam+.bai -->
<g id="node32" class="node">
<title>tmp/&lt;SAMPLE_ID&gt;/orf_map_clean.bam+.bai</title>
<text text-anchor="middle" x="421" y="-797.5" font-family="Helvetica,sans-Serif" font-size="10.00" fill="#000000">tmp/&lt;SAMPLE_ID&gt;/orf_map_clean.bam+.bai</text>
</g>
<!-- samindex&#45;&gt;tmp/&lt;SAMPLE_ID&gt;/orf_map_clean.bam+.bai -->
<g id="edge21" class="edge">
<title>samindex&#45;&gt;tmp/&lt;SAMPLE_ID&gt;/orf_map_clean.bam+.bai</title>
<path fill="none" stroke="#000000" d="M421,-853.8314C421,-846.131 421,-836.9743 421,-828.4166"/>
<polygon fill="#000000" stroke="#000000" points="424.5001,-828.4132 421,-818.4133 417.5001,-828.4133 424.5001,-828.4132"/>
</g>
<!-- samview -->
<g id="node16" class="node">
<title>samview</title>
<polygon fill="none" stroke="#000000" points="491.5,-1034 344.5,-1034 344.5,-998 491.5,-998 491.5,-1034"/>
<text text-anchor="middle" x="418" y="-1013.5" font-family="Helvetica,sans-Serif" font-size="10.00" fill="#000000">samtools view | samtools sort</text>
</g>
<!-- tmp/&lt;SAMPLE_ID&gt;/orf_map_clean.bam -->
<g id="node31" class="node">
<title>tmp/&lt;SAMPLE_ID&gt;/orf_map_clean.bam</title>
<text text-anchor="middle" x="421" y="-941.5" font-family="Helvetica,sans-Serif" font-size="10.00" fill="#000000">tmp/&lt;SAMPLE_ID&gt;/orf_map_clean.bam</text>
</g>
<!-- samview&#45;&gt;tmp/&lt;SAMPLE_ID&gt;/orf_map_clean.bam -->
<g id="edge19" class="edge">
<title>samview&#45;&gt;tmp/&lt;SAMPLE_ID&gt;/orf_map_clean.bam</title>
<path fill="none" stroke="#000000" d="M418.757,-997.8314C419.0779,-990.131 419.4594,-980.9743 419.816,-972.4166"/>
<polygon fill="#000000" stroke="#000000" points="423.3133,-972.5503 420.2328,-962.4133 416.3194,-972.2589 423.3133,-972.5503"/>
</g>
<!-- trim -->
<g id="node17" class="node">
<title>trim</title>
<polygon fill="none" stroke="#000000" points="532,-1178 422,-1178 422,-1142 532,-1142 532,-1178"/>
<text text-anchor="middle" x="477" y="-1157.5" font-family="Helvetica,sans-Serif" font-size="10.00" fill="#000000">trim_5p_mismatch.py</text>
</g>
<!-- tmp/&lt;SAMPLE_ID&gt;/trim_5p_mismatch.tsv -->
<g id="node29" class="node">
<title>tmp/&lt;SAMPLE_ID&gt;/trim_5p_mismatch.tsv</title>
<text text-anchor="middle" x="635" y="-1085.5" font-family="Helvetica,sans-Serif" font-size="10.00" fill="#000000">tmp/&lt;SAMPLE_ID&gt;/trim_5p_mismatch.tsv</text>
</g>
<!-- trim&#45;&gt;tmp/&lt;SAMPLE_ID&gt;/trim_5p_mismatch.tsv -->
<g id="edge17" class="edge">
<title>trim&#45;&gt;tmp/&lt;SAMPLE_ID&gt;/trim_5p_mismatch.tsv</title>
<path fill="none" stroke="#000000" d="M516.8701,-1141.8314C537.9077,-1132.2446 563.8983,-1120.4008 586.1396,-1110.2655"/>
<polygon fill="#000000" stroke="#000000" points="587.7683,-1113.3697 595.4166,-1106.038 584.8655,-1106.9999 587.7683,-1113.3697"/>
</g>
<!-- tmp/&lt;SAMPLE_ID&gt;/orf_map_clean.sam -->
<g id="node30" class="node">
<title>tmp/&lt;SAMPLE_ID&gt;/orf_map_clean.sam</title>
<text text-anchor="middle" x="418" y="-1085.5" font-family="Helvetica,sans-Serif" font-size="10.00" fill="#000000">tmp/&lt;SAMPLE_ID&gt;/orf_map_clean.sam</text>
</g>
<!-- trim&#45;&gt;tmp/&lt;SAMPLE_ID&gt;/orf_map_clean.sam -->
<g id="edge16" class="edge">
<title>trim&#45;&gt;tmp/&lt;SAMPLE_ID&gt;/orf_map_clean.sam</title>
<path fill="none" stroke="#000000" d="M462.1118,-1141.8314C455.247,-1133.454 446.9699,-1123.3531 439.4489,-1114.1749"/>
<polygon fill="#000000" stroke="#000000" points="442.1341,-1111.9297 433.0886,-1106.4133 436.7197,-1116.3665 442.1341,-1111.9297"/>
</g>
<!-- bedplus -->
<g id="node18" class="node">
<title>bedplus</title>
<polygon fill="none" stroke="#000000" points="314,-602 192,-602 192,-566 314,-566 314,-602"/>
<text text-anchor="middle" x="253" y="-581.5" font-family="Helvetica,sans-Serif" font-size="10.00" fill="#000000">bedtools genomecov (+)</text>
</g>
<!-- output/&lt;SAMPLE_ID&gt;/plus.bedgraph -->
<g id="node34" class="node">
<title>output/&lt;SAMPLE_ID&gt;/plus.bedgraph</title>
<text text-anchor="middle" x="222" y="-509.5" font-family="Helvetica,sans-Serif" font-size="10.00" fill="#000000">output/&lt;SAMPLE_ID&gt;/plus.bedgraph</text>
</g>
<!-- bedplus&#45;&gt;output/&lt;SAMPLE_ID&gt;/plus.bedgraph -->
<g id="edge25" class="edge">
<title>bedplus&#45;&gt;output/&lt;SAMPLE_ID&gt;/plus.bedgraph</title>
<path fill="none" stroke="#000000" d="M245.1774,-565.8314C241.7891,-557.9617 237.7459,-548.5712 233.9924,-539.8533"/>
<polygon fill="#000000" stroke="#000000" points="237.0973,-538.214 229.9279,-530.4133 230.6679,-540.9822 237.0973,-538.214"/>
</g>
<!-- bedminus -->
<g id="node19" class="node">
<title>bedminus</title>
<polygon fill="none" stroke="#000000" points="482.5,-602 363.5,-602 363.5,-566 482.5,-566 482.5,-602"/>
<text text-anchor="middle" x="423" y="-581.5" font-family="Helvetica,sans-Serif" font-size="10.00" fill="#000000">bedtools genomecov (&#45;)</text>
</g>
<!-- output/&lt;SAMPLE_ID&gt;/minus.bedgraph -->
<g id="node35" class="node">
<title>output/&lt;SAMPLE_ID&gt;/minus.bedgraph</title>
<text text-anchor="middle" x="423" y="-509.5" font-family="Helvetica,sans-Serif" font-size="10.00" fill="#000000">output/&lt;SAMPLE_ID&gt;/minus.bedgraph</text>
</g>
<!-- bedminus&#45;&gt;output/&lt;SAMPLE_ID&gt;/minus.bedgraph -->
<g id="edge27" class="edge">
<title>bedminus&#45;&gt;output/&lt;SAMPLE_ID&gt;/minus.bedgraph</title>
<path fill="none" stroke="#000000" d="M423,-565.8314C423,-558.131 423,-548.9743 423,-540.4166"/>
<polygon fill="#000000" stroke="#000000" points="426.5001,-540.4132 423,-530.4133 419.5001,-540.4133 426.5001,-540.4132"/>
</g>
<!-- output/&lt;SAMPLE_ID&gt;/&lt;SAMPLE_ID&gt;.h5 -->
<g id="node36" class="node">
<title>output/&lt;SAMPLE_ID&gt;/&lt;SAMPLE_ID&gt;.h5</title>
<text text-anchor="middle" x="636" y="-509.5" font-family="Helvetica,sans-Serif" font-size="10.00" fill="#000000">output/&lt;SAMPLE_ID&gt;/&lt;SAMPLE_ID&gt;.h5</text>
</g>
<!-- bam2h5&#45;&gt;output/&lt;SAMPLE_ID&gt;/&lt;SAMPLE_ID&gt;.h5 -->
<g id="edge30" class="edge">
<title>bam2h5&#45;&gt;output/&lt;SAMPLE_ID&gt;/&lt;SAMPLE_ID&gt;.h5</title>
<path fill="none" stroke="#000000" d="M636,-565.8314C636,-558.131 636,-548.9743 636,-540.4166"/>
<polygon fill="#000000" stroke="#000000" points="639.5001,-540.4132 636,-530.4133 632.5001,-540.4133 639.5001,-540.4132"/>
</g>
<!-- copy -->
<g id="node21" class="node">
<title>copy</title>
<polygon fill="none" stroke="#000000" points="450,-746 396,-746 396,-710 450,-710 450,-746"/>
<text text-anchor="middle" x="423" y="-725.5" font-family="Helvetica,sans-Serif" font-size="10.00" fill="#000000">copy</text>
</g>
<!-- output/&lt;SAMPLE_ID&gt;/&lt;SAMPLE_ID&gt;.bam+.bai -->
<g id="node33" class="node">
<title>output/&lt;SAMPLE_ID&gt;/&lt;SAMPLE_ID&gt;.bam+.bai</title>
<text text-anchor="middle" x="423" y="-653.5" font-family="Helvetica,sans-Serif" font-size="10.00" fill="#000000">output/&lt;SAMPLE_ID&gt;/&lt;SAMPLE_ID&gt;.bam+.bai</text>
</g>
<!-- copy&#45;&gt;output/&lt;SAMPLE_ID&gt;/&lt;SAMPLE_ID&gt;.bam+.bai -->
<g id="edge23" class="edge">
<title>copy&#45;&gt;output/&lt;SAMPLE_ID&gt;/&lt;SAMPLE_ID&gt;.bam+.bai</title>
<path fill="none" stroke="#000000" d="M423,-709.8314C423,-702.131 423,-692.9743 423,-684.4166"/>
<polygon fill="#000000" stroke="#000000" points="426.5001,-684.4132 423,-674.4133 419.5001,-684.4133 426.5001,-684.4132"/>
</g>
<!-- pdfs -->
<g id="node37" class="node">
<title>pdfs</title>
<polygon fill="none" stroke="#000000" stroke-dasharray="5,2" points="737.5,-363 498.5,-363 498.5,-183 737.5,-183 737.5,-363"/>
<text text-anchor="middle" x="618" y="-351" font-family="Helvetica,sans-Serif" font-size="10.00" fill="#000000">output/&lt;SAMPLE_ID&gt;/3nt_periodicity.pdf</text>
<text text-anchor="middle" x="618" y="-339" font-family="Helvetica,sans-Serif" font-size="10.00" fill="#000000">&#13;</text>
<text text-anchor="middle" x="618" y="-328" font-family="Helvetica,sans-Serif" font-size="10.00" fill="#000000">output/&lt;SAMPLE_ID&gt;/codon_ribodens.pdf</text>
<text text-anchor="middle" x="618" y="-316" font-family="Helvetica,sans-Serif" font-size="10.00" fill="#000000">&#13;</text>
<text text-anchor="middle" x="618" y="-305" font-family="Helvetica,sans-Serif" font-size="10.00" fill="#000000">output/&lt;SAMPLE_ID&gt;/read_lengths.pdf</text>
<text text-anchor="middle" x="618" y="-293" font-family="Helvetica,sans-Serif" font-size="10.00" fill="#000000">&#13;</text>
<text text-anchor="middle" x="618" y="-282" font-family="Helvetica,sans-Serif" font-size="10.00" fill="#000000">output/&lt;SAMPLE_ID&gt;/pos_sp_rpf_norm_reads.pdf</text>
<text text-anchor="middle" x="618" y="-270" font-family="Helvetica,sans-Serif" font-size="10.00" fill="#000000">&#13;</text>
<text text-anchor="middle" x="618" y="-259" font-family="Helvetica,sans-Serif" font-size="10.00" fill="#000000">output/&lt;SAMPLE_ID&gt;/features.pdf</text>
<text text-anchor="middle" x="618" y="-247" font-family="Helvetica,sans-Serif" font-size="10.00" fill="#000000">&#13;</text>
<text text-anchor="middle" x="618" y="-236" font-family="Helvetica,sans-Serif" font-size="10.00" fill="#000000">output/&lt;SAMPLE_ID&gt;/startcodon_ribogridbar.pdf</text>
<text text-anchor="middle" x="618" y="-224" font-family="Helvetica,sans-Serif" font-size="10.00" fill="#000000">&#13;</text>
<text text-anchor="middle" x="618" y="-213" font-family="Helvetica,sans-Serif" font-size="10.00" fill="#000000">output/&lt;SAMPLE_ID&gt;/startcodon_ribogrid.pdf</text>
<text text-anchor="middle" x="618" y="-201" font-family="Helvetica,sans-Serif" font-size="10.00" fill="#000000">&#13;</text>
<text text-anchor="middle" x="618" y="-190" font-family="Helvetica,sans-Serif" font-size="10.00" fill="#000000">output/&lt;SAMPLE_ID&gt;/3ntframe_propbygene.pdf&#13;</text>
</g>
<!-- statsfigs&#45;&gt;pdfs -->
<g id="edge35" class="edge">
<title>statsfigs&#45;&gt;pdfs</title>
<path fill="none" stroke="#000000" d="M634.0394,-421.8102C632.7032,-409.4133 630.8167,-391.9104 628.8046,-373.2431"/>
<polygon fill="#000000" stroke="#000000" points="632.2617,-372.6557 627.7101,-363.0884 625.302,-373.4059 632.2617,-372.6557"/>
</g>
<!-- tsvs -->
<g id="node38" class="node">
<title>tsvs</title>
<polygon fill="none" stroke="#000000" stroke-dasharray="5,2" points="306,-386 16,-386 16,-160 306,-160 306,-386"/>
<text text-anchor="middle" x="161" y="-374" font-family="Helvetica,sans-Serif" font-size="10.00" fill="#000000">output/&lt;SAMPLE_ID&gt;/3nt_periodicity.tsv</text>
<text text-anchor="middle" x="161" y="-362" font-family="Helvetica,sans-Serif" font-size="10.00" fill="#000000">&#13;</text>
<text text-anchor="middle" x="161" y="-351" font-family="Helvetica,sans-Serif" font-size="10.00" fill="#000000">output/&lt;SAMPLE_ID&gt;/codon_ribodens.tsv</text>
<text text-anchor="middle" x="161" y="-339" font-family="Helvetica,sans-Serif" font-size="10.00" fill="#000000">&#13;</text>
<text text-anchor="middle" x="161" y="-328" font-family="Helvetica,sans-Serif" font-size="10.00" fill="#000000">output/&lt;SAMPLE_ID&gt;/read_lengths.tsv</text>
<text text-anchor="middle" x="161" y="-316" font-family="Helvetica,sans-Serif" font-size="10.00" fill="#000000">&#13;</text>
<text text-anchor="middle" x="161" y="-305" font-family="Helvetica,sans-Serif" font-size="10.00" fill="#000000">output/&lt;SAMPLE_ID&gt;/pos_sp_rpf_norm_reads.tsv</text>
<text text-anchor="middle" x="161" y="-293" font-family="Helvetica,sans-Serif" font-size="10.00" fill="#000000">&#13;</text>
<text text-anchor="middle" x="161" y="-282" font-family="Helvetica,sans-Serif" font-size="10.00" fill="#000000">output/&lt;SAMPLE_ID&gt;/pos_sp_nt_freq.tsv</text>
<text text-anchor="middle" x="161" y="-270" font-family="Helvetica,sans-Serif" font-size="10.00" fill="#000000">&#13;</text>
<text text-anchor="middle" x="161" y="-259" font-family="Helvetica,sans-Serif" font-size="10.00" fill="#000000">output/&lt;SAMPLE_ID&gt;/3ntframe_bygene.tsv</text>
<text text-anchor="middle" x="161" y="-247" font-family="Helvetica,sans-Serif" font-size="10.00" fill="#000000">&#13;</text>
<text text-anchor="middle" x="161" y="-236" font-family="Helvetica,sans-Serif" font-size="10.00" fill="#000000">output/&lt;SAMPLE_ID&gt;/gene_position_length_counts_5start.tsv</text>
<text text-anchor="middle" x="161" y="-224" font-family="Helvetica,sans-Serif" font-size="10.00" fill="#000000">&#13;</text>
<text text-anchor="middle" x="161" y="-213" font-family="Helvetica,sans-Serif" font-size="10.00" fill="#000000">output/&lt;SAMPLE_ID&gt;/codon_ribodens_gathered.tsv</text>
<text text-anchor="middle" x="161" y="-201" font-family="Helvetica,sans-Serif" font-size="10.00" fill="#000000">&#13;</text>
<text text-anchor="middle" x="161" y="-190" font-family="Helvetica,sans-Serif" font-size="10.00" fill="#000000">output/&lt;SAMPLE_ID&gt;/sequence_features.tsv</text>
<text text-anchor="middle" x="161" y="-178" font-family="Helvetica,sans-Serif" font-size="10.00" fill="#000000">&#13;</text>
<text text-anchor="middle" x="161" y="-167" font-family="Helvetica,sans-Serif" font-size="10.00" fill="#000000">output/&lt;SAMPLE_ID&gt;/3ntframe_bygene_filtered.tsv&#13;</text>
</g>
<!-- statsfigs&#45;&gt;tsvs -->
<g id="edge36" class="edge">
<title>statsfigs&#45;&gt;tsvs</title>
<path fill="none" stroke="#000000" d="M579.3231,-433.6658C504.5164,-424.7911 376.1161,-407.6506 315.7384,-385.8222"/>
<polygon fill="#000000" stroke="#000000" points="316.896,-382.5168 306.3081,-382.1336 314.3461,-389.0359 316.896,-382.5168"/>
</g>
<!-- output/&lt;SAMPLE_ID&gt;/tpms.tsv -->
<g id="node40" class="node">
<title>output/&lt;SAMPLE_ID&gt;/tpms.tsv</title>
<text text-anchor="middle" x="402" y="-270.5" font-family="Helvetica,sans-Serif" font-size="10.00" fill="#000000">output/&lt;SAMPLE_ID&gt;/tpms.tsv</text>
</g>
<!-- statsfigs&#45;&gt;output/&lt;SAMPLE_ID&gt;/tpms.tsv -->
<g id="edge37" class="edge">
<title>statsfigs&#45;&gt;output/&lt;SAMPLE_ID&gt;/tpms.tsv</title>
<path fill="none" stroke="#000000" d="M579.312,-427.2394C550.375,-418.816 515.7363,-405.6317 489,-386 457.54,-362.8998 431.8356,-325.4006 416.7277,-299.9952"/>
<polygon fill="#000000" stroke="#000000" points="419.6918,-298.1294 411.6501,-291.2315 413.635,-301.6387 419.6918,-298.1294"/>
</g>
<!-- staticHTML -->
<g id="node23" class="node">
<title>staticHTML</title>
<polygon fill="none" stroke="#000000" points="217.5,-124 104.5,-124 104.5,-88 217.5,-88 217.5,-124"/>
<text text-anchor="middle" x="161" y="-103.5" font-family="Helvetica,sans-Serif" font-size="10.00" fill="#000000">AnalysisOutputs.Rmd</text>
</g>
<!-- output/&lt;SAMPLE_ID&gt;/&lt;SAMPLE_ID&gt;_output_report.html -->
<g id="node39" class="node">
<title>output/&lt;SAMPLE_ID&gt;/&lt;SAMPLE_ID&gt;_output_report.html</title>
<text text-anchor="middle" x="161" y="-31.5" font-family="Helvetica,sans-Serif" font-size="10.00" fill="#000000">output/&lt;SAMPLE_ID&gt;/&lt;SAMPLE_ID&gt;_output_report.html</text>
</g>
<!-- staticHTML&#45;&gt;output/&lt;SAMPLE_ID&gt;/&lt;SAMPLE_ID&gt;_output_report.html -->
<g id="edge39" class="edge">
<title>staticHTML&#45;&gt;output/&lt;SAMPLE_ID&gt;/&lt;SAMPLE_ID&gt;_output_report.html</title>
<path fill="none" stroke="#000000" d="M161,-87.8314C161,-80.131 161,-70.9743 161,-62.4166"/>
<polygon fill="#000000" stroke="#000000" points="164.5001,-62.4132 161,-52.4133 157.5001,-62.4133 164.5001,-62.4132"/>
</g>
<!-- tmp/&lt;SAMPLE_ID&gt;/trim.fq&#45;&gt;h21 -->
<g id="edge7" class="edge">
<title>tmp/&lt;SAMPLE_ID&gt;/trim.fq&#45;&gt;h21</title>
<path fill="none" stroke="#000000" d="M666.4766,-1501.8314C665.4071,-1494.131 664.1353,-1484.9743 662.9468,-1476.4166"/>
<polygon fill="#000000" stroke="#000000" points="666.3999,-1475.8367 661.5574,-1466.4133 659.4664,-1476.7997 666.3999,-1475.8367"/>
</g>
<!-- tmp/&lt;SAMPLE_ID&gt;/trim.fq&#45;&gt;count_reads -->
<g id="edge43" class="edge">
<title>tmp/&lt;SAMPLE_ID&gt;/trim.fq&#45;&gt;count_reads</title>
<path fill="none" stroke="#000000" d="M723.0743,-1501.8977C731.7167,-1499.1572 740.5828,-1496.4353 749,-1494 953.4032,-1434.8617 1213,-1588.7863 1213,-1376 1213,-1376 1213,-1376 1213,-440 1213,-314.6943 1245.5016,-266.8226 1180,-160 1172.4642,-147.7104 1160.9579,-137.6155 1148.9634,-129.6171"/>
<polygon fill="#000000" stroke="#000000" points="1150.5332,-126.4717 1140.1931,-124.1622 1146.8361,-132.4158 1150.5332,-126.4717"/>
</g>
<!-- tmp/&lt;SAMPLE_ID&gt;/rRNA_map.sam&#45;&gt;count_reads -->
<g id="edge44" class="edge">
<title>tmp/&lt;SAMPLE_ID&gt;/rRNA_map.sam&#45;&gt;count_reads</title>
<path fill="none" stroke="#000000" d="M737.1493,-1371.8563C873.224,-1364.7296 1120.2821,-1348.3266 1151,-1322 1182.4331,-1295.0604 1175,-1273.3978 1175,-1232 1175,-1232 1175,-1232 1175,-440 1175,-315.0992 1202.6151,-273.7369 1151,-160 1146.1821,-149.3834 1138.369,-139.5849 1130.2468,-131.3318"/>
<polygon fill="#000000" stroke="#000000" points="1132.4296,-128.577 1122.7777,-124.2077 1127.5982,-133.6424 1132.4296,-128.577"/>
</g>
<!-- tmp/&lt;SAMPLE_ID&gt;/nonrRNA.fq&#45;&gt;h22 -->
<g id="edge12" class="edge">
<title>tmp/&lt;SAMPLE_ID&gt;/nonrRNA.fq&#45;&gt;h22</title>
<path fill="none" stroke="#000000" d="M488.4959,-1357.8314C501.6774,-1348.7927 517.7847,-1337.7476 531.9711,-1328.0198"/>
<polygon fill="#000000" stroke="#000000" points="534.2446,-1330.7047 540.5125,-1322.1628 530.2859,-1324.9316 534.2446,-1330.7047"/>
</g>
<!-- tmp/&lt;SAMPLE_ID&gt;/nonrRNA.fq&#45;&gt;count_reads -->
<g id="edge45" class="edge">
<title>tmp/&lt;SAMPLE_ID&gt;/nonrRNA.fq&#45;&gt;count_reads</title>
<path fill="none" stroke="#000000" d="M541.7487,-1359.506C720.3648,-1322.4965 1137,-1235.7656 1137,-1232 1137,-1232 1137,-1232 1137,-440 1137,-315.0992 1134.0805,-283.1089 1113,-160 1111.5518,-151.5428 1109.4293,-142.4719 1107.2726,-134.225"/>
<polygon fill="#000000" stroke="#000000" points="1110.5808,-133.0529 1104.5707,-124.3277 1103.8279,-134.8964 1110.5808,-133.0529"/>
</g>
<!-- tmp/&lt;SAMPLE_ID&gt;/unaligned.fq&#45;&gt;count_reads -->
<g id="edge46" class="edge">
<title>tmp/&lt;SAMPLE_ID&gt;/unaligned.fq&#45;&gt;count_reads</title>
<path fill="none" stroke="#000000" d="M737.1965,-1226.4286C851.4506,-1217.7771 1050.0928,-1199.816 1075,-1178 1106.1413,-1150.7236 1099,-1129.3978 1099,-1088 1099,-1088 1099,-1088 1099,-440 1099,-326.6915 1099,-191.7608 1099,-134.2341"/>
<polygon fill="#000000" stroke="#000000" points="1102.5001,-134.1025 1099,-124.1025 1095.5001,-134.1026 1102.5001,-134.1025"/>
</g>
<!-- tmp/&lt;SAMPLE_ID&gt;/orf_map.sam&#45;&gt;trim -->
<g id="edge15" class="edge">
<title>tmp/&lt;SAMPLE_ID&gt;/orf_map.sam&#45;&gt;trim</title>
<path fill="none" stroke="#000000" d="M477,-1213.8314C477,-1206.131 477,-1196.9743 477,-1188.4166"/>
<polygon fill="#000000" stroke="#000000" points="480.5001,-1188.4132 477,-1178.4133 473.5001,-1188.4133 480.5001,-1188.4132"/>
</g>
<!-- tmp/&lt;SAMPLE_ID&gt;/orf_map.sam&#45;&gt;count_reads -->
<g id="edge47" class="edge">
<title>tmp/&lt;SAMPLE_ID&gt;/orf_map.sam&#45;&gt;count_reads</title>
<path fill="none" stroke="#000000" d="M558.8176,-1213.9488C719.5427,-1178.2086 1061,-1100.7758 1061,-1088 1061,-1088 1061,-1088 1061,-440 1061,-325.9605 1083.1402,-191.4147 1093.621,-134.1113"/>
<polygon fill="#000000" stroke="#000000" points="1097.1102,-134.4912 1095.4932,-124.0205 1090.2277,-133.2142 1097.1102,-134.4912"/>
</g>
<!-- tmp/&lt;SAMPLE_ID&gt;/trim_5p_mismatch.tsv&#45;&gt;count_reads -->
<g id="edge48" class="edge">
<title>tmp/&lt;SAMPLE_ID&gt;/trim_5p_mismatch.tsv&#45;&gt;count_reads</title>
<path fill="none" stroke="#000000" d="M737.4514,-1078.5682C838.1912,-1068.383 979.6381,-1051.2833 999,-1034 1029.8835,-1006.4321 1023,-985.3978 1023,-944 1023,-944 1023,-944 1023,-440 1023,-315.0992 995.3849,-273.7369 1047,-160 1051.8179,-149.3834 1059.631,-139.5849 1067.7532,-131.3318"/>
<polygon fill="#000000" stroke="#000000" points="1070.4018,-133.6424 1075.2223,-124.2077 1065.5704,-128.577 1070.4018,-133.6424"/>
</g>
<!-- tmp/&lt;SAMPLE_ID&gt;/orf_map_clean.sam&#45;&gt;samview -->
<g id="edge18" class="edge">
<title>tmp/&lt;SAMPLE_ID&gt;/orf_map_clean.sam&#45;&gt;samview</title>
<path fill="none" stroke="#000000" d="M418,-1069.8314C418,-1062.131 418,-1052.9743 418,-1044.4166"/>
<polygon fill="#000000" stroke="#000000" points="421.5001,-1044.4132 418,-1034.4133 414.5001,-1044.4133 421.5001,-1044.4132"/>
</g>
<!-- tmp/&lt;SAMPLE_ID&gt;/orf_map_clean.sam&#45;&gt;count_reads -->
<g id="edge49" class="edge">
<title>tmp/&lt;SAMPLE_ID&gt;/orf_map_clean.sam&#45;&gt;count_reads</title>
<path fill="none" stroke="#000000" d="M507.2175,-1069.9417C666.8925,-1037.0084 985,-968.3433 985,-944 985,-944 985,-944 985,-440 985,-315.0202 944.9834,-266.1214 1011,-160 1019.8602,-145.7573 1034.0014,-134.7116 1048.3788,-126.4289"/>
<polygon fill="#000000" stroke="#000000" points="1050.1652,-129.4424 1057.3163,-121.6249 1046.851,-123.2766 1050.1652,-129.4424"/>
</g>
<!-- tmp/&lt;SAMPLE_ID&gt;/orf_map_clean.bam&#45;&gt;samindex -->
<g id="edge20" class="edge">
<title>tmp/&lt;SAMPLE_ID&gt;/orf_map_clean.bam&#45;&gt;samindex</title>
<path fill="none" stroke="#000000" d="M421,-925.8314C421,-918.131 421,-908.9743 421,-900.4166"/>
<polygon fill="#000000" stroke="#000000" points="424.5001,-900.4132 421,-890.4133 417.5001,-900.4133 424.5001,-900.4132"/>
</g>
<!-- tmp/&lt;SAMPLE_ID&gt;/orf_map_clean.bam+.bai&#45;&gt;copy -->
<g id="edge22" class="edge">
<title>tmp/&lt;SAMPLE_ID&gt;/orf_map_clean.bam+.bai&#45;&gt;copy</title>
<path fill="none" stroke="#000000" d="M421.5047,-781.8314C421.7186,-774.131 421.9729,-764.9743 422.2106,-756.4166"/>
<polygon fill="#000000" stroke="#000000" points="425.7094,-756.5066 422.4885,-746.4133 418.7121,-756.3122 425.7094,-756.5066"/>
</g>
<!-- output/&lt;SAMPLE_ID&gt;/&lt;SAMPLE_ID&gt;.bam+.bai&#45;&gt;bedplus -->
<g id="edge24" class="edge">
<title>output/&lt;SAMPLE_ID&gt;/&lt;SAMPLE_ID&gt;.bam+.bai&#45;&gt;bedplus</title>
<path fill="none" stroke="#000000" d="M380.1018,-637.8314C357.2643,-628.159 329.002,-616.1891 304.9313,-605.9944"/>
<polygon fill="#000000" stroke="#000000" points="306.1629,-602.7151 295.5897,-602.038 303.4329,-609.1608 306.1629,-602.7151"/>
</g>
<!-- output/&lt;SAMPLE_ID&gt;/&lt;SAMPLE_ID&gt;.bam+.bai&#45;&gt;bedminus -->
<g id="edge26" class="edge">
<title>output/&lt;SAMPLE_ID&gt;/&lt;SAMPLE_ID&gt;.bam+.bai&#45;&gt;bedminus</title>
<path fill="none" stroke="#000000" d="M423,-637.8314C423,-630.131 423,-620.9743 423,-612.4166"/>
<polygon fill="#000000" stroke="#000000" points="426.5001,-612.4132 423,-602.4133 419.5001,-612.4133 426.5001,-612.4132"/>
</g>
<!-- output/&lt;SAMPLE_ID&gt;/&lt;SAMPLE_ID&gt;.bam+.bai&#45;&gt;bam2h5 -->
<g id="edge28" class="edge">
<title>output/&lt;SAMPLE_ID&gt;/&lt;SAMPLE_ID&gt;.bam+.bai&#45;&gt;bam2h5</title>
<path fill="none" stroke="#000000" d="M476.474,-637.9243C511.0193,-626.247 555.5581,-611.1916 588.7914,-599.9578"/>
<polygon fill="#000000" stroke="#000000" points="589.9295,-603.2678 598.2821,-596.7497 587.6878,-596.6364 589.9295,-603.2678"/>
</g>
<!-- output/&lt;SAMPLE_ID&gt;/&lt;SAMPLE_ID&gt;.h5&#45;&gt;statsfigs -->
<g id="edge31" class="edge">
<title>output/&lt;SAMPLE_ID&gt;/&lt;SAMPLE_ID&gt;.h5&#45;&gt;statsfigs</title>
<path fill="none" stroke="#000000" d="M636,-493.8314C636,-486.131 636,-476.9743 636,-468.4166"/>
<polygon fill="#000000" stroke="#000000" points="639.5001,-468.4132 636,-458.4133 632.5001,-468.4133 639.5001,-468.4132"/>
</g>
<!-- tsvs&#45;&gt;staticHTML -->
<g id="edge38" class="edge">
<title>tsvs&#45;&gt;staticHTML</title>
<path fill="none" stroke="#000000" d="M161,-159.7591C161,-150.5356 161,-141.8689 161,-134.2989"/>
<polygon fill="#000000" stroke="#000000" points="164.5001,-134.0554 161,-124.0554 157.5001,-134.0555 164.5001,-134.0554"/>
</g>
<!-- collate -->
<g id="node41" class="node">
<title>collate</title>
<polygon fill="none" stroke="#000000" points="981.5,-124 898.5,-124 898.5,-88 981.5,-88 981.5,-124"/>
<text text-anchor="middle" x="940" y="-103.5" font-family="Helvetica,sans-Serif" font-size="10.00" fill="#000000">collate_tpms.R</text>
</g>
<!-- output/&lt;SAMPLE_ID&gt;/tpms.tsv&#45;&gt;collate -->
<g id="edge40" class="edge">
<title>output/&lt;SAMPLE_ID&gt;/tpms.tsv&#45;&gt;collate</title>
<path fill="none" stroke="#000000" d="M409.7629,-254.8599C422.1539,-228.4883 449.1401,-180.4805 489,-160 514.7109,-146.7894 720.3491,-154.833 749,-151 796.8901,-144.5932 850.3399,-131.4736 888.4905,-121.0455"/>
<polygon fill="#000000" stroke="#000000" points="889.6322,-124.3612 898.3367,-118.3211 887.7654,-117.6147 889.6322,-124.3612"/>
</g>
<!-- output/TPMs_collated.tsv -->
<g id="node43" class="node">
<title>output/TPMs_collated.tsv</title>
<text text-anchor="middle" x="951" y="-31.5" font-family="Helvetica,sans-Serif" font-size="10.00" fill="#000000">output/TPMs_collated.tsv</text>
</g>
<!-- collate&#45;&gt;output/TPMs_collated.tsv -->
<g id="edge41" class="edge">
<title>collate&#45;&gt;output/TPMs_collated.tsv</title>
<path fill="none" stroke="#000000" d="M942.7758,-87.8314C943.9522,-80.131 945.3511,-70.9743 946.6586,-62.4166"/>
<polygon fill="#000000" stroke="#000000" points="950.1364,-62.8272 948.1869,-52.4133 943.2167,-61.7699 950.1364,-62.8272"/>
</g>
<!-- output/read_counts.tsv -->
<g id="node44" class="node">
<title>output/read_counts.tsv</title>
<text text-anchor="middle" x="1091" y="-31.5" font-family="Helvetica,sans-Serif" font-size="10.00" fill="#000000">output/read_counts.tsv</text>
</g>
<!-- count_reads&#45;&gt;output/read_counts.tsv -->
<g id="edge50" class="edge">
<title>count_reads&#45;&gt;output/read_counts.tsv</title>
<path fill="none" stroke="#000000" d="M1096.9813,-87.8314C1096.1257,-80.131 1095.1083,-70.9743 1094.1574,-62.4166"/>
<polygon fill="#000000" stroke="#000000" points="1097.6289,-61.9656 1093.0459,-52.4133 1090.6717,-62.7386 1097.6289,-61.9656"/>
</g>
</g>
</svg>
